<svg xmlns="http://www.w3.org/2000/svg" width="512.591" height="353.66" viewBox="0 0 512.591 353.66">
  <g id="Grupo_18211" data-name="Grupo 18211" transform="translate(-931.222 -187.887)">
    <g id="Grupo_18095" data-name="Grupo 18095" transform="translate(931.222 208.675)">
      <g id="Grupo_18066" data-name="Grupo 18066">
        <g id="Grupo_18065" data-name="Grupo 18065">
          <rect id="Rectángulo_3357" data-name="Rectángulo 3357" width="174.222" height="234.978" fill="#dae2f2"/>
        </g>
      </g>
      <g id="Grupo_18068" data-name="Grupo 18068" transform="translate(8.587 8.375)">
        <g id="Grupo_18067" data-name="Grupo 18067">
          <rect id="Rectángulo_3358" data-name="Rectángulo 3358" width="158.264" height="20.589" fill="#eaf0fe"/>
        </g>
      </g>
      <g id="Grupo_18070" data-name="Grupo 18070" transform="translate(10.86 39.275)">
        <g id="Grupo_18069" data-name="Grupo 18069">
          <rect id="Rectángulo_3359" data-name="Rectángulo 3359" width="60.128" height="185.815" fill="#eaf0fe"/>
        </g>
      </g>
      <g id="Grupo_18072" data-name="Grupo 18072" transform="translate(15.967 159.766)">
        <g id="Grupo_18071" data-name="Grupo 18071">
          <rect id="Rectángulo_3360" data-name="Rectángulo 3360" width="47.075" height="53.984" fill="#dae2f2"/>
        </g>
      </g>
      <g id="Grupo_18074" data-name="Grupo 18074" transform="translate(15.967 53.379)">
        <g id="Grupo_18073" data-name="Grupo 18073">
          <rect id="Rectángulo_3361" data-name="Rectángulo 3361" width="47.075" height="7.618" fill="#dae2f2"/>
        </g>
      </g>
      <g id="Grupo_18076" data-name="Grupo 18076" transform="translate(15.967 70.54)">
        <g id="Grupo_18075" data-name="Grupo 18075">
          <rect id="Rectángulo_3362" data-name="Rectángulo 3362" width="47.075" height="7.628" fill="#dae2f2"/>
        </g>
      </g>
      <g id="Grupo_18078" data-name="Grupo 18078" transform="translate(15.967 91.132)">
        <g id="Grupo_18077" data-name="Grupo 18077">
          <rect id="Rectángulo_3363" data-name="Rectángulo 3363" width="47.075" height="7.625" fill="#dae2f2"/>
        </g>
      </g>
      <g id="Grupo_18080" data-name="Grupo 18080" transform="translate(15.967 108.289)">
        <g id="Grupo_18079" data-name="Grupo 18079">
          <rect id="Rectángulo_3364" data-name="Rectángulo 3364" width="47.075" height="7.633" fill="#dae2f2"/>
        </g>
      </g>
      <g id="Grupo_18082" data-name="Grupo 18082" transform="translate(88.003 39.275)">
        <g id="Grupo_18081" data-name="Grupo 18081">
          <rect id="Rectángulo_3365" data-name="Rectángulo 3365" width="78.848" height="9.145" fill="#eaf0fe"/>
        </g>
      </g>
      <g id="Grupo_18084" data-name="Grupo 18084" transform="translate(88.003 56.416)">
        <g id="Grupo_18083" data-name="Grupo 18083">
          <rect id="Rectángulo_3366" data-name="Rectángulo 3366" width="78.848" height="9.16" fill="#eaf0fe"/>
        </g>
      </g>
      <g id="Grupo_18086" data-name="Grupo 18086" transform="translate(88.003 77.013)">
        <g id="Grupo_18085" data-name="Grupo 18085">
          <rect id="Rectángulo_3367" data-name="Rectángulo 3367" width="78.848" height="9.162" fill="#eaf0fe"/>
        </g>
      </g>
      <g id="Grupo_18088" data-name="Grupo 18088" transform="translate(88.003 98.757)">
        <g id="Grupo_18087" data-name="Grupo 18087">
          <rect id="Rectángulo_3368" data-name="Rectángulo 3368" width="78.848" height="120.953" fill="#eaf0fe"/>
        </g>
      </g>
      <g id="Grupo_18090" data-name="Grupo 18090" transform="translate(94.815 112.101)">
        <g id="Grupo_18089" data-name="Grupo 18089">
          <rect id="Rectángulo_3369" data-name="Rectángulo 3369" width="66.933" height="54.415" fill="#dae2f2"/>
        </g>
      </g>
      <g id="Grupo_18092" data-name="Grupo 18092" transform="translate(10.86 13.523)">
        <g id="Grupo_18091" data-name="Grupo 18091">
          <rect id="Rectángulo_3370" data-name="Rectángulo 3370" width="85.936" height="9.734" fill="#dae2f2"/>
        </g>
      </g>
      <g id="Grupo_18094" data-name="Grupo 18094" transform="translate(129.699 13.523)">
        <g id="Grupo_18093" data-name="Grupo 18093">
          <rect id="Rectángulo_3371" data-name="Rectángulo 3371" width="34.024" height="9.734" fill="#dae2f2"/>
        </g>
      </g>
    </g>
    <g id="Grupo_18106" data-name="Grupo 18106" transform="translate(1281.328 331.239)">
      <g id="Grupo_18105" data-name="Grupo 18105">
        <g id="Grupo_18096" data-name="Grupo 18096" transform="translate(16.108 16.015)">
          <path id="Trazado_17222" data-name="Trazado 17222" d="M1140.806,260.251a64.771,64.771,0,1,0,79.153,46.1A64.762,64.762,0,0,0,1140.806,260.251Zm25.228,95.559a34.064,34.064,0,1,1,24.238-41.631A34.079,34.079,0,0,1,1166.033,355.81Z" transform="translate(-1092.544 -258.09)" fill="#eef0f2"/>
        </g>
        <g id="Grupo_18097" data-name="Grupo 18097" transform="translate(46.592)">
          <path id="Trazado_17223" data-name="Trazado 17223" d="M1142.138,279.921l-28.222,7.453s-10.781-21.232-7.223-27.339c3.671-6.318,22.344-11.773,28.219-7.455C1140.621,256.76,1142.138,279.921,1142.138,279.921Z" transform="translate(-1105.973 -251.035)" fill="#eef0f2"/>
        </g>
        <g id="Grupo_18098" data-name="Grupo 18098" transform="translate(77.445 126.379)">
          <path id="Trazado_17224" data-name="Trazado 17224" d="M1147.783,306.707l-28.219,7.455s1.1,23.784,7.214,27.35c6.3,3.668,25.237-.795,28.226-7.462C1157.892,327.6,1147.783,306.707,1147.783,306.707Z" transform="translate(-1119.564 -306.707)" fill="#eef0f2"/>
        </g>
        <g id="Grupo_18099" data-name="Grupo 18099" transform="translate(5.336 31.926)">
          <path id="Trazado_17225" data-name="Trazado 17225" d="M1125.827,276.311,1114.457,303.2s-23.389-4.463-26.054-11.017c-2.745-6.76,4.361-24.869,11.375-26.882C1106.566,263.349,1125.827,276.311,1125.827,276.311Z" transform="translate(-1087.799 -265.099)" fill="#eef0f2"/>
        </g>
        <g id="Grupo_18100" data-name="Grupo 18100" transform="translate(0 82.272)">
          <path id="Trazado_17226" data-name="Trazado 17226" d="M1116.518,287.8l2.749,29.066s-22.705,7.169-28.158,2.661c-5.63-4.649-7.972-23.961-2.745-29.066C1093.425,285.524,1116.518,287.8,1116.518,287.8Z" transform="translate(-1085.448 -287.277)" fill="#eef0f2"/>
        </g>
        <g id="Grupo_18101" data-name="Grupo 18101" transform="translate(126.751 48.481)">
          <path id="Trazado_17227" data-name="Trazado 17227" d="M1147.581,307.873l-6.3-28.5s21.663-9.913,27.613-6.109c6.154,3.927,10.853,22.81,6.3,28.519C1170.786,307.292,1147.581,307.873,1147.581,307.873Z" transform="translate(-1141.284 -272.392)" fill="#eef0f2"/>
        </g>
        <g id="Grupo_18102" data-name="Grupo 18102" transform="translate(94.142 6.182)">
          <path id="Trazado_17228" data-name="Trazado 17228" d="M1126.919,276.365l23.173,17.768s18.136-15.425,17.212-22.437c-.954-7.244-16.065-19.486-23.157-17.775C1137.275,255.582,1126.919,276.365,1126.919,276.365Z" transform="translate(-1126.919 -253.759)" fill="#eef0f2"/>
        </g>
        <g id="Grupo_18103" data-name="Grupo 18103" transform="translate(22.836 117.703)">
          <path id="Trazado_17229" data-name="Trazado 17229" d="M1135.92,320.655l-23.153-17.77s-18.154,15.425-17.225,22.438c.958,7.232,16.07,19.48,23.166,17.766C1125.589,341.435,1135.92,320.655,1135.92,320.655Z" transform="translate(-1095.508 -302.885)" fill="#eef0f2"/>
        </g>
        <g id="Grupo_18104" data-name="Grupo 18104" transform="translate(119.803 94.598)">
          <path id="Trazado_17230" data-name="Trazado 17230" d="M1138.223,319.589l11.362-26.882s23.4,4.456,26.051,11.014c2.744,6.76-4.356,24.873-11.375,26.889C1157.462,332.565,1138.223,319.589,1138.223,319.589Z" transform="translate(-1138.223 -292.707)" fill="#eef0f2"/>
        </g>
      </g>
    </g>
    <g id="Grupo_18116" data-name="Grupo 18116" transform="translate(1329.597 255.286)">
      <g id="Grupo_18107" data-name="Grupo 18107" transform="translate(7.788 7.749)">
        <path id="Trazado_17231" data-name="Trazado 17231" d="M1133.487,222.038a31.342,31.342,0,1,0,38.308,22.3A31.337,31.337,0,0,0,1133.487,222.038Zm12.215,46.235a16.481,16.481,0,1,1,11.727-20.142A16.484,16.484,0,0,1,1145.7,268.272Z" transform="translate(-1110.142 -220.991)" fill="#eef0f2"/>
      </g>
      <g id="Grupo_18108" data-name="Grupo 18108" transform="translate(22.538)">
        <path id="Trazado_17232" data-name="Trazado 17232" d="M1134.133,231.554l-13.659,3.6s-5.205-10.27-3.487-13.23c1.773-3.053,10.813-5.693,13.664-3.6C1133.414,220.346,1134.133,231.554,1134.133,231.554Z" transform="translate(-1116.64 -217.577)" fill="#eef0f2"/>
      </g>
      <g id="Grupo_18109" data-name="Grupo 18109" transform="translate(37.464 61.151)">
        <path id="Trazado_17233" data-name="Trazado 17233" d="M1136.874,244.515l-13.659,3.607s.533,11.507,3.492,13.232c3.06,1.773,12.217-.386,13.666-3.609C1141.775,254.626,1136.874,244.515,1136.874,244.515Z" transform="translate(-1123.215 -244.515)" fill="#eef0f2"/>
      </g>
      <g id="Grupo_18110" data-name="Grupo 18110" transform="translate(2.579 15.448)">
        <path id="Trazado_17234" data-name="Trazado 17234" d="M1126.243,229.805l-5.5,13.01s-11.314-2.154-12.6-5.33c-1.333-3.271,2.1-12.034,5.5-13.005C1116.931,223.533,1126.243,229.805,1126.243,229.805Z" transform="translate(-1107.847 -224.382)" fill="#eef0f2"/>
      </g>
      <g id="Grupo_18111" data-name="Grupo 18111" transform="translate(0 39.807)">
        <path id="Trazado_17235" data-name="Trazado 17235" d="M1121.74,235.365l1.33,14.065s-11,3.471-13.62,1.292c-2.722-2.254-3.857-11.6-1.33-14.07C1110.567,234.267,1121.74,235.365,1121.74,235.365Z" transform="translate(-1106.712 -235.113)" fill="#eef0f2"/>
      </g>
      <g id="Grupo_18112" data-name="Grupo 18112" transform="translate(61.33 23.459)">
        <path id="Trazado_17236" data-name="Trazado 17236" d="M1136.779,245.077l-3.051-13.791s10.477-4.792,13.359-2.956c2.976,1.9,5.249,11.037,3.046,13.8C1148,244.8,1136.779,245.077,1136.779,245.077Z" transform="translate(-1133.728 -227.911)" fill="#eef0f2"/>
      </g>
      <g id="Grupo_18113" data-name="Grupo 18113" transform="translate(45.543 2.99)">
        <path id="Trazado_17237" data-name="Trazado 17237" d="M1126.774,229.833l11.216,8.594s8.772-7.459,8.324-10.853c-.458-3.505-7.766-9.43-11.208-8.6C1131.786,219.774,1126.774,229.833,1126.774,229.833Z" transform="translate(-1126.774 -218.894)" fill="#eef0f2"/>
      </g>
      <g id="Grupo_18114" data-name="Grupo 18114" transform="translate(11.05 56.953)">
        <path id="Trazado_17238" data-name="Trazado 17238" d="M1131.129,251.263l-11.21-8.6s-8.781,7.464-8.322,10.856c.461,3.5,7.77,9.428,11.2,8.6C1126.121,261.322,1131.129,251.263,1131.129,251.263Z" transform="translate(-1111.579 -242.666)" fill="#eef0f2"/>
      </g>
      <g id="Grupo_18115" data-name="Grupo 18115" transform="translate(57.959 45.773)">
        <path id="Trazado_17239" data-name="Trazado 17239" d="M1132.243,250.749l5.5-13.008s11.318,2.157,12.61,5.328c1.328,3.271-2.1,12.036-5.5,13.014C1141.555,257.028,1132.243,250.749,1132.243,250.749Z" transform="translate(-1132.243 -237.741)" fill="#eef0f2"/>
      </g>
    </g>
    <g id="Grupo_18119" data-name="Grupo 18119" transform="translate(1004.04 301.404)">
      <g id="Grupo_18118" data-name="Grupo 18118">
        <g id="Grupo_18117" data-name="Grupo 18117">
          <path id="Rectángulo_3372" data-name="Rectángulo 3372" d="M3.151,0H370.356a3.151,3.151,0,0,1,3.151,3.151V226.432a3.148,3.148,0,0,1-3.148,3.148H3.15A3.15,3.15,0,0,1,0,226.43V3.151A3.151,3.151,0,0,1,3.151,0Z" fill="#41090a"/>
        </g>
      </g>
    </g>
    <g id="Grupo_18121" data-name="Grupo 18121" transform="translate(1025.587 324.654)">
      <g id="Grupo_18120" data-name="Grupo 18120">
        <rect id="Rectángulo_3373" data-name="Rectángulo 3373" width="330.415" height="184.866" fill="#dae2f2"/>
      </g>
    </g>
    <g id="Grupo_18123" data-name="Grupo 18123" transform="translate(978.378 520.422)">
      <g id="Grupo_18122" data-name="Grupo 18122" transform="translate(0 0)">
        <path id="Trazado_17240" data-name="Trazado 17240" d="M959.62,355.5h417.563a7.628,7.628,0,0,0,7.616-7.627v-13.5h-432.8v13.5A7.622,7.622,0,0,0,959.62,355.5Z" transform="translate(-951.995 -334.373)" fill="#67161e"/>
      </g>
    </g>
    <g id="Grupo_18154" data-name="Grupo 18154" transform="translate(1049.122 343.264)" opacity="0.5">
      <g id="Grupo_18125" data-name="Grupo 18125">
        <g id="Grupo_18124" data-name="Grupo 18124">
          <rect id="Rectángulo_3374" data-name="Rectángulo 3374" width="290.329" height="166.769" fill="#eef9ff"/>
        </g>
      </g>
      <g id="Grupo_18127" data-name="Grupo 18127" transform="translate(6.795 4.951)">
        <g id="Grupo_18126" data-name="Grupo 18126">
          <rect id="Rectángulo_3375" data-name="Rectángulo 3375" width="270.918" height="14.708" fill="#dae2f2"/>
        </g>
      </g>
      <g id="Grupo_18129" data-name="Grupo 18129" transform="translate(10.683 27.017)">
        <g id="Grupo_18128" data-name="Grupo 18128">
          <rect id="Rectángulo_3376" data-name="Rectángulo 3376" width="102.929" height="132.695" fill="#dae2f2"/>
        </g>
      </g>
      <g id="Grupo_18131" data-name="Grupo 18131" transform="translate(19.42 113.062)">
        <g id="Grupo_18130" data-name="Grupo 18130">
          <rect id="Rectángulo_3377" data-name="Rectángulo 3377" width="80.592" height="38.548" fill="#eef9ff"/>
        </g>
      </g>
      <g id="Grupo_18133" data-name="Grupo 18133" transform="translate(19.42 37.088)">
        <g id="Grupo_18132" data-name="Grupo 18132">
          <rect id="Rectángulo_3378" data-name="Rectángulo 3378" width="80.592" height="5.442" fill="#eef9ff"/>
        </g>
      </g>
      <g id="Grupo_18135" data-name="Grupo 18135" transform="translate(19.42 49.345)">
        <g id="Grupo_18134" data-name="Grupo 18134">
          <rect id="Rectángulo_3379" data-name="Rectángulo 3379" width="80.592" height="5.447" fill="#eef9ff"/>
        </g>
      </g>
      <g id="Grupo_18137" data-name="Grupo 18137" transform="translate(19.42 64.051)">
        <g id="Grupo_18136" data-name="Grupo 18136">
          <rect id="Rectángulo_3380" data-name="Rectángulo 3380" width="80.592" height="5.442" fill="#eef9ff"/>
        </g>
      </g>
      <g id="Grupo_18139" data-name="Grupo 18139" transform="translate(19.42 76.297)">
        <g id="Grupo_18138" data-name="Grupo 18138">
          <rect id="Rectángulo_3381" data-name="Rectángulo 3381" width="80.592" height="5.453" fill="#eef9ff"/>
        </g>
      </g>
      <g id="Grupo_18141" data-name="Grupo 18141" transform="translate(142.748 27.017)">
        <g id="Grupo_18140" data-name="Grupo 18140">
          <rect id="Rectángulo_3382" data-name="Rectángulo 3382" width="134.965" height="6.532" fill="#dae2f2"/>
        </g>
      </g>
      <g id="Grupo_18143" data-name="Grupo 18143" transform="translate(142.748 39.261)">
        <g id="Grupo_18142" data-name="Grupo 18142">
          <rect id="Rectángulo_3383" data-name="Rectángulo 3383" width="134.965" height="6.538" fill="#dae2f2"/>
        </g>
      </g>
      <g id="Grupo_18145" data-name="Grupo 18145" transform="translate(142.748 53.967)">
        <g id="Grupo_18144" data-name="Grupo 18144">
          <rect id="Rectángulo_3384" data-name="Rectángulo 3384" width="134.965" height="6.542" fill="#dae2f2"/>
        </g>
      </g>
      <g id="Grupo_18147" data-name="Grupo 18147" transform="translate(142.748 69.493)">
        <g id="Grupo_18146" data-name="Grupo 18146">
          <rect id="Rectángulo_3385" data-name="Rectángulo 3385" width="134.965" height="86.374" fill="#dae2f2"/>
        </g>
      </g>
      <g id="Grupo_18149" data-name="Grupo 18149" transform="translate(154.394 79.027)">
        <g id="Grupo_18148" data-name="Grupo 18148">
          <rect id="Rectángulo_3386" data-name="Rectángulo 3386" width="114.565" height="38.859" fill="#eef9ff"/>
        </g>
      </g>
      <g id="Grupo_18151" data-name="Grupo 18151" transform="translate(10.683 8.63)">
        <g id="Grupo_18150" data-name="Grupo 18150">
          <rect id="Rectángulo_3387" data-name="Rectángulo 3387" width="147.109" height="6.948" fill="#eef9ff"/>
        </g>
      </g>
      <g id="Grupo_18153" data-name="Grupo 18153" transform="translate(214.105 8.63)">
        <g id="Grupo_18152" data-name="Grupo 18152">
          <rect id="Rectángulo_3388" data-name="Rectángulo 3388" width="58.26" height="6.948" fill="#eef9ff"/>
        </g>
      </g>
    </g>
    <path id="Trazado_17241" data-name="Trazado 17241" d="M1100.6,300.391A77.494,77.494,0,1,1,1023.1,222.9,77.49,77.49,0,0,1,1100.6,300.391Z" transform="translate(18.272 44.472)" fill="#ea4136"/>
    <path id="Trazado_17242" data-name="Trazado 17242" d="M1079.659,292.881a64.067,64.067,0,1,1-64.066-64.066A64.066,64.066,0,0,1,1079.659,292.881Z" transform="translate(25.785 51.982)" fill="#e9f6ff"/>
    <circle id="Elipse_834" data-name="Elipse 834" cx="49.77" cy="49.77" r="49.77" transform="translate(991.607 295.094)" fill="#ea4136"/>
    <path id="Trazado_17243" data-name="Trazado 17243" d="M1024.377,273.048a28.619,28.619,0,1,1-28.617-28.617A28.617,28.617,0,0,1,1024.377,273.048Z" transform="translate(45.617 71.815)" fill="#f3faff"/>
    <path id="Trazado_17244" data-name="Trazado 17244" d="M997.4,263.368a11.321,11.321,0,1,1-11.319-11.316A11.321,11.321,0,0,1,997.4,263.368Z" transform="translate(55.295 81.495)" fill="#ea4136"/>
    <rect id="Rectángulo_3389" data-name="Rectángulo 3389" width="86.078" height="2.802" transform="matrix(0.672, -0.741, 0.741, 0.672, 1040.036, 344.547)" fill="#2c384e"/>
    <path id="Trazado_17245" data-name="Trazado 17245" d="M981.839,258.077a1.444,1.444,0,1,1-1.437-1.337A1.388,1.388,0,0,1,981.839,258.077Z" transform="translate(60.628 87.449)" fill="#003aa5"/>
    <path id="Trazado_17246" data-name="Trazado 17246" d="M1020.193,221.173l1.366,9.068,9.884.032L1006.92,260.6l-11.043,2.148.391-11.991Z" transform="translate(82.116 42.276)" fill="#a094b9"/>
    <g id="Grupo_18155" data-name="Grupo 18155" transform="translate(1117.686 285.133)">
      <path id="Trazado_17247" data-name="Trazado 17247" d="M1167.152,330.683l0-99.958H1019.313v173.3h117.329a15.438,15.438,0,0,0,30.124,0h.014v-.045a15.58,15.58,0,0,0,.372-3.357v-62.7c0-.227-.025-.447-.029-.674Z" transform="translate(-1005.804 -230.725)" fill="#eef9ff"/>
      <path id="Trazado_17248" data-name="Trazado 17248" d="M1143.805,310.212v-8.306H1013.362v9.021a14.758,14.758,0,0,0,9.594,13.634,16.407,16.407,0,0,0,5.162,1.04.522.522,0,0,0-.134.064H1159.26A15.454,15.454,0,0,1,1143.805,310.212Z" transform="translate(-1013.362 -140.319)" fill="#f99b1c"/>
    </g>
    <g id="Grupo_18156" data-name="Grupo 18156" transform="translate(1139.022 356.992)">
      <path id="Trazado_17249" data-name="Trazado 17249" d="M1032.141,318.671l9.733-56.291,11.581,56.291Z" transform="translate(-1010.848 -262.38)" fill="#f99b1c"/>
      <path id="Trazado_17250" data-name="Trazado 17250" d="M1041,307.107l9.72-35.622,11.59,35.622Z" transform="translate(-999.593 -250.817)" fill="#ffbd07"/>
      <path id="Trazado_17251" data-name="Trazado 17251" d="M1022.761,299.674l9.734-22.336,11.58,22.336Z" transform="translate(-1022.761 -243.383)" fill="#d64626"/>
      <path id="Trazado_17252" data-name="Trazado 17252" d="M1060.225,318.773l9.725-56.288,11.59,56.288Z" transform="translate(-975.178 -262.248)" fill="#f99b1c"/>
      <path id="Trazado_17253" data-name="Trazado 17253" d="M1069.085,307.21l9.729-35.622,11.581,35.622Z" transform="translate(-963.926 -250.686)" fill="#ffbd07"/>
      <path id="Trazado_17254" data-name="Trazado 17254" d="M1050.844,299.778l9.733-22.339,11.585,22.339Z" transform="translate(-987.094 -243.254)" fill="#d64626"/>
    </g>
    <g id="Grupo_18160" data-name="Grupo 18160" transform="translate(1142.772 303.363)">
      <g id="Grupo_18157" data-name="Grupo 18157">
        <rect id="Rectángulo_3390" data-name="Rectángulo 3390" width="4.042" height="31.361" fill="#d64626"/>
        <rect id="Rectángulo_3391" data-name="Rectángulo 3391" width="4.451" height="23.079" transform="translate(4.893 8.282)" fill="#ffbd07"/>
        <rect id="Rectángulo_3392" data-name="Rectángulo 3392" width="4.038" height="26.628" transform="translate(10.61 4.733)" fill="#d64626"/>
        <rect id="Rectángulo_3393" data-name="Rectángulo 3393" width="4.454" height="15.681" transform="translate(15.498 15.681)" fill="#ffbd07"/>
      </g>
      <g id="Grupo_18158" data-name="Grupo 18158" transform="translate(21.151)">
        <rect id="Rectángulo_3394" data-name="Rectángulo 3394" width="4.038" height="31.361" fill="#d64626"/>
        <rect id="Rectángulo_3395" data-name="Rectángulo 3395" width="4.451" height="23.079" transform="translate(4.893 8.282)" fill="#ffbd07"/>
        <rect id="Rectángulo_3396" data-name="Rectángulo 3396" width="4.038" height="26.628" transform="translate(10.61 4.733)" fill="#d64626"/>
        <rect id="Rectángulo_3397" data-name="Rectángulo 3397" width="4.454" height="15.681" transform="translate(15.499 15.681)" fill="#ffbd07"/>
      </g>
      <g id="Grupo_18159" data-name="Grupo 18159" transform="translate(42.302)">
        <rect id="Rectángulo_3398" data-name="Rectángulo 3398" width="4.034" height="31.361" fill="#d64626"/>
        <rect id="Rectángulo_3399" data-name="Rectángulo 3399" width="4.442" height="23.079" transform="translate(4.893 8.282)" fill="#ffbd07"/>
        <rect id="Rectángulo_3400" data-name="Rectángulo 3400" width="4.042" height="26.628" transform="translate(10.606 4.733)" fill="#d64626"/>
        <rect id="Rectángulo_3401" data-name="Rectángulo 3401" width="4.45" height="15.681" transform="translate(15.498 15.681)" fill="#ffbd07"/>
      </g>
    </g>
    <g id="Grupo_18161" data-name="Grupo 18161" transform="translate(1212.807 302.773)">
      <rect id="Rectángulo_3402" data-name="Rectángulo 3402" width="48.286" height="3.084" fill="#dae2f2"/>
    </g>
    <g id="Grupo_18162" data-name="Grupo 18162" transform="translate(1212.807 309.626)">
      <rect id="Rectángulo_3403" data-name="Rectángulo 3403" width="38.346" height="2.448" fill="#dae2f2"/>
    </g>
    <g id="Grupo_18163" data-name="Grupo 18163" transform="translate(1212.807 316.159)">
      <rect id="Rectángulo_3404" data-name="Rectángulo 3404" width="50.722" height="2.451" fill="#dae2f2"/>
    </g>
    <g id="Grupo_18164" data-name="Grupo 18164" transform="translate(1212.807 325.676)">
      <rect id="Rectángulo_3405" data-name="Rectángulo 3405" width="48.286" height="3.082" fill="#dae2f2"/>
    </g>
    <g id="Grupo_18165" data-name="Grupo 18165" transform="translate(1212.807 332.527)">
      <rect id="Rectángulo_3406" data-name="Rectángulo 3406" width="38.346" height="2.451" fill="#dae2f2"/>
    </g>
    <g id="Grupo_18166" data-name="Grupo 18166" transform="translate(1212.807 339.065)">
      <rect id="Rectángulo_3407" data-name="Rectángulo 3407" width="50.722" height="2.446" fill="#dae2f2"/>
    </g>
    <g id="Grupo_18210" data-name="Grupo 18210" transform="translate(1222.668 187.887)">
      <g id="Grupo_18209" data-name="Grupo 18209" transform="translate(3.48 1.557)">
        <g id="Grupo_18173" data-name="Grupo 18173" transform="translate(11.866 20.581)">
          <g id="Grupo_18169" data-name="Grupo 18169" transform="translate(0 36.736)">
            <g id="Grupo_18168" data-name="Grupo 18168">
              <g id="Grupo_18167" data-name="Grupo 18167">
                <path id="Trazado_17255" data-name="Trazado 17255" d="M1078.068,216.7s-8.44-3.841-10.206-2.656c-1.491,1-5.06,6.89,9.509,6.334Z" transform="translate(-1066.368 -213.822)" fill="#ffc190"/>
              </g>
            </g>
          </g>
          <g id="Grupo_18172" data-name="Grupo 18172" transform="translate(9.837)">
            <g id="Grupo_18171" data-name="Grupo 18171">
              <g id="Grupo_18170" data-name="Grupo 18170">
                <path id="Trazado_17256" data-name="Trazado 17256" d="M1142.065,216.031l-16.878,38.312-54.486-12.96.892-4.613,43.436,3.41,16.835-33.236s8.738-14.438,13.26-7.344C1147.357,203.13,1145.4,208.095,1142.065,216.031Z" transform="translate(-1070.701 -197.639)" fill="#ffc7ca"/>
              </g>
            </g>
          </g>
        </g>
        <g id="Grupo_18176" data-name="Grupo 18176" transform="translate(87.034 0.035)">
          <g id="Grupo_18175" data-name="Grupo 18175">
            <g id="Grupo_18174" data-name="Grupo 18174">
              <path id="Trazado_17257" data-name="Trazado 17257" d="M1109.09,188.894s7.119.59,8.747,5.08,3.761,6.819,9.5,9.789c5.723,2.974,14.808,8.363,14.524,13.922-.447,8.842,6.027,12.687,4.218,17.661s-8.109,3.414-10.241,1.153-17.135-12.665-19.656-16.878-7.993-.57-10.751-3.328-1.85-7.752-3.162-9.335c-4.792-5.809-2.606-11.507.577-15.58S1109.09,188.894,1109.09,188.894Z" transform="translate(-1099.481 -188.589)" fill="#11141b"/>
            </g>
          </g>
        </g>
        <g id="Grupo_18179" data-name="Grupo 18179" transform="translate(20.029 81.3)">
          <g id="Grupo_18178" data-name="Grupo 18178">
            <g id="Grupo_18177" data-name="Grupo 18177">
              <path id="Trazado_17258" data-name="Trazado 17258" d="M1182.494,224.387l-46.348,3.707-54.282,7.78s-11.916.315-11.107,30.862l-.792,55.047,6.252-.1s11.2-38.546,13.929-65.989c0,0,48.037,2.944,64.239-4.245S1186.147,226.416,1182.494,224.387Z" transform="translate(-1069.964 -224.387)" fill="#351270"/>
            </g>
          </g>
        </g>
        <g id="Grupo_18183" data-name="Grupo 18183" transform="translate(42.311 81.589)">
          <g id="Grupo_18182" data-name="Grupo 18182">
            <g id="Grupo_18181" data-name="Grupo 18181">
              <g id="Grupo_18180" data-name="Grupo 18180">
                <path id="Trazado_17259" data-name="Trazado 17259" d="M1170.114,224.514l-84.642,25.541s-11.439,2.844-1.886,33.275l14.553,56.382,6.245-1.886s0-40.764-4.088-69.582c0,0,45.279-2.029,64.677-9.745C1182.154,251.635,1176.059,232.941,1170.114,224.514Z" transform="translate(-1079.779 -224.514)" fill="#1f0b4c"/>
              </g>
            </g>
          </g>
        </g>
        <g id="Grupo_18186" data-name="Grupo 18186" transform="translate(82.667 21.391)">
          <g id="Grupo_18185" data-name="Grupo 18185">
            <g id="Grupo_18184" data-name="Grupo 18184">
              <path id="Trazado_17260" data-name="Trazado 17260" d="M1131.247,198.625s5.6,3.993,9.711,15.307,1.319,27.486,1.319,27.486l8.021,21.611-49.2-1.417-3.024-20.158,4.3-8.744-4.82-7.782L1105.775,198Z" transform="translate(-1097.557 -197.996)" fill="#ff2363"/>
            </g>
          </g>
        </g>
        <g id="Grupo_18189" data-name="Grupo 18189" transform="translate(46.649 192.827)">
          <g id="Grupo_18188" data-name="Grupo 18188">
            <g id="Grupo_18187" data-name="Grupo 18187">
              <path id="Trazado_17261" data-name="Trazado 17261" d="M1102.824,273.516l-9.3,1.793,1.276,6.3-1.212,3.013-11.9,12.042,3.35-1.012,12.848-5.893,1.349.543,4.91-1.555Z" transform="translate(-1081.691 -273.516)" fill="#7a92ce"/>
            </g>
          </g>
        </g>
        <g id="Grupo_18192" data-name="Grupo 18192" transform="translate(0 174.473)">
          <g id="Grupo_18191" data-name="Grupo 18191">
            <g id="Grupo_18190" data-name="Grupo 18190">
              <path id="Trazado_17262" data-name="Trazado 17262" d="M1088.3,267.222l-8.9-1.791-1.16,6.046-2.174,2.238-14.931,6.338,3.346.326,13.522-.559,1,.975,4.923.413Z" transform="translate(-1061.141 -265.431)" fill="#7a92ce"/>
            </g>
          </g>
        </g>
        <g id="Grupo_18195" data-name="Grupo 18195" transform="translate(94.785 12.703)">
          <g id="Grupo_18194" data-name="Grupo 18194">
            <g id="Grupo_18193" data-name="Grupo 18193">
              <path id="Trazado_17263" data-name="Trazado 17263" d="M1109.481,194.169l5.6,9.078s-9.541,12.435-9.827,7.135c-.275-4.919-2.359-14.217-2.359-14.217Z" transform="translate(-1102.895 -194.169)" fill="#ffc190"/>
            </g>
          </g>
        </g>
        <g id="Grupo_18198" data-name="Grupo 18198" transform="translate(89.499)">
          <g id="Grupo_18197" data-name="Grupo 18197">
            <g id="Grupo_18196" data-name="Grupo 18196">
              <path id="Trazado_17264" data-name="Trazado 17264" d="M1109.015,189.921c1.412,1.775,4.2,5.221,3.866,8.224-.345,3.008-.62,8.27-3.312,10.329s-4.533-1.124-5.525-2.07-5.979-11.639-1.893-15.8C1105.233,187.461,1107.936,188.571,1109.015,189.921Z" transform="translate(-1100.566 -188.573)" fill="#ffc190"/>
            </g>
          </g>
        </g>
        <g id="Grupo_18201" data-name="Grupo 18201" transform="translate(88.996 0.044)">
          <g id="Grupo_18200" data-name="Grupo 18200">
            <g id="Grupo_18199" data-name="Grupo 18199">
              <path id="Trazado_17265" data-name="Trazado 17265" d="M1104.982,192.539s4.593,5.085,8.99,5.09c0,0-2.182-9.552-8.238-9.014,0,0-6.994,1.641-5.047,10.329C1100.688,198.943,1105.475,195.577,1104.982,192.539Z" transform="translate(-1100.345 -188.592)" fill="#191d26"/>
            </g>
          </g>
        </g>
        <g id="Grupo_18208" data-name="Grupo 18208" transform="translate(76.502 25.055)">
          <g id="Grupo_18204" data-name="Grupo 18204" transform="translate(0 72.62)">
            <g id="Grupo_18203" data-name="Grupo 18203">
              <g id="Grupo_18202" data-name="Grupo 18202">
                <path id="Trazado_17266" data-name="Trazado 17266" d="M1103.669,231.6s-8.5,3.7-8.806,5.811c-.266,1.773,1.739,8.372,11.064-2.842Z" transform="translate(-1094.841 -231.6)" fill="#ffc190"/>
              </g>
            </g>
          </g>
          <g id="Grupo_18207" data-name="Grupo 18207" transform="translate(7.364)">
            <g id="Grupo_18206" data-name="Grupo 18206">
              <g id="Grupo_18205" data-name="Grupo 18205">
                <path id="Trazado_17267" data-name="Trazado 17267" d="M1141.852,214.595l9.811,40.748-52.042,20.785-1.537-3.187,37-22.991-6.134-36.746s-3.053-12.208,5.253-13.593A41,41,0,0,1,1141.852,214.595Z" transform="translate(-1098.085 -199.61)" fill="#ffc7ca"/>
              </g>
            </g>
          </g>
        </g>
      </g>
      <rect id="Rectángulo_3408" data-name="Rectángulo 3408" width="86.078" height="2.802" transform="matrix(0.672, -0.741, 0.741, 0.672, 0, 81.097)" fill="#2c384e"/>
      <path id="Trazado_17268" data-name="Trazado 17268" d="M1100.645,187.887l1.366,9.068,9.884.033-24.523,30.328-11.043,2.148.391-11.991Z" transform="translate(-1038.373 -187.887)" fill="#a094b9"/>
    </g>
  </g>
</svg>
