<svg xmlns="http://www.w3.org/2000/svg" width="107.985" height="107.985" viewBox="0 0 107.985 107.985">
  <g id="Grupo_25928" data-name="Grupo 25928" transform="translate(-332 -8639)">
    <g id="Trazado_18145" data-name="Trazado 18145" transform="translate(332 8639)" fill="#fff">
      <path d="M 53.99265289306641 105.4853057861328 C 47.04008483886719 105.4853057861328 40.29681777954102 104.1241836547852 33.95015335083008 101.4397888183594 C 27.81875228881836 98.84642028808594 22.31165313720703 95.13325500488281 17.58185195922852 90.40345001220703 C 12.85205268859863 85.67365264892578 9.138886451721191 80.16654968261719 6.545519351959229 74.03515625 C 3.861119508743286 67.68848419189453 2.500002861022949 60.94522094726562 2.500002861022949 53.99265289306641 C 2.500002861022949 47.04008483886719 3.861119508743286 40.29681777954102 6.545519351959229 33.95015335083008 C 9.138886451721191 27.81875228881836 12.85205268859863 22.31165313720703 17.58185195922852 17.58185195922852 C 22.31165313720703 12.85205268859863 27.81875228881836 9.138886451721191 33.95015335083008 6.545519351959229 C 40.29681777954102 3.861119508743286 47.04008483886719 2.500002861022949 53.99265289306641 2.500002861022949 C 60.94522094726562 2.500002861022949 67.68848419189453 3.861119508743286 74.03515625 6.545519351959229 C 80.16654968261719 9.138886451721191 85.67365264892578 12.85205268859863 90.40345001220703 17.58185195922852 C 95.13325500488281 22.31165313720703 98.84642028808594 27.81875228881836 101.4397888183594 33.95015335083008 C 104.1241836547852 40.29681777954102 105.4853057861328 47.04008483886719 105.4853057861328 53.99265289306641 C 105.4853057861328 60.94522094726562 104.1241836547852 67.68848419189453 101.4397888183594 74.03515625 C 98.84642028808594 80.16654968261719 95.13325500488281 85.67365264892578 90.40345001220703 90.40345001220703 C 85.67365264892578 95.13325500488281 80.16654968261719 98.84642028808594 74.03515625 101.4397888183594 C 67.68848419189453 104.1241836547852 60.94522094726562 105.4853057861328 53.99265289306641 105.4853057861328 Z" stroke="none"/>
      <path d="M 53.99265289306641 5 C 47.37648773193359 5 40.96086883544922 6.294670104980469 34.92403411865234 8.848037719726562 C 29.09061431884766 11.31536102294922 23.85061645507812 14.84859466552734 19.34961700439453 19.34961700439453 C 14.84859466552734 23.85061645507812 11.31536102294922 29.09061431884766 8.848037719726562 34.92403411865234 C 6.294670104980469 40.96086883544922 5 47.37648773193359 5 53.99265289306641 C 5 60.60881805419922 6.294670104980469 67.02442932128906 8.848037719726562 73.06127166748047 C 11.31536102294922 78.89469146728516 14.84859466552734 84.13467407226562 19.34961700439453 88.63568878173828 C 23.85063171386719 93.13670349121094 29.09061431884766 96.66994476318359 34.92403411865234 99.13726806640625 C 40.96086883544922 101.6906356811523 47.37648773193359 102.9853057861328 53.99265289306641 102.9853057861328 C 60.60881805419922 102.9853057861328 67.02442932128906 101.6906356811523 73.06127166748047 99.13726806640625 C 78.89466857910156 96.66994476318359 84.13467407226562 93.13670349121094 88.63568878173828 88.63568878173828 C 93.13670349121094 84.13467407226562 96.66994476318359 78.89466857910156 99.13726806640625 73.06127166748047 C 101.6906356811523 67.02442932128906 102.9853057861328 60.60881805419922 102.9853057861328 53.99265289306641 C 102.9853057861328 47.37648773193359 101.6906356811523 40.96086883544922 99.13726806640625 34.92403411865234 C 96.66994476318359 29.09061431884766 93.13670349121094 23.85063171386719 88.63568878173828 19.34961700439453 C 84.13467407226562 14.84859466552734 78.89469146728516 11.31536102294922 73.06127166748047 8.848037719726562 C 67.02442932128906 6.294670104980469 60.60881805419922 5 53.99265289306641 5 M 53.99265289306641 0 C 83.81196594238281 0 107.9853057861328 24.17332458496094 107.9853057861328 53.99265289306641 C 107.9853057861328 83.81196594238281 83.81196594238281 107.9853057861328 53.99265289306641 107.9853057861328 C 24.17332458496094 107.9853057861328 0 83.81196594238281 0 53.99265289306641 C 0 24.17332458496094 24.17332458496094 0 53.99265289306641 0 Z" stroke="none" fill="#d64626"/>
    </g>
    <path id="Trazado_20161" data-name="Trazado 20161" d="M22.094,47.6H36.938V54H13.646V51.363a12.273,12.273,0,0,1,.9-4.822,16,16,0,0,1,2.271-3.833,19.7,19.7,0,0,1,2.991-3Q21.435,38.4,22.9,37.35q1.538-1.1,2.7-2.1a15.373,15.373,0,0,0,1.953-1.99,7.565,7.565,0,0,0,1.184-2,5.954,5.954,0,0,0,.391-2.161,4.342,4.342,0,0,0-1.27-3.394,5.644,5.644,0,0,0-3.882-1.147,13.038,13.038,0,0,0-8.643,3.589V21.358a18.552,18.552,0,0,1,10.3-2.954,15.216,15.216,0,0,1,4.773.7,10.1,10.1,0,0,1,3.577,1.99,8.486,8.486,0,0,1,2.234,3.137,10.587,10.587,0,0,1,.769,4.114,11.6,11.6,0,0,1-.745,4.3,13.2,13.2,0,0,1-1.978,3.418,17.938,17.938,0,0,1-2.844,2.82q-1.611,1.282-3.345,2.478Q26.9,42.184,25.817,43A21.409,21.409,0,0,0,23.9,44.613a8.747,8.747,0,0,0-1.318,1.55A2.676,2.676,0,0,0,22.094,47.6Z" transform="translate(359.296 8661)" fill="#ff8f00"/>
  </g>
</svg>
