<svg xmlns="http://www.w3.org/2000/svg" width="509.744" height="923.414" viewBox="0 0 509.744 923.414">
  <g id="Grupo_25925" data-name="Grupo 25925" transform="translate(-445 -5053)">
    <g id="Grupo_20612" data-name="Grupo 20612" transform="translate(0 62)">
      <g id="Grupo_20611" data-name="Grupo 20611" transform="translate(-256.015 4774.444)">
        <path id="Rect치ngulo_3540" data-name="Rect치ngulo 3540" d="M0,0H388.7a36.5,36.5,0,0,1,36.5,36.5V77.486a36.5,36.5,0,0,1-36.5,36.5H0a0,0,0,0,1,0,0V0A0,0,0,0,1,0,0Z" transform="translate(785.556 244.101)" fill="#f8e9e5"/>
        <path id="Rect치ngulo_3541" data-name="Rect치ngulo 3541" d="M0,0H388.7a36.5,36.5,0,0,1,36.5,36.5V77.486a36.5,36.5,0,0,1-36.5,36.5H0a0,0,0,0,1,0,0V0A0,0,0,0,1,0,0Z" transform="translate(1126.216 547.049) rotate(-180)" fill="#f8e9e5"/>
        <path id="Trazado_18142" data-name="Trazado 18142" d="M0,0H388.7a36.5,36.5,0,0,1,36.5,36.5V77.486a36.5,36.5,0,0,1-36.5,36.5H0Z" transform="translate(785.556 622.016)" fill="#f8e9e5"/>
        <path id="Trazado_18144" data-name="Trazado 18144" d="M0,0H388.7a36.5,36.5,0,0,1,36.5,36.5V77.486a36.5,36.5,0,0,1-36.5,36.5H0Z" transform="translate(785.556 998.433)" fill="#f8e9e5"/>
        <path id="Trazado_18143" data-name="Trazado 18143" d="M0,0H388.7a36.5,36.5,0,0,1,36.5,36.5V77.486a36.5,36.5,0,0,1-36.5,36.5H0Z" transform="translate(1126.216 924.079) rotate(180)" fill="#f8e9e5"/>
        <path id="Trazado_18141" data-name="Trazado 18141" d="M1130.745,782.662a84.228,84.228,0,0,0-54.329,16.108,48.173,48.173,0,0,1-51.724,2.971l-123.426-68.4a61.084,61.084,0,0,1-31.17-53.97v-.779c-.134-26.916,13.936-51.886,37.478-64.932l111.5-61.8a49.686,49.686,0,0,1,54.88,4.636,84.536,84.536,0,1,0,7.61-138.227c-19.195,11.975-43.211,13.129-63,2.162L901.125,355.344A60.618,60.618,0,0,1,870.1,301.7c0-.315,0-.632,0-.948-.18-45.271-36.676-82.8-81.926-84.16a84.544,84.544,0,0,0-87.111,87.311c1.408,43.45,39.322,80.856,82.786,81.715a84.135,84.135,0,0,0,47.22-13.276c18.78-12.027,42.48-13.3,61.986-2.489L1009.874,434.6c19.974,11.07,31.9,32.255,31.8,55.093,0,.12,0,.24,0,.362v.29a49.974,49.974,0,0,1-25.487,44.129l-122.54,67.913c-21.429,11.877-47.509,12.8-69.259,1.519A84.271,84.271,0,0,0,781.2,594.58c-43.366,2.175-78.4,37.612-80.119,81A84.545,84.545,0,0,0,831,750.3a60.976,60.976,0,0,1,62.469-2.3l123.463,68.425c16.206,8.982,26.174,26.429,24.931,44.916q-.19,2.846-.192,5.739v.286a48.975,48.975,0,0,1-24.984,43.242L896.019,977.489c-22.914,12.7-50.424,12.928-74.058,1.624a84.2,84.2,0,0,0-37.982-8.211c-44.715.815-81.465,37.011-82.919,81.709a84.545,84.545,0,0,0,87.07,87.32c44.287-1.316,80.425-37.316,81.918-81.6q.016-.513.028-1.026a81.409,81.409,0,0,1,41.757-69.6l107.363-59.5a48.4,48.4,0,0,1,53.9,4.626,84.528,84.528,0,0,0,137.6-69.12C1209.01,820.382,1174.052,784.921,1130.745,782.662Z" transform="translate(0)" fill="#d64626"/>
        <circle id="Elipse_851" data-name="Elipse 851" cx="69.438" cy="69.438" r="69.438" transform="translate(716.118 231.659)" fill="#fff"/>
        <circle id="Elipse_852" data-name="Elipse 852" cx="69.438" cy="69.438" r="69.438" transform="translate(1056.779 420.616)" fill="#fff"/>
        <circle id="Elipse_853" data-name="Elipse 853" cx="69.438" cy="69.438" r="69.438" transform="translate(716.118 609.573)" fill="#fff"/>
        <circle id="Elipse_854" data-name="Elipse 854" cx="69.438" cy="69.438" r="69.438" transform="translate(716.118 985.991)" fill="#fff"/>
        <circle id="Elipse_855" data-name="Elipse 855" cx="69.438" cy="69.438" r="69.438" transform="translate(1056.779 797.646)" fill="#fff"/>
      </g>
      <path id="Trazado_20128" data-name="Trazado 20128" d="M6.318,16.033a2.975,2.975,0,0,1,.151.571,3.606,3.606,0,0,1,.054.6,3.562,3.562,0,0,1-.088.82,2.862,2.862,0,0,1-.264.7,3.3,3.3,0,0,1-.439.625,5.65,5.65,0,0,1-.615.591q-.361.313-.645.581a3.944,3.944,0,0,0-.479.537,2.082,2.082,0,0,0-.293.557,1.983,1.983,0,0,0-.1.64,1.45,1.45,0,0,0,.107.562,1.253,1.253,0,0,0,.308.444,1.458,1.458,0,0,0,.488.293,1.819,1.819,0,0,0,.64.107,4.376,4.376,0,0,0,1.582-.317,5.179,5.179,0,0,0,1.553-.962V25.32a6.088,6.088,0,0,1-1.641.674,7.463,7.463,0,0,1-1.836.225,6.791,6.791,0,0,1-1.689-.2,3.886,3.886,0,0,1-1.362-.63,2.961,2.961,0,0,1-.908-1.1,3.626,3.626,0,0,1-.327-1.606A3.962,3.962,0,0,1,.654,21.6a3.623,3.623,0,0,1,.4-.913,4.606,4.606,0,0,1,.654-.825,12.116,12.116,0,0,1,.9-.815q.342-.283.6-.527a3.349,3.349,0,0,0,.43-.483,1.872,1.872,0,0,0,.259-.508,1.959,1.959,0,0,0,.088-.61,1.9,1.9,0,0,0-.063-.479,1.4,1.4,0,0,0-.171-.41ZM4.893,11.756a1.84,1.84,0,0,1,1.3.469,1.534,1.534,0,0,1,.518,1.152,1.465,1.465,0,0,1-.518,1.143,1.886,1.886,0,0,1-1.3.459,1.836,1.836,0,0,1-1.279-.459,1.458,1.458,0,0,1-.508-1.143,1.493,1.493,0,0,1,.5-1.162A1.849,1.849,0,0,1,4.893,11.756ZM16.279,22.244a6.527,6.527,0,0,1-4.9-1.953,7.068,7.068,0,0,1-1.895-5.107,7.554,7.554,0,0,1,1.924-5.371,6.641,6.641,0,0,1,5.1-2.051,6.341,6.341,0,0,1,4.844,1.963A7.2,7.2,0,0,1,23.2,14.9a7.422,7.422,0,0,1-1.924,5.322q-.068.068-.127.132a1.509,1.509,0,0,1-.127.122l3.545,3.408H20.156L18.3,22A7.856,7.856,0,0,1,16.279,22.244Zm.137-11.768a3.187,3.187,0,0,0-2.637,1.25,5.171,5.171,0,0,0-.977,3.291,5.1,5.1,0,0,0,.977,3.291,3.129,3.129,0,0,0,2.559,1.211,3.166,3.166,0,0,0,2.588-1.172,5.085,5.085,0,0,0,.957-3.271,5.487,5.487,0,0,0-.928-3.389A3.008,3.008,0,0,0,16.416,10.477ZM34.727,22H31.65V20.477H31.6a3.49,3.49,0,0,1-3.057,1.768q-3.477,0-3.477-4.209V12h3.076v5.762q0,2.119,1.68,2.119a1.661,1.661,0,0,0,1.328-.581,2.343,2.343,0,0,0,.5-1.577V12h3.076Zm4.16-11.582a1.8,1.8,0,0,1-1.279-.464,1.5,1.5,0,0,1-.5-1.138,1.441,1.441,0,0,1,.5-1.133,2.089,2.089,0,0,1,2.563,0,1.448,1.448,0,0,1,.493,1.133,1.489,1.489,0,0,1-.493,1.152A1.833,1.833,0,0,1,38.887,10.418ZM40.41,22H37.324V12H40.41Zm11.582-4.121H45.469q.156,2.178,2.744,2.178a5.357,5.357,0,0,0,2.9-.781V21.5a7.619,7.619,0,0,1-3.6.742A5.073,5.073,0,0,1,43.75,20.9a5.073,5.073,0,0,1-1.338-3.745,5.352,5.352,0,0,1,1.445-3.945,4.815,4.815,0,0,1,3.555-1.455,4.37,4.37,0,0,1,3.384,1.3,5,5,0,0,1,1.2,3.525Zm-2.861-1.895q0-2.148-1.738-2.148a1.66,1.66,0,0,0-1.284.615,2.792,2.792,0,0,0-.659,1.533ZM50.7,7.264l-3.057,3.154H45.42l2.539-3.154ZM63.486,22H60.41V16.443q0-2.324-1.66-2.324a1.647,1.647,0,0,0-1.318.615,2.344,2.344,0,0,0-.518,1.563V22H53.828V12h3.086v1.582h.039a3.536,3.536,0,0,1,3.213-1.826q3.32,0,3.32,4.121Zm11.426-4.121H68.389q.156,2.178,2.744,2.178a5.357,5.357,0,0,0,2.9-.781V21.5a7.619,7.619,0,0,1-3.6.742A5.073,5.073,0,0,1,66.67,20.9a5.073,5.073,0,0,1-1.338-3.745,5.352,5.352,0,0,1,1.445-3.945,4.815,4.815,0,0,1,3.555-1.455,4.37,4.37,0,0,1,3.384,1.3,5,5,0,0,1,1.2,3.525Zm-2.861-1.895q0-2.148-1.738-2.148a1.66,1.66,0,0,0-1.284.615,2.792,2.792,0,0,0-.659,1.533Zm4.043,5.752v-2.5a6.57,6.57,0,0,0,1.519.684,5.035,5.035,0,0,0,1.431.225,3.068,3.068,0,0,0,1.294-.225.726.726,0,0,0,.474-.684.632.632,0,0,0-.215-.488,2,2,0,0,0-.552-.342,6.261,6.261,0,0,0-.737-.264q-.4-.117-.771-.264a7.392,7.392,0,0,1-1.05-.483,3.034,3.034,0,0,1-.762-.6A2.361,2.361,0,0,1,76.255,16a3.157,3.157,0,0,1-.161-1.064,2.74,2.74,0,0,1,.366-1.445,2.991,2.991,0,0,1,.977-.991,4.462,4.462,0,0,1,1.4-.566,7.281,7.281,0,0,1,1.636-.181,9.076,9.076,0,0,1,1.348.1,10.059,10.059,0,0,1,1.348.3v2.383a4.87,4.87,0,0,0-1.255-.513,5.294,5.294,0,0,0-1.313-.171,2.91,2.91,0,0,0-.571.054,1.882,1.882,0,0,0-.474.156.87.87,0,0,0-.322.264.607.607,0,0,0-.117.366.677.677,0,0,0,.176.469,1.527,1.527,0,0,0,.459.337,4.531,4.531,0,0,0,.63.254q.347.112.688.229a8.951,8.951,0,0,1,1.113.469,3.56,3.56,0,0,1,.854.6,2.339,2.339,0,0,1,.547.8,3.2,3.2,0,0,1-.2,2.612,3.088,3.088,0,0,1-1.025,1.025,4.65,4.65,0,0,1-1.475.576,8.175,8.175,0,0,1-1.733.181A8.936,8.936,0,0,1,76.094,21.736Zm14.316,0v-2.5a6.57,6.57,0,0,0,1.519.684,5.035,5.035,0,0,0,1.431.225,3.068,3.068,0,0,0,1.294-.225.726.726,0,0,0,.474-.684.632.632,0,0,0-.215-.488,2,2,0,0,0-.552-.342,6.261,6.261,0,0,0-.737-.264q-.4-.117-.771-.264A7.392,7.392,0,0,1,91.8,17.4a3.034,3.034,0,0,1-.762-.6A2.361,2.361,0,0,1,90.571,16a3.157,3.157,0,0,1-.161-1.064,2.74,2.74,0,0,1,.366-1.445,2.991,2.991,0,0,1,.977-.991,4.462,4.462,0,0,1,1.4-.566,7.281,7.281,0,0,1,1.636-.181,9.076,9.076,0,0,1,1.348.1,10.059,10.059,0,0,1,1.348.3v2.383a4.87,4.87,0,0,0-1.255-.513,5.294,5.294,0,0,0-1.313-.171,2.91,2.91,0,0,0-.571.054,1.882,1.882,0,0,0-.474.156.87.87,0,0,0-.322.264.607.607,0,0,0-.117.366.677.677,0,0,0,.176.469,1.527,1.527,0,0,0,.459.337,4.531,4.531,0,0,0,.63.254q.347.112.688.229a8.951,8.951,0,0,1,1.113.469,3.56,3.56,0,0,1,.854.6,2.339,2.339,0,0,1,.547.8,3.2,3.2,0,0,1-.2,2.612,3.088,3.088,0,0,1-1.025,1.025,4.65,4.65,0,0,1-1.475.576,8.175,8.175,0,0,1-1.733.181A8.936,8.936,0,0,1,90.41,21.736Zm14.219.508a5.376,5.376,0,0,1-3.931-1.4,5.081,5.081,0,0,1-1.431-3.8,5.081,5.081,0,0,1,1.484-3.882,5.609,5.609,0,0,1,4.014-1.4,5.311,5.311,0,0,1,3.906,1.4,4.981,4.981,0,0,1,1.416,3.706,5.288,5.288,0,0,1-1.46,3.936A5.435,5.435,0,0,1,104.629,22.244Zm.078-8.125a2.058,2.058,0,0,0-1.7.752A3.316,3.316,0,0,0,102.4,17q0,2.881,2.324,2.881,2.217,0,2.217-2.959Q106.943,14.119,104.707,14.119ZM127.969,22h-3.076V16.3q0-2.178-1.6-2.178a1.471,1.471,0,0,0-1.24.654,2.689,2.689,0,0,0-.479,1.631V22h-3.086V16.238q0-2.119-1.572-2.119a1.507,1.507,0,0,0-1.265.625,2.75,2.75,0,0,0-.474,1.7V22H112.09V12h3.086v1.563h.039a3.789,3.789,0,0,1,3.232-1.807,2.88,2.88,0,0,1,2.9,1.865,3.7,3.7,0,0,1,3.359-1.865q3.262,0,3.262,4.023Zm7.207.244a5.376,5.376,0,0,1-3.931-1.4,5.081,5.081,0,0,1-1.431-3.8,5.081,5.081,0,0,1,1.484-3.882,5.609,5.609,0,0,1,4.014-1.4,5.311,5.311,0,0,1,3.906,1.4,4.981,4.981,0,0,1,1.416,3.706,5.288,5.288,0,0,1-1.46,3.936A5.435,5.435,0,0,1,135.176,22.244Zm.078-8.125a2.058,2.058,0,0,0-1.7.752A3.316,3.316,0,0,0,132.949,17q0,2.881,2.324,2.881,2.217,0,2.217-2.959Q137.49,14.119,135.254,14.119Zm6.729,7.617v-2.5a6.57,6.57,0,0,0,1.519.684,5.035,5.035,0,0,0,1.431.225,3.068,3.068,0,0,0,1.294-.225.726.726,0,0,0,.474-.684.632.632,0,0,0-.215-.488,2,2,0,0,0-.552-.342,6.262,6.262,0,0,0-.737-.264q-.4-.117-.771-.264a7.392,7.392,0,0,1-1.05-.483,3.034,3.034,0,0,1-.762-.6,2.361,2.361,0,0,1-.469-.791,3.157,3.157,0,0,1-.161-1.064,2.74,2.74,0,0,1,.366-1.445,2.991,2.991,0,0,1,.977-.991,4.462,4.462,0,0,1,1.4-.566,7.281,7.281,0,0,1,1.636-.181,9.076,9.076,0,0,1,1.348.1,10.058,10.058,0,0,1,1.348.3v2.383a4.87,4.87,0,0,0-1.255-.513,5.294,5.294,0,0,0-1.313-.171,2.91,2.91,0,0,0-.571.054,1.882,1.882,0,0,0-.474.156.87.87,0,0,0-.322.264A.607.607,0,0,0,145,14.7a.677.677,0,0,0,.176.469,1.527,1.527,0,0,0,.459.337,4.531,4.531,0,0,0,.63.254q.347.112.688.229a8.951,8.951,0,0,1,1.113.469,3.559,3.559,0,0,1,.854.6,2.339,2.339,0,0,1,.547.8,3.2,3.2,0,0,1-.2,2.612,3.088,3.088,0,0,1-1.025,1.025,4.65,4.65,0,0,1-1.475.576,8.175,8.175,0,0,1-1.733.181A8.936,8.936,0,0,1,141.982,21.736Zm10.723-3.789a2.975,2.975,0,0,1-.151-.571,3.605,3.605,0,0,1-.054-.6,3.562,3.562,0,0,1,.088-.82,2.862,2.862,0,0,1,.264-.7,3.3,3.3,0,0,1,.439-.625,5.65,5.65,0,0,1,.615-.591q.371-.312.649-.581a4.12,4.12,0,0,0,.474-.537,2.083,2.083,0,0,0,.293-.557,1.983,1.983,0,0,0,.1-.64,1.45,1.45,0,0,0-.107-.562,1.252,1.252,0,0,0-.308-.444,1.457,1.457,0,0,0-.488-.293,1.819,1.819,0,0,0-.64-.107,4.376,4.376,0,0,0-1.582.317,5.179,5.179,0,0,0-1.553.962V8.66a6.088,6.088,0,0,1,1.641-.674,7.463,7.463,0,0,1,1.836-.225,6.791,6.791,0,0,1,1.689.2,3.887,3.887,0,0,1,1.362.63,2.961,2.961,0,0,1,.908,1.1,3.626,3.626,0,0,1,.327,1.606,3.962,3.962,0,0,1-.137,1.079,3.623,3.623,0,0,1-.4.913,4.606,4.606,0,0,1-.654.825,12.116,12.116,0,0,1-.9.815q-.342.283-.6.527a3.349,3.349,0,0,0-.43.483,1.872,1.872,0,0,0-.259.508,1.959,1.959,0,0,0-.088.61,1.9,1.9,0,0,0,.063.479,1.4,1.4,0,0,0,.171.41Zm1.426,4.277a1.862,1.862,0,0,1-1.3-.469,1.534,1.534,0,0,1-.518-1.152,1.465,1.465,0,0,1,.518-1.143,1.886,1.886,0,0,1,1.3-.459,1.836,1.836,0,0,1,1.279.459,1.458,1.458,0,0,1,.508,1.143,1.512,1.512,0,0,1-.5,1.162A1.849,1.849,0,0,1,154.131,22.225Z" transform="translate(678 5046.5)" fill="#002b45"/>
      <path id="Trazado_20130" data-name="Trazado 20130" d="M20.313,18.209V54h-7.69V26.9a9.21,9.21,0,0,1-1.5,1.062,15.5,15.5,0,0,1-1.843.9,16.459,16.459,0,0,1-2.026.684,14.8,14.8,0,0,1-2.075.4V23.458a32.08,32.08,0,0,0,5.664-2.246,32.233,32.233,0,0,0,4.81-3Z" transform="translate(510 5041.5)" fill="#ff8f00"/>
      <path id="Trazado_20131" data-name="Trazado 20131" d="M10.474,47.6H25.317V54H2.026V51.363a12.273,12.273,0,0,1,.9-4.822A16,16,0,0,1,5.2,42.708a19.7,19.7,0,0,1,2.991-3Q9.814,38.4,11.279,37.35q1.538-1.1,2.7-2.1a15.373,15.373,0,0,0,1.953-1.99,7.565,7.565,0,0,0,1.184-2A5.954,5.954,0,0,0,17.5,29.1a4.342,4.342,0,0,0-1.27-3.394,5.644,5.644,0,0,0-3.882-1.147,13.038,13.038,0,0,0-8.643,3.589V21.358a18.552,18.552,0,0,1,10.3-2.954,15.216,15.216,0,0,1,4.773.7,10.1,10.1,0,0,1,3.577,1.99A8.486,8.486,0,0,1,24.6,24.227a10.587,10.587,0,0,1,.769,4.114,11.6,11.6,0,0,1-.745,4.3,13.2,13.2,0,0,1-1.978,3.418,17.938,17.938,0,0,1-2.844,2.82q-1.611,1.282-3.345,2.478Q15.283,42.184,14.2,43a21.409,21.409,0,0,0-1.917,1.611,8.747,8.747,0,0,0-1.318,1.55A2.676,2.676,0,0,0,10.474,47.6Z" transform="translate(854.94 5230.5)" fill="#ff8f00"/>
      <path id="Trazado_20136" data-name="Trazado 20136" d="M2.856,52.853V46.139a13.551,13.551,0,0,0,8.2,2.563,7.385,7.385,0,0,0,4.6-1.27,4.215,4.215,0,0,0,1.648-3.54,4.024,4.024,0,0,0-2.039-3.613,10.561,10.561,0,0,0-5.6-1.27H6.421V33.1h3q6.836,0,6.836-4.541,0-4.272-5.249-4.272a11.967,11.967,0,0,0-6.836,2.271v-6.3A18.88,18.88,0,0,1,12.769,18.4q5.371,0,8.362,2.417A7.692,7.692,0,0,1,24.121,27.1q0,6.86-6.958,8.594v.122a9.459,9.459,0,0,1,5.859,2.7,7.607,7.607,0,0,1,2.148,5.481,9.393,9.393,0,0,1-3.589,7.764Q17.993,54.61,11.67,54.61A19.157,19.157,0,0,1,2.856,52.853Z" transform="translate(509.94 5419.5)" fill="#ff8f00"/>
      <path id="Trazado_20137" data-name="Trazado 20137" d="M23.242,18.99v22.07h4.2v5.762h-4.2V54H16.211V46.822H.952v-6.03q2.026-2.271,4.2-4.968t4.2-5.554q2.026-2.856,3.772-5.75a57.636,57.636,0,0,0,2.966-5.53ZM7.861,41.061h8.35V28.829q-.854,1.587-1.855,3.21t-2.1,3.2q-1.1,1.575-2.222,3.052T7.861,41.061Z" transform="translate(854.94 5609.5)" fill="#ff8f00"/>
      <path id="Trazado_20142" data-name="Trazado 20142" d="M3.467,53.1V46.5a14.391,14.391,0,0,0,7.642,2.2,7.178,7.178,0,0,0,4.773-1.453A4.89,4.89,0,0,0,17.6,43.307q0-5.2-7.349-5.2A54.416,54.416,0,0,0,4,38.521L5.322,18.99h18.53v6.3H11.206L10.718,32.3q1.88-.146,3.247-.146,5.4,0,8.447,2.832A9.889,9.889,0,0,1,25.464,42.6a11.243,11.243,0,0,1-3.638,8.655q-3.638,3.357-9.863,3.357A21.106,21.106,0,0,1,3.467,53.1Z" transform="translate(509 5797.5)" fill="#ff8f00"/>
      <path id="Trazado_20132" data-name="Trazado 20132" d="M6.318,16.033a2.975,2.975,0,0,1,.151.571,3.606,3.606,0,0,1,.054.6,3.562,3.562,0,0,1-.088.82,2.862,2.862,0,0,1-.264.7,3.3,3.3,0,0,1-.439.625,5.65,5.65,0,0,1-.615.591q-.361.313-.645.581a3.944,3.944,0,0,0-.479.537,2.082,2.082,0,0,0-.293.557,1.983,1.983,0,0,0-.1.64,1.45,1.45,0,0,0,.107.562,1.253,1.253,0,0,0,.308.444,1.458,1.458,0,0,0,.488.293,1.819,1.819,0,0,0,.64.107,4.376,4.376,0,0,0,1.582-.317,5.179,5.179,0,0,0,1.553-.962V25.32a6.088,6.088,0,0,1-1.641.674,7.463,7.463,0,0,1-1.836.225,6.791,6.791,0,0,1-1.689-.2,3.886,3.886,0,0,1-1.362-.63,2.961,2.961,0,0,1-.908-1.1,3.626,3.626,0,0,1-.327-1.606A3.962,3.962,0,0,1,.654,21.6a3.623,3.623,0,0,1,.4-.913,4.606,4.606,0,0,1,.654-.825,12.116,12.116,0,0,1,.9-.815q.342-.283.6-.527a3.349,3.349,0,0,0,.43-.483,1.872,1.872,0,0,0,.259-.508,1.959,1.959,0,0,0,.088-.61,1.9,1.9,0,0,0-.063-.479,1.4,1.4,0,0,0-.171-.41ZM4.893,11.756a1.84,1.84,0,0,1,1.3.469,1.534,1.534,0,0,1,.518,1.152,1.465,1.465,0,0,1-.518,1.143,1.886,1.886,0,0,1-1.3.459,1.836,1.836,0,0,1-1.279-.459,1.458,1.458,0,0,1-.508-1.143,1.493,1.493,0,0,1,.5-1.162A1.849,1.849,0,0,1,4.893,11.756ZM16.279,22.244a6.527,6.527,0,0,1-4.9-1.953,7.068,7.068,0,0,1-1.895-5.107,7.554,7.554,0,0,1,1.924-5.371,6.641,6.641,0,0,1,5.1-2.051,6.341,6.341,0,0,1,4.844,1.963A7.2,7.2,0,0,1,23.2,14.9a7.422,7.422,0,0,1-1.924,5.322q-.068.068-.127.132a1.509,1.509,0,0,1-.127.122l3.545,3.408H20.156L18.3,22A7.856,7.856,0,0,1,16.279,22.244Zm.137-11.768a3.187,3.187,0,0,0-2.637,1.25,5.171,5.171,0,0,0-.977,3.291,5.1,5.1,0,0,0,.977,3.291,3.129,3.129,0,0,0,2.559,1.211,3.166,3.166,0,0,0,2.588-1.172,5.085,5.085,0,0,0,.957-3.271,5.487,5.487,0,0,0-.928-3.389A3.008,3.008,0,0,0,16.416,10.477ZM34.727,22H31.65V20.477H31.6a3.49,3.49,0,0,1-3.057,1.768q-3.477,0-3.477-4.209V12h3.076v5.762q0,2.119,1.68,2.119a1.661,1.661,0,0,0,1.328-.581,2.343,2.343,0,0,0,.5-1.577V12h3.076Zm11.582-4.121H39.785q.156,2.178,2.744,2.178a5.357,5.357,0,0,0,2.9-.781V21.5a7.619,7.619,0,0,1-3.6.742,5.073,5.073,0,0,1-3.76-1.343,5.073,5.073,0,0,1-1.338-3.745,5.352,5.352,0,0,1,1.445-3.945,4.815,4.815,0,0,1,3.555-1.455,4.37,4.37,0,0,1,3.384,1.3,5,5,0,0,1,1.2,3.525Zm-2.861-1.895q0-2.148-1.738-2.148a1.66,1.66,0,0,0-1.284.615,2.792,2.792,0,0,0-.659,1.533ZM45.02,7.264l-3.057,3.154H39.736l2.539-3.154ZM56.787,20.838h-.039V22H53.662V7.2h3.086V13.5h.039a3.662,3.662,0,0,1,3.252-1.748,3.568,3.568,0,0,1,2.979,1.328,5.727,5.727,0,0,1,1.045,3.633,6.2,6.2,0,0,1-1.221,4.014,3.976,3.976,0,0,1-3.262,1.514A3.151,3.151,0,0,1,56.787,20.838ZM56.7,16.619v1.025a2.341,2.341,0,0,0,.557,1.6,1.811,1.811,0,0,0,1.426.635,1.892,1.892,0,0,0,1.636-.815,3.937,3.937,0,0,0,.581-2.31,3.132,3.132,0,0,0-.532-1.938,1.8,1.8,0,0,0-1.519-.7,1.962,1.962,0,0,0-1.538.693A2.634,2.634,0,0,0,56.7,16.619ZM75.566,22H72.49V20.477h-.049a3.49,3.49,0,0,1-3.057,1.768q-3.477,0-3.477-4.209V12h3.076v5.762q0,2.119,1.68,2.119a1.661,1.661,0,0,0,1.328-.581,2.343,2.343,0,0,0,.5-1.577V12h3.076Zm1.943-.264v-2.5a6.57,6.57,0,0,0,1.519.684,5.035,5.035,0,0,0,1.431.225,3.068,3.068,0,0,0,1.294-.225.726.726,0,0,0,.474-.684.632.632,0,0,0-.215-.488,2,2,0,0,0-.552-.342,6.261,6.261,0,0,0-.737-.264q-.4-.117-.771-.264A7.392,7.392,0,0,1,78.9,17.4a3.034,3.034,0,0,1-.762-.6A2.361,2.361,0,0,1,77.671,16a3.157,3.157,0,0,1-.161-1.064,2.74,2.74,0,0,1,.366-1.445,2.991,2.991,0,0,1,.977-.991,4.462,4.462,0,0,1,1.4-.566,7.281,7.281,0,0,1,1.636-.181,9.076,9.076,0,0,1,1.348.1,10.059,10.059,0,0,1,1.348.3v2.383a4.87,4.87,0,0,0-1.255-.513,5.294,5.294,0,0,0-1.313-.171,2.91,2.91,0,0,0-.571.054,1.882,1.882,0,0,0-.474.156.87.87,0,0,0-.322.264.607.607,0,0,0-.117.366.677.677,0,0,0,.176.469,1.527,1.527,0,0,0,.459.337,4.531,4.531,0,0,0,.63.254q.347.112.688.229a8.951,8.951,0,0,1,1.113.469,3.56,3.56,0,0,1,.854.6,2.339,2.339,0,0,1,.547.8,3.2,3.2,0,0,1-.2,2.612,3.088,3.088,0,0,1-1.025,1.025,4.65,4.65,0,0,1-1.475.576,8.175,8.175,0,0,1-1.733.181A8.936,8.936,0,0,1,77.51,21.736Zm17.031-.1a6.1,6.1,0,0,1-3.018.605,5.1,5.1,0,0,1-3.73-1.4,4.823,4.823,0,0,1-1.426-3.6A5.313,5.313,0,0,1,87.9,13.226a5.648,5.648,0,0,1,4.087-1.47,5.244,5.244,0,0,1,2.559.469v2.617a3.518,3.518,0,0,0-2.158-.723,2.844,2.844,0,0,0-2.1.776,2.9,2.9,0,0,0-.776,2.144,2.85,2.85,0,0,0,.742,2.085,2.728,2.728,0,0,0,2.041.757,4.073,4.073,0,0,0,2.256-.723ZM104.883,22h-2.92V20.564h-.039a3.259,3.259,0,0,1-2.979,1.68,3.116,3.116,0,0,1-2.29-.825,2.957,2.957,0,0,1-.835-2.2q0-2.91,3.447-3.359l2.715-.361q0-1.641-1.777-1.641a6.067,6.067,0,0,0-3.4,1.064V12.6a7.646,7.646,0,0,1,1.763-.586,9.266,9.266,0,0,1,2.036-.254q4.277,0,4.277,4.268Zm-2.9-4.062v-.674l-1.816.234q-1.5.2-1.5,1.357a1.122,1.122,0,0,0,.366.864,1.407,1.407,0,0,0,.991.337,1.827,1.827,0,0,0,1.416-.6A2.169,2.169,0,0,0,101.982,17.938ZM123.2,22h-3.076V16.3q0-2.178-1.6-2.178a1.471,1.471,0,0,0-1.24.654,2.689,2.689,0,0,0-.479,1.631V22h-3.086V16.238q0-2.119-1.572-2.119a1.507,1.507,0,0,0-1.265.625,2.75,2.75,0,0,0-.474,1.7V22h-3.086V12h3.086v1.563h.039a3.789,3.789,0,0,1,3.232-1.807,2.88,2.88,0,0,1,2.9,1.865,3.7,3.7,0,0,1,3.359-1.865q3.262,0,3.262,4.023Zm7.207.244a5.376,5.376,0,0,1-3.931-1.4,5.081,5.081,0,0,1-1.431-3.8,5.081,5.081,0,0,1,1.484-3.882,5.609,5.609,0,0,1,4.014-1.4,5.311,5.311,0,0,1,3.906,1.4,4.981,4.981,0,0,1,1.416,3.706,5.288,5.288,0,0,1-1.46,3.936A5.435,5.435,0,0,1,130.41,22.244Zm.078-8.125a2.058,2.058,0,0,0-1.7.752A3.316,3.316,0,0,0,128.184,17q0,2.881,2.324,2.881,2.217,0,2.217-2.959Q132.725,14.119,130.488,14.119Zm6.729,7.617v-2.5a6.57,6.57,0,0,0,1.519.684,5.035,5.035,0,0,0,1.431.225,3.068,3.068,0,0,0,1.294-.225.726.726,0,0,0,.474-.684.632.632,0,0,0-.215-.488,2,2,0,0,0-.552-.342,6.262,6.262,0,0,0-.737-.264q-.4-.117-.771-.264a7.392,7.392,0,0,1-1.05-.483,3.034,3.034,0,0,1-.762-.6,2.361,2.361,0,0,1-.469-.791,3.157,3.157,0,0,1-.161-1.064,2.74,2.74,0,0,1,.366-1.445,2.991,2.991,0,0,1,.977-.991,4.462,4.462,0,0,1,1.4-.566,7.281,7.281,0,0,1,1.636-.181,9.076,9.076,0,0,1,1.348.1,10.058,10.058,0,0,1,1.348.3v2.383a4.87,4.87,0,0,0-1.255-.513,5.294,5.294,0,0,0-1.313-.171,2.91,2.91,0,0,0-.571.054,1.882,1.882,0,0,0-.474.156.87.87,0,0,0-.322.264.607.607,0,0,0-.117.366.677.677,0,0,0,.176.469,1.527,1.527,0,0,0,.459.337,4.531,4.531,0,0,0,.63.254q.347.112.688.229a8.951,8.951,0,0,1,1.113.469,3.559,3.559,0,0,1,.854.6,2.339,2.339,0,0,1,.547.8,3.2,3.2,0,0,1-.2,2.612,3.088,3.088,0,0,1-1.025,1.025,4.65,4.65,0,0,1-1.475.576,8.175,8.175,0,0,1-1.733.181A8.936,8.936,0,0,1,137.217,21.736Zm10.723-3.789a2.975,2.975,0,0,1-.151-.571,3.605,3.605,0,0,1-.054-.6,3.562,3.562,0,0,1,.088-.82,2.862,2.862,0,0,1,.264-.7,3.3,3.3,0,0,1,.439-.625,5.65,5.65,0,0,1,.615-.591q.371-.312.649-.581a4.12,4.12,0,0,0,.474-.537,2.083,2.083,0,0,0,.293-.557,1.983,1.983,0,0,0,.1-.64,1.45,1.45,0,0,0-.107-.562,1.252,1.252,0,0,0-.308-.444,1.457,1.457,0,0,0-.488-.293,1.819,1.819,0,0,0-.64-.107,4.376,4.376,0,0,0-1.582.317,5.179,5.179,0,0,0-1.553.962V8.66a6.088,6.088,0,0,1,1.641-.674,7.463,7.463,0,0,1,1.836-.225,6.791,6.791,0,0,1,1.689.2,3.887,3.887,0,0,1,1.362.63,2.961,2.961,0,0,1,.908,1.1,3.626,3.626,0,0,1,.327,1.606,3.962,3.962,0,0,1-.137,1.079,3.623,3.623,0,0,1-.4.913,4.606,4.606,0,0,1-.654.825,12.116,12.116,0,0,1-.9.815q-.342.283-.6.527a3.349,3.349,0,0,0-.43.483,1.872,1.872,0,0,0-.259.508,1.959,1.959,0,0,0-.088.61,1.9,1.9,0,0,0,.063.479,1.4,1.4,0,0,0,.171.41Zm1.426,4.277a1.862,1.862,0,0,1-1.3-.469,1.534,1.534,0,0,1-.518-1.152,1.465,1.465,0,0,1,.518-1.143,1.886,1.886,0,0,1,1.3-.459,1.836,1.836,0,0,1,1.279.459,1.458,1.458,0,0,1,.508,1.143,1.512,1.512,0,0,1-.5,1.162A1.849,1.849,0,0,1,149.365,22.225Z" transform="translate(520 5239.5)" fill="#002b45"/>
      <path id="Trazado_20134" data-name="Trazado 20134" d="M6.318,16.033a2.975,2.975,0,0,1,.151.571,3.606,3.606,0,0,1,.054.6,3.562,3.562,0,0,1-.088.82,2.862,2.862,0,0,1-.264.7,3.3,3.3,0,0,1-.439.625,5.65,5.65,0,0,1-.615.591q-.361.313-.645.581a3.944,3.944,0,0,0-.479.537,2.082,2.082,0,0,0-.293.557,1.983,1.983,0,0,0-.1.64,1.45,1.45,0,0,0,.107.562,1.253,1.253,0,0,0,.308.444,1.458,1.458,0,0,0,.488.293,1.819,1.819,0,0,0,.64.107,4.376,4.376,0,0,0,1.582-.317,5.179,5.179,0,0,0,1.553-.962V25.32a6.088,6.088,0,0,1-1.641.674,7.463,7.463,0,0,1-1.836.225,6.791,6.791,0,0,1-1.689-.2,3.886,3.886,0,0,1-1.362-.63,2.961,2.961,0,0,1-.908-1.1,3.626,3.626,0,0,1-.327-1.606A3.962,3.962,0,0,1,.654,21.6a3.623,3.623,0,0,1,.4-.913,4.606,4.606,0,0,1,.654-.825,12.116,12.116,0,0,1,.9-.815q.342-.283.6-.527a3.349,3.349,0,0,0,.43-.483,1.872,1.872,0,0,0,.259-.508,1.959,1.959,0,0,0,.088-.61,1.9,1.9,0,0,0-.063-.479,1.4,1.4,0,0,0-.171-.41ZM4.893,11.756a1.84,1.84,0,0,1,1.3.469,1.534,1.534,0,0,1,.518,1.152,1.465,1.465,0,0,1-.518,1.143,1.886,1.886,0,0,1-1.3.459,1.836,1.836,0,0,1-1.279-.459,1.458,1.458,0,0,1-.508-1.143,1.493,1.493,0,0,1,.5-1.162A1.849,1.849,0,0,1,4.893,11.756ZM16.279,22.244a6.527,6.527,0,0,1-4.9-1.953,7.068,7.068,0,0,1-1.895-5.107,7.554,7.554,0,0,1,1.924-5.371,6.641,6.641,0,0,1,5.1-2.051,6.341,6.341,0,0,1,4.844,1.963A7.2,7.2,0,0,1,23.2,14.9a7.422,7.422,0,0,1-1.924,5.322q-.068.068-.127.132a1.509,1.509,0,0,1-.127.122l3.545,3.408H20.156L18.3,22A7.856,7.856,0,0,1,16.279,22.244Zm.137-11.768a3.187,3.187,0,0,0-2.637,1.25,5.171,5.171,0,0,0-.977,3.291,5.1,5.1,0,0,0,.977,3.291,3.129,3.129,0,0,0,2.559,1.211,3.166,3.166,0,0,0,2.588-1.172,5.085,5.085,0,0,0,.957-3.271,5.487,5.487,0,0,0-.928-3.389A3.008,3.008,0,0,0,16.416,10.477ZM34.727,22H31.65V20.477H31.6a3.49,3.49,0,0,1-3.057,1.768q-3.477,0-3.477-4.209V12h3.076v5.762q0,2.119,1.68,2.119a1.661,1.661,0,0,0,1.328-.581,2.343,2.343,0,0,0,.5-1.577V12h3.076Zm11.582-4.121H39.785q.156,2.178,2.744,2.178a5.357,5.357,0,0,0,2.9-.781V21.5a7.619,7.619,0,0,1-3.6.742,5.073,5.073,0,0,1-3.76-1.343,5.073,5.073,0,0,1-1.338-3.745,5.352,5.352,0,0,1,1.445-3.945,4.815,4.815,0,0,1,3.555-1.455,4.37,4.37,0,0,1,3.384,1.3,5,5,0,0,1,1.2,3.525Zm-2.861-1.895q0-2.148-1.738-2.148a1.66,1.66,0,0,0-1.284.615,2.792,2.792,0,0,0-.659,1.533ZM45.02,7.264l-3.057,3.154H39.736l2.539-3.154ZM63.262,22H60.186V16.316q0-2.2-1.6-2.2a1.639,1.639,0,0,0-1.328.615,2.373,2.373,0,0,0-.508,1.563V22H53.662V7.2h3.086v6.289h.039a3.507,3.507,0,0,1,3.076-1.729q3.4,0,3.4,4.1Zm10.762,0H71.1V20.564h-.039a3.259,3.259,0,0,1-2.979,1.68,3.116,3.116,0,0,1-2.29-.825,2.957,2.957,0,0,1-.835-2.2q0-2.91,3.447-3.359l2.715-.361q0-1.641-1.777-1.641a6.067,6.067,0,0,0-3.4,1.064V12.6a7.646,7.646,0,0,1,1.763-.586,9.266,9.266,0,0,1,2.036-.254q4.277,0,4.277,4.268Zm-2.9-4.062v-.674l-1.816.234q-1.5.2-1.5,1.357a1.122,1.122,0,0,0,.366.864,1.407,1.407,0,0,0,.991.337,1.827,1.827,0,0,0,1.416-.6A2.169,2.169,0,0,0,71.123,17.938Zm12.92,3.7a6.1,6.1,0,0,1-3.018.605,5.1,5.1,0,0,1-3.73-1.4,4.823,4.823,0,0,1-1.426-3.6A5.313,5.313,0,0,1,77.4,13.226a5.648,5.648,0,0,1,4.087-1.47,5.244,5.244,0,0,1,2.559.469v2.617a3.518,3.518,0,0,0-2.158-.723,2.844,2.844,0,0,0-2.1.776A2.9,2.9,0,0,0,79,17.039a2.85,2.85,0,0,0,.742,2.085,2.728,2.728,0,0,0,2.041.757,4.073,4.073,0,0,0,2.256-.723Zm11.006-3.76H88.525q.156,2.178,2.744,2.178a5.357,5.357,0,0,0,2.9-.781V21.5a7.619,7.619,0,0,1-3.6.742,5.073,5.073,0,0,1-3.76-1.343,5.073,5.073,0,0,1-1.338-3.745,5.352,5.352,0,0,1,1.445-3.945,4.815,4.815,0,0,1,3.555-1.455,4.37,4.37,0,0,1,3.384,1.3,5,5,0,0,1,1.2,3.525Zm-2.861-1.895q0-2.148-1.738-2.148a1.66,1.66,0,0,0-1.284.615,2.792,2.792,0,0,0-.659,1.533Zm11.221-1.2a2.677,2.677,0,0,0-1.3-.3,1.871,1.871,0,0,0-1.572.737,3.217,3.217,0,0,0-.566,2.007V22H96.885V12h3.086v1.855h.039a2.67,2.67,0,0,1,2.637-2.031,1.987,1.987,0,0,1,.762.117Zm2.705,3.164a2.975,2.975,0,0,1-.151-.571,3.606,3.606,0,0,1-.054-.6,3.562,3.562,0,0,1,.088-.82,2.862,2.862,0,0,1,.264-.7,3.3,3.3,0,0,1,.439-.625,5.65,5.65,0,0,1,.615-.591q.371-.312.649-.581a4.12,4.12,0,0,0,.474-.537,2.082,2.082,0,0,0,.293-.557,1.983,1.983,0,0,0,.1-.64,1.45,1.45,0,0,0-.107-.562,1.253,1.253,0,0,0-.308-.444,1.457,1.457,0,0,0-.488-.293,1.819,1.819,0,0,0-.64-.107,4.376,4.376,0,0,0-1.582.317,5.179,5.179,0,0,0-1.553.962V8.66a6.088,6.088,0,0,1,1.641-.674,7.463,7.463,0,0,1,1.836-.225,6.791,6.791,0,0,1,1.689.2,3.886,3.886,0,0,1,1.362.63,2.962,2.962,0,0,1,.908,1.1,3.626,3.626,0,0,1,.327,1.606,3.962,3.962,0,0,1-.137,1.079,3.623,3.623,0,0,1-.4.913,4.606,4.606,0,0,1-.654.825,12.116,12.116,0,0,1-.9.815q-.342.283-.6.527a3.349,3.349,0,0,0-.43.483,1.872,1.872,0,0,0-.259.508,1.959,1.959,0,0,0-.088.61,1.9,1.9,0,0,0,.063.479,1.4,1.4,0,0,0,.171.41Zm1.426,4.277a1.862,1.862,0,0,1-1.3-.469,1.534,1.534,0,0,1-.518-1.152,1.465,1.465,0,0,1,.518-1.143,1.886,1.886,0,0,1,1.3-.459,1.836,1.836,0,0,1,1.279.459,1.458,1.458,0,0,1,.508,1.143,1.512,1.512,0,0,1-.5,1.162A1.849,1.849,0,0,1,107.539,22.225Z" transform="translate(670 5413.5)" fill="#002b45"/>
      <path id="Trazado_20138" data-name="Trazado 20138" d="M6.318,16.033a2.975,2.975,0,0,1,.151.571,3.606,3.606,0,0,1,.054.6,3.562,3.562,0,0,1-.088.82,2.862,2.862,0,0,1-.264.7,3.3,3.3,0,0,1-.439.625,5.65,5.65,0,0,1-.615.591q-.361.313-.645.581a3.944,3.944,0,0,0-.479.537,2.082,2.082,0,0,0-.293.557,1.983,1.983,0,0,0-.1.64,1.45,1.45,0,0,0,.107.562,1.253,1.253,0,0,0,.308.444,1.458,1.458,0,0,0,.488.293,1.819,1.819,0,0,0,.64.107,4.376,4.376,0,0,0,1.582-.317,5.179,5.179,0,0,0,1.553-.962V25.32a6.088,6.088,0,0,1-1.641.674,7.463,7.463,0,0,1-1.836.225,6.791,6.791,0,0,1-1.689-.2,3.886,3.886,0,0,1-1.362-.63,2.961,2.961,0,0,1-.908-1.1,3.626,3.626,0,0,1-.327-1.606A3.962,3.962,0,0,1,.654,21.6a3.623,3.623,0,0,1,.4-.913,4.606,4.606,0,0,1,.654-.825,12.116,12.116,0,0,1,.9-.815q.342-.283.6-.527a3.349,3.349,0,0,0,.43-.483,1.872,1.872,0,0,0,.259-.508,1.959,1.959,0,0,0,.088-.61,1.9,1.9,0,0,0-.063-.479,1.4,1.4,0,0,0-.171-.41ZM4.893,11.756a1.84,1.84,0,0,1,1.3.469,1.534,1.534,0,0,1,.518,1.152,1.465,1.465,0,0,1-.518,1.143,1.886,1.886,0,0,1-1.3.459,1.836,1.836,0,0,1-1.279-.459,1.458,1.458,0,0,1-.508-1.143,1.493,1.493,0,0,1,.5-1.162A1.849,1.849,0,0,1,4.893,11.756Zm8.623,5.42V22H10.361V8H15.3Q20.6,8,20.6,12.459a4.282,4.282,0,0,1-1.519,3.413,6.016,6.016,0,0,1-4.058,1.3Zm0-6.758v4.365h1.24q2.52,0,2.52-2.207,0-2.158-2.52-2.158Zm13,11.826a5.376,5.376,0,0,1-3.931-1.4,5.081,5.081,0,0,1-1.431-3.8,5.081,5.081,0,0,1,1.484-3.882,5.609,5.609,0,0,1,4.014-1.4,5.311,5.311,0,0,1,3.906,1.4,4.981,4.981,0,0,1,1.416,3.706,5.288,5.288,0,0,1-1.46,3.936A5.435,5.435,0,0,1,26.514,22.244Zm.078-8.125a2.058,2.058,0,0,0-1.7.752A3.316,3.316,0,0,0,24.287,17q0,2.881,2.324,2.881,2.217,0,2.217-2.959Q28.828,14.119,26.592,14.119Zm13.906.664a2.677,2.677,0,0,0-1.3-.3,1.871,1.871,0,0,0-1.572.737,3.217,3.217,0,0,0-.566,2.007V22H33.975V12h3.086v1.855H37.1a2.67,2.67,0,0,1,2.637-2.031,1.987,1.987,0,0,1,.762.117ZM57.236,26.6H54.15V20.623h-.039a3.428,3.428,0,0,1-3.076,1.621A3.829,3.829,0,0,1,48,20.931a5.423,5.423,0,0,1-1.147-3.687,5.993,5.993,0,0,1,1.26-3.994A4.088,4.088,0,0,1,51.4,11.756a2.976,2.976,0,0,1,2.715,1.406h.039V12h3.086Zm-3.027-9.375v-.8a2.441,2.441,0,0,0-.566-1.641,1.826,1.826,0,0,0-1.455-.664,1.884,1.884,0,0,0-1.611.806,3.732,3.732,0,0,0-.586,2.231,3.15,3.15,0,0,0,.571,2,1.81,1.81,0,0,0,1.489.723,1.913,1.913,0,0,0,1.567-.732A2.971,2.971,0,0,0,54.209,17.225ZM69.336,22H66.26V20.477h-.049a3.49,3.49,0,0,1-3.057,1.768q-3.477,0-3.477-4.209V12h3.076v5.762q0,2.119,1.68,2.119a1.661,1.661,0,0,0,1.328-.581,2.343,2.343,0,0,0,.5-1.577V12h3.076Zm11.582-4.121H74.395q.156,2.178,2.744,2.178a5.357,5.357,0,0,0,2.9-.781V21.5a7.619,7.619,0,0,1-3.6.742,5.073,5.073,0,0,1-3.76-1.343,5.073,5.073,0,0,1-1.338-3.745,5.352,5.352,0,0,1,1.445-3.945,4.815,4.815,0,0,1,3.555-1.455,4.37,4.37,0,0,1,3.384,1.3,5,5,0,0,1,1.2,3.525Zm-2.861-1.895q0-2.148-1.738-2.148a1.66,1.66,0,0,0-1.284.615,2.792,2.792,0,0,0-.659,1.533Zm1.572-8.721-3.057,3.154H74.346l2.539-3.154ZM91.357,22H88.271V7.2h3.086Zm7.363.244a5.376,5.376,0,0,1-3.931-1.4,5.081,5.081,0,0,1-1.431-3.8,5.081,5.081,0,0,1,1.484-3.882,5.609,5.609,0,0,1,4.014-1.4,5.311,5.311,0,0,1,3.906,1.4,4.981,4.981,0,0,1,1.416,3.706,5.288,5.288,0,0,1-1.46,3.936A5.435,5.435,0,0,1,98.721,22.244Zm.078-8.125a2.058,2.058,0,0,0-1.7.752A3.316,3.316,0,0,0,96.494,17q0,2.881,2.324,2.881,2.217,0,2.217-2.959Q101.035,14.119,98.8,14.119ZM121.3,22h-3.076V16.316q0-2.2-1.6-2.2a1.639,1.639,0,0,0-1.328.615,2.373,2.373,0,0,0-.508,1.563V22H111.7V7.2h3.086v6.289h.039a3.507,3.507,0,0,1,3.076-1.729q3.4,0,3.4,4.1Zm10.762,0h-2.92V20.564H129.1a3.259,3.259,0,0,1-2.979,1.68,3.116,3.116,0,0,1-2.29-.825,2.957,2.957,0,0,1-.835-2.2q0-2.91,3.447-3.359l2.715-.361q0-1.641-1.777-1.641a6.067,6.067,0,0,0-3.4,1.064V12.6a7.646,7.646,0,0,1,1.763-.586,9.266,9.266,0,0,1,2.036-.254q4.277,0,4.277,4.268Zm-2.9-4.062v-.674l-1.816.234q-1.5.2-1.5,1.357a1.122,1.122,0,0,0,.366.864,1.407,1.407,0,0,0,.991.337,1.827,1.827,0,0,0,1.416-.6A2.169,2.169,0,0,0,129.16,17.938Zm12.92,3.7a6.1,6.1,0,0,1-3.018.605,5.1,5.1,0,0,1-3.73-1.4,4.823,4.823,0,0,1-1.426-3.6,5.313,5.313,0,0,1,1.528-4.019,5.648,5.648,0,0,1,4.087-1.47,5.244,5.244,0,0,1,2.559.469v2.617a3.518,3.518,0,0,0-2.158-.723,2.844,2.844,0,0,0-2.1.776,2.9,2.9,0,0,0-.776,2.144,2.85,2.85,0,0,0,.742,2.085,2.728,2.728,0,0,0,2.041.757,4.073,4.073,0,0,0,2.256-.723Zm11.006-3.76h-6.523q.156,2.178,2.744,2.178a5.357,5.357,0,0,0,2.9-.781V21.5a7.62,7.62,0,0,1-3.6.742,5.073,5.073,0,0,1-3.76-1.343,5.073,5.073,0,0,1-1.338-3.745,5.351,5.351,0,0,1,1.445-3.945,4.815,4.815,0,0,1,3.555-1.455,4.37,4.37,0,0,1,3.384,1.3,5,5,0,0,1,1.2,3.525Zm-2.861-1.895q0-2.148-1.738-2.148a1.66,1.66,0,0,0-1.284.615,2.792,2.792,0,0,0-.659,1.533ZM170.8,22h-3.076V16.3q0-2.178-1.6-2.178a1.471,1.471,0,0,0-1.24.654A2.689,2.689,0,0,0,164.4,16.4V22h-3.086V16.238q0-2.119-1.572-2.119a1.507,1.507,0,0,0-1.265.625,2.75,2.75,0,0,0-.474,1.7V22h-3.086V12h3.086v1.563h.039a3.789,3.789,0,0,1,3.232-1.807,2.88,2.88,0,0,1,2.9,1.865,3.7,3.7,0,0,1,3.359-1.865q3.262,0,3.262,4.023Zm7.207.244a5.376,5.376,0,0,1-3.931-1.4,5.081,5.081,0,0,1-1.431-3.8,5.081,5.081,0,0,1,1.484-3.882,5.609,5.609,0,0,1,4.014-1.4,5.311,5.311,0,0,1,3.906,1.4,4.981,4.981,0,0,1,1.416,3.706,5.288,5.288,0,0,1-1.46,3.936A5.435,5.435,0,0,1,178.008,22.244Zm.078-8.125a2.058,2.058,0,0,0-1.7.752A3.316,3.316,0,0,0,175.781,17q0,2.881,2.324,2.881,2.217,0,2.217-2.959Q180.322,14.119,178.086,14.119Zm6.729,7.617v-2.5a6.57,6.57,0,0,0,1.519.684,5.035,5.035,0,0,0,1.431.225,3.068,3.068,0,0,0,1.294-.225.726.726,0,0,0,.474-.684.632.632,0,0,0-.215-.488,2,2,0,0,0-.552-.342,6.262,6.262,0,0,0-.737-.264q-.4-.117-.771-.264a7.392,7.392,0,0,1-1.05-.483,3.034,3.034,0,0,1-.762-.6,2.361,2.361,0,0,1-.469-.791,3.157,3.157,0,0,1-.161-1.064,2.74,2.74,0,0,1,.366-1.445,2.991,2.991,0,0,1,.977-.991,4.462,4.462,0,0,1,1.4-.566,7.281,7.281,0,0,1,1.636-.181,9.076,9.076,0,0,1,1.348.1,10.058,10.058,0,0,1,1.348.3v2.383a4.87,4.87,0,0,0-1.255-.513,5.294,5.294,0,0,0-1.313-.171,2.91,2.91,0,0,0-.571.054,1.882,1.882,0,0,0-.474.156.87.87,0,0,0-.322.264.607.607,0,0,0-.117.366.677.677,0,0,0,.176.469,1.527,1.527,0,0,0,.459.337,4.531,4.531,0,0,0,.63.254q.347.112.688.229a8.951,8.951,0,0,1,1.113.469,3.559,3.559,0,0,1,.854.6,2.339,2.339,0,0,1,.547.8,3.2,3.2,0,0,1-.2,2.612,3.088,3.088,0,0,1-1.025,1.025,4.65,4.65,0,0,1-1.475.576,8.175,8.175,0,0,1-1.733.181A8.936,8.936,0,0,1,184.814,21.736Zm10.723-3.789a2.975,2.975,0,0,1-.151-.571,3.605,3.605,0,0,1-.054-.6,3.562,3.562,0,0,1,.088-.82,2.862,2.862,0,0,1,.264-.7,3.3,3.3,0,0,1,.439-.625,5.65,5.65,0,0,1,.615-.591q.371-.312.649-.581a4.12,4.12,0,0,0,.474-.537,2.083,2.083,0,0,0,.293-.557,1.983,1.983,0,0,0,.1-.64,1.45,1.45,0,0,0-.107-.562,1.252,1.252,0,0,0-.308-.444,1.457,1.457,0,0,0-.488-.293,1.819,1.819,0,0,0-.64-.107,4.376,4.376,0,0,0-1.582.317,5.179,5.179,0,0,0-1.553.962V8.66a6.088,6.088,0,0,1,1.641-.674,7.463,7.463,0,0,1,1.836-.225,6.791,6.791,0,0,1,1.689.2,3.887,3.887,0,0,1,1.362.63,2.961,2.961,0,0,1,.908,1.1,3.626,3.626,0,0,1,.327,1.606,3.962,3.962,0,0,1-.137,1.079,3.623,3.623,0,0,1-.4.913,4.606,4.606,0,0,1-.654.825,12.116,12.116,0,0,1-.9.815q-.342.283-.6.527a3.349,3.349,0,0,0-.43.483,1.872,1.872,0,0,0-.259.508,1.959,1.959,0,0,0-.088.61,1.9,1.9,0,0,0,.063.479,1.4,1.4,0,0,0,.171.41Zm1.426,4.277a1.862,1.862,0,0,1-1.3-.469,1.534,1.534,0,0,1-.518-1.152,1.465,1.465,0,0,1,.518-1.143,1.886,1.886,0,0,1,1.3-.459,1.836,1.836,0,0,1,1.279.459,1.458,1.458,0,0,1,.508,1.143,1.512,1.512,0,0,1-.5,1.162A1.849,1.849,0,0,1,196.963,22.225Z" transform="translate(477 5614.5)" fill="#002b45"/>
      <path id="Trazado_20140" data-name="Trazado 20140" d="M6.318,16.033a2.975,2.975,0,0,1,.151.571,3.606,3.606,0,0,1,.054.6,3.562,3.562,0,0,1-.088.82,2.862,2.862,0,0,1-.264.7,3.3,3.3,0,0,1-.439.625,5.65,5.65,0,0,1-.615.591q-.361.313-.645.581a3.944,3.944,0,0,0-.479.537,2.082,2.082,0,0,0-.293.557,1.983,1.983,0,0,0-.1.64,1.45,1.45,0,0,0,.107.562,1.253,1.253,0,0,0,.308.444,1.458,1.458,0,0,0,.488.293,1.819,1.819,0,0,0,.64.107,4.376,4.376,0,0,0,1.582-.317,5.179,5.179,0,0,0,1.553-.962V25.32a6.088,6.088,0,0,1-1.641.674,7.463,7.463,0,0,1-1.836.225,6.791,6.791,0,0,1-1.689-.2,3.886,3.886,0,0,1-1.362-.63,2.961,2.961,0,0,1-.908-1.1,3.626,3.626,0,0,1-.327-1.606A3.962,3.962,0,0,1,.654,21.6a3.623,3.623,0,0,1,.4-.913,4.606,4.606,0,0,1,.654-.825,12.116,12.116,0,0,1,.9-.815q.342-.283.6-.527a3.349,3.349,0,0,0,.43-.483,1.872,1.872,0,0,0,.259-.508,1.959,1.959,0,0,0,.088-.61,1.9,1.9,0,0,0-.063-.479,1.4,1.4,0,0,0-.171-.41ZM4.893,11.756a1.84,1.84,0,0,1,1.3.469,1.534,1.534,0,0,1,.518,1.152,1.465,1.465,0,0,1-.518,1.143,1.886,1.886,0,0,1-1.3.459,1.836,1.836,0,0,1-1.279-.459,1.458,1.458,0,0,1-.508-1.143,1.493,1.493,0,0,1,.5-1.162A1.849,1.849,0,0,1,4.893,11.756Zm8.623,5.42V22H10.361V8H15.3Q20.6,8,20.6,12.459a4.282,4.282,0,0,1-1.519,3.413,6.016,6.016,0,0,1-4.058,1.3Zm0-6.758v4.365h1.24q2.52,0,2.52-2.207,0-2.158-2.52-2.158ZM30.166,22h-2.92V20.564h-.039a3.259,3.259,0,0,1-2.979,1.68,3.116,3.116,0,0,1-2.29-.825,2.957,2.957,0,0,1-.835-2.2q0-2.91,3.447-3.359l2.715-.361q0-1.641-1.777-1.641a6.067,6.067,0,0,0-3.4,1.064V12.6a7.646,7.646,0,0,1,1.763-.586,9.266,9.266,0,0,1,2.036-.254q4.277,0,4.277,4.268Zm-2.9-4.062v-.674l-1.816.234q-1.5.2-1.5,1.357a1.122,1.122,0,0,0,.366.864,1.407,1.407,0,0,0,.991.337,1.827,1.827,0,0,0,1.416-.6A2.169,2.169,0,0,0,27.266,17.938Zm11.865-3.154a2.677,2.677,0,0,0-1.3-.3,1.871,1.871,0,0,0-1.572.737,3.217,3.217,0,0,0-.566,2.007V22H32.607V12h3.086v1.855h.039a2.67,2.67,0,0,1,2.637-2.031,1.987,1.987,0,0,1,.762.117ZM48.887,22h-2.92V20.564h-.039a3.259,3.259,0,0,1-2.979,1.68,3.116,3.116,0,0,1-2.29-.825,2.957,2.957,0,0,1-.835-2.2q0-2.91,3.447-3.359l2.715-.361q0-1.641-1.777-1.641a6.067,6.067,0,0,0-3.4,1.064V12.6a7.646,7.646,0,0,1,1.763-.586,9.266,9.266,0,0,1,2.036-.254q4.277,0,4.277,4.268Zm-2.9-4.062v-.674L44.17,17.5q-1.5.2-1.5,1.357a1.122,1.122,0,0,0,.366.864,1.407,1.407,0,0,0,.991.337,1.827,1.827,0,0,0,1.416-.6A2.169,2.169,0,0,0,45.986,17.938ZM66.631,26.6H63.545V20.623h-.039a3.428,3.428,0,0,1-3.076,1.621A3.829,3.829,0,0,1,57.4,20.931a5.423,5.423,0,0,1-1.147-3.687,5.993,5.993,0,0,1,1.26-3.994,4.088,4.088,0,0,1,3.281-1.494,2.976,2.976,0,0,1,2.715,1.406h.039V12h3.086ZM63.6,17.225v-.8a2.441,2.441,0,0,0-.566-1.641,1.826,1.826,0,0,0-1.455-.664,1.884,1.884,0,0,0-1.611.806,3.732,3.732,0,0,0-.586,2.231,3.15,3.15,0,0,0,.571,2,1.81,1.81,0,0,0,1.489.723,1.913,1.913,0,0,0,1.567-.732A2.971,2.971,0,0,0,63.6,17.225ZM78.73,22H75.654V20.477h-.049a3.49,3.49,0,0,1-3.057,1.768q-3.477,0-3.477-4.209V12h3.076v5.762q0,2.119,1.68,2.119a1.661,1.661,0,0,0,1.328-.581,2.343,2.343,0,0,0,.5-1.577V12H78.73Zm4.16-11.582a1.8,1.8,0,0,1-1.279-.464,1.5,1.5,0,0,1-.5-1.138,1.441,1.441,0,0,1,.5-1.133,2.089,2.089,0,0,1,2.563,0,1.448,1.448,0,0,1,.493,1.133,1.489,1.489,0,0,1-.493,1.152A1.833,1.833,0,0,1,82.891,10.418ZM84.414,22H81.328V12h3.086ZM96,17.879H89.473q.156,2.178,2.744,2.178a5.357,5.357,0,0,0,2.9-.781V21.5a7.619,7.619,0,0,1-3.6.742,5.073,5.073,0,0,1-3.76-1.343,5.073,5.073,0,0,1-1.338-3.745,5.352,5.352,0,0,1,1.445-3.945,4.815,4.815,0,0,1,3.555-1.455,4.37,4.37,0,0,1,3.384,1.3A5,5,0,0,1,96,16.58Zm-2.861-1.895q0-2.148-1.738-2.148a1.66,1.66,0,0,0-1.284.615,2.792,2.792,0,0,0-.659,1.533ZM107.49,22h-3.076V16.443q0-2.324-1.66-2.324a1.647,1.647,0,0,0-1.318.615,2.344,2.344,0,0,0-.518,1.563V22H97.832V12h3.086v1.582h.039a3.536,3.536,0,0,1,3.213-1.826q3.32,0,3.32,4.121Zm11.426-4.121h-6.523q.156,2.178,2.744,2.178a5.357,5.357,0,0,0,2.9-.781V21.5a7.619,7.619,0,0,1-3.6.742,5.073,5.073,0,0,1-3.76-1.343,5.073,5.073,0,0,1-1.338-3.745,5.352,5.352,0,0,1,1.445-3.945,4.815,4.815,0,0,1,3.555-1.455,4.37,4.37,0,0,1,3.384,1.3,5,5,0,0,1,1.2,3.525Zm-2.861-1.895q0-2.148-1.738-2.148a1.66,1.66,0,0,0-1.284.615,2.792,2.792,0,0,0-.659,1.533Zm4.043,5.752v-2.5a6.57,6.57,0,0,0,1.519.684,5.035,5.035,0,0,0,1.431.225,3.068,3.068,0,0,0,1.294-.225.726.726,0,0,0,.474-.684.632.632,0,0,0-.215-.488,2,2,0,0,0-.552-.342,6.261,6.261,0,0,0-.737-.264q-.4-.117-.771-.264a7.392,7.392,0,0,1-1.05-.483,3.034,3.034,0,0,1-.762-.6,2.361,2.361,0,0,1-.469-.791,3.157,3.157,0,0,1-.161-1.064,2.74,2.74,0,0,1,.366-1.445,2.991,2.991,0,0,1,.977-.991,4.462,4.462,0,0,1,1.4-.566,7.281,7.281,0,0,1,1.636-.181,9.076,9.076,0,0,1,1.348.1,10.059,10.059,0,0,1,1.348.3v2.383a4.87,4.87,0,0,0-1.255-.513,5.294,5.294,0,0,0-1.313-.171,2.91,2.91,0,0,0-.571.054,1.882,1.882,0,0,0-.474.156.87.87,0,0,0-.322.264.607.607,0,0,0-.117.366.677.677,0,0,0,.176.469,1.527,1.527,0,0,0,.459.337,4.531,4.531,0,0,0,.63.254q.347.112.688.229a8.951,8.951,0,0,1,1.113.469,3.56,3.56,0,0,1,.854.6,2.339,2.339,0,0,1,.547.8,3.2,3.2,0,0,1-.2,2.612,3.088,3.088,0,0,1-1.025,1.025,4.65,4.65,0,0,1-1.475.576,8.175,8.175,0,0,1-1.733.181A8.936,8.936,0,0,1,120.1,21.736Zm21.016.146a4.561,4.561,0,0,1-2.061.361q-3.262,0-3.262-3.389v-4.58H134.17V12h1.621V9.842l3.076-.879V12h2.246v2.275h-2.246v4.043q0,1.562,1.24,1.563a2.091,2.091,0,0,0,1.006-.283Zm8.262-7.1a2.677,2.677,0,0,0-1.3-.3,1.871,1.871,0,0,0-1.572.737,3.216,3.216,0,0,0-.566,2.007V22h-3.086V12h3.086v1.855h.039a2.67,2.67,0,0,1,2.637-2.031,1.987,1.987,0,0,1,.762.117ZM159.131,22h-2.92V20.564h-.039a3.259,3.259,0,0,1-2.979,1.68,3.116,3.116,0,0,1-2.29-.825,2.957,2.957,0,0,1-.835-2.2q0-2.91,3.447-3.359l2.715-.361q0-1.641-1.777-1.641a6.067,6.067,0,0,0-3.4,1.064V12.6a7.646,7.646,0,0,1,1.763-.586,9.266,9.266,0,0,1,2.036-.254q4.277,0,4.277,4.268Zm-2.9-4.062v-.674l-1.816.234q-1.5.2-1.5,1.357a1.122,1.122,0,0,0,.366.864,1.407,1.407,0,0,0,.991.337,1.827,1.827,0,0,0,1.416-.6A2.169,2.169,0,0,0,156.23,17.938Zm8.467,2.9h-.039V22h-3.086V7.2h3.086V13.5h.039a3.662,3.662,0,0,1,3.252-1.748,3.568,3.568,0,0,1,2.979,1.328,5.728,5.728,0,0,1,1.045,3.633,6.2,6.2,0,0,1-1.221,4.014,3.976,3.976,0,0,1-3.262,1.514A3.151,3.151,0,0,1,164.7,20.838Zm-.088-4.219v1.025a2.341,2.341,0,0,0,.557,1.6,1.811,1.811,0,0,0,1.426.635,1.892,1.892,0,0,0,1.636-.815,3.937,3.937,0,0,0,.581-2.31,3.132,3.132,0,0,0-.532-1.938,1.8,1.8,0,0,0-1.519-.7,1.962,1.962,0,0,0-1.538.693A2.634,2.634,0,0,0,164.609,16.619ZM182.1,22h-2.92V20.564h-.039a3.259,3.259,0,0,1-2.979,1.68,3.116,3.116,0,0,1-2.29-.825,2.957,2.957,0,0,1-.835-2.2q0-2.91,3.447-3.359L179.2,15.5q0-1.641-1.777-1.641a6.067,6.067,0,0,0-3.4,1.064V12.6a7.646,7.646,0,0,1,1.763-.586,9.266,9.266,0,0,1,2.036-.254q4.277,0,4.277,4.268Zm-2.9-4.062v-.674l-1.816.234q-1.5.2-1.5,1.357a1.122,1.122,0,0,0,.366.864,1.407,1.407,0,0,0,.991.337,1.827,1.827,0,0,0,1.416-.6A2.169,2.169,0,0,0,179.2,17.938Zm6.9-7.52a1.8,1.8,0,0,1-1.279-.464,1.5,1.5,0,0,1-.5-1.138,1.441,1.441,0,0,1,.5-1.133,2.089,2.089,0,0,1,2.563,0,1.448,1.448,0,0,1,.493,1.133,1.489,1.489,0,0,1-.493,1.152A1.833,1.833,0,0,1,186.1,10.418Zm1.523,11.406a5.436,5.436,0,0,1-1.084,3.545,3.8,3.8,0,0,1-3.125,1.328,4.321,4.321,0,0,1-1.475-.293V23.982a2.4,2.4,0,0,0,1.143.361q1.455,0,1.455-2.285V12h3.086ZM198.545,22h-2.92V20.564h-.039a3.259,3.259,0,0,1-2.979,1.68,3.116,3.116,0,0,1-2.29-.825,2.957,2.957,0,0,1-.835-2.2q0-2.91,3.447-3.359l2.715-.361q0-1.641-1.777-1.641a6.067,6.067,0,0,0-3.4,1.064V12.6a7.646,7.646,0,0,1,1.763-.586,9.266,9.266,0,0,1,2.036-.254q4.277,0,4.277,4.268Zm-2.9-4.062v-.674l-1.816.234q-1.5.2-1.5,1.357a1.122,1.122,0,0,0,.366.864,1.407,1.407,0,0,0,.991.337,1.827,1.827,0,0,0,1.416-.6A2.169,2.169,0,0,0,195.645,17.938ZM216.865,22h-3.076V16.3q0-2.178-1.6-2.178a1.471,1.471,0,0,0-1.24.654,2.689,2.689,0,0,0-.479,1.631V22h-3.086V16.238q0-2.119-1.572-2.119a1.507,1.507,0,0,0-1.265.625,2.75,2.75,0,0,0-.474,1.7V22h-3.086V12h3.086v1.563h.039a3.789,3.789,0,0,1,3.232-1.807,2.88,2.88,0,0,1,2.9,1.865,3.7,3.7,0,0,1,3.359-1.865q3.262,0,3.262,4.023Zm7.207.244a5.376,5.376,0,0,1-3.931-1.4,5.081,5.081,0,0,1-1.431-3.8,5.081,5.081,0,0,1,1.484-3.882,5.609,5.609,0,0,1,4.014-1.4,5.311,5.311,0,0,1,3.906,1.4,4.981,4.981,0,0,1,1.416,3.706,5.288,5.288,0,0,1-1.46,3.936A5.435,5.435,0,0,1,224.072,22.244Zm.078-8.125a2.058,2.058,0,0,0-1.7.752A3.316,3.316,0,0,0,221.846,17q0,2.881,2.324,2.881,2.217,0,2.217-2.959Q226.387,14.119,224.15,14.119Zm6.729,7.617v-2.5a6.57,6.57,0,0,0,1.519.684,5.035,5.035,0,0,0,1.431.225,3.068,3.068,0,0,0,1.294-.225.726.726,0,0,0,.474-.684.632.632,0,0,0-.215-.488,2,2,0,0,0-.552-.342,6.262,6.262,0,0,0-.737-.264q-.4-.117-.771-.264a7.392,7.392,0,0,1-1.05-.483,3.034,3.034,0,0,1-.762-.6A2.361,2.361,0,0,1,231.04,16a3.157,3.157,0,0,1-.161-1.064,2.74,2.74,0,0,1,.366-1.445,2.991,2.991,0,0,1,.977-.991,4.462,4.462,0,0,1,1.4-.566,7.281,7.281,0,0,1,1.636-.181,9.076,9.076,0,0,1,1.348.1,10.058,10.058,0,0,1,1.348.3v2.383a4.87,4.87,0,0,0-1.255-.513,5.294,5.294,0,0,0-1.313-.171,2.91,2.91,0,0,0-.571.054,1.882,1.882,0,0,0-.474.156.87.87,0,0,0-.322.264.607.607,0,0,0-.117.366.677.677,0,0,0,.176.469,1.527,1.527,0,0,0,.459.337,4.531,4.531,0,0,0,.63.254q.347.112.688.229a8.951,8.951,0,0,1,1.113.469,3.559,3.559,0,0,1,.854.6,2.339,2.339,0,0,1,.547.8,3.2,3.2,0,0,1-.2,2.612,3.088,3.088,0,0,1-1.025,1.025,4.65,4.65,0,0,1-1.475.576,8.175,8.175,0,0,1-1.733.181A8.936,8.936,0,0,1,230.879,21.736ZM241.6,17.947a2.975,2.975,0,0,1-.151-.571,3.605,3.605,0,0,1-.054-.6,3.562,3.562,0,0,1,.088-.82,2.862,2.862,0,0,1,.264-.7,3.3,3.3,0,0,1,.439-.625,5.65,5.65,0,0,1,.615-.591q.371-.312.649-.581a4.12,4.12,0,0,0,.474-.537,2.083,2.083,0,0,0,.293-.557,1.983,1.983,0,0,0,.1-.64,1.45,1.45,0,0,0-.107-.562,1.252,1.252,0,0,0-.308-.444,1.457,1.457,0,0,0-.488-.293,1.819,1.819,0,0,0-.64-.107,4.376,4.376,0,0,0-1.582.317,5.179,5.179,0,0,0-1.553.962V8.66a6.088,6.088,0,0,1,1.641-.674,7.463,7.463,0,0,1,1.836-.225,6.791,6.791,0,0,1,1.689.2,3.887,3.887,0,0,1,1.362.63,2.961,2.961,0,0,1,.908,1.1A3.626,3.626,0,0,1,247.4,11.3a3.962,3.962,0,0,1-.137,1.079,3.623,3.623,0,0,1-.4.913,4.606,4.606,0,0,1-.654.825,12.116,12.116,0,0,1-.9.815q-.342.283-.6.527a3.349,3.349,0,0,0-.43.483,1.872,1.872,0,0,0-.259.508,1.959,1.959,0,0,0-.088.61,1.9,1.9,0,0,0,.063.479,1.4,1.4,0,0,0,.171.41Zm1.426,4.277a1.862,1.862,0,0,1-1.3-.469,1.534,1.534,0,0,1-.518-1.152,1.465,1.465,0,0,1,.518-1.143,1.886,1.886,0,0,1,1.3-.459,1.836,1.836,0,0,1,1.279.459,1.458,1.458,0,0,1,.508,1.143,1.512,1.512,0,0,1-.5,1.162A1.849,1.849,0,0,1,243.027,22.225Z" transform="translate(644 5805.5)" fill="#002b45"/>
      <path id="Trazado_20129" data-name="Trazado 20129" d="M3.129,19H1.652V6.4H3.129Zm10.8,0H12.489V17.471h-.035a3.327,3.327,0,0,1-3.094,1.74A3.362,3.362,0,0,1,6.649,18a4.958,4.958,0,0,1-1.015-3.292,5.394,5.394,0,0,1,1.125-3.577,3.71,3.71,0,0,1,3-1.345,2.885,2.885,0,0,1,2.7,1.459h.035V5.676h1.441Zm-1.441-4.069V13.6a2.575,2.575,0,0,0-.721-1.846A2.417,2.417,0,0,0,9.94,11a2.489,2.489,0,0,0-2.074.967,4.237,4.237,0,0,0-.756,2.672A3.81,3.81,0,0,0,7.835,17.1a2.37,2.37,0,0,0,1.947.9,2.462,2.462,0,0,0,1.956-.87A3.242,3.242,0,0,0,12.489,14.931Zm11.593-.07H17.728a3.366,3.366,0,0,0,.809,2.32A2.788,2.788,0,0,0,20.663,18a4.422,4.422,0,0,0,2.795-1V18.35a5.224,5.224,0,0,1-3.138.861,3.8,3.8,0,0,1-3-1.226,5.018,5.018,0,0,1-1.09-3.45,4.921,4.921,0,0,1,1.191-3.423,3.819,3.819,0,0,1,2.958-1.323,3.384,3.384,0,0,1,2.733,1.143,4.764,4.764,0,0,1,.967,3.173Zm-1.477-1.222A2.933,2.933,0,0,0,22,11.7,2.051,2.051,0,0,0,20.355,11a2.328,2.328,0,0,0-1.731.729,3.31,3.31,0,0,0-.879,1.907ZM33.732,19H32.291V13.867Q32.291,11,30.2,11a2.269,2.269,0,0,0-1.789.813,3.013,3.013,0,0,0-.708,2.052V19H26.262V10H27.7v1.494h.035a3.248,3.248,0,0,1,2.953-1.705,2.753,2.753,0,0,1,2.259.954,4.248,4.248,0,0,1,.782,2.755Zm6.891-.088a2.779,2.779,0,0,1-1.345.281q-2.364,0-2.364-2.637V11.23H35.367V10h1.547V7.8l1.441-.466V10h2.268v1.23H38.355V16.3a2.1,2.1,0,0,0,.308,1.292,1.228,1.228,0,0,0,1.02.387,1.515,1.515,0,0,0,.94-.3Zm2.663-11.2a.913.913,0,0,1-.659-.264.89.89,0,0,1-.272-.668.923.923,0,0,1,.932-.94.931.931,0,0,1,.672.268.939.939,0,0,1,0,1.332A.923.923,0,0,1,43.286,7.715ZM43.989,19H42.548V10h1.441Zm10.6,0H53.147V17.471h-.035a3.327,3.327,0,0,1-3.094,1.74A3.362,3.362,0,0,1,47.307,18a4.958,4.958,0,0,1-1.015-3.292,5.394,5.394,0,0,1,1.125-3.577,3.71,3.71,0,0,1,3-1.345,2.885,2.885,0,0,1,2.7,1.459h.035V5.676h1.441Zm-1.441-4.069V13.6a2.575,2.575,0,0,0-.721-1.846A2.417,2.417,0,0,0,50.6,11a2.489,2.489,0,0,0-2.074.967,4.237,4.237,0,0,0-.756,2.672,3.81,3.81,0,0,0,.725,2.457,2.37,2.37,0,0,0,1.947.9,2.462,2.462,0,0,0,1.956-.87A3.242,3.242,0,0,0,53.147,14.931ZM63.949,19H62.508V17.594h-.035A3.018,3.018,0,0,1,59.7,19.211a2.959,2.959,0,0,1-2.1-.712,2.466,2.466,0,0,1-.76-1.89q0-2.522,2.971-2.936l2.7-.378Q62.508,11,60.653,11a4.431,4.431,0,0,0-2.936,1.107V10.633a5.577,5.577,0,0,1,3.059-.844q3.173,0,3.173,3.357Zm-1.441-4.553-2.171.3a3.525,3.525,0,0,0-1.512.5,1.432,1.432,0,0,0-.51,1.261,1.374,1.374,0,0,0,.47,1.077A1.817,1.817,0,0,0,60.038,18a2.314,2.314,0,0,0,1.771-.751,2.685,2.685,0,0,0,.7-1.9ZM74.347,19H72.905V17.471H72.87a3.327,3.327,0,0,1-3.094,1.74A3.362,3.362,0,0,1,67.065,18a4.958,4.958,0,0,1-1.015-3.292,5.394,5.394,0,0,1,1.125-3.577,3.71,3.71,0,0,1,3-1.345,2.885,2.885,0,0,1,2.7,1.459h.035V5.676h1.441Zm-1.441-4.069V13.6a2.575,2.575,0,0,0-.721-1.846A2.417,2.417,0,0,0,70.356,11a2.489,2.489,0,0,0-2.074.967,4.237,4.237,0,0,0-.756,2.672,3.81,3.81,0,0,0,.725,2.457A2.37,2.37,0,0,0,70.2,18a2.462,2.462,0,0,0,1.956-.87A3.242,3.242,0,0,0,72.905,14.931ZM78.583,17,77.177,21.32H76.148L77.177,17Zm8.956,2H86.1V5.676h1.441ZM97.69,14.86H91.336a3.366,3.366,0,0,0,.809,2.32A2.788,2.788,0,0,0,94.271,18a4.422,4.422,0,0,0,2.795-1V18.35a5.224,5.224,0,0,1-3.138.861,3.8,3.8,0,0,1-3-1.226,5.018,5.018,0,0,1-1.09-3.45,4.921,4.921,0,0,1,1.191-3.423A3.819,3.819,0,0,1,93.99,9.789a3.384,3.384,0,0,1,2.733,1.143A4.764,4.764,0,0,1,97.69,14.1Zm-1.477-1.222a2.933,2.933,0,0,0-.6-1.942A2.051,2.051,0,0,0,93.964,11a2.328,2.328,0,0,0-1.731.729,3.31,3.31,0,0,0-.879,1.907Zm11.338,4.641q0,4.957-4.746,4.957a6.372,6.372,0,0,1-2.918-.633V21.162a5.993,5.993,0,0,0,2.9.844q3.322,0,3.322-3.533v-.984h-.035a3.641,3.641,0,0,1-5.8.523,4.8,4.8,0,0,1-1.024-3.221,5.6,5.6,0,0,1,1.1-3.647,3.685,3.685,0,0,1,3.019-1.354,2.934,2.934,0,0,1,2.7,1.459h.035V10h1.441Zm-1.441-3.349V13.6a2.575,2.575,0,0,0-.725-1.837A2.387,2.387,0,0,0,103.579,11a2.5,2.5,0,0,0-2.092.971,4.335,4.335,0,0,0-.756,2.72,3.721,3.721,0,0,0,.725,2.4,2.343,2.343,0,0,0,1.92.9,2.509,2.509,0,0,0,1.973-.861A3.21,3.21,0,0,0,106.11,14.931Zm5.1-7.216a.913.913,0,0,1-.659-.264.89.89,0,0,1-.272-.668.923.923,0,0,1,.932-.94.931.931,0,0,1,.672.268.939.939,0,0,1,0,1.332A.923.923,0,0,1,111.208,7.715Zm.7,11.285H110.47V10h1.441ZM119,18.912a2.779,2.779,0,0,1-1.345.281q-2.364,0-2.364-2.637V11.23h-1.547V10h1.547V7.8l1.441-.466V10H119v1.23h-2.268V16.3a2.1,2.1,0,0,0,.308,1.292,1.228,1.228,0,0,0,1.02.387,1.515,1.515,0,0,0,.94-.3Zm2.663-11.2a.913.913,0,0,1-.659-.264.89.89,0,0,1-.272-.668.923.923,0,0,1,.932-.94.931.931,0,0,1,.672.268.939.939,0,0,1,0,1.332A.923.923,0,0,1,121.667,7.715ZM122.37,19h-1.441V10h1.441Zm15.7,0h-1.441V13.832a3.9,3.9,0,0,0-.461-2.162A1.75,1.75,0,0,0,134.613,11a1.921,1.921,0,0,0-1.569.844,3.228,3.228,0,0,0-.646,2.021V19h-1.441V13.656q0-2.654-2.048-2.654a1.9,1.9,0,0,0-1.564.8,3.288,3.288,0,0,0-.615,2.07V19h-1.441V10h1.441v1.424h.035a3.058,3.058,0,0,1,2.795-1.635,2.6,2.6,0,0,1,2.549,1.863A3.212,3.212,0,0,1,135.1,9.789q2.971,0,2.971,3.665ZM141.53,7.715a.913.913,0,0,1-.659-.264.89.89,0,0,1-.272-.668.923.923,0,0,1,.932-.94.931.931,0,0,1,.672.268.939.939,0,0,1,0,1.332A.923.923,0,0,1,141.53,7.715Zm.7,11.285h-1.441V10h1.441Zm10.6,0h-1.441V17.471h-.035a3.327,3.327,0,0,1-3.094,1.74A3.362,3.362,0,0,1,145.551,18a4.958,4.958,0,0,1-1.015-3.292,5.394,5.394,0,0,1,1.125-3.577,3.71,3.71,0,0,1,3-1.345,2.885,2.885,0,0,1,2.7,1.459h.035V5.676h1.441Zm-1.441-4.069V13.6a2.575,2.575,0,0,0-.721-1.846A2.417,2.417,0,0,0,148.843,11a2.489,2.489,0,0,0-2.074.967,4.237,4.237,0,0,0-.756,2.672,3.81,3.81,0,0,0,.725,2.457,2.37,2.37,0,0,0,1.947.9,2.462,2.462,0,0,0,1.956-.87A3.242,3.242,0,0,0,151.392,14.931ZM162.193,19h-1.441V17.594h-.035a3.018,3.018,0,0,1-2.769,1.617,2.959,2.959,0,0,1-2.1-.712,2.466,2.466,0,0,1-.76-1.89q0-2.522,2.971-2.936l2.7-.378Q160.752,11,158.9,11a4.431,4.431,0,0,0-2.936,1.107V10.633a5.577,5.577,0,0,1,3.059-.844q3.173,0,3.173,3.357Zm-1.441-4.553-2.171.3a3.525,3.525,0,0,0-1.512.5,1.432,1.432,0,0,0-.51,1.261,1.374,1.374,0,0,0,.47,1.077,1.817,1.817,0,0,0,1.252.417,2.314,2.314,0,0,0,1.771-.751,2.685,2.685,0,0,0,.7-1.9ZM172.591,19h-1.441V17.471h-.035a3.327,3.327,0,0,1-3.094,1.74A3.362,3.362,0,0,1,165.309,18a4.958,4.958,0,0,1-1.015-3.292,5.394,5.394,0,0,1,1.125-3.577,3.71,3.71,0,0,1,3-1.345,2.885,2.885,0,0,1,2.7,1.459h.035V5.676h1.441Zm-1.441-4.069V13.6a2.575,2.575,0,0,0-.721-1.846A2.417,2.417,0,0,0,168.6,11a2.489,2.489,0,0,0-2.074.967,4.237,4.237,0,0,0-.756,2.672A3.81,3.81,0,0,0,166.5,17.1a2.37,2.37,0,0,0,1.947.9,2.462,2.462,0,0,0,1.956-.87A3.242,3.242,0,0,0,171.149,14.931Zm4.86,4.263a.933.933,0,0,1-.69-.29.955.955,0,0,1-.286-.694.969.969,0,0,1,.286-.7.926.926,0,0,1,.69-.294.95.95,0,0,1,.7.294.962.962,0,0,1,.29.7.947.947,0,0,1-.29.694A.958.958,0,0,1,176.01,19.193Z" transform="translate(678 5077.5)" fill="#00223d"/>
      <path id="Trazado_20133" data-name="Trazado 20133" d="M3.129,14.236V19H1.652V6.4H5.115a4.571,4.571,0,0,1,3.133.984A3.515,3.515,0,0,1,9.36,10.158a3.82,3.82,0,0,1-1.235,2.936A4.718,4.718,0,0,1,4.79,14.236Zm0-6.5V12.9H4.676a3.458,3.458,0,0,0,2.333-.7,2.474,2.474,0,0,0,.8-1.973q0-2.5-2.953-2.5Zm13.1,3.727a1.763,1.763,0,0,0-1.09-.29,1.839,1.839,0,0,0-1.542.87,4.023,4.023,0,0,0-.62,2.373V19H11.54V10h1.441v1.854h.035a3.143,3.143,0,0,1,.94-1.481,2.144,2.144,0,0,1,1.415-.532,2.353,2.353,0,0,1,.861.123Zm5.326,7.752a4.175,4.175,0,0,1-3.186-1.261,4.672,4.672,0,0,1-1.191-3.344,4.867,4.867,0,0,1,1.239-3.542,4.455,4.455,0,0,1,3.349-1.274,4.037,4.037,0,0,1,3.142,1.239,4.914,4.914,0,0,1,1.129,3.437,4.835,4.835,0,0,1-1.217,3.45A4.265,4.265,0,0,1,21.56,19.211ZM21.665,11a2.742,2.742,0,0,0-2.2.945,3.88,3.88,0,0,0-.809,2.606,3.67,3.67,0,0,0,.817,2.522A2.778,2.778,0,0,0,21.665,18a2.635,2.635,0,0,0,2.149-.905,3.928,3.928,0,0,0,.751-2.575,4,4,0,0,0-.751-2.6A2.623,2.623,0,0,0,21.665,11Zm8.156,6.7h-.035v5.44H28.345V10h1.441v1.582h.035a3.408,3.408,0,0,1,3.111-1.793A3.3,3.3,0,0,1,35.648,11a5.005,5.005,0,0,1,.976,3.239,5.578,5.578,0,0,1-1.1,3.617,3.658,3.658,0,0,1-3.006,1.358A3.011,3.011,0,0,1,29.821,17.7Zm-.035-3.63v1.257a2.676,2.676,0,0,0,.725,1.894A2.587,2.587,0,0,0,34.4,17a4.6,4.6,0,0,0,.743-2.786,3.629,3.629,0,0,0-.694-2.355A2.3,2.3,0,0,0,32.572,11a2.554,2.554,0,0,0-2.021.875A3.211,3.211,0,0,0,29.786,14.069Zm12.9,5.142A4.175,4.175,0,0,1,39.5,17.95a4.672,4.672,0,0,1-1.191-3.344,4.867,4.867,0,0,1,1.239-3.542A4.455,4.455,0,0,1,42.9,9.789a4.037,4.037,0,0,1,3.142,1.239,4.914,4.914,0,0,1,1.129,3.437,4.835,4.835,0,0,1-1.217,3.45A4.265,4.265,0,0,1,42.688,19.211ZM42.794,11a2.742,2.742,0,0,0-2.2.945,3.88,3.88,0,0,0-.809,2.606,3.67,3.67,0,0,0,.817,2.522A2.778,2.778,0,0,0,42.794,18a2.635,2.635,0,0,0,2.149-.905,3.928,3.928,0,0,0,.751-2.575,4,4,0,0,0-.751-2.6A2.623,2.623,0,0,0,42.794,11ZM44.9,5.412,42.6,8.295H41.484l1.96-2.883Zm4.025,13.263V17.128a4.266,4.266,0,0,0,2.593.87q1.9,0,1.9-1.266a1.1,1.1,0,0,0-.163-.611,1.62,1.62,0,0,0-.439-.444,3.383,3.383,0,0,0-.65-.347q-.374-.154-.8-.321a10.357,10.357,0,0,1-1.05-.479,3.173,3.173,0,0,1-.756-.545,2.028,2.028,0,0,1-.457-.69,2.441,2.441,0,0,1-.154-.905,2.15,2.15,0,0,1,.29-1.121,2.572,2.572,0,0,1,.773-.817,3.607,3.607,0,0,1,1.1-.5,4.893,4.893,0,0,1,1.279-.167,5.164,5.164,0,0,1,2.092.4v1.459A4.077,4.077,0,0,0,52.2,11a2.671,2.671,0,0,0-.729.092,1.786,1.786,0,0,0-.558.259,1.2,1.2,0,0,0-.36.4,1.053,1.053,0,0,0-.127.514,1.233,1.233,0,0,0,.127.589,1.3,1.3,0,0,0,.374.422,2.855,2.855,0,0,0,.6.334q.352.149.8.325a11.131,11.131,0,0,1,1.072.47,3.678,3.678,0,0,1,.809.545,2.129,2.129,0,0,1,.514.7,2.254,2.254,0,0,1,.18.94,2.217,2.217,0,0,1-.294,1.16,2.523,2.523,0,0,1-.787.817,3.6,3.6,0,0,1-1.134.483,5.6,5.6,0,0,1-1.345.158A5.106,5.106,0,0,1,48.929,18.675ZM57.85,7.715a.913.913,0,0,1-.659-.264.89.89,0,0,1-.272-.668.923.923,0,0,1,.932-.94.931.931,0,0,1,.672.268.939.939,0,0,1,0,1.332A.923.923,0,0,1,57.85,7.715ZM58.553,19H57.111V10h1.441Zm7.093-.088a2.779,2.779,0,0,1-1.345.281q-2.364,0-2.364-2.637V11.23H60.39V10h1.547V7.8l1.441-.466V10h2.268v1.23H63.378V16.3a2.1,2.1,0,0,0,.308,1.292,1.228,1.228,0,0,0,1.02.387,1.515,1.515,0,0,0,.94-.3Zm5.687.3a4.175,4.175,0,0,1-3.186-1.261,4.672,4.672,0,0,1-1.191-3.344,4.867,4.867,0,0,1,1.239-3.542,4.455,4.455,0,0,1,3.349-1.274,4.037,4.037,0,0,1,3.142,1.239,4.914,4.914,0,0,1,1.129,3.437,4.835,4.835,0,0,1-1.217,3.45A4.265,4.265,0,0,1,71.332,19.211ZM71.438,11a2.742,2.742,0,0,0-2.2.945,3.88,3.88,0,0,0-.809,2.606,3.67,3.67,0,0,0,.817,2.522A2.778,2.778,0,0,0,71.438,18a2.635,2.635,0,0,0,2.149-.905,3.928,3.928,0,0,0,.751-2.575,4,4,0,0,0-.751-2.6A2.623,2.623,0,0,0,71.438,11Zm6.135,7.673V17.128a4.266,4.266,0,0,0,2.593.87q1.9,0,1.9-1.266a1.1,1.1,0,0,0-.163-.611,1.62,1.62,0,0,0-.439-.444,3.383,3.383,0,0,0-.65-.347q-.374-.154-.8-.321a10.357,10.357,0,0,1-1.05-.479,3.173,3.173,0,0,1-.756-.545,2.028,2.028,0,0,1-.457-.69,2.441,2.441,0,0,1-.154-.905,2.15,2.15,0,0,1,.29-1.121,2.572,2.572,0,0,1,.773-.817,3.607,3.607,0,0,1,1.1-.5,4.893,4.893,0,0,1,1.279-.167,5.164,5.164,0,0,1,2.092.4v1.459A4.077,4.077,0,0,0,80.842,11a2.671,2.671,0,0,0-.729.092,1.786,1.786,0,0,0-.558.259,1.2,1.2,0,0,0-.36.4,1.053,1.053,0,0,0-.127.514,1.233,1.233,0,0,0,.127.589,1.3,1.3,0,0,0,.374.422,2.855,2.855,0,0,0,.6.334q.352.149.8.325a11.131,11.131,0,0,1,1.072.47,3.678,3.678,0,0,1,.809.545,2.129,2.129,0,0,1,.514.7,2.254,2.254,0,0,1,.18.94,2.217,2.217,0,0,1-.294,1.16,2.523,2.523,0,0,1-.787.817,3.6,3.6,0,0,1-1.134.483,5.6,5.6,0,0,1-1.345.158A5.106,5.106,0,0,1,77.572,18.675Zm8.684.519a.933.933,0,0,1-.69-.29.955.955,0,0,1-.286-.694.969.969,0,0,1,.286-.7.926.926,0,0,1,.69-.294.95.95,0,0,1,.7.294.962.962,0,0,1,.29.7.947.947,0,0,1-.29.694A.958.958,0,0,1,86.256,19.193Z" transform="translate(520 5270.5)" fill="#00223d"/>
      <path id="Trazado_20135" data-name="Trazado 20135" d="M3.129,14.236V19H1.652V6.4H5.115a4.571,4.571,0,0,1,3.133.984A3.515,3.515,0,0,1,9.36,10.158a3.82,3.82,0,0,1-1.235,2.936A4.718,4.718,0,0,1,4.79,14.236Zm0-6.5V12.9H4.676a3.458,3.458,0,0,0,2.333-.7,2.474,2.474,0,0,0,.8-1.973q0-2.5-2.953-2.5Zm13.1,3.727a1.763,1.763,0,0,0-1.09-.29,1.839,1.839,0,0,0-1.542.87,4.023,4.023,0,0,0-.62,2.373V19H11.54V10h1.441v1.854h.035a3.143,3.143,0,0,1,.94-1.481,2.144,2.144,0,0,1,1.415-.532,2.353,2.353,0,0,1,.861.123Zm2.3-3.744a.913.913,0,0,1-.659-.264.89.89,0,0,1-.272-.668.923.923,0,0,1,.932-.94.931.931,0,0,1,.672.268.939.939,0,0,1,0,1.332A.923.923,0,0,1,18.536,7.715ZM19.239,19H17.8V10h1.441Zm10.389,0H28.187V13.867Q28.187,11,26.095,11a2.269,2.269,0,0,0-1.789.813,3.013,3.013,0,0,0-.708,2.052V19H22.157V10H23.6v1.494h.035a3.248,3.248,0,0,1,2.953-1.705,2.753,2.753,0,0,1,2.259.954,4.248,4.248,0,0,1,.782,2.755Zm8.851-.413a4.684,4.684,0,0,1-2.461.624,4.074,4.074,0,0,1-3.107-1.252,4.539,4.539,0,0,1-1.182-3.248A4.99,4.99,0,0,1,33,11.138a4.458,4.458,0,0,1,3.4-1.349,4.735,4.735,0,0,1,2.092.439v1.477a3.665,3.665,0,0,0-2.145-.7,2.9,2.9,0,0,0-2.263.989,3.752,3.752,0,0,0-.883,2.6,3.573,3.573,0,0,0,.831,2.5A2.863,2.863,0,0,0,36.264,18a3.613,3.613,0,0,0,2.215-.782ZM41.4,7.715a.913.913,0,0,1-.659-.264.89.89,0,0,1-.272-.668.923.923,0,0,1,.932-.94.931.931,0,0,1,.672.268.939.939,0,0,1,0,1.332A.923.923,0,0,1,41.4,7.715ZM42.1,19H40.658V10H42.1Zm4.395-1.3h-.035v5.44H45.018V10h1.441v1.582h.035a3.408,3.408,0,0,1,3.111-1.793A3.3,3.3,0,0,1,52.321,11a5.005,5.005,0,0,1,.976,3.239,5.578,5.578,0,0,1-1.1,3.617,3.658,3.658,0,0,1-3.006,1.358A3.011,3.011,0,0,1,46.494,17.7Zm-.035-3.63v1.257a2.676,2.676,0,0,0,.725,1.894A2.587,2.587,0,0,0,51.078,17a4.6,4.6,0,0,0,.743-2.786,3.629,3.629,0,0,0-.694-2.355A2.3,2.3,0,0,0,49.245,11a2.554,2.554,0,0,0-2.021.875A3.211,3.211,0,0,0,46.459,14.069ZM62.042,19H60.6V17.594h-.035A3.018,3.018,0,0,1,57.8,19.211a2.959,2.959,0,0,1-2.1-.712,2.466,2.466,0,0,1-.76-1.89q0-2.522,2.971-2.936l2.7-.378Q60.6,11,58.746,11a4.431,4.431,0,0,0-2.936,1.107V10.633a5.577,5.577,0,0,1,3.059-.844q3.173,0,3.173,3.357ZM60.6,14.447l-2.171.3a3.525,3.525,0,0,0-1.512.5,1.432,1.432,0,0,0-.51,1.261,1.374,1.374,0,0,0,.47,1.077A1.817,1.817,0,0,0,58.131,18a2.314,2.314,0,0,0,1.771-.751,2.685,2.685,0,0,0,.7-1.9ZM66.2,19H64.758V5.676H66.2Zm10.151-4.14H70a3.366,3.366,0,0,0,.809,2.32A2.788,2.788,0,0,0,72.932,18a4.422,4.422,0,0,0,2.795-1V18.35a5.224,5.224,0,0,1-3.138.861,3.8,3.8,0,0,1-3-1.226,5.018,5.018,0,0,1-1.09-3.45,4.921,4.921,0,0,1,1.191-3.423A3.819,3.819,0,0,1,72.65,9.789a3.384,3.384,0,0,1,2.733,1.143,4.764,4.764,0,0,1,.967,3.173Zm-1.477-1.222a2.933,2.933,0,0,0-.6-1.942A2.051,2.051,0,0,0,72.624,11a2.328,2.328,0,0,0-1.731.729,3.31,3.31,0,0,0-.879,1.907Zm3.111,5.036V17.128a4.266,4.266,0,0,0,2.593.87q1.9,0,1.9-1.266a1.1,1.1,0,0,0-.163-.611,1.62,1.62,0,0,0-.439-.444,3.383,3.383,0,0,0-.65-.347q-.374-.154-.8-.321a10.357,10.357,0,0,1-1.05-.479,3.173,3.173,0,0,1-.756-.545,2.028,2.028,0,0,1-.457-.69A2.441,2.441,0,0,1,78,12.391a2.15,2.15,0,0,1,.29-1.121,2.572,2.572,0,0,1,.773-.817,3.607,3.607,0,0,1,1.1-.5,4.893,4.893,0,0,1,1.279-.167,5.164,5.164,0,0,1,2.092.4v1.459A4.077,4.077,0,0,0,81.255,11a2.671,2.671,0,0,0-.729.092,1.786,1.786,0,0,0-.558.259,1.2,1.2,0,0,0-.36.4,1.053,1.053,0,0,0-.127.514,1.233,1.233,0,0,0,.127.589,1.3,1.3,0,0,0,.374.422,2.855,2.855,0,0,0,.6.334q.352.149.8.325a11.131,11.131,0,0,1,1.072.47,3.678,3.678,0,0,1,.809.545,2.129,2.129,0,0,1,.514.7,2.254,2.254,0,0,1,.18.94,2.217,2.217,0,0,1-.294,1.16,2.523,2.523,0,0,1-.787.817,3.6,3.6,0,0,1-1.134.483,5.6,5.6,0,0,1-1.345.158A5.106,5.106,0,0,1,77.985,18.675ZM103.878,19h-1.441V13.832a3.9,3.9,0,0,0-.461-2.162A1.75,1.75,0,0,0,100.424,11a1.921,1.921,0,0,0-1.569.844,3.228,3.228,0,0,0-.646,2.021V19H96.768V13.656Q96.768,11,94.72,11a1.9,1.9,0,0,0-1.564.8,3.288,3.288,0,0,0-.615,2.07V19H91.1V10H92.54v1.424h.035A3.058,3.058,0,0,1,95.37,9.789a2.6,2.6,0,0,1,2.549,1.863,3.212,3.212,0,0,1,2.988-1.863q2.971,0,2.971,3.665Zm9.958-4.14h-6.354a3.366,3.366,0,0,0,.809,2.32,2.788,2.788,0,0,0,2.127.817,4.422,4.422,0,0,0,2.795-1V18.35a5.224,5.224,0,0,1-3.138.861,3.8,3.8,0,0,1-3-1.226,5.018,5.018,0,0,1-1.09-3.45,4.921,4.921,0,0,1,1.191-3.423,3.819,3.819,0,0,1,2.958-1.323,3.384,3.384,0,0,1,2.733,1.143,4.764,4.764,0,0,1,.967,3.173Zm-1.477-1.222a2.933,2.933,0,0,0-.6-1.942A2.051,2.051,0,0,0,110.109,11a2.328,2.328,0,0,0-1.731.729,3.31,3.31,0,0,0-.879,1.907ZM123.7,19h-1.441V17.471h-.035a3.327,3.327,0,0,1-3.094,1.74A3.362,3.362,0,0,1,116.416,18a4.958,4.958,0,0,1-1.015-3.292,5.394,5.394,0,0,1,1.125-3.577,3.71,3.71,0,0,1,3-1.345,2.885,2.885,0,0,1,2.7,1.459h.035V5.676H123.7Zm-1.441-4.069V13.6a2.575,2.575,0,0,0-.721-1.846A2.417,2.417,0,0,0,119.707,11a2.489,2.489,0,0,0-2.074.967,4.237,4.237,0,0,0-.756,2.672A3.81,3.81,0,0,0,117.6,17.1a2.37,2.37,0,0,0,1.947.9,2.462,2.462,0,0,0,1.956-.87A3.242,3.242,0,0,0,122.256,14.931Zm5.1-7.216a.913.913,0,0,1-.659-.264.89.89,0,0,1-.272-.668.923.923,0,0,1,.932-.94.931.931,0,0,1,.672.268.939.939,0,0,1,0,1.332A.923.923,0,0,1,127.354,7.715Zm.7,11.285h-1.441V10h1.441Zm6.68.211a4.175,4.175,0,0,1-3.186-1.261,4.672,4.672,0,0,1-1.191-3.344,4.867,4.867,0,0,1,1.239-3.542,4.455,4.455,0,0,1,3.349-1.274,4.037,4.037,0,0,1,3.142,1.239,4.914,4.914,0,0,1,1.129,3.437A4.835,4.835,0,0,1,138,17.915,4.265,4.265,0,0,1,134.736,19.211ZM134.842,11a2.742,2.742,0,0,0-2.2.945,3.88,3.88,0,0,0-.809,2.606,3.67,3.67,0,0,0,.817,2.522,2.778,2.778,0,0,0,2.188.923,2.635,2.635,0,0,0,2.149-.905,3.928,3.928,0,0,0,.751-2.575,4,4,0,0,0-.751-2.6A2.623,2.623,0,0,0,134.842,11Zm6.135,7.673V17.128a4.266,4.266,0,0,0,2.593.87q1.9,0,1.9-1.266a1.1,1.1,0,0,0-.163-.611,1.62,1.62,0,0,0-.439-.444,3.383,3.383,0,0,0-.65-.347q-.374-.154-.8-.321a10.357,10.357,0,0,1-1.05-.479,3.173,3.173,0,0,1-.756-.545,2.028,2.028,0,0,1-.457-.69,2.441,2.441,0,0,1-.154-.905,2.15,2.15,0,0,1,.29-1.121,2.572,2.572,0,0,1,.773-.817,3.607,3.607,0,0,1,1.1-.5,4.893,4.893,0,0,1,1.279-.167,5.164,5.164,0,0,1,2.092.4v1.459a4.077,4.077,0,0,0-2.285-.65,2.671,2.671,0,0,0-.729.092,1.786,1.786,0,0,0-.558.259,1.2,1.2,0,0,0-.36.4,1.053,1.053,0,0,0-.127.514,1.233,1.233,0,0,0,.127.589,1.3,1.3,0,0,0,.374.422,2.855,2.855,0,0,0,.6.334q.352.149.8.325a11.131,11.131,0,0,1,1.072.47,3.678,3.678,0,0,1,.809.545,2.129,2.129,0,0,1,.514.7,2.254,2.254,0,0,1,.18.94,2.217,2.217,0,0,1-.294,1.16,2.523,2.523,0,0,1-.787.817,3.6,3.6,0,0,1-1.134.483,5.6,5.6,0,0,1-1.345.158A5.106,5.106,0,0,1,140.977,18.675Zm14.59-.976h-.035v5.44H154.09V10h1.441v1.582h.035a3.408,3.408,0,0,1,3.111-1.793A3.3,3.3,0,0,1,161.394,11a5.005,5.005,0,0,1,.976,3.239,5.578,5.578,0,0,1-1.1,3.617,3.658,3.658,0,0,1-3.006,1.358A3.011,3.011,0,0,1,155.566,17.7Zm-.035-3.63v1.257a2.676,2.676,0,0,0,.725,1.894A2.587,2.587,0,0,0,160.15,17a4.6,4.6,0,0,0,.743-2.786,3.629,3.629,0,0,0-.694-2.355A2.3,2.3,0,0,0,158.317,11a2.554,2.554,0,0,0-2.021.875A3.211,3.211,0,0,0,155.531,14.069ZM171.114,19h-1.441V17.594h-.035a3.018,3.018,0,0,1-2.769,1.617,2.959,2.959,0,0,1-2.1-.712,2.466,2.466,0,0,1-.76-1.89q0-2.522,2.971-2.936l2.7-.378q0-2.294-1.854-2.294a4.431,4.431,0,0,0-2.936,1.107V10.633a5.577,5.577,0,0,1,3.059-.844q3.173,0,3.173,3.357Zm-1.441-4.553-2.171.3a3.525,3.525,0,0,0-1.512.5,1.432,1.432,0,0,0-.51,1.261,1.374,1.374,0,0,0,.47,1.077A1.817,1.817,0,0,0,167.2,18a2.314,2.314,0,0,0,1.771-.751,2.685,2.685,0,0,0,.7-1.9Zm8.851-2.988a1.763,1.763,0,0,0-1.09-.29,1.839,1.839,0,0,0-1.542.87,4.023,4.023,0,0,0-.62,2.373V19H173.83V10h1.441v1.854h.035a3.143,3.143,0,0,1,.94-1.481,2.144,2.144,0,0,1,1.415-.532,2.353,2.353,0,0,1,.861.123ZM186.53,19h-1.441V17.594h-.035a3.018,3.018,0,0,1-2.769,1.617,2.959,2.959,0,0,1-2.1-.712,2.466,2.466,0,0,1-.76-1.89q0-2.522,2.971-2.936l2.7-.378q0-2.294-1.854-2.294a4.431,4.431,0,0,0-2.936,1.107V10.633a5.577,5.577,0,0,1,3.059-.844q3.173,0,3.173,3.357Zm-1.441-4.553-2.171.3a3.525,3.525,0,0,0-1.512.5,1.432,1.432,0,0,0-.51,1.261,1.374,1.374,0,0,0,.47,1.077,1.817,1.817,0,0,0,1.252.417,2.314,2.314,0,0,0,1.771-.751,2.685,2.685,0,0,0,.7-1.9Z" transform="translate(670 5444.5)" fill="#00223d"/>
      <path id="Trazado_20139" data-name="Trazado 20139" d="M11.021,6.4,6.354,19H4.729L.158,6.4H1.8L5.291,16.39a5.934,5.934,0,0,1,.255,1.116h.035a5.475,5.475,0,0,1,.29-1.134L9.431,6.4ZM17.763,19H16.321V17.594h-.035a3.018,3.018,0,0,1-2.769,1.617,2.959,2.959,0,0,1-2.1-.712,2.466,2.466,0,0,1-.76-1.89q0-2.522,2.971-2.936l2.7-.378Q16.321,11,14.467,11a4.431,4.431,0,0,0-2.936,1.107V10.633a5.577,5.577,0,0,1,3.059-.844q3.173,0,3.173,3.357Zm-1.441-4.553-2.171.3a3.525,3.525,0,0,0-1.512.5,1.432,1.432,0,0,0-.51,1.261,1.374,1.374,0,0,0,.47,1.077A1.817,1.817,0,0,0,13.852,18a2.314,2.314,0,0,0,1.771-.751,2.685,2.685,0,0,0,.7-1.9ZM21.92,19H20.479V5.676H21.92Zm6.68.211a4.175,4.175,0,0,1-3.186-1.261,4.672,4.672,0,0,1-1.191-3.344,4.867,4.867,0,0,1,1.239-3.542,4.455,4.455,0,0,1,3.349-1.274,4.037,4.037,0,0,1,3.142,1.239,4.914,4.914,0,0,1,1.129,3.437,4.835,4.835,0,0,1-1.217,3.45A4.265,4.265,0,0,1,28.6,19.211ZM28.705,11a2.742,2.742,0,0,0-2.2.945,3.88,3.88,0,0,0-.809,2.606,3.67,3.67,0,0,0,.817,2.522A2.778,2.778,0,0,0,28.705,18a2.635,2.635,0,0,0,2.149-.905,3.928,3.928,0,0,0,.751-2.575,4,4,0,0,0-.751-2.6A2.623,2.623,0,0,0,28.705,11Zm11.373.457a1.763,1.763,0,0,0-1.09-.29,1.839,1.839,0,0,0-1.542.87,4.023,4.023,0,0,0-.62,2.373V19H35.385V10h1.441v1.854h.035a3.143,3.143,0,0,1,.94-1.481,2.144,2.144,0,0,1,1.415-.532,2.353,2.353,0,0,1,.861.123Zm8.8,3.4H42.521a3.366,3.366,0,0,0,.809,2.32A2.788,2.788,0,0,0,45.457,18a4.422,4.422,0,0,0,2.795-1V18.35a5.224,5.224,0,0,1-3.138.861,3.8,3.8,0,0,1-3-1.226,5.018,5.018,0,0,1-1.09-3.45,4.921,4.921,0,0,1,1.191-3.423,3.819,3.819,0,0,1,2.958-1.323,3.384,3.384,0,0,1,2.733,1.143,4.764,4.764,0,0,1,.967,3.173ZM47.4,13.639a2.933,2.933,0,0,0-.6-1.942A2.051,2.051,0,0,0,45.149,11a2.328,2.328,0,0,0-1.731.729,3.31,3.31,0,0,0-.879,1.907Zm3.111,5.036V17.128A4.266,4.266,0,0,0,53.1,18Q55,18,55,16.732a1.1,1.1,0,0,0-.163-.611,1.62,1.62,0,0,0-.439-.444,3.383,3.383,0,0,0-.65-.347q-.374-.154-.8-.321a10.357,10.357,0,0,1-1.05-.479,3.173,3.173,0,0,1-.756-.545,2.028,2.028,0,0,1-.457-.69,2.441,2.441,0,0,1-.154-.905,2.15,2.15,0,0,1,.29-1.121,2.572,2.572,0,0,1,.773-.817,3.607,3.607,0,0,1,1.1-.5,4.893,4.893,0,0,1,1.279-.167,5.164,5.164,0,0,1,2.092.4v1.459A4.077,4.077,0,0,0,53.78,11a2.671,2.671,0,0,0-.729.092,1.786,1.786,0,0,0-.558.259,1.2,1.2,0,0,0-.36.4,1.053,1.053,0,0,0-.127.514,1.233,1.233,0,0,0,.127.589,1.3,1.3,0,0,0,.374.422,2.855,2.855,0,0,0,.6.334q.352.149.8.325a11.131,11.131,0,0,1,1.072.47,3.678,3.678,0,0,1,.809.545,2.129,2.129,0,0,1,.514.7,2.254,2.254,0,0,1,.18.94,2.217,2.217,0,0,1-.294,1.16,2.523,2.523,0,0,1-.787.817,3.6,3.6,0,0,1-1.134.483,5.6,5.6,0,0,1-1.345.158A5.106,5.106,0,0,1,50.511,18.675ZM60.012,17,58.605,21.32H57.577L58.605,17ZM69,17.7h-.035v5.44H67.526V10h1.441v1.582H69a3.408,3.408,0,0,1,3.111-1.793A3.3,3.3,0,0,1,74.83,11a5.005,5.005,0,0,1,.976,3.239,5.578,5.578,0,0,1-1.1,3.617A3.658,3.658,0,0,1,71.7,19.211,3.011,3.011,0,0,1,69,17.7Zm-.035-3.63v1.257a2.676,2.676,0,0,0,.725,1.894A2.587,2.587,0,0,0,73.586,17a4.6,4.6,0,0,0,.743-2.786,3.629,3.629,0,0,0-.694-2.355A2.3,2.3,0,0,0,71.754,11a2.554,2.554,0,0,0-2.021.875A3.211,3.211,0,0,0,68.968,14.069ZM82.8,11.459a1.763,1.763,0,0,0-1.09-.29,1.839,1.839,0,0,0-1.542.87,4.023,4.023,0,0,0-.62,2.373V19H78.108V10H79.55v1.854h.035a3.143,3.143,0,0,1,.94-1.481,2.144,2.144,0,0,1,1.415-.532,2.353,2.353,0,0,1,.861.123Zm2.3-3.744a.913.913,0,0,1-.659-.264.89.89,0,0,1-.272-.668.923.923,0,0,1,.932-.94.931.931,0,0,1,.672.268.939.939,0,0,1,0,1.332A.923.923,0,0,1,85.1,7.715ZM85.808,19H84.366V10h1.441ZM96.2,19H94.755V13.867Q94.755,11,92.663,11a2.269,2.269,0,0,0-1.789.813,3.013,3.013,0,0,0-.708,2.052V19H88.726V10h1.441v1.494H90.2a3.248,3.248,0,0,1,2.953-1.705,2.753,2.753,0,0,1,2.259.954A4.248,4.248,0,0,1,96.2,13.5Zm8.851-.413a4.684,4.684,0,0,1-2.461.624,4.074,4.074,0,0,1-3.107-1.252A4.539,4.539,0,0,1,98.3,14.711a4.99,4.99,0,0,1,1.274-3.573,4.458,4.458,0,0,1,3.4-1.349,4.735,4.735,0,0,1,2.092.439v1.477a3.665,3.665,0,0,0-2.145-.7,2.9,2.9,0,0,0-2.263.989,3.752,3.752,0,0,0-.883,2.6,3.573,3.573,0,0,0,.831,2.5,2.863,2.863,0,0,0,2.228.914,3.613,3.613,0,0,0,2.215-.782Zm2.918-10.872a.913.913,0,0,1-.659-.264.89.89,0,0,1-.272-.668.923.923,0,0,1,.932-.94.931.931,0,0,1,.672.268.939.939,0,0,1,0,1.332A.923.923,0,0,1,107.965,7.715Zm.7,11.285h-1.441V10h1.441Zm4.395-1.3h-.035v5.44h-1.441V10h1.441v1.582h.035a3.408,3.408,0,0,1,3.111-1.793A3.3,3.3,0,0,1,118.89,11a5.005,5.005,0,0,1,.976,3.239,5.578,5.578,0,0,1-1.1,3.617,3.658,3.658,0,0,1-3.006,1.358A3.011,3.011,0,0,1,113.063,17.7Zm-.035-3.63v1.257a2.676,2.676,0,0,0,.725,1.894A2.587,2.587,0,0,0,117.646,17a4.6,4.6,0,0,0,.743-2.786,3.629,3.629,0,0,0-.694-2.355A2.3,2.3,0,0,0,115.813,11a2.554,2.554,0,0,0-2.021.875A3.211,3.211,0,0,0,113.027,14.069Zm9.879-6.354a.913.913,0,0,1-.659-.264.89.89,0,0,1-.272-.668.923.923,0,0,1,.932-.94.931.931,0,0,1,.672.268.939.939,0,0,1,0,1.332A.923.923,0,0,1,122.906,7.715Zm.7,11.285h-1.441V10h1.441Zm6.68.211A4.175,4.175,0,0,1,127.1,17.95a4.672,4.672,0,0,1-1.191-3.344,4.867,4.867,0,0,1,1.239-3.542A4.455,4.455,0,0,1,130.5,9.789a4.037,4.037,0,0,1,3.142,1.239,4.914,4.914,0,0,1,1.129,3.437,4.835,4.835,0,0,1-1.217,3.45A4.265,4.265,0,0,1,130.289,19.211ZM130.395,11a2.742,2.742,0,0,0-2.2.945,3.88,3.88,0,0,0-.809,2.606,3.67,3.67,0,0,0,.817,2.522,2.778,2.778,0,0,0,2.188.923,2.635,2.635,0,0,0,2.149-.905,3.928,3.928,0,0,0,.751-2.575,4,4,0,0,0-.751-2.6A2.623,2.623,0,0,0,130.395,11Zm6.135,7.673V17.128a4.266,4.266,0,0,0,2.593.87q1.9,0,1.9-1.266a1.1,1.1,0,0,0-.163-.611,1.62,1.62,0,0,0-.439-.444,3.383,3.383,0,0,0-.65-.347q-.374-.154-.8-.321a10.357,10.357,0,0,1-1.05-.479,3.173,3.173,0,0,1-.756-.545,2.028,2.028,0,0,1-.457-.69,2.441,2.441,0,0,1-.154-.905,2.15,2.15,0,0,1,.29-1.121,2.572,2.572,0,0,1,.773-.817,3.607,3.607,0,0,1,1.1-.5,4.893,4.893,0,0,1,1.279-.167,5.164,5.164,0,0,1,2.092.4v1.459A4.077,4.077,0,0,0,139.8,11a2.671,2.671,0,0,0-.729.092,1.786,1.786,0,0,0-.558.259,1.2,1.2,0,0,0-.36.4,1.053,1.053,0,0,0-.127.514,1.233,1.233,0,0,0,.127.589,1.3,1.3,0,0,0,.374.422,2.855,2.855,0,0,0,.6.334q.352.149.8.325a11.131,11.131,0,0,1,1.072.47,3.678,3.678,0,0,1,.809.545,2.129,2.129,0,0,1,.514.7,2.254,2.254,0,0,1,.18.94,2.217,2.217,0,0,1-.294,1.16,2.523,2.523,0,0,1-.787.817,3.6,3.6,0,0,1-1.134.483,5.6,5.6,0,0,1-1.345.158A5.106,5.106,0,0,1,136.529,18.675ZM146.03,17l-1.406,4.324H143.6L144.624,17Zm20.294,2h-1.441V13.832a3.9,3.9,0,0,0-.461-2.162A1.75,1.75,0,0,0,162.87,11a1.921,1.921,0,0,0-1.569.844,3.228,3.228,0,0,0-.646,2.021V19h-1.441V13.656q0-2.654-2.048-2.654a1.9,1.9,0,0,0-1.564.8,3.288,3.288,0,0,0-.615,2.07V19h-1.441V10h1.441v1.424h.035a3.058,3.058,0,0,1,2.795-1.635,2.6,2.6,0,0,1,2.549,1.863,3.212,3.212,0,0,1,2.988-1.863q2.971,0,2.971,3.665Zm6.486.211a4.175,4.175,0,0,1-3.186-1.261,4.672,4.672,0,0,1-1.191-3.344,4.867,4.867,0,0,1,1.239-3.542,4.455,4.455,0,0,1,3.349-1.274,4.037,4.037,0,0,1,3.142,1.239,4.914,4.914,0,0,1,1.129,3.437,4.835,4.835,0,0,1-1.217,3.45A4.265,4.265,0,0,1,172.811,19.211ZM172.916,11a2.742,2.742,0,0,0-2.2.945,3.88,3.88,0,0,0-.809,2.606,3.67,3.67,0,0,0,.817,2.522,2.778,2.778,0,0,0,2.188.923,2.635,2.635,0,0,0,2.149-.905,3.928,3.928,0,0,0,.751-2.575,4,4,0,0,0-.751-2.6A2.623,2.623,0,0,0,172.916,11Zm10.854,7.91a2.779,2.779,0,0,1-1.345.281q-2.364,0-2.364-2.637V11.23h-1.547V10h1.547V7.8l1.441-.466V10h2.268v1.23H181.5V16.3a2.1,2.1,0,0,0,.308,1.292,1.228,1.228,0,0,0,1.02.387,1.515,1.515,0,0,0,.94-.3Zm2.663-11.2a.913.913,0,0,1-.659-.264.89.89,0,0,1-.272-.668.923.923,0,0,1,.932-.94.931.931,0,0,1,.672.268.939.939,0,0,1,0,1.332A.923.923,0,0,1,186.434,7.715Zm.7,11.285H185.7V10h1.441Zm9.993-9-3.586,9h-1.415l-3.41-9H190.3l2.285,6.539A5.869,5.869,0,0,1,192.9,17.8h.035a5.943,5.943,0,0,1,.281-1.222L195.609,10Zm7.989,9h-1.441V17.594h-.035a3.018,3.018,0,0,1-2.769,1.617,2.959,2.959,0,0,1-2.1-.712,2.466,2.466,0,0,1-.76-1.89q0-2.522,2.971-2.936l2.7-.378q0-2.294-1.854-2.294a4.431,4.431,0,0,0-2.936,1.107V10.633a5.577,5.577,0,0,1,3.059-.844q3.173,0,3.173,3.357Zm-1.441-4.553-2.171.3a3.525,3.525,0,0,0-1.512.5,1.432,1.432,0,0,0-.51,1.261,1.374,1.374,0,0,0,.47,1.077,1.817,1.817,0,0,0,1.252.417,2.314,2.314,0,0,0,1.771-.751,2.685,2.685,0,0,0,.7-1.9Zm10.292,4.14a4.684,4.684,0,0,1-2.461.624,4.074,4.074,0,0,1-3.107-1.252,4.539,4.539,0,0,1-1.182-3.248,4.99,4.99,0,0,1,1.274-3.573,4.458,4.458,0,0,1,3.4-1.349,4.735,4.735,0,0,1,2.092.439v1.477a3.665,3.665,0,0,0-2.145-.7,2.9,2.9,0,0,0-2.263.989,3.752,3.752,0,0,0-.883,2.6,3.573,3.573,0,0,0,.831,2.5,2.863,2.863,0,0,0,2.228.914,3.613,3.613,0,0,0,2.215-.782Zm2.918-10.872a.913.913,0,0,1-.659-.264.89.89,0,0,1-.272-.668.923.923,0,0,1,.932-.94.931.931,0,0,1,.672.268.939.939,0,0,1,0,1.332A.923.923,0,0,1,216.888,7.715Zm.7,11.285h-1.441V10h1.441Zm6.68.211a4.175,4.175,0,0,1-3.186-1.261,4.672,4.672,0,0,1-1.191-3.344,4.867,4.867,0,0,1,1.239-3.542,4.455,4.455,0,0,1,3.349-1.274,4.037,4.037,0,0,1,3.142,1.239,4.914,4.914,0,0,1,1.129,3.437,4.835,4.835,0,0,1-1.217,3.45A4.265,4.265,0,0,1,224.271,19.211ZM224.376,11a2.742,2.742,0,0,0-2.2.945,3.88,3.88,0,0,0-.809,2.606,3.67,3.67,0,0,0,.817,2.522,2.778,2.778,0,0,0,2.188.923,2.635,2.635,0,0,0,2.149-.905,3.928,3.928,0,0,0,.751-2.575,4,4,0,0,0-.751-2.6A2.623,2.623,0,0,0,224.376,11Zm14.15,8h-1.441V13.867q0-2.865-2.092-2.865a2.269,2.269,0,0,0-1.789.813,3.013,3.013,0,0,0-.708,2.052V19h-1.441V10H232.5v1.494h.035a3.248,3.248,0,0,1,2.953-1.705,2.753,2.753,0,0,1,2.259.954,4.248,4.248,0,0,1,.782,2.755Zm9.949-4.14h-6.354a3.366,3.366,0,0,0,.809,2.32,2.788,2.788,0,0,0,2.127.817,4.422,4.422,0,0,0,2.795-1V18.35a5.224,5.224,0,0,1-3.138.861,3.8,3.8,0,0,1-3-1.226,5.018,5.018,0,0,1-1.09-3.45,4.921,4.921,0,0,1,1.191-3.423,3.819,3.819,0,0,1,2.958-1.323,3.384,3.384,0,0,1,2.733,1.143,4.764,4.764,0,0,1,.967,3.173ZM247,13.639a2.933,2.933,0,0,0-.6-1.942A2.051,2.051,0,0,0,244.749,11a2.328,2.328,0,0,0-1.731.729,3.31,3.31,0,0,0-.879,1.907Zm3.111,5.036V17.128A4.266,4.266,0,0,0,252.7,18q1.9,0,1.9-1.266a1.1,1.1,0,0,0-.163-.611,1.62,1.62,0,0,0-.439-.444,3.383,3.383,0,0,0-.65-.347q-.374-.154-.8-.321a10.357,10.357,0,0,1-1.05-.479,3.173,3.173,0,0,1-.756-.545,2.028,2.028,0,0,1-.457-.69,2.441,2.441,0,0,1-.154-.905,2.15,2.15,0,0,1,.29-1.121,2.572,2.572,0,0,1,.773-.817,3.607,3.607,0,0,1,1.1-.5,4.893,4.893,0,0,1,1.279-.167,5.164,5.164,0,0,1,2.092.4v1.459A4.077,4.077,0,0,0,253.38,11a2.671,2.671,0,0,0-.729.092,1.786,1.786,0,0,0-.558.259,1.2,1.2,0,0,0-.36.4,1.053,1.053,0,0,0-.127.514,1.233,1.233,0,0,0,.127.589,1.3,1.3,0,0,0,.374.422,2.855,2.855,0,0,0,.6.334q.352.149.8.325a11.131,11.131,0,0,1,1.072.47,3.678,3.678,0,0,1,.809.545,2.129,2.129,0,0,1,.514.7,2.254,2.254,0,0,1,.18.94,2.217,2.217,0,0,1-.294,1.16,2.523,2.523,0,0,1-.787.817,3.6,3.6,0,0,1-1.134.483,5.6,5.6,0,0,1-1.345.158A5.106,5.106,0,0,1,250.11,18.675Zm8.684.519a.933.933,0,0,1-.69-.29.955.955,0,0,1-.286-.694.969.969,0,0,1,.286-.7.926.926,0,0,1,.69-.294.95.95,0,0,1,.7.294.962.962,0,0,1,.29.7.947.947,0,0,1-.29.694A.958.958,0,0,1,258.794,19.193Z" transform="translate(477 5645.5)" fill="#00223d"/>
      <path id="Trazado_20141" data-name="Trazado 20141" d="M10.23,18.473a7.392,7.392,0,0,1-3.48.738,5.613,5.613,0,0,1-4.307-1.731A6.389,6.389,0,0,1,.826,12.936,6.7,6.7,0,0,1,2.646,8.049,6.175,6.175,0,0,1,7.26,6.186,7.4,7.4,0,0,1,10.23,6.7V8.277a6.024,6.024,0,0,0-2.988-.756,4.585,4.585,0,0,0-3.52,1.45,5.463,5.463,0,0,0-1.349,3.876,5.2,5.2,0,0,0,1.261,3.669,4.292,4.292,0,0,0,3.309,1.367,6.208,6.208,0,0,0,3.287-.844ZM14.045,19H12.6V5.676h1.441ZM17.7,7.715a.913.913,0,0,1-.659-.264.89.89,0,0,1-.272-.668.923.923,0,0,1,.932-.94.931.931,0,0,1,.672.268.939.939,0,0,1,0,1.332A.923.923,0,0,1,17.7,7.715ZM18.4,19H16.963V10H18.4Zm10.151-4.14H22.2a3.366,3.366,0,0,0,.809,2.32A2.788,2.788,0,0,0,25.137,18a4.422,4.422,0,0,0,2.795-1V18.35a5.224,5.224,0,0,1-3.138.861,3.8,3.8,0,0,1-3-1.226,5.018,5.018,0,0,1-1.09-3.45A4.921,4.921,0,0,1,21.9,11.112a3.819,3.819,0,0,1,2.958-1.323,3.384,3.384,0,0,1,2.733,1.143,4.764,4.764,0,0,1,.967,3.173Zm-1.477-1.222a2.933,2.933,0,0,0-.6-1.942A2.051,2.051,0,0,0,24.829,11a2.328,2.328,0,0,0-1.731.729,3.31,3.31,0,0,0-.879,1.907ZM38.206,19H36.765V13.867Q36.765,11,34.673,11a2.269,2.269,0,0,0-1.789.813,3.013,3.013,0,0,0-.708,2.052V19H30.735V10h1.441v1.494h.035a3.248,3.248,0,0,1,2.953-1.705,2.753,2.753,0,0,1,2.259.954,4.248,4.248,0,0,1,.782,2.755Zm6.891-.088a2.779,2.779,0,0,1-1.345.281q-2.364,0-2.364-2.637V11.23H39.841V10h1.547V7.8l1.441-.466V10H45.1v1.23H42.829V16.3a2.1,2.1,0,0,0,.308,1.292,1.228,1.228,0,0,0,1.02.387,1.515,1.515,0,0,0,.94-.3Zm9.158-4.052H47.9a3.366,3.366,0,0,0,.809,2.32A2.788,2.788,0,0,0,50.836,18a4.422,4.422,0,0,0,2.795-1V18.35a5.224,5.224,0,0,1-3.138.861,3.8,3.8,0,0,1-3-1.226,5.018,5.018,0,0,1-1.09-3.45A4.921,4.921,0,0,1,47.6,11.112a3.819,3.819,0,0,1,2.958-1.323,3.384,3.384,0,0,1,2.733,1.143,4.764,4.764,0,0,1,.967,3.173Zm-1.477-1.222a2.933,2.933,0,0,0-.6-1.942A2.051,2.051,0,0,0,50.528,11a2.328,2.328,0,0,0-1.731.729,3.31,3.31,0,0,0-.879,1.907Zm3.111,5.036V17.128a4.266,4.266,0,0,0,2.593.87q1.9,0,1.9-1.266a1.1,1.1,0,0,0-.163-.611,1.62,1.62,0,0,0-.439-.444,3.383,3.383,0,0,0-.65-.347q-.374-.154-.8-.321a10.357,10.357,0,0,1-1.05-.479,3.173,3.173,0,0,1-.756-.545,2.028,2.028,0,0,1-.457-.69,2.441,2.441,0,0,1-.154-.905,2.15,2.15,0,0,1,.29-1.121,2.572,2.572,0,0,1,.773-.817,3.607,3.607,0,0,1,1.1-.5,4.893,4.893,0,0,1,1.279-.167,5.164,5.164,0,0,1,2.092.4v1.459A4.077,4.077,0,0,0,59.159,11a2.671,2.671,0,0,0-.729.092,1.786,1.786,0,0,0-.558.259,1.2,1.2,0,0,0-.36.4,1.053,1.053,0,0,0-.127.514,1.233,1.233,0,0,0,.127.589,1.3,1.3,0,0,0,.374.422,2.855,2.855,0,0,0,.6.334q.352.149.8.325a11.131,11.131,0,0,1,1.072.47,3.678,3.678,0,0,1,.809.545,2.129,2.129,0,0,1,.514.7,2.254,2.254,0,0,1,.18.94,2.217,2.217,0,0,1-.294,1.16,2.523,2.523,0,0,1-.787.817,3.6,3.6,0,0,1-1.134.483,5.6,5.6,0,0,1-1.345.158A5.106,5.106,0,0,1,55.89,18.675Zm8.684.519a.933.933,0,0,1-.69-.29.955.955,0,0,1-.286-.694.969.969,0,0,1,.286-.7.926.926,0,0,1,.69-.294.95.95,0,0,1,.7.294.962.962,0,0,1,.29.7.947.947,0,0,1-.29.694A.958.958,0,0,1,64.573,19.193Z" transform="translate(644 5836.5)" fill="#00223d"/>
    </g>
  </g>
</svg>
