<svg xmlns="http://www.w3.org/2000/svg" width="626" height="797.979" viewBox="0 0 626 797.979">
  <g id="Grupo_20909" data-name="Grupo 20909" transform="translate(-310 -11889.999)">
    <g id="Grupo_20908" data-name="Grupo 20908" transform="translate(-1214.673 11794.816)">
      <path id="Trazado_18282" data-name="Trazado 18282" d="M1658.662,783.71l-66.995-19.479-66.995,19.479,66.995,19.9Z" fill="#ad1457"/>
      <path id="Trazado_18283" data-name="Trazado 18283" d="M1658.662,783.71l-66.995-19.479-66.995,19.479,66.995,19.9Z" fill="#9c27b0" opacity="0.52" style="mix-blend-mode: multiply;isolation: isolate"/>
      <path id="Trazado_18284" data-name="Trazado 18284" d="M1658.662,267.99l-66.995-19.479-66.995,19.479,66.995,19.9Z" fill="#ffb300"/>
      <path id="Trazado_18285" data-name="Trazado 18285" d="M1658.662,396.92l-66.995-19.479-66.995,19.479,66.995,19.9Z" fill="#00acc1"/>
      <path id="Trazado_18286" data-name="Trazado 18286" d="M1658.662,525.85l-66.995-19.479-66.995,19.479,66.995,19.9Z" fill="#546e7a"/>
      <path id="Trazado_18287" data-name="Trazado 18287" d="M1658.662,654.78,1591.668,635.3l-66.995,19.479,66.995,19.9Z" fill="#ff7043"/>
      <path id="Trazado_18288" data-name="Trazado 18288" d="M1658.662,139.06l-66.995-19.479-66.995,19.479,66.995,19.9Z" fill="#7cb342"/>
      <path id="Trazado_18289" data-name="Trazado 18289" d="M1658.662,267.99l-66.995-19.479-66.995,19.479,66.995,19.9Z" fill="#ffb300" opacity="0.52" style="mix-blend-mode: multiply;isolation: isolate"/>
      <path id="Trazado_18290" data-name="Trazado 18290" d="M1658.662,396.92l-66.995-19.479-66.995,19.479,66.995,19.9Z" fill="#00acc1" opacity="0.52" style="mix-blend-mode: multiply;isolation: isolate"/>
      <path id="Trazado_18291" data-name="Trazado 18291" d="M1658.662,525.85l-66.995-19.479-66.995,19.479,66.995,19.9Z" fill="#546e7a" opacity="0.52" style="mix-blend-mode: multiply;isolation: isolate"/>
      <path id="Trazado_18292" data-name="Trazado 18292" d="M1658.662,654.78,1591.668,635.3l-66.995,19.479,66.995,19.9Z" fill="#ff7043" opacity="0.52" style="mix-blend-mode: multiply;isolation: isolate"/>
      <path id="Trazado_18293" data-name="Trazado 18293" d="M1658.662,139.06l-66.995-19.479-66.995,19.479,66.995,19.9Z" fill="#7cb342" opacity="0.52" style="mix-blend-mode: multiply;isolation: isolate"/>
      <g id="Grupo_20895" data-name="Grupo 20895">
        <path id="Trazado_18294" data-name="Trazado 18294" d="M1551.222,107.426l40.446-12.243,40.445,12.243V810.778h-80.891Z" fill="#cfd8dc"/>
        <path id="Trazado_18295" data-name="Trazado 18295" d="M1591.668,810.778h-40.446V107.426l40.446-12.243Z" fill="#fff" opacity="0.28" style="mix-blend-mode: overlay;isolation: isolate"/>
      </g>
      <g id="Grupo_20896" data-name="Grupo 20896">
        <path id="Trazado_18296" data-name="Trazado 18296" d="M1524.673,228.611l66.995,19.9,66.995-19.9V139.06l-66.995,19.9-66.995-19.9Z" fill="#7cb342"/>
        <path id="Trazado_18297" data-name="Trazado 18297" d="M1591.668,158.96v89.551l-66.995-19.9V139.06Z" fill="#fff" opacity="0.28" style="mix-blend-mode: overlay;isolation: isolate"/>
      </g>
      <g id="Grupo_20897" data-name="Grupo 20897">
        <path id="Trazado_18298" data-name="Trazado 18298" d="M1546.452,207.386a14.251,14.251,0,0,1-8.424-6.81q-2.952-5.138-2.953-13.448t2.931-11.637q2.928-3.328,8.446-1.641a14.206,14.206,0,0,1,8.413,6.807q2.942,5.135,2.942,13.421t-2.953,11.63Q1551.9,209.053,1546.452,207.386Zm0-4.784a3.576,3.576,0,0,0,4.5-1.6q1.569-2.5,1.569-8.54a23.034,23.034,0,0,0-1.591-9.494,7.383,7.383,0,0,0-4.476-4.31,3.593,3.593,0,0,0-4.487,1.558q-1.578,2.448-1.579,8.537Q1540.386,200.747,1546.452,202.6Z" fill="#fff"/>
        <path id="Trazado_18299" data-name="Trazado 18299" d="M1573.3,182.517l4.99,1.526v32.644l-5.265-1.61v-27.1l-7.669,4.546v-5.495Z" fill="#fff"/>
      </g>
      <g id="Grupo_20898" data-name="Grupo 20898">
        <path id="Trazado_18300" data-name="Trazado 18300" d="M1524.673,357.541l66.995,19.9,66.995-19.9V267.99l-66.995,19.9-66.995-19.9Z" fill="#ffb300"/>
        <path id="Trazado_18301" data-name="Trazado 18301" d="M1591.668,287.89v89.551l-66.995-19.9V267.99Z" fill="#fff" opacity="0.28" style="mix-blend-mode: overlay;isolation: isolate"/>
      </g>
      <g id="Grupo_20899" data-name="Grupo 20899">
        <path id="Trazado_18302" data-name="Trazado 18302" d="M1543.305,335.354a14.249,14.249,0,0,1-8.425-6.811q-2.953-5.137-2.953-13.448t2.93-11.637q2.931-3.328,8.448-1.641a14.21,14.21,0,0,1,8.412,6.807q2.941,5.135,2.941,13.421t-2.952,11.63Q1548.753,337.02,1543.305,335.354Zm0-4.785a3.575,3.575,0,0,0,4.5-1.6q1.569-2.5,1.568-8.54,0-6.066-1.591-9.494a7.373,7.373,0,0,0-4.474-4.309,3.593,3.593,0,0,0-4.488,1.557q-1.578,2.448-1.579,8.537Q1537.238,328.715,1543.305,330.569Z" fill="#fff"/>
        <path id="Trazado_18303" data-name="Trazado 18303" d="M1566.631,337.289l15.062,4.605v4.762l-22.525-6.887v-3.983l13.049-9.4q3.273-2.364,3.273-5.409a6.364,6.364,0,0,0-1.4-4.1,7.5,7.5,0,0,0-3.777-2.472,4.41,4.41,0,0,0-3.937.25q-1.443,1.014-1.443,4.195v2.4l-5.242-2.106v-1.831q0-5.082,2.862-6.932t7.737-.358a15.65,15.65,0,0,1,7.485,4.784,11.528,11.528,0,0,1,2.908,7.733,8.1,8.1,0,0,1-1.076,4.273,12.567,12.567,0,0,1-3.388,3.474Z" fill="#fff"/>
      </g>
      <g id="Grupo_20900" data-name="Grupo 20900">
        <path id="Trazado_18304" data-name="Trazado 18304" d="M1524.673,486.471l66.995,19.9,66.995-19.9V396.92l-66.995,19.9-66.995-19.9Z" fill="#00acc1"/>
        <path id="Trazado_18305" data-name="Trazado 18305" d="M1591.668,416.82v89.551l-66.995-19.9V396.92Z" fill="#fff" opacity="0.28" style="mix-blend-mode: overlay;isolation: isolate"/>
      </g>
      <g id="Grupo_20901" data-name="Grupo 20901">
        <path id="Trazado_18306" data-name="Trazado 18306" d="M1543.2,464.252a14.252,14.252,0,0,1-8.425-6.811q-2.952-5.136-2.953-13.447t2.931-11.638q2.928-3.327,8.447-1.64a14.205,14.205,0,0,1,8.412,6.806q2.941,5.135,2.942,13.421t-2.953,11.631Q1548.651,465.918,1543.2,464.252Zm0-4.784a3.577,3.577,0,0,0,4.5-1.6q1.569-2.5,1.569-8.54a23.034,23.034,0,0,0-1.591-9.494,7.383,7.383,0,0,0-4.475-4.311,3.594,3.594,0,0,0-4.487,1.559q-1.579,2.448-1.58,8.536Q1537.135,457.613,1543.2,459.468Z" fill="#fff"/>
        <path id="Trazado_18307" data-name="Trazado 18307" d="M1570.236,472.518q-5.79-1.771-8.548-5.58a16.175,16.175,0,0,1-2.759-9.736l5.4,1.4a18.547,18.547,0,0,0,.252,3.281,8.511,8.511,0,0,0,.9,2.577,6.038,6.038,0,0,0,1.821,2.033,10,10,0,0,0,2.928,1.376q2.817.861,4.453-.183a3.853,3.853,0,0,0,1.637-3.518,6.993,6.993,0,0,0-1.568-4.542,8.173,8.173,0,0,0-4.064-2.7l-1.441-.441v-4.235l1.373.42a3.184,3.184,0,0,0,4.418-3.3,5.3,5.3,0,0,0-1.373-3.557,7.417,7.417,0,0,0-3.525-2.245,5.236,5.236,0,0,0-2.359-.263,2.1,2.1,0,0,0-1.453.883,4.647,4.647,0,0,0-.7,1.653,10.483,10.483,0,0,0-.206,2.238l-5.357-1.867q0-5.013,2.633-6.875t7.394-.408a14.751,14.751,0,0,1,7.073,4.613,10.576,10.576,0,0,1,2.815,6.927,5.509,5.509,0,0,1-1.281,3.843,4.784,4.784,0,0,1-3.067,1.626,13.141,13.141,0,0,1,4.338,4.142,10.545,10.545,0,0,1,1.728,5.954q0,4.51-3.182,6.272T1570.236,472.518Z" fill="#fff"/>
      </g>
      <g id="Grupo_20902" data-name="Grupo 20902">
        <path id="Trazado_18308" data-name="Trazado 18308" d="M1524.673,615.4l66.995,19.9,66.995-19.9V525.85l-66.995,19.9-66.995-19.9Z" fill="#546e7a"/>
        <path id="Trazado_18309" data-name="Trazado 18309" d="M1591.668,545.75V635.3l-66.995-19.9V525.85Z" fill="#fff" opacity="0.28" style="mix-blend-mode: overlay;isolation: isolate"/>
      </g>
      <g id="Grupo_20903" data-name="Grupo 20903">
        <path id="Trazado_18310" data-name="Trazado 18310" d="M1543.305,593.213a14.248,14.248,0,0,1-8.425-6.811q-2.953-5.136-2.953-13.447t2.93-11.638q2.931-3.327,8.448-1.64a14.212,14.212,0,0,1,8.412,6.806q2.941,5.135,2.941,13.421t-2.952,11.631Q1548.753,594.88,1543.305,593.213Zm0-4.784a3.577,3.577,0,0,0,4.5-1.6q1.569-2.5,1.568-8.54,0-6.066-1.591-9.494a7.379,7.379,0,0,0-4.474-4.311,3.6,3.6,0,0,0-4.488,1.559q-1.578,2.448-1.579,8.537Q1537.238,586.573,1543.305,588.429Z" fill="#fff"/>
        <path id="Trazado_18311" data-name="Trazado 18311" d="M1583,593.788v4.738l-4.486-1.371v6.387l-5.265-1.609v-6.387l-15.338-4.69v-4.761l12.568-17.653,8.035,2.456v21.519Zm-19.961-6.1,10.21,3.121v-18.13Z" fill="#fff"/>
      </g>
      <g id="Grupo_20904" data-name="Grupo 20904">
        <path id="Trazado_18312" data-name="Trazado 18312" d="M1524.673,744.331l66.995,19.9,66.995-19.9V654.78l-66.995,19.9-66.995-19.9Z" fill="#ff7043"/>
        <path id="Trazado_18313" data-name="Trazado 18313" d="M1591.668,674.68v89.551l-66.995-19.9V654.78Z" fill="#fff" opacity="0.28" style="mix-blend-mode: overlay;isolation: isolate"/>
      </g>
      <g id="Grupo_20905" data-name="Grupo 20905">
        <path id="Trazado_18314" data-name="Trazado 18314" d="M1524.673,873.261l66.995,19.9,66.995-19.9V783.71l-66.995,19.9-66.995-19.9Z" fill="#ab47bc"/>
        <path id="Trazado_18315" data-name="Trazado 18315" d="M1591.668,803.61v89.551l-66.995-19.9V783.71Z" fill="#ab47bc" opacity="0.28" style="mix-blend-mode: overlay;isolation: isolate"/>
      </g>
      <g id="Grupo_20906" data-name="Grupo 20906">
        <path id="Trazado_18316" data-name="Trazado 18316" d="M1543.305,722.143a14.252,14.252,0,0,1-8.425-6.811q-2.953-5.137-2.953-13.447t2.93-11.638q2.931-3.328,8.448-1.641a14.213,14.213,0,0,1,8.412,6.807q2.941,5.134,2.941,13.421t-2.952,11.631Q1548.753,723.808,1543.305,722.143Zm0-4.785a3.576,3.576,0,0,0,4.5-1.6q1.569-2.5,1.568-8.54,0-6.066-1.591-9.494a7.376,7.376,0,0,0-4.474-4.311,3.593,3.593,0,0,0-4.488,1.559q-1.578,2.448-1.579,8.537Q1537.238,715.5,1543.305,717.358Z" fill="#fff"/>
        <path id="Trazado_18317" data-name="Trazado 18317" d="M1569.767,708.691q6.135,1.877,9.18,5.5a12.952,12.952,0,0,1,3.044,8.612q0,5.013-3.1,7.143t-8.139.591a17.571,17.571,0,0,1-5.585-2.864,15.211,15.211,0,0,1-4.1-4.777,12.292,12.292,0,0,1-1.58-6.035,13.692,13.692,0,0,1,.116-1.613l5.288,1.3a11.107,11.107,0,0,0-.161,1.6,6.954,6.954,0,0,0,1.728,4.786,9.006,9.006,0,0,0,4.179,2.7q2.816.861,4.428-.328a4.565,4.565,0,0,0,1.615-3.937q0-6.066-7.669-8.411l-8.4-2.568,1.7-15.483,18.2,5.564v4.762l-13.6-4.159-.709,6.537Z" fill="#fff"/>
      </g>
      <g id="Grupo_20907" data-name="Grupo 20907">
        <path id="Trazado_18318" data-name="Trazado 18318" d="M1543.305,855.477a14.252,14.252,0,0,1-8.425-6.811q-2.953-5.137-2.953-13.447t2.93-11.638q2.931-3.328,8.448-1.641a14.213,14.213,0,0,1,8.412,6.807q2.941,5.134,2.941,13.421t-2.952,11.631Q1548.753,857.143,1543.305,855.477Zm0-4.785a3.576,3.576,0,0,0,4.5-1.6q1.569-2.5,1.568-8.54,0-6.066-1.591-9.494a7.377,7.377,0,0,0-4.474-4.311,3.593,3.593,0,0,0-4.488,1.559q-1.578,2.448-1.579,8.537Q1537.238,848.837,1543.305,850.692Z" fill="#fff"/>
        <path id="Trazado_18319" data-name="Trazado 18319" d="M1582.129,855.992a8.616,8.616,0,0,1-1.579,5.4,7.108,7.108,0,0,1-4.27,2.711,11.346,11.346,0,0,1-5.826-.373,16.8,16.8,0,0,1-8.333-5.707,14.152,14.152,0,0,1-3.364-9.041,9.936,9.936,0,0,1,2.861-7.022l10.553-10.737,6.066,1.854-8.745,8.521a11.243,11.243,0,0,1,2.13.445,13.756,13.756,0,0,1,3.926,1.955,16.617,16.617,0,0,1,3.342,3.128,14.934,14.934,0,0,1,2.335,4.113A13.645,13.645,0,0,1,1582.129,855.992Zm-11.812,2.89a5.489,5.489,0,0,0,4.807-.35,4.651,4.651,0,0,0,1.855-4.228,8.77,8.77,0,0,0-1.877-5.428,9.367,9.367,0,0,0-4.785-3.294,5.109,5.109,0,0,0-4.739.485,4.909,4.909,0,0,0-1.854,4.229,8.477,8.477,0,0,0,1.809,5.35A9.355,9.355,0,0,0,1570.317,858.882Z" fill="#fff"/>
      </g>
    </g>
    <rect id="Rectángulo_3557" data-name="Rectángulo 3557" width="360" height="91" transform="translate(576 11930)" fill="#eef0f2"/>
    <rect id="Rectángulo_3559" data-name="Rectángulo 3559" width="360" height="91" transform="translate(576 12060)" fill="#eef0f2"/>
    <rect id="Rectángulo_3561" data-name="Rectángulo 3561" width="360" height="91" transform="translate(576 12190)" fill="#eef0f2"/>
    <rect id="Rectángulo_3563" data-name="Rectángulo 3563" width="360" height="91" transform="translate(576 12320)" fill="#eef0f2"/>
    <rect id="Rectángulo_3565" data-name="Rectángulo 3565" width="360" height="91" transform="translate(576 12450)" fill="#eef0f2"/>
    <rect id="Rectángulo_3567" data-name="Rectángulo 3567" width="360" height="91" transform="translate(576 12580)" fill="#eef0f2"/>
    <path id="Trazado_20165" data-name="Trazado 20165" d="M77.441,22.244a6.519,6.519,0,0,1-4.9-1.958,7.029,7.029,0,0,1-1.895-5.1,7.532,7.532,0,0,1,1.924-5.371,6.661,6.661,0,0,1,5.1-2.051,6.356,6.356,0,0,1,4.849,1.963A7.237,7.237,0,0,1,84.365,14.9a7.412,7.412,0,0,1-1.919,5.322A6.586,6.586,0,0,1,77.441,22.244Zm.137-11.768a3.175,3.175,0,0,0-2.637,1.245,5.191,5.191,0,0,0-.977,3.3,5.1,5.1,0,0,0,.977,3.291,3.37,3.37,0,0,0,5.146.034,5.04,5.04,0,0,0,.957-3.267,5.461,5.461,0,0,0-.928-3.389A3.025,3.025,0,0,0,77.578,10.477ZM89.512,20.838h-.039V22H86.387V7.2h3.086V13.5h.039a3.662,3.662,0,0,1,3.252-1.748,3.568,3.568,0,0,1,2.979,1.328,5.727,5.727,0,0,1,1.045,3.633,6.2,6.2,0,0,1-1.221,4.014A3.976,3.976,0,0,1,92.3,22.244,3.151,3.151,0,0,1,89.512,20.838Zm-.088-4.219v1.025a2.341,2.341,0,0,0,.557,1.6,1.811,1.811,0,0,0,1.426.635,1.892,1.892,0,0,0,1.636-.815,3.937,3.937,0,0,0,.581-2.31,3.132,3.132,0,0,0-.532-1.938,1.8,1.8,0,0,0-1.519-.7,1.962,1.962,0,0,0-1.538.693A2.634,2.634,0,0,0,89.424,16.619Zm10.928-6.2a1.8,1.8,0,0,1-1.279-.464,1.5,1.5,0,0,1-.5-1.138,1.441,1.441,0,0,1,.5-1.133,2.089,2.089,0,0,1,2.563,0,1.448,1.448,0,0,1,.493,1.133,1.489,1.489,0,0,1-.493,1.152A1.833,1.833,0,0,1,100.352,10.418Zm1.523,11.406a5.436,5.436,0,0,1-1.084,3.545A3.8,3.8,0,0,1,97.666,26.7a4.321,4.321,0,0,1-1.475-.293V23.982a2.4,2.4,0,0,0,1.143.361q1.455,0,1.455-2.285V12h3.086Zm11.582-3.945h-6.523q.156,2.178,2.744,2.178a5.357,5.357,0,0,0,2.9-.781V21.5a7.619,7.619,0,0,1-3.6.742,5.073,5.073,0,0,1-3.76-1.343,5.073,5.073,0,0,1-1.338-3.745,5.352,5.352,0,0,1,1.445-3.945,4.815,4.815,0,0,1,3.555-1.455,4.37,4.37,0,0,1,3.384,1.3,5,5,0,0,1,1.2,3.525ZM110.6,15.984q0-2.148-1.738-2.148a1.66,1.66,0,0,0-1.284.615,2.792,2.792,0,0,0-.659,1.533Zm10.742,5.9a4.561,4.561,0,0,1-2.061.361q-3.262,0-3.262-3.389v-4.58h-1.621V12h1.621V9.842l3.076-.879V12h2.246v2.275h-2.246v4.043q0,1.562,1.24,1.563a2.091,2.091,0,0,0,1.006-.283Zm3.3-11.465a1.8,1.8,0,0,1-1.279-.464,1.5,1.5,0,0,1-.5-1.138,1.441,1.441,0,0,1,.5-1.133,2.089,2.089,0,0,1,2.563,0,1.448,1.448,0,0,1,.493,1.133,1.489,1.489,0,0,1-.493,1.152A1.833,1.833,0,0,1,124.639,10.418ZM126.162,22h-3.086V12h3.086Zm12.119-10-3.721,10h-3.516L127.5,12h3.3l1.738,6.162a9,9,0,0,1,.342,1.777h.039a10.087,10.087,0,0,1,.361-1.719L135.059,12Zm5.889,10.244a5.376,5.376,0,0,1-3.931-1.4,5.081,5.081,0,0,1-1.431-3.8,5.081,5.081,0,0,1,1.484-3.882,5.609,5.609,0,0,1,4.014-1.4,5.311,5.311,0,0,1,3.906,1.4,4.981,4.981,0,0,1,1.416,3.706,5.288,5.288,0,0,1-1.46,3.936A5.435,5.435,0,0,1,144.17,22.244Zm.078-8.125a2.058,2.058,0,0,0-1.7.752A3.316,3.316,0,0,0,141.943,17q0,2.881,2.324,2.881,2.217,0,2.217-2.959Q146.484,14.119,144.248,14.119Zm6.729,7.617v-2.5a6.57,6.57,0,0,0,1.519.684,5.035,5.035,0,0,0,1.431.225,3.068,3.068,0,0,0,1.294-.225.726.726,0,0,0,.474-.684.632.632,0,0,0-.215-.488,2,2,0,0,0-.552-.342,6.262,6.262,0,0,0-.737-.264q-.4-.117-.771-.264a7.392,7.392,0,0,1-1.05-.483,3.034,3.034,0,0,1-.762-.6,2.361,2.361,0,0,1-.469-.791,3.157,3.157,0,0,1-.161-1.064,2.74,2.74,0,0,1,.366-1.445,2.991,2.991,0,0,1,.977-.991,4.462,4.462,0,0,1,1.4-.566,7.281,7.281,0,0,1,1.636-.181,9.076,9.076,0,0,1,1.348.1,10.058,10.058,0,0,1,1.348.3v2.383a4.87,4.87,0,0,0-1.255-.513,5.294,5.294,0,0,0-1.313-.171,2.91,2.91,0,0,0-.571.054,1.882,1.882,0,0,0-.474.156.87.87,0,0,0-.322.264.607.607,0,0,0-.117.366.677.677,0,0,0,.176.469,1.527,1.527,0,0,0,.459.337,4.531,4.531,0,0,0,.63.254q.347.112.688.229a8.951,8.951,0,0,1,1.113.469,3.559,3.559,0,0,1,.854.6,2.339,2.339,0,0,1,.547.8,3.2,3.2,0,0,1-.2,2.612,3.088,3.088,0,0,1-1.025,1.025,4.65,4.65,0,0,1-1.475.576,8.175,8.175,0,0,1-1.733.181A8.936,8.936,0,0,1,150.977,21.736ZM175.732,22h-3.086V20.623h-.039a3.46,3.46,0,0,1-3.1,1.621,3.791,3.791,0,0,1-3.018-1.323,5.478,5.478,0,0,1-1.143-3.7,5.962,5.962,0,0,1,1.26-3.975,4.109,4.109,0,0,1,3.3-1.494,2.808,2.808,0,0,1,2.7,1.387h.039V7.2h3.086Zm-3.027-4.863v-.752a2.366,2.366,0,0,0-.566-1.621,2,2,0,0,0-3.076.161,3.741,3.741,0,0,0-.576,2.212,3.237,3.237,0,0,0,.557,2.031,1.976,1.976,0,0,0,3.071-.039A3.134,3.134,0,0,0,172.705,17.137Zm14.609.742h-6.523q.156,2.178,2.744,2.178a5.357,5.357,0,0,0,2.9-.781V21.5a7.62,7.62,0,0,1-3.6.742,5.073,5.073,0,0,1-3.76-1.343,5.073,5.073,0,0,1-1.338-3.745,5.351,5.351,0,0,1,1.445-3.945,4.815,4.815,0,0,1,3.555-1.455,4.37,4.37,0,0,1,3.384,1.3,5,5,0,0,1,1.2,3.525Zm-2.861-1.895q0-2.148-1.738-2.148a1.66,1.66,0,0,0-1.284.615,2.792,2.792,0,0,0-.659,1.533ZM210.547,22h-3.076V16.3q0-2.178-1.6-2.178a1.471,1.471,0,0,0-1.24.654,2.689,2.689,0,0,0-.479,1.631V22h-3.086V16.238q0-2.119-1.572-2.119a1.507,1.507,0,0,0-1.265.625,2.75,2.75,0,0,0-.474,1.7V22h-3.086V12h3.086v1.563h.039a3.789,3.789,0,0,1,3.232-1.807,2.88,2.88,0,0,1,2.9,1.865,3.7,3.7,0,0,1,3.359-1.865q3.262,0,3.262,4.023Zm10.762,0h-2.92V20.564h-.039a3.259,3.259,0,0,1-2.979,1.68,3.116,3.116,0,0,1-2.29-.825,2.957,2.957,0,0,1-.835-2.2q0-2.91,3.447-3.359l2.715-.361q0-1.641-1.777-1.641a6.067,6.067,0,0,0-3.4,1.064V12.6A7.646,7.646,0,0,1,215,12.01a9.266,9.266,0,0,1,2.036-.254q4.277,0,4.277,4.268Zm-2.9-4.062v-.674l-1.816.234q-1.5.2-1.5,1.357a1.122,1.122,0,0,0,.366.864,1.407,1.407,0,0,0,.991.337,1.827,1.827,0,0,0,1.416-.6A2.169,2.169,0,0,0,218.408,17.938Zm11.865-3.154a2.677,2.677,0,0,0-1.3-.3,1.871,1.871,0,0,0-1.572.737,3.216,3.216,0,0,0-.566,2.007V22H223.75V12h3.086v1.855h.039a2.67,2.67,0,0,1,2.637-2.031,1.987,1.987,0,0,1,.762.117ZM241.729,22h-3.7l-3.193-4.961h-.039V22h-3.086V7.2h3.086v9.424h.039L237.813,12h3.662l-3.584,4.7Zm9.863-4.121h-6.523q.156,2.178,2.744,2.178a5.357,5.357,0,0,0,2.9-.781V21.5a7.62,7.62,0,0,1-3.6.742,5.073,5.073,0,0,1-3.76-1.343,5.073,5.073,0,0,1-1.338-3.745,5.351,5.351,0,0,1,1.445-3.945,4.815,4.815,0,0,1,3.555-1.455,4.37,4.37,0,0,1,3.384,1.3,5,5,0,0,1,1.2,3.525Zm-2.861-1.895q0-2.148-1.738-2.148a1.66,1.66,0,0,0-1.284.615,2.792,2.792,0,0,0-.659,1.533Zm10.742,5.9a4.561,4.561,0,0,1-2.061.361q-3.262,0-3.262-3.389v-4.58h-1.621V12h1.621V9.842l3.076-.879V12h2.246v2.275h-2.246v4.043q0,1.562,1.24,1.563a2.091,2.091,0,0,0,1.006-.283Zm3.3-11.465a1.8,1.8,0,0,1-1.279-.464,1.5,1.5,0,0,1-.5-1.138,1.441,1.441,0,0,1,.5-1.133,2.089,2.089,0,0,1,2.563,0,1.448,1.448,0,0,1,.493,1.133,1.489,1.489,0,0,1-.493,1.152A1.833,1.833,0,0,1,262.773,10.418ZM264.3,22h-3.086V12H264.3Zm12.256,0h-3.076V16.443q0-2.324-1.66-2.324a1.647,1.647,0,0,0-1.318.615,2.344,2.344,0,0,0-.518,1.563V22h-3.086V12h3.086v1.582h.039a3.536,3.536,0,0,1,3.213-1.826q3.32,0,3.32,4.121ZM288.8,20.857a5.658,5.658,0,0,1-1.611,4.312A6.53,6.53,0,0,1,282.52,26.7a7.4,7.4,0,0,1-3.2-.576v-2.6a6.134,6.134,0,0,0,3.115.9,3.355,3.355,0,0,0,2.422-.825,2.961,2.961,0,0,0,.859-2.241v-.791h-.039a3.446,3.446,0,0,1-3.115,1.68,3.747,3.747,0,0,1-3.037-1.348,5.465,5.465,0,0,1-1.123-3.613,6.087,6.087,0,0,1,1.25-4.033,4.081,4.081,0,0,1,3.291-1.494,3.037,3.037,0,0,1,2.734,1.406h.039V12H288.8ZM285.752,17.2V16.4a2.431,2.431,0,0,0-.562-1.616,1.816,1.816,0,0,0-1.46-.669,1.888,1.888,0,0,0-1.611.8,3.766,3.766,0,0,0-.586,2.256,3.178,3.178,0,0,0,.557,1.978,1.814,1.814,0,0,0,1.523.728,1.888,1.888,0,0,0,1.548-.737A3.023,3.023,0,0,0,285.752,17.2Z" transform="translate(576 11961.5)" fill="#002b45"/>
    <path id="Trazado_20166" data-name="Trazado 20166" d="M95.342,22.244a6.519,6.519,0,0,1-4.9-1.958,7.029,7.029,0,0,1-1.895-5.1,7.532,7.532,0,0,1,1.924-5.371,6.661,6.661,0,0,1,5.1-2.051,6.356,6.356,0,0,1,4.849,1.963,7.237,7.237,0,0,1,1.851,5.176,7.412,7.412,0,0,1-1.919,5.322A6.586,6.586,0,0,1,95.342,22.244Zm.137-11.768a3.175,3.175,0,0,0-2.637,1.245,5.191,5.191,0,0,0-.977,3.3,5.1,5.1,0,0,0,.977,3.291,3.37,3.37,0,0,0,5.146.034,5.04,5.04,0,0,0,.957-3.267,5.461,5.461,0,0,0-.928-3.389A3.025,3.025,0,0,0,95.479,10.477Zm11.934,10.361h-.039V22h-3.086V7.2h3.086V13.5h.039a3.662,3.662,0,0,1,3.252-1.748,3.568,3.568,0,0,1,2.979,1.328,5.727,5.727,0,0,1,1.045,3.633,6.2,6.2,0,0,1-1.221,4.014,3.976,3.976,0,0,1-3.262,1.514A3.151,3.151,0,0,1,107.412,20.838Zm-.088-4.219v1.025a2.341,2.341,0,0,0,.557,1.6,1.811,1.811,0,0,0,1.426.635,1.892,1.892,0,0,0,1.636-.815,3.937,3.937,0,0,0,.581-2.31,3.132,3.132,0,0,0-.532-1.938,1.8,1.8,0,0,0-1.519-.7,1.962,1.962,0,0,0-1.538.693A2.634,2.634,0,0,0,107.324,16.619Zm10.928-6.2a1.8,1.8,0,0,1-1.279-.464,1.5,1.5,0,0,1-.5-1.138,1.441,1.441,0,0,1,.5-1.133,2.089,2.089,0,0,1,2.563,0,1.448,1.448,0,0,1,.493,1.133,1.489,1.489,0,0,1-.493,1.152A1.833,1.833,0,0,1,118.252,10.418Zm1.523,11.406a5.436,5.436,0,0,1-1.084,3.545,3.8,3.8,0,0,1-3.125,1.328,4.321,4.321,0,0,1-1.475-.293V23.982a2.4,2.4,0,0,0,1.143.361q1.455,0,1.455-2.285V12h3.086Zm11.582-3.945h-6.523q.156,2.178,2.744,2.178a5.357,5.357,0,0,0,2.9-.781V21.5a7.62,7.62,0,0,1-3.6.742,5.073,5.073,0,0,1-3.76-1.343,5.073,5.073,0,0,1-1.338-3.745,5.352,5.352,0,0,1,1.445-3.945,4.815,4.815,0,0,1,3.555-1.455,4.37,4.37,0,0,1,3.384,1.3,5,5,0,0,1,1.2,3.525ZM128.5,15.984q0-2.148-1.738-2.148a1.66,1.66,0,0,0-1.284.615,2.792,2.792,0,0,0-.659,1.533Zm10.742,5.9a4.561,4.561,0,0,1-2.061.361q-3.262,0-3.262-3.389v-4.58h-1.621V12h1.621V9.842l3.076-.879V12h2.246v2.275h-2.246v4.043q0,1.562,1.24,1.563a2.091,2.091,0,0,0,1.006-.283Zm3.3-11.465a1.8,1.8,0,0,1-1.279-.464,1.5,1.5,0,0,1-.5-1.138,1.441,1.441,0,0,1,.5-1.133,2.089,2.089,0,0,1,2.563,0,1.448,1.448,0,0,1,.493,1.133,1.489,1.489,0,0,1-.493,1.152A1.833,1.833,0,0,1,142.539,10.418ZM144.063,22h-3.086V12h3.086Zm12.119-10-3.721,10h-3.516L145.4,12h3.3l1.738,6.162a9,9,0,0,1,.342,1.777h.039a10.087,10.087,0,0,1,.361-1.719L152.959,12Zm5.889,10.244a5.376,5.376,0,0,1-3.931-1.4,5.081,5.081,0,0,1-1.431-3.8,5.081,5.081,0,0,1,1.484-3.882,5.609,5.609,0,0,1,4.014-1.4,5.311,5.311,0,0,1,3.906,1.4,4.981,4.981,0,0,1,1.416,3.706,5.288,5.288,0,0,1-1.46,3.936A5.435,5.435,0,0,1,162.07,22.244Zm.078-8.125a2.058,2.058,0,0,0-1.7.752A3.316,3.316,0,0,0,159.844,17q0,2.881,2.324,2.881,2.217,0,2.217-2.959Q164.385,14.119,162.148,14.119Zm6.729,7.617v-2.5a6.57,6.57,0,0,0,1.519.684,5.035,5.035,0,0,0,1.431.225,3.068,3.068,0,0,0,1.294-.225.726.726,0,0,0,.474-.684.632.632,0,0,0-.215-.488,2,2,0,0,0-.552-.342,6.262,6.262,0,0,0-.737-.264q-.4-.117-.771-.264a7.392,7.392,0,0,1-1.05-.483,3.034,3.034,0,0,1-.762-.6,2.361,2.361,0,0,1-.469-.791,3.157,3.157,0,0,1-.161-1.064,2.74,2.74,0,0,1,.366-1.445,2.991,2.991,0,0,1,.977-.991,4.462,4.462,0,0,1,1.4-.566,7.281,7.281,0,0,1,1.636-.181,9.076,9.076,0,0,1,1.348.1,10.058,10.058,0,0,1,1.348.3v2.383a4.87,4.87,0,0,0-1.255-.513,5.294,5.294,0,0,0-1.313-.171,2.91,2.91,0,0,0-.571.054,1.882,1.882,0,0,0-.474.156.87.87,0,0,0-.322.264.607.607,0,0,0-.117.366.677.677,0,0,0,.176.469,1.527,1.527,0,0,0,.459.337,4.531,4.531,0,0,0,.63.254q.347.112.688.229a8.951,8.951,0,0,1,1.113.469,3.559,3.559,0,0,1,.854.6,2.339,2.339,0,0,1,.547.8,3.2,3.2,0,0,1-.2,2.612,3.088,3.088,0,0,1-1.025,1.025,4.65,4.65,0,0,1-1.475.576,8.175,8.175,0,0,1-1.733.181A8.936,8.936,0,0,1,168.877,21.736ZM193.633,22h-3.086V20.623h-.039a3.46,3.46,0,0,1-3.1,1.621,3.791,3.791,0,0,1-3.018-1.323,5.478,5.478,0,0,1-1.143-3.7,5.962,5.962,0,0,1,1.26-3.975,4.109,4.109,0,0,1,3.3-1.494,2.808,2.808,0,0,1,2.7,1.387h.039V7.2h3.086Zm-3.027-4.863v-.752a2.366,2.366,0,0,0-.566-1.621,2,2,0,0,0-3.076.161,3.741,3.741,0,0,0-.576,2.212,3.237,3.237,0,0,0,.557,2.031,1.976,1.976,0,0,0,3.071-.039A3.134,3.134,0,0,0,190.605,17.137Zm14.609.742h-6.523q.156,2.178,2.744,2.178a5.357,5.357,0,0,0,2.9-.781V21.5a7.62,7.62,0,0,1-3.6.742,5.073,5.073,0,0,1-3.76-1.343,5.073,5.073,0,0,1-1.338-3.745,5.351,5.351,0,0,1,1.445-3.945,4.815,4.815,0,0,1,3.555-1.455,4.37,4.37,0,0,1,3.384,1.3,5,5,0,0,1,1.2,3.525Zm-2.861-1.895q0-2.148-1.738-2.148a1.66,1.66,0,0,0-1.284.615,2.792,2.792,0,0,0-.659,1.533ZM222.09,12l-3.721,10h-3.516l-3.545-10h3.3l1.738,6.162a9,9,0,0,1,.342,1.777h.039a10.087,10.087,0,0,1,.361-1.719L218.867,12ZM232.2,17.879h-6.523q.156,2.178,2.744,2.178a5.357,5.357,0,0,0,2.9-.781V21.5a7.62,7.62,0,0,1-3.6.742,5.073,5.073,0,0,1-3.76-1.343,5.073,5.073,0,0,1-1.338-3.745,5.351,5.351,0,0,1,1.445-3.945,4.815,4.815,0,0,1,3.555-1.455,4.37,4.37,0,0,1,3.384,1.3,5,5,0,0,1,1.2,3.525Zm-2.861-1.895q0-2.148-1.738-2.148a1.66,1.66,0,0,0-1.284.615,2.792,2.792,0,0,0-.659,1.533ZM243.691,22h-3.076V16.443q0-2.324-1.66-2.324a1.647,1.647,0,0,0-1.318.615,2.344,2.344,0,0,0-.518,1.563V22h-3.086V12h3.086v1.582h.039a3.536,3.536,0,0,1,3.213-1.826q3.32,0,3.32,4.121Zm8.486-.117a4.561,4.561,0,0,1-2.061.361q-3.262,0-3.262-3.389v-4.58h-1.621V12h1.621V9.842l3.076-.879V12h2.246v2.275h-2.246v4.043q0,1.562,1.24,1.563a2.091,2.091,0,0,0,1.006-.283ZM262.236,22h-2.92V20.564h-.039a3.259,3.259,0,0,1-2.979,1.68,3.116,3.116,0,0,1-2.29-.825,2.957,2.957,0,0,1-.835-2.2q0-2.91,3.447-3.359l2.715-.361q0-1.641-1.777-1.641a6.067,6.067,0,0,0-3.4,1.064V12.6a7.646,7.646,0,0,1,1.763-.586,9.266,9.266,0,0,1,2.036-.254q4.277,0,4.277,4.268Zm-2.9-4.062v-.674l-1.816.234q-1.5.2-1.5,1.357a1.122,1.122,0,0,0,.366.864,1.407,1.407,0,0,0,.991.337,1.827,1.827,0,0,0,1.416-.6A2.169,2.169,0,0,0,259.336,17.938Zm4.688,3.8v-2.5a6.57,6.57,0,0,0,1.519.684,5.035,5.035,0,0,0,1.431.225,3.068,3.068,0,0,0,1.294-.225.726.726,0,0,0,.474-.684.632.632,0,0,0-.215-.488,2,2,0,0,0-.552-.342,6.261,6.261,0,0,0-.737-.264q-.4-.117-.771-.264a7.392,7.392,0,0,1-1.05-.483,3.034,3.034,0,0,1-.762-.6,2.361,2.361,0,0,1-.469-.791,3.157,3.157,0,0,1-.161-1.064,2.74,2.74,0,0,1,.366-1.445,2.991,2.991,0,0,1,.977-.991,4.462,4.462,0,0,1,1.4-.566,7.281,7.281,0,0,1,1.636-.181,9.076,9.076,0,0,1,1.348.1,10.059,10.059,0,0,1,1.348.3v2.383a4.87,4.87,0,0,0-1.255-.513,5.293,5.293,0,0,0-1.313-.171,2.91,2.91,0,0,0-.571.054,1.881,1.881,0,0,0-.474.156.87.87,0,0,0-.322.264.607.607,0,0,0-.117.366.677.677,0,0,0,.176.469,1.527,1.527,0,0,0,.459.337,4.532,4.532,0,0,0,.63.254q.347.112.688.229a8.951,8.951,0,0,1,1.113.469,3.56,3.56,0,0,1,.854.6,2.339,2.339,0,0,1,.547.8,3.2,3.2,0,0,1-.2,2.612,3.089,3.089,0,0,1-1.025,1.025,4.65,4.65,0,0,1-1.475.576,8.175,8.175,0,0,1-1.733.181A8.936,8.936,0,0,1,264.023,21.736Z" transform="translate(576 12091.5)" fill="#002b45"/>
    <path id="Trazado_20167" data-name="Trazado 20167" d="M88.5,22.244a6.519,6.519,0,0,1-4.9-1.958,7.029,7.029,0,0,1-1.895-5.1,7.532,7.532,0,0,1,1.924-5.371,6.661,6.661,0,0,1,5.1-2.051,6.356,6.356,0,0,1,4.849,1.963A7.237,7.237,0,0,1,95.42,14.9,7.412,7.412,0,0,1,93.5,20.223,6.586,6.586,0,0,1,88.5,22.244Zm.137-11.768A3.175,3.175,0,0,0,86,11.722a5.191,5.191,0,0,0-.977,3.3A5.1,5.1,0,0,0,86,18.309a3.37,3.37,0,0,0,5.146.034,5.04,5.04,0,0,0,.957-3.267,5.461,5.461,0,0,0-.928-3.389A3.025,3.025,0,0,0,88.633,10.477Zm11.934,10.361h-.039V22H97.441V7.2h3.086V13.5h.039a3.662,3.662,0,0,1,3.252-1.748,3.568,3.568,0,0,1,2.979,1.328,5.727,5.727,0,0,1,1.045,3.633,6.2,6.2,0,0,1-1.221,4.014,3.976,3.976,0,0,1-3.262,1.514A3.151,3.151,0,0,1,100.566,20.838Zm-.088-4.219v1.025a2.341,2.341,0,0,0,.557,1.6,1.811,1.811,0,0,0,1.426.635,1.892,1.892,0,0,0,1.636-.815,3.937,3.937,0,0,0,.581-2.31,3.132,3.132,0,0,0-.532-1.938,1.8,1.8,0,0,0-1.519-.7,1.962,1.962,0,0,0-1.538.693A2.634,2.634,0,0,0,100.479,16.619Zm10.928-6.2a1.8,1.8,0,0,1-1.279-.464,1.5,1.5,0,0,1-.5-1.138,1.441,1.441,0,0,1,.5-1.133,2.089,2.089,0,0,1,2.563,0,1.448,1.448,0,0,1,.493,1.133,1.489,1.489,0,0,1-.493,1.152A1.833,1.833,0,0,1,111.406,10.418Zm1.523,11.406a5.436,5.436,0,0,1-1.084,3.545,3.8,3.8,0,0,1-3.125,1.328,4.321,4.321,0,0,1-1.475-.293V23.982a2.4,2.4,0,0,0,1.143.361q1.455,0,1.455-2.285V12h3.086Zm11.582-3.945h-6.523q.156,2.178,2.744,2.178a5.357,5.357,0,0,0,2.9-.781V21.5a7.619,7.619,0,0,1-3.6.742,5.073,5.073,0,0,1-3.76-1.343,5.073,5.073,0,0,1-1.338-3.745,5.352,5.352,0,0,1,1.445-3.945,4.815,4.815,0,0,1,3.555-1.455,4.37,4.37,0,0,1,3.384,1.3,5,5,0,0,1,1.2,3.525Zm-2.861-1.895q0-2.148-1.738-2.148a1.66,1.66,0,0,0-1.284.615,2.792,2.792,0,0,0-.659,1.533Zm10.742,5.9a4.561,4.561,0,0,1-2.061.361q-3.262,0-3.262-3.389v-4.58h-1.621V12h1.621V9.842l3.076-.879V12h2.246v2.275h-2.246v4.043q0,1.562,1.24,1.563a2.091,2.091,0,0,0,1.006-.283Zm3.3-11.465a1.8,1.8,0,0,1-1.279-.464,1.5,1.5,0,0,1-.5-1.138,1.441,1.441,0,0,1,.5-1.133,2.089,2.089,0,0,1,2.563,0,1.448,1.448,0,0,1,.493,1.133,1.489,1.489,0,0,1-.493,1.152A1.833,1.833,0,0,1,135.693,10.418ZM137.217,22h-3.086V12h3.086Zm12.119-10-3.721,10H142.1l-3.545-10h3.3l1.738,6.162a9,9,0,0,1,.342,1.777h.039a10.087,10.087,0,0,1,.361-1.719L146.113,12Zm5.889,10.244a5.376,5.376,0,0,1-3.931-1.4,5.081,5.081,0,0,1-1.431-3.8,5.081,5.081,0,0,1,1.484-3.882,5.609,5.609,0,0,1,4.014-1.4,5.311,5.311,0,0,1,3.906,1.4,4.981,4.981,0,0,1,1.416,3.706,5.288,5.288,0,0,1-1.46,3.936A5.435,5.435,0,0,1,155.225,22.244Zm.078-8.125a2.058,2.058,0,0,0-1.7.752A3.316,3.316,0,0,0,153,17q0,2.881,2.324,2.881,2.217,0,2.217-2.959Q157.539,14.119,155.3,14.119Zm6.729,7.617v-2.5a6.57,6.57,0,0,0,1.519.684,5.035,5.035,0,0,0,1.431.225,3.068,3.068,0,0,0,1.294-.225.726.726,0,0,0,.474-.684.632.632,0,0,0-.215-.488,2,2,0,0,0-.552-.342,6.262,6.262,0,0,0-.737-.264q-.4-.117-.771-.264a7.392,7.392,0,0,1-1.05-.483,3.034,3.034,0,0,1-.762-.6,2.361,2.361,0,0,1-.469-.791,3.157,3.157,0,0,1-.161-1.064,2.74,2.74,0,0,1,.366-1.445,2.991,2.991,0,0,1,.977-.991,4.462,4.462,0,0,1,1.4-.566,7.281,7.281,0,0,1,1.636-.181,9.076,9.076,0,0,1,1.348.1,10.058,10.058,0,0,1,1.348.3v2.383a4.87,4.87,0,0,0-1.255-.513,5.294,5.294,0,0,0-1.313-.171,2.91,2.91,0,0,0-.571.054,1.882,1.882,0,0,0-.474.156.87.87,0,0,0-.322.264.607.607,0,0,0-.117.366.677.677,0,0,0,.176.469,1.527,1.527,0,0,0,.459.337,4.531,4.531,0,0,0,.63.254q.347.112.688.229a8.951,8.951,0,0,1,1.113.469,3.559,3.559,0,0,1,.854.6,2.339,2.339,0,0,1,.547.8,3.2,3.2,0,0,1-.2,2.612,3.088,3.088,0,0,1-1.025,1.025,4.65,4.65,0,0,1-1.475.576,8.175,8.175,0,0,1-1.733.181A8.936,8.936,0,0,1,162.031,21.736ZM183.525,9.559a3.117,3.117,0,0,0-1.143-.234q-1.484,0-1.484,1.611V12h2.285v2.275H180.9V22h-3.076V14.275h-1.68V12h1.68V10.76a3.6,3.6,0,0,1,1.113-2.754,4.246,4.246,0,0,1,3.027-1.045,5.317,5.317,0,0,1,1.563.2Zm2.705.859a1.8,1.8,0,0,1-1.279-.464,1.5,1.5,0,0,1-.5-1.138,1.441,1.441,0,0,1,.5-1.133,2.089,2.089,0,0,1,2.563,0,1.448,1.448,0,0,1,.493,1.133,1.489,1.489,0,0,1-.493,1.152A1.833,1.833,0,0,1,186.23,10.418ZM187.754,22h-3.086V12h3.086Zm12.256,0h-3.076V16.443q0-2.324-1.66-2.324a1.647,1.647,0,0,0-1.318.615,2.344,2.344,0,0,0-.518,1.563V22h-3.086V12h3.086v1.582h.039a3.536,3.536,0,0,1,3.213-1.826q3.32,0,3.32,4.121Zm10.762,0h-2.92V20.564h-.039a3.259,3.259,0,0,1-2.979,1.68,3.116,3.116,0,0,1-2.29-.825,2.957,2.957,0,0,1-.835-2.2q0-2.91,3.447-3.359l2.715-.361q0-1.641-1.777-1.641a6.067,6.067,0,0,0-3.4,1.064V12.6a7.646,7.646,0,0,1,1.763-.586,9.266,9.266,0,0,1,2.036-.254q4.277,0,4.277,4.268Zm-2.9-4.062v-.674l-1.816.234q-1.5.2-1.5,1.357a1.122,1.122,0,0,0,.366.864,1.407,1.407,0,0,0,.991.337,1.827,1.827,0,0,0,1.416-.6A2.169,2.169,0,0,0,207.871,17.938Zm15,4.063h-3.076V16.443q0-2.324-1.66-2.324a1.647,1.647,0,0,0-1.318.615A2.344,2.344,0,0,0,216.3,16.3V22h-3.086V12H216.3v1.582h.039a3.536,3.536,0,0,1,3.213-1.826q3.32,0,3.32,4.121Zm10.02-.361a6.1,6.1,0,0,1-3.018.605,5.1,5.1,0,0,1-3.73-1.4,4.823,4.823,0,0,1-1.426-3.6,5.313,5.313,0,0,1,1.528-4.019,5.648,5.648,0,0,1,4.087-1.47,5.244,5.244,0,0,1,2.559.469v2.617a3.518,3.518,0,0,0-2.158-.723,2.844,2.844,0,0,0-2.1.776,2.9,2.9,0,0,0-.776,2.144,2.85,2.85,0,0,0,.742,2.085,2.728,2.728,0,0,0,2.041.757,4.073,4.073,0,0,0,2.256-.723Zm3.584-11.221a1.8,1.8,0,0,1-1.279-.464,1.5,1.5,0,0,1-.5-1.138,1.441,1.441,0,0,1,.5-1.133,2.089,2.089,0,0,1,2.563,0,1.448,1.448,0,0,1,.493,1.133,1.489,1.489,0,0,1-.493,1.152A1.833,1.833,0,0,1,236.475,10.418ZM238,22h-3.086V12H238Zm11.582-4.121h-6.523q.156,2.178,2.744,2.178a5.357,5.357,0,0,0,2.9-.781V21.5a7.62,7.62,0,0,1-3.6.742,5.073,5.073,0,0,1-3.76-1.343A5.073,5.073,0,0,1,240,17.156a5.351,5.351,0,0,1,1.445-3.945A4.815,4.815,0,0,1,245,11.756a4.37,4.37,0,0,1,3.384,1.3,5,5,0,0,1,1.2,3.525Zm-2.861-1.895q0-2.148-1.738-2.148a1.66,1.66,0,0,0-1.284.615,2.792,2.792,0,0,0-.659,1.533Zm11.221-1.2a2.677,2.677,0,0,0-1.3-.3,1.871,1.871,0,0,0-1.572.737,3.216,3.216,0,0,0-.566,2.007V22h-3.086V12H254.5v1.855h.039a2.67,2.67,0,0,1,2.637-2.031,1.987,1.987,0,0,1,.762.117Zm6.123,7.461a5.376,5.376,0,0,1-3.931-1.4,5.081,5.081,0,0,1-1.431-3.8,5.081,5.081,0,0,1,1.484-3.882,5.609,5.609,0,0,1,4.014-1.4,5.311,5.311,0,0,1,3.906,1.4,4.981,4.981,0,0,1,1.416,3.706,5.288,5.288,0,0,1-1.46,3.936A5.435,5.435,0,0,1,264.063,22.244Zm.078-8.125a2.058,2.058,0,0,0-1.7.752A3.316,3.316,0,0,0,261.836,17q0,2.881,2.324,2.881,2.217,0,2.217-2.959Q266.377,14.119,264.141,14.119Zm6.729,7.617v-2.5a6.57,6.57,0,0,0,1.519.684,5.035,5.035,0,0,0,1.431.225,3.068,3.068,0,0,0,1.294-.225.726.726,0,0,0,.474-.684.632.632,0,0,0-.215-.488,2,2,0,0,0-.552-.342,6.261,6.261,0,0,0-.737-.264q-.4-.117-.771-.264a7.392,7.392,0,0,1-1.05-.483,3.034,3.034,0,0,1-.762-.6A2.361,2.361,0,0,1,271.03,16a3.157,3.157,0,0,1-.161-1.064,2.74,2.74,0,0,1,.366-1.445,2.991,2.991,0,0,1,.977-.991,4.462,4.462,0,0,1,1.4-.566,7.281,7.281,0,0,1,1.636-.181,9.076,9.076,0,0,1,1.348.1,10.059,10.059,0,0,1,1.348.3v2.383a4.87,4.87,0,0,0-1.255-.513,5.293,5.293,0,0,0-1.313-.171,2.91,2.91,0,0,0-.571.054,1.881,1.881,0,0,0-.474.156.87.87,0,0,0-.322.264.607.607,0,0,0-.117.366.677.677,0,0,0,.176.469,1.527,1.527,0,0,0,.459.337,4.532,4.532,0,0,0,.63.254q.347.112.688.229a8.951,8.951,0,0,1,1.113.469,3.56,3.56,0,0,1,.854.6,2.339,2.339,0,0,1,.547.8,3.2,3.2,0,0,1-.2,2.612,3.089,3.089,0,0,1-1.025,1.025,4.65,4.65,0,0,1-1.475.576,8.175,8.175,0,0,1-1.733.181A8.936,8.936,0,0,1,270.869,21.736Z" transform="translate(576 12221.5)" fill="#002b45"/>
    <path id="Trazado_20168" data-name="Trazado 20168" d="M36.636,22.244a6.519,6.519,0,0,1-4.9-1.958,7.029,7.029,0,0,1-1.895-5.1,7.532,7.532,0,0,1,1.924-5.371,6.661,6.661,0,0,1,5.1-2.051,6.356,6.356,0,0,1,4.849,1.963A7.237,7.237,0,0,1,43.56,14.9a7.412,7.412,0,0,1-1.919,5.322A6.586,6.586,0,0,1,36.636,22.244Zm.137-11.768a3.175,3.175,0,0,0-2.637,1.245,5.191,5.191,0,0,0-.977,3.3,5.1,5.1,0,0,0,.977,3.291,3.37,3.37,0,0,0,5.146.034,5.04,5.04,0,0,0,.957-3.267,5.462,5.462,0,0,0-.928-3.389A3.025,3.025,0,0,0,36.772,10.477ZM48.706,20.838h-.039V22H45.581V7.2h3.086V13.5h.039a3.662,3.662,0,0,1,3.252-1.748,3.568,3.568,0,0,1,2.979,1.328,5.727,5.727,0,0,1,1.045,3.633,6.2,6.2,0,0,1-1.221,4.014A3.976,3.976,0,0,1,51.5,22.244,3.151,3.151,0,0,1,48.706,20.838Zm-.088-4.219v1.025a2.341,2.341,0,0,0,.557,1.6,1.811,1.811,0,0,0,1.426.635,1.892,1.892,0,0,0,1.636-.815,3.937,3.937,0,0,0,.581-2.31,3.132,3.132,0,0,0-.532-1.938,1.8,1.8,0,0,0-1.519-.7,1.962,1.962,0,0,0-1.538.693A2.634,2.634,0,0,0,48.618,16.619Zm10.928-6.2a1.8,1.8,0,0,1-1.279-.464,1.5,1.5,0,0,1-.5-1.138,1.441,1.441,0,0,1,.5-1.133,2.089,2.089,0,0,1,2.563,0,1.448,1.448,0,0,1,.493,1.133,1.489,1.489,0,0,1-.493,1.152A1.833,1.833,0,0,1,59.546,10.418Zm1.523,11.406a5.436,5.436,0,0,1-1.084,3.545A3.8,3.8,0,0,1,56.86,26.7a4.321,4.321,0,0,1-1.475-.293V23.982a2.4,2.4,0,0,0,1.143.361q1.455,0,1.455-2.285V12h3.086Zm11.582-3.945H66.128q.156,2.178,2.744,2.178a5.357,5.357,0,0,0,2.9-.781V21.5a7.619,7.619,0,0,1-3.6.742,5.073,5.073,0,0,1-3.76-1.343,5.073,5.073,0,0,1-1.338-3.745,5.352,5.352,0,0,1,1.445-3.945,4.815,4.815,0,0,1,3.555-1.455,4.37,4.37,0,0,1,3.384,1.3,5,5,0,0,1,1.2,3.525ZM69.79,15.984q0-2.148-1.738-2.148a1.66,1.66,0,0,0-1.284.615,2.792,2.792,0,0,0-.659,1.533Zm10.742,5.9a4.561,4.561,0,0,1-2.061.361q-3.262,0-3.262-3.389v-4.58H73.589V12H75.21V9.842l3.076-.879V12h2.246v2.275H78.286v4.043q0,1.562,1.24,1.563a2.091,2.091,0,0,0,1.006-.283Zm3.3-11.465a1.8,1.8,0,0,1-1.279-.464,1.5,1.5,0,0,1-.5-1.138,1.441,1.441,0,0,1,.5-1.133,2.089,2.089,0,0,1,2.563,0,1.448,1.448,0,0,1,.493,1.133,1.489,1.489,0,0,1-.493,1.152A1.833,1.833,0,0,1,83.833,10.418ZM85.356,22H82.271V12h3.086ZM97.476,12,93.755,22H90.239L86.694,12H90l1.738,6.162a9,9,0,0,1,.342,1.777h.039a10.086,10.086,0,0,1,.361-1.719L94.253,12Zm5.889,10.244a5.376,5.376,0,0,1-3.931-1.4A5.081,5.081,0,0,1,98,17.039a5.081,5.081,0,0,1,1.484-3.882,5.609,5.609,0,0,1,4.014-1.4,5.311,5.311,0,0,1,3.906,1.4,4.981,4.981,0,0,1,1.416,3.706,5.288,5.288,0,0,1-1.46,3.936A5.435,5.435,0,0,1,103.364,22.244Zm.078-8.125a2.058,2.058,0,0,0-1.7.752A3.316,3.316,0,0,0,101.138,17q0,2.881,2.324,2.881,2.217,0,2.217-2.959Q105.679,14.119,103.442,14.119Zm6.729,7.617v-2.5a6.57,6.57,0,0,0,1.519.684,5.035,5.035,0,0,0,1.431.225,3.068,3.068,0,0,0,1.294-.225.726.726,0,0,0,.474-.684.632.632,0,0,0-.215-.488,2,2,0,0,0-.552-.342,6.261,6.261,0,0,0-.737-.264q-.4-.117-.771-.264a7.392,7.392,0,0,1-1.05-.483,3.034,3.034,0,0,1-.762-.6,2.361,2.361,0,0,1-.469-.791,3.157,3.157,0,0,1-.161-1.064,2.74,2.74,0,0,1,.366-1.445,2.991,2.991,0,0,1,.977-.991,4.462,4.462,0,0,1,1.4-.566,7.281,7.281,0,0,1,1.636-.181,9.076,9.076,0,0,1,1.348.1,10.059,10.059,0,0,1,1.348.3v2.383a4.87,4.87,0,0,0-1.255-.513,5.294,5.294,0,0,0-1.313-.171,2.91,2.91,0,0,0-.571.054,1.882,1.882,0,0,0-.474.156.87.87,0,0,0-.322.264.607.607,0,0,0-.117.366.677.677,0,0,0,.176.469,1.527,1.527,0,0,0,.459.337,4.531,4.531,0,0,0,.63.254q.347.112.688.229a8.951,8.951,0,0,1,1.113.469,3.56,3.56,0,0,1,.854.6,2.339,2.339,0,0,1,.547.8,3.2,3.2,0,0,1-.2,2.612,3.088,3.088,0,0,1-1.025,1.025,4.65,4.65,0,0,1-1.475.576,8.175,8.175,0,0,1-1.733.181A8.936,8.936,0,0,1,110.171,21.736Zm21.494-6.953a2.677,2.677,0,0,0-1.3-.3,1.871,1.871,0,0,0-1.572.737,3.216,3.216,0,0,0-.566,2.007V22h-3.086V12h3.086v1.855h.039a2.67,2.67,0,0,1,2.637-2.031,1.987,1.987,0,0,1,.762.117Zm10.342,3.1h-6.523q.156,2.178,2.744,2.178a5.357,5.357,0,0,0,2.9-.781V21.5a7.62,7.62,0,0,1-3.6.742,5.073,5.073,0,0,1-3.76-1.343,5.073,5.073,0,0,1-1.338-3.745,5.351,5.351,0,0,1,1.445-3.945,4.815,4.815,0,0,1,3.555-1.455,4.37,4.37,0,0,1,3.384,1.3,5,5,0,0,1,1.2,3.525Zm-2.861-1.895q0-2.148-1.738-2.148a1.66,1.66,0,0,0-1.284.615,2.792,2.792,0,0,0-.659,1.533Zm4.043,5.752v-2.5a6.57,6.57,0,0,0,1.519.684,5.035,5.035,0,0,0,1.431.225,3.068,3.068,0,0,0,1.294-.225.726.726,0,0,0,.474-.684.632.632,0,0,0-.215-.488,2,2,0,0,0-.552-.342,6.262,6.262,0,0,0-.737-.264q-.4-.117-.771-.264a7.392,7.392,0,0,1-1.05-.483,3.034,3.034,0,0,1-.762-.6A2.361,2.361,0,0,1,143.35,16a3.157,3.157,0,0,1-.161-1.064,2.74,2.74,0,0,1,.366-1.445,2.991,2.991,0,0,1,.977-.991,4.462,4.462,0,0,1,1.4-.566,7.281,7.281,0,0,1,1.636-.181,9.076,9.076,0,0,1,1.348.1,10.058,10.058,0,0,1,1.348.3v2.383A4.87,4.87,0,0,0,149,14.026a5.294,5.294,0,0,0-1.313-.171,2.91,2.91,0,0,0-.571.054,1.882,1.882,0,0,0-.474.156.87.87,0,0,0-.322.264.607.607,0,0,0-.117.366.677.677,0,0,0,.176.469,1.527,1.527,0,0,0,.459.337,4.531,4.531,0,0,0,.63.254q.347.112.688.229a8.951,8.951,0,0,1,1.113.469,3.559,3.559,0,0,1,.854.6,2.339,2.339,0,0,1,.547.8,3.2,3.2,0,0,1-.2,2.612,3.088,3.088,0,0,1-1.025,1.025,4.65,4.65,0,0,1-1.475.576,8.175,8.175,0,0,1-1.733.181A8.936,8.936,0,0,1,143.188,21.736Zm12.578-.9h-.039V26.6h-3.086V12h3.086v1.5h.039a3.927,3.927,0,0,1,6.216-.415,5.676,5.676,0,0,1,1.06,3.628,6.152,6.152,0,0,1-1.235,4.014,4.028,4.028,0,0,1-3.286,1.514A3.114,3.114,0,0,1,155.767,20.838Zm-.088-4.1v.8a2.546,2.546,0,0,0,.547,1.689,1.78,1.78,0,0,0,1.436.654,1.892,1.892,0,0,0,1.636-.815,3.937,3.937,0,0,0,.581-2.31q0-2.637-2.051-2.637a1.926,1.926,0,0,0-1.548.718A2.863,2.863,0,0,0,155.679,16.736Zm14.131,5.508a5.376,5.376,0,0,1-3.931-1.4,5.081,5.081,0,0,1-1.431-3.8,5.081,5.081,0,0,1,1.484-3.882,5.609,5.609,0,0,1,4.014-1.4,5.311,5.311,0,0,1,3.906,1.4,4.981,4.981,0,0,1,1.416,3.706,5.288,5.288,0,0,1-1.46,3.936A5.435,5.435,0,0,1,169.81,22.244Zm.078-8.125a2.058,2.058,0,0,0-1.7.752A3.316,3.316,0,0,0,167.583,17q0,2.881,2.324,2.881,2.217,0,2.217-2.959Q172.124,14.119,169.888,14.119ZM186.929,22h-3.076V16.443q0-2.324-1.66-2.324a1.647,1.647,0,0,0-1.318.615,2.344,2.344,0,0,0-.518,1.563V22h-3.086V12h3.086v1.582h.039a3.536,3.536,0,0,1,3.213-1.826q3.32,0,3.32,4.121Zm1.787-.264v-2.5a6.57,6.57,0,0,0,1.519.684,5.035,5.035,0,0,0,1.431.225,3.068,3.068,0,0,0,1.294-.225.726.726,0,0,0,.474-.684.632.632,0,0,0-.215-.488,2,2,0,0,0-.552-.342,6.262,6.262,0,0,0-.737-.264q-.4-.117-.771-.264a7.392,7.392,0,0,1-1.05-.483,3.034,3.034,0,0,1-.762-.6,2.361,2.361,0,0,1-.469-.791,3.157,3.157,0,0,1-.161-1.064,2.74,2.74,0,0,1,.366-1.445,2.991,2.991,0,0,1,.977-.991,4.462,4.462,0,0,1,1.4-.566,7.281,7.281,0,0,1,1.636-.181,9.076,9.076,0,0,1,1.348.1,10.058,10.058,0,0,1,1.348.3v2.383a4.87,4.87,0,0,0-1.255-.513,5.294,5.294,0,0,0-1.313-.171,2.91,2.91,0,0,0-.571.054,1.882,1.882,0,0,0-.474.156.87.87,0,0,0-.322.264.607.607,0,0,0-.117.366.677.677,0,0,0,.176.469,1.527,1.527,0,0,0,.459.337,4.531,4.531,0,0,0,.63.254q.347.112.688.229a8.951,8.951,0,0,1,1.113.469,3.559,3.559,0,0,1,.854.6,2.339,2.339,0,0,1,.547.8,3.2,3.2,0,0,1-.2,2.612,3.088,3.088,0,0,1-1.025,1.025,4.65,4.65,0,0,1-1.475.576,8.175,8.175,0,0,1-1.733.181A8.936,8.936,0,0,1,188.716,21.736ZM206.489,22h-2.92V20.564h-.039a3.259,3.259,0,0,1-2.979,1.68,3.116,3.116,0,0,1-2.29-.825,2.957,2.957,0,0,1-.835-2.2q0-2.91,3.447-3.359l2.715-.361q0-1.641-1.777-1.641a6.067,6.067,0,0,0-3.4,1.064V12.6a7.646,7.646,0,0,1,1.763-.586,9.266,9.266,0,0,1,2.036-.254q4.277,0,4.277,4.268Zm-2.9-4.062v-.674l-1.816.234q-1.5.2-1.5,1.357a1.122,1.122,0,0,0,.366.864,1.407,1.407,0,0,0,.991.337,1.827,1.827,0,0,0,1.416-.6A2.169,2.169,0,0,0,203.589,17.938Zm8.467,2.9h-.039V22h-3.086V7.2h3.086V13.5h.039a3.662,3.662,0,0,1,3.252-1.748,3.568,3.568,0,0,1,2.979,1.328,5.728,5.728,0,0,1,1.045,3.633,6.2,6.2,0,0,1-1.221,4.014,3.976,3.976,0,0,1-3.262,1.514A3.151,3.151,0,0,1,212.056,20.838Zm-.088-4.219v1.025a2.341,2.341,0,0,0,.557,1.6,1.811,1.811,0,0,0,1.426.635,1.892,1.892,0,0,0,1.636-.815,3.937,3.937,0,0,0,.581-2.31,3.132,3.132,0,0,0-.532-1.938,1.8,1.8,0,0,0-1.519-.7,1.962,1.962,0,0,0-1.538.693A2.634,2.634,0,0,0,211.968,16.619Zm10.928-6.2a1.8,1.8,0,0,1-1.279-.464,1.5,1.5,0,0,1-.5-1.138,1.441,1.441,0,0,1,.5-1.133,2.089,2.089,0,0,1,2.563,0,1.448,1.448,0,0,1,.493,1.133,1.489,1.489,0,0,1-.493,1.152A1.833,1.833,0,0,1,222.9,10.418ZM224.419,22h-3.086V12h3.086Zm5.684,0h-3.086V7.2H230.1Zm4.16-11.582a1.8,1.8,0,0,1-1.279-.464,1.5,1.5,0,0,1-.5-1.138,1.441,1.441,0,0,1,.5-1.133,2.089,2.089,0,0,1,2.563,0,1.448,1.448,0,0,1,.493,1.133,1.489,1.489,0,0,1-.493,1.152A1.833,1.833,0,0,1,234.263,10.418ZM235.786,22H232.7V12h3.086Zm12.383,0h-3.086V20.623h-.039a3.46,3.46,0,0,1-3.1,1.621,3.791,3.791,0,0,1-3.018-1.323,5.478,5.478,0,0,1-1.143-3.7,5.962,5.962,0,0,1,1.26-3.975,4.109,4.109,0,0,1,3.3-1.494,2.808,2.808,0,0,1,2.7,1.387h.039V7.2h3.086Zm-3.027-4.863v-.752a2.366,2.366,0,0,0-.566-1.621,2,2,0,0,0-3.076.161,3.741,3.741,0,0,0-.576,2.212,3.237,3.237,0,0,0,.557,2.031,1.976,1.976,0,0,0,3.071-.039A3.134,3.134,0,0,0,245.142,17.137ZM259.087,22h-2.92V20.564h-.039a3.259,3.259,0,0,1-2.979,1.68,3.116,3.116,0,0,1-2.29-.825,2.957,2.957,0,0,1-.835-2.2q0-2.91,3.447-3.359l2.715-.361q0-1.641-1.777-1.641a6.067,6.067,0,0,0-3.4,1.064V12.6a7.646,7.646,0,0,1,1.763-.586,9.266,9.266,0,0,1,2.036-.254q4.277,0,4.277,4.268Zm-2.9-4.062v-.674l-1.816.234q-1.5.2-1.5,1.357a1.122,1.122,0,0,0,.366.864,1.407,1.407,0,0,0,.991.337,1.827,1.827,0,0,0,1.416-.6A2.169,2.169,0,0,0,256.187,17.938ZM271.313,22h-3.086V20.623h-.039a3.46,3.46,0,0,1-3.1,1.621,3.791,3.791,0,0,1-3.018-1.323,5.478,5.478,0,0,1-1.143-3.7,5.962,5.962,0,0,1,1.26-3.975,4.109,4.109,0,0,1,3.3-1.494,2.808,2.808,0,0,1,2.7,1.387h.039V7.2h3.086Zm-3.027-4.863v-.752a2.366,2.366,0,0,0-.566-1.621,2,2,0,0,0-3.076.161,3.741,3.741,0,0,0-.576,2.212,3.237,3.237,0,0,0,.557,2.031,1.976,1.976,0,0,0,3.071-.039A3.134,3.134,0,0,0,268.286,17.137Zm10.488,4.6v-2.5a6.57,6.57,0,0,0,1.519.684,5.035,5.035,0,0,0,1.431.225,3.068,3.068,0,0,0,1.294-.225.726.726,0,0,0,.474-.684.632.632,0,0,0-.215-.488,2,2,0,0,0-.552-.342,6.261,6.261,0,0,0-.737-.264q-.4-.117-.771-.264a7.392,7.392,0,0,1-1.05-.483,3.034,3.034,0,0,1-.762-.6,2.361,2.361,0,0,1-.469-.791,3.157,3.157,0,0,1-.161-1.064,2.74,2.74,0,0,1,.366-1.445,2.991,2.991,0,0,1,.977-.991,4.462,4.462,0,0,1,1.4-.566,7.281,7.281,0,0,1,1.636-.181,9.076,9.076,0,0,1,1.348.1,10.059,10.059,0,0,1,1.348.3v2.383a4.87,4.87,0,0,0-1.255-.513,5.293,5.293,0,0,0-1.313-.171,2.91,2.91,0,0,0-.571.054,1.881,1.881,0,0,0-.474.156.87.87,0,0,0-.322.264.607.607,0,0,0-.117.366.677.677,0,0,0,.176.469,1.527,1.527,0,0,0,.459.337,4.532,4.532,0,0,0,.63.254q.347.112.688.229a8.951,8.951,0,0,1,1.113.469,3.56,3.56,0,0,1,.854.6,2.339,2.339,0,0,1,.547.8,3.2,3.2,0,0,1-.2,2.612,3.089,3.089,0,0,1-1.025,1.025,4.65,4.65,0,0,1-1.475.576,8.175,8.175,0,0,1-1.733.181A8.936,8.936,0,0,1,278.774,21.736Zm14.219.508a5.376,5.376,0,0,1-3.931-1.4,5.081,5.081,0,0,1-1.431-3.8,5.081,5.081,0,0,1,1.484-3.882,5.609,5.609,0,0,1,4.014-1.4,5.311,5.311,0,0,1,3.906,1.4,4.981,4.981,0,0,1,1.416,3.706,5.288,5.288,0,0,1-1.46,3.936A5.435,5.435,0,0,1,292.993,22.244Zm.078-8.125a2.058,2.058,0,0,0-1.7.752A3.316,3.316,0,0,0,290.767,17q0,2.881,2.324,2.881,2.217,0,2.217-2.959Q295.308,14.119,293.071,14.119Zm14.961,7.52a6.1,6.1,0,0,1-3.018.605,5.1,5.1,0,0,1-3.73-1.4,4.823,4.823,0,0,1-1.426-3.6,5.313,5.313,0,0,1,1.528-4.019,5.648,5.648,0,0,1,4.087-1.47,5.244,5.244,0,0,1,2.559.469v2.617a3.518,3.518,0,0,0-2.158-.723,2.844,2.844,0,0,0-2.1.776,2.9,2.9,0,0,0-.776,2.144,2.85,2.85,0,0,0,.742,2.085,2.728,2.728,0,0,0,2.041.757,4.073,4.073,0,0,0,2.256-.723Zm3.584-11.221a1.8,1.8,0,0,1-1.279-.464,1.5,1.5,0,0,1-.5-1.138,1.441,1.441,0,0,1,.5-1.133,2.089,2.089,0,0,1,2.563,0,1.448,1.448,0,0,1,.493,1.133,1.489,1.489,0,0,1-.493,1.152A1.833,1.833,0,0,1,311.616,10.418ZM313.14,22h-3.086V12h3.086Zm10.918,0h-2.92V20.564H321.1a3.259,3.259,0,0,1-2.979,1.68,3.116,3.116,0,0,1-2.29-.825,2.957,2.957,0,0,1-.835-2.2q0-2.91,3.447-3.359l2.715-.361q0-1.641-1.777-1.641a6.067,6.067,0,0,0-3.4,1.064V12.6a7.645,7.645,0,0,1,1.763-.586,9.266,9.266,0,0,1,2.036-.254q4.277,0,4.277,4.268Zm-2.9-4.062v-.674l-1.816.234q-1.5.2-1.5,1.357a1.122,1.122,0,0,0,.366.864,1.407,1.407,0,0,0,.991.337,1.827,1.827,0,0,0,1.416-.6A2.169,2.169,0,0,0,321.157,17.938ZM329.585,22H326.5V7.2h3.086Z" transform="translate(576 12351.5)" fill="#002b45"/>
    <path id="Trazado_20169" data-name="Trazado 20169" d="M87.061,22.244a6.519,6.519,0,0,1-4.9-1.958,7.029,7.029,0,0,1-1.895-5.1,7.532,7.532,0,0,1,1.924-5.371,6.661,6.661,0,0,1,5.1-2.051,6.356,6.356,0,0,1,4.849,1.963A7.237,7.237,0,0,1,93.984,14.9a7.412,7.412,0,0,1-1.919,5.322A6.586,6.586,0,0,1,87.061,22.244ZM87.2,10.477a3.175,3.175,0,0,0-2.637,1.245,5.191,5.191,0,0,0-.977,3.3,5.1,5.1,0,0,0,.977,3.291,3.37,3.37,0,0,0,5.146.034,5.04,5.04,0,0,0,.957-3.267,5.461,5.461,0,0,0-.928-3.389A3.025,3.025,0,0,0,87.2,10.477ZM99.131,20.838h-.039V22H96.006V7.2h3.086V13.5h.039a3.662,3.662,0,0,1,3.252-1.748,3.568,3.568,0,0,1,2.979,1.328,5.727,5.727,0,0,1,1.045,3.633,6.2,6.2,0,0,1-1.221,4.014,3.976,3.976,0,0,1-3.262,1.514A3.151,3.151,0,0,1,99.131,20.838Zm-.088-4.219v1.025a2.341,2.341,0,0,0,.557,1.6,1.811,1.811,0,0,0,1.426.635,1.892,1.892,0,0,0,1.636-.815,3.937,3.937,0,0,0,.581-2.31,3.132,3.132,0,0,0-.532-1.938,1.8,1.8,0,0,0-1.519-.7,1.962,1.962,0,0,0-1.538.693A2.634,2.634,0,0,0,99.043,16.619Zm10.928-6.2a1.8,1.8,0,0,1-1.279-.464,1.5,1.5,0,0,1-.5-1.138,1.441,1.441,0,0,1,.5-1.133,2.089,2.089,0,0,1,2.563,0,1.448,1.448,0,0,1,.493,1.133,1.489,1.489,0,0,1-.493,1.152A1.833,1.833,0,0,1,109.971,10.418Zm1.523,11.406a5.436,5.436,0,0,1-1.084,3.545,3.8,3.8,0,0,1-3.125,1.328,4.321,4.321,0,0,1-1.475-.293V23.982a2.4,2.4,0,0,0,1.143.361q1.455,0,1.455-2.285V12h3.086Zm11.582-3.945h-6.523q.156,2.178,2.744,2.178a5.357,5.357,0,0,0,2.9-.781V21.5a7.619,7.619,0,0,1-3.6.742,5.073,5.073,0,0,1-3.76-1.343,5.073,5.073,0,0,1-1.338-3.745,5.352,5.352,0,0,1,1.445-3.945,4.815,4.815,0,0,1,3.555-1.455,4.37,4.37,0,0,1,3.384,1.3,5,5,0,0,1,1.2,3.525Zm-2.861-1.895q0-2.148-1.738-2.148a1.66,1.66,0,0,0-1.284.615,2.792,2.792,0,0,0-.659,1.533Zm10.742,5.9a4.561,4.561,0,0,1-2.061.361q-3.262,0-3.262-3.389v-4.58h-1.621V12h1.621V9.842l3.076-.879V12h2.246v2.275h-2.246v4.043q0,1.562,1.24,1.563a2.091,2.091,0,0,0,1.006-.283Zm3.3-11.465a1.8,1.8,0,0,1-1.279-.464,1.5,1.5,0,0,1-.5-1.138,1.441,1.441,0,0,1,.5-1.133,2.089,2.089,0,0,1,2.563,0,1.448,1.448,0,0,1,.493,1.133,1.489,1.489,0,0,1-.493,1.152A1.833,1.833,0,0,1,134.258,10.418ZM135.781,22H132.7V12h3.086ZM147.9,12,144.18,22h-3.516l-3.545-10h3.3l1.738,6.162a9,9,0,0,1,.342,1.777h.039a10.087,10.087,0,0,1,.361-1.719L144.678,12Zm5.889,10.244a5.376,5.376,0,0,1-3.931-1.4,5.081,5.081,0,0,1-1.431-3.8,5.081,5.081,0,0,1,1.484-3.882,5.609,5.609,0,0,1,4.014-1.4,5.311,5.311,0,0,1,3.906,1.4,4.981,4.981,0,0,1,1.416,3.706,5.288,5.288,0,0,1-1.46,3.936A5.435,5.435,0,0,1,153.789,22.244Zm.078-8.125a2.058,2.058,0,0,0-1.7.752A3.316,3.316,0,0,0,151.563,17q0,2.881,2.324,2.881,2.217,0,2.217-2.959Q156.1,14.119,153.867,14.119Zm6.729,7.617v-2.5a6.57,6.57,0,0,0,1.519.684,5.035,5.035,0,0,0,1.431.225,3.068,3.068,0,0,0,1.294-.225.726.726,0,0,0,.474-.684.632.632,0,0,0-.215-.488,2,2,0,0,0-.552-.342,6.262,6.262,0,0,0-.737-.264q-.4-.117-.771-.264a7.392,7.392,0,0,1-1.05-.483,3.034,3.034,0,0,1-.762-.6,2.361,2.361,0,0,1-.469-.791,3.157,3.157,0,0,1-.161-1.064,2.74,2.74,0,0,1,.366-1.445,2.991,2.991,0,0,1,.977-.991,4.462,4.462,0,0,1,1.4-.566,7.281,7.281,0,0,1,1.636-.181,9.076,9.076,0,0,1,1.348.1,10.058,10.058,0,0,1,1.348.3v2.383a4.87,4.87,0,0,0-1.255-.513,5.294,5.294,0,0,0-1.313-.171,2.91,2.91,0,0,0-.571.054,1.882,1.882,0,0,0-.474.156.87.87,0,0,0-.322.264.607.607,0,0,0-.117.366.677.677,0,0,0,.176.469,1.527,1.527,0,0,0,.459.337,4.531,4.531,0,0,0,.63.254q.347.112.688.229a8.951,8.951,0,0,1,1.113.469,3.559,3.559,0,0,1,.854.6,2.339,2.339,0,0,1,.547.8,3.2,3.2,0,0,1-.2,2.612,3.088,3.088,0,0,1-1.025,1.025,4.65,4.65,0,0,1-1.475.576,8.175,8.175,0,0,1-1.733.181A8.936,8.936,0,0,1,160.6,21.736Zm18.1-.9h-.039V26.6h-3.086V12h3.086v1.5h.039a3.927,3.927,0,0,1,6.216-.415,5.676,5.676,0,0,1,1.06,3.628,6.152,6.152,0,0,1-1.235,4.014,4.028,4.028,0,0,1-3.286,1.514A3.114,3.114,0,0,1,178.691,20.838Zm-.088-4.1v.8a2.546,2.546,0,0,0,.547,1.689,1.78,1.78,0,0,0,1.436.654,1.892,1.892,0,0,0,1.636-.815,3.937,3.937,0,0,0,.581-2.31q0-2.637-2.051-2.637a1.926,1.926,0,0,0-1.548.718A2.863,2.863,0,0,0,178.6,16.736Zm15.889-1.953a2.677,2.677,0,0,0-1.3-.3,1.871,1.871,0,0,0-1.572.737,3.216,3.216,0,0,0-.566,2.007V22h-3.086V12h3.086v1.855h.039a2.67,2.67,0,0,1,2.637-2.031,1.987,1.987,0,0,1,.762.117Zm6.123,7.461a5.376,5.376,0,0,1-3.931-1.4,5.081,5.081,0,0,1-1.431-3.8,5.081,5.081,0,0,1,1.484-3.882,5.609,5.609,0,0,1,4.014-1.4,5.311,5.311,0,0,1,3.906,1.4,4.981,4.981,0,0,1,1.416,3.706,5.288,5.288,0,0,1-1.46,3.936A5.435,5.435,0,0,1,200.615,22.244Zm.078-8.125a2.058,2.058,0,0,0-1.7.752A3.316,3.316,0,0,0,198.389,17q0,2.881,2.324,2.881,2.217,0,2.217-2.959Q202.93,14.119,200.693,14.119ZM217.861,22h-3.086V20.623h-.039a3.46,3.46,0,0,1-3.1,1.621,3.791,3.791,0,0,1-3.018-1.323,5.478,5.478,0,0,1-1.143-3.7,5.962,5.962,0,0,1,1.26-3.975,4.109,4.109,0,0,1,3.3-1.494,2.808,2.808,0,0,1,2.7,1.387h.039V7.2h3.086Zm-3.027-4.863v-.752a2.366,2.366,0,0,0-.566-1.621,2,2,0,0,0-3.076.161,3.741,3.741,0,0,0-.576,2.212,3.237,3.237,0,0,0,.557,2.031,1.976,1.976,0,0,0,3.071-.039A3.134,3.134,0,0,0,214.834,17.137ZM229.961,22h-3.076V20.477h-.049a3.49,3.49,0,0,1-3.057,1.768q-3.477,0-3.477-4.209V12h3.076v5.762q0,2.119,1.68,2.119a1.661,1.661,0,0,0,1.328-.581,2.343,2.343,0,0,0,.5-1.577V12h3.076Zm10.176-.361a6.1,6.1,0,0,1-3.018.605,5.1,5.1,0,0,1-3.73-1.4,4.823,4.823,0,0,1-1.426-3.6,5.313,5.313,0,0,1,1.528-4.019,5.648,5.648,0,0,1,4.087-1.47,5.244,5.244,0,0,1,2.559.469v2.617a3.518,3.518,0,0,0-2.158-.723,2.844,2.844,0,0,0-2.1.776,2.9,2.9,0,0,0-.776,2.144,2.85,2.85,0,0,0,.742,2.085,2.728,2.728,0,0,0,2.041.757,4.073,4.073,0,0,0,2.256-.723Zm9.6,0a6.1,6.1,0,0,1-3.018.605,5.1,5.1,0,0,1-3.73-1.4,4.823,4.823,0,0,1-1.426-3.6,5.313,5.313,0,0,1,1.528-4.019,5.648,5.648,0,0,1,4.087-1.47,5.244,5.244,0,0,1,2.559.469v2.617a3.518,3.518,0,0,0-2.158-.723,2.844,2.844,0,0,0-2.1.776,2.9,2.9,0,0,0-.776,2.144,2.85,2.85,0,0,0,.742,2.085,2.728,2.728,0,0,0,2.041.757,4.073,4.073,0,0,0,2.256-.723Zm3.584-11.221a1.8,1.8,0,0,1-1.279-.464,1.5,1.5,0,0,1-.5-1.138,1.441,1.441,0,0,1,.5-1.133,2.089,2.089,0,0,1,2.563,0,1.448,1.448,0,0,1,.493,1.133,1.489,1.489,0,0,1-.493,1.152A1.833,1.833,0,0,1,253.32,10.418ZM254.844,22h-3.086V12h3.086Zm7.363.244a5.376,5.376,0,0,1-3.931-1.4,5.081,5.081,0,0,1-1.431-3.8,5.081,5.081,0,0,1,1.484-3.882,5.609,5.609,0,0,1,4.014-1.4,5.311,5.311,0,0,1,3.906,1.4,4.981,4.981,0,0,1,1.416,3.706,5.288,5.288,0,0,1-1.46,3.936A5.435,5.435,0,0,1,262.207,22.244Zm.078-8.125a2.058,2.058,0,0,0-1.7.752A3.316,3.316,0,0,0,259.98,17q0,2.881,2.324,2.881,2.217,0,2.217-2.959Q264.521,14.119,262.285,14.119ZM265.6,7.264l-3.057,3.154h-2.227l2.539-3.154ZM279.316,22H276.24V16.443q0-2.324-1.66-2.324a1.647,1.647,0,0,0-1.318.615,2.344,2.344,0,0,0-.518,1.563V22h-3.086V12h3.086v1.582h.039A3.536,3.536,0,0,1,276,11.756q3.32,0,3.32,4.121Z" transform="translate(576 12481.5)" fill="#002b45"/>
    <path id="Trazado_20170" data-name="Trazado 20170" d="M79.17,22.244a6.519,6.519,0,0,1-4.9-1.958,7.029,7.029,0,0,1-1.895-5.1A7.532,7.532,0,0,1,74.3,9.813a6.661,6.661,0,0,1,5.1-2.051,6.356,6.356,0,0,1,4.849,1.963A7.237,7.237,0,0,1,86.094,14.9a7.412,7.412,0,0,1-1.919,5.322A6.586,6.586,0,0,1,79.17,22.244Zm.137-11.768a3.175,3.175,0,0,0-2.637,1.245,5.191,5.191,0,0,0-.977,3.3,5.1,5.1,0,0,0,.977,3.291,3.37,3.37,0,0,0,5.146.034,5.04,5.04,0,0,0,.957-3.267,5.461,5.461,0,0,0-.928-3.389A3.025,3.025,0,0,0,79.307,10.477ZM91.24,20.838H91.2V22H88.115V7.2H91.2V13.5h.039a3.662,3.662,0,0,1,3.252-1.748,3.568,3.568,0,0,1,2.979,1.328,5.727,5.727,0,0,1,1.045,3.633,6.2,6.2,0,0,1-1.221,4.014,3.976,3.976,0,0,1-3.262,1.514A3.151,3.151,0,0,1,91.24,20.838Zm-.088-4.219v1.025a2.341,2.341,0,0,0,.557,1.6,1.811,1.811,0,0,0,1.426.635,1.892,1.892,0,0,0,1.636-.815,3.937,3.937,0,0,0,.581-2.31,3.132,3.132,0,0,0-.532-1.938,1.8,1.8,0,0,0-1.519-.7,1.962,1.962,0,0,0-1.538.693A2.634,2.634,0,0,0,91.152,16.619Zm10.928-6.2a1.8,1.8,0,0,1-1.279-.464,1.5,1.5,0,0,1-.5-1.138,1.441,1.441,0,0,1,.5-1.133,2.089,2.089,0,0,1,2.563,0,1.448,1.448,0,0,1,.493,1.133,1.489,1.489,0,0,1-.493,1.152A1.833,1.833,0,0,1,102.08,10.418ZM103.6,21.824a5.436,5.436,0,0,1-1.084,3.545A3.8,3.8,0,0,1,99.395,26.7,4.321,4.321,0,0,1,97.92,26.4V23.982a2.4,2.4,0,0,0,1.143.361q1.455,0,1.455-2.285V12H103.6Zm11.582-3.945h-6.523q.156,2.178,2.744,2.178a5.357,5.357,0,0,0,2.9-.781V21.5a7.619,7.619,0,0,1-3.6.742,5.073,5.073,0,0,1-3.76-1.343,5.073,5.073,0,0,1-1.338-3.745,5.352,5.352,0,0,1,1.445-3.945,4.815,4.815,0,0,1,3.555-1.455,4.37,4.37,0,0,1,3.384,1.3,5,5,0,0,1,1.2,3.525Zm-2.861-1.895q0-2.148-1.738-2.148a1.66,1.66,0,0,0-1.284.615,2.792,2.792,0,0,0-.659,1.533Zm10.742,5.9a4.561,4.561,0,0,1-2.061.361q-3.262,0-3.262-3.389v-4.58h-1.621V12h1.621V9.842l3.076-.879V12h2.246v2.275H120.82v4.043q0,1.562,1.24,1.563a2.091,2.091,0,0,0,1.006-.283Zm3.3-11.465a1.8,1.8,0,0,1-1.279-.464,1.5,1.5,0,0,1-.5-1.138,1.441,1.441,0,0,1,.5-1.133,2.089,2.089,0,0,1,2.563,0,1.448,1.448,0,0,1,.493,1.133,1.489,1.489,0,0,1-.493,1.152A1.833,1.833,0,0,1,126.367,10.418ZM127.891,22H124.8V12h3.086ZM140.01,12l-3.721,10h-3.516l-3.545-10h3.3l1.738,6.162a9,9,0,0,1,.342,1.777h.039a10.087,10.087,0,0,1,.361-1.719L136.787,12ZM145.9,22.244a5.376,5.376,0,0,1-3.931-1.4,5.081,5.081,0,0,1-1.431-3.8,5.081,5.081,0,0,1,1.484-3.882,5.609,5.609,0,0,1,4.014-1.4,5.311,5.311,0,0,1,3.906,1.4,4.981,4.981,0,0,1,1.416,3.706A5.288,5.288,0,0,1,149.9,20.8,5.435,5.435,0,0,1,145.9,22.244Zm.078-8.125a2.058,2.058,0,0,0-1.7.752A3.316,3.316,0,0,0,143.672,17q0,2.881,2.324,2.881,2.217,0,2.217-2.959Q148.213,14.119,145.977,14.119Zm6.729,7.617v-2.5a6.57,6.57,0,0,0,1.519.684,5.035,5.035,0,0,0,1.431.225,3.068,3.068,0,0,0,1.294-.225.726.726,0,0,0,.474-.684.632.632,0,0,0-.215-.488,2,2,0,0,0-.552-.342,6.262,6.262,0,0,0-.737-.264q-.4-.117-.771-.264a7.392,7.392,0,0,1-1.05-.483,3.034,3.034,0,0,1-.762-.6,2.361,2.361,0,0,1-.469-.791,3.157,3.157,0,0,1-.161-1.064,2.74,2.74,0,0,1,.366-1.445,2.991,2.991,0,0,1,.977-.991,4.462,4.462,0,0,1,1.4-.566,7.281,7.281,0,0,1,1.636-.181,9.076,9.076,0,0,1,1.348.1,10.058,10.058,0,0,1,1.348.3v2.383a4.87,4.87,0,0,0-1.255-.513,5.294,5.294,0,0,0-1.313-.171,2.91,2.91,0,0,0-.571.054,1.882,1.882,0,0,0-.474.156.87.87,0,0,0-.322.264.607.607,0,0,0-.117.366.677.677,0,0,0,.176.469,1.527,1.527,0,0,0,.459.337,4.531,4.531,0,0,0,.63.254q.347.112.688.229a8.951,8.951,0,0,1,1.113.469,3.559,3.559,0,0,1,.854.6,2.339,2.339,0,0,1,.547.8,3.2,3.2,0,0,1-.2,2.612,3.088,3.088,0,0,1-1.025,1.025,4.65,4.65,0,0,1-1.475.576,8.175,8.175,0,0,1-1.733.181A8.936,8.936,0,0,1,152.705,21.736Zm22.549-.1a6.1,6.1,0,0,1-3.018.605,5.1,5.1,0,0,1-3.73-1.4,4.823,4.823,0,0,1-1.426-3.6,5.313,5.313,0,0,1,1.528-4.019,5.648,5.648,0,0,1,4.087-1.47,5.244,5.244,0,0,1,2.559.469v2.617a3.518,3.518,0,0,0-2.158-.723,2.844,2.844,0,0,0-2.1.776,2.9,2.9,0,0,0-.776,2.144,2.85,2.85,0,0,0,.742,2.085,2.728,2.728,0,0,0,2.041.757,4.073,4.073,0,0,0,2.256-.723Zm6.787.605a5.376,5.376,0,0,1-3.931-1.4,5.081,5.081,0,0,1-1.431-3.8,5.081,5.081,0,0,1,1.484-3.882,5.609,5.609,0,0,1,4.014-1.4,5.311,5.311,0,0,1,3.906,1.4,4.981,4.981,0,0,1,1.416,3.706,5.288,5.288,0,0,1-1.46,3.936A5.435,5.435,0,0,1,182.041,22.244Zm.078-8.125a2.058,2.058,0,0,0-1.7.752A3.316,3.316,0,0,0,179.814,17q0,2.881,2.324,2.881,2.217,0,2.217-2.959Q184.355,14.119,182.119,14.119ZM205.381,22H202.3V16.3q0-2.178-1.6-2.178a1.471,1.471,0,0,0-1.24.654,2.689,2.689,0,0,0-.479,1.631V22H195.9V16.238q0-2.119-1.572-2.119a1.507,1.507,0,0,0-1.265.625,2.75,2.75,0,0,0-.474,1.7V22H189.5V12h3.086v1.563h.039a3.789,3.789,0,0,1,3.232-1.807,2.88,2.88,0,0,1,2.9,1.865,3.7,3.7,0,0,1,3.359-1.865q3.262,0,3.262,4.023Zm5.566-1.162h-.039V26.6h-3.086V12h3.086v1.5h.039a3.927,3.927,0,0,1,6.216-.415,5.676,5.676,0,0,1,1.06,3.628,6.152,6.152,0,0,1-1.235,4.014,4.028,4.028,0,0,1-3.286,1.514A3.114,3.114,0,0,1,210.947,20.838Zm-.088-4.1v.8a2.546,2.546,0,0,0,.547,1.689,1.78,1.78,0,0,0,1.436.654,1.892,1.892,0,0,0,1.636-.815,3.937,3.937,0,0,0,.581-2.31q0-2.637-2.051-2.637a1.926,1.926,0,0,0-1.548.718A2.863,2.863,0,0,0,210.859,16.736Zm18.35,1.143h-6.523q.156,2.178,2.744,2.178a5.357,5.357,0,0,0,2.9-.781V21.5a7.62,7.62,0,0,1-3.6.742,5.073,5.073,0,0,1-3.76-1.343,5.073,5.073,0,0,1-1.338-3.745,5.351,5.351,0,0,1,1.445-3.945,4.815,4.815,0,0,1,3.555-1.455,4.37,4.37,0,0,1,3.384,1.3,5,5,0,0,1,1.2,3.525Zm-2.861-1.895q0-2.148-1.738-2.148a1.66,1.66,0,0,0-1.284.615,2.792,2.792,0,0,0-.659,1.533Zm10.742,5.9a4.561,4.561,0,0,1-2.061.361q-3.262,0-3.262-3.389v-4.58h-1.621V12h1.621V9.842l3.076-.879V12h2.246v2.275h-2.246v4.043q0,1.562,1.24,1.563a2.091,2.091,0,0,0,1.006-.283Zm3.3-11.465a1.8,1.8,0,0,1-1.279-.464,1.5,1.5,0,0,1-.5-1.138,1.441,1.441,0,0,1,.5-1.133,2.089,2.089,0,0,1,2.563,0,1.448,1.448,0,0,1,.493,1.133,1.489,1.489,0,0,1-.493,1.152A1.833,1.833,0,0,1,240.391,10.418ZM241.914,22h-3.086V12h3.086Zm8.643-.117a4.561,4.561,0,0,1-2.061.361q-3.262,0-3.262-3.389v-4.58h-1.621V12h1.621V9.842l3.076-.879V12h2.246v2.275h-2.246v4.043q0,1.562,1.24,1.563a2.091,2.091,0,0,0,1.006-.283Zm3.3-11.465a1.8,1.8,0,0,1-1.279-.464,1.5,1.5,0,0,1-.5-1.138,1.441,1.441,0,0,1,.5-1.133,2.089,2.089,0,0,1,2.563,0,1.448,1.448,0,0,1,.493,1.133,1.489,1.489,0,0,1-.493,1.152A1.833,1.833,0,0,1,253.857,10.418ZM255.381,22h-3.086V12h3.086ZM267.5,12l-3.721,10h-3.516l-3.545-10h3.3l1.738,6.162a9,9,0,0,1,.342,1.777h.039a10.085,10.085,0,0,1,.361-1.719L264.277,12Zm5.889,10.244a5.376,5.376,0,0,1-3.931-1.4,5.081,5.081,0,0,1-1.431-3.8,5.081,5.081,0,0,1,1.484-3.882,5.609,5.609,0,0,1,4.014-1.4,5.311,5.311,0,0,1,3.906,1.4,4.981,4.981,0,0,1,1.416,3.706,5.288,5.288,0,0,1-1.46,3.936A5.435,5.435,0,0,1,273.389,22.244Zm.078-8.125a2.058,2.058,0,0,0-1.7.752A3.316,3.316,0,0,0,271.162,17q0,2.881,2.324,2.881,2.217,0,2.217-2.959Q275.7,14.119,273.467,14.119Zm6.729,7.617v-2.5a6.57,6.57,0,0,0,1.519.684,5.035,5.035,0,0,0,1.431.225,3.068,3.068,0,0,0,1.294-.225.726.726,0,0,0,.474-.684.632.632,0,0,0-.215-.488,2,2,0,0,0-.552-.342,6.261,6.261,0,0,0-.737-.264q-.4-.117-.771-.264a7.392,7.392,0,0,1-1.05-.483,3.034,3.034,0,0,1-.762-.6,2.361,2.361,0,0,1-.469-.791,3.157,3.157,0,0,1-.161-1.064,2.74,2.74,0,0,1,.366-1.445,2.991,2.991,0,0,1,.977-.991,4.462,4.462,0,0,1,1.4-.566,7.281,7.281,0,0,1,1.636-.181,9.076,9.076,0,0,1,1.348.1,10.059,10.059,0,0,1,1.348.3v2.383a4.87,4.87,0,0,0-1.255-.513,5.293,5.293,0,0,0-1.313-.171,2.91,2.91,0,0,0-.571.054,1.881,1.881,0,0,0-.474.156.87.87,0,0,0-.322.264.607.607,0,0,0-.117.366.677.677,0,0,0,.176.469,1.527,1.527,0,0,0,.459.337,4.532,4.532,0,0,0,.63.254q.347.112.688.229a8.951,8.951,0,0,1,1.113.469,3.56,3.56,0,0,1,.854.6,2.339,2.339,0,0,1,.547.8,3.2,3.2,0,0,1-.2,2.612,3.089,3.089,0,0,1-1.025,1.025,4.65,4.65,0,0,1-1.475.576,8.175,8.175,0,0,1-1.733.181A8.936,8.936,0,0,1,280.2,21.736Z" transform="translate(576 12611.5)" fill="#002b45"/>
    <rect id="Rectángulo_3558" data-name="Rectángulo 3558" width="20" height="91" transform="translate(556 11930)" fill="#9ec855"/>
    <rect id="Rectángulo_3560" data-name="Rectángulo 3560" width="20" height="91" transform="translate(556 12060)" fill="#ffc800"/>
    <rect id="Rectángulo_3562" data-name="Rectángulo 3562" width="20" height="91" transform="translate(556 12190)" fill="#00c3d2"/>
    <rect id="Rectángulo_3564" data-name="Rectángulo 3564" width="20" height="91" transform="translate(556 12320)" fill="#6b8d9c"/>
    <rect id="Rectángulo_3566" data-name="Rectángulo 3566" width="20" height="91" transform="translate(556 12450)" fill="#ff8f56"/>
    <rect id="Rectángulo_3568" data-name="Rectángulo 3568" width="20" height="91" transform="translate(556 12580)" fill="#b33fc4"/>
    <line id="Línea_192" data-name="Línea 192" x2="113" transform="translate(443.5 11975.5)" fill="none" stroke="#cbd9e4" stroke-width="3"/>
    <line id="Línea_193" data-name="Línea 193" x2="113" transform="translate(443.5 12105.5)" fill="none" stroke="#cbd9e4" stroke-width="3"/>
    <line id="Línea_194" data-name="Línea 194" x2="113" transform="translate(443.5 12235.5)" fill="none" stroke="#cbd9e4" stroke-width="3"/>
    <line id="Línea_195" data-name="Línea 195" x2="113" transform="translate(443.5 12364.5)" fill="none" stroke="#cbd9e4" stroke-width="3"/>
    <line id="Línea_196" data-name="Línea 196" x2="113" transform="translate(443.5 12494.5)" fill="none" stroke="#cbd9e4" stroke-width="3"/>
    <line id="Línea_197" data-name="Línea 197" x2="113" transform="translate(443.5 12624.5)" fill="none" stroke="#cbd9e4" stroke-width="3"/>
  </g>
</svg>
