<svg xmlns="http://www.w3.org/2000/svg" width="487" height="178.246" viewBox="0 0 487 178.246">
  <g id="Grupo_19682" data-name="Grupo 19682" transform="translate(-443 -2662.461)">
    <path id="Trazado_17674" data-name="Trazado 17674" d="M485.894,146.246a29.71,29.71,0,0,1-29.622,29.617H45.163a29.707,29.707,0,0,1-29.611-29.617l-.1-102.458A29.706,29.706,0,0,1,45.071,14.171H456.181a29.7,29.7,0,0,1,29.611,29.617Z" transform="translate(435.828 2656.567)" fill="#e72539" fill-rule="evenodd"/>
    <path id="Trazado_17675" data-name="Trazado 17675" d="M337.865,72.506c.85,0,.93.171.93,1.1,0,8.367-7.859,15.467-14.03,15.467-3.981,0-6.764-2.532-6.764-6.171,0-6.085,8.2-10.4,19.864-10.4M311.91,44.943c-3.547,1.443-3.969,2.458-2.281,5.92l1.774,3.553c1.181,2.452,2.789,2.452,6.764.679a29.142,29.142,0,0,1,12.262-3.045c6.165,0,7.859,4.141,7.945,8.538,0,.93-.086,1.1-.844,1.1-22.739,2.458-31.79,8.714-31.79,22.066,0,11,8.121,16.4,16.659,16.4a18.4,18.4,0,0,0,14.2-6.336c1.192-1.357,1.95-1.021,2.2.844l.171,1.688c.251,1.859.759,2.2,3.04,2.2h5.327c2.96,0,3.975-.587,3.975-2.532,0-1.352-.85-4.312-.85-8.2v-27.9c0-14.709-9.456-19.186-21.13-19.186-5.07,0-10.4,1.352-17.418,4.22m-20.537,6.091c-2.458.673-2.88,1.352-2.88,5.327V93.979c0,4.141.336,4.563,3.89,4.563h4.648c3.639,0,3.975-.422,3.975-4.563V54.587c0-5.241-.884-6.148-4.226-5.161ZM77.4,25.922c-3.211-1.517-4.563-1.1-6.005,2.116L40.62,93.9c-1.523,3.291-.508,4.642,3.553,4.642h6.091c2.954,0,3.547-.587,4.9-3.8l3.217-7.528c.587-1.266.759-1.352,1.517-1.352H79.676c2.373,0,2.458.086,2.709,1.437l1.352,7.443c.508,2.789.85,3.8,4.648,3.8h6.171c3.639,0,4.4-.844,3.473-4.728l-13.191-61.8c-.593-2.538-.593-2.538-4.306-4.568ZM103.013,42.41V93.979c0,4.141.342,4.563,3.89,4.563h4.654c3.633,0,3.969-.422,3.969-4.563V46.893c0-3.89-.553-4.756-3.211-6.005L108,38.863c-3.553-1.614-4.99-.593-4.99,3.547M75.455,50.189l4.22,22.317c.171.679-.165,1.352-1.352,1.352H65.731c-1.009,0-1.272-.337-1.009-1.015L74.862,50.1c.251-.508.508-.422.593.086M141.476,66c6.6.08,9.9,3.975,9.9,11.5,0,7.186-3.553,11.834-9.045,11.834-5.663,0-9.387-4.739-9.387-12.085,0-7.363,3.046-11.418,8.538-11.247m9.73,48.688c0,4.146.336,4.568,3.969,4.568h4.061c3.553,0,3.884-.422,3.884-4.568V60.837c0-4.306-.086-4.648-3.376-5.321l-3.975-.764c-2.367-.587-3.468.257-3.468,2.709,0,1.688-.336,2.025-1.181,1.346-3.388-2.783-8.03-3.884-12.091-3.884-10.99,0-17.754,8.538-17.754,22.322,0,13.688,7.357,22.9,18.342,22.9a20.845,20.845,0,0,0,10.4-2.789c.85-.593,1.192-.508,1.192.337ZM196.6,65.913V78c0,7.694-2.874,11.492-8.623,11.492q-7.092,0-7.1-10.391V63.632c0-3.217-.422-3.9-2.789-4.483l-4.4-1.015c-2.96-.759-4.226.336-4.226,3.633v18.6c0,12.342,5.834,19.779,15.638,19.779,4.654,0,9.216-1.945,11.5-5.492.508-.93.6-.171.6.171v1.266c0,1.859.844,2.447,2.869,2.447h3.3c4.4,0,4.734-.336,4.734-4.563V65.828c0-4.226-.251-4.568-3.975-4.568h-3.633c-3.633,0-3.89.342-3.89,4.654M270.4,93.979V76.818c0-6.507,3.855-8.72,10.226-10.317,2.966-.673,3.3-1.266,3.3-4.819v-6.5c0-1.523-.422-2.122-1.865-2.122a12.4,12.4,0,0,0-11.578,8.965c-.251.844-.844,1.272-.844.257V58.642c0-2.03-.759-2.452-3.468-2.03l-3.3.593c-4.232.844-4.483,1.1-4.483,5.412V93.979c0,4.141.336,4.563,3.975,4.563h4.055c3.639,0,3.975-.422,3.975-4.563m38.719-63.91A7.11,7.11,0,0,0,301.85,22.8c-7.186,0-13.186,7.18-13.186,15.895,0,2.96.5,4.648,1.352,4.648,1.523,0,3.975-4.055,11.5-5.583,3.382-.673,7.608-2.447,7.608-7.688M234.558,68.7c4.226,0,7.437,2.2,8.03,5.327.086.673-.086,1.181-.758,1.266l-16.739,1.1c-.593,0-.764-.337-.679-1.181.508-3.884,4.654-6.507,10.146-6.507m-9.131,15.553,24.1-1.523c3.125-.165,3.719-.587,3.719-3.462,0-12.769-6.256-19.191-18.684-19.191-13.271,0-21.051,7.608-21.051,20.714,0,12.256,7.614,19.357,20.628,19.357,5.914,0,11.412-1.437,15.131-3.89,3.131-2.025,3.382-3.04,1.181-5.07L247.321,88.4c-1.009-1.015-1.774-1.015-3.468.086a20.031,20.031,0,0,1-10.562,2.783c-3.553,0-7.614-2.361-8.623-5.572-.257-.679-.342-1.357.759-1.443" transform="translate(551.053 2697.137)" fill="#fff"/>
    <path id="Trazado_17676" data-name="Trazado 17676" d="M26.231,87.772a2.966,2.966,0,1,0-2.966,2.96,2.965,2.965,0,0,0,2.966-2.96m31.755,32.257a3.9,3.9,0,1,0,3.9,3.9,3.9,3.9,0,0,0-3.9-3.9M40.324,58.069a2.258,2.258,0,1,0-2.258-2.258,2.261,2.261,0,0,0,2.258,2.258M85.527,26.9a2.5,2.5,0,1,0-2.492-2.5,2.5,2.5,0,0,0,2.492,2.5m-38.3,20.383a4.8,4.8,0,1,0-4.791-4.8,4.8,4.8,0,0,0,4.791,4.8M128.011,29.5a2.678,2.678,0,1,0-2.675-2.675,2.676,2.676,0,0,0,2.675,2.675m-26.948-1.4a5.39,5.39,0,1,0-5.39-5.39,5.385,5.385,0,0,0,5.39,5.39m25.026,47.593c-6.935.884-12.148-3.057-12.336-9.33a23.616,23.616,0,0,1,3.1-13.015c2.4-4.8-2.949-10.152-8.606-4.118-.73.536-1.4,1.831-2.5,1.255-1.215-.6-.587-2.492-1.078-3.947-.525-1.563-2.629-2.983-3.764-1.471-.587.787.234,1.551-.713,1.551-.861,0-2.857-2.4-3.941-2.943-5.561-2.8-10.614.359-14.15,4.118-1,.992-.724-1.255-2.15-1.255a2.509,2.509,0,0,0-2.384,2.629c0,1.186.451,2.162-.49,2.926-1.357.536-1.785-.776-2.327-1.249-6.319-6.5-13.271.148-10.568,4.477A19.426,19.426,0,0,0,67.4,59.8c1.175,1.352,3.051,2.8,3.582,4.123,1.238,3.028-.034,6.7-1.255,9.137-1.146,2.287-4.6,6.564-6.621,7.882-1.671,1.084-3.462,1.272-4.306,2.863-.89,1.682-1.671,9.427.719,11.11.947.662,3,.747,4.118,1.072,2.065.6,4.112,1.865,5.914,2.333a21.012,21.012,0,0,0,5.4.291,10.418,10.418,0,0,1,1.118-.023,12.864,12.864,0,0,1,12.142,14.309c-.65,5.829-5.3,10.163-11.053,11.27-5.486,1.055-10.4-3.93-12.741-6.69,0,0-.6-.65-.935-.947a7.858,7.858,0,0,0-5.475-2.2c-2.926.006-5.133,1.523-6.85,3.947A16.593,16.593,0,1,1,28.1,94.844c.137-.182,8.207-5.857-.433-15.136l-.091-.108c-.291-.319-.593-.622-.913-.918-.091-.1-.188-.2-.285-.3-.359-.354-.73-.7-1.118-1.021a13.619,13.619,0,0,1-3.137-3.736,14.528,14.528,0,0,1-1.449-3.718c-.04-.16-.068-.308-.1-.456a14.839,14.839,0,0,1-.262-3.445A14.587,14.587,0,0,1,20.42,64.3a6.453,6.453,0,0,1,10.431-4.876l.017.011c.08.063.16.137.234.2l.011.011c.068.057.137.12.2.183l.023.017c.074.074.148.143.211.211a6.42,6.42,0,0,1,1.779,4.454l-.011.074a6.469,6.469,0,0,1-.148,1.312L31.935,73.65l-.154,1.044a2.263,2.263,0,0,0-.023.519,2.211,2.211,0,0,0,.713,1.477l.057.057.08.057.108.08.023.023a2.53,2.53,0,0,0,.411.211l.017.006.12.046.086.023.086.029.2.04h.011l.217.017H33.9c.074,0,.143,0,.217-.006h.017a2.247,2.247,0,0,0,2.082-1.939C36.223,75.3,38.065,60.79,54,50.518c4.962-3.194,7.283-9.285,7.283-15.182v-2.76a5.814,5.814,0,0,1,5.812-5.812,5.476,5.476,0,0,1,4.859,3.81,4.253,4.253,0,0,1,.011,2.777,5.013,5.013,0,0,1-1.283,2.2l-4.751,4.688a1.926,1.926,0,0,0,2.72,2.726l.525-.781c.046-.086.1-.177.148-.262a20.368,20.368,0,0,1,26.891-9.935,23.186,23.186,0,0,0,17.246,1.363,22.325,22.325,0,0,1,27.963,14.663c3.724,11.908-3.3,26.143-15.336,27.678" transform="translate(458.643 2671.377)" fill="#fff"/>
    <path id="Trazado_17677" data-name="Trazado 17677" d="M499.07,49.789A36.94,36.94,0,0,0,462.176,12.9H51.067A36.938,36.938,0,0,0,14.173,49.8l.1,102.447a36.936,36.936,0,0,0,36.894,36.894H462.273a36.941,36.941,0,0,0,36.9-36.894Zm-36.8,132.075H51.164a29.706,29.706,0,0,1-29.617-29.622l-.1-102.452A29.7,29.7,0,0,1,51.067,20.178H462.176a29.7,29.7,0,0,1,29.617,29.611l.1,102.452a29.707,29.707,0,0,1-29.622,29.622" transform="translate(429.827 2650.566)" fill="none" stroke="#e72539" stroke-width="2"/>
  </g>
</svg>
