<svg xmlns="http://www.w3.org/2000/svg" width="564" height="564" viewBox="0 0 564 564">
  <g id="Grupo_26516" data-name="Grupo 26516" transform="translate(-417 -1034)">
    <path id="Trazado_20886" data-name="Trazado 20886" d="M10,0H243a10,10,0,0,1,10,10V213c0,5.523-34.477,40-40,40H10A10,10,0,0,1,0,243V10A10,10,0,0,1,10,0Z" transform="translate(417 1034)" fill="#97181a" opacity="0.2"/>
    <path id="Trazado_20888" data-name="Trazado 20888" d="M10,0H243a10,10,0,0,1,10,10V243a10,10,0,0,1-10,10H40c-5.523,0-40-34.477-40-40V10A10,10,0,0,1,10,0Z" transform="translate(728 1034)" fill="#ff8f00" opacity="0.2"/>
    <path id="Trazado_20887" data-name="Trazado 20887" d="M10,0H213c5.523,0,40,34.477,40,40V243a10,10,0,0,1-10,10H10A10,10,0,0,1,0,243V10A10,10,0,0,1,10,0Z" transform="translate(417 1345)" fill="#b52426" opacity="0.2"/>
    <path id="Trazado_20889" data-name="Trazado 20889" d="M40,0H243a10,10,0,0,1,10,10V243a10,10,0,0,1-10,10H10A10,10,0,0,1,0,243V40C0,34.477,34.477,0,40,0Z" transform="translate(728 1345)" fill="#d64626" opacity="0.2"/>
    <path id="Trazado_20924" data-name="Trazado 20924" d="M4.619-5.511V0H1.4V-15.641H7.5A7.059,7.059,0,0,1,10.6-15a4.75,4.75,0,0,1,2.057,1.832,5.107,5.107,0,0,1,.72,2.7A4.491,4.491,0,0,1,11.8-6.837,6.555,6.555,0,0,1,7.444-5.511Zm0-2.61H7.5a2.831,2.831,0,0,0,1.95-.6,2.188,2.188,0,0,0,.671-1.719A2.58,2.58,0,0,0,9.442-12.3a2.528,2.528,0,0,0-1.869-.73H4.619Zm17.295-.591A8.434,8.434,0,0,0,20.8-8.8a2.274,2.274,0,0,0-2.31,1.192V0h-3.1V-11.623h2.933l.086,1.386a2.877,2.877,0,0,1,2.589-1.6,3.253,3.253,0,0,1,.967.14Zm.623,2.793A6.893,6.893,0,0,1,23.2-9,4.876,4.876,0,0,1,25.121-11.1a5.594,5.594,0,0,1,2.906-.741,5.293,5.293,0,0,1,3.84,1.439,5.777,5.777,0,0,1,1.66,3.91l.021.795A6.075,6.075,0,0,1,32.055-1.4,5.19,5.19,0,0,1,28.048.215,5.216,5.216,0,0,1,24.036-1.4a6.182,6.182,0,0,1-1.5-4.383Zm3.1.22a4.345,4.345,0,0,0,.623,2.534,2.055,2.055,0,0,0,1.783.877,2.06,2.06,0,0,0,1.762-.866,4.754,4.754,0,0,0,.634-2.77,4.3,4.3,0,0,0-.634-2.518,2.06,2.06,0,0,0-1.783-.893,2.027,2.027,0,0,0-1.762.888A4.834,4.834,0,0,0,25.642-5.7Zm9.335-.2A7,7,0,0,1,36.2-10.227a3.956,3.956,0,0,1,3.335-1.611,3.56,3.56,0,0,1,2.8,1.268V-16.5H45.45V0h-2.8L42.5-1.235A3.653,3.653,0,0,1,39.51.215,3.945,3.945,0,0,1,36.217-1.4,7.23,7.23,0,0,1,34.977-5.9Zm3.1.231A4.588,4.588,0,0,0,38.65-3.16a1.855,1.855,0,0,0,1.654.871A2.077,2.077,0,0,0,42.335-3.5V-8.1a2.048,2.048,0,0,0-2.009-1.216Q38.081-9.313,38.081-5.666ZM54.817-1.182a3.893,3.893,0,0,1-3.18,1.4A3.672,3.672,0,0,1,48.786-.859a4.586,4.586,0,0,1-1-3.147v-7.616h3.1v7.518q0,1.817,1.654,1.817a2.242,2.242,0,0,0,2.17-1.1v-8.238h3.115V0H54.9ZM65-2.288a2.036,2.036,0,0,0,1.4-.473,1.656,1.656,0,0,0,.559-1.257h2.911a3.982,3.982,0,0,1-.645,2.165A4.253,4.253,0,0,1,67.488-.328a5.43,5.43,0,0,1-2.433.542A5.046,5.046,0,0,1,61.123-1.37a6.27,6.27,0,0,1-1.439-4.377v-.2a6.2,6.2,0,0,1,1.429-4.286,4.987,4.987,0,0,1,3.921-1.6,4.889,4.889,0,0,1,3.5,1.241,4.393,4.393,0,0,1,1.337,3.3H66.956A2.133,2.133,0,0,0,66.4-8.768a1.862,1.862,0,0,0-1.418-.567,1.87,1.87,0,0,0-1.638.791,4.583,4.583,0,0,0-.553,2.566v.323a4.641,4.641,0,0,0,.548,2.582A1.893,1.893,0,0,0,65-2.288ZM75.356-14.48v2.857h1.987v2.277H75.356v5.8a1.385,1.385,0,0,0,.247.924,1.241,1.241,0,0,0,.945.279,4.951,4.951,0,0,0,.913-.075V-.064a6.391,6.391,0,0,1-1.88.279q-3.266,0-3.33-3.3V-9.346h-1.7v-2.277h1.7V-14.48Zm2.911,8.562A6.893,6.893,0,0,1,78.934-9,4.876,4.876,0,0,1,80.851-11.1a5.594,5.594,0,0,1,2.906-.741A5.293,5.293,0,0,1,87.6-10.4a5.777,5.777,0,0,1,1.66,3.91l.021.795A6.075,6.075,0,0,1,87.785-1.4,5.19,5.19,0,0,1,83.778.215,5.216,5.216,0,0,1,79.766-1.4a6.182,6.182,0,0,1-1.5-4.383Zm3.1.22A4.345,4.345,0,0,0,82-3.165a2.055,2.055,0,0,0,1.783.877,2.06,2.06,0,0,0,1.762-.866,4.754,4.754,0,0,0,.634-2.77,4.3,4.3,0,0,0-.634-2.518,2.06,2.06,0,0,0-1.783-.893A2.027,2.027,0,0,0,82-8.447,4.834,4.834,0,0,0,81.372-5.7Z" transform="translate(447 1088)" fill="#002b45"/>
    <path id="Trazado_20925" data-name="Trazado 20925" d="M-59.028-5.511V0h-3.223V-15.641h6.1a7.059,7.059,0,0,1,3.1.645,4.75,4.75,0,0,1,2.057,1.832,5.107,5.107,0,0,1,.72,2.7,4.491,4.491,0,0,1-1.574,3.625A6.555,6.555,0,0,1-56.2-5.511Zm0-2.61h2.879a2.831,2.831,0,0,0,1.95-.6,2.188,2.188,0,0,0,.671-1.719,2.58,2.58,0,0,0-.677-1.858,2.528,2.528,0,0,0-1.869-.73h-2.954Zm17.295-.591A8.434,8.434,0,0,0-42.851-8.8a2.274,2.274,0,0,0-2.31,1.192V0h-3.1V-11.623h2.933l.086,1.386a2.877,2.877,0,0,1,2.589-1.6,3.253,3.253,0,0,1,.967.14ZM-35.095.215a5.706,5.706,0,0,1-4.163-1.568,5.575,5.575,0,0,1-1.606-4.179v-.3a7.021,7.021,0,0,1,.677-3.131,4.967,4.967,0,0,1,1.917-2.127,5.382,5.382,0,0,1,2.831-.747,4.824,4.824,0,0,1,3.754,1.5,6.111,6.111,0,0,1,1.37,4.265V-4.8h-7.4a2.884,2.884,0,0,0,.908,1.826,2.744,2.744,0,0,0,1.917.688,3.351,3.351,0,0,0,2.8-1.3l1.525,1.708A4.66,4.66,0,0,1-32.452-.338,6.2,6.2,0,0,1-35.095.215Zm-.354-9.55a1.94,1.94,0,0,0-1.5.626,3.241,3.241,0,0,0-.736,1.791h4.318v-.248a2.311,2.311,0,0,0-.559-1.6A2,2,0,0,0-35.449-9.335Zm11.73,7.047a2.036,2.036,0,0,0,1.4-.473,1.656,1.656,0,0,0,.559-1.257h2.911A3.982,3.982,0,0,1-19.5-1.853,4.253,4.253,0,0,1-21.232-.328a5.43,5.43,0,0,1-2.433.542A5.046,5.046,0,0,1-27.6-1.37a6.27,6.27,0,0,1-1.439-4.377v-.2a6.2,6.2,0,0,1,1.429-4.286,4.987,4.987,0,0,1,3.921-1.6,4.889,4.889,0,0,1,3.5,1.241,4.393,4.393,0,0,1,1.337,3.3h-2.911a2.133,2.133,0,0,0-.559-1.474,1.862,1.862,0,0,0-1.418-.567,1.87,1.87,0,0,0-1.638.791,4.583,4.583,0,0,0-.553,2.566v.323a4.641,4.641,0,0,0,.548,2.582A1.893,1.893,0,0,0-23.719-2.288ZM-13.8,0h-3.115V-11.623H-13.8Zm-3.3-14.631a1.529,1.529,0,0,1,.467-1.149,1.755,1.755,0,0,1,1.273-.451,1.759,1.759,0,0,1,1.268.451,1.52,1.52,0,0,1,.473,1.149,1.524,1.524,0,0,1-.478,1.16,1.764,1.764,0,0,1-1.262.451,1.764,1.764,0,0,1-1.262-.451A1.524,1.524,0,0,1-17.1-14.631Zm5.371,8.712A6.893,6.893,0,0,1-11.064-9,4.876,4.876,0,0,1-9.147-11.1a5.594,5.594,0,0,1,2.906-.741A5.293,5.293,0,0,1-2.4-10.4a5.777,5.777,0,0,1,1.66,3.91l.021.795A6.075,6.075,0,0,1-2.213-1.4,5.19,5.19,0,0,1-6.22.215,5.216,5.216,0,0,1-10.232-1.4a6.182,6.182,0,0,1-1.5-4.383Zm3.1.22A4.345,4.345,0,0,0-8-3.165a2.055,2.055,0,0,0,1.783.877,2.06,2.06,0,0,0,1.762-.866,4.754,4.754,0,0,0,.634-2.77,4.3,4.3,0,0,0-.634-2.518,2.06,2.06,0,0,0-1.783-.893A2.027,2.027,0,0,0-8-8.447,4.834,4.834,0,0,0-8.626-5.7Z" transform="translate(952 1088)" fill="#002b45"/>
    <path id="Trazado_20915" data-name="Trazado 20915" d="M-50.187-5.511V0H-53.41V-15.641h6.1a7.059,7.059,0,0,1,3.1.645,4.75,4.75,0,0,1,2.057,1.832,5.107,5.107,0,0,1,.72,2.7,4.491,4.491,0,0,1-1.574,3.625,6.555,6.555,0,0,1-4.356,1.327Zm0-2.61h2.879a2.831,2.831,0,0,0,1.95-.6,2.188,2.188,0,0,0,.671-1.719,2.58,2.58,0,0,0-.677-1.858,2.528,2.528,0,0,0-1.869-.73h-2.954ZM-36.147,0h-3.115V-16.5h3.115Zm9.292,0a3.448,3.448,0,0,1-.312-1.042A3.756,3.756,0,0,1-30.1.215,4.127,4.127,0,0,1-32.93-.773a3.178,3.178,0,0,1-1.123-2.492A3.285,3.285,0,0,1-32.683-6.1a6.758,6.758,0,0,1,3.958-1H-27.3v-.666a1.915,1.915,0,0,0-.414-1.289,1.627,1.627,0,0,0-1.305-.483,1.85,1.85,0,0,0-1.23.376,1.277,1.277,0,0,0-.446,1.031h-3.1A3.119,3.119,0,0,1-33.172-10a4.118,4.118,0,0,1,1.762-1.348,6.42,6.42,0,0,1,2.557-.489,5.073,5.073,0,0,1,3.411,1.08,3.777,3.777,0,0,1,1.262,3.035v5.038a5.557,5.557,0,0,0,.462,2.5V0Zm-2.567-2.159a2.674,2.674,0,0,0,1.268-.306,2.011,2.011,0,0,0,.859-.822v-2h-1.16q-2.331,0-2.481,1.611l-.011.183a1.243,1.243,0,0,0,.408.956A1.586,1.586,0,0,0-29.423-2.159ZM-18.229-2.5h5.683V0h-9.646V-1.891l5.468-7.229h-5.307v-2.5h9.313v1.829ZM-3.867,0a3.447,3.447,0,0,1-.312-1.042A3.756,3.756,0,0,1-7.111.215,4.127,4.127,0,0,1-9.942-.773a3.178,3.178,0,0,1-1.123-2.492A3.285,3.285,0,0,1-9.695-6.1a6.758,6.758,0,0,1,3.958-1h1.429v-.666a1.915,1.915,0,0,0-.414-1.289,1.627,1.627,0,0,0-1.305-.483,1.85,1.85,0,0,0-1.23.376A1.277,1.277,0,0,0-7.7-8.132h-3.1A3.118,3.118,0,0,1-10.184-10a4.118,4.118,0,0,1,1.762-1.348,6.42,6.42,0,0,1,2.557-.489,5.073,5.073,0,0,1,3.411,1.08A3.777,3.777,0,0,1-1.192-7.724v5.038A5.557,5.557,0,0,0-.73-.183V0ZM-6.435-2.159a2.674,2.674,0,0,0,1.268-.306,2.011,2.011,0,0,0,.859-.822v-2h-1.16q-2.331,0-2.481,1.611l-.011.183a1.243,1.243,0,0,0,.408.956A1.586,1.586,0,0,0-6.435-2.159Z" transform="translate(952 1428)" fill="#002b45"/>
    <path id="Trazado_20920" data-name="Trazado 20920" d="M4.619-5.511V0H1.4V-15.641H7.5A7.059,7.059,0,0,1,10.6-15a4.75,4.75,0,0,1,2.057,1.832,5.107,5.107,0,0,1,.72,2.7A4.491,4.491,0,0,1,11.8-6.837,6.555,6.555,0,0,1,7.444-5.511Zm0-2.61H7.5a2.831,2.831,0,0,0,1.95-.6,2.188,2.188,0,0,0,.671-1.719A2.58,2.58,0,0,0,9.442-12.3a2.528,2.528,0,0,0-1.869-.73H4.619Zm17.295-.591A8.434,8.434,0,0,0,20.8-8.8a2.274,2.274,0,0,0-2.31,1.192V0h-3.1V-11.623h2.933l.086,1.386a2.877,2.877,0,0,1,2.589-1.6,3.253,3.253,0,0,1,.967.14Zm.623,2.793A6.893,6.893,0,0,1,23.2-9,4.876,4.876,0,0,1,25.121-11.1a5.594,5.594,0,0,1,2.906-.741,5.293,5.293,0,0,1,3.84,1.439,5.777,5.777,0,0,1,1.66,3.91l.021.795A6.075,6.075,0,0,1,32.055-1.4,5.19,5.19,0,0,1,28.048.215,5.216,5.216,0,0,1,24.036-1.4a6.182,6.182,0,0,1-1.5-4.383Zm3.1.22a4.345,4.345,0,0,0,.623,2.534,2.055,2.055,0,0,0,1.783.877,2.06,2.06,0,0,0,1.762-.866,4.754,4.754,0,0,0,.634-2.77,4.3,4.3,0,0,0-.634-2.518,2.06,2.06,0,0,0-1.783-.893,2.027,2.027,0,0,0-1.762.888A4.834,4.834,0,0,0,25.642-5.7Zm12.729-5.924.1,1.3a4.085,4.085,0,0,1,3.341-1.515,3.1,3.1,0,0,1,3.083,1.772,3.991,3.991,0,0,1,3.491-1.772,3.467,3.467,0,0,1,2.814,1.1,5.061,5.061,0,0,1,.924,3.314V0H49.006V-7.412a2.213,2.213,0,0,0-.387-1.445,1.714,1.714,0,0,0-1.364-.457,1.938,1.938,0,0,0-1.934,1.332L45.332,0h-3.1V-7.4a2.186,2.186,0,0,0-.4-1.461,1.731,1.731,0,0,0-1.354-.451,2.012,2.012,0,0,0-1.912,1.1V0h-3.1V-11.623Zm15.651,5.7A6.893,6.893,0,0,1,54.688-9,4.876,4.876,0,0,1,56.606-11.1a5.594,5.594,0,0,1,2.906-.741,5.293,5.293,0,0,1,3.84,1.439,5.777,5.777,0,0,1,1.66,3.91l.021.795A6.075,6.075,0,0,1,63.54-1.4,5.19,5.19,0,0,1,59.533.215,5.216,5.216,0,0,1,55.521-1.4a6.182,6.182,0,0,1-1.5-4.383Zm3.1.22a4.345,4.345,0,0,0,.623,2.534,2.055,2.055,0,0,0,1.783.877,2.06,2.06,0,0,0,1.762-.866,4.754,4.754,0,0,0,.634-2.77,4.3,4.3,0,0,0-.634-2.518,2.06,2.06,0,0,0-1.783-.893,2.027,2.027,0,0,0-1.762.888A4.834,4.834,0,0,0,57.127-5.7Zm14.652,3.41a2.036,2.036,0,0,0,1.4-.473,1.656,1.656,0,0,0,.559-1.257h2.911A3.982,3.982,0,0,1,76-1.853,4.253,4.253,0,0,1,74.266-.328a5.43,5.43,0,0,1-2.433.542A5.046,5.046,0,0,1,67.9-1.37a6.27,6.27,0,0,1-1.439-4.377v-.2a6.2,6.2,0,0,1,1.429-4.286,4.987,4.987,0,0,1,3.921-1.6,4.889,4.889,0,0,1,3.5,1.241,4.393,4.393,0,0,1,1.337,3.3H73.734a2.133,2.133,0,0,0-.559-1.474,1.862,1.862,0,0,0-1.418-.567,1.87,1.87,0,0,0-1.638.791,4.583,4.583,0,0,0-.553,2.566v.323a4.641,4.641,0,0,0,.548,2.582A1.893,1.893,0,0,0,71.779-2.288ZM81.694,0H78.579V-11.623h3.115ZM78.4-14.631a1.529,1.529,0,0,1,.467-1.149,1.755,1.755,0,0,1,1.273-.451,1.759,1.759,0,0,1,1.268.451,1.52,1.52,0,0,1,.473,1.149,1.524,1.524,0,0,1-.478,1.16,1.764,1.764,0,0,1-1.262.451,1.764,1.764,0,0,1-1.262-.451A1.524,1.524,0,0,1,78.4-14.631Zm5.371,8.712A6.893,6.893,0,0,1,84.434-9,4.876,4.876,0,0,1,86.351-11.1a5.594,5.594,0,0,1,2.906-.741A5.293,5.293,0,0,1,93.1-10.4a5.777,5.777,0,0,1,1.66,3.91l.021.795A6.075,6.075,0,0,1,93.285-1.4,5.19,5.19,0,0,1,89.278.215,5.216,5.216,0,0,1,85.266-1.4a6.182,6.182,0,0,1-1.5-4.383Zm3.1.22A4.345,4.345,0,0,0,87.5-3.165a2.055,2.055,0,0,0,1.783.877,2.06,2.06,0,0,0,1.762-.866,4.754,4.754,0,0,0,.634-2.77,4.3,4.3,0,0,0-.634-2.518,2.06,2.06,0,0,0-1.783-.893,2.027,2.027,0,0,0-1.762.888A4.834,4.834,0,0,0,86.872-5.7Zm3-10.8h3.384l-2.976,3.33H87.753Zm9.679,4.877.1,1.343a4.058,4.058,0,0,1,3.341-1.558,3.372,3.372,0,0,1,2.75,1.085,5.062,5.062,0,0,1,.924,3.244V0h-3.1V-7.434a2.014,2.014,0,0,0-.43-1.434,1.924,1.924,0,0,0-1.429-.446A2.136,2.136,0,0,0,99.73-8.2V0h-3.1V-11.623Z" transform="translate(447 1428)" fill="#002b45"/>
    <path id="Trazado_20921" data-name="Trazado 20921" d="M3.665-12.8,7.849-2.355,12.032-12.8h2.188V0H12.533V-4.983l.158-5.379L8.49,0H7.2L3.006-10.336l.167,5.353V0H1.485V-12.8ZM22.816,0a3.416,3.416,0,0,1-.229-1A3.628,3.628,0,0,1,19.881.176a3.357,3.357,0,0,1-2.307-.8,2.573,2.573,0,0,1-.9-2.017A2.688,2.688,0,0,1,17.8-4.944a5.325,5.325,0,0,1,3.177-.822h1.582v-.747a1.826,1.826,0,0,0-.51-1.358,2.049,2.049,0,0,0-1.5-.505,2.371,2.371,0,0,0-1.459.439A1.3,1.3,0,0,0,18.5-6.873H16.866a2.244,2.244,0,0,1,.505-1.375A3.449,3.449,0,0,1,18.743-9.3a4.613,4.613,0,0,1,1.9-.387,3.759,3.759,0,0,1,2.575.822A2.964,2.964,0,0,1,24.188-6.6v4.377a5.351,5.351,0,0,0,.334,2.083V0Zm-2.7-1.239a2.858,2.858,0,0,0,1.45-.4,2.392,2.392,0,0,0,.993-1.028V-4.614H21.287q-2.988,0-2.988,1.749a1.48,1.48,0,0,0,.51,1.2A1.959,1.959,0,0,0,20.118-1.239ZM31.333-8.051a4.873,4.873,0,0,0-.8-.062A2.143,2.143,0,0,0,28.362-6.75V0H26.736V-9.51h1.582l.026,1.1a2.532,2.532,0,0,1,2.268-1.274,1.661,1.661,0,0,1,.721.123Zm5.142,6.9A2.342,2.342,0,0,0,38-1.679,1.855,1.855,0,0,0,38.716-3h1.538a2.949,2.949,0,0,1-.562,1.556A3.7,3.7,0,0,1,38.307-.264a3.994,3.994,0,0,1-1.833.439,3.918,3.918,0,0,1-3.089-1.3,5.163,5.163,0,0,1-1.147-3.546v-.272a5.725,5.725,0,0,1,.51-2.47,3.883,3.883,0,0,1,1.463-1.679,4.157,4.157,0,0,1,2.254-.6,3.814,3.814,0,0,1,2.659.958A3.424,3.424,0,0,1,40.254-6.24H38.716a2.241,2.241,0,0,0-.7-1.516,2.174,2.174,0,0,0-1.551-.593,2.276,2.276,0,0,0-1.92.892,4.19,4.19,0,0,0-.681,2.58v.308a4.106,4.106,0,0,0,.677,2.531A2.287,2.287,0,0,0,36.475-1.151ZM47.953,0a3.416,3.416,0,0,1-.229-1A3.628,3.628,0,0,1,45.018.176a3.357,3.357,0,0,1-2.307-.8,2.573,2.573,0,0,1-.9-2.017,2.688,2.688,0,0,1,1.129-2.307,5.325,5.325,0,0,1,3.177-.822H47.7v-.747a1.826,1.826,0,0,0-.51-1.358,2.049,2.049,0,0,0-1.5-.505,2.371,2.371,0,0,0-1.459.439,1.3,1.3,0,0,0-.589,1.063H42a2.244,2.244,0,0,1,.505-1.375A3.449,3.449,0,0,1,43.879-9.3a4.613,4.613,0,0,1,1.9-.387,3.759,3.759,0,0,1,2.575.822A2.964,2.964,0,0,1,49.324-6.6v4.377a5.351,5.351,0,0,0,.334,2.083V0Zm-2.7-1.239a2.858,2.858,0,0,0,1.45-.4A2.392,2.392,0,0,0,47.7-2.663V-4.614H46.424q-2.988,0-2.988,1.749a1.48,1.48,0,0,0,.51,1.2A1.959,1.959,0,0,0,45.255-1.239ZM1.485,24V11.2H5.1a5.815,5.815,0,0,1,2.953.738,4.993,4.993,0,0,1,1.982,2.1,6.837,6.837,0,0,1,.708,3.129v.817a6.861,6.861,0,0,1-.7,3.173,4.915,4.915,0,0,1-2,2.092A6.185,6.185,0,0,1,5.027,24ZM3.173,12.583V22.62H4.948a3.863,3.863,0,0,0,3.037-1.214A5.016,5.016,0,0,0,9.07,17.949V17.2A5.1,5.1,0,0,0,8.046,13.81a3.644,3.644,0,0,0-2.9-1.227ZM14.8,24H13.175V14.49H14.8ZM13.043,11.968a.971.971,0,0,1,.242-.668A.907.907,0,0,1,14,11.027a.922.922,0,0,1,.721.272.96.96,0,0,1,.246.668.929.929,0,0,1-.246.659.938.938,0,0,1-.721.264.924.924,0,0,1-.716-.264A.938.938,0,0,1,13.043,11.968Zm9.9,9.51a1.2,1.2,0,0,0-.5-1.024,4.78,4.78,0,0,0-1.731-.628,8.186,8.186,0,0,1-1.96-.633,2.788,2.788,0,0,1-1.072-.879,2.1,2.1,0,0,1-.347-1.213,2.467,2.467,0,0,1,.989-1.978,3.861,3.861,0,0,1,2.527-.809,3.974,3.974,0,0,1,2.624.835,2.652,2.652,0,0,1,1.006,2.136H22.843a1.468,1.468,0,0,0-.567-1.151,2.124,2.124,0,0,0-1.428-.483,2.223,2.223,0,0,0-1.389.387,1.217,1.217,0,0,0-.5,1.011.986.986,0,0,0,.466.888,5.731,5.731,0,0,0,1.683.571,8.77,8.77,0,0,1,1.973.65,2.878,2.878,0,0,1,1.121.91,2.237,2.237,0,0,1,.365,1.3,2.434,2.434,0,0,1-1.02,2.043,4.277,4.277,0,0,1-2.646.769,4.789,4.789,0,0,1-2.021-.4A3.288,3.288,0,0,1,17.5,22.642a2.722,2.722,0,0,1-.5-1.569h1.626a1.683,1.683,0,0,0,.655,1.3,2.54,2.54,0,0,0,1.613.479,2.622,2.622,0,0,0,1.481-.374A1.148,1.148,0,0,0,22.939,21.478Zm7.69,2.7a4.155,4.155,0,0,1-3.146-1.27,4.714,4.714,0,0,1-1.213-3.4v-.3a5.707,5.707,0,0,1,.541-2.527,4.217,4.217,0,0,1,1.512-1.74,3.8,3.8,0,0,1,2.1-.628,3.562,3.562,0,0,1,2.883,1.222,5.289,5.289,0,0,1,1.028,3.5v.677H27.9a3.38,3.38,0,0,0,.822,2.272,2.583,2.583,0,0,0,2,.866,2.832,2.832,0,0,0,1.459-.352,3.666,3.666,0,0,0,1.046-.932l.993.773A3.993,3.993,0,0,1,30.63,24.176Zm-.2-8.525a2.169,2.169,0,0,0-1.652.716,3.482,3.482,0,0,0-.826,2.008h4.764v-.123a3.1,3.1,0,0,0-.668-1.92A2.042,2.042,0,0,0,30.428,15.65Zm7.33-1.16.053,1.2a3.465,3.465,0,0,1,2.848-1.371q3.015,0,3.041,3.4V24H42.073V17.707a2.189,2.189,0,0,0-.47-1.521,1.884,1.884,0,0,0-1.437-.492,2.347,2.347,0,0,0-1.389.422,2.865,2.865,0,0,0-.932,1.107V24H36.22V14.49Zm5.379-3.709a2.185,2.185,0,0,1-.541,1.538,1.756,1.756,0,0,1-1.349.589,1.979,1.979,0,0,1-.624-.088,3.367,3.367,0,0,1-.69-.36,2.988,2.988,0,0,0-.615-.33,1.506,1.506,0,0,0-.435-.057.806.806,0,0,0-.615.277,1,1,0,0,0-.255.708L36.923,13a2.294,2.294,0,0,1,.532-1.556,1.705,1.705,0,0,1,1.349-.615,1.639,1.639,0,0,1,.554.088,4.035,4.035,0,0,1,.668.343,3.931,3.931,0,0,0,.646.334,1.484,1.484,0,0,0,.5.079.786.786,0,0,0,.628-.3,1.048,1.048,0,0,0,.25-.694Zm2.584,8.376a5.617,5.617,0,0,1,.549-2.514A4.1,4.1,0,0,1,47.8,14.921a4.163,4.163,0,0,1,2.237-.606,4.01,4.01,0,0,1,3.142,1.345,5.174,5.174,0,0,1,1.2,3.577v.114a5.666,5.666,0,0,1-.532,2.492,4.038,4.038,0,0,1-1.521,1.718,4.211,4.211,0,0,1-2.272.615,4,4,0,0,1-3.133-1.345,5.147,5.147,0,0,1-1.2-3.56Zm1.635.193a4.068,4.068,0,0,0,.734,2.54,2.487,2.487,0,0,0,3.933-.013,4.449,4.449,0,0,0,.729-2.72,4.061,4.061,0,0,0-.743-2.536,2.361,2.361,0,0,0-1.973-.971,2.335,2.335,0,0,0-1.942.958A4.416,4.416,0,0,0,47.355,19.351ZM10.9,43.939a4.708,4.708,0,0,1-1.5,3.133,4.911,4.911,0,0,1-3.353,1.1A4.509,4.509,0,0,1,2.413,46.55,6.542,6.542,0,0,1,1.046,42.2v-1.23a7.291,7.291,0,0,1,.637-3.138,4.76,4.76,0,0,1,1.806-2.079A5.029,5.029,0,0,1,6.2,35.027a4.624,4.624,0,0,1,3.27,1.138A4.765,4.765,0,0,1,10.9,39.316H9.2a3.677,3.677,0,0,0-.954-2.222A2.885,2.885,0,0,0,6.2,36.407a3.019,3.019,0,0,0-2.536,1.2,5.492,5.492,0,0,0-.918,3.4v1.24a5.645,5.645,0,0,0,.87,3.316A2.812,2.812,0,0,0,6.047,46.8,3.247,3.247,0,0,0,8.2,46.159a3.536,3.536,0,0,0,1-2.219ZM18.817,48a3.416,3.416,0,0,1-.229-1,3.628,3.628,0,0,1-2.707,1.178,3.357,3.357,0,0,1-2.307-.8,2.573,2.573,0,0,1-.9-2.017A2.688,2.688,0,0,1,13.8,43.056a5.325,5.325,0,0,1,3.177-.822h1.582v-.747a1.826,1.826,0,0,0-.51-1.358,2.049,2.049,0,0,0-1.5-.505,2.371,2.371,0,0,0-1.459.439,1.3,1.3,0,0,0-.589,1.063H12.867a2.244,2.244,0,0,1,.505-1.375,3.449,3.449,0,0,1,1.371-1.05,4.613,4.613,0,0,1,1.9-.387,3.759,3.759,0,0,1,2.575.822,2.964,2.964,0,0,1,.967,2.263v4.377a5.351,5.351,0,0,0,.334,2.083V48Zm-2.7-1.239a2.858,2.858,0,0,0,1.45-.4,2.392,2.392,0,0,0,.993-1.028V43.386H17.288q-2.988,0-2.988,1.749a1.48,1.48,0,0,0,.51,1.2A1.959,1.959,0,0,0,16.119,46.761ZM24.5,48H22.878V34.5H24.5Zm4.368,0H27.246V38.49h1.626ZM27.114,35.968a.971.971,0,0,1,.242-.668.907.907,0,0,1,.716-.272.922.922,0,0,1,.721.272.96.96,0,0,1,.246.668.929.929,0,0,1-.246.659.938.938,0,0,1-.721.264.924.924,0,0,1-.716-.264A.938.938,0,0,1,27.114,35.968Zm3.964,7.2a5.571,5.571,0,0,1,1.037-3.52,3.529,3.529,0,0,1,5.361-.189V34.5H39.1V48H37.608l-.079-1.02a3.311,3.311,0,0,1-2.716,1.2,3.248,3.248,0,0,1-2.694-1.354,5.634,5.634,0,0,1-1.042-3.533Zm1.626.185a4.218,4.218,0,0,0,.668,2.531,2.159,2.159,0,0,0,1.846.914,2.372,2.372,0,0,0,2.259-1.389V41.039a2.39,2.39,0,0,0-2.241-1.345,2.17,2.17,0,0,0-1.863.923A4.644,4.644,0,0,0,32.7,43.351ZM47.5,48a3.416,3.416,0,0,1-.229-1,3.628,3.628,0,0,1-2.707,1.178,3.357,3.357,0,0,1-2.307-.8,2.573,2.573,0,0,1-.9-2.017,2.688,2.688,0,0,1,1.129-2.307,5.325,5.325,0,0,1,3.177-.822h1.582v-.747a1.826,1.826,0,0,0-.51-1.358,2.049,2.049,0,0,0-1.5-.505,2.371,2.371,0,0,0-1.459.439,1.3,1.3,0,0,0-.589,1.063H41.546a2.244,2.244,0,0,1,.505-1.375,3.449,3.449,0,0,1,1.371-1.05,4.613,4.613,0,0,1,1.9-.387,3.759,3.759,0,0,1,2.575.822,2.964,2.964,0,0,1,.967,2.263v4.377a5.351,5.351,0,0,0,.334,2.083V48Zm-2.7-1.239a2.858,2.858,0,0,0,1.45-.4,2.392,2.392,0,0,0,.993-1.028V43.386H45.967q-2.988,0-2.988,1.749a1.48,1.48,0,0,0,.51,1.2A1.959,1.959,0,0,0,44.8,46.761Zm6.223-3.595a5.571,5.571,0,0,1,1.037-3.52,3.529,3.529,0,0,1,5.361-.189V34.5h1.626V48H57.551l-.079-1.02a3.311,3.311,0,0,1-2.716,1.2,3.248,3.248,0,0,1-2.694-1.354,5.634,5.634,0,0,1-1.042-3.533Zm1.626.185a4.218,4.218,0,0,0,.668,2.531,2.159,2.159,0,0,0,1.846.914,2.372,2.372,0,0,0,2.259-1.389V41.039a2.39,2.39,0,0,0-2.241-1.345,2.17,2.17,0,0,0-1.863.923A4.644,4.644,0,0,0,52.646,43.351ZM8.719,66.085H3.173V70.62H9.615V72H1.485V59.2H9.527v1.38H3.173v4.122H8.719ZM13,62.49l.053,1.2A3.465,3.465,0,0,1,15.9,62.314q3.015,0,3.041,3.4V72H17.314V65.707a2.189,2.189,0,0,0-.47-1.521,1.884,1.884,0,0,0-1.437-.492,2.347,2.347,0,0,0-1.389.422,2.865,2.865,0,0,0-.932,1.107V72H11.461V62.49Zm11.531,7.3,2.355-7.3h1.661L25.137,72H23.9l-3.445-9.51h1.661ZM35.851,72a3.416,3.416,0,0,1-.229-1,3.628,3.628,0,0,1-2.707,1.178,3.357,3.357,0,0,1-2.307-.8,2.573,2.573,0,0,1-.9-2.017,2.688,2.688,0,0,1,1.129-2.307,5.325,5.325,0,0,1,3.177-.822H35.6v-.747a1.826,1.826,0,0,0-.51-1.358,2.049,2.049,0,0,0-1.5-.505,2.371,2.371,0,0,0-1.459.439,1.3,1.3,0,0,0-.589,1.063H29.9a2.244,2.244,0,0,1,.505-1.375,3.449,3.449,0,0,1,1.371-1.05,4.613,4.613,0,0,1,1.9-.387,3.759,3.759,0,0,1,2.575.822,2.964,2.964,0,0,1,.967,2.263v4.377a5.351,5.351,0,0,0,.334,2.083V72Zm-2.7-1.239a2.858,2.858,0,0,0,1.45-.4,2.392,2.392,0,0,0,.993-1.028V67.386H34.321q-2.988,0-2.988,1.749a1.48,1.48,0,0,0,.51,1.2A1.959,1.959,0,0,0,33.152,70.761Zm12.155-1.283a1.2,1.2,0,0,0-.5-1.024,4.78,4.78,0,0,0-1.731-.628,8.186,8.186,0,0,1-1.96-.633,2.788,2.788,0,0,1-1.072-.879A2.1,2.1,0,0,1,39.7,65.1a2.467,2.467,0,0,1,.989-1.978,3.861,3.861,0,0,1,2.527-.809,3.974,3.974,0,0,1,2.624.835,2.652,2.652,0,0,1,1.006,2.136H45.211a1.468,1.468,0,0,0-.567-1.151,2.124,2.124,0,0,0-1.428-.483,2.223,2.223,0,0,0-1.389.387,1.217,1.217,0,0,0-.5,1.011.986.986,0,0,0,.466.888,5.731,5.731,0,0,0,1.683.571,8.77,8.77,0,0,1,1.973.65,2.878,2.878,0,0,1,1.121.91,2.237,2.237,0,0,1,.365,1.3,2.434,2.434,0,0,1-1.02,2.043,4.277,4.277,0,0,1-2.646.769,4.789,4.789,0,0,1-2.021-.4,3.288,3.288,0,0,1-1.375-1.129,2.722,2.722,0,0,1-.5-1.569H41a1.683,1.683,0,0,0,.655,1.3,2.54,2.54,0,0,0,1.613.479,2.622,2.622,0,0,0,1.481-.374A1.148,1.148,0,0,0,45.308,69.478Zm7.69,2.7a4.155,4.155,0,0,1-3.146-1.27,4.714,4.714,0,0,1-1.213-3.4v-.3a5.707,5.707,0,0,1,.541-2.527,4.217,4.217,0,0,1,1.512-1.74,3.8,3.8,0,0,1,2.1-.628,3.562,3.562,0,0,1,2.883,1.222,5.289,5.289,0,0,1,1.028,3.5v.677H50.265a3.38,3.38,0,0,0,.822,2.272,2.583,2.583,0,0,0,2,.866,2.832,2.832,0,0,0,1.459-.352,3.666,3.666,0,0,0,1.046-.932l.993.773A3.993,3.993,0,0,1,53,72.176Zm-.2-8.525a2.169,2.169,0,0,0-1.652.716,3.482,3.482,0,0,0-.826,2.008h4.764v-.123a3.1,3.1,0,0,0-.668-1.92A2.042,2.042,0,0,0,52.8,63.65ZM5.256,90.3A7.935,7.935,0,0,1,2.1,88.762a2.93,2.93,0,0,1-.989-2.246,3.1,3.1,0,0,1,1.208-2.5,4.8,4.8,0,0,1,3.142-.989,5.243,5.243,0,0,1,2.351.51,3.866,3.866,0,0,1,1.6,1.406,3.6,3.6,0,0,1,.567,1.96h-1.7a2.34,2.34,0,0,0-.738-1.83,3,3,0,0,0-2.083-.666,3.074,3.074,0,0,0-1.947.55,1.836,1.836,0,0,0-.7,1.528,1.652,1.652,0,0,0,.664,1.325,6.509,6.509,0,0,0,2.259.991,10.481,10.481,0,0,1,2.5.99,3.788,3.788,0,0,1,1.336,1.261,3.219,3.219,0,0,1,.435,1.7A2.99,2.99,0,0,1,8.789,95.24a5.171,5.171,0,0,1-3.243.936,6.015,6.015,0,0,1-2.461-.505,4.142,4.142,0,0,1-1.762-1.384,3.378,3.378,0,0,1-.62-2H2.4a2.2,2.2,0,0,0,.857,1.833,3.608,3.608,0,0,0,2.29.672,3.317,3.317,0,0,0,2.048-.545,1.77,1.77,0,0,0,.712-1.485,1.738,1.738,0,0,0-.659-1.455A7.6,7.6,0,0,0,5.256,90.3Zm10.6,5.88a4.155,4.155,0,0,1-3.146-1.27,4.714,4.714,0,0,1-1.213-3.4v-.3a5.707,5.707,0,0,1,.541-2.527,4.217,4.217,0,0,1,1.512-1.74,3.8,3.8,0,0,1,2.1-.628,3.562,3.562,0,0,1,2.883,1.222,5.289,5.289,0,0,1,1.028,3.5v.677H13.122a3.38,3.38,0,0,0,.822,2.272,2.583,2.583,0,0,0,2,.866A2.832,2.832,0,0,0,17.4,94.5a3.666,3.666,0,0,0,1.046-.932l.993.773A3.993,3.993,0,0,1,15.855,96.176Zm-.2-8.525A2.169,2.169,0,0,0,14,88.367a3.482,3.482,0,0,0-.826,2.008h4.764v-.123a3.1,3.1,0,0,0-.668-1.92A2.042,2.042,0,0,0,15.653,87.65Zm10.389.3a4.873,4.873,0,0,0-.8-.062,2.143,2.143,0,0,0-2.171,1.362V96H21.445V86.49h1.582l.026,1.1a2.532,2.532,0,0,1,2.268-1.274,1.661,1.661,0,0,1,.721.123Zm4.79,5.845,2.355-7.3h1.661L31.438,96H30.2l-3.445-9.51h1.661ZM38.18,96H36.554V86.49H38.18ZM36.422,83.968a.971.971,0,0,1,.242-.668.907.907,0,0,1,.716-.272.922.922,0,0,1,.721.272.96.96,0,0,1,.246.668.929.929,0,0,1-.246.659.938.938,0,0,1-.721.264.924.924,0,0,1-.716-.264A.938.938,0,0,1,36.422,83.968ZM44.6,94.849a2.342,2.342,0,0,0,1.521-.527A1.855,1.855,0,0,0,46.837,93h1.538a2.949,2.949,0,0,1-.562,1.556,3.7,3.7,0,0,1-1.384,1.178,3.994,3.994,0,0,1-1.833.439,3.918,3.918,0,0,1-3.089-1.3,5.163,5.163,0,0,1-1.147-3.546v-.272a5.725,5.725,0,0,1,.51-2.47,3.883,3.883,0,0,1,1.463-1.679,4.157,4.157,0,0,1,2.254-.6,3.814,3.814,0,0,1,2.659.958,3.424,3.424,0,0,1,1.129,2.487H46.837a2.241,2.241,0,0,0-.7-1.516,2.174,2.174,0,0,0-1.551-.593,2.276,2.276,0,0,0-1.92.892,4.19,4.19,0,0,0-.681,2.58v.308a4.106,4.106,0,0,0,.677,2.531A2.287,2.287,0,0,0,44.6,94.849ZM51.97,96H50.344V86.49H51.97ZM50.212,83.968a.971.971,0,0,1,.242-.668.907.907,0,0,1,.716-.272.922.922,0,0,1,.721.272.96.96,0,0,1,.246.668.929.929,0,0,1-.246.659.938.938,0,0,1-.721.264.924.924,0,0,1-.716-.264A.938.938,0,0,1,50.212,83.968Zm3.929,7.189a5.617,5.617,0,0,1,.549-2.514,4.1,4.1,0,0,1,1.529-1.723,4.163,4.163,0,0,1,2.237-.606A4.01,4.01,0,0,1,61.6,87.659a5.174,5.174,0,0,1,1.2,3.577v.114a5.666,5.666,0,0,1-.532,2.492,4.038,4.038,0,0,1-1.521,1.718,4.211,4.211,0,0,1-2.272.615,4,4,0,0,1-3.133-1.345,5.147,5.147,0,0,1-1.2-3.56Zm1.635.193a4.068,4.068,0,0,0,.734,2.54,2.487,2.487,0,0,0,3.933-.013,4.449,4.449,0,0,0,.729-2.72,4.061,4.061,0,0,0-.743-2.536,2.361,2.361,0,0,0-1.973-.971,2.335,2.335,0,0,0-1.942.958A4.416,4.416,0,0,0,55.775,91.351Zm14.6,2.127a1.2,1.2,0,0,0-.5-1.024,4.78,4.78,0,0,0-1.731-.628,8.186,8.186,0,0,1-1.96-.633,2.788,2.788,0,0,1-1.072-.879,2.1,2.1,0,0,1-.347-1.213,2.467,2.467,0,0,1,.989-1.978,3.861,3.861,0,0,1,2.527-.809,3.974,3.974,0,0,1,2.624.835,2.652,2.652,0,0,1,1.006,2.136H70.277a1.468,1.468,0,0,0-.567-1.151,2.124,2.124,0,0,0-1.428-.483,2.223,2.223,0,0,0-1.389.387,1.217,1.217,0,0,0-.5,1.011.986.986,0,0,0,.466.888,5.731,5.731,0,0,0,1.683.571,8.77,8.77,0,0,1,1.973.65,2.878,2.878,0,0,1,1.121.91,2.237,2.237,0,0,1,.365,1.3,2.434,2.434,0,0,1-1.02,2.043,4.277,4.277,0,0,1-2.646.769,4.789,4.789,0,0,1-2.021-.4,3.288,3.288,0,0,1-1.375-1.129,2.722,2.722,0,0,1-.5-1.569h1.626a1.683,1.683,0,0,0,.655,1.3,2.54,2.54,0,0,0,1.613.479,2.622,2.622,0,0,0,1.481-.374A1.148,1.148,0,0,0,70.374,93.478Z" transform="translate(447 1131)" fill="#00223d"/>
    <path id="Trazado_20922" data-name="Trazado 20922" d="M-93.2,0V-12.8h3.612a5.815,5.815,0,0,1,2.953.738,4.993,4.993,0,0,1,1.982,2.1,6.837,6.837,0,0,1,.708,3.129v.817a6.861,6.861,0,0,1-.7,3.173,4.915,4.915,0,0,1-2,2.092A6.185,6.185,0,0,1-89.657,0Zm1.688-11.417V-1.38h1.775A3.863,3.863,0,0,0-86.7-2.594a5.016,5.016,0,0,0,1.085-3.457V-6.8a5.1,5.1,0,0,0-1.024-3.391,3.644,3.644,0,0,0-2.9-1.227ZM-77.7.176a4.155,4.155,0,0,1-3.146-1.27,4.714,4.714,0,0,1-1.213-3.4v-.3a5.707,5.707,0,0,1,.541-2.527,4.217,4.217,0,0,1,1.512-1.74,3.8,3.8,0,0,1,2.1-.628,3.562,3.562,0,0,1,2.883,1.222A5.289,5.289,0,0,1-74-4.966v.677h-6.442a3.38,3.38,0,0,0,.822,2.272,2.583,2.583,0,0,0,2,.866A2.832,2.832,0,0,0-76.157-1.5a3.666,3.666,0,0,0,1.046-.932l.993.773A3.993,3.993,0,0,1-77.7.176Zm-.2-8.525a2.169,2.169,0,0,0-1.652.716,3.482,3.482,0,0,0-.826,2.008h4.764v-.123a3.1,3.1,0,0,0-.668-1.92A2.042,2.042,0,0,0-77.906-8.35Zm11.329,5.827a1.2,1.2,0,0,0-.5-1.024,4.78,4.78,0,0,0-1.731-.628,8.186,8.186,0,0,1-1.96-.633,2.788,2.788,0,0,1-1.072-.879A2.1,2.1,0,0,1-72.185-6.9,2.467,2.467,0,0,1-71.2-8.877a3.861,3.861,0,0,1,2.527-.809,3.974,3.974,0,0,1,2.624.835,2.652,2.652,0,0,1,1.006,2.136h-1.635a1.468,1.468,0,0,0-.567-1.151,2.124,2.124,0,0,0-1.428-.483,2.223,2.223,0,0,0-1.389.387,1.217,1.217,0,0,0-.5,1.011.986.986,0,0,0,.466.888,5.731,5.731,0,0,0,1.683.571,8.77,8.77,0,0,1,1.973.65,2.878,2.878,0,0,1,1.121.91,2.237,2.237,0,0,1,.365,1.3,2.434,2.434,0,0,1-1.02,2.043,4.277,4.277,0,0,1-2.646.769,4.789,4.789,0,0,1-2.021-.4,3.288,3.288,0,0,1-1.375-1.129,2.722,2.722,0,0,1-.5-1.569h1.626a1.683,1.683,0,0,0,.655,1.3,2.54,2.54,0,0,0,1.613.479,2.622,2.622,0,0,0,1.481-.374A1.148,1.148,0,0,0-66.577-2.522Zm7.559,1.371A2.342,2.342,0,0,0-57.5-1.679,1.855,1.855,0,0,0-56.777-3h1.538A2.949,2.949,0,0,1-55.8-1.441,3.7,3.7,0,0,1-57.186-.264a3.994,3.994,0,0,1-1.833.439,3.918,3.918,0,0,1-3.089-1.3,5.163,5.163,0,0,1-1.147-3.546v-.272a5.725,5.725,0,0,1,.51-2.47,3.883,3.883,0,0,1,1.463-1.679,4.157,4.157,0,0,1,2.254-.6,3.814,3.814,0,0,1,2.659.958A3.424,3.424,0,0,1-55.239-6.24h-1.538a2.241,2.241,0,0,0-.7-1.516,2.174,2.174,0,0,0-1.551-.593,2.276,2.276,0,0,0-1.92.892,4.19,4.19,0,0,0-.681,2.58v.308a4.106,4.106,0,0,0,.677,2.531A2.287,2.287,0,0,0-59.019-1.151ZM-47.54-.94A3.454,3.454,0,0,1-50.326.176a2.956,2.956,0,0,1-2.316-.883,3.823,3.823,0,0,1-.8-2.615V-9.51h1.626v6.144q0,2.162,1.758,2.162a2.434,2.434,0,0,0,2.479-1.389V-9.51h1.626V0H-47.5Zm8,1.116a4.155,4.155,0,0,1-3.146-1.27,4.714,4.714,0,0,1-1.213-3.4v-.3a5.707,5.707,0,0,1,.541-2.527,4.217,4.217,0,0,1,1.512-1.74,3.8,3.8,0,0,1,2.1-.628,3.562,3.562,0,0,1,2.883,1.222,5.289,5.289,0,0,1,1.028,3.5v.677h-6.442a3.38,3.38,0,0,0,.822,2.272,2.583,2.583,0,0,0,2,.866A2.832,2.832,0,0,0-38-1.5a3.666,3.666,0,0,0,1.046-.932l.993.773A3.993,3.993,0,0,1-39.542.176Zm-.2-8.525a2.169,2.169,0,0,0-1.652.716,3.482,3.482,0,0,0-.826,2.008h4.764v-.123a3.1,3.1,0,0,0-.668-1.92A2.042,2.042,0,0,0-39.744-8.35Zm7.33-1.16.053,1.2a3.465,3.465,0,0,1,2.848-1.371q3.015,0,3.041,3.4V0H-28.1V-6.293a2.189,2.189,0,0,0-.47-1.521,1.884,1.884,0,0,0-1.437-.492,2.347,2.347,0,0,0-1.389.422,2.865,2.865,0,0,0-.932,1.107V0h-1.626V-9.51Zm10.6-2.3v2.3h1.775v1.257h-1.775v5.9a1.32,1.32,0,0,0,.237.858,1,1,0,0,0,.809.286A3.937,3.937,0,0,0-20-1.31V0a4.742,4.742,0,0,1-1.248.175,2.025,2.025,0,0,1-1.644-.659,2.832,2.832,0,0,1-.554-1.872v-5.9h-1.731V-9.51h1.731v-2.3Zm3.067,6.97A5.617,5.617,0,0,1-18.2-7.356a4.1,4.1,0,0,1,1.529-1.723,4.163,4.163,0,0,1,2.237-.606A4.01,4.01,0,0,1-11.29-8.341a5.174,5.174,0,0,1,1.2,3.577v.114a5.666,5.666,0,0,1-.532,2.492A4.038,4.038,0,0,1-12.142-.439a4.211,4.211,0,0,1-2.272.615,4,4,0,0,1-3.133-1.345,5.147,5.147,0,0,1-1.2-3.56Zm1.635.193a4.068,4.068,0,0,0,.734,2.54,2.349,2.349,0,0,0,1.964.958,2.335,2.335,0,0,0,1.969-.971,4.449,4.449,0,0,0,.729-2.72,4.061,4.061,0,0,0-.743-2.536,2.361,2.361,0,0,0-1.973-.971,2.335,2.335,0,0,0-1.942.958A4.416,4.416,0,0,0-17.112-4.649Zm14.6,2.127a1.2,1.2,0,0,0-.5-1.024,4.78,4.78,0,0,0-1.731-.628A8.186,8.186,0,0,1-6.7-4.808a2.788,2.788,0,0,1-1.072-.879A2.1,2.1,0,0,1-8.121-6.9a2.467,2.467,0,0,1,.989-1.978,3.861,3.861,0,0,1,2.527-.809,3.974,3.974,0,0,1,2.624.835A2.652,2.652,0,0,1-.976-6.715H-2.61a1.468,1.468,0,0,0-.567-1.151A2.124,2.124,0,0,0-4.605-8.35a2.223,2.223,0,0,0-1.389.387,1.217,1.217,0,0,0-.5,1.011.986.986,0,0,0,.466.888,5.731,5.731,0,0,0,1.683.571,8.77,8.77,0,0,1,1.973.65,2.878,2.878,0,0,1,1.121.91,2.237,2.237,0,0,1,.365,1.3A2.434,2.434,0,0,1-1.907-.593,4.277,4.277,0,0,1-4.553.176a4.789,4.789,0,0,1-2.021-.4A3.288,3.288,0,0,1-7.95-1.358a2.722,2.722,0,0,1-.5-1.569H-6.82a1.683,1.683,0,0,0,.655,1.3,2.54,2.54,0,0,0,1.613.479,2.622,2.622,0,0,0,1.481-.374A1.148,1.148,0,0,0-2.514-2.522ZM-157.192,19.939a4.708,4.708,0,0,1-1.5,3.133,4.911,4.911,0,0,1-3.353,1.1,4.509,4.509,0,0,1-3.634-1.626,6.542,6.542,0,0,1-1.367-4.351v-1.23a7.291,7.291,0,0,1,.637-3.138,4.76,4.76,0,0,1,1.806-2.079,5.029,5.029,0,0,1,2.707-.725,4.624,4.624,0,0,1,3.27,1.138,4.765,4.765,0,0,1,1.433,3.151h-1.7a3.677,3.677,0,0,0-.954-2.222,2.885,2.885,0,0,0-2.052-.688,3.019,3.019,0,0,0-2.536,1.2,5.492,5.492,0,0,0-.918,3.4v1.24a5.645,5.645,0,0,0,.87,3.316,2.812,2.812,0,0,0,2.435,1.231,3.247,3.247,0,0,0,2.158-.637,3.536,3.536,0,0,0,1-2.219Zm1.617-.782a5.617,5.617,0,0,1,.549-2.514,4.1,4.1,0,0,1,1.529-1.723,4.163,4.163,0,0,1,2.237-.606,4.01,4.01,0,0,1,3.142,1.345,5.174,5.174,0,0,1,1.2,3.577v.114a5.666,5.666,0,0,1-.532,2.492,4.038,4.038,0,0,1-1.521,1.718,4.211,4.211,0,0,1-2.272.615,4,4,0,0,1-3.133-1.345,5.147,5.147,0,0,1-1.2-3.56Zm1.635.193a4.068,4.068,0,0,0,.734,2.54,2.349,2.349,0,0,0,1.964.958,2.335,2.335,0,0,0,1.969-.971,4.449,4.449,0,0,0,.729-2.72,4.061,4.061,0,0,0-.743-2.536,2.361,2.361,0,0,0-1.973-.971,2.335,2.335,0,0,0-1.942.958A4.416,4.416,0,0,0-153.94,19.351Zm10.6-4.86.053,1.2a3.465,3.465,0,0,1,2.848-1.371q3.015,0,3.041,3.4V24h-1.626V17.707a2.189,2.189,0,0,0-.47-1.521,1.884,1.884,0,0,0-1.437-.492,2.347,2.347,0,0,0-1.389.422,2.865,2.865,0,0,0-.932,1.107V24h-1.626V14.49Zm8,4.676a5.571,5.571,0,0,1,1.037-3.52,3.28,3.28,0,0,1,2.716-1.332,3.3,3.3,0,0,1,2.646,1.143V10.5h1.626V24h-1.494l-.079-1.02a3.311,3.311,0,0,1-2.716,1.2,3.248,3.248,0,0,1-2.694-1.354,5.634,5.634,0,0,1-1.042-3.533Zm1.626.185a4.218,4.218,0,0,0,.668,2.531,2.159,2.159,0,0,0,1.846.914,2.372,2.372,0,0,0,2.259-1.389V17.039a2.39,2.39,0,0,0-2.241-1.345,2.17,2.17,0,0,0-1.863.923A4.644,4.644,0,0,0-133.717,19.351ZM-123.029,24h-1.626V14.49h1.626Zm-1.758-12.032a.971.971,0,0,1,.242-.668.907.907,0,0,1,.716-.272.922.922,0,0,1,.721.272.96.96,0,0,1,.246.668.929.929,0,0,1-.246.659.938.938,0,0,1-.721.264.924.924,0,0,1-.716-.264A.938.938,0,0,1-124.787,11.968Zm8.174,10.881a2.342,2.342,0,0,0,1.521-.527A1.855,1.855,0,0,0-114.372,21h1.538a2.949,2.949,0,0,1-.562,1.556,3.7,3.7,0,0,1-1.384,1.178,3.994,3.994,0,0,1-1.833.439,3.918,3.918,0,0,1-3.089-1.3,5.163,5.163,0,0,1-1.147-3.546v-.272a5.725,5.725,0,0,1,.51-2.47,3.883,3.883,0,0,1,1.463-1.679,4.157,4.157,0,0,1,2.254-.6,3.814,3.814,0,0,1,2.659.958,3.424,3.424,0,0,1,1.129,2.487h-1.538a2.241,2.241,0,0,0-.7-1.516,2.174,2.174,0,0,0-1.551-.593,2.276,2.276,0,0,0-1.92.892,4.19,4.19,0,0,0-.681,2.58v.308a4.106,4.106,0,0,0,.677,2.531A2.287,2.287,0,0,0-116.613,22.849ZM-109.239,24h-1.626V14.49h1.626ZM-111,11.968a.971.971,0,0,1,.242-.668.907.907,0,0,1,.716-.272.922.922,0,0,1,.721.272.96.96,0,0,1,.246.668.929.929,0,0,1-.246.659.938.938,0,0,1-.721.264.924.924,0,0,1-.716-.264A.938.938,0,0,1-111,11.968Zm3.929,7.189a5.617,5.617,0,0,1,.549-2.514,4.1,4.1,0,0,1,1.529-1.723,4.163,4.163,0,0,1,2.237-.606,4.01,4.01,0,0,1,3.142,1.345,5.174,5.174,0,0,1,1.2,3.577v.114a5.666,5.666,0,0,1-.532,2.492,4.038,4.038,0,0,1-1.521,1.718,4.211,4.211,0,0,1-2.272.615,4,4,0,0,1-3.133-1.345,5.147,5.147,0,0,1-1.2-3.56Zm1.635.193a4.068,4.068,0,0,0,.734,2.54,2.349,2.349,0,0,0,1.964.958,2.335,2.335,0,0,0,1.969-.971,4.449,4.449,0,0,0,.729-2.72,4.061,4.061,0,0,0-.743-2.536,2.361,2.361,0,0,0-1.973-.971,2.335,2.335,0,0,0-1.942.958A4.416,4.416,0,0,0-105.434,19.351Zm10.6-4.86.053,1.2a3.465,3.465,0,0,1,2.848-1.371q3.015,0,3.041,3.4V24h-1.626V17.707a2.189,2.189,0,0,0-.47-1.521,1.884,1.884,0,0,0-1.437-.492,2.347,2.347,0,0,0-1.389.422,2.865,2.865,0,0,0-.932,1.107V24h-1.626V14.49Zm12.34,9.686a4.155,4.155,0,0,1-3.146-1.27,4.714,4.714,0,0,1-1.213-3.4v-.3a5.707,5.707,0,0,1,.541-2.527,4.217,4.217,0,0,1,1.512-1.74,3.8,3.8,0,0,1,2.1-.628,3.562,3.562,0,0,1,2.883,1.222,5.289,5.289,0,0,1,1.028,3.5v.677h-6.442a3.38,3.38,0,0,0,.822,2.272,2.583,2.583,0,0,0,2,.866,2.832,2.832,0,0,0,1.459-.352,3.666,3.666,0,0,0,1.046-.932l.993.773A3.993,3.993,0,0,1-82.494,24.176Zm-.2-8.525a2.169,2.169,0,0,0-1.652.716,3.482,3.482,0,0,0-.826,2.008h4.764v-.123a3.1,3.1,0,0,0-.668-1.92A2.042,2.042,0,0,0-82.7,15.65Zm11.329,5.827a1.2,1.2,0,0,0-.5-1.024,4.78,4.78,0,0,0-1.731-.628,8.186,8.186,0,0,1-1.96-.633,2.788,2.788,0,0,1-1.072-.879,2.1,2.1,0,0,1-.347-1.213,2.467,2.467,0,0,1,.989-1.978,3.861,3.861,0,0,1,2.527-.809,3.974,3.974,0,0,1,2.624.835,2.652,2.652,0,0,1,1.006,2.136h-1.635a1.468,1.468,0,0,0-.567-1.151,2.124,2.124,0,0,0-1.428-.483,2.223,2.223,0,0,0-1.389.387,1.217,1.217,0,0,0-.5,1.011.986.986,0,0,0,.466.888,5.731,5.731,0,0,0,1.683.571,8.77,8.77,0,0,1,1.973.65,2.878,2.878,0,0,1,1.121.91,2.237,2.237,0,0,1,.365,1.3,2.434,2.434,0,0,1-1.02,2.043,4.277,4.277,0,0,1-2.646.769,4.789,4.789,0,0,1-2.021-.4A3.288,3.288,0,0,1-76.8,22.642a2.722,2.722,0,0,1-.5-1.569h1.626a1.683,1.683,0,0,0,.655,1.3,2.54,2.54,0,0,0,1.613.479,2.622,2.622,0,0,0,1.481-.374A1.148,1.148,0,0,0-71.367,21.478Zm7.8-2.312a5.571,5.571,0,0,1,1.037-3.52,3.28,3.28,0,0,1,2.716-1.332,3.3,3.3,0,0,1,2.646,1.143V10.5h1.626V24h-1.494l-.079-1.02a3.311,3.311,0,0,1-2.716,1.2,3.248,3.248,0,0,1-2.694-1.354,5.634,5.634,0,0,1-1.042-3.533Zm1.626.185a4.218,4.218,0,0,0,.668,2.531,2.159,2.159,0,0,0,1.846.914,2.372,2.372,0,0,0,2.259-1.389V17.039a2.39,2.39,0,0,0-2.241-1.345,2.17,2.17,0,0,0-1.863.923A4.644,4.644,0,0,0-61.937,19.351Zm12.867,4.825a4.155,4.155,0,0,1-3.146-1.27,4.714,4.714,0,0,1-1.213-3.4v-.3a5.707,5.707,0,0,1,.541-2.527,4.217,4.217,0,0,1,1.512-1.74,3.8,3.8,0,0,1,2.1-.628,3.562,3.562,0,0,1,2.883,1.222,5.289,5.289,0,0,1,1.028,3.5v.677H-51.8a3.38,3.38,0,0,0,.822,2.272,2.583,2.583,0,0,0,2,.866,2.832,2.832,0,0,0,1.459-.352,3.666,3.666,0,0,0,1.046-.932l.993.773A3.993,3.993,0,0,1-49.069,24.176Zm-.2-8.525a2.169,2.169,0,0,0-1.652.716,3.482,3.482,0,0,0-.826,2.008h4.764v-.123a3.1,3.1,0,0,0-.668-1.92A2.042,2.042,0,0,0-49.271,15.65Zm18.281,3.7a5.694,5.694,0,0,1-.993,3.5,3.183,3.183,0,0,1-2.689,1.327,3.488,3.488,0,0,1-2.725-1.1v4.579h-1.626V14.49h1.485l.079,1.055a3.35,3.35,0,0,1,2.76-1.23,3.243,3.243,0,0,1,2.711,1.292,5.756,5.756,0,0,1,1,3.595Zm-1.626-.185a4.2,4.2,0,0,0-.686-2.54,2.208,2.208,0,0,0-1.881-.932A2.39,2.39,0,0,0-37.4,17v4.544a2.4,2.4,0,0,0,2.232,1.3,2.2,2.2,0,0,0,1.859-.927A4.587,4.587,0,0,0-32.616,19.166ZM-23.054,24a3.416,3.416,0,0,1-.229-1,3.628,3.628,0,0,1-2.707,1.178,3.357,3.357,0,0,1-2.307-.8,2.573,2.573,0,0,1-.9-2.017,2.688,2.688,0,0,1,1.129-2.307,5.325,5.325,0,0,1,3.177-.822h1.582v-.747a1.826,1.826,0,0,0-.51-1.358,2.049,2.049,0,0,0-1.5-.505,2.371,2.371,0,0,0-1.459.439,1.3,1.3,0,0,0-.589,1.063H-29a2.244,2.244,0,0,1,.505-1.375,3.449,3.449,0,0,1,1.371-1.05,4.613,4.613,0,0,1,1.9-.387,3.759,3.759,0,0,1,2.575.822,2.964,2.964,0,0,1,.967,2.263v4.377a5.351,5.351,0,0,0,.334,2.083V24Zm-2.7-1.239a2.858,2.858,0,0,0,1.45-.4,2.392,2.392,0,0,0,.993-1.028V19.386h-1.274q-2.988,0-2.988,1.749a1.48,1.48,0,0,0,.51,1.2A1.959,1.959,0,0,0-25.752,22.761Zm6.231-3.595a5.589,5.589,0,0,1,1.028-3.538,3.289,3.289,0,0,1,2.725-1.314,3.271,3.271,0,0,1,2.716,1.23l.079-1.055h1.485v9.281a3.869,3.869,0,0,1-1.094,2.909,4.038,4.038,0,0,1-2.94,1.063,4.891,4.891,0,0,1-2.013-.439,3.465,3.465,0,0,1-1.5-1.2l.844-.976a3.18,3.18,0,0,0,2.558,1.292,2.491,2.491,0,0,0,1.85-.668,2.553,2.553,0,0,0,.664-1.881v-.817a3.342,3.342,0,0,1-2.663,1.125,3.248,3.248,0,0,1-2.7-1.345A5.876,5.876,0,0,1-19.521,19.166Zm1.635.185a4.264,4.264,0,0,0,.659,2.527,2.142,2.142,0,0,0,1.846.918,2.382,2.382,0,0,0,2.259-1.4V17.057a2.41,2.41,0,0,0-2.241-1.362,2.161,2.161,0,0,0-1.854.923A4.644,4.644,0,0,0-17.886,19.351Zm8.42-.193a5.617,5.617,0,0,1,.549-2.514,4.1,4.1,0,0,1,1.529-1.723,4.163,4.163,0,0,1,2.237-.606,4.01,4.01,0,0,1,3.142,1.345,5.174,5.174,0,0,1,1.2,3.577v.114a5.666,5.666,0,0,1-.532,2.492,4.038,4.038,0,0,1-1.521,1.718,4.211,4.211,0,0,1-2.272.615,4,4,0,0,1-3.133-1.345,5.147,5.147,0,0,1-1.2-3.56Zm1.635.193a4.068,4.068,0,0,0,.734,2.54,2.349,2.349,0,0,0,1.964.958,2.335,2.335,0,0,0,1.969-.971,4.449,4.449,0,0,0,.729-2.72,4.061,4.061,0,0,0-.743-2.536A2.361,2.361,0,0,0-5.15,15.65a2.335,2.335,0,0,0-1.942.958A4.416,4.416,0,0,0-7.831,19.351ZM-51.223,43.939a4.708,4.708,0,0,1-1.5,3.133,4.911,4.911,0,0,1-3.353,1.1,4.509,4.509,0,0,1-3.634-1.626A6.542,6.542,0,0,1-61.075,42.2v-1.23a7.291,7.291,0,0,1,.637-3.138,4.76,4.76,0,0,1,1.806-2.079,5.029,5.029,0,0,1,2.707-.725,4.624,4.624,0,0,1,3.27,1.138,4.765,4.765,0,0,1,1.433,3.151h-1.7a3.677,3.677,0,0,0-.954-2.222,2.885,2.885,0,0,0-2.052-.688,3.019,3.019,0,0,0-2.536,1.2,5.492,5.492,0,0,0-.918,3.4v1.24a5.645,5.645,0,0,0,.87,3.316A2.812,2.812,0,0,0-56.074,46.8a3.247,3.247,0,0,0,2.158-.637,3.536,3.536,0,0,0,1-2.219Zm6.645-3.99a4.873,4.873,0,0,0-.8-.062,2.143,2.143,0,0,0-2.171,1.362V48h-1.626V38.49h1.582l.026,1.1A2.532,2.532,0,0,1-45.3,38.314a1.661,1.661,0,0,1,.721.123Zm5.273,8.227a4.155,4.155,0,0,1-3.146-1.27,4.714,4.714,0,0,1-1.213-3.4v-.3a5.707,5.707,0,0,1,.541-2.527,4.217,4.217,0,0,1,1.512-1.74,3.8,3.8,0,0,1,2.1-.628,3.562,3.562,0,0,1,2.883,1.222,5.289,5.289,0,0,1,1.028,3.5v.677h-6.442a3.38,3.38,0,0,0,.822,2.272,2.583,2.583,0,0,0,2,.866,2.832,2.832,0,0,0,1.459-.352,3.666,3.666,0,0,0,1.046-.932l.993.773A3.993,3.993,0,0,1-39.3,48.176Zm-.2-8.525a2.169,2.169,0,0,0-1.652.716,3.482,3.482,0,0,0-.826,2.008h4.764v-.123a3.1,3.1,0,0,0-.668-1.92A2.042,2.042,0,0,0-39.507,39.65Zm.791-5.15h1.969L-39.1,37.084l-1.31,0Zm4.605,8.666a5.571,5.571,0,0,1,1.037-3.52,3.28,3.28,0,0,1,2.716-1.332,3.3,3.3,0,0,1,2.646,1.143V34.5h1.626V48H-27.58l-.079-1.02a3.311,3.311,0,0,1-2.716,1.2,3.248,3.248,0,0,1-2.694-1.354,5.634,5.634,0,0,1-1.042-3.533Zm1.626.185a4.218,4.218,0,0,0,.668,2.531,2.159,2.159,0,0,0,1.846.914,2.372,2.372,0,0,0,2.259-1.389V41.039a2.39,2.39,0,0,0-2.241-1.345,2.17,2.17,0,0,0-1.863.923A4.644,4.644,0,0,0-32.484,43.351ZM-21.8,48h-1.626V38.49H-21.8Zm-1.758-12.032a.971.971,0,0,1,.242-.668.907.907,0,0,1,.716-.272.922.922,0,0,1,.721.272.96.96,0,0,1,.246.668.929.929,0,0,1-.246.659.938.938,0,0,1-.721.264.924.924,0,0,1-.716-.264A.938.938,0,0,1-23.555,35.968Zm6.565.22v2.3h1.775v1.257h-1.775v5.9a1.32,1.32,0,0,0,.237.858,1,1,0,0,0,.809.286,3.937,3.937,0,0,0,.773-.105V48a4.742,4.742,0,0,1-1.248.175,2.025,2.025,0,0,1-1.644-.659,2.832,2.832,0,0,1-.554-1.872v-5.9h-1.731V38.49h1.731v-2.3Zm3.067,6.97a5.617,5.617,0,0,1,.549-2.514,4.1,4.1,0,0,1,1.529-1.723,4.163,4.163,0,0,1,2.237-.606,4.01,4.01,0,0,1,3.142,1.345,5.174,5.174,0,0,1,1.2,3.577v.114A5.666,5.666,0,0,1-5.8,45.842a4.038,4.038,0,0,1-1.521,1.718,4.211,4.211,0,0,1-2.272.615,4,4,0,0,1-3.133-1.345,5.147,5.147,0,0,1-1.2-3.56Zm1.635.193a4.068,4.068,0,0,0,.734,2.54,2.349,2.349,0,0,0,1.964.958,2.335,2.335,0,0,0,1.969-.971,4.449,4.449,0,0,0,.729-2.72,4.061,4.061,0,0,0-.743-2.536,2.361,2.361,0,0,0-1.973-.971,2.335,2.335,0,0,0-1.942.958A4.416,4.416,0,0,0-12.287,43.351Z" transform="translate(952 1131)" fill="#00223d"/>
    <path id="Trazado_20914" data-name="Trazado 20914" d="M-76.271-5.7a7.935,7.935,0,0,1-3.16-1.534,2.93,2.93,0,0,1-.989-2.246,3.1,3.1,0,0,1,1.208-2.5,4.8,4.8,0,0,1,3.142-.989,5.243,5.243,0,0,1,2.351.51,3.866,3.866,0,0,1,1.6,1.406,3.6,3.6,0,0,1,.567,1.96h-1.7a2.34,2.34,0,0,0-.738-1.83,3,3,0,0,0-2.083-.666,3.074,3.074,0,0,0-1.947.55,1.836,1.836,0,0,0-.7,1.528,1.652,1.652,0,0,0,.664,1.325,6.509,6.509,0,0,0,2.259.991,10.481,10.481,0,0,1,2.5.99A3.788,3.788,0,0,1-71.96-4.948a3.219,3.219,0,0,1,.435,1.7A2.99,2.99,0,0,1-72.738-.76a5.171,5.171,0,0,1-3.243.936A6.015,6.015,0,0,1-78.442-.33,4.142,4.142,0,0,1-80.2-1.714a3.378,3.378,0,0,1-.62-2h1.7a2.2,2.2,0,0,0,.857,1.833,3.608,3.608,0,0,0,2.29.672,3.317,3.317,0,0,0,2.048-.545,1.77,1.77,0,0,0,.712-1.485,1.738,1.738,0,0,0-.659-1.455A7.6,7.6,0,0,0-76.271-5.7Zm10.6,5.88a4.155,4.155,0,0,1-3.146-1.27,4.714,4.714,0,0,1-1.213-3.4v-.3a5.707,5.707,0,0,1,.541-2.527,4.217,4.217,0,0,1,1.512-1.74,3.8,3.8,0,0,1,2.1-.628,3.562,3.562,0,0,1,2.883,1.222,5.289,5.289,0,0,1,1.028,3.5v.677h-6.442a3.38,3.38,0,0,0,.822,2.272,2.583,2.583,0,0,0,2,.866A2.832,2.832,0,0,0-64.125-1.5a3.666,3.666,0,0,0,1.046-.932l.993.773A3.993,3.993,0,0,1-65.672.176Zm-.2-8.525a2.169,2.169,0,0,0-1.652.716,3.482,3.482,0,0,0-.826,2.008h4.764v-.123a3.1,3.1,0,0,0-.668-1.92A2.042,2.042,0,0,0-65.874-8.35Zm5.405,3.516A5.589,5.589,0,0,1-59.44-8.372a3.289,3.289,0,0,1,2.725-1.314A3.271,3.271,0,0,1-54-8.455l.079-1.055h1.485V-.229A3.869,3.869,0,0,1-53.53,2.681a4.038,4.038,0,0,1-2.94,1.063A4.891,4.891,0,0,1-58.482,3.3a3.465,3.465,0,0,1-1.5-1.2l.844-.976a3.18,3.18,0,0,0,2.558,1.292,2.491,2.491,0,0,0,1.85-.668A2.553,2.553,0,0,0-54.07-.132V-.949A3.342,3.342,0,0,1-56.733.176a3.248,3.248,0,0,1-2.7-1.345A5.876,5.876,0,0,1-60.469-4.834Zm1.635.185a4.264,4.264,0,0,0,.659,2.527,2.142,2.142,0,0,0,1.846.918A2.382,2.382,0,0,0-54.07-2.6V-6.943a2.41,2.41,0,0,0-2.241-1.362,2.161,2.161,0,0,0-1.854.923A4.644,4.644,0,0,0-58.834-4.649Zm10.38-4.86.044,1.055a3.512,3.512,0,0,1,2.821-1.23,2.719,2.719,0,0,1,2.716,1.529,3.6,3.6,0,0,1,1.235-1.107,3.647,3.647,0,0,1,1.8-.422q3.129,0,3.182,3.313V0h-1.626V-6.275A2.184,2.184,0,0,0-38.751-7.8a2.051,2.051,0,0,0-1.564-.505,2.156,2.156,0,0,0-1.5.541,2.193,2.193,0,0,0-.694,1.455V0h-1.635V-6.231a1.814,1.814,0,0,0-2.03-2.074,2.175,2.175,0,0,0-2.188,1.362V0h-1.626V-9.51ZM-30.261.176a4.155,4.155,0,0,1-3.146-1.27,4.714,4.714,0,0,1-1.213-3.4v-.3a5.707,5.707,0,0,1,.541-2.527,4.217,4.217,0,0,1,1.512-1.74,3.8,3.8,0,0,1,2.1-.628A3.562,3.562,0,0,1-27.58-8.464a5.289,5.289,0,0,1,1.028,3.5v.677h-6.442a3.38,3.38,0,0,0,.822,2.272,2.583,2.583,0,0,0,2,.866A2.832,2.832,0,0,0-28.714-1.5a3.666,3.666,0,0,0,1.046-.932l.993.773A3.993,3.993,0,0,1-30.261.176Zm-.2-8.525a2.169,2.169,0,0,0-1.652.716,3.482,3.482,0,0,0-.826,2.008h4.764v-.123a3.1,3.1,0,0,0-.668-1.92A2.042,2.042,0,0,0-30.463-8.35Zm7.33-1.16.053,1.2a3.465,3.465,0,0,1,2.848-1.371q3.015,0,3.041,3.4V0h-1.626V-6.293a2.189,2.189,0,0,0-.47-1.521,1.884,1.884,0,0,0-1.437-.492,2.347,2.347,0,0,0-1.389.422,2.865,2.865,0,0,0-.932,1.107V0h-1.626V-9.51Zm10.6-2.3v2.3h1.775v1.257h-1.775v5.9a1.32,1.32,0,0,0,.237.858,1,1,0,0,0,.809.286,3.937,3.937,0,0,0,.773-.105V0a4.742,4.742,0,0,1-1.248.175,2.025,2.025,0,0,1-1.644-.659,2.832,2.832,0,0,1-.554-1.872v-5.9h-1.731V-9.51h1.731v-2.3Zm3.067,6.97a5.617,5.617,0,0,1,.549-2.514A4.1,4.1,0,0,1-7.387-9.079,4.163,4.163,0,0,1-5.15-9.686,4.01,4.01,0,0,1-2.008-8.341a5.174,5.174,0,0,1,1.2,3.577v.114A5.666,5.666,0,0,1-1.34-2.158,4.038,4.038,0,0,1-2.861-.439,4.211,4.211,0,0,1-5.133.176,4,4,0,0,1-8.266-1.169a5.147,5.147,0,0,1-1.2-3.56Zm1.635.193A4.068,4.068,0,0,0-7.1-2.109a2.349,2.349,0,0,0,1.964.958,2.335,2.335,0,0,0,1.969-.971,4.449,4.449,0,0,0,.729-2.72,4.061,4.061,0,0,0-.743-2.536A2.361,2.361,0,0,0-5.15-8.35a2.335,2.335,0,0,0-1.942.958A4.416,4.416,0,0,0-7.831-4.649Zm-60.75,24.589a4.708,4.708,0,0,1-1.5,3.133,4.911,4.911,0,0,1-3.353,1.1,4.509,4.509,0,0,1-3.634-1.626A6.542,6.542,0,0,1-78.434,18.2v-1.23a7.291,7.291,0,0,1,.637-3.138,4.76,4.76,0,0,1,1.806-2.079,5.029,5.029,0,0,1,2.707-.725,4.624,4.624,0,0,1,3.27,1.138,4.765,4.765,0,0,1,1.433,3.151h-1.7a3.677,3.677,0,0,0-.954-2.222,2.885,2.885,0,0,0-2.052-.688,3.019,3.019,0,0,0-2.536,1.2,5.492,5.492,0,0,0-.918,3.4v1.24a5.645,5.645,0,0,0,.87,3.316A2.812,2.812,0,0,0-73.433,22.8a3.247,3.247,0,0,0,2.158-.637,3.536,3.536,0,0,0,1-2.219Zm1.617-.782a5.617,5.617,0,0,1,.549-2.514,4.1,4.1,0,0,1,1.529-1.723,4.163,4.163,0,0,1,2.237-.606,4.01,4.01,0,0,1,3.142,1.345,5.174,5.174,0,0,1,1.2,3.577v.114a5.666,5.666,0,0,1-.532,2.492,4.038,4.038,0,0,1-1.521,1.718,4.211,4.211,0,0,1-2.272.615,4,4,0,0,1-3.133-1.345,5.147,5.147,0,0,1-1.2-3.56Zm1.635.193a4.068,4.068,0,0,0,.734,2.54,2.349,2.349,0,0,0,1.964.958,2.335,2.335,0,0,0,1.969-.971,4.449,4.449,0,0,0,.729-2.72,4.061,4.061,0,0,0-.743-2.536,2.361,2.361,0,0,0-1.973-.971,2.335,2.335,0,0,0-1.942.958A4.416,4.416,0,0,0-65.329,19.351Zm17.112,0a5.654,5.654,0,0,1-1,3.5,3.2,3.2,0,0,1-2.689,1.323A3.315,3.315,0,0,1-54.694,22.9l-.079,1.1h-1.494V10.5h1.626v5.036a3.3,3.3,0,0,1,2.716-1.222,3.221,3.221,0,0,1,2.72,1.31,5.824,5.824,0,0,1,.989,3.586Zm-1.626-.185a4.394,4.394,0,0,0-.642-2.566,2.124,2.124,0,0,0-1.846-.905,2.387,2.387,0,0,0-2.312,1.494V21.3A2.454,2.454,0,0,0-52.312,22.8a2.112,2.112,0,0,0,1.819-.905A4.672,4.672,0,0,0-49.843,19.166Zm7.62,5.01a4.155,4.155,0,0,1-3.146-1.27,4.714,4.714,0,0,1-1.213-3.4v-.3a5.707,5.707,0,0,1,.541-2.527,4.217,4.217,0,0,1,1.512-1.74,3.8,3.8,0,0,1,2.1-.628,3.562,3.562,0,0,1,2.883,1.222,5.289,5.289,0,0,1,1.028,3.5v.677h-6.442a3.38,3.38,0,0,0,.822,2.272,2.583,2.583,0,0,0,2,.866,2.832,2.832,0,0,0,1.459-.352,3.666,3.666,0,0,0,1.046-.932l.993.773A3.993,3.993,0,0,1-42.223,24.176Zm-.2-8.525a2.169,2.169,0,0,0-1.652.716,3.482,3.482,0,0,0-.826,2.008h4.764v-.123a3.1,3.1,0,0,0-.668-1.92A2.042,2.042,0,0,0-42.425,15.65Zm10.389.3a4.873,4.873,0,0,0-.8-.062,2.143,2.143,0,0,0-2.171,1.362V24h-1.626V14.49h1.582l.026,1.1a2.532,2.532,0,0,1,2.268-1.274,1.661,1.661,0,0,1,.721.123Zm4.14-3.762v2.3h1.775v1.257H-27.9v5.9a1.32,1.32,0,0,0,.237.858,1,1,0,0,0,.809.286,3.937,3.937,0,0,0,.773-.105V24a4.742,4.742,0,0,1-1.248.175,2.025,2.025,0,0,1-1.644-.659,2.832,2.832,0,0,1-.554-1.872v-5.9h-1.731V14.49h1.731v-2.3Zm9.545,10.872a3.454,3.454,0,0,1-2.786,1.116,2.956,2.956,0,0,1-2.316-.883,3.823,3.823,0,0,1-.8-2.615V14.49h1.626v6.144q0,2.162,1.758,2.162A2.434,2.434,0,0,0-18.4,21.407V14.49h1.626V24h-1.547Zm8.648-7.11a4.873,4.873,0,0,0-.8-.062,2.143,2.143,0,0,0-2.171,1.362V24H-14.3V14.49h1.582l.026,1.1a2.532,2.532,0,0,1,2.268-1.274,1.661,1.661,0,0,1,.721.123ZM-2.689,24a3.416,3.416,0,0,1-.229-1,3.628,3.628,0,0,1-2.707,1.178,3.357,3.357,0,0,1-2.307-.8,2.573,2.573,0,0,1-.9-2.017A2.688,2.688,0,0,1-7.7,19.056a5.325,5.325,0,0,1,3.177-.822h1.582v-.747a1.826,1.826,0,0,0-.51-1.358,2.049,2.049,0,0,0-1.5-.505,2.371,2.371,0,0,0-1.459.439A1.3,1.3,0,0,0-7,17.127H-8.64a2.244,2.244,0,0,1,.505-1.375A3.449,3.449,0,0,1-6.763,14.7a4.613,4.613,0,0,1,1.9-.387,3.759,3.759,0,0,1,2.575.822A2.964,2.964,0,0,1-1.318,17.4v4.377a5.351,5.351,0,0,0,.334,2.083V24Zm-2.7-1.239a2.858,2.858,0,0,0,1.45-.4,2.392,2.392,0,0,0,.993-1.028V19.386H-4.219q-2.988,0-2.988,1.749a1.48,1.48,0,0,0,.51,1.2A1.959,1.959,0,0,0-5.388,22.761ZM-53.517,43.939a4.708,4.708,0,0,1-1.5,3.133,4.911,4.911,0,0,1-3.353,1.1A4.509,4.509,0,0,1-62,46.55,6.542,6.542,0,0,1-63.369,42.2v-1.23a7.291,7.291,0,0,1,.637-3.138,4.76,4.76,0,0,1,1.806-2.079,5.029,5.029,0,0,1,2.707-.725,4.624,4.624,0,0,1,3.27,1.138,4.765,4.765,0,0,1,1.433,3.151h-1.7a3.677,3.677,0,0,0-.954-2.222,2.885,2.885,0,0,0-2.052-.688,3.019,3.019,0,0,0-2.536,1.2,5.492,5.492,0,0,0-.918,3.4v1.24a5.645,5.645,0,0,0,.87,3.316A2.812,2.812,0,0,0-58.368,46.8a3.247,3.247,0,0,0,2.158-.637,3.536,3.536,0,0,0,1-2.219ZM-45.6,48a3.416,3.416,0,0,1-.229-1,3.628,3.628,0,0,1-2.707,1.178,3.357,3.357,0,0,1-2.307-.8,2.573,2.573,0,0,1-.9-2.017,2.688,2.688,0,0,1,1.129-2.307,5.325,5.325,0,0,1,3.177-.822h1.582v-.747a1.826,1.826,0,0,0-.51-1.358,2.049,2.049,0,0,0-1.5-.505,2.371,2.371,0,0,0-1.459.439,1.3,1.3,0,0,0-.589,1.063h-1.635a2.244,2.244,0,0,1,.505-1.375,3.449,3.449,0,0,1,1.371-1.05,4.613,4.613,0,0,1,1.9-.387,3.759,3.759,0,0,1,2.575.822,2.964,2.964,0,0,1,.967,2.263v4.377a5.351,5.351,0,0,0,.334,2.083V48Zm-2.7-1.239a2.858,2.858,0,0,0,1.45-.4,2.392,2.392,0,0,0,.993-1.028V43.386h-1.274q-2.988,0-2.988,1.749a1.48,1.48,0,0,0,.51,1.2A1.959,1.959,0,0,0-48.3,46.761Zm8.156-8.271.053,1.2a3.465,3.465,0,0,1,2.848-1.371q3.015,0,3.041,3.4V48h-1.626V41.707a2.189,2.189,0,0,0-.47-1.521,1.884,1.884,0,0,0-1.437-.492,2.347,2.347,0,0,0-1.389.422,2.865,2.865,0,0,0-.932,1.107V48h-1.626V38.49ZM-25.875,48a3.416,3.416,0,0,1-.229-1,3.628,3.628,0,0,1-2.707,1.178,3.357,3.357,0,0,1-2.307-.8,2.573,2.573,0,0,1-.9-2.017,2.688,2.688,0,0,1,1.129-2.307,5.325,5.325,0,0,1,3.177-.822h1.582v-.747a1.826,1.826,0,0,0-.51-1.358,2.049,2.049,0,0,0-1.5-.505,2.371,2.371,0,0,0-1.459.439,1.3,1.3,0,0,0-.589,1.063h-1.635a2.244,2.244,0,0,1,.505-1.375,3.449,3.449,0,0,1,1.371-1.05,4.613,4.613,0,0,1,1.9-.387,3.759,3.759,0,0,1,2.575.822A2.964,2.964,0,0,1-24.5,41.4v4.377a5.351,5.351,0,0,0,.334,2.083V48Zm-2.7-1.239a2.858,2.858,0,0,0,1.45-.4,2.392,2.392,0,0,0,.993-1.028V43.386H-27.4q-2.988,0-2.988,1.749a1.48,1.48,0,0,0,.51,1.2A1.959,1.959,0,0,0-28.573,46.761ZM-20.188,48h-1.626V34.5h1.626Zm6.548.176a4.155,4.155,0,0,1-3.146-1.27A4.714,4.714,0,0,1-18,43.509v-.3a5.707,5.707,0,0,1,.541-2.527,4.217,4.217,0,0,1,1.512-1.74,3.8,3.8,0,0,1,2.1-.628,3.562,3.562,0,0,1,2.883,1.222,5.289,5.289,0,0,1,1.028,3.5v.677h-6.442a3.38,3.38,0,0,0,.822,2.272,2.583,2.583,0,0,0,2,.866,2.832,2.832,0,0,0,1.459-.352,3.666,3.666,0,0,0,1.046-.932l.993.773A3.993,3.993,0,0,1-13.641,48.176Zm-.2-8.525a2.169,2.169,0,0,0-1.652.716,3.482,3.482,0,0,0-.826,2.008h4.764v-.123a3.1,3.1,0,0,0-.668-1.92A2.042,2.042,0,0,0-13.843,39.65Zm11.329,5.827a1.2,1.2,0,0,0-.5-1.024,4.78,4.78,0,0,0-1.731-.628,8.186,8.186,0,0,1-1.96-.633,2.788,2.788,0,0,1-1.072-.879A2.1,2.1,0,0,1-8.121,41.1a2.467,2.467,0,0,1,.989-1.978,3.861,3.861,0,0,1,2.527-.809,3.974,3.974,0,0,1,2.624.835A2.652,2.652,0,0,1-.976,41.285H-2.61a1.468,1.468,0,0,0-.567-1.151,2.124,2.124,0,0,0-1.428-.483,2.223,2.223,0,0,0-1.389.387,1.217,1.217,0,0,0-.5,1.011.986.986,0,0,0,.466.888,5.731,5.731,0,0,0,1.683.571,8.77,8.77,0,0,1,1.973.65,2.878,2.878,0,0,1,1.121.91,2.237,2.237,0,0,1,.365,1.3,2.434,2.434,0,0,1-1.02,2.043,4.277,4.277,0,0,1-2.646.769,4.789,4.789,0,0,1-2.021-.4A3.288,3.288,0,0,1-7.95,46.642a2.722,2.722,0,0,1-.5-1.569H-6.82a1.683,1.683,0,0,0,.655,1.3,2.54,2.54,0,0,0,1.613.479,2.622,2.622,0,0,0,1.481-.374A1.148,1.148,0,0,0-2.514,45.478ZM-68.845,59.2v8.7a4.082,4.082,0,0,1-1.138,2.962,4.586,4.586,0,0,1-3.063,1.292l-.448.018a4.79,4.79,0,0,1-3.349-1.134,4.055,4.055,0,0,1-1.266-3.12V59.2h1.67v8.666a2.927,2.927,0,0,0,.765,2.158,2.939,2.939,0,0,0,2.18.769,2.959,2.959,0,0,0,2.193-.765,2.921,2.921,0,0,0,.76-2.153V59.2Zm10.459,8.147a5.654,5.654,0,0,1-1,3.5,3.2,3.2,0,0,1-2.689,1.323A3.315,3.315,0,0,1-64.863,70.9l-.079,1.1h-1.494V58.5h1.626v5.036a3.3,3.3,0,0,1,2.716-1.222,3.221,3.221,0,0,1,2.72,1.31,5.824,5.824,0,0,1,.989,3.586Zm-1.626-.185a4.394,4.394,0,0,0-.642-2.566,2.124,2.124,0,0,0-1.846-.905,2.387,2.387,0,0,0-2.312,1.494V69.3A2.454,2.454,0,0,0-62.481,70.8a2.112,2.112,0,0,0,1.819-.905A4.672,4.672,0,0,0-60.012,67.166ZM-54.571,72H-56.2V62.49h1.626Zm-1.758-12.032a.971.971,0,0,1,.242-.668.907.907,0,0,1,.716-.272.922.922,0,0,1,.721.272.96.96,0,0,1,.246.668.929.929,0,0,1-.246.659.938.938,0,0,1-.721.264.924.924,0,0,1-.716-.264A.938.938,0,0,1-56.329,59.968Zm8.174,10.881a2.342,2.342,0,0,0,1.521-.527A1.855,1.855,0,0,0-45.914,69h1.538a2.949,2.949,0,0,1-.562,1.556,3.7,3.7,0,0,1-1.384,1.178,3.994,3.994,0,0,1-1.833.439,3.918,3.918,0,0,1-3.089-1.3,5.163,5.163,0,0,1-1.147-3.546v-.272a5.725,5.725,0,0,1,.51-2.47,3.883,3.883,0,0,1,1.463-1.679,4.157,4.157,0,0,1,2.254-.6,3.814,3.814,0,0,1,2.659.958,3.424,3.424,0,0,1,1.129,2.487h-1.538a2.241,2.241,0,0,0-.7-1.516,2.174,2.174,0,0,0-1.551-.593,2.276,2.276,0,0,0-1.92.892,4.19,4.19,0,0,0-.681,2.58v.308a4.106,4.106,0,0,0,.677,2.531A2.287,2.287,0,0,0-48.155,70.849ZM-36.677,72a3.416,3.416,0,0,1-.229-1,3.628,3.628,0,0,1-2.707,1.178,3.357,3.357,0,0,1-2.307-.8,2.573,2.573,0,0,1-.9-2.017,2.688,2.688,0,0,1,1.129-2.307,5.325,5.325,0,0,1,3.177-.822h1.582v-.747a1.826,1.826,0,0,0-.51-1.358,2.049,2.049,0,0,0-1.5-.505,2.371,2.371,0,0,0-1.459.439,1.3,1.3,0,0,0-.589,1.063h-1.635a2.244,2.244,0,0,1,.505-1.375A3.449,3.449,0,0,1-40.75,62.7a4.613,4.613,0,0,1,1.9-.387,3.759,3.759,0,0,1,2.575.822,2.964,2.964,0,0,1,.967,2.263v4.377a5.351,5.351,0,0,0,.334,2.083V72Zm-2.7-1.239a2.858,2.858,0,0,0,1.45-.4,2.392,2.392,0,0,0,.993-1.028V67.386h-1.274q-2.988,0-2.988,1.749a1.48,1.48,0,0,0,.51,1.2A1.959,1.959,0,0,0-39.375,70.761Zm10.433.088a2.342,2.342,0,0,0,1.521-.527A1.855,1.855,0,0,0-26.7,69h1.538a2.949,2.949,0,0,1-.562,1.556,3.7,3.7,0,0,1-1.384,1.178,3.994,3.994,0,0,1-1.833.439,3.918,3.918,0,0,1-3.089-1.3,5.163,5.163,0,0,1-1.147-3.546v-.272a5.725,5.725,0,0,1,.51-2.47,3.883,3.883,0,0,1,1.463-1.679,4.157,4.157,0,0,1,2.254-.6,3.814,3.814,0,0,1,2.659.958,3.424,3.424,0,0,1,1.129,2.487H-26.7a2.241,2.241,0,0,0-.7-1.516,2.174,2.174,0,0,0-1.551-.593,2.276,2.276,0,0,0-1.92.892,4.19,4.19,0,0,0-.681,2.58v.308a4.106,4.106,0,0,0,.677,2.531A2.287,2.287,0,0,0-28.942,70.849ZM-21.568,72h-1.626V62.49h1.626Zm-1.758-12.032a.971.971,0,0,1,.242-.668.907.907,0,0,1,.716-.272.922.922,0,0,1,.721.272.96.96,0,0,1,.246.668.929.929,0,0,1-.246.659.938.938,0,0,1-.721.264.924.924,0,0,1-.716-.264A.938.938,0,0,1-23.326,59.968Zm3.929,7.189a5.617,5.617,0,0,1,.549-2.514,4.1,4.1,0,0,1,1.529-1.723,4.163,4.163,0,0,1,2.237-.606,4.01,4.01,0,0,1,3.142,1.345,5.174,5.174,0,0,1,1.2,3.577v.114a5.666,5.666,0,0,1-.532,2.492,4.038,4.038,0,0,1-1.521,1.718,4.211,4.211,0,0,1-2.272.615A4,4,0,0,1-18.2,70.831a5.147,5.147,0,0,1-1.2-3.56Zm1.635.193a4.068,4.068,0,0,0,.734,2.54,2.349,2.349,0,0,0,1.964.958,2.335,2.335,0,0,0,1.969-.971,4.449,4.449,0,0,0,.729-2.72,4.061,4.061,0,0,0-.743-2.536,2.361,2.361,0,0,0-1.973-.971,2.335,2.335,0,0,0-1.942.958A4.416,4.416,0,0,0-17.763,67.351Zm3.419-8.851h1.969l-2.355,2.584-1.31,0Zm7.181,3.99.053,1.2a3.465,3.465,0,0,1,2.848-1.371q3.015,0,3.041,3.4V72H-2.848V65.707a2.189,2.189,0,0,0-.47-1.521,1.884,1.884,0,0,0-1.437-.492,2.347,2.347,0,0,0-1.389.422,2.865,2.865,0,0,0-.932,1.107V72H-8.7V62.49ZM-76.808,84.583h-4.113V96H-82.6V84.583h-4.1V83.2h9.9Zm5.581,3.366a4.873,4.873,0,0,0-.8-.062A2.143,2.143,0,0,0-74.2,89.25V96h-1.626V86.49h1.582l.026,1.1a2.532,2.532,0,0,1,2.268-1.274,1.661,1.661,0,0,1,.721.123ZM-64.213,96a3.416,3.416,0,0,1-.229-1,3.628,3.628,0,0,1-2.707,1.178,3.357,3.357,0,0,1-2.307-.8,2.573,2.573,0,0,1-.9-2.017,2.688,2.688,0,0,1,1.129-2.307,5.325,5.325,0,0,1,3.177-.822h1.582v-.747a1.826,1.826,0,0,0-.51-1.358,2.049,2.049,0,0,0-1.5-.505,2.371,2.371,0,0,0-1.459.439,1.3,1.3,0,0,0-.589,1.063h-1.635a2.244,2.244,0,0,1,.505-1.375,3.449,3.449,0,0,1,1.371-1.05,4.613,4.613,0,0,1,1.9-.387,3.759,3.759,0,0,1,2.575.822,2.964,2.964,0,0,1,.967,2.263v4.377a5.351,5.351,0,0,0,.334,2.083V96Zm-2.7-1.239a2.858,2.858,0,0,0,1.45-.4,2.392,2.392,0,0,0,.993-1.028V91.386h-1.274q-2.988,0-2.988,1.749a1.48,1.48,0,0,0,.51,1.2A1.959,1.959,0,0,0-66.911,94.761Zm8.156-8.271.053,1.2a3.465,3.465,0,0,1,2.848-1.371q3.015,0,3.041,3.4V96h-1.626V89.707a2.189,2.189,0,0,0-.47-1.521,1.884,1.884,0,0,0-1.437-.492,2.347,2.347,0,0,0-1.389.422,2.865,2.865,0,0,0-.932,1.107V96h-1.626V86.49Zm13.931,6.987a1.2,1.2,0,0,0-.5-1.024,4.78,4.78,0,0,0-1.731-.628,8.186,8.186,0,0,1-1.96-.633,2.788,2.788,0,0,1-1.072-.879,2.1,2.1,0,0,1-.347-1.213,2.467,2.467,0,0,1,.989-1.978,3.861,3.861,0,0,1,2.527-.809,3.974,3.974,0,0,1,2.624.835,2.652,2.652,0,0,1,1.006,2.136h-1.635a1.468,1.468,0,0,0-.567-1.151,2.124,2.124,0,0,0-1.428-.483,2.223,2.223,0,0,0-1.389.387,1.217,1.217,0,0,0-.5,1.011.986.986,0,0,0,.466.888,5.731,5.731,0,0,0,1.683.571,8.77,8.77,0,0,1,1.973.65,2.878,2.878,0,0,1,1.121.91,2.237,2.237,0,0,1,.365,1.3,2.434,2.434,0,0,1-1.02,2.043,4.277,4.277,0,0,1-2.646.769,4.789,4.789,0,0,1-2.021-.4,3.288,3.288,0,0,1-1.375-1.129,2.722,2.722,0,0,1-.5-1.569h1.626a1.683,1.683,0,0,0,.655,1.3,2.54,2.54,0,0,0,1.613.479,2.622,2.622,0,0,0,1.481-.374A1.148,1.148,0,0,0-44.824,93.478Zm11.777-2.127a5.694,5.694,0,0,1-.993,3.5,3.183,3.183,0,0,1-2.689,1.327,3.488,3.488,0,0,1-2.725-1.1v4.579H-41.08V86.49h1.485l.079,1.055a3.35,3.35,0,0,1,2.76-1.23,3.243,3.243,0,0,1,2.711,1.292,5.756,5.756,0,0,1,1,3.595Zm-1.626-.185a4.2,4.2,0,0,0-.686-2.54,2.208,2.208,0,0,0-1.881-.932A2.39,2.39,0,0,0-39.454,89v4.544a2.4,2.4,0,0,0,2.232,1.3,2.2,2.2,0,0,0,1.859-.927A4.587,4.587,0,0,0-34.673,91.166Zm3.261-.009a5.617,5.617,0,0,1,.549-2.514,4.1,4.1,0,0,1,1.529-1.723,4.163,4.163,0,0,1,2.237-.606,4.01,4.01,0,0,1,3.142,1.345,5.174,5.174,0,0,1,1.2,3.577v.114a5.666,5.666,0,0,1-.532,2.492,4.038,4.038,0,0,1-1.521,1.718,4.211,4.211,0,0,1-2.272.615,4,4,0,0,1-3.133-1.345,5.147,5.147,0,0,1-1.2-3.56Zm1.635.193a4.068,4.068,0,0,0,.734,2.54,2.349,2.349,0,0,0,1.964.958,2.335,2.335,0,0,0,1.969-.971,4.449,4.449,0,0,0,.729-2.72,4.061,4.061,0,0,0-.743-2.536A2.361,2.361,0,0,0-27.1,87.65a2.335,2.335,0,0,0-1.942.958A4.416,4.416,0,0,0-29.777,91.351Zm13.658-3.4a4.873,4.873,0,0,0-.8-.062A2.143,2.143,0,0,0-19.09,89.25V96h-1.626V86.49h1.582l.026,1.1a2.532,2.532,0,0,1,2.268-1.274,1.661,1.661,0,0,1,.721.123Zm4.14-3.762v2.3H-10.2v1.257h-1.775v5.9a1.32,1.32,0,0,0,.237.858,1,1,0,0,0,.809.286,3.937,3.937,0,0,0,.773-.105V96a4.742,4.742,0,0,1-1.248.175,2.025,2.025,0,0,1-1.644-.659,2.832,2.832,0,0,1-.554-1.872v-5.9h-1.731V86.49h1.731v-2.3Zm7.62,11.988a4.155,4.155,0,0,1-3.146-1.27,4.714,4.714,0,0,1-1.213-3.4v-.3a5.707,5.707,0,0,1,.541-2.527,4.217,4.217,0,0,1,1.512-1.74,3.8,3.8,0,0,1,2.1-.628,3.562,3.562,0,0,1,2.883,1.222,5.289,5.289,0,0,1,1.028,3.5v.677H-7.093a3.38,3.38,0,0,0,.822,2.272,2.583,2.583,0,0,0,2,.866A2.832,2.832,0,0,0-2.812,94.5a3.666,3.666,0,0,0,1.046-.932l.993.773A3.993,3.993,0,0,1-4.359,96.176Zm-.2-8.525a2.169,2.169,0,0,0-1.652.716,3.482,3.482,0,0,0-.826,2.008h4.764v-.123a3.1,3.1,0,0,0-.668-1.92A2.042,2.042,0,0,0-4.562,87.65Z" transform="translate(952 1471)" fill="#00223d"/>
    <path id="Trazado_20918" data-name="Trazado 20918" d="M3.173-5.01V0H1.485V-12.8h4.72A4.742,4.742,0,0,1,9.5-11.725a3.635,3.635,0,0,1,1.191,2.839,3.587,3.587,0,0,1-1.165,2.87A4.954,4.954,0,0,1,6.188-5.01Zm0-1.38H6.205a3.032,3.032,0,0,0,2.074-.638A2.334,2.334,0,0,0,9-8.873,2.411,2.411,0,0,0,8.279-10.7,2.84,2.84,0,0,0,6.3-11.417H3.173ZM18.457-.94A3.454,3.454,0,0,1,15.671.176a2.956,2.956,0,0,1-2.316-.883,3.823,3.823,0,0,1-.8-2.615V-9.51h1.626v6.144q0,2.162,1.758,2.162a2.434,2.434,0,0,0,2.479-1.389V-9.51h1.626V0H18.492Zm12.1-3.709a5.654,5.654,0,0,1-1,3.5A3.2,3.2,0,0,1,26.868.176,3.315,3.315,0,0,1,24.082-1.1L24,0H22.509V-13.5h1.626v5.036a3.3,3.3,0,0,1,2.716-1.222,3.221,3.221,0,0,1,2.72,1.31A5.824,5.824,0,0,1,30.56-4.79Zm-1.626-.185A4.394,4.394,0,0,0,28.292-7.4a2.124,2.124,0,0,0-1.846-.905,2.387,2.387,0,0,0-2.312,1.494V-2.7A2.454,2.454,0,0,0,26.464-1.2a2.112,2.112,0,0,0,1.819-.905A4.672,4.672,0,0,0,28.934-4.834ZM34.374,0H32.748V-13.5h1.626Zm4.368,0H37.116V-9.51h1.626ZM36.984-12.032a.971.971,0,0,1,.242-.668.907.907,0,0,1,.716-.272.922.922,0,0,1,.721.272.96.96,0,0,1,.246.668.929.929,0,0,1-.246.659.938.938,0,0,1-.721.264.924.924,0,0,1-.716-.264A.938.938,0,0,1,36.984-12.032ZM45.158-1.151a2.342,2.342,0,0,0,1.521-.527A1.855,1.855,0,0,0,47.4-3h1.538a2.949,2.949,0,0,1-.562,1.556A3.7,3.7,0,0,1,46.991-.264a3.994,3.994,0,0,1-1.833.439,3.918,3.918,0,0,1-3.089-1.3,5.163,5.163,0,0,1-1.147-3.546v-.272a5.725,5.725,0,0,1,.51-2.47A3.883,3.883,0,0,1,42.9-9.088a4.157,4.157,0,0,1,2.254-.6,3.814,3.814,0,0,1,2.659.958A3.424,3.424,0,0,1,48.938-6.24H47.4a2.241,2.241,0,0,0-.7-1.516,2.174,2.174,0,0,0-1.551-.593,2.276,2.276,0,0,0-1.92.892,4.19,4.19,0,0,0-.681,2.58v.308a4.106,4.106,0,0,0,.677,2.531A2.287,2.287,0,0,0,45.158-1.151ZM52.532,0H50.906V-9.51h1.626ZM50.774-12.032a.971.971,0,0,1,.242-.668.907.907,0,0,1,.716-.272.922.922,0,0,1,.721.272.96.96,0,0,1,.246.668.929.929,0,0,1-.246.659.938.938,0,0,1-.721.264.924.924,0,0,1-.716-.264A.938.938,0,0,1,50.774-12.032Zm3.964,7.2a5.571,5.571,0,0,1,1.037-3.52,3.28,3.28,0,0,1,2.716-1.332,3.3,3.3,0,0,1,2.646,1.143V-13.5h1.626V0H61.269l-.079-1.02a3.311,3.311,0,0,1-2.716,1.2A3.248,3.248,0,0,1,55.78-1.178a5.634,5.634,0,0,1-1.042-3.533Zm1.626.185a4.218,4.218,0,0,0,.668,2.531,2.159,2.159,0,0,0,1.846.914,2.372,2.372,0,0,0,2.259-1.389V-6.961A2.39,2.39,0,0,0,58.9-8.306a2.17,2.17,0,0,0-1.863.923A4.644,4.644,0,0,0,56.364-4.649ZM71.156,0a3.416,3.416,0,0,1-.229-1A3.628,3.628,0,0,1,68.221.176a3.357,3.357,0,0,1-2.307-.8,2.573,2.573,0,0,1-.9-2.017,2.688,2.688,0,0,1,1.129-2.307,5.325,5.325,0,0,1,3.177-.822H70.9v-.747a1.826,1.826,0,0,0-.51-1.358,2.049,2.049,0,0,0-1.5-.505,2.371,2.371,0,0,0-1.459.439,1.3,1.3,0,0,0-.589,1.063H65.206a2.244,2.244,0,0,1,.505-1.375A3.449,3.449,0,0,1,67.083-9.3a4.613,4.613,0,0,1,1.9-.387,3.759,3.759,0,0,1,2.575.822A2.964,2.964,0,0,1,72.527-6.6v4.377a5.351,5.351,0,0,0,.334,2.083V0Zm-2.7-1.239a2.858,2.858,0,0,0,1.45-.4A2.392,2.392,0,0,0,70.9-2.663V-4.614H69.627q-2.988,0-2.988,1.749a1.48,1.48,0,0,0,.51,1.2A1.959,1.959,0,0,0,68.458-1.239Zm6.223-3.595a5.571,5.571,0,0,1,1.037-3.52,3.28,3.28,0,0,1,2.716-1.332,3.3,3.3,0,0,1,2.646,1.143V-13.5h1.626V0H81.211l-.079-1.02a3.311,3.311,0,0,1-2.716,1.2,3.248,3.248,0,0,1-2.694-1.354,5.634,5.634,0,0,1-1.042-3.533Zm1.626.185a4.218,4.218,0,0,0,.668,2.531A2.159,2.159,0,0,0,78.82-1.2a2.372,2.372,0,0,0,2.259-1.389V-6.961a2.39,2.39,0,0,0-2.241-1.345,2.17,2.17,0,0,0-1.863.923A4.644,4.644,0,0,0,76.307-4.649ZM3.173,18.99V24H1.485V11.2h4.72A4.742,4.742,0,0,1,9.5,12.275a3.635,3.635,0,0,1,1.191,2.839,3.587,3.587,0,0,1-1.165,2.87A4.954,4.954,0,0,1,6.188,18.99Zm0-1.38H6.205a3.032,3.032,0,0,0,2.074-.638A2.334,2.334,0,0,0,9,15.127,2.411,2.411,0,0,0,8.279,13.3,2.84,2.84,0,0,0,6.3,12.583H3.173Zm14.01-1.661a4.873,4.873,0,0,0-.8-.062,2.143,2.143,0,0,0-2.171,1.362V24H12.586V14.49h1.582l.026,1.1a2.532,2.532,0,0,1,2.268-1.274,1.661,1.661,0,0,1,.721.123Zm.888,3.208a5.617,5.617,0,0,1,.549-2.514,4.1,4.1,0,0,1,1.529-1.723,4.163,4.163,0,0,1,2.237-.606,4.01,4.01,0,0,1,3.142,1.345,5.174,5.174,0,0,1,1.2,3.577v.114a5.666,5.666,0,0,1-.532,2.492,4.038,4.038,0,0,1-1.521,1.718,4.211,4.211,0,0,1-2.272.615,4,4,0,0,1-3.133-1.345,5.147,5.147,0,0,1-1.2-3.56Zm1.635.193a4.068,4.068,0,0,0,.734,2.54,2.487,2.487,0,0,0,3.933-.013,4.449,4.449,0,0,0,.729-2.72,4.061,4.061,0,0,0-.743-2.536,2.361,2.361,0,0,0-1.973-.971,2.335,2.335,0,0,0-1.942.958A4.416,4.416,0,0,0,19.705,19.351ZM30.3,14.49l.044,1.055a3.512,3.512,0,0,1,2.821-1.23,2.719,2.719,0,0,1,2.716,1.529,3.6,3.6,0,0,1,1.235-1.107,3.647,3.647,0,0,1,1.8-.422q3.129,0,3.182,3.313V24H40.465V17.725A2.184,2.184,0,0,0,40,16.2a2.051,2.051,0,0,0-1.564-.505,2.156,2.156,0,0,0-1.5.541,2.193,2.193,0,0,0-.694,1.455V24H34.6V17.769a1.814,1.814,0,0,0-2.03-2.074,2.175,2.175,0,0,0-2.188,1.362V24H28.758V14.49Zm13.816,4.667a5.617,5.617,0,0,1,.549-2.514,4.1,4.1,0,0,1,1.529-1.723,4.163,4.163,0,0,1,2.237-.606,4.01,4.01,0,0,1,3.142,1.345,5.174,5.174,0,0,1,1.2,3.577v.114a5.666,5.666,0,0,1-.532,2.492,4.038,4.038,0,0,1-1.521,1.718,4.211,4.211,0,0,1-2.272.615,4,4,0,0,1-3.133-1.345,5.147,5.147,0,0,1-1.2-3.56Zm1.635.193a4.068,4.068,0,0,0,.734,2.54,2.487,2.487,0,0,0,3.933-.013,4.449,4.449,0,0,0,.729-2.72,4.061,4.061,0,0,0-.743-2.536,2.361,2.361,0,0,0-1.973-.971,2.335,2.335,0,0,0-1.942.958A4.416,4.416,0,0,0,45.747,19.351Zm12.876,3.5a2.342,2.342,0,0,0,1.521-.527A1.855,1.855,0,0,0,60.864,21H62.4a2.949,2.949,0,0,1-.562,1.556,3.7,3.7,0,0,1-1.384,1.178,3.994,3.994,0,0,1-1.833.439,3.918,3.918,0,0,1-3.089-1.3,5.163,5.163,0,0,1-1.147-3.546v-.272a5.725,5.725,0,0,1,.51-2.47,3.883,3.883,0,0,1,1.463-1.679,4.157,4.157,0,0,1,2.254-.6,3.814,3.814,0,0,1,2.659.958A3.424,3.424,0,0,1,62.4,17.76H60.864a2.241,2.241,0,0,0-.7-1.516,2.174,2.174,0,0,0-1.551-.593,2.276,2.276,0,0,0-1.92.892,4.19,4.19,0,0,0-.681,2.58v.308a4.106,4.106,0,0,0,.677,2.531A2.287,2.287,0,0,0,58.623,22.849ZM66,24H64.371V14.49H66ZM64.239,11.968a.971.971,0,0,1,.242-.668.907.907,0,0,1,.716-.272.922.922,0,0,1,.721.272.96.96,0,0,1,.246.668.929.929,0,0,1-.246.659.938.938,0,0,1-.721.264.924.924,0,0,1-.716-.264A.938.938,0,0,1,64.239,11.968Zm3.929,7.189a5.617,5.617,0,0,1,.549-2.514,4.1,4.1,0,0,1,1.529-1.723,4.163,4.163,0,0,1,2.237-.606,4.01,4.01,0,0,1,3.142,1.345,5.174,5.174,0,0,1,1.2,3.577v.114a5.666,5.666,0,0,1-.532,2.492,4.038,4.038,0,0,1-1.521,1.718,4.211,4.211,0,0,1-2.272.615,4,4,0,0,1-3.133-1.345,5.147,5.147,0,0,1-1.2-3.56Zm1.635.193a4.068,4.068,0,0,0,.734,2.54,2.487,2.487,0,0,0,3.933-.013,4.449,4.449,0,0,0,.729-2.72,4.061,4.061,0,0,0-.743-2.536,2.361,2.361,0,0,0-1.973-.971,2.335,2.335,0,0,0-1.942.958A4.416,4.416,0,0,0,69.8,19.351Zm10.6-4.86.053,1.2A3.465,3.465,0,0,1,83.3,14.314q3.015,0,3.041,3.4V24H84.718V17.707a2.189,2.189,0,0,0-.47-1.521,1.884,1.884,0,0,0-1.437-.492,2.347,2.347,0,0,0-1.389.422,2.865,2.865,0,0,0-.932,1.107V24H78.864V14.49Zm12.34,9.686a4.155,4.155,0,0,1-3.146-1.27,4.714,4.714,0,0,1-1.213-3.4v-.3a5.707,5.707,0,0,1,.541-2.527,4.217,4.217,0,0,1,1.512-1.74,3.8,3.8,0,0,1,2.1-.628,3.562,3.562,0,0,1,2.883,1.222,5.289,5.289,0,0,1,1.028,3.5v.677H90.009a3.38,3.38,0,0,0,.822,2.272,2.583,2.583,0,0,0,2,.866,2.832,2.832,0,0,0,1.459-.352,3.666,3.666,0,0,0,1.046-.932l.993.773A3.993,3.993,0,0,1,92.742,24.176Zm-.2-8.525a2.169,2.169,0,0,0-1.652.716,3.482,3.482,0,0,0-.826,2.008h4.764v-.123a3.1,3.1,0,0,0-.668-1.92A2.042,2.042,0,0,0,92.54,15.65Zm11.329,5.827a1.2,1.2,0,0,0-.5-1.024,4.78,4.78,0,0,0-1.731-.628,8.186,8.186,0,0,1-1.96-.633,2.788,2.788,0,0,1-1.072-.879,2.1,2.1,0,0,1-.347-1.213,2.467,2.467,0,0,1,.989-1.978,3.861,3.861,0,0,1,2.527-.809,3.974,3.974,0,0,1,2.624.835,2.652,2.652,0,0,1,1.006,2.136h-1.635a1.468,1.468,0,0,0-.567-1.151,2.124,2.124,0,0,0-1.428-.483,2.223,2.223,0,0,0-1.389.387,1.217,1.217,0,0,0-.5,1.011.986.986,0,0,0,.466.888,5.731,5.731,0,0,0,1.683.571,8.77,8.77,0,0,1,1.973.65,2.878,2.878,0,0,1,1.121.91,2.237,2.237,0,0,1,.365,1.3,2.434,2.434,0,0,1-1.02,2.043,4.277,4.277,0,0,1-2.646.769,4.789,4.789,0,0,1-2.021-.4,3.288,3.288,0,0,1-1.375-1.129,2.722,2.722,0,0,1-.5-1.569h1.626a1.683,1.683,0,0,0,.655,1.3,2.54,2.54,0,0,0,1.613.479,2.622,2.622,0,0,0,1.481-.374A1.148,1.148,0,0,0,103.869,21.478ZM11.329,42.015A7.916,7.916,0,0,1,10.7,45.3,4.793,4.793,0,0,1,8.9,47.438a4.933,4.933,0,0,1-2.707.738,4.891,4.891,0,0,1-2.681-.743A4.908,4.908,0,0,1,1.7,45.315a7.6,7.6,0,0,1-.664-3.186v-.923a7.822,7.822,0,0,1,.642-3.261,4.891,4.891,0,0,1,1.815-2.167,4.87,4.87,0,0,1,2.685-.751,4.961,4.961,0,0,1,2.711.743A4.784,4.784,0,0,1,10.7,37.923a7.955,7.955,0,0,1,.633,3.283ZM9.65,41.188a5.738,5.738,0,0,0-.914-3.494,3.015,3.015,0,0,0-2.558-1.217,2.982,2.982,0,0,0-2.518,1.217,5.62,5.62,0,0,0-.945,3.379v.94a5.746,5.746,0,0,0,.927,3.467A3,3,0,0,0,6.2,46.743a2.983,2.983,0,0,0,2.531-1.191,5.714,5.714,0,0,0,.923-3.415ZM14.405,48V39.747H12.9V38.49h1.5v-.976a3.238,3.238,0,0,1,.817-2.364,3.088,3.088,0,0,1,2.312-.835,4.293,4.293,0,0,1,1.116.148l-.088,1.311a4.67,4.67,0,0,0-.879-.079,1.586,1.586,0,0,0-1.222.463,1.877,1.877,0,0,0-.431,1.327V38.49h2.03v1.257h-2.03V48Zm9.185.176a4.155,4.155,0,0,1-3.146-1.27,4.714,4.714,0,0,1-1.213-3.4v-.3a5.707,5.707,0,0,1,.541-2.527,4.217,4.217,0,0,1,1.512-1.74,3.8,3.8,0,0,1,2.1-.628,3.562,3.562,0,0,1,2.883,1.222,5.289,5.289,0,0,1,1.028,3.5v.677H20.856a3.38,3.38,0,0,0,.822,2.272,2.583,2.583,0,0,0,2,.866,2.832,2.832,0,0,0,1.459-.352,3.666,3.666,0,0,0,1.046-.932l.993.773A3.993,3.993,0,0,1,23.59,48.176Zm-.2-8.525a2.169,2.169,0,0,0-1.652.716,3.482,3.482,0,0,0-.826,2.008h4.764v-.123A3.1,3.1,0,0,0,25,40.332,2.042,2.042,0,0,0,23.388,39.65Zm10.389.3a4.873,4.873,0,0,0-.8-.062,2.143,2.143,0,0,0-2.171,1.362V48H29.18V38.49h1.582l.026,1.1a2.532,2.532,0,0,1,2.268-1.274,1.661,1.661,0,0,1,.721.123Zm4.14-3.762v2.3h1.775v1.257H37.916v5.9a1.32,1.32,0,0,0,.237.858,1,1,0,0,0,.809.286,3.937,3.937,0,0,0,.773-.105V48a4.742,4.742,0,0,1-1.248.175,2.025,2.025,0,0,1-1.644-.659,2.832,2.832,0,0,1-.554-1.872v-5.9H34.559V38.49H36.29v-2.3ZM47.461,48a3.416,3.416,0,0,1-.229-1,3.628,3.628,0,0,1-2.707,1.178,3.357,3.357,0,0,1-2.307-.8,2.573,2.573,0,0,1-.9-2.017,2.688,2.688,0,0,1,1.129-2.307,5.325,5.325,0,0,1,3.177-.822h1.582v-.747a1.826,1.826,0,0,0-.51-1.358,2.049,2.049,0,0,0-1.5-.505,2.371,2.371,0,0,0-1.459.439,1.3,1.3,0,0,0-.589,1.063H41.511a2.244,2.244,0,0,1,.505-1.375,3.449,3.449,0,0,1,1.371-1.05,4.613,4.613,0,0,1,1.9-.387,3.759,3.759,0,0,1,2.575.822,2.964,2.964,0,0,1,.967,2.263v4.377a5.351,5.351,0,0,0,.334,2.083V48Zm-2.7-1.239a2.858,2.858,0,0,0,1.45-.4,2.392,2.392,0,0,0,.993-1.028V43.386H45.932q-2.988,0-2.988,1.749a1.48,1.48,0,0,0,.51,1.2A1.959,1.959,0,0,0,44.763,46.761Zm12.155-1.283a1.2,1.2,0,0,0-.5-1.024,4.78,4.78,0,0,0-1.731-.628,8.186,8.186,0,0,1-1.96-.633,2.788,2.788,0,0,1-1.072-.879,2.1,2.1,0,0,1-.347-1.213,2.467,2.467,0,0,1,.989-1.978,3.861,3.861,0,0,1,2.527-.809,3.974,3.974,0,0,1,2.624.835,2.652,2.652,0,0,1,1.006,2.136H56.821a1.468,1.468,0,0,0-.567-1.151,2.124,2.124,0,0,0-1.428-.483,2.223,2.223,0,0,0-1.389.387,1.217,1.217,0,0,0-.5,1.011.986.986,0,0,0,.466.888,5.731,5.731,0,0,0,1.683.571,8.77,8.77,0,0,1,1.973.65,2.878,2.878,0,0,1,1.121.91,2.237,2.237,0,0,1,.365,1.3,2.434,2.434,0,0,1-1.02,2.043,4.277,4.277,0,0,1-2.646.769,4.789,4.789,0,0,1-2.021-.4,3.288,3.288,0,0,1-1.375-1.129,2.722,2.722,0,0,1-.5-1.569h1.626a1.683,1.683,0,0,0,.655,1.3,2.54,2.54,0,0,0,1.613.479,2.622,2.622,0,0,0,1.481-.374A1.148,1.148,0,0,0,56.918,45.478ZM6.179,66.823H3.173V72h-1.7V59.2H5.713a5.014,5.014,0,0,1,3.327.984A3.542,3.542,0,0,1,10.2,63.053a3.445,3.445,0,0,1-.646,2.083,3.856,3.856,0,0,1-1.8,1.327l3.006,5.432V72H8.956Zm-3.006-1.38H5.766a2.924,2.924,0,0,0,2-.652,2.2,2.2,0,0,0,.743-1.743A2.32,2.32,0,0,0,7.8,61.226a3,3,0,0,0-2.043-.643H3.173ZM16.26,72.176a4.155,4.155,0,0,1-3.146-1.27,4.714,4.714,0,0,1-1.213-3.4v-.3a5.707,5.707,0,0,1,.541-2.527,4.217,4.217,0,0,1,1.512-1.74,3.8,3.8,0,0,1,2.1-.628,3.562,3.562,0,0,1,2.883,1.222,5.289,5.289,0,0,1,1.028,3.5v.677H13.526a3.38,3.38,0,0,0,.822,2.272,2.583,2.583,0,0,0,2,.866,2.832,2.832,0,0,0,1.459-.352,3.666,3.666,0,0,0,1.046-.932l.993.773A3.993,3.993,0,0,1,16.26,72.176Zm-.2-8.525a2.169,2.169,0,0,0-1.652.716,3.482,3.482,0,0,0-.826,2.008h4.764v-.123a3.1,3.1,0,0,0-.668-1.92A2.042,2.042,0,0,0,16.058,63.65ZM23.616,72H21.99V58.5h1.626Zm8.473,0a3.416,3.416,0,0,1-.229-1,3.628,3.628,0,0,1-2.707,1.178,3.357,3.357,0,0,1-2.307-.8,2.573,2.573,0,0,1-.9-2.017,2.688,2.688,0,0,1,1.129-2.307,5.325,5.325,0,0,1,3.177-.822h1.582v-.747a1.826,1.826,0,0,0-.51-1.358,2.049,2.049,0,0,0-1.5-.505,2.371,2.371,0,0,0-1.459.439,1.3,1.3,0,0,0-.589,1.063H26.139a2.244,2.244,0,0,1,.505-1.375,3.449,3.449,0,0,1,1.371-1.05,4.613,4.613,0,0,1,1.9-.387,3.759,3.759,0,0,1,2.575.822A2.964,2.964,0,0,1,33.46,65.4v4.377a5.351,5.351,0,0,0,.334,2.083V72Zm-2.7-1.239a2.858,2.858,0,0,0,1.45-.4,2.392,2.392,0,0,0,.993-1.028V67.386H30.56q-2.988,0-2.988,1.749a1.48,1.48,0,0,0,.51,1.2A1.959,1.959,0,0,0,29.391,70.761Zm10.433.088a2.342,2.342,0,0,0,1.521-.527A1.855,1.855,0,0,0,42.064,69H43.6a2.949,2.949,0,0,1-.562,1.556,3.7,3.7,0,0,1-1.384,1.178,3.994,3.994,0,0,1-1.833.439,3.918,3.918,0,0,1-3.089-1.3,5.163,5.163,0,0,1-1.147-3.546v-.272a5.725,5.725,0,0,1,.51-2.47,3.883,3.883,0,0,1,1.463-1.679,4.157,4.157,0,0,1,2.254-.6,3.814,3.814,0,0,1,2.659.958A3.424,3.424,0,0,1,43.6,65.76H42.064a2.241,2.241,0,0,0-.7-1.516,2.174,2.174,0,0,0-1.551-.593,2.276,2.276,0,0,0-1.92.892,4.19,4.19,0,0,0-.681,2.58v.308a4.106,4.106,0,0,0,.677,2.531A2.287,2.287,0,0,0,39.823,70.849ZM47.2,72H45.571V62.49H47.2ZM45.439,59.968a.971.971,0,0,1,.242-.668.907.907,0,0,1,.716-.272.922.922,0,0,1,.721.272.96.96,0,0,1,.246.668.929.929,0,0,1-.246.659.938.938,0,0,1-.721.264.924.924,0,0,1-.716-.264A.938.938,0,0,1,45.439,59.968Zm3.929,7.189a5.617,5.617,0,0,1,.549-2.514,4.1,4.1,0,0,1,1.529-1.723,4.163,4.163,0,0,1,2.237-.606,4.01,4.01,0,0,1,3.142,1.345,5.174,5.174,0,0,1,1.2,3.577v.114a5.666,5.666,0,0,1-.532,2.492,4.038,4.038,0,0,1-1.521,1.718,4.211,4.211,0,0,1-2.272.615,4,4,0,0,1-3.133-1.345,5.147,5.147,0,0,1-1.2-3.56ZM51,67.351a4.068,4.068,0,0,0,.734,2.54,2.487,2.487,0,0,0,3.933-.013,4.449,4.449,0,0,0,.729-2.72,4.061,4.061,0,0,0-.743-2.536,2.361,2.361,0,0,0-1.973-.971,2.335,2.335,0,0,0-1.942.958A4.416,4.416,0,0,0,51,67.351Zm10.6-4.86.053,1.2A3.465,3.465,0,0,1,64.5,62.314q3.015,0,3.041,3.4V72H65.918V65.707a2.189,2.189,0,0,0-.47-1.521,1.884,1.884,0,0,0-1.437-.492,2.347,2.347,0,0,0-1.389.422,2.865,2.865,0,0,0-.932,1.107V72H60.064V62.49Zm12.34,9.686a4.155,4.155,0,0,1-3.146-1.27,4.714,4.714,0,0,1-1.213-3.4v-.3a5.707,5.707,0,0,1,.541-2.527,4.217,4.217,0,0,1,1.512-1.74,3.8,3.8,0,0,1,2.1-.628,3.562,3.562,0,0,1,2.883,1.222,5.289,5.289,0,0,1,1.028,3.5v.677H71.209a3.38,3.38,0,0,0,.822,2.272,2.583,2.583,0,0,0,2,.866,2.832,2.832,0,0,0,1.459-.352,3.666,3.666,0,0,0,1.046-.932l.993.773A3.993,3.993,0,0,1,73.942,72.176Zm-.2-8.525a2.169,2.169,0,0,0-1.652.716,3.482,3.482,0,0,0-.826,2.008h4.764v-.123a3.1,3.1,0,0,0-.668-1.92A2.042,2.042,0,0,0,73.74,63.65Zm11.329,5.827a1.2,1.2,0,0,0-.5-1.024,4.78,4.78,0,0,0-1.731-.628,8.186,8.186,0,0,1-1.96-.633,2.788,2.788,0,0,1-1.072-.879,2.1,2.1,0,0,1-.347-1.213,2.467,2.467,0,0,1,.989-1.978,3.861,3.861,0,0,1,2.527-.809,3.974,3.974,0,0,1,2.624.835,2.652,2.652,0,0,1,1.006,2.136H84.973a1.468,1.468,0,0,0-.567-1.151,2.124,2.124,0,0,0-1.428-.483,2.223,2.223,0,0,0-1.389.387,1.217,1.217,0,0,0-.5,1.011.986.986,0,0,0,.466.888,5.731,5.731,0,0,0,1.683.571,8.77,8.77,0,0,1,1.973.65,2.878,2.878,0,0,1,1.121.91,2.237,2.237,0,0,1,.365,1.3,2.434,2.434,0,0,1-1.02,2.043,4.277,4.277,0,0,1-2.646.769,4.789,4.789,0,0,1-2.021-.4,3.288,3.288,0,0,1-1.375-1.129,2.722,2.722,0,0,1-.5-1.569h1.626a1.683,1.683,0,0,0,.655,1.3,2.54,2.54,0,0,0,1.613.479,2.622,2.622,0,0,0,1.481-.374A1.148,1.148,0,0,0,85.069,69.478ZM95.212,66.99V72H93.524V59.2h4.72a4.742,4.742,0,0,1,3.292,1.072,3.635,3.635,0,0,1,1.191,2.839,3.587,3.587,0,0,1-1.165,2.87,4.954,4.954,0,0,1-3.335,1.006Zm0-1.38h3.032a3.032,3.032,0,0,0,2.074-.638,2.334,2.334,0,0,0,.721-1.845,2.411,2.411,0,0,0-.721-1.831,2.84,2.84,0,0,0-1.978-.713H95.212ZM110.5,71.06a3.454,3.454,0,0,1-2.786,1.116,2.956,2.956,0,0,1-2.316-.883,3.823,3.823,0,0,1-.8-2.615V62.49h1.626v6.144q0,2.162,1.758,2.162a2.434,2.434,0,0,0,2.479-1.389V62.49h1.626V72h-1.547Zm12.1-3.709a5.654,5.654,0,0,1-1,3.5,3.2,3.2,0,0,1-2.689,1.323,3.315,3.315,0,0,1-2.786-1.274l-.079,1.1h-1.494V58.5h1.626v5.036a3.3,3.3,0,0,1,2.716-1.222,3.221,3.221,0,0,1,2.72,1.31,5.824,5.824,0,0,1,.989,3.586Zm-1.626-.185a4.394,4.394,0,0,0-.642-2.566,2.124,2.124,0,0,0-1.846-.905,2.387,2.387,0,0,0-2.312,1.494V69.3A2.454,2.454,0,0,0,118.5,70.8a2.112,2.112,0,0,0,1.819-.905A4.672,4.672,0,0,0,120.973,67.166ZM126.413,72h-1.626V58.5h1.626Zm4.368,0h-1.626V62.49h1.626Zm-1.758-12.032a.971.971,0,0,1,.242-.668.907.907,0,0,1,.716-.272.922.922,0,0,1,.721.272.96.96,0,0,1,.246.668.929.929,0,0,1-.246.659.938.938,0,0,1-.721.264.924.924,0,0,1-.716-.264A.938.938,0,0,1,129.023,59.968ZM137.2,70.849a2.342,2.342,0,0,0,1.521-.527A1.855,1.855,0,0,0,139.438,69h1.538a2.949,2.949,0,0,1-.562,1.556,3.7,3.7,0,0,1-1.384,1.178,3.994,3.994,0,0,1-1.833.439,3.918,3.918,0,0,1-3.089-1.3,5.163,5.163,0,0,1-1.147-3.546v-.272a5.725,5.725,0,0,1,.51-2.47,3.883,3.883,0,0,1,1.463-1.679,4.157,4.157,0,0,1,2.254-.6,3.814,3.814,0,0,1,2.659.958,3.424,3.424,0,0,1,1.129,2.487h-1.538a2.241,2.241,0,0,0-.7-1.516,2.174,2.174,0,0,0-1.551-.593,2.276,2.276,0,0,0-1.92.892,4.19,4.19,0,0,0-.681,2.58v.308a4.106,4.106,0,0,0,.677,2.531A2.287,2.287,0,0,0,137.2,70.849ZM148.676,72a3.416,3.416,0,0,1-.229-1,3.628,3.628,0,0,1-2.707,1.178,3.357,3.357,0,0,1-2.307-.8,2.573,2.573,0,0,1-.9-2.017,2.688,2.688,0,0,1,1.129-2.307,5.325,5.325,0,0,1,3.177-.822h1.582v-.747a1.826,1.826,0,0,0-.51-1.358,2.049,2.049,0,0,0-1.5-.505,2.371,2.371,0,0,0-1.459.439,1.3,1.3,0,0,0-.589,1.063h-1.635a2.244,2.244,0,0,1,.505-1.375A3.449,3.449,0,0,1,144.6,62.7a4.613,4.613,0,0,1,1.9-.387,3.759,3.759,0,0,1,2.575.822,2.964,2.964,0,0,1,.967,2.263v4.377a5.351,5.351,0,0,0,.334,2.083V72Zm-2.7-1.239a2.858,2.858,0,0,0,1.45-.4,2.392,2.392,0,0,0,.993-1.028V67.386h-1.274q-2.988,0-2.988,1.749a1.48,1.48,0,0,0,.51,1.2A1.959,1.959,0,0,0,145.978,70.761Zm12.155-1.283a1.2,1.2,0,0,0-.5-1.024,4.78,4.78,0,0,0-1.731-.628,8.186,8.186,0,0,1-1.96-.633,2.788,2.788,0,0,1-1.072-.879,2.1,2.1,0,0,1-.347-1.213,2.467,2.467,0,0,1,.989-1.978,3.861,3.861,0,0,1,2.527-.809,3.974,3.974,0,0,1,2.624.835,2.652,2.652,0,0,1,1.006,2.136h-1.635a1.468,1.468,0,0,0-.567-1.151,2.124,2.124,0,0,0-1.428-.483,2.223,2.223,0,0,0-1.389.387,1.217,1.217,0,0,0-.5,1.011.986.986,0,0,0,.466.888,5.731,5.731,0,0,0,1.683.571,8.77,8.77,0,0,1,1.973.65,2.878,2.878,0,0,1,1.121.91,2.237,2.237,0,0,1,.365,1.3,2.434,2.434,0,0,1-1.02,2.043,4.277,4.277,0,0,1-2.646.769,4.789,4.789,0,0,1-2.021-.4,3.288,3.288,0,0,1-1.375-1.129,2.722,2.722,0,0,1-.5-1.569h1.626a1.683,1.683,0,0,0,.655,1.3,2.54,2.54,0,0,0,1.613.479,2.622,2.622,0,0,0,1.481-.374A1.148,1.148,0,0,0,158.133,69.478ZM10.9,91.939a4.708,4.708,0,0,1-1.5,3.133,4.911,4.911,0,0,1-3.353,1.1A4.509,4.509,0,0,1,2.413,94.55,6.542,6.542,0,0,1,1.046,90.2v-1.23a7.291,7.291,0,0,1,.637-3.138,4.76,4.76,0,0,1,1.806-2.079A5.029,5.029,0,0,1,6.2,83.027a4.624,4.624,0,0,1,3.27,1.138A4.765,4.765,0,0,1,10.9,87.316H9.2a3.677,3.677,0,0,0-.954-2.222A2.885,2.885,0,0,0,6.2,84.407a3.019,3.019,0,0,0-2.536,1.2,5.492,5.492,0,0,0-.918,3.4v1.24a5.645,5.645,0,0,0,.87,3.316A2.812,2.812,0,0,0,6.047,94.8,3.247,3.247,0,0,0,8.2,94.159a3.536,3.536,0,0,0,1-2.219Zm1.617-.782a5.617,5.617,0,0,1,.549-2.514,4.1,4.1,0,0,1,1.529-1.723,4.163,4.163,0,0,1,2.237-.606,4.01,4.01,0,0,1,3.142,1.345,5.174,5.174,0,0,1,1.2,3.577v.114a5.666,5.666,0,0,1-.532,2.492,4.038,4.038,0,0,1-1.521,1.718,4.211,4.211,0,0,1-2.272.615,4,4,0,0,1-3.133-1.345,5.147,5.147,0,0,1-1.2-3.56Zm1.635.193a4.068,4.068,0,0,0,.734,2.54,2.487,2.487,0,0,0,3.933-.013,4.449,4.449,0,0,0,.729-2.72,4.061,4.061,0,0,0-.743-2.536,2.361,2.361,0,0,0-1.973-.971,2.335,2.335,0,0,0-1.942.958A4.416,4.416,0,0,0,14.15,91.351Zm10.591-4.86.044,1.055a3.512,3.512,0,0,1,2.821-1.23,2.719,2.719,0,0,1,2.716,1.529,3.6,3.6,0,0,1,1.235-1.107,3.647,3.647,0,0,1,1.8-.422q3.129,0,3.182,3.313V96H34.91V89.725a2.184,2.184,0,0,0-.466-1.525,2.051,2.051,0,0,0-1.564-.505,2.156,2.156,0,0,0-1.5.541,2.193,2.193,0,0,0-.694,1.455V96H29.048V89.769a1.814,1.814,0,0,0-2.03-2.074,2.175,2.175,0,0,0-2.188,1.362V96H23.2V86.49ZM44.859,95.06a3.454,3.454,0,0,1-2.786,1.116,2.956,2.956,0,0,1-2.316-.883,3.823,3.823,0,0,1-.8-2.615V86.49h1.626v6.144q0,2.162,1.758,2.162a2.434,2.434,0,0,0,2.479-1.389V86.49h1.626V96H44.895Zm5.59-8.569.053,1.2a3.465,3.465,0,0,1,2.848-1.371q3.015,0,3.041,3.4V96H54.765V89.707a2.189,2.189,0,0,0-.47-1.521,1.884,1.884,0,0,0-1.437-.492,2.347,2.347,0,0,0-1.389.422,2.865,2.865,0,0,0-.932,1.107V96H48.911V86.49ZM60.609,96H58.983V86.49h1.626ZM58.852,83.968a.971.971,0,0,1,.242-.668.907.907,0,0,1,.716-.272.922.922,0,0,1,.721.272.96.96,0,0,1,.246.668.929.929,0,0,1-.246.659.938.938,0,0,1-.721.264.924.924,0,0,1-.716-.264A.938.938,0,0,1,58.852,83.968Zm8.174,10.881a2.342,2.342,0,0,0,1.521-.527A1.855,1.855,0,0,0,69.267,93H70.8a2.949,2.949,0,0,1-.562,1.556,3.7,3.7,0,0,1-1.384,1.178,3.994,3.994,0,0,1-1.833.439,3.918,3.918,0,0,1-3.089-1.3,5.163,5.163,0,0,1-1.147-3.546v-.272a5.725,5.725,0,0,1,.51-2.47,3.883,3.883,0,0,1,1.463-1.679,4.157,4.157,0,0,1,2.254-.6,3.814,3.814,0,0,1,2.659.958A3.424,3.424,0,0,1,70.8,89.76H69.267a2.241,2.241,0,0,0-.7-1.516,2.174,2.174,0,0,0-1.551-.593,2.276,2.276,0,0,0-1.92.892,4.19,4.19,0,0,0-.681,2.58v.308a4.106,4.106,0,0,0,.677,2.531A2.287,2.287,0,0,0,67.025,94.849ZM78.5,96a3.416,3.416,0,0,1-.229-1,3.628,3.628,0,0,1-2.707,1.178,3.357,3.357,0,0,1-2.307-.8,2.573,2.573,0,0,1-.9-2.017,2.688,2.688,0,0,1,1.129-2.307,5.325,5.325,0,0,1,3.177-.822h1.582v-.747a1.826,1.826,0,0,0-.51-1.358,2.049,2.049,0,0,0-1.5-.505,2.371,2.371,0,0,0-1.459.439,1.3,1.3,0,0,0-.589,1.063H72.554a2.244,2.244,0,0,1,.505-1.375A3.449,3.449,0,0,1,74.43,86.7a4.613,4.613,0,0,1,1.9-.387,3.759,3.759,0,0,1,2.575.822,2.964,2.964,0,0,1,.967,2.263v4.377a5.351,5.351,0,0,0,.334,2.083V96Zm-2.7-1.239a2.858,2.858,0,0,0,1.45-.4,2.392,2.392,0,0,0,.993-1.028V91.386H76.975q-2.988,0-2.988,1.749a1.48,1.48,0,0,0,.51,1.2A1.959,1.959,0,0,0,75.806,94.761Zm10.433.088a2.342,2.342,0,0,0,1.521-.527A1.855,1.855,0,0,0,88.479,93h1.538a2.949,2.949,0,0,1-.562,1.556,3.7,3.7,0,0,1-1.384,1.178,3.994,3.994,0,0,1-1.833.439,3.918,3.918,0,0,1-3.089-1.3A5.163,5.163,0,0,1,82,91.333v-.272a5.725,5.725,0,0,1,.51-2.47,3.883,3.883,0,0,1,1.463-1.679,4.157,4.157,0,0,1,2.254-.6,3.814,3.814,0,0,1,2.659.958,3.424,3.424,0,0,1,1.129,2.487H88.479a2.241,2.241,0,0,0-.7-1.516,2.174,2.174,0,0,0-1.551-.593,2.276,2.276,0,0,0-1.92.892,4.19,4.19,0,0,0-.681,2.58v.308a4.106,4.106,0,0,0,.677,2.531A2.287,2.287,0,0,0,86.238,94.849ZM93.612,96H91.986V86.49h1.626ZM91.854,83.968A.971.971,0,0,1,92.1,83.3a.907.907,0,0,1,.716-.272.922.922,0,0,1,.721.272.96.96,0,0,1,.246.668.929.929,0,0,1-.246.659.938.938,0,0,1-.721.264.924.924,0,0,1-.716-.264A.938.938,0,0,1,91.854,83.968Zm3.929,7.189a5.617,5.617,0,0,1,.549-2.514,4.1,4.1,0,0,1,1.529-1.723,4.163,4.163,0,0,1,2.237-.606,4.01,4.01,0,0,1,3.142,1.345,5.174,5.174,0,0,1,1.2,3.577v.114a5.666,5.666,0,0,1-.532,2.492,4.038,4.038,0,0,1-1.521,1.718,4.211,4.211,0,0,1-2.272.615,4,4,0,0,1-3.133-1.345,5.147,5.147,0,0,1-1.2-3.56Zm1.635.193a4.068,4.068,0,0,0,.734,2.54,2.487,2.487,0,0,0,3.933-.013,4.449,4.449,0,0,0,.729-2.72,4.061,4.061,0,0,0-.743-2.536,2.361,2.361,0,0,0-1.973-.971,2.335,2.335,0,0,0-1.942.958A4.416,4.416,0,0,0,97.418,91.351Zm3.419-8.851h1.969l-2.355,2.584-1.31,0Zm7.181,3.99.053,1.2a3.465,3.465,0,0,1,2.848-1.371q3.015,0,3.041,3.4V96h-1.626V89.707a2.189,2.189,0,0,0-.47-1.521,1.884,1.884,0,0,0-1.437-.492,2.347,2.347,0,0,0-1.389.422,2.865,2.865,0,0,0-.932,1.107V96h-1.626V86.49Z" transform="translate(447 1471)" fill="#00223d"/>
    <path id="Trazado_19355" data-name="Trazado 19355" d="M533.975,790.881l32.792,32.793a9.022,9.022,0,0,0,13.448-.8,127.991,127.991,0,0,0,0-158.882,9.022,9.022,0,0,0-13.447-.8l-32.793,32.793a9.038,9.038,0,0,0-1.018,11.506,63.914,63.914,0,0,1,0,71.89A9.036,9.036,0,0,0,533.975,790.881Z" transform="translate(885.544 452.087) rotate(45)" fill="#d64626"/>
    <path id="Trazado_19356" data-name="Trazado 19356" d="M426.344,695.979l-32.792-32.792a9.022,9.022,0,0,0-13.448.8,127.991,127.991,0,0,0,0,158.882,9.022,9.022,0,0,0,13.448.8l32.792-32.792a9.035,9.035,0,0,0,1.017-11.506,63.918,63.918,0,0,1,0-71.89A9.035,9.035,0,0,0,426.344,695.979Z" transform="translate(885.544 452.087) rotate(45)" fill="#97181a"/>
    <g id="Grupo_23702" data-name="Grupo 23702" transform="translate(885.544 452.087) rotate(45)">
      <path id="Trazado_19357" data-name="Trazado 19357" d="M432.708,797.245l-32.791,32.792a9.024,9.024,0,0,0,.8,13.449,128,128,0,0,0,158.883,0,9.023,9.023,0,0,0,.8-13.449L527.61,797.245a9.036,9.036,0,0,0-11.506-1.017,63.918,63.918,0,0,1-71.89,0A9.038,9.038,0,0,0,432.708,797.245Z" fill="#b52426"/>
    </g>
    <path id="Trazado_19358" data-name="Trazado 19358" d="M527.61,689.615,560.4,656.822a9.022,9.022,0,0,0-.8-13.448,127.992,127.992,0,0,0-158.883,0,9.022,9.022,0,0,0-.8,13.448l32.792,32.792a9.036,9.036,0,0,0,11.506,1.018,63.916,63.916,0,0,1,71.89,0A9.036,9.036,0,0,0,527.61,689.615Z" transform="translate(885.544 452.087) rotate(45)" fill="#ff8f00"/>
    <path id="Trazado_20919" data-name="Trazado 20919" d="M112,0H0" transform="translate(447.5 1316.5)" fill="none" stroke="#2b4e6a" stroke-width="3"/>
    <path id="Trazado_20917" data-name="Trazado 20917" d="M112,0H0" transform="translate(840.5 1316.5)" fill="none" stroke="#2b4e6a" stroke-width="3"/>
    <path id="Trazado_20916" data-name="Trazado 20916" d="M112,0H0" transform="translate(699.5 1457.5) rotate(90)" fill="none" stroke="#2b4e6a" stroke-width="3"/>
    <path id="Trazado_20923" data-name="Trazado 20923" d="M112,0H0" transform="translate(699.5 1066.5) rotate(90)" fill="none" stroke="#2b4e6a" stroke-width="3"/>
    <g id="testing" transform="translate(654.704 1274.602)">
      <path id="Trazado_19359" data-name="Trazado 19359" d="M45.3.125A45.631,45.631,0,0,0,10.422,16.589l-3.4-3.342a2.464,2.464,0,0,0-2.706-.637A2.449,2.449,0,0,0,2.57,14.732L.024,32.24c-.288,2.155,2.2,3.384,3.024,2.971l17.508-2.493a2.513,2.513,0,0,0,2.122-1.751,2.673,2.673,0,0,0-.637-2.759l-4.032-4.032a34.676,34.676,0,0,1,61.95,21.115V45.4c0,.674-.022,1.349-.064,2.018a2.655,2.655,0,0,0,3.035,2.79l5.347-.783a2.652,2.652,0,0,0,2.267-2.53c.017-.5.026-1,.026-1.5A45.415,45.415,0,0,0,45.3.125Z" transform="translate(0)" fill="#2b4e6a"/>
      <path id="Trazado_19360" data-name="Trazado 19360" d="M87.648,240.769,70.14,243.262a2.513,2.513,0,0,0-2.122,1.751,2.674,2.674,0,0,0,.637,2.759l4.245,4.244a34.652,34.652,0,0,1-62.162-20.9c.018-.345-.043-1.088.074-2.5A2.657,2.657,0,0,0,7.8,225.766l-5.346.752a2.652,2.652,0,0,0-2.28,2.5c-.067,1.478-.037,2.668-.044,3.2A45.251,45.251,0,0,0,80.539,259.6l3.13,3.13a2.507,2.507,0,0,0,2.706.637,2.449,2.449,0,0,0,1.751-2.122l2.546-17.508A2.7,2.7,0,0,0,87.648,240.769Z" transform="translate(-0.102 -185.715)" fill="#2b4e6a"/>
    </g>
  </g>
</svg>
