<svg xmlns="http://www.w3.org/2000/svg" width="509" height="393.04" viewBox="0 0 509 393.04">
  <g id="Grupo_25920" data-name="Grupo 25920" transform="translate(-446 -3600)">
    <g id="Grupo_19684" data-name="Grupo 19684" transform="translate(0 24)">
      <g id="Grupo_19683" data-name="Grupo 19683">
        <path id="Trazado_17678" data-name="Trazado 17678" d="M615.7,344.083v-.246h-509v.247l23.665,80.774H592.036Z" transform="translate(339.299 3232.164)" fill="#97181a"/>
        <path id="Trazado_17679" data-name="Trazado 17679" d="M160.839,528.863H561.563L585.3,447.843H137.1Z" transform="translate(339.299 3232.164)" fill="#b52426"/>
        <path id="Trazado_17680" data-name="Trazado 17680" d="M191.311,632.869h339.78l23.738-81.021H167.573Z" transform="translate(339.299 3232.164)" fill="#d64626"/>
        <path id="Trazado_17681" data-name="Trazado 17681" d="M221.783,736.876H500.619l23.738-81.021H198.046Z" transform="translate(339.299 3232.164)" fill="#ff8f00"/>
      </g>
      <path id="Trazado_20118" data-name="Trazado 20118" d="M38.283,17.176V22H35.129V8H40.07q5.293,0,5.293,4.463a4.282,4.282,0,0,1-1.519,3.413,6.016,6.016,0,0,1-4.058,1.3Zm0-6.758v4.365h1.24q2.52,0,2.52-2.207,0-2.158-2.52-2.158ZM55.5,17.879H48.977q.156,2.178,2.744,2.178a5.357,5.357,0,0,0,2.9-.781V21.5a7.619,7.619,0,0,1-3.6.742,5.073,5.073,0,0,1-3.76-1.343,5.073,5.073,0,0,1-1.338-3.745,5.352,5.352,0,0,1,1.445-3.945,4.815,4.815,0,0,1,3.555-1.455,4.37,4.37,0,0,1,3.384,1.3,5,5,0,0,1,1.2,3.525Zm-2.861-1.895q0-2.148-1.738-2.148a1.66,1.66,0,0,0-1.284.615,2.792,2.792,0,0,0-.659,1.533Zm11.221-1.2a2.677,2.677,0,0,0-1.3-.3,1.871,1.871,0,0,0-1.572.737,3.217,3.217,0,0,0-.566,2.007V22H57.336V12h3.086v1.855h.039A2.67,2.67,0,0,1,63.1,11.824a1.987,1.987,0,0,1,.762.117Zm.9,6.953v-2.5a6.57,6.57,0,0,0,1.519.684,5.035,5.035,0,0,0,1.431.225A3.068,3.068,0,0,0,69,19.92a.726.726,0,0,0,.474-.684.632.632,0,0,0-.215-.488,2,2,0,0,0-.552-.342,6.261,6.261,0,0,0-.737-.264q-.4-.117-.771-.264a7.392,7.392,0,0,1-1.05-.483,3.034,3.034,0,0,1-.762-.6A2.361,2.361,0,0,1,64.919,16a3.157,3.157,0,0,1-.161-1.064,2.74,2.74,0,0,1,.366-1.445A2.991,2.991,0,0,1,66.1,12.5a4.462,4.462,0,0,1,1.4-.566,7.281,7.281,0,0,1,1.636-.181,9.076,9.076,0,0,1,1.348.1,10.059,10.059,0,0,1,1.348.3v2.383a4.87,4.87,0,0,0-1.255-.513,5.294,5.294,0,0,0-1.313-.171,2.91,2.91,0,0,0-.571.054,1.882,1.882,0,0,0-.474.156.87.87,0,0,0-.322.264.607.607,0,0,0-.117.366.677.677,0,0,0,.176.469,1.527,1.527,0,0,0,.459.337,4.531,4.531,0,0,0,.63.254q.347.112.688.229a8.951,8.951,0,0,1,1.113.469,3.56,3.56,0,0,1,.854.6,2.339,2.339,0,0,1,.547.8,3.2,3.2,0,0,1-.2,2.612,3.088,3.088,0,0,1-1.025,1.025,4.65,4.65,0,0,1-1.475.576,8.175,8.175,0,0,1-1.733.181A8.936,8.936,0,0,1,64.758,21.736Zm14.219.508a5.376,5.376,0,0,1-3.931-1.4,5.081,5.081,0,0,1-1.431-3.8A5.081,5.081,0,0,1,75.1,13.157a5.609,5.609,0,0,1,4.014-1.4,5.311,5.311,0,0,1,3.906,1.4,4.981,4.981,0,0,1,1.416,3.706,5.288,5.288,0,0,1-1.46,3.936A5.435,5.435,0,0,1,78.977,22.244Zm.078-8.125a2.058,2.058,0,0,0-1.7.752A3.316,3.316,0,0,0,76.75,17q0,2.881,2.324,2.881,2.217,0,2.217-2.959Q81.291,14.119,79.055,14.119ZM96.1,22H93.02V16.443q0-2.324-1.66-2.324a1.647,1.647,0,0,0-1.318.615,2.344,2.344,0,0,0-.518,1.563V22H86.438V12h3.086v1.582h.039a3.536,3.536,0,0,1,3.213-1.826q3.32,0,3.32,4.121Zm10.762,0h-2.92V20.564H103.9a3.259,3.259,0,0,1-2.979,1.68,3.116,3.116,0,0,1-2.29-.825,2.957,2.957,0,0,1-.835-2.2q0-2.91,3.447-3.359l2.715-.361q0-1.641-1.777-1.641a6.067,6.067,0,0,0-3.4,1.064V12.6a7.646,7.646,0,0,1,1.763-.586,9.266,9.266,0,0,1,2.036-.254q4.277,0,4.277,4.268Zm-2.9-4.062v-.674l-1.816.234q-1.5.2-1.5,1.357a1.122,1.122,0,0,0,.366.864,1.407,1.407,0,0,0,.991.337,1.827,1.827,0,0,0,1.416-.6A2.169,2.169,0,0,0,103.957,17.938ZM112.385,22H109.3V7.2h3.086Zm17.9,0H127.2V20.623h-.039a3.46,3.46,0,0,1-3.1,1.621,3.791,3.791,0,0,1-3.018-1.323,5.478,5.478,0,0,1-1.143-3.7,5.962,5.962,0,0,1,1.26-3.975,4.109,4.109,0,0,1,3.3-1.494,2.808,2.808,0,0,1,2.7,1.387h.039V7.2h3.086Zm-3.027-4.863v-.752a2.366,2.366,0,0,0-.566-1.621,2,2,0,0,0-3.076.161,3.741,3.741,0,0,0-.576,2.212,3.237,3.237,0,0,0,.557,2.031,1.976,1.976,0,0,0,3.071-.039A3.134,3.134,0,0,0,127.258,17.137Zm14.609.742h-6.523q.156,2.178,2.744,2.178a5.357,5.357,0,0,0,2.9-.781V21.5a7.62,7.62,0,0,1-3.6.742,5.073,5.073,0,0,1-3.76-1.343,5.073,5.073,0,0,1-1.338-3.745,5.351,5.351,0,0,1,1.445-3.945,4.815,4.815,0,0,1,3.555-1.455,4.37,4.37,0,0,1,3.384,1.3,5,5,0,0,1,1.2,3.525Zm-2.861-1.895q0-2.148-1.738-2.148a1.66,1.66,0,0,0-1.284.615,2.792,2.792,0,0,0-.659,1.533Zm13.34,4.854h-.039V26.6h-3.086V12h3.086v1.5h.039a3.927,3.927,0,0,1,6.216-.415,5.676,5.676,0,0,1,1.06,3.628,6.152,6.152,0,0,1-1.235,4.014,4.028,4.028,0,0,1-3.286,1.514A3.114,3.114,0,0,1,152.346,20.838Zm-.088-4.1v.8a2.546,2.546,0,0,0,.547,1.689,1.78,1.78,0,0,0,1.436.654,1.892,1.892,0,0,0,1.636-.815,3.937,3.937,0,0,0,.581-2.31q0-2.637-2.051-2.637a1.926,1.926,0,0,0-1.548.718A2.863,2.863,0,0,0,152.258,16.736Zm15.889-1.953a2.677,2.677,0,0,0-1.3-.3,1.871,1.871,0,0,0-1.572.737,3.216,3.216,0,0,0-.566,2.007V22h-3.086V12h3.086v1.855h.039a2.67,2.67,0,0,1,2.637-2.031,1.987,1.987,0,0,1,.762.117Zm3.076-4.365a1.8,1.8,0,0,1-1.279-.464,1.5,1.5,0,0,1-.5-1.138,1.441,1.441,0,0,1,.5-1.133,2.089,2.089,0,0,1,2.563,0A1.448,1.448,0,0,1,173,8.816a1.489,1.489,0,0,1-.493,1.152A1.833,1.833,0,0,1,171.223,10.418ZM172.746,22H169.66V12h3.086Zm18.477,0h-3.076V16.3q0-2.178-1.6-2.178a1.471,1.471,0,0,0-1.24.654,2.689,2.689,0,0,0-.479,1.631V22H181.74V16.238q0-2.119-1.572-2.119a1.507,1.507,0,0,0-1.265.625,2.75,2.75,0,0,0-.474,1.7V22h-3.086V12h3.086v1.563h.039a3.789,3.789,0,0,1,3.232-1.807,2.88,2.88,0,0,1,2.9,1.865,3.7,3.7,0,0,1,3.359-1.865q3.262,0,3.262,4.023Zm11.426-4.121h-6.523q.156,2.178,2.744,2.178a5.357,5.357,0,0,0,2.9-.781V21.5a7.62,7.62,0,0,1-3.6.742,5.073,5.073,0,0,1-3.76-1.343,5.073,5.073,0,0,1-1.338-3.745,5.351,5.351,0,0,1,1.445-3.945,4.815,4.815,0,0,1,3.555-1.455,4.37,4.37,0,0,1,3.384,1.3,5,5,0,0,1,1.2,3.525Zm-2.861-1.895q0-2.148-1.738-2.148a1.66,1.66,0,0,0-1.284.615,2.792,2.792,0,0,0-.659,1.533Zm11.221-1.2a2.677,2.677,0,0,0-1.3-.3,1.871,1.871,0,0,0-1.572.737,3.216,3.216,0,0,0-.566,2.007V22h-3.086V12h3.086v1.855h.039a2.67,2.67,0,0,1,2.637-2.031,1.987,1.987,0,0,1,.762.117ZM220.764,22h-2.92V20.564H217.8a3.259,3.259,0,0,1-2.979,1.68,3.116,3.116,0,0,1-2.29-.825,2.957,2.957,0,0,1-.835-2.2q0-2.91,3.447-3.359l2.715-.361q0-1.641-1.777-1.641a6.067,6.067,0,0,0-3.4,1.064V12.6a7.646,7.646,0,0,1,1.763-.586,9.266,9.266,0,0,1,2.036-.254q4.277,0,4.277,4.268Zm-2.9-4.062v-.674l-1.816.234q-1.5.2-1.5,1.357a1.122,1.122,0,0,0,.366.864,1.407,1.407,0,0,0,.991.337,1.827,1.827,0,0,0,1.416-.6A2.169,2.169,0,0,0,217.863,17.938ZM231.809,22h-3.086V7.2h3.086Zm5.684,0h-3.086V12h3.086Zm1.592-14.736-3.057,3.154H233.8l2.539-3.154ZM249.748,22h-3.076V16.443q0-2.324-1.66-2.324a1.647,1.647,0,0,0-1.318.615,2.344,2.344,0,0,0-.518,1.563V22H240.09V12h3.086v1.582h.039a3.536,3.536,0,0,1,3.213-1.826q3.32,0,3.32,4.121Zm11.426-4.121H254.65q.156,2.178,2.744,2.178a5.358,5.358,0,0,0,2.9-.781V21.5a7.619,7.619,0,0,1-3.6.742,5.073,5.073,0,0,1-3.76-1.343,5.073,5.073,0,0,1-1.338-3.745,5.351,5.351,0,0,1,1.445-3.945,4.815,4.815,0,0,1,3.555-1.455,4.37,4.37,0,0,1,3.384,1.3,5,5,0,0,1,1.2,3.525Zm-2.861-1.895q0-2.148-1.738-2.148a1.66,1.66,0,0,0-1.284.615,2.792,2.792,0,0,0-.659,1.533ZM271.33,22h-2.92V20.564h-.039a3.259,3.259,0,0,1-2.979,1.68,3.116,3.116,0,0,1-2.29-.825,2.957,2.957,0,0,1-.835-2.2q0-2.91,3.447-3.359l2.715-.361q0-1.641-1.777-1.641a6.067,6.067,0,0,0-3.4,1.064V12.6a7.645,7.645,0,0,1,1.763-.586,9.266,9.266,0,0,1,2.036-.254q4.277,0,4.277,4.268Zm-2.9-4.062v-.674l-1.816.234q-1.5.2-1.5,1.357a1.122,1.122,0,0,0,.366.864,1.407,1.407,0,0,0,.991.337,1.827,1.827,0,0,0,1.416-.6A2.169,2.169,0,0,0,268.43,17.938Z" transform="translate(548 3708)" fill="#fff"/>
      <path id="Trazado_20119" data-name="Trazado 20119" d="M101.41,21.063a10.078,10.078,0,0,1-5.1,1.182,7.372,7.372,0,0,1-5.327-1.87,6.8,6.8,0,0,1-1.948-5.151,7.192,7.192,0,0,1,2.129-5.381,7.756,7.756,0,0,1,5.664-2.08,11.5,11.5,0,0,1,3.926.615v2.959a7.8,7.8,0,0,0-3.965-.937,4.257,4.257,0,0,0-3.2,1.274,4.682,4.682,0,0,0-1.235,3.4,4.7,4.7,0,0,0,1.108,3.34A3.907,3.907,0,0,0,96.459,19.6a4.166,4.166,0,0,0,1.8-.322V16.541h-2.8v-2.52h5.957Zm11.406-3.184h-6.523q.156,2.178,2.744,2.178a5.357,5.357,0,0,0,2.9-.781V21.5a7.619,7.619,0,0,1-3.6.742,5.073,5.073,0,0,1-3.76-1.343,5.073,5.073,0,0,1-1.338-3.745,5.352,5.352,0,0,1,1.445-3.945,4.815,4.815,0,0,1,3.555-1.455,4.37,4.37,0,0,1,3.384,1.3,5,5,0,0,1,1.2,3.525Zm-2.861-1.895q0-2.148-1.738-2.148a1.66,1.66,0,0,0-1.284.615,2.792,2.792,0,0,0-.659,1.533Zm11.221-1.2a2.677,2.677,0,0,0-1.3-.3,1.871,1.871,0,0,0-1.572.737,3.217,3.217,0,0,0-.566,2.007V22h-3.086V12h3.086v1.855h.039a2.67,2.67,0,0,1,2.637-2.031,1.987,1.987,0,0,1,.762.117Zm10.342,3.1h-6.523q.156,2.178,2.744,2.178a5.357,5.357,0,0,0,2.9-.781V21.5a7.62,7.62,0,0,1-3.6.742,5.073,5.073,0,0,1-3.76-1.343,5.073,5.073,0,0,1-1.338-3.745,5.352,5.352,0,0,1,1.445-3.945,4.815,4.815,0,0,1,3.555-1.455,4.37,4.37,0,0,1,3.384,1.3,5,5,0,0,1,1.2,3.525Zm-2.861-1.895q0-2.148-1.738-2.148a1.66,1.66,0,0,0-1.284.615,2.792,2.792,0,0,0-.659,1.533ZM143.012,22h-3.076V16.443q0-2.324-1.66-2.324a1.647,1.647,0,0,0-1.318.615,2.344,2.344,0,0,0-.518,1.563V22h-3.086V12h3.086v1.582h.039a3.536,3.536,0,0,1,3.213-1.826q3.32,0,3.32,4.121Zm10.02-.361a6.1,6.1,0,0,1-3.018.605,5.1,5.1,0,0,1-3.73-1.4,4.823,4.823,0,0,1-1.426-3.6,5.313,5.313,0,0,1,1.528-4.019,5.648,5.648,0,0,1,4.087-1.47,5.244,5.244,0,0,1,2.559.469v2.617a3.518,3.518,0,0,0-2.158-.723,2.844,2.844,0,0,0-2.1.776,2.9,2.9,0,0,0-.776,2.144,2.85,2.85,0,0,0,.742,2.085,2.728,2.728,0,0,0,2.041.757,4.073,4.073,0,0,0,2.256-.723Zm3.584-11.221a1.8,1.8,0,0,1-1.279-.464,1.5,1.5,0,0,1-.5-1.138,1.441,1.441,0,0,1,.5-1.133,2.089,2.089,0,0,1,2.563,0,1.448,1.448,0,0,1,.493,1.133,1.489,1.489,0,0,1-.493,1.152A1.833,1.833,0,0,1,156.615,10.418ZM158.139,22h-3.086V12h3.086Zm10.918,0h-2.92V20.564H166.1a3.259,3.259,0,0,1-2.979,1.68,3.116,3.116,0,0,1-2.29-.825,2.957,2.957,0,0,1-.835-2.2q0-2.91,3.447-3.359l2.715-.361q0-1.641-1.777-1.641a6.067,6.067,0,0,0-3.4,1.064V12.6a7.646,7.646,0,0,1,1.763-.586,9.266,9.266,0,0,1,2.036-.254q4.277,0,4.277,4.268Zm-2.9-4.062v-.674l-1.816.234q-1.5.2-1.5,1.357a1.122,1.122,0,0,0,.366.864,1.407,1.407,0,0,0,.991.337,1.827,1.827,0,0,0,1.416-.6A2.169,2.169,0,0,0,166.156,17.938ZM192.895,22h-3.076V16.3q0-2.178-1.6-2.178a1.471,1.471,0,0,0-1.24.654A2.689,2.689,0,0,0,186.5,16.4V22h-3.086V16.238q0-2.119-1.572-2.119a1.507,1.507,0,0,0-1.265.625,2.75,2.75,0,0,0-.474,1.7V22h-3.086V12H180.1v1.563h.039a3.789,3.789,0,0,1,3.232-1.807,2.88,2.88,0,0,1,2.9,1.865,3.7,3.7,0,0,1,3.359-1.865q3.262,0,3.262,4.023Zm11.426-4.121H197.8q.156,2.178,2.744,2.178a5.357,5.357,0,0,0,2.9-.781V21.5a7.62,7.62,0,0,1-3.6.742,5.073,5.073,0,0,1-3.76-1.343,5.073,5.073,0,0,1-1.338-3.745,5.351,5.351,0,0,1,1.445-3.945,4.815,4.815,0,0,1,3.555-1.455,4.37,4.37,0,0,1,3.384,1.3,5,5,0,0,1,1.2,3.525Zm-2.861-1.895q0-2.148-1.738-2.148a1.66,1.66,0,0,0-1.284.615,2.792,2.792,0,0,0-.659,1.533ZM215.941,22h-3.086V20.623h-.039a3.46,3.46,0,0,1-3.1,1.621,3.791,3.791,0,0,1-3.018-1.323,5.478,5.478,0,0,1-1.143-3.7,5.962,5.962,0,0,1,1.26-3.975,4.109,4.109,0,0,1,3.3-1.494,2.808,2.808,0,0,1,2.7,1.387h.039V7.2h3.086Zm-3.027-4.863v-.752a2.366,2.366,0,0,0-.566-1.621,2,2,0,0,0-3.076.161,3.741,3.741,0,0,0-.576,2.212,3.237,3.237,0,0,0,.557,2.031,1.976,1.976,0,0,0,3.071-.039A3.134,3.134,0,0,0,212.914,17.137Zm7.188-6.719a1.8,1.8,0,0,1-1.279-.464,1.5,1.5,0,0,1-.5-1.138,1.441,1.441,0,0,1,.5-1.133,2.089,2.089,0,0,1,2.563,0,1.448,1.448,0,0,1,.493,1.133,1.489,1.489,0,0,1-.493,1.152A1.833,1.833,0,0,1,220.1,10.418ZM221.625,22h-3.086V12h3.086Zm10.918,0h-2.92V20.564h-.039a3.259,3.259,0,0,1-2.979,1.68,3.116,3.116,0,0,1-2.29-.825,2.957,2.957,0,0,1-.835-2.2q0-2.91,3.447-3.359l2.715-.361q0-1.641-1.777-1.641a6.067,6.067,0,0,0-3.4,1.064V12.6a7.646,7.646,0,0,1,1.763-.586,9.266,9.266,0,0,1,2.036-.254q4.277,0,4.277,4.268Zm-2.9-4.062v-.674l-1.816.234q-1.5.2-1.5,1.357a1.122,1.122,0,0,0,.366.864,1.407,1.407,0,0,0,.991.337,1.827,1.827,0,0,0,1.416-.6A2.169,2.169,0,0,0,229.643,17.938Z" transform="translate(540 3811)" fill="#fff"/>
      <path id="Trazado_20120" data-name="Trazado 20120" d="M60.668,22V8h4.961q7.461,0,7.461,6.826a6.9,6.9,0,0,1-2.036,5.225A7.508,7.508,0,0,1,65.629,22Zm3.154-11.436v8.877h1.563a4.222,4.222,0,0,0,3.218-1.23,4.669,4.669,0,0,0,1.167-3.35,4.235,4.235,0,0,0-1.157-3.149,4.412,4.412,0,0,0-3.247-1.147Zm12.852-.146a1.8,1.8,0,0,1-1.279-.464,1.5,1.5,0,0,1-.5-1.138,1.441,1.441,0,0,1,.5-1.133,2.089,2.089,0,0,1,2.563,0,1.448,1.448,0,0,1,.493,1.133,1.489,1.489,0,0,1-.493,1.152A1.833,1.833,0,0,1,76.674,10.418ZM78.2,22H75.111V12H78.2Zm9.121-7.217a2.677,2.677,0,0,0-1.3-.3,1.871,1.871,0,0,0-1.572.737,3.217,3.217,0,0,0-.566,2.007V22H80.795V12h3.086v1.855h.039a2.67,2.67,0,0,1,2.637-2.031,1.987,1.987,0,0,1,.762.117Zm10.342,3.1H91.137q.156,2.178,2.744,2.178a5.357,5.357,0,0,0,2.9-.781V21.5a7.619,7.619,0,0,1-3.6.742,5.073,5.073,0,0,1-3.76-1.343,5.073,5.073,0,0,1-1.338-3.745,5.352,5.352,0,0,1,1.445-3.945,4.815,4.815,0,0,1,3.555-1.455,4.37,4.37,0,0,1,3.384,1.3,5,5,0,0,1,1.2,3.525ZM94.8,15.984q0-2.148-1.738-2.148a1.66,1.66,0,0,0-1.284.615,2.792,2.792,0,0,0-.659,1.533Zm12.275,5.654a6.1,6.1,0,0,1-3.018.605,5.1,5.1,0,0,1-3.73-1.4,4.823,4.823,0,0,1-1.426-3.6,5.313,5.313,0,0,1,1.528-4.019,5.648,5.648,0,0,1,4.087-1.47,5.244,5.244,0,0,1,2.559.469v2.617a3.518,3.518,0,0,0-2.158-.723,2.844,2.844,0,0,0-2.1.776,2.9,2.9,0,0,0-.776,2.144,2.85,2.85,0,0,0,.742,2.085,2.728,2.728,0,0,0,2.041.757,4.073,4.073,0,0,0,2.256-.723Zm8.066.244a4.561,4.561,0,0,1-2.061.361q-3.262,0-3.262-3.389v-4.58H108.2V12h1.621V9.842l3.076-.879V12h2.246v2.275h-2.246v4.043q0,1.562,1.24,1.563a2.091,2.091,0,0,0,1.006-.283Zm3.3-11.465a1.8,1.8,0,0,1-1.279-.464,1.5,1.5,0,0,1-.5-1.138,1.441,1.441,0,0,1,.5-1.133,2.089,2.089,0,0,1,2.563,0,1.448,1.448,0,0,1,.493,1.133,1.489,1.489,0,0,1-.493,1.152A1.833,1.833,0,0,1,118.441,10.418ZM119.965,22h-3.086V12h3.086Zm12.119-10-3.721,10h-3.516L121.3,12h3.3l1.738,6.162a9,9,0,0,1,.342,1.777h.039a10.086,10.086,0,0,1,.361-1.719L128.861,12Zm5.889,10.244a5.376,5.376,0,0,1-3.931-1.4,5.081,5.081,0,0,1-1.431-3.8,5.081,5.081,0,0,1,1.484-3.882,5.609,5.609,0,0,1,4.014-1.4,5.311,5.311,0,0,1,3.906,1.4,4.981,4.981,0,0,1,1.416,3.706,5.288,5.288,0,0,1-1.46,3.936A5.435,5.435,0,0,1,137.973,22.244Zm.078-8.125a2.058,2.058,0,0,0-1.7.752A3.316,3.316,0,0,0,135.746,17q0,2.881,2.324,2.881,2.217,0,2.217-2.959Q140.287,14.119,138.051,14.119Zm6.729,7.617v-2.5a6.57,6.57,0,0,0,1.519.684,5.035,5.035,0,0,0,1.431.225,3.068,3.068,0,0,0,1.294-.225.726.726,0,0,0,.474-.684.632.632,0,0,0-.215-.488,2,2,0,0,0-.552-.342,6.262,6.262,0,0,0-.737-.264q-.4-.117-.771-.264a7.392,7.392,0,0,1-1.05-.483,3.034,3.034,0,0,1-.762-.6A2.361,2.361,0,0,1,144.94,16a3.157,3.157,0,0,1-.161-1.064,2.74,2.74,0,0,1,.366-1.445,2.991,2.991,0,0,1,.977-.991,4.462,4.462,0,0,1,1.4-.566,7.281,7.281,0,0,1,1.636-.181,9.076,9.076,0,0,1,1.348.1,10.058,10.058,0,0,1,1.348.3v2.383a4.87,4.87,0,0,0-1.255-.513,5.294,5.294,0,0,0-1.313-.171,2.91,2.91,0,0,0-.571.054,1.882,1.882,0,0,0-.474.156.87.87,0,0,0-.322.264.607.607,0,0,0-.117.366.677.677,0,0,0,.176.469,1.527,1.527,0,0,0,.459.337,4.531,4.531,0,0,0,.63.254q.347.112.688.229a8.951,8.951,0,0,1,1.113.469,3.559,3.559,0,0,1,.854.6,2.339,2.339,0,0,1,.547.8,3.2,3.2,0,0,1-.2,2.612,3.088,3.088,0,0,1-1.025,1.025,4.65,4.65,0,0,1-1.475.576,8.175,8.175,0,0,1-1.733.181A8.936,8.936,0,0,1,144.779,21.736Z" transform="translate(595 3917)" fill="#fff"/>
      <path id="Trazado_20117" data-name="Trazado 20117" d="M80.595,21.5a9.235,9.235,0,0,1-4,.742,6.749,6.749,0,0,1-5.068-1.895A6.925,6.925,0,0,1,69.677,15.3a7.4,7.4,0,0,1,2.075-5.449,7.259,7.259,0,0,1,5.386-2.09,10.072,10.072,0,0,1,3.457.518v3.037a6.126,6.126,0,0,0-3.2-.84,4.249,4.249,0,0,0-3.184,1.24A4.6,4.6,0,0,0,73,15.076a4.514,4.514,0,0,0,1.143,3.237,4.036,4.036,0,0,0,3.076,1.206,6.561,6.561,0,0,0,3.379-.9Zm5.225.5H82.733V7.2h3.086Zm4.16-11.582A1.8,1.8,0,0,1,88.7,9.954a1.5,1.5,0,0,1-.5-1.138,1.441,1.441,0,0,1,.5-1.133,2.089,2.089,0,0,1,2.563,0,1.448,1.448,0,0,1,.493,1.133,1.489,1.489,0,0,1-.493,1.152A1.833,1.833,0,0,1,89.979,10.418ZM91.5,22H88.417V12H91.5Zm11.582-4.121H96.562q.156,2.178,2.744,2.178a5.357,5.357,0,0,0,2.9-.781V21.5a7.619,7.619,0,0,1-3.6.742,5.073,5.073,0,0,1-3.76-1.343A5.073,5.073,0,0,1,93.5,17.156a5.352,5.352,0,0,1,1.445-3.945A4.815,4.815,0,0,1,98.5,11.756a4.37,4.37,0,0,1,3.384,1.3,5,5,0,0,1,1.2,3.525Zm-2.861-1.895q0-2.148-1.738-2.148a1.66,1.66,0,0,0-1.284.615,2.792,2.792,0,0,0-.659,1.533ZM114.579,22H111.5V16.443q0-2.324-1.66-2.324a1.647,1.647,0,0,0-1.318.615,2.344,2.344,0,0,0-.518,1.563V22h-3.086V12h3.086v1.582h.039a3.536,3.536,0,0,1,3.213-1.826q3.32,0,3.32,4.121Zm8.486-.117a4.561,4.561,0,0,1-2.061.361q-3.262,0-3.262-3.389v-4.58h-1.621V12h1.621V9.842l3.076-.879V12h2.246v2.275h-2.246v4.043q0,1.562,1.24,1.563a2.091,2.091,0,0,0,1.006-.283Zm10.645-4h-6.523q.156,2.178,2.744,2.178a5.357,5.357,0,0,0,2.9-.781V21.5a7.62,7.62,0,0,1-3.6.742,5.073,5.073,0,0,1-3.76-1.343,5.073,5.073,0,0,1-1.338-3.745,5.352,5.352,0,0,1,1.445-3.945,4.815,4.815,0,0,1,3.555-1.455,4.37,4.37,0,0,1,3.384,1.3,5,5,0,0,1,1.2,3.525Zm-2.861-1.895q0-2.148-1.738-2.148a1.66,1.66,0,0,0-1.284.615,2.792,2.792,0,0,0-.659,1.533Zm4.043,5.752v-2.5a6.57,6.57,0,0,0,1.519.684,5.035,5.035,0,0,0,1.431.225,3.068,3.068,0,0,0,1.294-.225.726.726,0,0,0,.474-.684.632.632,0,0,0-.215-.488,2,2,0,0,0-.552-.342,6.262,6.262,0,0,0-.737-.264q-.4-.117-.771-.264a7.392,7.392,0,0,1-1.05-.483,3.034,3.034,0,0,1-.762-.6,2.361,2.361,0,0,1-.469-.791,3.157,3.157,0,0,1-.161-1.064,2.74,2.74,0,0,1,.366-1.445,2.991,2.991,0,0,1,.977-.991,4.462,4.462,0,0,1,1.4-.566,7.281,7.281,0,0,1,1.636-.181,9.076,9.076,0,0,1,1.348.1,10.058,10.058,0,0,1,1.348.3v2.383a4.87,4.87,0,0,0-1.255-.513,5.294,5.294,0,0,0-1.313-.171,2.91,2.91,0,0,0-.571.054,1.882,1.882,0,0,0-.474.156.87.87,0,0,0-.322.264.607.607,0,0,0-.117.366.677.677,0,0,0,.176.469,1.527,1.527,0,0,0,.459.337,4.531,4.531,0,0,0,.63.254q.347.112.688.229a8.951,8.951,0,0,1,1.113.469,3.559,3.559,0,0,1,.854.6,2.339,2.339,0,0,1,.547.8,3.2,3.2,0,0,1-.2,2.612,3.088,3.088,0,0,1-1.025,1.025,4.65,4.65,0,0,1-1.475.576,8.175,8.175,0,0,1-1.733.181A8.936,8.936,0,0,1,134.892,21.736Z" transform="translate(595 3605.5)" fill="#fff"/>
    </g>
  </g>
</svg>
