<svg xmlns="http://www.w3.org/2000/svg" width="75" height="71" viewBox="0 0 75 71">
  <g id="Grupo_25922" data-name="Grupo 25922" transform="translate(-235 -4738)">
    <circle id="Elipse_845" data-name="Elipse 845" cx="30.5" cy="30.5" r="30.5" transform="translate(235 4738)" fill="#efd6d0"/>
    <path id="planning" d="M63,6.243a5.242,5.242,0,0,0-8.95-3.707L43,13.586V9H1V63H43V28.414L61.464,9.95A5.207,5.207,0,0,0,63,6.243ZM31,52a1,1,0,1,1-1-1A1,1,0,0,1,31,52Zm-8-9V31h8.109A2.713,2.713,0,0,0,33.6,32.988l-5.6,5.6-2.293-2.293-1.414,1.414L28,41.414l7.707-7.707-.916-.916L37,32.054V43ZM33.949,30.963a.721.721,0,0,1-.912-.912l1.4-4.2,3.712,3.712ZM35.414,24,48,11.414,49.586,13,37,25.586ZM40,28.586,38.414,27,51,14.414,52.586,16ZM49.414,10,51,8.414,55.586,13,54,14.586ZM41,61H3V11H41v4.586L33.126,23.46,31.279,29H21V45h8v4.184A3,3,0,0,0,27.184,51H15V47H11V41h4V31H11V25h4V21h4v4H29V15H19v4H15V15H5V25H9v6H5V41H9v6H5V57H15V53H27.184A2.993,2.993,0,1,0,31,49.184V45h8V31.387l1.54-.513.46-.46ZM13,49v6H7V49Zm0-16v6H7V33ZM7,23V17h6v6Zm14,0V17h6v6ZM60.05,8.536,57,11.586,52.414,7l3.05-3.05A3.243,3.243,0,1,1,60.05,8.536Z" transform="translate(247 4746)" fill="#97181a"/>
  </g>
</svg>
