<svg xmlns="http://www.w3.org/2000/svg" width="107.985" height="107.985" viewBox="0 0 107.985 107.985">
  <g id="Grupo_25942" data-name="Grupo 25942" transform="translate(-330 -3260)">
    <g id="Trazado_19527" data-name="Trazado 19527" transform="translate(330 3260)" fill="#fff">
      <path d="M 53.99265289306641 105.4853057861328 C 47.04008483886719 105.4853057861328 40.29681777954102 104.1241836547852 33.95015335083008 101.4397888183594 C 27.81875228881836 98.84642028808594 22.31165313720703 95.13325500488281 17.58185195922852 90.40345001220703 C 12.85205268859863 85.67365264892578 9.138886451721191 80.16654968261719 6.545519351959229 74.03515625 C 3.861119508743286 67.68848419189453 2.500002861022949 60.94522094726563 2.500002861022949 53.99265289306641 C 2.500002861022949 47.04008483886719 3.861119508743286 40.29681777954102 6.545519351959229 33.95015335083008 C 9.138886451721191 27.81875228881836 12.85205268859863 22.31165313720703 17.58185195922852 17.58185195922852 C 22.31165313720703 12.85205268859863 27.81875228881836 9.138886451721191 33.95015335083008 6.545519351959229 C 40.29681777954102 3.861119508743286 47.04008483886719 2.500002861022949 53.99265289306641 2.500002861022949 C 60.94522094726563 2.500002861022949 67.68848419189453 3.861119508743286 74.03515625 6.545519351959229 C 80.16654968261719 9.138886451721191 85.67365264892578 12.85205268859863 90.40345001220703 17.58185195922852 C 95.13325500488281 22.31165313720703 98.84642028808594 27.81875228881836 101.4397888183594 33.95015335083008 C 104.1241836547852 40.29681777954102 105.4853057861328 47.04008483886719 105.4853057861328 53.99265289306641 C 105.4853057861328 60.94522094726563 104.1241836547852 67.68848419189453 101.4397888183594 74.03515625 C 98.84642028808594 80.16654968261719 95.13325500488281 85.67365264892578 90.40345001220703 90.40345001220703 C 85.67365264892578 95.13325500488281 80.16654968261719 98.84642028808594 74.03515625 101.4397888183594 C 67.68848419189453 104.1241836547852 60.94522094726563 105.4853057861328 53.99265289306641 105.4853057861328 Z" stroke="none"/>
      <path d="M 53.99265289306641 5 C 47.37648773193359 5 40.96086883544922 6.294670104980469 34.92403411865234 8.848037719726563 C 29.09061431884766 11.31536102294922 23.85061645507813 14.84859466552734 19.34961700439453 19.34961700439453 C 14.84859466552734 23.85061645507813 11.31536102294922 29.09061431884766 8.848037719726563 34.92403411865234 C 6.294670104980469 40.96086883544922 5 47.37648773193359 5 53.99265289306641 C 5 60.60881805419922 6.294670104980469 67.02442932128906 8.848037719726563 73.06127166748047 C 11.31536102294922 78.89469146728516 14.84859466552734 84.13467407226563 19.34961700439453 88.63568878173828 C 23.85063171386719 93.13670349121094 29.09061431884766 96.66994476318359 34.92403411865234 99.13726806640625 C 40.96086883544922 101.6906356811523 47.37648773193359 102.9853057861328 53.99265289306641 102.9853057861328 C 60.60881805419922 102.9853057861328 67.02442932128906 101.6906356811523 73.06127166748047 99.13726806640625 C 78.89466857910156 96.66994476318359 84.13467407226563 93.13670349121094 88.63568878173828 88.63568878173828 C 93.13670349121094 84.13467407226563 96.66994476318359 78.89466857910156 99.13726806640625 73.06127166748047 C 101.6906356811523 67.02442932128906 102.9853057861328 60.60881805419922 102.9853057861328 53.99265289306641 C 102.9853057861328 47.37648773193359 101.6906356811523 40.96086883544922 99.13726806640625 34.92403411865234 C 96.66994476318359 29.09061431884766 93.13670349121094 23.85063171386719 88.63568878173828 19.34961700439453 C 84.13467407226563 14.84859466552734 78.89469146728516 11.31536102294922 73.06127166748047 8.848037719726563 C 67.02442932128906 6.294670104980469 60.60881805419922 5 53.99265289306641 5 M 53.99265289306641 0 C 83.81196594238281 0 107.9853057861328 24.17332458496094 107.9853057861328 53.99265289306641 C 107.9853057861328 83.81196594238281 83.81196594238281 107.9853057861328 53.99265289306641 107.9853057861328 C 24.17332458496094 107.9853057861328 0 83.81196594238281 0 53.99265289306641 C 0 24.17332458496094 24.17332458496094 0 53.99265289306641 0 Z" stroke="none" fill="#d64626"/>
    </g>
    <g id="box" transform="translate(343.544 3287.98)">
      <g id="Grupo_24231" data-name="Grupo 24231" transform="translate(16.032 -0.001)">
        <g id="Grupo_24230" data-name="Grupo 24230">
          <path id="Trazado_19535" data-name="Trazado 19535" d="M64.383,11.482,40.755.075a.763.763,0,0,0-.663,0L16.463,11.482a.762.762,0,0,0-.431.686v27.7a.762.762,0,0,0,.431.686L40.092,51.965a.762.762,0,0,0,.663,0L64.383,40.558a.762.762,0,0,0,.431-.686v-27.7A.763.763,0,0,0,64.383,11.482ZM40.423,1.608,62.3,12.169,55.957,15.23a.756.756,0,0,0-.129-.081L34.1,4.66ZM32.38,5.522,54.223,16.067l-4.474,2.16L27.915,7.686ZM54.734,17.513V25.5l-4.179,2.017V19.531Zm8.555,21.88-22.1,10.671V24.054l5.273-2.545a.762.762,0,1,0-.663-1.373l-5.372,2.593-2.114-1.021a.762.762,0,1,0-.663,1.373l2.014.972v26.01l-22.1-10.671V13.383l16.832,8.126a.762.762,0,0,0,.663-1.373l-16.5-7.967,7.573-3.656,22.9,11.055.011.013v9.148a.762.762,0,0,0,1.094.686l5.7-2.753a.762.762,0,0,0,.431-.686v-9.2l7.031-3.394v26.01Z" transform="translate(-16.032 0.001)"/>
        </g>
      </g>
      <g id="Grupo_24233" data-name="Grupo 24233" transform="translate(19.286 34.686)">
        <g id="Grupo_24232" data-name="Grupo 24232" transform="translate(0)">
          <path id="Trazado_19536" data-name="Trazado 19536" d="M52.61,343.011l-3.468-1.674a.762.762,0,1,0-.663,1.373l3.468,1.674a.762.762,0,0,0,.663-1.373Z" transform="translate(-48.048 -341.261)"/>
        </g>
      </g>
      <g id="Grupo_24235" data-name="Grupo 24235" transform="translate(19.291 31.071)">
        <g id="Grupo_24234" data-name="Grupo 24234" transform="translate(0)">
          <path id="Trazado_19537" data-name="Trazado 19537" d="M55.844,308.979l-6.654-3.212a.762.762,0,0,0-.663,1.373l6.654,3.212a.762.762,0,0,0,.663-1.373Z" transform="translate(-48.096 -305.69)"/>
        </g>
      </g>
    </g>
  </g>
</svg>
