<svg xmlns="http://www.w3.org/2000/svg" width="107.985" height="107.985" viewBox="0 0 107.985 107.985">
  <g id="Grupo_25929" data-name="Grupo 25929" transform="translate(-332 -8856)">
    <g id="Trazado_18146" data-name="Trazado 18146" transform="translate(332 8856)" fill="#fff">
      <path d="M 53.99265289306641 105.4853057861328 C 47.04008483886719 105.4853057861328 40.29681777954102 104.1241836547852 33.95015335083008 101.4397888183594 C 27.81875228881836 98.84642028808594 22.31165313720703 95.13325500488281 17.58185195922852 90.40345001220703 C 12.85205268859863 85.67365264892578 9.138886451721191 80.16654968261719 6.545519351959229 74.03515625 C 3.861119508743286 67.68848419189453 2.500002861022949 60.94522094726563 2.500002861022949 53.99265289306641 C 2.500002861022949 47.04008483886719 3.861119508743286 40.29681777954102 6.545519351959229 33.95015335083008 C 9.138886451721191 27.81875228881836 12.85205268859863 22.31165313720703 17.58185195922852 17.58185195922852 C 22.31165313720703 12.85205268859863 27.81875228881836 9.138886451721191 33.95015335083008 6.545519351959229 C 40.29681777954102 3.861119508743286 47.04008483886719 2.500002861022949 53.99265289306641 2.500002861022949 C 60.94522094726563 2.500002861022949 67.68848419189453 3.861119508743286 74.03515625 6.545519351959229 C 80.16654968261719 9.138886451721191 85.67365264892578 12.85205268859863 90.40345001220703 17.58185195922852 C 95.13325500488281 22.31165313720703 98.84642028808594 27.81875228881836 101.4397888183594 33.95015335083008 C 104.1241836547852 40.29681777954102 105.4853057861328 47.04008483886719 105.4853057861328 53.99265289306641 C 105.4853057861328 60.94522094726563 104.1241836547852 67.68848419189453 101.4397888183594 74.03515625 C 98.84642028808594 80.16654968261719 95.13325500488281 85.67365264892578 90.40345001220703 90.40345001220703 C 85.67365264892578 95.13325500488281 80.16654968261719 98.84642028808594 74.03515625 101.4397888183594 C 67.68848419189453 104.1241836547852 60.94522094726563 105.4853057861328 53.99265289306641 105.4853057861328 Z" stroke="none"/>
      <path d="M 53.99265289306641 5 C 47.37648773193359 5 40.96086883544922 6.294670104980469 34.92403411865234 8.848037719726563 C 29.09061431884766 11.31536102294922 23.85061645507813 14.84859466552734 19.34961700439453 19.34961700439453 C 14.84859466552734 23.85061645507813 11.31536102294922 29.09061431884766 8.848037719726563 34.92403411865234 C 6.294670104980469 40.96086883544922 5 47.37648773193359 5 53.99265289306641 C 5 60.60881805419922 6.294670104980469 67.02442932128906 8.848037719726563 73.06127166748047 C 11.31536102294922 78.89469146728516 14.84859466552734 84.13467407226563 19.34961700439453 88.63568878173828 C 23.85063171386719 93.13670349121094 29.09061431884766 96.66994476318359 34.92403411865234 99.13726806640625 C 40.96086883544922 101.6906356811523 47.37648773193359 102.9853057861328 53.99265289306641 102.9853057861328 C 60.60881805419922 102.9853057861328 67.02442932128906 101.6906356811523 73.06127166748047 99.13726806640625 C 78.89466857910156 96.66994476318359 84.13467407226563 93.13670349121094 88.63568878173828 88.63568878173828 C 93.13670349121094 84.13467407226563 96.66994476318359 78.89466857910156 99.13726806640625 73.06127166748047 C 101.6906356811523 67.02442932128906 102.9853057861328 60.60881805419922 102.9853057861328 53.99265289306641 C 102.9853057861328 47.37648773193359 101.6906356811523 40.96086883544922 99.13726806640625 34.92403411865234 C 96.66994476318359 29.09061431884766 93.13670349121094 23.85063171386719 88.63568878173828 19.34961700439453 C 84.13467407226563 14.84859466552734 78.89469146728516 11.31536102294922 73.06127166748047 8.848037719726563 C 67.02442932128906 6.294670104980469 60.60881805419922 5 53.99265289306641 5 M 53.99265289306641 0 C 83.81196594238281 0 107.9853057861328 24.17332458496094 107.9853057861328 53.99265289306641 C 107.9853057861328 83.81196594238281 83.81196594238281 107.9853057861328 53.99265289306641 107.9853057861328 C 24.17332458496094 107.9853057861328 0 83.81196594238281 0 53.99265289306641 C 0 24.17332458496094 24.17332458496094 0 53.99265289306641 0 Z" stroke="none" fill="#d64626"/>
    </g>
    <path id="Trazado_20119" data-name="Trazado 20119" d="M25.939,49.488q-6.592,0-9.619-3.223T13.292,36.4l7.2-.317a25.5,25.5,0,0,0,.11,2.588,8.945,8.945,0,0,0,.439,2,3.582,3.582,0,0,0,.928,1.5,4.215,4.215,0,0,0,1.587.867,7.842,7.842,0,0,0,2.38.317A5.72,5.72,0,0,0,30.1,41.944a4.95,4.95,0,0,0,1.453-3.711,4.99,4.99,0,0,0-1.392-3.821,5.237,5.237,0,0,0-3.735-1.306H25.06V27.638h1.27a3.818,3.818,0,0,0,2.917-1.245,4.44,4.44,0,0,0,1.16-3.149,3.549,3.549,0,0,0-1.27-2.93,5.161,5.161,0,0,0-3.345-1.025,5.013,5.013,0,0,0-1.9.33,3.552,3.552,0,0,0-1.282.842,3.725,3.725,0,0,0-.757,1.294,6.8,6.8,0,0,0-.366,1.538A15.358,15.358,0,0,0,21.4,25l-7.1-.342q0-5.542,3.027-8.484t8.4-2.942a12.006,12.006,0,0,1,8.057,2.7,8.449,8.449,0,0,1,3.174,6.7,7.627,7.627,0,0,1-1.355,4.541,7.758,7.758,0,0,1-3.088,2.686,8.694,8.694,0,0,1,2.246,1,9.207,9.207,0,0,1,1.965,1.685,7.517,7.517,0,0,1,1.453,2.563,10.314,10.314,0,0,1,.537,3.418A9.97,9.97,0,0,1,35.216,46.5Q31.725,49.488,25.939,49.488Z" transform="translate(359.296 8878)" fill="#ff8f00"/>
  </g>
</svg>
