<svg xmlns="http://www.w3.org/2000/svg" width="72.54" height="72.041" viewBox="0 0 72.54 72.041">
  <g id="Grupo_25921" data-name="Grupo 25921" transform="translate(-235 -4621)">
    <circle id="Elipse_797" data-name="Elipse 797" cx="30.5" cy="30.5" r="30.5" transform="translate(235 4621)" fill="#efd6d0"/>
    <g id="implement" transform="translate(245.642 4631.142)">
      <path id="Trazado_17708" data-name="Trazado 17708" d="M5.158,138.551H51.582a1.032,1.032,0,0,0,1.032-1.032V110.7H50.551v25.791H5.158a3.095,3.095,0,0,1,0-6.19H7.222a1.032,1.032,0,0,0,1.032-1.032V98.316H24.76V96.253H8.253V89.032A1.032,1.032,0,0,0,7.222,88H5.158A5.164,5.164,0,0,0,0,93.158v40.234A5.164,5.164,0,0,0,5.158,138.551ZM2.063,97.285V93.158a3.1,3.1,0,0,1,3.095-3.095H6.19v38.171H5.158a5.138,5.138,0,0,0-3.095,1.032Zm0,0" transform="translate(0 -76.652)" fill="#97181a"/>
      <path id="Trazado_17709" data-name="Trazado 17709" d="M93.411,192H81.032A1.032,1.032,0,0,0,80,193.032v8.253a1.032,1.032,0,0,0,1.032,1.032h12.38a1.032,1.032,0,0,0,1.032-1.032V198.19H98.57v-2.063H94.443v-3.095A1.032,1.032,0,0,0,93.411,192Zm-1.032,8.253H82.063v-6.19H92.38Zm0,0" transform="translate(-69.684 -167.241)" fill="#97181a"/>
      <path id="Trazado_17710" data-name="Trazado 17710" d="M103.728,304.506h12.38a1.032,1.032,0,0,0,1.032-1.032v-8.253a1.032,1.032,0,0,0-1.032-1.032h-5.158V288h-2.063v6.19h-5.158a1.032,1.032,0,0,0-1.032,1.032v3.095H94.443v-3.095a1.032,1.032,0,0,0-1.032-1.032H81.032A1.032,1.032,0,0,0,80,295.221v8.253a1.032,1.032,0,0,0,1.032,1.032h12.38a1.032,1.032,0,0,0,1.032-1.032V300.38H102.7v3.095A1.032,1.032,0,0,0,103.728,304.506Zm1.032-8.253h10.316v6.19H104.76Zm-12.38,6.19H82.063v-6.19H92.38Zm0,0" transform="translate(-69.684 -250.861)" fill="#97181a"/>
      <path id="Trazado_17711" data-name="Trazado 17711" d="M281.285,64a9.285,9.285,0,1,0,9.285,9.285A9.285,9.285,0,0,0,281.285,64Zm0,16.506a7.222,7.222,0,1,1,7.222-7.222A7.221,7.221,0,0,1,281.285,80.506Zm0,0" transform="translate(-236.924 -55.747)" fill="#97181a"/>
      <path id="Trazado_17712" data-name="Trazado 17712" d="M242.044,21.665a1.032,1.032,0,0,0,1.032-1.032v-6.19a1.032,1.032,0,0,0-1.032-1.032h-3.758a13.667,13.667,0,0,0-.816-1.971l2.662-2.652a1.031,1.031,0,0,0,0-1.461l-4.38-4.385a1.03,1.03,0,0,0-1.459,0l-2.657,2.662a13.724,13.724,0,0,0-1.971-.816V1.032A1.032,1.032,0,0,0,228.633,0h-6.19a1.032,1.032,0,0,0-1.032,1.032V4.79a13.723,13.723,0,0,0-1.971.816l-2.653-2.662a1.03,1.03,0,0,0-1.459,0l-4.386,4.381a1.031,1.031,0,0,0,0,1.461l2.662,2.652a13.639,13.639,0,0,0-.815,1.974h-3.758A1.032,1.032,0,0,0,208,14.443v6.19a1.032,1.032,0,0,0,1.032,1.032h3.758a13.667,13.667,0,0,0,.816,1.971l-2.662,2.652a1.031,1.031,0,0,0,0,1.462l4.38,4.373a1.032,1.032,0,0,0,1.459,0l2.653-2.653a13.8,13.8,0,0,0,1.975.816v3.758a1.032,1.032,0,0,0,1.032,1.032h6.19a1.032,1.032,0,0,0,1.032-1.032V30.286a13.736,13.736,0,0,0,1.972-.816l2.653,2.653a1.032,1.032,0,0,0,1.458,0l4.385-4.374a1.031,1.031,0,0,0,0-1.462l-2.662-2.652a13.651,13.651,0,0,0,.816-1.97Zm-5.525-1.295A11.8,11.8,0,0,1,235.3,23.3a1.031,1.031,0,0,0,.163,1.25l2.476,2.468-2.923,2.917-2.467-2.47A1.032,1.032,0,0,0,231.3,27.3a11.75,11.75,0,0,1-2.931,1.215,1.032,1.032,0,0,0-.772,1v3.5h-4.127v-3.5a1.032,1.032,0,0,0-.769-1,11.751,11.751,0,0,1-2.931-1.215,1.032,1.032,0,0,0-1.249.162l-2.469,2.469-2.923-2.916,2.476-2.468a1.031,1.031,0,0,0,.163-1.25,11.8,11.8,0,0,1-1.216-2.931,1.032,1.032,0,0,0-1-.769h-3.5V15.475h3.5a1.031,1.031,0,0,0,1-.769,11.8,11.8,0,0,1,1.216-2.931,1.031,1.031,0,0,0-.163-1.25l-2.476-2.469,2.924-2.924,2.469,2.476a1.031,1.031,0,0,0,1.25.163,11.75,11.75,0,0,1,2.931-1.215,1.032,1.032,0,0,0,.768-1v-3.5H227.6v3.5a1.032,1.032,0,0,0,.769,1A11.75,11.75,0,0,1,231.3,7.773a1.032,1.032,0,0,0,1.252-.163l2.469-2.476,2.924,2.924-2.476,2.469a1.031,1.031,0,0,0-.163,1.25,11.817,11.817,0,0,1,1.215,2.931,1.031,1.031,0,0,0,.993.768h3.5V19.6h-3.5a1.031,1.031,0,0,0-1,.769Zm0,0" transform="translate(-181.177 0)" fill="#97181a"/>
      <path id="Trazado_17713" data-name="Trazado 17713" d="M316.127,104a4.127,4.127,0,1,0,4.127,4.127A4.127,4.127,0,0,0,316.127,104Zm0,6.19a2.063,2.063,0,1,1,2.063-2.063A2.063,2.063,0,0,1,316.127,110.19Zm0,0" transform="translate(-271.766 -90.589)" fill="#97181a"/>
    </g>
  </g>
</svg>
