<svg xmlns="http://www.w3.org/2000/svg" width="626" height="797.978" viewBox="0 0 626 797.978">
  <g id="Grupo_25930" data-name="Grupo 25930" transform="translate(-958 -5202)">
    <path id="Trazado_18282" data-name="Trazado 18282" d="M1658.662,783.71l-66.995-19.479-66.995,19.479,66.995,19.9Z" transform="translate(-566.673 5106.816)" fill="#ad1457"/>
    <path id="Trazado_18283" data-name="Trazado 18283" d="M1658.662,783.71l-66.995-19.479-66.995,19.479,66.995,19.9Z" transform="translate(-566.673 5106.816)" fill="#9c27b0" opacity="0.52" style="mix-blend-mode: multiply;isolation: isolate"/>
    <path id="Trazado_18284" data-name="Trazado 18284" d="M1658.662,267.99l-66.995-19.479-66.995,19.479,66.995,19.9Z" transform="translate(-566.673 5106.816)" fill="#ffb300"/>
    <path id="Trazado_18285" data-name="Trazado 18285" d="M1658.662,396.92l-66.995-19.479-66.995,19.479,66.995,19.9Z" transform="translate(-566.673 5106.816)" fill="#00acc1"/>
    <path id="Trazado_18286" data-name="Trazado 18286" d="M1658.662,525.85l-66.995-19.479-66.995,19.479,66.995,19.9Z" transform="translate(-566.673 5106.816)" fill="#546e7a"/>
    <path id="Trazado_18287" data-name="Trazado 18287" d="M1658.662,654.78,1591.668,635.3l-66.995,19.479,66.995,19.9Z" transform="translate(-566.673 5106.816)" fill="#ff7043"/>
    <path id="Trazado_18288" data-name="Trazado 18288" d="M1658.662,139.06l-66.995-19.479-66.995,19.479,66.995,19.9Z" transform="translate(-566.673 5106.816)" fill="#7cb342"/>
    <path id="Trazado_18289" data-name="Trazado 18289" d="M1658.662,267.99l-66.995-19.479-66.995,19.479,66.995,19.9Z" transform="translate(-566.673 5106.816)" fill="#ffb300" opacity="0.52" style="mix-blend-mode: multiply;isolation: isolate"/>
    <path id="Trazado_18290" data-name="Trazado 18290" d="M1658.662,396.92l-66.995-19.479-66.995,19.479,66.995,19.9Z" transform="translate(-566.673 5106.816)" fill="#00acc1" opacity="0.52" style="mix-blend-mode: multiply;isolation: isolate"/>
    <path id="Trazado_18291" data-name="Trazado 18291" d="M1658.662,525.85l-66.995-19.479-66.995,19.479,66.995,19.9Z" transform="translate(-566.673 5106.816)" fill="#546e7a" opacity="0.52" style="mix-blend-mode: multiply;isolation: isolate"/>
    <path id="Trazado_18292" data-name="Trazado 18292" d="M1658.662,654.78,1591.668,635.3l-66.995,19.479,66.995,19.9Z" transform="translate(-566.673 5106.816)" fill="#ff7043" opacity="0.52" style="mix-blend-mode: multiply;isolation: isolate"/>
    <path id="Trazado_18293" data-name="Trazado 18293" d="M1658.662,139.06l-66.995-19.479-66.995,19.479,66.995,19.9Z" transform="translate(-566.673 5106.816)" fill="#7cb342" opacity="0.52" style="mix-blend-mode: multiply;isolation: isolate"/>
    <path id="Trazado_18294" data-name="Trazado 18294" d="M1551.222,107.426l40.446-12.243,40.445,12.243V810.778h-80.891Z" transform="translate(-566.673 5106.816)" fill="#cfd8dc"/>
    <path id="Trazado_18295" data-name="Trazado 18295" d="M1591.668,810.778h-40.446V107.426l40.446-12.243Z" transform="translate(-566.673 5106.816)" fill="#fff" opacity="0.28" style="mix-blend-mode: overlay;isolation: isolate"/>
    <path id="Trazado_18296" data-name="Trazado 18296" d="M1524.673,228.611l66.995,19.9,66.995-19.9V139.06l-66.995,19.9-66.995-19.9Z" transform="translate(-566.673 5106.816)" fill="#7cb342"/>
    <path id="Trazado_18297" data-name="Trazado 18297" d="M1591.668,158.96v89.551l-66.995-19.9V139.06Z" transform="translate(-566.673 5106.816)" fill="#fff" opacity="0.28" style="mix-blend-mode: overlay;isolation: isolate"/>
    <path id="Trazado_18298" data-name="Trazado 18298" d="M1546.452,207.386a14.251,14.251,0,0,1-8.424-6.81q-2.952-5.138-2.953-13.448t2.931-11.637q2.928-3.328,8.446-1.641a14.206,14.206,0,0,1,8.413,6.807q2.942,5.135,2.942,13.421t-2.953,11.63Q1551.9,209.053,1546.452,207.386Zm0-4.784a3.576,3.576,0,0,0,4.5-1.6q1.569-2.5,1.569-8.54a23.034,23.034,0,0,0-1.591-9.494,7.383,7.383,0,0,0-4.476-4.31,3.593,3.593,0,0,0-4.487,1.558q-1.578,2.448-1.579,8.537Q1540.386,200.747,1546.452,202.6Z" transform="translate(-566.673 5106.816)" fill="#fff"/>
    <path id="Trazado_18299" data-name="Trazado 18299" d="M1573.3,182.517l4.99,1.526v32.644l-5.265-1.61v-27.1l-7.669,4.546v-5.495Z" transform="translate(-566.673 5106.816)" fill="#fff"/>
    <path id="Trazado_18300" data-name="Trazado 18300" d="M1524.673,357.541l66.995,19.9,66.995-19.9V267.99l-66.995,19.9-66.995-19.9Z" transform="translate(-566.673 5106.816)" fill="#ffb300"/>
    <path id="Trazado_18301" data-name="Trazado 18301" d="M1591.668,287.89v89.551l-66.995-19.9V267.99Z" transform="translate(-566.673 5106.816)" fill="#fff" opacity="0.28" style="mix-blend-mode: overlay;isolation: isolate"/>
    <path id="Trazado_18302" data-name="Trazado 18302" d="M1543.305,335.354a14.249,14.249,0,0,1-8.425-6.811q-2.953-5.137-2.953-13.448t2.93-11.637q2.931-3.328,8.448-1.641a14.21,14.21,0,0,1,8.412,6.807q2.941,5.135,2.941,13.421t-2.952,11.63Q1548.753,337.02,1543.305,335.354Zm0-4.785a3.575,3.575,0,0,0,4.5-1.6q1.569-2.5,1.568-8.54,0-6.066-1.591-9.494a7.373,7.373,0,0,0-4.474-4.309,3.593,3.593,0,0,0-4.488,1.557q-1.578,2.448-1.579,8.537Q1537.238,328.715,1543.305,330.569Z" transform="translate(-566.673 5106.816)" fill="#fff"/>
    <path id="Trazado_18303" data-name="Trazado 18303" d="M1566.631,337.289l15.062,4.605v4.762l-22.525-6.887v-3.983l13.049-9.4q3.273-2.364,3.273-5.409a6.364,6.364,0,0,0-1.4-4.1,7.5,7.5,0,0,0-3.777-2.472,4.41,4.41,0,0,0-3.937.25q-1.443,1.014-1.443,4.195v2.4l-5.242-2.106v-1.831q0-5.082,2.862-6.932t7.737-.358a15.65,15.65,0,0,1,7.485,4.784,11.528,11.528,0,0,1,2.908,7.733,8.1,8.1,0,0,1-1.076,4.273,12.567,12.567,0,0,1-3.388,3.474Z" transform="translate(-566.673 5106.816)" fill="#fff"/>
    <path id="Trazado_18304" data-name="Trazado 18304" d="M1524.673,486.471l66.995,19.9,66.995-19.9V396.92l-66.995,19.9-66.995-19.9Z" transform="translate(-566.673 5106.816)" fill="#00acc1"/>
    <path id="Trazado_18305" data-name="Trazado 18305" d="M1591.668,416.82v89.551l-66.995-19.9V396.92Z" transform="translate(-566.673 5106.816)" fill="#fff" opacity="0.28" style="mix-blend-mode: overlay;isolation: isolate"/>
    <path id="Trazado_18306" data-name="Trazado 18306" d="M1543.2,464.252a14.252,14.252,0,0,1-8.425-6.811q-2.952-5.136-2.953-13.447t2.931-11.638q2.928-3.327,8.447-1.64a14.205,14.205,0,0,1,8.412,6.806q2.941,5.135,2.942,13.421t-2.953,11.631Q1548.651,465.918,1543.2,464.252Zm0-4.784a3.577,3.577,0,0,0,4.5-1.6q1.569-2.5,1.569-8.54a23.034,23.034,0,0,0-1.591-9.494,7.383,7.383,0,0,0-4.475-4.311,3.594,3.594,0,0,0-4.487,1.559q-1.579,2.448-1.58,8.536Q1537.135,457.613,1543.2,459.468Z" transform="translate(-566.673 5106.816)" fill="#fff"/>
    <path id="Trazado_18307" data-name="Trazado 18307" d="M1570.236,472.518q-5.79-1.771-8.548-5.58a16.175,16.175,0,0,1-2.759-9.736l5.4,1.4a18.547,18.547,0,0,0,.252,3.281,8.511,8.511,0,0,0,.9,2.577,6.038,6.038,0,0,0,1.821,2.033,10,10,0,0,0,2.928,1.376q2.817.861,4.453-.183a3.853,3.853,0,0,0,1.637-3.518,6.993,6.993,0,0,0-1.568-4.542,8.173,8.173,0,0,0-4.064-2.7l-1.441-.441v-4.235l1.373.42a3.184,3.184,0,0,0,4.418-3.3,5.3,5.3,0,0,0-1.373-3.557,7.417,7.417,0,0,0-3.525-2.245,5.236,5.236,0,0,0-2.359-.263,2.1,2.1,0,0,0-1.453.883,4.647,4.647,0,0,0-.7,1.653,10.483,10.483,0,0,0-.206,2.238l-5.357-1.867q0-5.013,2.633-6.875t7.394-.408a14.751,14.751,0,0,1,7.073,4.613,10.576,10.576,0,0,1,2.815,6.927,5.509,5.509,0,0,1-1.281,3.843,4.784,4.784,0,0,1-3.067,1.626,13.141,13.141,0,0,1,4.338,4.142,10.545,10.545,0,0,1,1.728,5.954q0,4.51-3.182,6.272T1570.236,472.518Z" transform="translate(-566.673 5106.816)" fill="#fff"/>
    <path id="Trazado_18308" data-name="Trazado 18308" d="M1524.673,615.4l66.995,19.9,66.995-19.9V525.85l-66.995,19.9-66.995-19.9Z" transform="translate(-566.673 5106.816)" fill="#546e7a"/>
    <path id="Trazado_18309" data-name="Trazado 18309" d="M1591.668,545.75V635.3l-66.995-19.9V525.85Z" transform="translate(-566.673 5106.816)" fill="#fff" opacity="0.28" style="mix-blend-mode: overlay;isolation: isolate"/>
    <path id="Trazado_18310" data-name="Trazado 18310" d="M1543.305,593.213a14.248,14.248,0,0,1-8.425-6.811q-2.953-5.136-2.953-13.447t2.93-11.638q2.931-3.327,8.448-1.64a14.212,14.212,0,0,1,8.412,6.806q2.941,5.135,2.941,13.421t-2.952,11.631Q1548.753,594.88,1543.305,593.213Zm0-4.784a3.577,3.577,0,0,0,4.5-1.6q1.569-2.5,1.568-8.54,0-6.066-1.591-9.494a7.379,7.379,0,0,0-4.474-4.311,3.6,3.6,0,0,0-4.488,1.559q-1.578,2.448-1.579,8.537Q1537.238,586.573,1543.305,588.429Z" transform="translate(-566.673 5106.816)" fill="#fff"/>
    <path id="Trazado_18311" data-name="Trazado 18311" d="M1583,593.788v4.738l-4.486-1.371v6.387l-5.265-1.609v-6.387l-15.338-4.69v-4.761l12.568-17.653,8.035,2.456v21.519Zm-19.961-6.1,10.21,3.121v-18.13Z" transform="translate(-566.673 5106.816)" fill="#fff"/>
    <path id="Trazado_18312" data-name="Trazado 18312" d="M1524.673,744.331l66.995,19.9,66.995-19.9V654.78l-66.995,19.9-66.995-19.9Z" transform="translate(-566.673 5106.816)" fill="#ff7043"/>
    <path id="Trazado_18313" data-name="Trazado 18313" d="M1591.668,674.68v89.551l-66.995-19.9V654.78Z" transform="translate(-566.673 5106.816)" fill="#fff" opacity="0.28" style="mix-blend-mode: overlay;isolation: isolate"/>
    <path id="Trazado_18314" data-name="Trazado 18314" d="M1524.673,873.261l66.995,19.9,66.995-19.9V783.71l-66.995,19.9-66.995-19.9Z" transform="translate(-566.673 5106.816)" fill="#ab47bc"/>
    <path id="Trazado_18315" data-name="Trazado 18315" d="M1591.668,803.61v89.551l-66.995-19.9V783.71Z" transform="translate(-566.673 5106.816)" fill="#ab47bc" opacity="0.28" style="mix-blend-mode: overlay;isolation: isolate"/>
    <path id="Trazado_18316" data-name="Trazado 18316" d="M1543.305,722.143a14.252,14.252,0,0,1-8.425-6.811q-2.953-5.137-2.953-13.447t2.93-11.638q2.931-3.328,8.448-1.641a14.213,14.213,0,0,1,8.412,6.807q2.941,5.134,2.941,13.421t-2.952,11.631Q1548.753,723.808,1543.305,722.143Zm0-4.785a3.576,3.576,0,0,0,4.5-1.6q1.569-2.5,1.568-8.54,0-6.066-1.591-9.494a7.376,7.376,0,0,0-4.474-4.311,3.593,3.593,0,0,0-4.488,1.559q-1.578,2.448-1.579,8.537Q1537.238,715.5,1543.305,717.358Z" transform="translate(-566.673 5106.816)" fill="#fff"/>
    <path id="Trazado_18317" data-name="Trazado 18317" d="M1569.767,708.691q6.135,1.877,9.18,5.5a12.952,12.952,0,0,1,3.044,8.612q0,5.013-3.1,7.143t-8.139.591a17.571,17.571,0,0,1-5.585-2.864,15.211,15.211,0,0,1-4.1-4.777,12.292,12.292,0,0,1-1.58-6.035,13.692,13.692,0,0,1,.116-1.613l5.288,1.3a11.107,11.107,0,0,0-.161,1.6,6.954,6.954,0,0,0,1.728,4.786,9.006,9.006,0,0,0,4.179,2.7q2.816.861,4.428-.328a4.565,4.565,0,0,0,1.615-3.937q0-6.066-7.669-8.411l-8.4-2.568,1.7-15.483,18.2,5.564v4.762l-13.6-4.159-.709,6.537Z" transform="translate(-566.673 5106.816)" fill="#fff"/>
    <path id="Trazado_18318" data-name="Trazado 18318" d="M1543.305,855.477a14.252,14.252,0,0,1-8.425-6.811q-2.953-5.137-2.953-13.447t2.93-11.638q2.931-3.328,8.448-1.641a14.213,14.213,0,0,1,8.412,6.807q2.941,5.134,2.941,13.421t-2.952,11.631Q1548.753,857.143,1543.305,855.477Zm0-4.785a3.576,3.576,0,0,0,4.5-1.6q1.569-2.5,1.568-8.54,0-6.066-1.591-9.494a7.377,7.377,0,0,0-4.474-4.311,3.593,3.593,0,0,0-4.488,1.559q-1.578,2.448-1.579,8.537Q1537.238,848.837,1543.305,850.692Z" transform="translate(-566.673 5106.816)" fill="#fff"/>
    <path id="Trazado_18319" data-name="Trazado 18319" d="M1582.129,855.992a8.616,8.616,0,0,1-1.579,5.4,7.108,7.108,0,0,1-4.27,2.711,11.346,11.346,0,0,1-5.826-.373,16.8,16.8,0,0,1-8.333-5.707,14.152,14.152,0,0,1-3.364-9.041,9.936,9.936,0,0,1,2.861-7.022l10.553-10.737,6.066,1.854-8.745,8.521a11.243,11.243,0,0,1,2.13.445,13.756,13.756,0,0,1,3.926,1.955,16.617,16.617,0,0,1,3.342,3.128,14.934,14.934,0,0,1,2.335,4.113A13.645,13.645,0,0,1,1582.129,855.992Zm-11.812,2.89a5.489,5.489,0,0,0,4.807-.35,4.651,4.651,0,0,0,1.855-4.228,8.77,8.77,0,0,0-1.877-5.428,9.367,9.367,0,0,0-4.785-3.294,5.109,5.109,0,0,0-4.739.485,4.909,4.909,0,0,0-1.854,4.229,8.477,8.477,0,0,0,1.809,5.35A9.355,9.355,0,0,0,1570.317,858.882Z" transform="translate(-566.673 5106.816)" fill="#fff"/>
    <path id="Trazado_20120" data-name="Trazado 20120" d="M0,0H360V91H0Z" transform="translate(1224 5242)" fill="#eef0f2"/>
    <path id="Trazado_20121" data-name="Trazado 20121" d="M0,0H360V91H0Z" transform="translate(1224 5372)" fill="#eef0f2"/>
    <path id="Trazado_20122" data-name="Trazado 20122" d="M0,0H360V91H0Z" transform="translate(1224 5502)" fill="#eef0f2"/>
    <path id="Trazado_20123" data-name="Trazado 20123" d="M0,0H360V91H0Z" transform="translate(1224 5632)" fill="#eef0f2"/>
    <path id="Trazado_20124" data-name="Trazado 20124" d="M0,0H360V91H0Z" transform="translate(1224 5762)" fill="#eef0f2"/>
    <path id="Trazado_20125" data-name="Trazado 20125" d="M0,0H360V91H0Z" transform="translate(1224 5892)" fill="#eef0f2"/>
    <path id="Trazado_20126" data-name="Trazado 20126" d="M75.518,19.2a7.671,7.671,0,0,1-3.706-.884,6.407,6.407,0,0,1-2.573-2.544,7.651,7.651,0,0,1-.937-3.828,7.644,7.644,0,0,1,.938-3.833,6.383,6.383,0,0,1,2.573-2.534,8.243,8.243,0,0,1,7.407,0,6.391,6.391,0,0,1,2.568,2.534,7.644,7.644,0,0,1,.938,3.833,7.651,7.651,0,0,1-.937,3.828,6.407,6.407,0,0,1-2.573,2.544A7.65,7.65,0,0,1,75.518,19.2Zm-3.086-3.921a4.472,4.472,0,0,0,6.172,0,4.558,4.558,0,0,0,1.211-3.335A4.528,4.528,0,0,0,78.6,8.619a4.485,4.485,0,0,0-6.172,0,4.528,4.528,0,0,0-1.211,3.32A4.558,4.558,0,0,0,72.432,15.274ZM90.947,8.766a4.857,4.857,0,0,1,1.865.361A4.516,4.516,0,0,1,95.391,11.8a6.106,6.106,0,0,1,.381,2.2,6.106,6.106,0,0,1-.381,2.2,4.516,4.516,0,0,1-2.578,2.676,4.857,4.857,0,0,1-1.865.361,4.336,4.336,0,0,1-1.9-.405,2.808,2.808,0,0,1-1.265-1.138L87.715,19H85.049V4h2.813v6.182a2.8,2.8,0,0,1,1.255-1.045A4.414,4.414,0,0,1,90.947,8.766ZM90.293,16.9a2.53,2.53,0,0,0,1.909-.791A2.924,2.924,0,0,0,92.959,14a2.937,2.937,0,0,0-.757-2.119,2.53,2.53,0,0,0-1.909-.791A2.5,2.5,0,0,0,88.4,11.9a2.938,2.938,0,0,0-.762,2.1,2.932,2.932,0,0,0,.757,2.1A2.5,2.5,0,0,0,90.293,16.9Zm9.043-9.443a1.579,1.579,0,0,1-1.152-.474,1.555,1.555,0,0,1-.479-1.147A1.536,1.536,0,0,1,98.188,4.7a1.584,1.584,0,0,1,1.147-.474,1.626,1.626,0,0,1,1.611,1.611,1.626,1.626,0,0,1-1.611,1.621Zm-3.5,16.25v-2.2a3.235,3.235,0,0,0,1.055-.142,1.179,1.179,0,0,0,.625-.5,2.227,2.227,0,0,0,.3-.864,9.745,9.745,0,0,0,.073-1.343v-9.7h2.852v9.7A5.453,5.453,0,0,1,99.6,22.5,4.986,4.986,0,0,1,95.84,23.707Zm17.266-9.873-.029.674h-7.441a2.6,2.6,0,0,0,.8,1.836,2.561,2.561,0,0,0,1.768.635,2.468,2.468,0,0,0,1.323-.347,2.131,2.131,0,0,0,.845-1.011l2.578.381a4.383,4.383,0,0,1-1.758,2.354,5.226,5.226,0,0,1-2.969.84,5.435,5.435,0,0,1-3.911-1.382,5.042,5.042,0,0,1-1.45-3.833,5.072,5.072,0,0,1,1.455-3.833,5.273,5.273,0,0,1,3.818-1.4,5.04,5.04,0,0,1,3.6,1.279A5.019,5.019,0,0,1,113.105,13.834Zm-4.951-3.1a2.222,2.222,0,0,0-2.441,1.934h4.609a2.114,2.114,0,0,0-.693-1.436A2.2,2.2,0,0,0,108.154,10.738ZM118.984,19a3.032,3.032,0,0,1-2.266-.815,3.172,3.172,0,0,1-.8-2.319V11.119h-1.973V8.961h.635a1.656,1.656,0,0,0,1.25-.42,2.162,2.162,0,0,0,.4-1.494V5.719h2.539V8.961h2.07v2.158h-2.07v4.443q0,1.3,1.162,1.3h.908V19Zm5.469-11.543a1.579,1.579,0,0,1-1.152-.474,1.555,1.555,0,0,1-.479-1.147,1.536,1.536,0,0,1,.483-1.138,1.584,1.584,0,0,1,1.147-.474,1.626,1.626,0,0,1,1.611,1.611,1.626,1.626,0,0,1-1.611,1.621ZM123.018,19V8.961h2.832V19ZM135.293,8.961h2.979L133.994,19h-2.441L127.324,8.961h2.959l2.5,6.865Zm8.73,10.234a6.313,6.313,0,0,1-2.842-.615,4.6,4.6,0,0,1-1.948-1.807,5.384,5.384,0,0,1-.708-2.8,4.911,4.911,0,0,1,1.523-3.809,6.368,6.368,0,0,1,7.959,0,4.911,4.911,0,0,1,1.523,3.809,4.938,4.938,0,0,1-1.523,3.823A5.654,5.654,0,0,1,144.023,19.2Zm-.029-2.236a2.577,2.577,0,0,0,1.987-.82,3.071,3.071,0,0,0,.757-2.168,3.071,3.071,0,0,0-.757-2.168,2.577,2.577,0,0,0-1.987-.82,2.483,2.483,0,0,0-1.929.825,3.1,3.1,0,0,0-.747,2.163,3.1,3.1,0,0,0,.747,2.163A2.483,2.483,0,0,0,143.994,16.959ZM155.156,19.2a5.61,5.61,0,0,1-2.93-.7,2.972,2.972,0,0,1-1.436-2.09l2.354-.664a1.891,1.891,0,0,0,2.012,1.494A2.078,2.078,0,0,0,156.182,17a.8.8,0,0,0,.4-.776.821.821,0,0,0-.166-.518,1.315,1.315,0,0,0-.513-.371,6.388,6.388,0,0,0-.684-.264q-.337-.107-.894-.259t-.928-.288a6.215,6.215,0,0,1-.884-.376,3.769,3.769,0,0,1-.732-.518,2.086,2.086,0,0,1-.547-.786,2.836,2.836,0,0,1-.19-1.074,2.565,2.565,0,0,1,1.089-2.246,4.865,4.865,0,0,1,2.847-.762,4.988,4.988,0,0,1,2.627.645,2.917,2.917,0,0,1,1.348,2.012l-2.178.488a1.706,1.706,0,0,0-1.787-1.27,1.957,1.957,0,0,0-.986.225.722.722,0,0,0-.391.664.761.761,0,0,0,.059.3.6.6,0,0,0,.205.244,2.992,2.992,0,0,0,.283.186,2.136,2.136,0,0,0,.4.161q.264.083.439.127l.513.132.522.137q.537.146.942.293a5.519,5.519,0,0,1,.864.41,3.1,3.1,0,0,1,.757.591,2.635,2.635,0,0,1,.493.83,3.066,3.066,0,0,1,.2,1.118,3.02,3.02,0,0,1-.337,1.455,2.529,2.529,0,0,1-.923.981,4.492,4.492,0,0,1-1.3.527A6.763,6.763,0,0,1,155.156,19.2ZM173.623,4h2.813V19H173.77l-.068-1.309a2.867,2.867,0,0,1-1.274,1.138,4.29,4.29,0,0,1-1.88.405,4.883,4.883,0,0,1-1.875-.361,4.516,4.516,0,0,1-2.578-2.676,6.106,6.106,0,0,1-.381-2.2,5.708,5.708,0,0,1,.664-2.8,4.55,4.55,0,0,1,1.753-1.821,4.827,4.827,0,0,1,2.417-.615,4.4,4.4,0,0,1,1.821.366,2.843,2.843,0,0,1,1.255,1.04Zm-2.432,12.9a2.5,2.5,0,0,0,1.9-.8,2.932,2.932,0,0,0,.757-2.1,2.938,2.938,0,0,0-.762-2.1,2.5,2.5,0,0,0-1.895-.806,2.53,2.53,0,0,0-1.909.791A2.937,2.937,0,0,0,168.525,14a2.924,2.924,0,0,0,.757,2.109A2.53,2.53,0,0,0,171.191,16.9Zm17.6-3.066-.029.674h-7.441a2.6,2.6,0,0,0,.8,1.836,2.561,2.561,0,0,0,1.768.635,2.468,2.468,0,0,0,1.323-.347,2.131,2.131,0,0,0,.845-1.011l2.578.381a4.383,4.383,0,0,1-1.758,2.354,5.226,5.226,0,0,1-2.969.84A5.435,5.435,0,0,1,180,17.813a5.042,5.042,0,0,1-1.45-3.833A5.072,5.072,0,0,1,180,10.147a5.273,5.273,0,0,1,3.818-1.4,5.04,5.04,0,0,1,3.6,1.279A5.019,5.019,0,0,1,188.789,13.834Zm-4.951-3.1a2.222,2.222,0,0,0-2.441,1.934h4.609a2.114,2.114,0,0,0-.693-1.436A2.2,2.2,0,0,0,183.838,10.738Zm24.18-1.973a3.836,3.836,0,0,1,2.588.815,2.918,2.918,0,0,1,.947,2.339V19H208.74V12.721a1.677,1.677,0,0,0-.449-1.27,1.573,1.573,0,0,0-1.133-.43,1.814,1.814,0,0,0-1.367.547,2.484,2.484,0,0,0-.527,1.768V19h-2.842V12.75a1.721,1.721,0,0,0-.449-1.294,1.6,1.6,0,0,0-1.162-.435,1.757,1.757,0,0,0-1.357.576,2.751,2.751,0,0,0-.527,1.885V19h-2.8V8.961h2.8v1.182a3.414,3.414,0,0,1,2.91-1.377,4.293,4.293,0,0,1,1.89.386,2.572,2.572,0,0,1,1.187,1.118A3.55,3.55,0,0,1,208.018,8.766Zm14.5,7.51a9.391,9.391,0,0,0,.244,2.451V19h-2.627l-.225-1.094a3.264,3.264,0,0,1-1.406.967,5.183,5.183,0,0,1-1.816.322,4.776,4.776,0,0,1-.937-.088,3.187,3.187,0,0,1-.845-.3,2.563,2.563,0,0,1-.7-.522,2.291,2.291,0,0,1-.469-.8,3.17,3.17,0,0,1-.176-1.089,3.019,3.019,0,0,1,.186-1.089,2.552,2.552,0,0,1,.488-.815,2.962,2.962,0,0,1,.791-.6,6.052,6.052,0,0,1,1-.43,11.9,11.9,0,0,1,1.191-.312l1.65-.371a1.82,1.82,0,0,0,.747-.317.633.633,0,0,0,.22-.5,1.036,1.036,0,0,0-.493-.967,2.3,2.3,0,0,0-1.2-.293,1.721,1.721,0,0,0-1.963,1.533l-2.49-.449a3.371,3.371,0,0,1,1.455-2.29,5.783,5.783,0,0,1,3.154-.737q4.219,0,4.219,3.623Zm-4.951,1.016a2.262,2.262,0,0,0,1.738-.728,3.066,3.066,0,0,0,.674-2.153l-2.383.674a2.816,2.816,0,0,0-1,.41.842.842,0,0,0-.347.723.935.935,0,0,0,.371.8A1.536,1.536,0,0,0,217.568,17.291Zm10.381-6.738a3.259,3.259,0,0,1,1.318-1.206,4.023,4.023,0,0,1,1.963-.5v2.51a3.8,3.8,0,0,0-2.4.605,2.643,2.643,0,0,0-.742,2.148V19h-2.832V8.961h2.7ZM239.541,19l-3.232-4.219h-.586V19h-2.842V4h2.842v8.828h.527L239.4,8.961h3.184l-3.955,4.658L242.959,19Zm13.916-5.166-.029.674h-7.441a2.6,2.6,0,0,0,.8,1.836,2.561,2.561,0,0,0,1.768.635,2.468,2.468,0,0,0,1.323-.347,2.131,2.131,0,0,0,.845-1.011L253.3,16a4.383,4.383,0,0,1-1.758,2.354,5.226,5.226,0,0,1-2.969.84,5.435,5.435,0,0,1-3.911-1.382,5.042,5.042,0,0,1-1.45-3.833,5.072,5.072,0,0,1,1.455-3.833,5.273,5.273,0,0,1,3.818-1.4,5.04,5.04,0,0,1,3.6,1.279A5.019,5.019,0,0,1,253.457,13.834Zm-4.951-3.1a2.222,2.222,0,0,0-2.441,1.934h4.609a2.114,2.114,0,0,0-.693-1.436A2.2,2.2,0,0,0,248.506,10.738ZM259.336,19a3.032,3.032,0,0,1-2.266-.815,3.172,3.172,0,0,1-.8-2.319V11.119H254.3V8.961h.635a1.656,1.656,0,0,0,1.25-.42,2.162,2.162,0,0,0,.4-1.494V5.719h2.539V8.961h2.07v2.158h-2.07v4.443q0,1.3,1.162,1.3h.908V19ZM264.8,7.457a1.579,1.579,0,0,1-1.152-.474,1.555,1.555,0,0,1-.479-1.147,1.536,1.536,0,0,1,.483-1.138,1.584,1.584,0,0,1,1.147-.474,1.626,1.626,0,0,1,1.611,1.611A1.626,1.626,0,0,1,264.8,7.457ZM263.369,19V8.961H266.2V19Zm11.67-10.234a3.914,3.914,0,0,1,2.773.9,3.349,3.349,0,0,1,.967,2.573V19h-2.822V12.848a1.749,1.749,0,0,0-.5-1.387,1.9,1.9,0,0,0-1.294-.439,2.643,2.643,0,0,0-.84.127,2.158,2.158,0,0,0-.7.4,1.748,1.748,0,0,0-.5.757,3.5,3.5,0,0,0-.19,1.162V19h-2.812V8.961h2.813v1.113A3.868,3.868,0,0,1,275.039,8.766Zm13.379.2h2.676v9.287a7.51,7.51,0,0,1-.376,2.5,4.123,4.123,0,0,1-1.089,1.714,4.539,4.539,0,0,1-1.67.962,7.04,7.04,0,0,1-2.187.313q-3.975,0-5.176-3.115l2.334-1a3.406,3.406,0,0,0,1.084,1.455,2.763,2.763,0,0,0,1.65.469q2.607,0,2.607-3.1V17.281a3.163,3.163,0,0,1-1.265.991,4.2,4.2,0,0,1-1.782.376A4.5,4.5,0,0,1,282,17.3a4.638,4.638,0,0,1-.991-1.577,5.83,5.83,0,0,1,0-4.067,4.451,4.451,0,0,1,1-1.558,4.584,4.584,0,0,1,1.465-.977,4.521,4.521,0,0,1,1.772-.352,4.083,4.083,0,0,1,1.86.415,2.967,2.967,0,0,1,1.245,1.108ZM284.106,15.6a2.576,2.576,0,0,0,3.687-.01,2.806,2.806,0,0,0,0-3.818,2.6,2.6,0,0,0-3.7-.015,2.671,2.671,0,0,0-.737,1.929A2.644,2.644,0,0,0,284.106,15.6Z" transform="translate(1224 5273.5)" fill="#002b45"/>
    <path id="Trazado_20127" data-name="Trazado 20127" d="M92.988,19.2a7.671,7.671,0,0,1-3.706-.884,6.407,6.407,0,0,1-2.573-2.544,7.651,7.651,0,0,1-.937-3.828,7.644,7.644,0,0,1,.938-3.833,6.383,6.383,0,0,1,2.573-2.534,8.243,8.243,0,0,1,7.407,0,6.391,6.391,0,0,1,2.568,2.534,7.644,7.644,0,0,1,.938,3.833,7.651,7.651,0,0,1-.937,3.828,6.407,6.407,0,0,1-2.573,2.544A7.65,7.65,0,0,1,92.988,19.2ZM89.9,15.274a4.472,4.472,0,0,0,6.172,0,4.558,4.558,0,0,0,1.211-3.335,4.528,4.528,0,0,0-1.211-3.32,4.485,4.485,0,0,0-6.172,0,4.528,4.528,0,0,0-1.211,3.32A4.558,4.558,0,0,0,89.9,15.274Zm18.516-6.509a4.857,4.857,0,0,1,1.865.361,4.516,4.516,0,0,1,2.578,2.676,6.106,6.106,0,0,1,.381,2.2,6.106,6.106,0,0,1-.381,2.2,4.516,4.516,0,0,1-2.578,2.676,4.857,4.857,0,0,1-1.865.361,4.336,4.336,0,0,1-1.9-.405,2.808,2.808,0,0,1-1.265-1.138L105.186,19H102.52V4h2.813v6.182a2.8,2.8,0,0,1,1.255-1.045A4.414,4.414,0,0,1,108.418,8.766Zm-.654,8.135a2.53,2.53,0,0,0,1.909-.791A2.924,2.924,0,0,0,110.43,14a2.937,2.937,0,0,0-.757-2.119,2.53,2.53,0,0,0-1.909-.791,2.5,2.5,0,0,0-1.895.806,2.938,2.938,0,0,0-.762,2.1,2.932,2.932,0,0,0,.757,2.1A2.5,2.5,0,0,0,107.764,16.9Zm9.043-9.443a1.579,1.579,0,0,1-1.152-.474,1.555,1.555,0,0,1-.479-1.147,1.536,1.536,0,0,1,.483-1.138,1.584,1.584,0,0,1,1.147-.474,1.626,1.626,0,0,1,1.611,1.611,1.626,1.626,0,0,1-1.611,1.621Zm-3.5,16.25v-2.2a3.235,3.235,0,0,0,1.055-.142,1.179,1.179,0,0,0,.625-.5,2.227,2.227,0,0,0,.3-.864,9.745,9.745,0,0,0,.073-1.343v-9.7h2.852v9.7A5.453,5.453,0,0,1,117.07,22.5,4.986,4.986,0,0,1,113.311,23.707Zm17.266-9.873-.029.674h-7.441a2.6,2.6,0,0,0,.8,1.836,2.561,2.561,0,0,0,1.768.635A2.468,2.468,0,0,0,127,16.632a2.131,2.131,0,0,0,.845-1.011L130.42,16a4.383,4.383,0,0,1-1.758,2.354,5.226,5.226,0,0,1-2.969.84,5.435,5.435,0,0,1-3.911-1.382,5.042,5.042,0,0,1-1.45-3.833,5.072,5.072,0,0,1,1.455-3.833,5.273,5.273,0,0,1,3.818-1.4,5.04,5.04,0,0,1,3.6,1.279A5.019,5.019,0,0,1,130.576,13.834Zm-4.951-3.1a2.222,2.222,0,0,0-2.441,1.934h4.609a2.114,2.114,0,0,0-.693-1.436A2.2,2.2,0,0,0,125.625,10.738ZM136.455,19a3.032,3.032,0,0,1-2.266-.815,3.171,3.171,0,0,1-.8-2.319V11.119h-1.973V8.961h.635a1.656,1.656,0,0,0,1.25-.42,2.162,2.162,0,0,0,.4-1.494V5.719h2.539V8.961h2.07v2.158h-2.07v4.443q0,1.3,1.162,1.3h.908V19Zm5.469-11.543a1.579,1.579,0,0,1-1.152-.474,1.555,1.555,0,0,1-.479-1.147,1.536,1.536,0,0,1,.483-1.138,1.584,1.584,0,0,1,1.147-.474,1.626,1.626,0,0,1,1.611,1.611,1.626,1.626,0,0,1-1.611,1.621ZM140.488,19V8.961h2.832V19ZM152.764,8.961h2.979L151.465,19h-2.441L144.795,8.961h2.959l2.5,6.865Zm8.73,10.234a6.313,6.313,0,0,1-2.842-.615,4.6,4.6,0,0,1-1.948-1.807,5.384,5.384,0,0,1-.708-2.8,4.911,4.911,0,0,1,1.523-3.809,6.368,6.368,0,0,1,7.959,0A4.911,4.911,0,0,1,167,13.971a4.938,4.938,0,0,1-1.523,3.823A5.654,5.654,0,0,1,161.494,19.2Zm-.029-2.236a2.577,2.577,0,0,0,1.987-.82,3.071,3.071,0,0,0,.757-2.168,3.071,3.071,0,0,0-.757-2.168,2.577,2.577,0,0,0-1.987-.82,2.483,2.483,0,0,0-1.929.825,3.1,3.1,0,0,0-.747,2.163,3.1,3.1,0,0,0,.747,2.163A2.483,2.483,0,0,0,161.465,16.959ZM172.627,19.2a5.61,5.61,0,0,1-2.93-.7,2.972,2.972,0,0,1-1.436-2.09l2.354-.664a1.891,1.891,0,0,0,2.012,1.494A2.078,2.078,0,0,0,173.652,17a.8.8,0,0,0,.4-.776.821.821,0,0,0-.166-.518,1.315,1.315,0,0,0-.513-.371,6.388,6.388,0,0,0-.684-.264q-.337-.107-.894-.259t-.928-.288a6.215,6.215,0,0,1-.884-.376,3.769,3.769,0,0,1-.732-.518,2.086,2.086,0,0,1-.547-.786,2.836,2.836,0,0,1-.19-1.074A2.565,2.565,0,0,1,169.6,9.527a4.865,4.865,0,0,1,2.847-.762,4.988,4.988,0,0,1,2.627.645,2.917,2.917,0,0,1,1.348,2.012l-2.178.488a1.706,1.706,0,0,0-1.787-1.27,1.957,1.957,0,0,0-.986.225.722.722,0,0,0-.391.664.761.761,0,0,0,.059.3.6.6,0,0,0,.205.244,2.992,2.992,0,0,0,.283.186,2.136,2.136,0,0,0,.4.161q.264.083.439.127l.513.132.522.137q.537.146.942.293a5.519,5.519,0,0,1,.864.41,3.1,3.1,0,0,1,.757.591,2.635,2.635,0,0,1,.493.83,3.066,3.066,0,0,1,.2,1.118,3.02,3.02,0,0,1-.337,1.455,2.529,2.529,0,0,1-.923.981,4.492,4.492,0,0,1-1.3.527A6.763,6.763,0,0,1,172.627,19.2ZM191.094,4h2.813V19H191.24l-.068-1.309a2.867,2.867,0,0,1-1.274,1.138,4.29,4.29,0,0,1-1.88.405,4.883,4.883,0,0,1-1.875-.361,4.516,4.516,0,0,1-2.578-2.676,6.106,6.106,0,0,1-.381-2.2,5.708,5.708,0,0,1,.664-2.8A4.55,4.55,0,0,1,185.6,9.381a4.827,4.827,0,0,1,2.417-.615,4.4,4.4,0,0,1,1.821.366,2.843,2.843,0,0,1,1.255,1.04Zm-2.432,12.9a2.5,2.5,0,0,0,1.9-.8,2.932,2.932,0,0,0,.757-2.1,2.938,2.938,0,0,0-.762-2.1,2.5,2.5,0,0,0-1.895-.806,2.53,2.53,0,0,0-1.909.791A2.937,2.937,0,0,0,186,14a2.924,2.924,0,0,0,.757,2.109A2.53,2.53,0,0,0,188.662,16.9Zm17.6-3.066-.029.674h-7.441a2.6,2.6,0,0,0,.8,1.836,2.561,2.561,0,0,0,1.768.635,2.468,2.468,0,0,0,1.323-.347,2.131,2.131,0,0,0,.845-1.011L206.1,16a4.383,4.383,0,0,1-1.758,2.354,5.226,5.226,0,0,1-2.969.84,5.435,5.435,0,0,1-3.911-1.382,5.042,5.042,0,0,1-1.45-3.833,5.072,5.072,0,0,1,1.455-3.833,5.273,5.273,0,0,1,3.818-1.4,5.04,5.04,0,0,1,3.6,1.279A5.019,5.019,0,0,1,206.26,13.834Zm-4.951-3.1a2.222,2.222,0,0,0-2.441,1.934h4.609a2.114,2.114,0,0,0-.693-1.436A2.2,2.2,0,0,0,201.309,10.738Zm18.818-1.777h2.979L218.828,19h-2.441L212.158,8.961h2.959l2.5,6.865Zm13.5,4.873-.029.674h-7.441a2.6,2.6,0,0,0,.8,1.836,2.561,2.561,0,0,0,1.768.635,2.468,2.468,0,0,0,1.323-.347,2.131,2.131,0,0,0,.845-1.011l2.578.381a4.383,4.383,0,0,1-1.758,2.354,5.226,5.226,0,0,1-2.969.84,5.435,5.435,0,0,1-3.911-1.382,5.042,5.042,0,0,1-1.45-3.833,5.072,5.072,0,0,1,1.455-3.833,5.273,5.273,0,0,1,3.818-1.4,5.04,5.04,0,0,1,3.6,1.279A5.019,5.019,0,0,1,233.623,13.834Zm-4.951-3.1a2.222,2.222,0,0,0-2.441,1.934h4.609a2.114,2.114,0,0,0-.693-1.436A2.2,2.2,0,0,0,228.672,10.738Zm13.018-1.973a3.914,3.914,0,0,1,2.773.9,3.349,3.349,0,0,1,.967,2.573V19h-2.822V12.848a1.749,1.749,0,0,0-.5-1.387,1.9,1.9,0,0,0-1.294-.439,2.643,2.643,0,0,0-.84.127,2.158,2.158,0,0,0-.7.4,1.748,1.748,0,0,0-.5.757,3.5,3.5,0,0,0-.19,1.162V19h-2.812V8.961h2.813v1.113A3.868,3.868,0,0,1,241.689,8.766ZM251.895,19a3.032,3.032,0,0,1-2.266-.815,3.171,3.171,0,0,1-.8-2.319V11.119h-1.973V8.961h.635a1.656,1.656,0,0,0,1.25-.42,2.162,2.162,0,0,0,.4-1.494V5.719h2.539V8.961h2.07v2.158h-2.07v4.443q0,1.3,1.162,1.3h.908V19Zm12.227-2.725a9.392,9.392,0,0,0,.244,2.451V19h-2.627l-.225-1.094a3.264,3.264,0,0,1-1.406.967,5.183,5.183,0,0,1-1.816.322,4.776,4.776,0,0,1-.937-.088,3.187,3.187,0,0,1-.845-.3,2.564,2.564,0,0,1-.7-.522,2.291,2.291,0,0,1-.469-.8,3.17,3.17,0,0,1-.176-1.089,3.019,3.019,0,0,1,.186-1.089,2.552,2.552,0,0,1,.488-.815,2.961,2.961,0,0,1,.791-.6,6.053,6.053,0,0,1,1-.43,11.9,11.9,0,0,1,1.191-.312l1.65-.371a1.82,1.82,0,0,0,.747-.317.633.633,0,0,0,.22-.5,1.036,1.036,0,0,0-.493-.967,2.3,2.3,0,0,0-1.2-.293,1.721,1.721,0,0,0-1.963,1.533l-2.49-.449a3.371,3.371,0,0,1,1.455-2.29,5.783,5.783,0,0,1,3.154-.737q4.219,0,4.219,3.623Zm-4.951,1.016a2.262,2.262,0,0,0,1.738-.728,3.066,3.066,0,0,0,.674-2.153l-2.383.674a2.816,2.816,0,0,0-1,.41.842.842,0,0,0-.347.723.935.935,0,0,0,.371.8A1.536,1.536,0,0,0,259.17,17.291Zm11.221,1.9a5.61,5.61,0,0,1-2.93-.7,2.972,2.972,0,0,1-1.436-2.09l2.354-.664a1.891,1.891,0,0,0,2.012,1.494A2.078,2.078,0,0,0,271.416,17a.8.8,0,0,0,.4-.776.821.821,0,0,0-.166-.518,1.315,1.315,0,0,0-.513-.371,6.386,6.386,0,0,0-.684-.264q-.337-.107-.894-.259t-.928-.288a6.215,6.215,0,0,1-.884-.376,3.77,3.77,0,0,1-.732-.518,2.086,2.086,0,0,1-.547-.786,2.836,2.836,0,0,1-.19-1.074,2.565,2.565,0,0,1,1.089-2.246,4.865,4.865,0,0,1,2.847-.762,4.988,4.988,0,0,1,2.627.645,2.917,2.917,0,0,1,1.348,2.012l-2.178.488a1.706,1.706,0,0,0-1.787-1.27,1.957,1.957,0,0,0-.986.225.722.722,0,0,0-.391.664.761.761,0,0,0,.059.3.6.6,0,0,0,.205.244,2.99,2.99,0,0,0,.283.186,2.137,2.137,0,0,0,.4.161q.264.083.439.127l.513.132.522.137q.537.146.942.293a5.52,5.52,0,0,1,.864.41,3.1,3.1,0,0,1,.757.591,2.635,2.635,0,0,1,.493.83,3.066,3.066,0,0,1,.2,1.118,3.02,3.02,0,0,1-.337,1.455,2.529,2.529,0,0,1-.923.981,4.492,4.492,0,0,1-1.3.527A6.763,6.763,0,0,1,270.391,19.2Z" transform="translate(1224 5403.5)" fill="#002b45"/>
    <path id="Trazado_20128" data-name="Trazado 20128" d="M85.732,19.2a7.671,7.671,0,0,1-3.706-.884,6.407,6.407,0,0,1-2.573-2.544,7.651,7.651,0,0,1-.937-3.828,7.644,7.644,0,0,1,.938-3.833,6.383,6.383,0,0,1,2.573-2.534,8.243,8.243,0,0,1,7.407,0A6.391,6.391,0,0,1,92,8.106a7.644,7.644,0,0,1,.938,3.833A7.651,7.651,0,0,1,92,15.768a6.407,6.407,0,0,1-2.573,2.544A7.65,7.65,0,0,1,85.732,19.2Zm-3.086-3.921a4.472,4.472,0,0,0,6.172,0,4.558,4.558,0,0,0,1.211-3.335,4.528,4.528,0,0,0-1.211-3.32,4.485,4.485,0,0,0-6.172,0,4.528,4.528,0,0,0-1.211,3.32A4.558,4.558,0,0,0,82.646,15.274Zm18.516-6.509a4.857,4.857,0,0,1,1.865.361,4.516,4.516,0,0,1,2.578,2.676,6.106,6.106,0,0,1,.381,2.2,6.106,6.106,0,0,1-.381,2.2,4.516,4.516,0,0,1-2.578,2.676,4.857,4.857,0,0,1-1.865.361,4.336,4.336,0,0,1-1.9-.405A2.808,2.808,0,0,1,98,17.691L97.93,19H95.264V4h2.813v6.182a2.8,2.8,0,0,1,1.255-1.045A4.414,4.414,0,0,1,101.162,8.766Zm-.654,8.135a2.53,2.53,0,0,0,1.909-.791A2.924,2.924,0,0,0,103.174,14a2.937,2.937,0,0,0-.757-2.119,2.53,2.53,0,0,0-1.909-.791,2.5,2.5,0,0,0-1.895.806,2.938,2.938,0,0,0-.762,2.1,2.932,2.932,0,0,0,.757,2.1A2.5,2.5,0,0,0,100.508,16.9Zm9.043-9.443a1.579,1.579,0,0,1-1.152-.474,1.555,1.555,0,0,1-.479-1.147A1.536,1.536,0,0,1,108.4,4.7a1.584,1.584,0,0,1,1.147-.474,1.626,1.626,0,0,1,1.611,1.611,1.626,1.626,0,0,1-1.611,1.621Zm-3.5,16.25v-2.2a3.235,3.235,0,0,0,1.055-.142,1.179,1.179,0,0,0,.625-.5,2.227,2.227,0,0,0,.3-.864,9.745,9.745,0,0,0,.073-1.343v-9.7h2.852v9.7a5.453,5.453,0,0,1-1.143,3.838A4.986,4.986,0,0,1,106.055,23.707Zm17.266-9.873-.029.674H115.85a2.6,2.6,0,0,0,.8,1.836,2.561,2.561,0,0,0,1.768.635,2.468,2.468,0,0,0,1.323-.347,2.131,2.131,0,0,0,.845-1.011l2.578.381a4.383,4.383,0,0,1-1.758,2.354,5.226,5.226,0,0,1-2.969.84,5.435,5.435,0,0,1-3.911-1.382,5.042,5.042,0,0,1-1.45-3.833,5.072,5.072,0,0,1,1.455-3.833,5.273,5.273,0,0,1,3.818-1.4,5.04,5.04,0,0,1,3.6,1.279A5.019,5.019,0,0,1,123.32,13.834Zm-4.951-3.1a2.222,2.222,0,0,0-2.441,1.934h4.609a2.114,2.114,0,0,0-.693-1.436A2.2,2.2,0,0,0,118.369,10.738ZM129.2,19a3.032,3.032,0,0,1-2.266-.815,3.172,3.172,0,0,1-.8-2.319V11.119H124.16V8.961h.635a1.656,1.656,0,0,0,1.25-.42,2.162,2.162,0,0,0,.4-1.494V5.719h2.539V8.961h2.07v2.158h-2.07v4.443q0,1.3,1.162,1.3h.908V19Zm5.469-11.543a1.579,1.579,0,0,1-1.152-.474,1.555,1.555,0,0,1-.479-1.147,1.536,1.536,0,0,1,.483-1.138,1.584,1.584,0,0,1,1.147-.474,1.626,1.626,0,0,1,1.611,1.611,1.626,1.626,0,0,1-1.611,1.621ZM133.232,19V8.961h2.832V19ZM145.508,8.961h2.979L144.209,19h-2.441L137.539,8.961H140.5l2.5,6.865Zm8.73,10.234a6.313,6.313,0,0,1-2.842-.615,4.6,4.6,0,0,1-1.948-1.807,5.384,5.384,0,0,1-.708-2.8,4.911,4.911,0,0,1,1.523-3.809,6.368,6.368,0,0,1,7.959,0,4.911,4.911,0,0,1,1.523,3.809,4.938,4.938,0,0,1-1.523,3.823A5.654,5.654,0,0,1,154.238,19.2Zm-.029-2.236a2.577,2.577,0,0,0,1.987-.82,3.071,3.071,0,0,0,.757-2.168A3.071,3.071,0,0,0,156.2,11.8a2.577,2.577,0,0,0-1.987-.82,2.483,2.483,0,0,0-1.929.825,3.1,3.1,0,0,0-.747,2.163,3.1,3.1,0,0,0,.747,2.163A2.483,2.483,0,0,0,154.209,16.959ZM165.371,19.2a5.61,5.61,0,0,1-2.93-.7,2.972,2.972,0,0,1-1.436-2.09l2.354-.664a1.891,1.891,0,0,0,2.012,1.494A2.078,2.078,0,0,0,166.4,17a.8.8,0,0,0,.4-.776.821.821,0,0,0-.166-.518,1.315,1.315,0,0,0-.513-.371,6.388,6.388,0,0,0-.684-.264q-.337-.107-.894-.259t-.928-.288a6.215,6.215,0,0,1-.884-.376,3.769,3.769,0,0,1-.732-.518,2.086,2.086,0,0,1-.547-.786,2.836,2.836,0,0,1-.19-1.074,2.565,2.565,0,0,1,1.089-2.246,4.865,4.865,0,0,1,2.847-.762,4.988,4.988,0,0,1,2.627.645,2.917,2.917,0,0,1,1.348,2.012l-2.178.488a1.706,1.706,0,0,0-1.787-1.27,1.957,1.957,0,0,0-.986.225.722.722,0,0,0-.391.664.761.761,0,0,0,.059.3.6.6,0,0,0,.205.244,2.992,2.992,0,0,0,.283.186,2.136,2.136,0,0,0,.4.161q.264.083.439.127l.513.132.522.137q.537.146.942.293a5.519,5.519,0,0,1,.864.41,3.1,3.1,0,0,1,.757.591,2.635,2.635,0,0,1,.493.83,3.066,3.066,0,0,1,.2,1.118,3.02,3.02,0,0,1-.337,1.455,2.529,2.529,0,0,1-.923.981,4.492,4.492,0,0,1-1.3.527A6.763,6.763,0,0,1,165.371,19.2ZM177.422,7.877a5.871,5.871,0,0,1,.127-1.279,3.893,3.893,0,0,1,.342-.972,2.275,2.275,0,0,1,.571-.7,3.371,3.371,0,0,1,.742-.469,4.241,4.241,0,0,1,.923-.283,8.1,8.1,0,0,1,1.06-.142q.522-.034,1.2-.034V6.246h-.059q-.273,0-.415,0t-.4.034a1.621,1.621,0,0,0-.405.088,2.065,2.065,0,0,0-.337.181.9.9,0,0,0-.293.293,1.77,1.77,0,0,0-.176.435,2.269,2.269,0,0,0-.073.605V8.961h2.158v2.158h-2.158V19h-2.8V11.119h-1.963V8.961h1.963Zm7.988-.42a1.579,1.579,0,0,1-1.152-.474,1.555,1.555,0,0,1-.479-1.147,1.536,1.536,0,0,1,.483-1.138,1.584,1.584,0,0,1,1.147-.474,1.626,1.626,0,0,1,1.611,1.611,1.626,1.626,0,0,1-1.611,1.621ZM183.975,19V8.961h2.832V19Zm11.67-10.234a3.914,3.914,0,0,1,2.773.9,3.349,3.349,0,0,1,.967,2.573V19h-2.822V12.848a1.749,1.749,0,0,0-.5-1.387,1.9,1.9,0,0,0-1.294-.439,2.643,2.643,0,0,0-.84.127,2.158,2.158,0,0,0-.7.4,1.748,1.748,0,0,0-.5.757,3.5,3.5,0,0,0-.19,1.162V19h-2.812V8.961h2.813v1.113A3.868,3.868,0,0,1,195.645,8.766Zm14.7,7.51a9.391,9.391,0,0,0,.244,2.451V19h-2.627l-.225-1.094a3.264,3.264,0,0,1-1.406.967,5.183,5.183,0,0,1-1.816.322,4.776,4.776,0,0,1-.937-.088,3.187,3.187,0,0,1-.845-.3,2.563,2.563,0,0,1-.7-.522,2.291,2.291,0,0,1-.469-.8,3.17,3.17,0,0,1-.176-1.089,3.019,3.019,0,0,1,.186-1.089,2.552,2.552,0,0,1,.488-.815,2.962,2.962,0,0,1,.791-.6,6.052,6.052,0,0,1,1-.43,11.9,11.9,0,0,1,1.191-.312l1.65-.371a1.82,1.82,0,0,0,.747-.317.633.633,0,0,0,.22-.5,1.036,1.036,0,0,0-.493-.967,2.3,2.3,0,0,0-1.2-.293A1.721,1.721,0,0,0,204,12.242l-2.49-.449a3.371,3.371,0,0,1,1.455-2.29,5.783,5.783,0,0,1,3.154-.737q4.219,0,4.219,3.623Zm-4.951,1.016a2.262,2.262,0,0,0,1.738-.728,3.066,3.066,0,0,0,.674-2.153l-2.383.674a2.816,2.816,0,0,0-1,.41.842.842,0,0,0-.347.723.935.935,0,0,0,.371.8A1.536,1.536,0,0,0,205.391,17.291ZM219,8.766a3.914,3.914,0,0,1,2.773.9,3.349,3.349,0,0,1,.967,2.573V19h-2.822V12.848a1.749,1.749,0,0,0-.5-1.387,1.9,1.9,0,0,0-1.294-.439,2.643,2.643,0,0,0-.84.127,2.158,2.158,0,0,0-.7.4,1.748,1.748,0,0,0-.5.757,3.5,3.5,0,0,0-.19,1.162V19h-2.812V8.961h2.813v1.113A3.868,3.868,0,0,1,219,8.766Zm11.006,10.42a5.364,5.364,0,0,1-3.877-1.445,4.992,4.992,0,0,1-1.5-3.77,4.981,4.981,0,0,1,1.5-3.77,5.96,5.96,0,0,1,7.134-.469,4.316,4.316,0,0,1,1.68,2.725l-2.6.283a2.225,2.225,0,0,0-.84-1.318,2.554,2.554,0,0,0-1.523-.439,2.3,2.3,0,0,0-1.836.82,3.216,3.216,0,0,0-.7,2.168,3.22,3.22,0,0,0,.7,2.163,2.3,2.3,0,0,0,1.836.825,2.532,2.532,0,0,0,1.519-.439,2.277,2.277,0,0,0,.845-1.318l2.6.283a4.328,4.328,0,0,1-1.694,2.725A5.327,5.327,0,0,1,230.01,19.186Zm8.369-11.729a1.579,1.579,0,0,1-1.152-.474,1.555,1.555,0,0,1-.479-1.147,1.536,1.536,0,0,1,.483-1.138,1.584,1.584,0,0,1,1.147-.474,1.626,1.626,0,0,1,1.611,1.611,1.626,1.626,0,0,1-1.611,1.621ZM236.943,19V8.961h2.832V19Zm15.186-5.166-.029.674h-7.441a2.6,2.6,0,0,0,.8,1.836,2.561,2.561,0,0,0,1.768.635,2.468,2.468,0,0,0,1.323-.347,2.131,2.131,0,0,0,.845-1.011l2.578.381a4.383,4.383,0,0,1-1.758,2.354,5.226,5.226,0,0,1-2.969.84,5.435,5.435,0,0,1-3.911-1.382,5.042,5.042,0,0,1-1.45-3.833,5.072,5.072,0,0,1,1.455-3.833,5.273,5.273,0,0,1,3.818-1.4,5.04,5.04,0,0,1,3.6,1.279A5.019,5.019,0,0,1,252.129,13.834Zm-4.951-3.1a2.222,2.222,0,0,0-2.441,1.934h4.609a2.114,2.114,0,0,0-.693-1.436A2.2,2.2,0,0,0,247.178,10.738Zm9.785-.186a3.259,3.259,0,0,1,1.318-1.206,4.023,4.023,0,0,1,1.963-.5v2.51a3.8,3.8,0,0,0-2.4.605,2.643,2.643,0,0,0-.742,2.148V19h-2.832V8.961h2.7Zm9.551,8.643a6.313,6.313,0,0,1-2.842-.615,4.6,4.6,0,0,1-1.948-1.807,5.384,5.384,0,0,1-.708-2.8,4.911,4.911,0,0,1,1.523-3.809,6.368,6.368,0,0,1,7.959,0,4.911,4.911,0,0,1,1.523,3.809,4.938,4.938,0,0,1-1.523,3.823A5.654,5.654,0,0,1,266.514,19.2Zm-.029-2.236a2.577,2.577,0,0,0,1.987-.82,3.071,3.071,0,0,0,.757-2.168,3.071,3.071,0,0,0-.757-2.168,2.577,2.577,0,0,0-1.987-.82,2.483,2.483,0,0,0-1.929.825,3.1,3.1,0,0,0-.747,2.163,3.1,3.1,0,0,0,.747,2.163A2.483,2.483,0,0,0,266.484,16.959ZM277.646,19.2a5.61,5.61,0,0,1-2.93-.7,2.972,2.972,0,0,1-1.436-2.09l2.354-.664a1.891,1.891,0,0,0,2.012,1.494A2.078,2.078,0,0,0,278.672,17a.8.8,0,0,0,.4-.776.821.821,0,0,0-.166-.518,1.315,1.315,0,0,0-.513-.371,6.386,6.386,0,0,0-.684-.264q-.337-.107-.894-.259t-.928-.288a6.215,6.215,0,0,1-.884-.376,3.77,3.77,0,0,1-.732-.518,2.086,2.086,0,0,1-.547-.786,2.836,2.836,0,0,1-.19-1.074,2.565,2.565,0,0,1,1.089-2.246,4.865,4.865,0,0,1,2.847-.762,4.988,4.988,0,0,1,2.627.645,2.917,2.917,0,0,1,1.348,2.012l-2.178.488a1.706,1.706,0,0,0-1.787-1.27,1.957,1.957,0,0,0-.986.225.722.722,0,0,0-.391.664.761.761,0,0,0,.059.3.6.6,0,0,0,.205.244,2.99,2.99,0,0,0,.283.186,2.137,2.137,0,0,0,.4.161q.264.083.439.127l.513.132.522.137q.537.146.942.293a5.52,5.52,0,0,1,.864.41,3.1,3.1,0,0,1,.757.591,2.635,2.635,0,0,1,.493.83,3.066,3.066,0,0,1,.2,1.118,3.02,3.02,0,0,1-.337,1.455,2.529,2.529,0,0,1-.923.981,4.492,4.492,0,0,1-1.3.527A6.763,6.763,0,0,1,277.646,19.2Z" transform="translate(1224 5533.5)" fill="#002b45"/>
    <path id="Trazado_20129" data-name="Trazado 20129" d="M31.973,19.2a7.671,7.671,0,0,1-3.706-.884,6.407,6.407,0,0,1-2.573-2.544,7.651,7.651,0,0,1-.937-3.828,7.644,7.644,0,0,1,.938-3.833,6.382,6.382,0,0,1,2.573-2.534,8.243,8.243,0,0,1,7.407,0,6.391,6.391,0,0,1,2.568,2.534,7.644,7.644,0,0,1,.938,3.833,7.651,7.651,0,0,1-.937,3.828,6.407,6.407,0,0,1-2.573,2.544A7.65,7.65,0,0,1,31.973,19.2Zm-3.086-3.921a4.472,4.472,0,0,0,6.172,0,4.558,4.558,0,0,0,1.211-3.335,4.528,4.528,0,0,0-1.211-3.32,4.485,4.485,0,0,0-6.172,0,4.528,4.528,0,0,0-1.211,3.32A4.558,4.558,0,0,0,28.887,15.274ZM47.4,8.766a4.857,4.857,0,0,1,1.865.361A4.516,4.516,0,0,1,51.846,11.8a6.106,6.106,0,0,1,.381,2.2,6.106,6.106,0,0,1-.381,2.2,4.516,4.516,0,0,1-2.578,2.676,4.857,4.857,0,0,1-1.865.361,4.336,4.336,0,0,1-1.9-.405,2.808,2.808,0,0,1-1.265-1.138L44.17,19H41.5V4h2.813v6.182a2.8,2.8,0,0,1,1.255-1.045A4.414,4.414,0,0,1,47.4,8.766ZM46.748,16.9a2.53,2.53,0,0,0,1.909-.791A2.924,2.924,0,0,0,49.414,14a2.937,2.937,0,0,0-.757-2.119,2.53,2.53,0,0,0-1.909-.791,2.5,2.5,0,0,0-1.895.806,2.938,2.938,0,0,0-.762,2.1,2.932,2.932,0,0,0,.757,2.1A2.5,2.5,0,0,0,46.748,16.9Zm9.043-9.443a1.579,1.579,0,0,1-1.152-.474,1.555,1.555,0,0,1-.479-1.147A1.536,1.536,0,0,1,54.644,4.7a1.584,1.584,0,0,1,1.147-.474A1.626,1.626,0,0,1,57.4,5.836a1.626,1.626,0,0,1-1.611,1.621Zm-3.5,16.25v-2.2a3.235,3.235,0,0,0,1.055-.142,1.179,1.179,0,0,0,.625-.5,2.227,2.227,0,0,0,.3-.864,9.745,9.745,0,0,0,.073-1.343v-9.7H57.2v9.7A5.453,5.453,0,0,1,56.055,22.5,4.986,4.986,0,0,1,52.295,23.707Zm17.266-9.873-.029.674H62.09a2.6,2.6,0,0,0,.8,1.836,2.561,2.561,0,0,0,1.768.635,2.468,2.468,0,0,0,1.323-.347,2.131,2.131,0,0,0,.845-1.011L69.4,16a4.383,4.383,0,0,1-1.758,2.354,5.226,5.226,0,0,1-2.969.84,5.435,5.435,0,0,1-3.911-1.382,5.042,5.042,0,0,1-1.45-3.833,5.072,5.072,0,0,1,1.455-3.833,5.273,5.273,0,0,1,3.818-1.4,5.04,5.04,0,0,1,3.6,1.279A5.019,5.019,0,0,1,69.561,13.834Zm-4.951-3.1a2.222,2.222,0,0,0-2.441,1.934h4.609a2.114,2.114,0,0,0-.693-1.436A2.2,2.2,0,0,0,64.609,10.738ZM75.439,19a3.032,3.032,0,0,1-2.266-.815,3.172,3.172,0,0,1-.8-2.319V11.119H70.4V8.961h.635a1.656,1.656,0,0,0,1.25-.42,2.162,2.162,0,0,0,.4-1.494V5.719h2.539V8.961h2.07v2.158h-2.07v4.443q0,1.3,1.162,1.3h.908V19ZM80.908,7.457a1.579,1.579,0,0,1-1.152-.474,1.555,1.555,0,0,1-.479-1.147A1.536,1.536,0,0,1,79.761,4.7a1.584,1.584,0,0,1,1.147-.474A1.626,1.626,0,0,1,82.52,5.836a1.626,1.626,0,0,1-1.611,1.621ZM79.473,19V8.961H82.3V19ZM91.748,8.961h2.979L90.449,19H88.008L83.779,8.961h2.959l2.5,6.865Zm8.73,10.234a6.313,6.313,0,0,1-2.842-.615,4.6,4.6,0,0,1-1.948-1.807,5.384,5.384,0,0,1-.708-2.8A4.911,4.911,0,0,1,96.5,10.162a6.368,6.368,0,0,1,7.959,0,4.911,4.911,0,0,1,1.523,3.809,4.938,4.938,0,0,1-1.523,3.823A5.654,5.654,0,0,1,100.479,19.2Zm-.029-2.236a2.577,2.577,0,0,0,1.987-.82,3.071,3.071,0,0,0,.757-2.168,3.071,3.071,0,0,0-.757-2.168,2.577,2.577,0,0,0-1.987-.82,2.483,2.483,0,0,0-1.929.825,3.1,3.1,0,0,0-.747,2.163,3.1,3.1,0,0,0,.747,2.163A2.483,2.483,0,0,0,100.449,16.959ZM111.611,19.2a5.61,5.61,0,0,1-2.93-.7,2.972,2.972,0,0,1-1.436-2.09l2.354-.664a1.891,1.891,0,0,0,2.012,1.494A2.078,2.078,0,0,0,112.637,17a.8.8,0,0,0,.4-.776.821.821,0,0,0-.166-.518,1.315,1.315,0,0,0-.513-.371,6.387,6.387,0,0,0-.684-.264q-.337-.107-.894-.259t-.928-.288a6.215,6.215,0,0,1-.884-.376,3.77,3.77,0,0,1-.732-.518,2.086,2.086,0,0,1-.547-.786,2.836,2.836,0,0,1-.19-1.074,2.565,2.565,0,0,1,1.089-2.246,4.865,4.865,0,0,1,2.847-.762,4.988,4.988,0,0,1,2.627.645,2.917,2.917,0,0,1,1.348,2.012l-2.178.488a1.706,1.706,0,0,0-1.787-1.27,1.957,1.957,0,0,0-.986.225.722.722,0,0,0-.391.664.761.761,0,0,0,.059.3.6.6,0,0,0,.205.244,2.991,2.991,0,0,0,.283.186,2.137,2.137,0,0,0,.4.161q.264.083.439.127l.513.132.522.137q.537.146.942.293a5.519,5.519,0,0,1,.864.41,3.1,3.1,0,0,1,.757.591,2.635,2.635,0,0,1,.493.83,3.066,3.066,0,0,1,.2,1.118,3.02,3.02,0,0,1-.337,1.455,2.529,2.529,0,0,1-.923.981,4.492,4.492,0,0,1-1.3.527A6.763,6.763,0,0,1,111.611,19.2Zm14.043-8.643a3.259,3.259,0,0,1,1.318-1.206,4.023,4.023,0,0,1,1.963-.5v2.51a3.8,3.8,0,0,0-2.4.605,2.643,2.643,0,0,0-.742,2.148V19h-2.832V8.961h2.7Zm14.316,3.281-.029.674H132.5a2.6,2.6,0,0,0,.8,1.836,2.561,2.561,0,0,0,1.768.635,2.468,2.468,0,0,0,1.323-.347,2.131,2.131,0,0,0,.845-1.011l2.578.381a4.383,4.383,0,0,1-1.758,2.354,5.226,5.226,0,0,1-2.969.84,5.435,5.435,0,0,1-3.911-1.382,5.042,5.042,0,0,1-1.45-3.833,5.072,5.072,0,0,1,1.455-3.833A5.273,5.273,0,0,1,135,8.746a5.04,5.04,0,0,1,3.6,1.279A5.019,5.019,0,0,1,139.971,13.834Zm-4.951-3.1a2.222,2.222,0,0,0-2.441,1.934h4.609a2.114,2.114,0,0,0-.693-1.436A2.2,2.2,0,0,0,135.02,10.738ZM145.645,19.2a5.61,5.61,0,0,1-2.93-.7,2.972,2.972,0,0,1-1.436-2.09l2.354-.664a1.891,1.891,0,0,0,2.012,1.494A2.078,2.078,0,0,0,146.67,17a.8.8,0,0,0,.4-.776.821.821,0,0,0-.166-.518,1.315,1.315,0,0,0-.513-.371,6.388,6.388,0,0,0-.684-.264q-.337-.107-.894-.259t-.928-.288a6.215,6.215,0,0,1-.884-.376,3.769,3.769,0,0,1-.732-.518,2.086,2.086,0,0,1-.547-.786,2.836,2.836,0,0,1-.19-1.074,2.565,2.565,0,0,1,1.089-2.246,4.865,4.865,0,0,1,2.847-.762,4.988,4.988,0,0,1,2.627.645,2.917,2.917,0,0,1,1.348,2.012l-2.178.488a1.706,1.706,0,0,0-1.787-1.27,1.957,1.957,0,0,0-.986.225.722.722,0,0,0-.391.664.761.761,0,0,0,.059.3.6.6,0,0,0,.205.244,2.992,2.992,0,0,0,.283.186,2.136,2.136,0,0,0,.4.161q.264.083.439.127l.513.132.522.137q.537.146.942.293a5.519,5.519,0,0,1,.864.41,3.1,3.1,0,0,1,.757.591,2.635,2.635,0,0,1,.493.83,3.066,3.066,0,0,1,.2,1.118,3.02,3.02,0,0,1-.337,1.455,2.529,2.529,0,0,1-.923.981,4.492,4.492,0,0,1-1.3.527A6.763,6.763,0,0,1,145.645,19.2Zm12.041-10.43a4.883,4.883,0,0,1,1.875.361,4.692,4.692,0,0,1,1.538,1.016,4.6,4.6,0,0,1,1.04,1.655,6.146,6.146,0,0,1,.381,2.2,6.146,6.146,0,0,1-.381,2.2,4.6,4.6,0,0,1-1.04,1.655,4.692,4.692,0,0,1-1.538,1.016,4.883,4.883,0,0,1-1.875.361,4.356,4.356,0,0,1-1.816-.371,2.846,2.846,0,0,1-1.26-1.055v6.074H151.8V8.961h2.666l.078,1.348A2.75,2.75,0,0,1,155.8,9.171,4.313,4.313,0,0,1,157.686,8.766Zm-.635,8.135a2.527,2.527,0,0,0,1.9-.786A2.92,2.92,0,0,0,159.707,14a2.92,2.92,0,0,0-.757-2.114,2.688,2.688,0,0,0-3.813.015,2.921,2.921,0,0,0-.762,2.1,2.921,2.921,0,0,0,.762,2.1A2.531,2.531,0,0,0,157.051,16.9ZM169.316,19.2a6.313,6.313,0,0,1-2.842-.615,4.6,4.6,0,0,1-1.948-1.807,5.384,5.384,0,0,1-.708-2.8,4.911,4.911,0,0,1,1.523-3.809,6.368,6.368,0,0,1,7.959,0,4.911,4.911,0,0,1,1.523,3.809,4.938,4.938,0,0,1-1.523,3.823A5.654,5.654,0,0,1,169.316,19.2Zm-.029-2.236a2.577,2.577,0,0,0,1.987-.82,3.071,3.071,0,0,0,.757-2.168,3.071,3.071,0,0,0-.757-2.168,2.577,2.577,0,0,0-1.987-.82,2.483,2.483,0,0,0-1.929.825,3.1,3.1,0,0,0-.747,2.163,3.1,3.1,0,0,0,.747,2.163A2.483,2.483,0,0,0,169.287,16.959Zm13.555-8.193a3.914,3.914,0,0,1,2.773.9,3.349,3.349,0,0,1,.967,2.573V19H183.76V12.848a1.749,1.749,0,0,0-.5-1.387,1.9,1.9,0,0,0-1.294-.439,2.643,2.643,0,0,0-.84.127,2.158,2.158,0,0,0-.7.4,1.748,1.748,0,0,0-.5.757,3.5,3.5,0,0,0-.19,1.162V19h-2.812V8.961h2.813v1.113A3.868,3.868,0,0,1,182.842,8.766Zm10,10.43a5.61,5.61,0,0,1-2.93-.7,2.972,2.972,0,0,1-1.436-2.09l2.354-.664a1.891,1.891,0,0,0,2.012,1.494A2.078,2.078,0,0,0,193.867,17a.8.8,0,0,0,.4-.776.821.821,0,0,0-.166-.518,1.315,1.315,0,0,0-.513-.371,6.388,6.388,0,0,0-.684-.264q-.337-.107-.894-.259t-.928-.288a6.215,6.215,0,0,1-.884-.376,3.769,3.769,0,0,1-.732-.518,2.086,2.086,0,0,1-.547-.786,2.836,2.836,0,0,1-.19-1.074,2.565,2.565,0,0,1,1.089-2.246,4.865,4.865,0,0,1,2.847-.762,4.988,4.988,0,0,1,2.627.645,2.917,2.917,0,0,1,1.348,2.012l-2.178.488a1.706,1.706,0,0,0-1.787-1.27,1.957,1.957,0,0,0-.986.225.722.722,0,0,0-.391.664.761.761,0,0,0,.059.3.6.6,0,0,0,.205.244,2.992,2.992,0,0,0,.283.186,2.136,2.136,0,0,0,.4.161q.264.083.439.127l.513.132.522.137q.537.146.942.293a5.519,5.519,0,0,1,.864.41,3.1,3.1,0,0,1,.757.591,2.635,2.635,0,0,1,.493.83,3.066,3.066,0,0,1,.2,1.118,3.02,3.02,0,0,1-.337,1.455,2.529,2.529,0,0,1-.923.981,4.492,4.492,0,0,1-1.3.527A6.763,6.763,0,0,1,192.842,19.2Zm14.385-2.92a9.391,9.391,0,0,0,.244,2.451V19h-2.627l-.225-1.094a3.264,3.264,0,0,1-1.406.967,5.183,5.183,0,0,1-1.816.322,4.776,4.776,0,0,1-.937-.088,3.187,3.187,0,0,1-.845-.3,2.563,2.563,0,0,1-.7-.522,2.291,2.291,0,0,1-.469-.8,3.17,3.17,0,0,1-.176-1.089,3.019,3.019,0,0,1,.186-1.089,2.552,2.552,0,0,1,.488-.815,2.962,2.962,0,0,1,.791-.6,6.052,6.052,0,0,1,1-.43,11.9,11.9,0,0,1,1.191-.312l1.65-.371a1.82,1.82,0,0,0,.747-.317.633.633,0,0,0,.22-.5,1.036,1.036,0,0,0-.493-.967,2.3,2.3,0,0,0-1.2-.293,1.721,1.721,0,0,0-1.963,1.533l-2.49-.449a3.371,3.371,0,0,1,1.455-2.29,5.783,5.783,0,0,1,3.154-.737q4.219,0,4.219,3.623Zm-4.951,1.016a2.262,2.262,0,0,0,1.738-.728,3.066,3.066,0,0,0,.674-2.153l-2.383.674a2.816,2.816,0,0,0-1,.41.842.842,0,0,0-.347.723.935.935,0,0,0,.371.8A1.536,1.536,0,0,0,202.275,17.291Zm13.584-8.525a4.857,4.857,0,0,1,1.865.361A4.516,4.516,0,0,1,220.3,11.8a6.106,6.106,0,0,1,.381,2.2,6.106,6.106,0,0,1-.381,2.2,4.516,4.516,0,0,1-2.578,2.676,4.857,4.857,0,0,1-1.865.361,4.336,4.336,0,0,1-1.9-.405,2.808,2.808,0,0,1-1.265-1.138L212.627,19h-2.666V4h2.813v6.182a2.8,2.8,0,0,1,1.255-1.045A4.414,4.414,0,0,1,215.859,8.766Zm-.654,8.135a2.53,2.53,0,0,0,1.909-.791A2.924,2.924,0,0,0,217.871,14a2.937,2.937,0,0,0-.757-2.119,2.53,2.53,0,0,0-1.909-.791,2.5,2.5,0,0,0-1.895.806,2.938,2.938,0,0,0-.762,2.1,2.932,2.932,0,0,0,.757,2.1A2.5,2.5,0,0,0,215.205,16.9Zm9.033-9.443a1.579,1.579,0,0,1-1.152-.474,1.555,1.555,0,0,1-.479-1.147,1.536,1.536,0,0,1,.483-1.138,1.584,1.584,0,0,1,1.147-.474,1.626,1.626,0,0,1,1.611,1.611,1.626,1.626,0,0,1-1.611,1.621ZM222.8,19V8.961h2.832V19Zm5.742,0V4h2.842V19Zm7.188-11.543a1.579,1.579,0,0,1-1.152-.474,1.555,1.555,0,0,1-.479-1.147,1.536,1.536,0,0,1,.483-1.138,1.584,1.584,0,0,1,1.147-.474,1.626,1.626,0,0,1,1.611,1.611,1.626,1.626,0,0,1-1.611,1.621ZM234.3,19V8.961h2.832V19ZM247.158,4h2.813V19H247.3l-.068-1.309a2.867,2.867,0,0,1-1.274,1.138,4.29,4.29,0,0,1-1.88.405,4.883,4.883,0,0,1-1.875-.361,4.516,4.516,0,0,1-2.578-2.676,6.106,6.106,0,0,1-.381-2.2,5.708,5.708,0,0,1,.664-2.8,4.55,4.55,0,0,1,1.753-1.821,4.827,4.827,0,0,1,2.417-.615,4.4,4.4,0,0,1,1.821.366,2.843,2.843,0,0,1,1.255,1.04Zm-2.432,12.9a2.5,2.5,0,0,0,1.9-.8,2.932,2.932,0,0,0,.757-2.1,2.938,2.938,0,0,0-.762-2.1,2.5,2.5,0,0,0-1.895-.806,2.53,2.53,0,0,0-1.909.791A2.937,2.937,0,0,0,242.061,14a2.924,2.924,0,0,0,.757,2.109A2.53,2.53,0,0,0,244.727,16.9Zm16.387-.625a9.392,9.392,0,0,0,.244,2.451V19H258.73l-.225-1.094a3.264,3.264,0,0,1-1.406.967,5.183,5.183,0,0,1-1.816.322,4.776,4.776,0,0,1-.937-.088,3.187,3.187,0,0,1-.845-.3,2.563,2.563,0,0,1-.7-.522,2.291,2.291,0,0,1-.469-.8,3.17,3.17,0,0,1-.176-1.089,3.019,3.019,0,0,1,.186-1.089,2.552,2.552,0,0,1,.488-.815,2.962,2.962,0,0,1,.791-.6,6.052,6.052,0,0,1,1-.43,11.9,11.9,0,0,1,1.191-.312l1.65-.371a1.82,1.82,0,0,0,.747-.317.633.633,0,0,0,.22-.5,1.036,1.036,0,0,0-.493-.967,2.3,2.3,0,0,0-1.2-.293,1.721,1.721,0,0,0-1.963,1.533l-2.49-.449A3.371,3.371,0,0,1,253.74,9.5a5.783,5.783,0,0,1,3.154-.737q4.219,0,4.219,3.623Zm-4.951,1.016a2.262,2.262,0,0,0,1.738-.728,3.066,3.066,0,0,0,.674-2.153l-2.383.674a2.816,2.816,0,0,0-1,.41.842.842,0,0,0-.347.723.935.935,0,0,0,.371.8A1.536,1.536,0,0,0,256.162,17.291ZM270.742,4h2.813V19h-2.666l-.068-1.309a2.867,2.867,0,0,1-1.274,1.138,4.29,4.29,0,0,1-1.88.405,4.883,4.883,0,0,1-1.875-.361,4.516,4.516,0,0,1-2.578-2.676,6.106,6.106,0,0,1-.381-2.2,5.707,5.707,0,0,1,.664-2.8,4.55,4.55,0,0,1,1.753-1.821,4.827,4.827,0,0,1,2.417-.615,4.4,4.4,0,0,1,1.821.366,2.843,2.843,0,0,1,1.255,1.04Zm-2.432,12.9a2.5,2.5,0,0,0,1.9-.8,2.932,2.932,0,0,0,.757-2.1,2.938,2.938,0,0,0-.762-2.1,2.5,2.5,0,0,0-1.895-.806,2.53,2.53,0,0,0-1.909.791A2.937,2.937,0,0,0,265.645,14a2.924,2.924,0,0,0,.757,2.109A2.53,2.53,0,0,0,268.311,16.9ZM285.2,19.2a5.61,5.61,0,0,1-2.93-.7,2.972,2.972,0,0,1-1.436-2.09l2.354-.664a1.891,1.891,0,0,0,2.012,1.494A2.078,2.078,0,0,0,286.221,17a.8.8,0,0,0,.4-.776.821.821,0,0,0-.166-.518,1.315,1.315,0,0,0-.513-.371,6.386,6.386,0,0,0-.684-.264q-.337-.107-.894-.259t-.928-.288a6.215,6.215,0,0,1-.884-.376,3.77,3.77,0,0,1-.732-.518,2.086,2.086,0,0,1-.547-.786,2.836,2.836,0,0,1-.19-1.074,2.565,2.565,0,0,1,1.089-2.246,4.865,4.865,0,0,1,2.847-.762,4.988,4.988,0,0,1,2.627.645,2.917,2.917,0,0,1,1.348,2.012l-2.178.488a1.706,1.706,0,0,0-1.787-1.27,1.957,1.957,0,0,0-.986.225.722.722,0,0,0-.391.664.761.761,0,0,0,.059.3.6.6,0,0,0,.205.244,2.99,2.99,0,0,0,.283.186,2.137,2.137,0,0,0,.4.161q.264.083.439.127l.513.132.522.137q.537.146.942.293a5.52,5.52,0,0,1,.864.41,3.1,3.1,0,0,1,.757.591,2.635,2.635,0,0,1,.493.83,3.066,3.066,0,0,1,.2,1.118,3.02,3.02,0,0,1-.337,1.455,2.529,2.529,0,0,1-.923.981,4.492,4.492,0,0,1-1.3.527A6.763,6.763,0,0,1,285.2,19.2Zm10.83,0a6.313,6.313,0,0,1-2.842-.615,4.6,4.6,0,0,1-1.948-1.807,5.384,5.384,0,0,1-.708-2.8,4.911,4.911,0,0,1,1.523-3.809,6.368,6.368,0,0,1,7.959,0,4.911,4.911,0,0,1,1.523,3.809,4.938,4.938,0,0,1-1.523,3.823A5.654,5.654,0,0,1,296.025,19.2ZM296,16.959a2.577,2.577,0,0,0,1.987-.82,3.071,3.071,0,0,0,.757-2.168,3.071,3.071,0,0,0-.757-2.168,2.577,2.577,0,0,0-1.987-.82,2.483,2.483,0,0,0-1.929.825,3.1,3.1,0,0,0-.747,2.163,3.1,3.1,0,0,0,.747,2.163A2.483,2.483,0,0,0,296,16.959Zm12.168,2.227a5.364,5.364,0,0,1-3.877-1.445,4.992,4.992,0,0,1-1.5-3.77,4.981,4.981,0,0,1,1.5-3.77,5.96,5.96,0,0,1,7.134-.469,4.316,4.316,0,0,1,1.68,2.725l-2.6.283a2.226,2.226,0,0,0-.84-1.318,2.554,2.554,0,0,0-1.523-.439,2.3,2.3,0,0,0-1.836.82,3.216,3.216,0,0,0-.7,2.168,3.22,3.22,0,0,0,.7,2.163,2.3,2.3,0,0,0,1.836.825,2.531,2.531,0,0,0,1.519-.439A2.277,2.277,0,0,0,310.5,15.2l2.6.283a4.328,4.328,0,0,1-1.694,2.725A5.327,5.327,0,0,1,308.164,19.186Zm8.369-11.729a1.579,1.579,0,0,1-1.152-.474,1.555,1.555,0,0,1-.479-1.147,1.536,1.536,0,0,1,.483-1.138,1.584,1.584,0,0,1,1.147-.474,1.626,1.626,0,0,1,1.611,1.611,1.626,1.626,0,0,1-1.611,1.621ZM315.1,19V8.961h2.832V19Zm13.975-2.725a9.392,9.392,0,0,0,.244,2.451V19h-2.627l-.225-1.094a3.264,3.264,0,0,1-1.406.967,5.183,5.183,0,0,1-1.816.322,4.776,4.776,0,0,1-.937-.088,3.187,3.187,0,0,1-.845-.3,2.564,2.564,0,0,1-.7-.522,2.291,2.291,0,0,1-.469-.8,3.17,3.17,0,0,1-.176-1.089,3.02,3.02,0,0,1,.186-1.089,2.552,2.552,0,0,1,.488-.815,2.961,2.961,0,0,1,.791-.6,6.053,6.053,0,0,1,1-.43,11.9,11.9,0,0,1,1.191-.312l1.65-.371a1.82,1.82,0,0,0,.747-.317.633.633,0,0,0,.22-.5,1.036,1.036,0,0,0-.493-.967,2.3,2.3,0,0,0-1.2-.293,1.721,1.721,0,0,0-1.963,1.533l-2.49-.449A3.371,3.371,0,0,1,321.7,9.5a5.783,5.783,0,0,1,3.154-.737q4.219,0,4.219,3.623Zm-4.951,1.016a2.262,2.262,0,0,0,1.738-.728,3.066,3.066,0,0,0,.674-2.153l-2.383.674a2.816,2.816,0,0,0-1,.41.842.842,0,0,0-.347.723.935.935,0,0,0,.371.8A1.536,1.536,0,0,0,324.121,17.291ZM331.807,19V4h2.842V19Z" transform="translate(1224 5663.5)" fill="#002b45"/>
    <path id="Trazado_20130" data-name="Trazado 20130" d="M83.643,19.2a7.671,7.671,0,0,1-3.706-.884,6.407,6.407,0,0,1-2.573-2.544,7.651,7.651,0,0,1-.937-3.828,7.644,7.644,0,0,1,.938-3.833,6.383,6.383,0,0,1,2.573-2.534,8.243,8.243,0,0,1,7.407,0,6.391,6.391,0,0,1,2.568,2.534,7.644,7.644,0,0,1,.938,3.833,7.651,7.651,0,0,1-.937,3.828,6.407,6.407,0,0,1-2.573,2.544A7.65,7.65,0,0,1,83.643,19.2Zm-3.086-3.921a4.472,4.472,0,0,0,6.172,0,4.558,4.558,0,0,0,1.211-3.335,4.528,4.528,0,0,0-1.211-3.32,4.485,4.485,0,0,0-6.172,0,4.528,4.528,0,0,0-1.211,3.32A4.558,4.558,0,0,0,80.557,15.274ZM99.072,8.766a4.857,4.857,0,0,1,1.865.361,4.516,4.516,0,0,1,2.578,2.676A6.106,6.106,0,0,1,103.9,14a6.106,6.106,0,0,1-.381,2.2,4.516,4.516,0,0,1-2.578,2.676,4.857,4.857,0,0,1-1.865.361,4.336,4.336,0,0,1-1.9-.405,2.808,2.808,0,0,1-1.265-1.138L95.84,19H93.174V4h2.813v6.182a2.8,2.8,0,0,1,1.255-1.045A4.414,4.414,0,0,1,99.072,8.766ZM98.418,16.9a2.53,2.53,0,0,0,1.909-.791A2.924,2.924,0,0,0,101.084,14a2.937,2.937,0,0,0-.757-2.119,2.53,2.53,0,0,0-1.909-.791,2.5,2.5,0,0,0-1.895.806,2.938,2.938,0,0,0-.762,2.1,2.932,2.932,0,0,0,.757,2.1A2.5,2.5,0,0,0,98.418,16.9Zm9.043-9.443a1.579,1.579,0,0,1-1.152-.474,1.555,1.555,0,0,1-.479-1.147,1.536,1.536,0,0,1,.483-1.138,1.584,1.584,0,0,1,1.147-.474,1.626,1.626,0,0,1,1.611,1.611,1.626,1.626,0,0,1-1.611,1.621Zm-3.5,16.25v-2.2a3.235,3.235,0,0,0,1.055-.142,1.179,1.179,0,0,0,.625-.5,2.227,2.227,0,0,0,.3-.864,9.745,9.745,0,0,0,.073-1.343v-9.7h2.852v9.7a5.453,5.453,0,0,1-1.143,3.838A4.986,4.986,0,0,1,103.965,23.707Zm17.266-9.873-.029.674H113.76a2.6,2.6,0,0,0,.8,1.836,2.561,2.561,0,0,0,1.768.635,2.468,2.468,0,0,0,1.323-.347,2.131,2.131,0,0,0,.845-1.011l2.578.381a4.383,4.383,0,0,1-1.758,2.354,5.226,5.226,0,0,1-2.969.84,5.435,5.435,0,0,1-3.911-1.382,5.042,5.042,0,0,1-1.45-3.833,5.072,5.072,0,0,1,1.455-3.833,5.273,5.273,0,0,1,3.818-1.4,5.04,5.04,0,0,1,3.6,1.279A5.019,5.019,0,0,1,121.23,13.834Zm-4.951-3.1a2.222,2.222,0,0,0-2.441,1.934h4.609a2.114,2.114,0,0,0-.693-1.436A2.2,2.2,0,0,0,116.279,10.738ZM127.109,19a3.032,3.032,0,0,1-2.266-.815,3.172,3.172,0,0,1-.8-2.319V11.119H122.07V8.961h.635a1.656,1.656,0,0,0,1.25-.42,2.162,2.162,0,0,0,.4-1.494V5.719h2.539V8.961h2.07v2.158h-2.07v4.443q0,1.3,1.162,1.3h.908V19Zm5.469-11.543a1.579,1.579,0,0,1-1.152-.474,1.555,1.555,0,0,1-.479-1.147,1.536,1.536,0,0,1,.483-1.138,1.584,1.584,0,0,1,1.147-.474,1.626,1.626,0,0,1,1.611,1.611,1.626,1.626,0,0,1-1.611,1.621ZM131.143,19V8.961h2.832V19ZM143.418,8.961H146.4L142.119,19h-2.441L135.449,8.961h2.959l2.5,6.865Zm8.73,10.234a6.313,6.313,0,0,1-2.842-.615,4.6,4.6,0,0,1-1.948-1.807,5.384,5.384,0,0,1-.708-2.8,4.911,4.911,0,0,1,1.523-3.809,6.368,6.368,0,0,1,7.959,0,4.911,4.911,0,0,1,1.523,3.809,4.938,4.938,0,0,1-1.523,3.823A5.654,5.654,0,0,1,152.148,19.2Zm-.029-2.236a2.577,2.577,0,0,0,1.987-.82,3.071,3.071,0,0,0,.757-2.168,3.071,3.071,0,0,0-.757-2.168,2.577,2.577,0,0,0-1.987-.82,2.483,2.483,0,0,0-1.929.825,3.1,3.1,0,0,0-.747,2.163,3.1,3.1,0,0,0,.747,2.163A2.483,2.483,0,0,0,152.119,16.959ZM163.281,19.2a5.61,5.61,0,0,1-2.93-.7,2.972,2.972,0,0,1-1.436-2.09l2.354-.664a1.891,1.891,0,0,0,2.012,1.494A2.078,2.078,0,0,0,164.307,17a.8.8,0,0,0,.4-.776.821.821,0,0,0-.166-.518,1.315,1.315,0,0,0-.513-.371,6.388,6.388,0,0,0-.684-.264q-.337-.107-.894-.259t-.928-.288a6.215,6.215,0,0,1-.884-.376,3.769,3.769,0,0,1-.732-.518,2.086,2.086,0,0,1-.547-.786,2.836,2.836,0,0,1-.19-1.074,2.565,2.565,0,0,1,1.089-2.246,4.865,4.865,0,0,1,2.847-.762,4.988,4.988,0,0,1,2.627.645,2.917,2.917,0,0,1,1.348,2.012l-2.178.488a1.706,1.706,0,0,0-1.787-1.27,1.957,1.957,0,0,0-.986.225.722.722,0,0,0-.391.664.761.761,0,0,0,.059.3.6.6,0,0,0,.205.244,2.992,2.992,0,0,0,.283.186,2.136,2.136,0,0,0,.4.161q.264.083.439.127l.513.132.522.137q.537.146.942.293a5.519,5.519,0,0,1,.864.41,3.1,3.1,0,0,1,.757.591,2.635,2.635,0,0,1,.493.83,3.066,3.066,0,0,1,.2,1.118,3.02,3.02,0,0,1-.337,1.455,2.529,2.529,0,0,1-.923.981,4.492,4.492,0,0,1-1.3.527A6.763,6.763,0,0,1,163.281,19.2Zm17.236-10.43a4.883,4.883,0,0,1,1.875.361,4.692,4.692,0,0,1,1.538,1.016,4.6,4.6,0,0,1,1.04,1.655,6.146,6.146,0,0,1,.381,2.2,6.146,6.146,0,0,1-.381,2.2,4.6,4.6,0,0,1-1.04,1.655,4.692,4.692,0,0,1-1.538,1.016,4.883,4.883,0,0,1-1.875.361,4.356,4.356,0,0,1-1.816-.371,2.846,2.846,0,0,1-1.26-1.055v6.074h-2.812V8.961h2.666l.078,1.348a2.75,2.75,0,0,1,1.255-1.138A4.313,4.313,0,0,1,180.518,8.766Zm-.635,8.135a2.527,2.527,0,0,0,1.9-.786A2.92,2.92,0,0,0,182.539,14a2.92,2.92,0,0,0-.757-2.114,2.688,2.688,0,0,0-3.813.015,2.921,2.921,0,0,0-.762,2.1,2.921,2.921,0,0,0,.762,2.1A2.531,2.531,0,0,0,179.883,16.9Zm10.283-6.348a3.259,3.259,0,0,1,1.318-1.206,4.023,4.023,0,0,1,1.963-.5v2.51a3.8,3.8,0,0,0-2.4.605,2.643,2.643,0,0,0-.742,2.148V19h-2.832V8.961h2.7Zm9.551,8.643a6.313,6.313,0,0,1-2.842-.615,4.6,4.6,0,0,1-1.948-1.807,5.384,5.384,0,0,1-.708-2.8,4.911,4.911,0,0,1,1.523-3.809,6.368,6.368,0,0,1,7.959,0,4.911,4.911,0,0,1,1.523,3.809,4.938,4.938,0,0,1-1.523,3.823A5.654,5.654,0,0,1,199.717,19.2Zm-.029-2.236a2.577,2.577,0,0,0,1.987-.82,3.071,3.071,0,0,0,.757-2.168,3.071,3.071,0,0,0-.757-2.168,2.577,2.577,0,0,0-1.987-.82,2.483,2.483,0,0,0-1.929.825,3.1,3.1,0,0,0-.747,2.163,3.1,3.1,0,0,0,.747,2.163A2.483,2.483,0,0,0,199.688,16.959ZM214.434,4h2.813V19H214.58l-.068-1.309a2.867,2.867,0,0,1-1.274,1.138,4.29,4.29,0,0,1-1.88.405,4.883,4.883,0,0,1-1.875-.361A4.516,4.516,0,0,1,206.9,16.2a6.106,6.106,0,0,1-.381-2.2,5.708,5.708,0,0,1,.664-2.8,4.55,4.55,0,0,1,1.753-1.821,4.827,4.827,0,0,1,2.417-.615,4.4,4.4,0,0,1,1.821.366,2.843,2.843,0,0,1,1.255,1.04ZM212,16.9a2.5,2.5,0,0,0,1.9-.8,2.932,2.932,0,0,0,.757-2.1,2.938,2.938,0,0,0-.762-2.1A2.5,2.5,0,0,0,212,11.09a2.53,2.53,0,0,0-1.909.791A2.937,2.937,0,0,0,209.336,14a2.924,2.924,0,0,0,.757,2.109A2.53,2.53,0,0,0,212,16.9Zm14.8-7.939h2.813V19h-2.666l-.068-1.211a3.834,3.834,0,0,1-3.193,1.406,3.914,3.914,0,0,1-2.773-.9,3.349,3.349,0,0,1-.967-2.573V8.961h2.822v6.152a1.735,1.735,0,0,0,.5,1.377,1.909,1.909,0,0,0,1.3.439,2.264,2.264,0,0,0,1.6-.571,2.454,2.454,0,0,0,.63-1.86ZM237.07,19.186a5.364,5.364,0,0,1-3.877-1.445,4.992,4.992,0,0,1-1.5-3.77,4.981,4.981,0,0,1,1.5-3.77,5.96,5.96,0,0,1,7.134-.469A4.316,4.316,0,0,1,242,12.457l-2.6.283a2.225,2.225,0,0,0-.84-1.318,2.554,2.554,0,0,0-1.523-.439,2.3,2.3,0,0,0-1.836.82,3.216,3.216,0,0,0-.7,2.168,3.22,3.22,0,0,0,.7,2.163,2.3,2.3,0,0,0,1.836.825,2.532,2.532,0,0,0,1.519-.439A2.277,2.277,0,0,0,239.4,15.2l2.6.283a4.328,4.328,0,0,1-1.694,2.725A5.327,5.327,0,0,1,237.07,19.186Zm11.475,0a5.364,5.364,0,0,1-3.877-1.445,4.992,4.992,0,0,1-1.5-3.77,4.981,4.981,0,0,1,1.5-3.77,5.96,5.96,0,0,1,7.134-.469,4.316,4.316,0,0,1,1.68,2.725l-2.6.283a2.225,2.225,0,0,0-.84-1.318,2.554,2.554,0,0,0-1.523-.439,2.3,2.3,0,0,0-1.836.82,3.216,3.216,0,0,0-.7,2.168,3.22,3.22,0,0,0,.7,2.163,2.3,2.3,0,0,0,1.836.825,2.532,2.532,0,0,0,1.519-.439,2.277,2.277,0,0,0,.845-1.318l2.6.283a4.328,4.328,0,0,1-1.694,2.725A5.327,5.327,0,0,1,248.545,19.186Zm8.369-11.729a1.579,1.579,0,0,1-1.152-.474,1.555,1.555,0,0,1-.479-1.147,1.536,1.536,0,0,1,.483-1.138,1.584,1.584,0,0,1,1.147-.474,1.626,1.626,0,0,1,1.611,1.611,1.626,1.626,0,0,1-1.611,1.621ZM255.479,19V8.961h2.832V19Zm9.551-11.406L267.588,4l1.387.977-2.217,2.617Zm.869,11.6a6.313,6.313,0,0,1-2.842-.615,4.6,4.6,0,0,1-1.948-1.807,5.384,5.384,0,0,1-.708-2.8,4.911,4.911,0,0,1,1.523-3.809,6.368,6.368,0,0,1,7.959,0,4.911,4.911,0,0,1,1.523,3.809,4.938,4.938,0,0,1-1.523,3.823A5.654,5.654,0,0,1,265.9,19.2Zm-.029-2.236a2.577,2.577,0,0,0,1.987-.82,3.071,3.071,0,0,0,.757-2.168,3.071,3.071,0,0,0-.757-2.168,2.577,2.577,0,0,0-1.987-.82,2.483,2.483,0,0,0-1.929.825,3.1,3.1,0,0,0-.747,2.163,3.1,3.1,0,0,0,.747,2.163A2.483,2.483,0,0,0,265.869,16.959Zm13.555-8.193a3.914,3.914,0,0,1,2.773.9,3.349,3.349,0,0,1,.967,2.573V19h-2.822V12.848a1.749,1.749,0,0,0-.5-1.387,1.9,1.9,0,0,0-1.294-.439,2.643,2.643,0,0,0-.84.127,2.158,2.158,0,0,0-.7.4,1.748,1.748,0,0,0-.5.757,3.5,3.5,0,0,0-.19,1.162V19H273.5V8.961h2.813v1.113A3.868,3.868,0,0,1,279.424,8.766Z" transform="translate(1224 5793.5)" fill="#002b45"/>
    <path id="Trazado_20131" data-name="Trazado 20131" d="M76.313,19.2a7.671,7.671,0,0,1-3.706-.884,6.407,6.407,0,0,1-2.573-2.544,7.651,7.651,0,0,1-.937-3.828,7.644,7.644,0,0,1,.938-3.833,6.383,6.383,0,0,1,2.573-2.534,8.243,8.243,0,0,1,7.407,0,6.391,6.391,0,0,1,2.568,2.534,7.644,7.644,0,0,1,.938,3.833,7.651,7.651,0,0,1-.937,3.828,6.407,6.407,0,0,1-2.573,2.544A7.65,7.65,0,0,1,76.313,19.2Zm-3.086-3.921a4.472,4.472,0,0,0,6.172,0,4.558,4.558,0,0,0,1.211-3.335A4.528,4.528,0,0,0,79.4,8.619a4.485,4.485,0,0,0-6.172,0,4.528,4.528,0,0,0-1.211,3.32A4.558,4.558,0,0,0,73.228,15.274ZM91.743,8.766a4.857,4.857,0,0,1,1.865.361A4.516,4.516,0,0,1,96.187,11.8a6.106,6.106,0,0,1,.381,2.2,6.106,6.106,0,0,1-.381,2.2,4.516,4.516,0,0,1-2.578,2.676,4.857,4.857,0,0,1-1.865.361,4.336,4.336,0,0,1-1.9-.405,2.808,2.808,0,0,1-1.265-1.138L88.511,19H85.845V4h2.813v6.182a2.8,2.8,0,0,1,1.255-1.045A4.414,4.414,0,0,1,91.743,8.766ZM91.089,16.9A2.53,2.53,0,0,0,93,16.109,2.924,2.924,0,0,0,93.755,14,2.937,2.937,0,0,0,93,11.881a2.53,2.53,0,0,0-1.909-.791,2.5,2.5,0,0,0-1.895.806,2.938,2.938,0,0,0-.762,2.1,2.932,2.932,0,0,0,.757,2.1A2.5,2.5,0,0,0,91.089,16.9Zm9.043-9.443a1.579,1.579,0,0,1-1.152-.474A1.555,1.555,0,0,1,98.5,5.836,1.536,1.536,0,0,1,98.984,4.7a1.584,1.584,0,0,1,1.147-.474,1.626,1.626,0,0,1,1.611,1.611,1.626,1.626,0,0,1-1.611,1.621Zm-3.5,16.25v-2.2a3.235,3.235,0,0,0,1.055-.142,1.179,1.179,0,0,0,.625-.5,2.227,2.227,0,0,0,.3-.864,9.745,9.745,0,0,0,.073-1.343v-9.7h2.852v9.7A5.453,5.453,0,0,1,100.4,22.5,4.986,4.986,0,0,1,96.636,23.707ZM113.9,13.834l-.029.674h-7.441a2.6,2.6,0,0,0,.8,1.836,2.561,2.561,0,0,0,1.768.635,2.468,2.468,0,0,0,1.323-.347,2.131,2.131,0,0,0,.845-1.011l2.578.381a4.383,4.383,0,0,1-1.758,2.354,5.226,5.226,0,0,1-2.969.84,5.435,5.435,0,0,1-3.911-1.382,5.042,5.042,0,0,1-1.45-3.833,5.072,5.072,0,0,1,1.455-3.833,5.273,5.273,0,0,1,3.818-1.4,5.04,5.04,0,0,1,3.6,1.279A5.019,5.019,0,0,1,113.9,13.834Zm-4.951-3.1a2.222,2.222,0,0,0-2.441,1.934h4.609a2.114,2.114,0,0,0-.693-1.436A2.2,2.2,0,0,0,108.95,10.738ZM119.78,19a3.032,3.032,0,0,1-2.266-.815,3.172,3.172,0,0,1-.8-2.319V11.119h-1.973V8.961h.635a1.656,1.656,0,0,0,1.25-.42,2.162,2.162,0,0,0,.4-1.494V5.719h2.539V8.961h2.07v2.158h-2.07v4.443q0,1.3,1.162,1.3h.908V19Zm5.469-11.543a1.579,1.579,0,0,1-1.152-.474,1.555,1.555,0,0,1-.479-1.147A1.536,1.536,0,0,1,124.1,4.7a1.584,1.584,0,0,1,1.147-.474,1.626,1.626,0,0,1,1.611,1.611,1.626,1.626,0,0,1-1.611,1.621ZM123.813,19V8.961h2.832V19ZM136.089,8.961h2.979L134.79,19h-2.441L128.12,8.961h2.959l2.5,6.865Zm8.73,10.234a6.313,6.313,0,0,1-2.842-.615,4.6,4.6,0,0,1-1.948-1.807,5.384,5.384,0,0,1-.708-2.8,4.911,4.911,0,0,1,1.523-3.809,6.368,6.368,0,0,1,7.959,0,4.911,4.911,0,0,1,1.523,3.809,4.938,4.938,0,0,1-1.523,3.823A5.654,5.654,0,0,1,144.819,19.2Zm-.029-2.236a2.577,2.577,0,0,0,1.987-.82,3.071,3.071,0,0,0,.757-2.168,3.071,3.071,0,0,0-.757-2.168,2.577,2.577,0,0,0-1.987-.82,2.483,2.483,0,0,0-1.929.825,3.1,3.1,0,0,0-.747,2.163,3.1,3.1,0,0,0,.747,2.163A2.483,2.483,0,0,0,144.79,16.959ZM155.952,19.2a5.61,5.61,0,0,1-2.93-.7,2.972,2.972,0,0,1-1.436-2.09l2.354-.664a1.891,1.891,0,0,0,2.012,1.494A2.078,2.078,0,0,0,156.978,17a.8.8,0,0,0,.4-.776.821.821,0,0,0-.166-.518,1.315,1.315,0,0,0-.513-.371,6.388,6.388,0,0,0-.684-.264q-.337-.107-.894-.259t-.928-.288a6.215,6.215,0,0,1-.884-.376,3.769,3.769,0,0,1-.732-.518,2.086,2.086,0,0,1-.547-.786,2.836,2.836,0,0,1-.19-1.074,2.565,2.565,0,0,1,1.089-2.246,4.865,4.865,0,0,1,2.847-.762,4.988,4.988,0,0,1,2.627.645,2.917,2.917,0,0,1,1.348,2.012l-2.178.488a1.706,1.706,0,0,0-1.787-1.27,1.957,1.957,0,0,0-.986.225.722.722,0,0,0-.391.664.761.761,0,0,0,.059.3.6.6,0,0,0,.205.244,2.992,2.992,0,0,0,.283.186,2.136,2.136,0,0,0,.4.161q.264.083.439.127l.513.132.522.137q.537.146.942.293a5.519,5.519,0,0,1,.864.41,3.1,3.1,0,0,1,.757.591,2.635,2.635,0,0,1,.493.83,3.066,3.066,0,0,1,.2,1.118,3.02,3.02,0,0,1-.337,1.455,2.529,2.529,0,0,1-.923.981,4.492,4.492,0,0,1-1.3.527A6.763,6.763,0,0,1,155.952,19.2Zm15.889-.01a5.364,5.364,0,0,1-3.877-1.445,4.992,4.992,0,0,1-1.5-3.77,4.981,4.981,0,0,1,1.5-3.77,5.96,5.96,0,0,1,7.134-.469,4.316,4.316,0,0,1,1.68,2.725l-2.6.283a2.225,2.225,0,0,0-.84-1.318,2.554,2.554,0,0,0-1.523-.439,2.3,2.3,0,0,0-1.836.82,3.216,3.216,0,0,0-.7,2.168,3.22,3.22,0,0,0,.7,2.163,2.3,2.3,0,0,0,1.836.825,2.532,2.532,0,0,0,1.519-.439,2.277,2.277,0,0,0,.845-1.318l2.6.283a4.328,4.328,0,0,1-1.694,2.725A5.327,5.327,0,0,1,171.841,19.186Zm11.611.01a6.313,6.313,0,0,1-2.842-.615,4.6,4.6,0,0,1-1.948-1.807,5.384,5.384,0,0,1-.708-2.8,4.911,4.911,0,0,1,1.523-3.809,6.368,6.368,0,0,1,7.959,0,4.911,4.911,0,0,1,1.523,3.809,4.938,4.938,0,0,1-1.523,3.823A5.654,5.654,0,0,1,183.452,19.2Zm-.029-2.236a2.577,2.577,0,0,0,1.987-.82,3.071,3.071,0,0,0,.757-2.168,3.071,3.071,0,0,0-.757-2.168,2.577,2.577,0,0,0-1.987-.82,2.483,2.483,0,0,0-1.929.825,3.1,3.1,0,0,0-.747,2.163,3.1,3.1,0,0,0,.747,2.163A2.483,2.483,0,0,0,183.423,16.959Zm19.521-8.193a3.836,3.836,0,0,1,2.588.815,2.918,2.918,0,0,1,.947,2.339V19h-2.812V12.721a1.677,1.677,0,0,0-.449-1.27,1.573,1.573,0,0,0-1.133-.43,1.814,1.814,0,0,0-1.367.547,2.484,2.484,0,0,0-.527,1.768V19h-2.842V12.75a1.721,1.721,0,0,0-.449-1.294,1.6,1.6,0,0,0-1.162-.435,1.757,1.757,0,0,0-1.357.576,2.751,2.751,0,0,0-.527,1.885V19h-2.8V8.961h2.8v1.182a3.414,3.414,0,0,1,2.91-1.377,4.293,4.293,0,0,1,1.89.386,2.572,2.572,0,0,1,1.187,1.118A3.55,3.55,0,0,1,202.944,8.766Zm12.158,0a4.883,4.883,0,0,1,1.875.361,4.692,4.692,0,0,1,1.538,1.016,4.6,4.6,0,0,1,1.04,1.655,6.146,6.146,0,0,1,.381,2.2,6.146,6.146,0,0,1-.381,2.2,4.6,4.6,0,0,1-1.04,1.655,4.692,4.692,0,0,1-1.538,1.016,4.883,4.883,0,0,1-1.875.361,4.356,4.356,0,0,1-1.816-.371,2.846,2.846,0,0,1-1.26-1.055v6.074h-2.812V8.961h2.666l.078,1.348a2.75,2.75,0,0,1,1.255-1.138A4.313,4.313,0,0,1,215.1,8.766Zm-.635,8.135a2.527,2.527,0,0,0,1.9-.786A2.92,2.92,0,0,0,217.124,14a2.92,2.92,0,0,0-.757-2.114,2.688,2.688,0,0,0-3.813.015,2.921,2.921,0,0,0-.762,2.1,2.921,2.921,0,0,0,.762,2.1A2.531,2.531,0,0,0,214.468,16.9ZM231.5,13.834l-.029.674h-7.441a2.6,2.6,0,0,0,.8,1.836,2.561,2.561,0,0,0,1.768.635,2.468,2.468,0,0,0,1.323-.347,2.131,2.131,0,0,0,.845-1.011l2.578.381a4.383,4.383,0,0,1-1.758,2.354,5.226,5.226,0,0,1-2.969.84,5.435,5.435,0,0,1-3.911-1.382,5.042,5.042,0,0,1-1.45-3.833,5.072,5.072,0,0,1,1.455-3.833,5.273,5.273,0,0,1,3.818-1.4,5.04,5.04,0,0,1,3.6,1.279A5.019,5.019,0,0,1,231.5,13.834Zm-4.951-3.1a2.222,2.222,0,0,0-2.441,1.934h4.609a2.114,2.114,0,0,0-.693-1.436A2.2,2.2,0,0,0,226.548,10.738ZM237.378,19a3.032,3.032,0,0,1-2.266-.815,3.171,3.171,0,0,1-.8-2.319V11.119h-1.973V8.961h.635a1.656,1.656,0,0,0,1.25-.42,2.162,2.162,0,0,0,.4-1.494V5.719h2.539V8.961h2.07v2.158h-2.07v4.443q0,1.3,1.162,1.3h.908V19Zm5.469-11.543a1.579,1.579,0,0,1-1.152-.474,1.555,1.555,0,0,1-.479-1.147A1.536,1.536,0,0,1,241.7,4.7a1.584,1.584,0,0,1,1.147-.474,1.626,1.626,0,0,1,1.611,1.611,1.626,1.626,0,0,1-1.611,1.621ZM241.411,19V8.961h2.832V19Zm9.482,0a3.032,3.032,0,0,1-2.266-.815,3.171,3.171,0,0,1-.8-2.319V11.119h-1.973V8.961h.635a1.656,1.656,0,0,0,1.25-.42,2.162,2.162,0,0,0,.4-1.494V5.719h2.539V8.961h2.07v2.158h-2.07v4.443q0,1.3,1.162,1.3h.908V19Zm5.469-11.543a1.579,1.579,0,0,1-1.152-.474,1.555,1.555,0,0,1-.479-1.147,1.536,1.536,0,0,1,.483-1.138,1.584,1.584,0,0,1,1.147-.474,1.626,1.626,0,0,1,1.611,1.611,1.626,1.626,0,0,1-1.611,1.621ZM254.927,19V8.961h2.832V19ZM267.2,8.961h2.979L265.9,19h-2.441L259.233,8.961h2.959l2.5,6.865Zm8.73,10.234a6.313,6.313,0,0,1-2.842-.615,4.6,4.6,0,0,1-1.948-1.807,5.384,5.384,0,0,1-.708-2.8,4.911,4.911,0,0,1,1.523-3.809,6.368,6.368,0,0,1,7.959,0,4.911,4.911,0,0,1,1.523,3.809,4.938,4.938,0,0,1-1.523,3.823A5.654,5.654,0,0,1,275.933,19.2Zm-.029-2.236a2.577,2.577,0,0,0,1.987-.82,3.071,3.071,0,0,0,.757-2.168,3.071,3.071,0,0,0-.757-2.168,2.577,2.577,0,0,0-1.987-.82,2.483,2.483,0,0,0-1.929.825,3.1,3.1,0,0,0-.747,2.163,3.1,3.1,0,0,0,.747,2.163A2.483,2.483,0,0,0,275.9,16.959ZM287.065,19.2a5.61,5.61,0,0,1-2.93-.7A2.972,2.972,0,0,1,282.7,16.4l2.354-.664a1.891,1.891,0,0,0,2.012,1.494A2.078,2.078,0,0,0,288.091,17a.8.8,0,0,0,.4-.776.821.821,0,0,0-.166-.518,1.315,1.315,0,0,0-.513-.371,6.386,6.386,0,0,0-.684-.264q-.337-.107-.894-.259t-.928-.288a6.215,6.215,0,0,1-.884-.376,3.77,3.77,0,0,1-.732-.518,2.086,2.086,0,0,1-.547-.786,2.836,2.836,0,0,1-.19-1.074,2.565,2.565,0,0,1,1.089-2.246,4.865,4.865,0,0,1,2.847-.762,4.988,4.988,0,0,1,2.627.645,2.917,2.917,0,0,1,1.348,2.012l-2.178.488a1.706,1.706,0,0,0-1.787-1.27,1.957,1.957,0,0,0-.986.225.722.722,0,0,0-.391.664.761.761,0,0,0,.059.3.6.6,0,0,0,.205.244,2.99,2.99,0,0,0,.283.186,2.137,2.137,0,0,0,.4.161q.264.083.439.127l.513.132.522.137q.537.146.942.293a5.52,5.52,0,0,1,.864.41,3.1,3.1,0,0,1,.757.591,2.635,2.635,0,0,1,.493.83,3.066,3.066,0,0,1,.2,1.118,3.02,3.02,0,0,1-.337,1.455,2.529,2.529,0,0,1-.923.981,4.492,4.492,0,0,1-1.3.527A6.763,6.763,0,0,1,287.065,19.2Z" transform="translate(1224 5923.5)" fill="#002b45"/>
    <path id="Trazado_20132" data-name="Trazado 20132" d="M0,0H20V91H0Z" transform="translate(1204 5242)" fill="#9ec855"/>
    <path id="Trazado_20133" data-name="Trazado 20133" d="M0,0H20V91H0Z" transform="translate(1204 5372)" fill="#ffc800"/>
    <path id="Trazado_20134" data-name="Trazado 20134" d="M0,0H20V91H0Z" transform="translate(1204 5502)" fill="#00c3d2"/>
    <path id="Trazado_20135" data-name="Trazado 20135" d="M0,0H20V91H0Z" transform="translate(1204 5632)" fill="#6b8d9c"/>
    <path id="Trazado_20136" data-name="Trazado 20136" d="M0,0H20V91H0Z" transform="translate(1204 5762)" fill="#ff8f56"/>
    <path id="Trazado_20137" data-name="Trazado 20137" d="M0,0H20V91H0Z" transform="translate(1204 5892)" fill="#b33fc4"/>
    <path id="Trazado_20138" data-name="Trazado 20138" d="M0,0H113" transform="translate(1091.5 5287.5)" fill="none" stroke="#cbd9e4" stroke-width="3"/>
    <path id="Trazado_20139" data-name="Trazado 20139" d="M0,0H113" transform="translate(1091.5 5417.5)" fill="none" stroke="#cbd9e4" stroke-width="3"/>
    <path id="Trazado_20140" data-name="Trazado 20140" d="M0,0H113" transform="translate(1091.5 5547.5)" fill="none" stroke="#cbd9e4" stroke-width="3"/>
    <path id="Trazado_20141" data-name="Trazado 20141" d="M0,0H113" transform="translate(1091.5 5676.5)" fill="none" stroke="#cbd9e4" stroke-width="3"/>
    <path id="Trazado_20142" data-name="Trazado 20142" d="M0,0H113" transform="translate(1091.5 5806.5)" fill="none" stroke="#cbd9e4" stroke-width="3"/>
    <path id="Trazado_20143" data-name="Trazado 20143" d="M0,0H113" transform="translate(1091.5 5936.5)" fill="none" stroke="#cbd9e4" stroke-width="3"/>
  </g>
</svg>
