<svg xmlns="http://www.w3.org/2000/svg" width="107.985" height="107.985" viewBox="0 0 107.985 107.985">
  <g id="Grupo_25943" data-name="Grupo 25943" transform="translate(-330 -3493)">
    <g id="Trazado_19528" data-name="Trazado 19528" transform="translate(330 3493)" fill="#fff">
      <path d="M 53.99265289306641 105.4853057861328 C 47.04008483886719 105.4853057861328 40.29681777954102 104.1241836547852 33.95015335083008 101.4397888183594 C 27.81875228881836 98.84642028808594 22.31165313720703 95.13325500488281 17.58185195922852 90.40345001220703 C 12.85205268859863 85.67365264892578 9.138886451721191 80.16654968261719 6.545519351959229 74.03515625 C 3.861119508743286 67.68848419189453 2.500002861022949 60.94522094726563 2.500002861022949 53.99265289306641 C 2.500002861022949 47.04008483886719 3.861119508743286 40.29681777954102 6.545519351959229 33.95015335083008 C 9.138886451721191 27.81875228881836 12.85205268859863 22.31165313720703 17.58185195922852 17.58185195922852 C 22.31165313720703 12.85205268859863 27.81875228881836 9.138886451721191 33.95015335083008 6.545519351959229 C 40.29681777954102 3.861119508743286 47.04008483886719 2.500002861022949 53.99265289306641 2.500002861022949 C 60.94522094726563 2.500002861022949 67.68848419189453 3.861119508743286 74.03515625 6.545519351959229 C 80.16654968261719 9.138886451721191 85.67365264892578 12.85205268859863 90.40345001220703 17.58185195922852 C 95.13325500488281 22.31165313720703 98.84642028808594 27.81875228881836 101.4397888183594 33.95015335083008 C 104.1241836547852 40.29681777954102 105.4853057861328 47.04008483886719 105.4853057861328 53.99265289306641 C 105.4853057861328 60.94522094726563 104.1241836547852 67.68848419189453 101.4397888183594 74.03515625 C 98.84642028808594 80.16654968261719 95.13325500488281 85.67365264892578 90.40345001220703 90.40345001220703 C 85.67365264892578 95.13325500488281 80.16654968261719 98.84642028808594 74.03515625 101.4397888183594 C 67.68848419189453 104.1241836547852 60.94522094726563 105.4853057861328 53.99265289306641 105.4853057861328 Z" stroke="none"/>
      <path d="M 53.99265289306641 5 C 47.37648773193359 5 40.96086883544922 6.294670104980469 34.92403411865234 8.848037719726563 C 29.09061431884766 11.31536102294922 23.85061645507813 14.84859466552734 19.34961700439453 19.34961700439453 C 14.84859466552734 23.85061645507813 11.31536102294922 29.09061431884766 8.848037719726563 34.92403411865234 C 6.294670104980469 40.96086883544922 5 47.37648773193359 5 53.99265289306641 C 5 60.60881805419922 6.294670104980469 67.02442932128906 8.848037719726563 73.06127166748047 C 11.31536102294922 78.89469146728516 14.84859466552734 84.13467407226563 19.34961700439453 88.63568878173828 C 23.85063171386719 93.13670349121094 29.09061431884766 96.66994476318359 34.92403411865234 99.13726806640625 C 40.96086883544922 101.6906356811523 47.37648773193359 102.9853057861328 53.99265289306641 102.9853057861328 C 60.60881805419922 102.9853057861328 67.02442932128906 101.6906356811523 73.06127166748047 99.13726806640625 C 78.89466857910156 96.66994476318359 84.13467407226563 93.13670349121094 88.63568878173828 88.63568878173828 C 93.13670349121094 84.13467407226563 96.66994476318359 78.89466857910156 99.13726806640625 73.06127166748047 C 101.6906356811523 67.02442932128906 102.9853057861328 60.60881805419922 102.9853057861328 53.99265289306641 C 102.9853057861328 47.37648773193359 101.6906356811523 40.96086883544922 99.13726806640625 34.92403411865234 C 96.66994476318359 29.09061431884766 93.13670349121094 23.85063171386719 88.63568878173828 19.34961700439453 C 84.13467407226563 14.84859466552734 78.89469146728516 11.31536102294922 73.06127166748047 8.848037719726563 C 67.02442932128906 6.294670104980469 60.60881805419922 5 53.99265289306641 5 M 53.99265289306641 0 C 83.81196594238281 0 107.9853057861328 24.17332458496094 107.9853057861328 53.99265289306641 C 107.9853057861328 83.81196594238281 83.81196594238281 107.9853057861328 53.99265289306641 107.9853057861328 C 24.17332458496094 107.9853057861328 0 83.81196594238281 0 53.99265289306641 C 0 24.17332458496094 24.17332458496094 0 53.99265289306641 0 Z" stroke="none" fill="#d64626"/>
    </g>
    <g id="guarantee" transform="translate(355 3517.999)">
      <path id="Trazado_19538" data-name="Trazado 19538" d="M55.608,24.233l-.746-.558a2.5,2.5,0,0,1-.8-2.993l.367-.856a5.956,5.956,0,0,0-4.769-8.259l-.925-.111a2.5,2.5,0,0,1-2.192-2.191l-.11-.925a5.956,5.956,0,0,0-8.259-4.768l-.857.367a2.5,2.5,0,0,1-2.993-.8l-.558-.746a5.955,5.955,0,0,0-9.536,0l-.558.746a2.5,2.5,0,0,1-2.993.8l-.856-.367A5.956,5.956,0,0,0,11.563,8.34l-.111.925a2.5,2.5,0,0,1-2.192,2.192l-.925.111a5.956,5.956,0,0,0-4.768,8.259l.367.856a2.5,2.5,0,0,1-.8,2.993l-.746.558a5.956,5.956,0,0,0,0,9.537l.746.558a2.5,2.5,0,0,1,.8,2.993l-.367.856a5.956,5.956,0,0,0,4.769,8.259l.925.111a2.5,2.5,0,0,1,2.192,2.191l.11.925a5.956,5.956,0,0,0,8.259,4.768l.857-.367a2.5,2.5,0,0,1,2.993.8l.558.746a5.955,5.955,0,0,0,9.537,0l.558-.746a2.5,2.5,0,0,1,2.994-.8l.856.366a5.955,5.955,0,0,0,8.259-4.768l.11-.925a2.5,2.5,0,0,1,2.192-2.192l.925-.11a5.955,5.955,0,0,0,4.768-8.259l-.366-.856a2.5,2.5,0,0,1,.8-2.994l.746-.558a5.956,5.956,0,0,0,0-9.537Zm-1.358,7.723-.746.558a4.758,4.758,0,0,0-1.527,5.7l.366.856a3.69,3.69,0,0,1-2.954,5.118l-.925.11a4.758,4.758,0,0,0-4.172,4.173l-.111.925a3.69,3.69,0,0,1-5.117,2.954l-.856-.367a4.759,4.759,0,0,0-5.7,1.527l-.558.746a3.69,3.69,0,0,1-5.909,0l-.558-.746a4.758,4.758,0,0,0-5.7-1.527l-.856.367a3.69,3.69,0,0,1-5.118-2.954l-.11-.925A4.759,4.759,0,0,0,9.529,44.3L8.6,44.187A3.69,3.69,0,0,1,5.65,39.069l.367-.856a4.76,4.76,0,0,0-1.527-5.7l-.746-.558a3.691,3.691,0,0,1,0-5.909l.746-.558a4.758,4.758,0,0,0,1.527-5.7l-.366-.856a3.69,3.69,0,0,1,2.954-5.117l.925-.111A4.758,4.758,0,0,0,13.7,9.533l.111-.925A3.69,3.69,0,0,1,18.93,5.654l.856.366a4.759,4.759,0,0,0,5.7-1.527l.558-.746a3.69,3.69,0,0,1,5.909,0l.558.746a4.758,4.758,0,0,0,5.7,1.527l.856-.367a3.69,3.69,0,0,1,5.117,2.954l.111.925a4.758,4.758,0,0,0,4.172,4.172l.925.111a3.69,3.69,0,0,1,2.955,5.117l-.367.856a4.759,4.759,0,0,0,1.527,5.7l.746.558a3.69,3.69,0,0,1,0,5.909Zm0,0"/>
      <path id="Trazado_19539" data-name="Trazado 19539" d="M80.535,58.121a22.2,22.2,0,0,0-9.753,2.228,1.133,1.133,0,1,0,.987,2.039,19.958,19.958,0,0,1,8.766-2A20.149,20.149,0,1,1,60.386,80.536a19.943,19.943,0,0,1,4.28-12.418,1.133,1.133,0,1,0-1.783-1.4,22.193,22.193,0,0,0-4.762,13.815A22.414,22.414,0,1,0,80.535,58.121Zm0,0" transform="translate(-51.537 -51.534)"/>
      <path id="Trazado_19540" data-name="Trazado 19540" d="M101.143,201.691l-.863,1.1a1.133,1.133,0,1,0,1.782,1.4l.474-.6v7.491h-.758a1.133,1.133,0,1,0,0,2.265h3.743a1.133,1.133,0,1,0,0-2.265H104.8v-8.687a1.133,1.133,0,0,0-1.133-1.133h-1.635A1.132,1.132,0,0,0,101.143,201.691Zm0,0" transform="translate(-88.707 -178.458)"/>
      <path id="Trazado_19541" data-name="Trazado 19541" d="M163.591,211.85h.588a3.4,3.4,0,0,0,3.392-3.392v-5.491a3.4,3.4,0,0,0-3.392-3.393h-.588a3.4,3.4,0,0,0-3.392,3.393v5.491A3.4,3.4,0,0,0,163.591,211.85Zm-1.127-8.883a1.129,1.129,0,0,1,1.127-1.127h.588a1.129,1.129,0,0,1,1.127,1.127v5.491a1.128,1.128,0,0,1-1.127,1.127h-.588a1.128,1.128,0,0,1-1.127-1.127Zm0,0" transform="translate(-142.053 -176.965)"/>
      <path id="Trazado_19542" data-name="Trazado 19542" d="M239.574,211.85a3.4,3.4,0,0,0,3.392-3.392v-5.491a3.4,3.4,0,0,0-3.392-3.393h-.588a3.4,3.4,0,0,0-3.392,3.393v5.491a3.4,3.4,0,0,0,3.392,3.392Zm-1.715-3.392v-5.491a1.129,1.129,0,0,1,1.127-1.127h.588a1.129,1.129,0,0,1,1.127,1.127v5.491a1.128,1.128,0,0,1-1.127,1.127h-.588A1.128,1.128,0,0,1,237.859,208.458Zm0,0" transform="translate(-208.907 -176.965)"/>
      <path id="Trazado_19543" data-name="Trazado 19543" d="M332.375,196.664a1.133,1.133,0,0,0-1.582.25l-7.2,9.9a1.133,1.133,0,1,0,1.832,1.332l7.2-9.9A1.133,1.133,0,0,0,332.375,196.664Zm0,0" transform="translate(-286.749 -174.192)"/>
      <path id="Trazado_19544" data-name="Trazado 19544" d="M157.058,112.6a1.129,1.129,0,0,0,.744-.279,14.388,14.388,0,0,1,18.34-.478,1.133,1.133,0,1,0,1.4-1.781,16.653,16.653,0,0,0-21.23.552,1.133,1.133,0,0,0,.746,1.986Zm0,0" transform="translate(-138.262 -94.44)"/>
      <path id="Trazado_19545" data-name="Trazado 19545" d="M160.7,353.337a16.667,16.667,0,0,0,17.723,1.8,1.133,1.133,0,0,0-1.014-2.026,14.4,14.4,0,0,1-15.31-1.556,1.133,1.133,0,0,0-1.4,1.781Zm0,0" transform="translate(-142.114 -311.516)"/>
      <path id="Trazado_19546" data-name="Trazado 19546" d="M337.963,348.136a1.132,1.132,0,1,0-.192,1.48A1.145,1.145,0,0,0,337.963,348.136Zm0,0" transform="translate(-297.842 -308.253)"/>
      <path id="Trazado_19547" data-name="Trazado 19547" d="M316.354,196.449a2.666,2.666,0,1,0,2.665,2.665A2.669,2.669,0,0,0,316.354,196.449Zm0,3.066a.4.4,0,1,1,.4-.4A.4.4,0,0,1,316.354,199.515Zm0,0" transform="translate(-278.156 -174.194)"/>
      <path id="Trazado_19548" data-name="Trazado 19548" d="M369.191,260.057a2.666,2.666,0,1,0,2.665-2.666A2.669,2.669,0,0,0,369.191,260.057Zm3.066,0a.4.4,0,1,1-.4-.4A.4.4,0,0,1,372.257,260.057Zm0,0" transform="translate(-327.372 -228.232)"/>
      <path id="Trazado_19549" data-name="Trazado 19549" d="M128.817,101.222a1.132,1.132,0,1,0,.417-1.375A1.143,1.143,0,0,0,128.817,101.222Zm0,0" transform="translate(-114.151 -88.367)"/>
    </g>
  </g>
</svg>
