<svg xmlns="http://www.w3.org/2000/svg" width="107.985" height="107.985" viewBox="0 0 107.985 107.985">
  <g id="Grupo_25941" data-name="Grupo 25941" transform="translate(-330 -3038)">
    <g id="Trazado_19526" data-name="Trazado 19526" transform="translate(330 3038)" fill="#fff">
      <path d="M 53.99265289306641 105.4853057861328 C 47.04008483886719 105.4853057861328 40.29681777954102 104.1241836547852 33.95015335083008 101.4397888183594 C 27.81875228881836 98.84642028808594 22.31165313720703 95.13325500488281 17.58185195922852 90.40345001220703 C 12.85205268859863 85.67365264892578 9.138886451721191 80.16654968261719 6.545519351959229 74.03515625 C 3.861119508743286 67.68848419189453 2.500002861022949 60.94522094726563 2.500002861022949 53.99265289306641 C 2.500002861022949 47.04008483886719 3.861119508743286 40.29681777954102 6.545519351959229 33.95015335083008 C 9.138886451721191 27.81875228881836 12.85205268859863 22.31165313720703 17.58185195922852 17.58185195922852 C 22.31165313720703 12.85205268859863 27.81875228881836 9.138886451721191 33.95015335083008 6.545519351959229 C 40.29681777954102 3.861119508743286 47.04008483886719 2.500002861022949 53.99265289306641 2.500002861022949 C 60.94522094726563 2.500002861022949 67.68848419189453 3.861119508743286 74.03515625 6.545519351959229 C 80.16654968261719 9.138886451721191 85.67365264892578 12.85205268859863 90.40345001220703 17.58185195922852 C 95.13325500488281 22.31165313720703 98.84642028808594 27.81875228881836 101.4397888183594 33.95015335083008 C 104.1241836547852 40.29681777954102 105.4853057861328 47.04008483886719 105.4853057861328 53.99265289306641 C 105.4853057861328 60.94522094726563 104.1241836547852 67.68848419189453 101.4397888183594 74.03515625 C 98.84642028808594 80.16654968261719 95.13325500488281 85.67365264892578 90.40345001220703 90.40345001220703 C 85.67365264892578 95.13325500488281 80.16654968261719 98.84642028808594 74.03515625 101.4397888183594 C 67.68848419189453 104.1241836547852 60.94522094726563 105.4853057861328 53.99265289306641 105.4853057861328 Z" stroke="none"/>
      <path d="M 53.99265289306641 5 C 47.37648773193359 5 40.96086883544922 6.294670104980469 34.92403411865234 8.848037719726563 C 29.09061431884766 11.31536102294922 23.85061645507813 14.84859466552734 19.34961700439453 19.34961700439453 C 14.84859466552734 23.85061645507813 11.31536102294922 29.09061431884766 8.848037719726563 34.92403411865234 C 6.294670104980469 40.96086883544922 5 47.37648773193359 5 53.99265289306641 C 5 60.60881805419922 6.294670104980469 67.02442932128906 8.848037719726563 73.06127166748047 C 11.31536102294922 78.89469146728516 14.84859466552734 84.13467407226563 19.34961700439453 88.63568878173828 C 23.85063171386719 93.13670349121094 29.09061431884766 96.66994476318359 34.92403411865234 99.13726806640625 C 40.96086883544922 101.6906356811523 47.37648773193359 102.9853057861328 53.99265289306641 102.9853057861328 C 60.60881805419922 102.9853057861328 67.02442932128906 101.6906356811523 73.06127166748047 99.13726806640625 C 78.89466857910156 96.66994476318359 84.13467407226563 93.13670349121094 88.63568878173828 88.63568878173828 C 93.13670349121094 84.13467407226563 96.66994476318359 78.89466857910156 99.13726806640625 73.06127166748047 C 101.6906356811523 67.02442932128906 102.9853057861328 60.60881805419922 102.9853057861328 53.99265289306641 C 102.9853057861328 47.37648773193359 101.6906356811523 40.96086883544922 99.13726806640625 34.92403411865234 C 96.66994476318359 29.09061431884766 93.13670349121094 23.85063171386719 88.63568878173828 19.34961700439453 C 84.13467407226563 14.84859466552734 78.89469146728516 11.31536102294922 73.06127166748047 8.848037719726563 C 67.02442932128906 6.294670104980469 60.60881805419922 5 53.99265289306641 5 M 53.99265289306641 0 C 83.81196594238281 0 107.9853057861328 24.17332458496094 107.9853057861328 53.99265289306641 C 107.9853057861328 83.81196594238281 83.81196594238281 107.9853057861328 53.99265289306641 107.9853057861328 C 24.17332458496094 107.9853057861328 0 83.81196594238281 0 53.99265289306641 C 0 24.17332458496094 24.17332458496094 0 53.99265289306641 0 Z" stroke="none" fill="#d64626"/>
    </g>
    <g id="Outline" transform="translate(303.577 3045.746)">
      <path id="Trazado_19530" data-name="Trazado 19530" d="M337.849,112.439l-2.338-3.279v-4.252A.908.908,0,0,0,334.6,104h-5.451a.908.908,0,0,0-.909.908v4.252l-2.337,3.278a11.814,11.814,0,0,0-.706,1.112l1.586.886a9.985,9.985,0,0,1,.6-.943l2.507-3.516a.908.908,0,0,0,.169-.527v-3.634h3.634v3.634a.908.908,0,0,0,.169.527l2.51,3.52a9.814,9.814,0,0,1,1.228,2.312h-6.632v1.817h7.109a10.145,10.145,0,0,1,.159,1.681v.136h-7.268v1.817h7.268v1.817h-7.268v1.817h6.915l-.218.667a6.454,6.454,0,0,0,0,4.113l.329,1a4.7,4.7,0,0,1,.244,1.485h-7.268v1.817h7.268V135.8h-7.268v1.817h7.268v1.817h-7.268v1.817h7.268v3.634a1.819,1.819,0,0,1-1.817,1.817h-1.971a.911.911,0,0,1-.647-.27,2.771,2.771,0,0,0-3.847,0l1.285,1.285a.911.911,0,0,1,1.278,0,2.716,2.716,0,0,0,1.932.8h1.971a3.638,3.638,0,0,0,3.634-3.634V132.163a6.5,6.5,0,0,0-.336-2.055l-.329-1a4.64,4.64,0,0,1,0-2.973l.329-1a8.16,8.16,0,0,0,.251-1,6.992,6.992,0,0,0,.083-1.045v-3.77a12.078,12.078,0,0,0-.334-2.8A11.625,11.625,0,0,0,337.849,112.439Z" transform="translate(-238.63 -78.007)"/>
      <path id="Trazado_19531" data-name="Trazado 19531" d="M56,35.986V63.467a7.048,7.048,0,0,0,7.041,7.041A6.978,6.978,0,0,0,67.267,69.1a2.422,2.422,0,0,1,2.9,0,7,7,0,0,0,3.964,1.4l.067-1.816a5.181,5.181,0,0,1-2.939-1.04,4.247,4.247,0,0,0-5.091,0,5.172,5.172,0,0,1-3.133,1.044,5.23,5.23,0,0,1-5.224-5.224V58.7H74.169V56.881H57.817V38.712H77.8V36.895H57.817v-.908a10.876,10.876,0,0,1,7.548-10.374.908.908,0,0,0,.629-.864V22.359h5.451v2.389a.908.908,0,0,0,.629.864,10.86,10.86,0,0,1,7.516,9.534l1.812-.138a12.664,12.664,0,0,0-8.139-10.9V22.359h1.817V20.542H73.261V16.908A.908.908,0,0,0,72.352,16H65.085a.908.908,0,0,0-.908.908v3.634H62.359v1.817h1.817v1.746A12.684,12.684,0,0,0,56,35.986Zm9.993-18.169h5.451v2.725H65.993Z"/>
      <path id="Trazado_19532" data-name="Trazado 19532" d="M123.57,116.991l1.006,1.513a7.329,7.329,0,0,1,1.8-.868l-.559-1.729A9.142,9.142,0,0,0,123.57,116.991Z" transform="translate(-59.897 -88.561)"/>
      <path id="Trazado_19533" data-name="Trazado 19533" d="M90.29,142.082a7.279,7.279,0,0,1,1.974-4.223l-1.31-1.259a9.112,9.112,0,0,0-2.47,5.282Z" transform="translate(-28.795 -106.905)"/>
      <rect id="Rectángulo_3807" data-name="Rectángulo 3807" width="2" height="2" transform="translate(59.712 40.254)"/>
      <rect id="Rectángulo_3808" data-name="Rectángulo 3808" width="2" height="8" transform="translate(59.712 44.254)"/>
      <rect id="Rectángulo_3809" data-name="Rectángulo 3809" width="2" height="2" transform="translate(79.712 46.254)"/>
      <path id="Trazado_19534" data-name="Trazado 19534" d="M239.268,192c-2.038,0-3.634,1.2-3.634,2.725V197.8l-2.124,1.066A2.714,2.714,0,0,0,232,201.3v4.324a.909.909,0,0,0,.1.406l.705,1.41-.705,1.411a.908.908,0,0,0-.1.406v1.817a.909.909,0,0,0,.1.406l.705,1.41-.705,1.411a.908.908,0,0,0-.1.406v1.817a.908.908,0,0,0,.1.406l.705,1.41-.705,1.411a.908.908,0,0,0-.1.406V223.8a2.73,2.73,0,0,0,2.725,2.725h9.085a2.889,2.889,0,0,0,.618-.07,2.721,2.721,0,0,0,2.108-2.656v-3.634a.909.909,0,0,0-.1-.406l-.705-1.41.705-1.411a.908.908,0,0,0,.1-.406v-1.817a.909.909,0,0,0-.1-.406l-.705-1.41.705-1.411a.908.908,0,0,0,.1-.406v-1.817a.909.909,0,0,0-.1-.406l-.705-1.41.705-1.411a.908.908,0,0,0,.1-.406V201.3a2.712,2.712,0,0,0-1.51-2.438L242.9,197.8v-3.073C242.9,193.2,241.305,192,239.268,192Zm0,1.817c1.109,0,1.817.538,1.817.908s-.708.908-1.817.908-1.817-.538-1.817-.908S238.159,193.817,239.268,193.817Zm4.945,6.672a.906.906,0,0,1,.506.814v4.11l-.562,1.123h-7.615v1.817h7.615l.562,1.123v1.388l-.562,1.123h-7.615V213.8h7.615l.562,1.123v1.388l-.562,1.123h-7.615v1.817h7.615l.562,1.123v3.42a.918.918,0,0,1-.688.883,1.064,1.064,0,0,1-.22.025h-9.085a.911.911,0,0,1-.723-.362.893.893,0,0,1-.185-.547v-3.42l.813-1.625a.909.909,0,0,0,0-.813l-.813-1.625v-1.388l.813-1.625a.909.909,0,0,0,0-.813l-.813-1.625v-1.388l.813-1.625a.909.909,0,0,0,0-.813l-.813-1.625V201.3a.907.907,0,0,1,.507-.814l2.625-1.317a.907.907,0,0,0,.5-.812v-1.276a4.676,4.676,0,0,0,3.634,0v1.276a.907.907,0,0,0,.5.812Z" transform="translate(-156.014 -156.014)"/>
    </g>
  </g>
</svg>
