<svg xmlns="http://www.w3.org/2000/svg" width="732" height="351" viewBox="0 0 732 351">
  <g id="Grupo_25932" data-name="Grupo 25932" transform="translate(-5991 575)">
    <path id="Trazado_20144" data-name="Trazado 20144" d="M43.644,19.2a7.671,7.671,0,0,1-3.706-.884,6.407,6.407,0,0,1-2.573-2.544,7.651,7.651,0,0,1-.937-3.828,7.644,7.644,0,0,1,.938-3.833,6.382,6.382,0,0,1,2.573-2.534,8.243,8.243,0,0,1,7.407,0,6.391,6.391,0,0,1,2.568,2.534,7.644,7.644,0,0,1,.938,3.833,7.651,7.651,0,0,1-.937,3.828,6.407,6.407,0,0,1-2.573,2.544A7.65,7.65,0,0,1,43.644,19.2Zm-3.086-3.921a4.472,4.472,0,0,0,6.172,0,4.558,4.558,0,0,0,1.211-3.335,4.528,4.528,0,0,0-1.211-3.32,4.485,4.485,0,0,0-6.172,0,4.528,4.528,0,0,0-1.211,3.32A4.558,4.558,0,0,0,40.558,15.274ZM55.87,10.553a3.259,3.259,0,0,1,1.318-1.206,4.023,4.023,0,0,1,1.963-.5v2.51a3.8,3.8,0,0,0-2.4.605,2.643,2.643,0,0,0-.742,2.148V19H53.175V8.961h2.7ZM67.657,8.961h2.676v9.287a7.51,7.51,0,0,1-.376,2.5,4.123,4.123,0,0,1-1.089,1.714,4.539,4.539,0,0,1-1.67.962,7.04,7.04,0,0,1-2.187.313q-3.975,0-5.176-3.115l2.334-1a3.406,3.406,0,0,0,1.084,1.455,2.763,2.763,0,0,0,1.65.469q2.607,0,2.607-3.1V17.281a3.163,3.163,0,0,1-1.265.991,4.2,4.2,0,0,1-1.782.376A4.5,4.5,0,0,1,61.241,17.3a4.638,4.638,0,0,1-.991-1.577,5.83,5.83,0,0,1,0-4.067,4.451,4.451,0,0,1,1-1.558,4.584,4.584,0,0,1,1.465-.977,4.521,4.521,0,0,1,1.772-.352,4.083,4.083,0,0,1,1.86.415,2.967,2.967,0,0,1,1.245,1.108ZM63.346,15.6a2.576,2.576,0,0,0,3.687-.01,2.806,2.806,0,0,0,0-3.818,2.6,2.6,0,0,0-3.7-.015,2.671,2.671,0,0,0-.737,1.929A2.644,2.644,0,0,0,63.346,15.6Zm18.14.674a9.392,9.392,0,0,0,.244,2.451V19H79.1l-.225-1.094a3.264,3.264,0,0,1-1.406.967,5.183,5.183,0,0,1-1.816.322,4.776,4.776,0,0,1-.937-.088,3.187,3.187,0,0,1-.845-.3,2.564,2.564,0,0,1-.7-.522,2.291,2.291,0,0,1-.469-.8A3.17,3.17,0,0,1,72.53,16.4a3.02,3.02,0,0,1,.186-1.089A2.552,2.552,0,0,1,73.2,14.5,2.962,2.962,0,0,1,74,13.9a6.053,6.053,0,0,1,1-.43,11.9,11.9,0,0,1,1.191-.312l1.65-.371a1.82,1.82,0,0,0,.747-.317.633.633,0,0,0,.22-.5A1.036,1.036,0,0,0,78.307,11a2.3,2.3,0,0,0-1.2-.293,1.721,1.721,0,0,0-1.963,1.533l-2.49-.449A3.371,3.371,0,0,1,74.112,9.5a5.783,5.783,0,0,1,3.154-.737q4.219,0,4.219,3.623Zm-4.951,1.016a2.262,2.262,0,0,0,1.738-.728,3.066,3.066,0,0,0,.674-2.153l-2.383.674a2.816,2.816,0,0,0-1,.41.842.842,0,0,0-.347.723.935.935,0,0,0,.371.8A1.536,1.536,0,0,0,76.534,17.291ZM90.147,8.766a3.914,3.914,0,0,1,2.773.9,3.349,3.349,0,0,1,.967,2.573V19H91.065V12.848a1.749,1.749,0,0,0-.5-1.387,1.9,1.9,0,0,0-1.294-.439,2.643,2.643,0,0,0-.84.127,2.158,2.158,0,0,0-.7.4,1.748,1.748,0,0,0-.5.757,3.5,3.5,0,0,0-.19,1.162V19H84.22V8.961h2.813v1.113A3.868,3.868,0,0,1,90.147,8.766Zm7.9-1.309A1.579,1.579,0,0,1,96.9,6.983a1.555,1.555,0,0,1-.479-1.147A1.536,1.536,0,0,1,96.9,4.7a1.584,1.584,0,0,1,1.147-.474,1.626,1.626,0,0,1,1.611,1.611,1.626,1.626,0,0,1-1.611,1.621ZM96.612,19V8.961h2.832V19ZM109.679,8.961l-4.414,7.871h4.277V19h-8.271l4.395-7.871h-4.053V8.961Zm9.814,7.314a9.392,9.392,0,0,0,.244,2.451V19H117.11l-.225-1.094a3.264,3.264,0,0,1-1.406.967,5.183,5.183,0,0,1-1.816.322,4.776,4.776,0,0,1-.937-.088,3.187,3.187,0,0,1-.845-.3,2.564,2.564,0,0,1-.7-.522,2.291,2.291,0,0,1-.469-.8,3.17,3.17,0,0,1-.176-1.089,3.02,3.02,0,0,1,.186-1.089,2.552,2.552,0,0,1,.488-.815,2.962,2.962,0,0,1,.791-.6,6.053,6.053,0,0,1,1-.43,11.9,11.9,0,0,1,1.191-.312l1.65-.371a1.82,1.82,0,0,0,.747-.317.633.633,0,0,0,.22-.5,1.036,1.036,0,0,0-.493-.967,2.3,2.3,0,0,0-1.2-.293,1.721,1.721,0,0,0-1.963,1.533l-2.49-.449A3.371,3.371,0,0,1,112.12,9.5a5.783,5.783,0,0,1,3.154-.737q4.219,0,4.219,3.623Zm-4.951,1.016a2.262,2.262,0,0,0,1.738-.728,3.066,3.066,0,0,0,.674-2.153l-2.383.674a2.816,2.816,0,0,0-1,.41.842.842,0,0,0-.347.723.935.935,0,0,0,.371.8A1.536,1.536,0,0,0,114.542,17.291Zm12,1.895a5.364,5.364,0,0,1-3.877-1.445,4.992,4.992,0,0,1-1.5-3.77,4.981,4.981,0,0,1,1.5-3.77,5.96,5.96,0,0,1,7.134-.469,4.316,4.316,0,0,1,1.68,2.725l-2.6.283a2.225,2.225,0,0,0-.84-1.318,2.554,2.554,0,0,0-1.523-.439,2.3,2.3,0,0,0-1.836.82,3.216,3.216,0,0,0-.7,2.168,3.22,3.22,0,0,0,.7,2.163,2.3,2.3,0,0,0,1.836.825,2.532,2.532,0,0,0,1.519-.439,2.277,2.277,0,0,0,.845-1.318l2.6.283a4.328,4.328,0,0,1-1.694,2.725A5.327,5.327,0,0,1,126.544,19.186Zm8.369-11.729a1.579,1.579,0,0,1-1.152-.474,1.555,1.555,0,0,1-.479-1.147,1.536,1.536,0,0,1,.483-1.138,1.584,1.584,0,0,1,1.147-.474,1.626,1.626,0,0,1,1.611,1.611,1.626,1.626,0,0,1-1.611,1.621ZM133.478,19V8.961h2.832V19Zm9.551-11.406L145.587,4l1.387.977-2.217,2.617Zm.869,11.6a6.313,6.313,0,0,1-2.842-.615,4.6,4.6,0,0,1-1.948-1.807,5.384,5.384,0,0,1-.708-2.8,4.911,4.911,0,0,1,1.523-3.809,6.368,6.368,0,0,1,7.959,0,4.911,4.911,0,0,1,1.523,3.809,4.938,4.938,0,0,1-1.523,3.823A5.654,5.654,0,0,1,143.9,19.2Zm-.029-2.236a2.577,2.577,0,0,0,1.987-.82,3.071,3.071,0,0,0,.757-2.168,3.071,3.071,0,0,0-.757-2.168,2.577,2.577,0,0,0-1.987-.82,2.483,2.483,0,0,0-1.929.825,3.1,3.1,0,0,0-.747,2.163,3.1,3.1,0,0,0,.747,2.163A2.483,2.483,0,0,0,143.868,16.959Zm13.555-8.193a3.914,3.914,0,0,1,2.773.9,3.349,3.349,0,0,1,.967,2.573V19h-2.822V12.848a1.749,1.749,0,0,0-.5-1.387,1.9,1.9,0,0,0-1.294-.439,2.643,2.643,0,0,0-.84.127,2.158,2.158,0,0,0-.7.4,1.748,1.748,0,0,0-.5.757,3.5,3.5,0,0,0-.19,1.162V19H151.5V8.961h2.813v1.113A3.868,3.868,0,0,1,157.423,8.766Z" transform="translate(6254 -473)" fill="#002b45"/>
    <g id="Trazado_20145" data-name="Trazado 20145" transform="translate(6254 -558)" fill="none">
      <path d="M99,0A99,99,0,1,1,0,99,99,99,0,0,1,99,0Z" stroke="none"/>
      <path d="M 99 3 C 92.48455810546875 3 85.97411346435547 3.656219482421875 79.64947509765625 4.950424194335938 C 73.48711395263672 6.211410522460938 67.42561340332031 8.093032836914063 61.63339233398438 10.54292297363281 C 55.94563293457031 12.94863891601563 50.45957946777344 15.92642211914063 45.32759094238281 19.39349365234375 C 40.24356079101563 22.82820129394531 35.46269226074219 26.77281188964844 31.11775207519531 31.11775207519531 C 26.77281188964844 35.46269226074219 22.82820129394531 40.24356079101563 19.39349365234375 45.32759094238281 C 15.92642211914063 50.45957946777344 12.94863891601563 55.94563293457031 10.54292297363281 61.63339233398438 C 8.093032836914063 67.42561340332031 6.211410522460938 73.48711395263672 4.950424194335938 79.64947509765625 C 3.656219482421875 85.97411346435547 3 92.48455810546875 3 99 C 3 105.5154418945313 3.656219482421875 112.0258865356445 4.950424194335938 118.3505249023438 C 6.211410522460938 124.5128860473633 8.093032836914063 130.5743865966797 10.54292297363281 136.3666076660156 C 12.94863891601563 142.0543518066406 15.92642211914063 147.5404205322266 19.39349365234375 152.6724243164063 C 22.82820129394531 157.7564392089844 26.77281188964844 162.5373077392578 31.11775207519531 166.8822479248047 C 35.46269226074219 171.2271881103516 40.24356079101563 175.1718139648438 45.32759094238281 178.6065063476563 C 50.45957946777344 182.0735778808594 55.94563293457031 185.0513610839844 61.63339233398438 187.4570770263672 C 67.42561340332031 189.9069671630859 73.48711395263672 191.7885894775391 79.64947509765625 193.0495910644531 C 85.97411346435547 194.3437805175781 92.48455810546875 195 99 195 C 105.5154418945313 195 112.0258865356445 194.3437805175781 118.3505249023438 193.0495910644531 C 124.5128860473633 191.7885894775391 130.5743865966797 189.9069671630859 136.3666076660156 187.4570770263672 C 142.0543518066406 185.0513610839844 147.5404205322266 182.0735778808594 152.6724243164063 178.6065063476563 C 157.7564392089844 175.1718139648438 162.5373077392578 171.2271881103516 166.8822479248047 166.8822479248047 C 171.2271881103516 162.5373077392578 175.1718139648438 157.7564392089844 178.6065063476563 152.6724243164063 C 182.0735778808594 147.5404205322266 185.0513610839844 142.0543518066406 187.4570770263672 136.3666076660156 C 189.9069671630859 130.5743865966797 191.7885894775391 124.5128860473633 193.0495910644531 118.3505249023438 C 194.3437805175781 112.0258865356445 195 105.5154418945313 195 99 C 195 92.48455810546875 194.3437805175781 85.97411346435547 193.0495910644531 79.64947509765625 C 191.7885894775391 73.48711395263672 189.9069671630859 67.42561340332031 187.4570770263672 61.63339233398438 C 185.0513610839844 55.94563293457031 182.0735778808594 50.45957946777344 178.6065063476563 45.32759094238281 C 175.1718139648438 40.24356079101563 171.2271881103516 35.46269226074219 166.8822479248047 31.11775207519531 C 162.5373077392578 26.77281188964844 157.7564392089844 22.82820129394531 152.6724243164063 19.39349365234375 C 147.5404205322266 15.92642211914063 142.0543518066406 12.94863891601563 136.3666076660156 10.54292297363281 C 130.5743865966797 8.093032836914063 124.5128860473633 6.211410522460938 118.3505249023438 4.950424194335938 C 112.0258865356445 3.656219482421875 105.5154418945313 3 99 3 M 99 0 C 153.6761932373047 0 198 44.32380676269531 198 99 C 198 153.6761932373047 153.6761932373047 198 99 198 C 44.32380676269531 198 0 153.6761932373047 0 99 C 0 44.32380676269531 44.32380676269531 0 99 0 Z" stroke="none" fill="#eef0f2"/>
    </g>
    <path id="Trazado_20146" data-name="Trazado 20146" d="M41,19,0,0" transform="translate(6235 -546)" fill="none" stroke="#eef0f2" stroke-width="3"/>
    <path id="Trazado_20147" data-name="Trazado 20147" d="M41,0,0,19" transform="translate(6235 -391)" fill="none" stroke="#eef0f2" stroke-width="3"/>
    <path id="Trazado_20148" data-name="Trazado 20148" d="M0,0,41,19" transform="translate(6431 -391)" fill="none" stroke="#eef0f2" stroke-width="3"/>
    <path id="Trazado_20149" data-name="Trazado 20149" d="M0,19,41,0" transform="translate(6431 -546)" fill="none" stroke="#eef0f2" stroke-width="3"/>
    <path id="Trazado_20150" data-name="Trazado 20150" d="M47,0H0" transform="translate(6209 -460)" fill="none" stroke="#eef0f2" stroke-width="3"/>
    <path id="Trazado_20151" data-name="Trazado 20151" d="M0,0H47" transform="translate(6454 -460)" fill="none" stroke="#eef0f2" stroke-width="3"/>
    <path id="Trazado_20152" data-name="Trazado 20152" d="M5,0A5,5,0,1,1,0,5,5,5,0,0,1,5,0Z" transform="translate(6276 -399)" fill="#ff8f00"/>
    <path id="Trazado_20153" data-name="Trazado 20153" d="M5,0A5,5,0,1,1,0,5,5,5,0,0,1,5,0Z" transform="translate(6421 -399)" fill="#ff8f00"/>
    <path id="Trazado_20154" data-name="Trazado 20154" d="M5,0A5,5,0,1,1,0,5,5,5,0,0,1,5,0Z" transform="translate(6421 -530)" fill="#ff8f00"/>
    <path id="Trazado_20155" data-name="Trazado 20155" d="M5,0A5,5,0,1,1,0,5,5,5,0,0,1,5,0Z" transform="translate(6276 -530)" fill="#ff8f00"/>
    <path id="Trazado_20156" data-name="Trazado 20156" d="M5,0A5,5,0,1,1,0,5,5,5,0,0,1,5,0Z" transform="translate(6251 -465)" fill="#ff8f00"/>
    <path id="Trazado_20157" data-name="Trazado 20157" d="M5,0A5,5,0,1,1,0,5,5,5,0,0,1,5,0Z" transform="translate(6446 -465)" fill="#ff8f00"/>
    <path id="Trazado_20158" data-name="Trazado 20158" d="M20,0H203a20,20,0,0,1,0,40H20A20,20,0,0,1,20,0Z" transform="translate(6018 -575)" fill="#f8e9e5"/>
    <path id="Trazado_20159" data-name="Trazado 20159" d="M20,0H203a20,20,0,0,1,0,40H20A20,20,0,0,1,20,0Z" transform="translate(6469 -575)" fill="#f8e9e5"/>
    <path id="Trazado_20160" data-name="Trazado 20160" d="M20,0H203a20,20,0,0,1,0,40H20A20,20,0,0,1,20,0Z" transform="translate(5991 -480)" fill="#f8e9e5"/>
    <path id="Trazado_20161" data-name="Trazado 20161" d="M20,0H203a20,20,0,0,1,0,40H20A20,20,0,0,1,20,0Z" transform="translate(6500 -480)" fill="#f8e9e5"/>
    <path id="Trazado_20162" data-name="Trazado 20162" d="M20,0H203a20,20,0,0,1,0,40H20A20,20,0,0,1,20,0Z" transform="translate(6018 -380)" fill="#f8e9e5"/>
    <path id="Trazado_20163" data-name="Trazado 20163" d="M20,0H203a20,20,0,0,1,0,40H20A20,20,0,0,1,20,0Z" transform="translate(6467 -379)" fill="#f8e9e5"/>
    <path id="Trazado_20164" data-name="Trazado 20164" d="M40.871,17.176a6.136,6.136,0,0,1-3.524-.971,3.9,3.9,0,0,1-1.714-2.72l2.725-.624a2.314,2.314,0,0,0,.839,1.6,2.785,2.785,0,0,0,1.78.558,2.3,2.3,0,0,0,1.389-.391,1.319,1.319,0,0,0,.527-1.156,1.233,1.233,0,0,0-.448-.94,2.929,2.929,0,0,0-.892-.576q-.444-.171-1.428-.47-.132-.044-.193-.062-.5-.158-.809-.264t-.76-.294a5.063,5.063,0,0,1-.738-.369,5.405,5.405,0,0,1-.611-.457,2.394,2.394,0,0,1-.51-.584,3.1,3.1,0,0,1-.308-.729,3.219,3.219,0,0,1-.123-.905,3.4,3.4,0,0,1,.593-2,3.633,3.633,0,0,1,1.6-1.274,5.822,5.822,0,0,1,2.29-.426,7.233,7.233,0,0,1,1.657.185,5.8,5.8,0,0,1,1.481.567,3.628,3.628,0,0,1,1.182,1.046,3.933,3.933,0,0,1,.672,1.542L43,8.1a2.065,2.065,0,0,0-2.285-1.819,2.5,2.5,0,0,0-1.415.369,1.251,1.251,0,0,0-.554,1.116q0,.694.923,1.125a13.752,13.752,0,0,0,1.767.606q.519.158.844.264t.817.308a5.68,5.68,0,0,1,.8.391,5.918,5.918,0,0,1,.668.488,2.627,2.627,0,0,1,.567.633,3.422,3.422,0,0,1,.347.787,3.288,3.288,0,0,1,.141.98,3.85,3.85,0,0,1-.255,1.433,3.118,3.118,0,0,1-.7,1.081,4.058,4.058,0,0,1-1.05.743,5.1,5.1,0,0,1-1.292.439A7.431,7.431,0,0,1,40.871,17.176Zm11.057,0a5.681,5.681,0,0,1-2.558-.554A4.138,4.138,0,0,1,47.617,15a4.846,4.846,0,0,1-.637-2.522,4.42,4.42,0,0,1,1.371-3.428,5.731,5.731,0,0,1,7.163,0,4.42,4.42,0,0,1,1.371,3.428,4.444,4.444,0,0,1-1.371,3.441A5.088,5.088,0,0,1,51.928,17.176ZM51.9,15.163a2.319,2.319,0,0,0,1.789-.738,2.764,2.764,0,0,0,.681-1.951,2.764,2.764,0,0,0-.681-1.951A2.319,2.319,0,0,0,51.9,9.784a2.234,2.234,0,0,0-1.736.743,2.789,2.789,0,0,0-.672,1.947,2.789,2.789,0,0,0,.672,1.947A2.234,2.234,0,0,0,51.9,15.163Zm10.951,2a4.827,4.827,0,0,1-3.489-1.3,4.493,4.493,0,0,1-1.354-3.393,4.483,4.483,0,0,1,1.349-3.393,5.364,5.364,0,0,1,6.42-.422,3.885,3.885,0,0,1,1.512,2.452l-2.338.255A2,2,0,0,0,64.2,10.18a2.3,2.3,0,0,0-1.371-.4,2.072,2.072,0,0,0-1.652.738,2.894,2.894,0,0,0-.633,1.951,2.9,2.9,0,0,0,.633,1.947,2.067,2.067,0,0,0,1.652.743,2.278,2.278,0,0,0,1.367-.4,2.05,2.05,0,0,0,.76-1.187l2.338.255a3.9,3.9,0,0,1-1.525,2.452A4.8,4.8,0,0,1,62.853,17.167ZM70.385,6.611a1.421,1.421,0,0,1-1.037-.426,1.4,1.4,0,0,1-.431-1.033,1.382,1.382,0,0,1,.435-1.024A1.425,1.425,0,0,1,70.385,3.7a1.463,1.463,0,0,1,1.45,1.45,1.463,1.463,0,0,1-1.45,1.459ZM69.093,17V7.965h2.549V17Zm9.378.176a5.681,5.681,0,0,1-2.558-.554A4.138,4.138,0,0,1,74.16,15a4.846,4.846,0,0,1-.637-2.522,4.42,4.42,0,0,1,1.371-3.428,5.731,5.731,0,0,1,7.163,0,4.42,4.42,0,0,1,1.371,3.428,4.444,4.444,0,0,1-1.371,3.441A5.088,5.088,0,0,1,78.471,17.176Zm-.026-2.013a2.319,2.319,0,0,0,1.789-.738,2.764,2.764,0,0,0,.681-1.951,2.764,2.764,0,0,0-.681-1.951,2.319,2.319,0,0,0-1.789-.738,2.234,2.234,0,0,0-1.736.743,2.789,2.789,0,0,0-.672,1.947,2.789,2.789,0,0,0,.672,1.947A2.234,2.234,0,0,0,78.444,15.163Zm11.514-1.784V11.261h6.3v2.118Zm17.657,3.788a4.827,4.827,0,0,1-3.489-1.3,4.493,4.493,0,0,1-1.354-3.393,4.483,4.483,0,0,1,1.349-3.393,5.364,5.364,0,0,1,6.42-.422,3.885,3.885,0,0,1,1.512,2.452l-2.338.255a2,2,0,0,0-.756-1.187,2.3,2.3,0,0,0-1.371-.4,2.072,2.072,0,0,0-1.652.738,2.894,2.894,0,0,0-.633,1.951,2.9,2.9,0,0,0,.633,1.947,2.067,2.067,0,0,0,1.652.743,2.278,2.278,0,0,0,1.367-.4,2.05,2.05,0,0,0,.76-1.187l2.338.255a3.9,3.9,0,0,1-1.525,2.452A4.8,4.8,0,0,1,107.615,17.167Zm12.226-9.2h2.531V17h-2.4l-.062-1.09a3.45,3.45,0,0,1-2.874,1.266,3.522,3.522,0,0,1-2.5-.813,3.014,3.014,0,0,1-.87-2.316V7.965h2.54V13.5a1.562,1.562,0,0,0,.453,1.239,1.718,1.718,0,0,0,1.173.4,2.038,2.038,0,0,0,1.437-.514,2.209,2.209,0,0,0,.567-1.674ZM124.991,17V3.5h2.558V17Zm8.543,0a2.729,2.729,0,0,1-2.039-.734,2.854,2.854,0,0,1-.721-2.087V9.907H129V7.965h.571a1.491,1.491,0,0,0,1.125-.378,1.946,1.946,0,0,0,.36-1.345v-1.2h2.285V7.965H135.2V9.907h-1.863v4q0,1.169,1.046,1.169h.817V17Zm9.615-9.035h2.531V17h-2.4l-.062-1.09a3.45,3.45,0,0,1-2.874,1.266,3.522,3.522,0,0,1-2.5-.813,3.014,3.014,0,0,1-.87-2.316V7.965h2.54V13.5a1.562,1.562,0,0,0,.453,1.239,1.718,1.718,0,0,0,1.173.4,2.038,2.038,0,0,0,1.437-.514,2.209,2.209,0,0,0,.567-1.674ZM150.726,9.4a2.933,2.933,0,0,1,1.187-1.085,3.62,3.62,0,0,1,1.767-.453v2.259a3.423,3.423,0,0,0-2.162.545,2.379,2.379,0,0,0-.668,1.934V17H148.3V7.965h2.426Zm11.795,5.15a8.453,8.453,0,0,0,.22,2.206V17h-2.364l-.2-.984a2.938,2.938,0,0,1-1.266.87,4.664,4.664,0,0,1-1.635.29,4.3,4.3,0,0,1-.844-.079,2.868,2.868,0,0,1-.76-.268,2.307,2.307,0,0,1-.628-.47,2.062,2.062,0,0,1-.422-.716,2.853,2.853,0,0,1-.158-.98,2.718,2.718,0,0,1,.167-.98,2.3,2.3,0,0,1,.439-.734,2.666,2.666,0,0,1,.712-.536,5.447,5.447,0,0,1,.9-.387,10.712,10.712,0,0,1,1.072-.281l1.485-.334a1.638,1.638,0,0,0,.672-.286.57.57,0,0,0,.2-.453.932.932,0,0,0-.444-.87,2.073,2.073,0,0,0-1.077-.264,1.549,1.549,0,0,0-1.767,1.38l-2.241-.4a3.034,3.034,0,0,1,1.31-2.061,5.2,5.2,0,0,1,2.839-.664q3.8,0,3.8,3.261Zm-4.456.914a2.036,2.036,0,0,0,1.564-.655,2.759,2.759,0,0,0,.606-1.938l-2.145.606a2.534,2.534,0,0,0-.9.369.758.758,0,0,0-.312.65.842.842,0,0,0,.334.716A1.382,1.382,0,0,0,158.064,15.462ZM164.981,17V3.5h2.558V17Zm13.676-4.649-.026.606h-6.7a2.339,2.339,0,0,0,.721,1.652,2.3,2.3,0,0,0,1.591.571,2.221,2.221,0,0,0,1.191-.312,1.918,1.918,0,0,0,.76-.91l2.32.343a3.945,3.945,0,0,1-1.582,2.118,4.7,4.7,0,0,1-2.672.756,4.891,4.891,0,0,1-3.52-1.244,4.538,4.538,0,0,1-1.305-3.45,4.565,4.565,0,0,1,1.31-3.45,4.746,4.746,0,0,1,3.437-1.261,4.536,4.536,0,0,1,3.243,1.151A4.517,4.517,0,0,1,178.657,12.351ZM174.2,9.564A2,2,0,0,0,172,11.3h4.148a1.9,1.9,0,0,0-.624-1.292A1.978,1.978,0,0,0,174.2,9.564Zm9.563,7.611a5.049,5.049,0,0,1-2.637-.633,2.675,2.675,0,0,1-1.292-1.881l2.118-.6a1.7,1.7,0,0,0,1.811,1.345,1.87,1.87,0,0,0,.923-.207.719.719,0,0,0,.36-.7.739.739,0,0,0-.149-.466,1.183,1.183,0,0,0-.461-.334,5.749,5.749,0,0,0-.615-.237q-.3-.1-.8-.233t-.835-.259a5.593,5.593,0,0,1-.8-.338,3.393,3.393,0,0,1-.659-.466,1.878,1.878,0,0,1-.492-.708,2.552,2.552,0,0,1-.171-.967,2.308,2.308,0,0,1,.98-2.021,4.379,4.379,0,0,1,2.562-.686,4.489,4.489,0,0,1,2.364.58,2.625,2.625,0,0,1,1.213,1.811l-1.96.439a1.535,1.535,0,0,0-1.608-1.143,1.761,1.761,0,0,0-.888.2.649.649,0,0,0-.352.6.685.685,0,0,0,.053.272.539.539,0,0,0,.185.22,2.692,2.692,0,0,0,.255.167,1.923,1.923,0,0,0,.36.145q.237.075.4.114l.461.119.47.123q.483.132.848.264a4.967,4.967,0,0,1,.778.369,2.792,2.792,0,0,1,.681.532,2.372,2.372,0,0,1,.444.747,2.759,2.759,0,0,1,.176,1.006,2.718,2.718,0,0,1-.3,1.31,2.276,2.276,0,0,1-.831.883,4.043,4.043,0,0,1-1.173.475A6.087,6.087,0,0,1,183.764,17.176Z" transform="translate(6018 -567)" fill="#00223d"/>
    <path id="Trazado_20165" data-name="Trazado 20165" d="M68.464,6.62H63.753V9.5h4.175V11.8H63.753v2.874h4.711V17H61.1V4.3h7.365Zm6.469,10.547a4.827,4.827,0,0,1-3.489-1.3,4.493,4.493,0,0,1-1.354-3.393,4.483,4.483,0,0,1,1.349-3.393,5.364,5.364,0,0,1,6.42-.422,3.885,3.885,0,0,1,1.512,2.452l-2.338.255a2,2,0,0,0-.756-1.187,2.3,2.3,0,0,0-1.371-.4,2.072,2.072,0,0,0-1.652.738,2.894,2.894,0,0,0-.633,1.951,2.9,2.9,0,0,0,.633,1.947,2.067,2.067,0,0,0,1.652.743,2.278,2.278,0,0,0,1.367-.4,2.05,2.05,0,0,0,.76-1.187l2.338.255a3.9,3.9,0,0,1-1.525,2.452A4.8,4.8,0,0,1,74.933,17.167Zm10.45.009a5.681,5.681,0,0,1-2.558-.554A4.138,4.138,0,0,1,81.072,15a4.846,4.846,0,0,1-.637-2.522,4.42,4.42,0,0,1,1.371-3.428,5.731,5.731,0,0,1,7.163,0,4.42,4.42,0,0,1,1.371,3.428,4.444,4.444,0,0,1-1.371,3.441A5.088,5.088,0,0,1,85.383,17.176Zm-.026-2.013a2.319,2.319,0,0,0,1.789-.738,2.764,2.764,0,0,0,.681-1.951,2.764,2.764,0,0,0-.681-1.951,2.319,2.319,0,0,0-1.789-.738,2.234,2.234,0,0,0-1.736.743,2.789,2.789,0,0,0-.672,1.947,2.789,2.789,0,0,0,.672,1.947A2.234,2.234,0,0,0,85.357,15.163Zm12.2-7.374a3.522,3.522,0,0,1,2.5.813,3.014,3.014,0,0,1,.87,2.316V17h-2.54V11.463a1.574,1.574,0,0,0-.453-1.248,1.705,1.705,0,0,0-1.165-.4,2.379,2.379,0,0,0-.756.114,1.942,1.942,0,0,0-.633.356,1.573,1.573,0,0,0-.453.681,3.15,3.15,0,0,0-.171,1.046V17H92.221V7.965h2.531v1A3.481,3.481,0,0,1,97.556,7.789ZM106.8,6.734,109.1,3.5l1.248.879-2,2.355Zm.782,10.441a5.681,5.681,0,0,1-2.558-.554A4.138,4.138,0,0,1,103.273,15a4.846,4.846,0,0,1-.637-2.522,4.42,4.42,0,0,1,1.371-3.428,5.731,5.731,0,0,1,7.163,0,4.42,4.42,0,0,1,1.371,3.428,4.444,4.444,0,0,1-1.371,3.441A5.088,5.088,0,0,1,107.584,17.176Zm-.026-2.013a2.319,2.319,0,0,0,1.789-.738,2.764,2.764,0,0,0,.681-1.951,2.764,2.764,0,0,0-.681-1.951,2.319,2.319,0,0,0-1.789-.738,2.234,2.234,0,0,0-1.736.743,2.789,2.789,0,0,0-.672,1.947,2.789,2.789,0,0,0,.672,1.947A2.234,2.234,0,0,0,107.558,15.163Zm17.569-7.374a3.452,3.452,0,0,1,2.329.734,2.626,2.626,0,0,1,.853,2.1V17h-2.531V11.349a1.509,1.509,0,0,0-.4-1.143,1.416,1.416,0,0,0-1.02-.387,1.633,1.633,0,0,0-1.23.492,2.235,2.235,0,0,0-.475,1.591V17h-2.558V11.375a1.549,1.549,0,0,0-.4-1.165,1.441,1.441,0,0,0-1.046-.391,1.581,1.581,0,0,0-1.222.519,2.476,2.476,0,0,0-.475,1.7V17h-2.522V7.965h2.522V9.028a3.072,3.072,0,0,1,2.619-1.239,3.863,3.863,0,0,1,1.7.347,2.315,2.315,0,0,1,1.068,1.006A3.2,3.2,0,0,1,125.127,7.789Zm6.935-1.178a1.421,1.421,0,0,1-1.037-.426,1.4,1.4,0,0,1-.431-1.033,1.382,1.382,0,0,1,.435-1.024,1.425,1.425,0,0,1,1.033-.426,1.463,1.463,0,0,1,1.45,1.45,1.463,1.463,0,0,1-1.45,1.459ZM130.77,17V7.965h2.549V17Zm9.255.167a4.827,4.827,0,0,1-3.489-1.3,4.493,4.493,0,0,1-1.354-3.393,4.483,4.483,0,0,1,1.349-3.393,5.364,5.364,0,0,1,6.42-.422,3.885,3.885,0,0,1,1.512,2.452l-2.338.255a2,2,0,0,0-.756-1.187,2.3,2.3,0,0,0-1.371-.4,2.072,2.072,0,0,0-1.652.738,2.894,2.894,0,0,0-.633,1.951,2.9,2.9,0,0,0,.633,1.947,2.067,2.067,0,0,0,1.652.743,2.278,2.278,0,0,0,1.367-.4,2.05,2.05,0,0,0,.76-1.187l2.338.255a3.9,3.9,0,0,1-1.525,2.452A4.8,4.8,0,0,1,140.025,17.167Zm13.649-2.619a8.453,8.453,0,0,0,.22,2.206V17H151.53l-.2-.984a2.938,2.938,0,0,1-1.266.87,4.664,4.664,0,0,1-1.635.29,4.3,4.3,0,0,1-.844-.079,2.868,2.868,0,0,1-.76-.268,2.307,2.307,0,0,1-.628-.47,2.062,2.062,0,0,1-.422-.716,2.853,2.853,0,0,1-.158-.98,2.718,2.718,0,0,1,.167-.98,2.3,2.3,0,0,1,.439-.734,2.666,2.666,0,0,1,.712-.536,5.447,5.447,0,0,1,.9-.387,10.712,10.712,0,0,1,1.072-.281l1.485-.334a1.638,1.638,0,0,0,.672-.286.57.57,0,0,0,.2-.453.932.932,0,0,0-.444-.87,2.073,2.073,0,0,0-1.077-.264,1.549,1.549,0,0,0-1.767,1.38l-2.241-.4a3.034,3.034,0,0,1,1.31-2.061,5.2,5.2,0,0,1,2.839-.664q3.8,0,3.8,3.261Zm-4.456.914a2.036,2.036,0,0,0,1.564-.655,2.759,2.759,0,0,0,.606-1.938l-2.145.606a2.534,2.534,0,0,0-.9.369.758.758,0,0,0-.312.65.842.842,0,0,0,.334.716A1.382,1.382,0,0,0,149.218,15.462Zm10.1,1.714a5.049,5.049,0,0,1-2.637-.633,2.675,2.675,0,0,1-1.292-1.881l2.118-.6a1.7,1.7,0,0,0,1.811,1.345,1.87,1.87,0,0,0,.923-.207.719.719,0,0,0,.36-.7.739.739,0,0,0-.149-.466,1.183,1.183,0,0,0-.461-.334,5.749,5.749,0,0,0-.615-.237q-.3-.1-.8-.233t-.835-.259a5.593,5.593,0,0,1-.8-.338,3.393,3.393,0,0,1-.659-.466,1.878,1.878,0,0,1-.492-.708,2.552,2.552,0,0,1-.171-.967,2.308,2.308,0,0,1,.98-2.021,4.379,4.379,0,0,1,2.562-.686,4.489,4.489,0,0,1,2.364.58,2.625,2.625,0,0,1,1.213,1.811l-1.96.439a1.535,1.535,0,0,0-1.608-1.143,1.761,1.761,0,0,0-.888.2.649.649,0,0,0-.352.6.685.685,0,0,0,.053.272.539.539,0,0,0,.185.22,2.692,2.692,0,0,0,.255.167,1.923,1.923,0,0,0,.36.145q.237.075.4.114l.461.119.47.123q.483.132.848.264a4.967,4.967,0,0,1,.778.369,2.792,2.792,0,0,1,.681.532,2.372,2.372,0,0,1,.444.747,2.759,2.759,0,0,1,.176,1.006,2.718,2.718,0,0,1-.3,1.31,2.276,2.276,0,0,1-.831.883,4.043,4.043,0,0,1-1.173.475A6.087,6.087,0,0,1,159.317,17.176Z" transform="translate(5991 -470)" fill="#00223d"/>
    <path id="Trazado_20166" data-name="Trazado 20166" d="M79.078,4.3A3.822,3.822,0,0,1,82,5.482,4.112,4.112,0,0,1,83.112,8.4a4.011,4.011,0,0,1-1.1,2.9,3.891,3.891,0,0,1-2.936,1.138H76.432V17H73.8V4.3Zm-.439,5.941a1.938,1.938,0,0,0,1.45-.5,1.888,1.888,0,0,0,.483-1.375,1.873,1.873,0,0,0-.488-1.358,1.92,1.92,0,0,0-1.446-.505H76.432v3.735ZM88.9,17.176a5.681,5.681,0,0,1-2.558-.554A4.138,4.138,0,0,1,84.584,15a4.846,4.846,0,0,1-.637-2.522,4.42,4.42,0,0,1,1.371-3.428,5.731,5.731,0,0,1,7.163,0,4.42,4.42,0,0,1,1.371,3.428,4.444,4.444,0,0,1-1.371,3.441A5.088,5.088,0,0,1,88.9,17.176Zm-.026-2.013a2.319,2.319,0,0,0,1.789-.738,2.764,2.764,0,0,0,.681-1.951,2.764,2.764,0,0,0-.681-1.951,2.319,2.319,0,0,0-1.789-.738,2.234,2.234,0,0,0-1.736.743,2.789,2.789,0,0,0-.672,1.947,2.789,2.789,0,0,0,.672,1.947A2.234,2.234,0,0,0,88.869,15.163ZM95.733,17V3.5h2.558V17Zm5.678-10.274,2.3-3.234,1.248.879-2,2.355ZM100.91,17V7.965h2.549V17Zm8.534,0a2.729,2.729,0,0,1-2.039-.734,2.854,2.854,0,0,1-.721-2.087V9.907h-1.775V7.965h.571a1.491,1.491,0,0,0,1.125-.378,1.946,1.946,0,0,0,.36-1.345v-1.2h2.285V7.965h1.863V9.907H109.25v4q0,1.169,1.046,1.169h.817V17Zm4.922-10.389a1.421,1.421,0,0,1-1.037-.426,1.4,1.4,0,0,1-.431-1.033,1.382,1.382,0,0,1,.435-1.024,1.425,1.425,0,0,1,1.033-.426,1.463,1.463,0,0,1,1.45,1.45,1.463,1.463,0,0,1-1.45,1.459ZM113.074,17V7.965h2.549V17Zm9.255.167a4.827,4.827,0,0,1-3.489-1.3,4.493,4.493,0,0,1-1.354-3.393,4.483,4.483,0,0,1,1.349-3.393,5.364,5.364,0,0,1,6.42-.422,3.885,3.885,0,0,1,1.512,2.452l-2.338.255a2,2,0,0,0-.756-1.187,2.3,2.3,0,0,0-1.371-.4,2.072,2.072,0,0,0-1.652.738,2.894,2.894,0,0,0-.633,1.951,2.9,2.9,0,0,0,.633,1.947,2.067,2.067,0,0,0,1.652.743,2.278,2.278,0,0,0,1.367-.4,2.05,2.05,0,0,0,.76-1.187l2.338.255a3.9,3.9,0,0,1-1.525,2.452A4.8,4.8,0,0,1,122.329,17.167Zm13.649-2.619a8.453,8.453,0,0,0,.22,2.206V17h-2.364l-.2-.984a2.938,2.938,0,0,1-1.266.87,4.664,4.664,0,0,1-1.635.29,4.3,4.3,0,0,1-.844-.079,2.868,2.868,0,0,1-.76-.268,2.307,2.307,0,0,1-.628-.47,2.062,2.062,0,0,1-.422-.716,2.853,2.853,0,0,1-.158-.98,2.718,2.718,0,0,1,.167-.98,2.3,2.3,0,0,1,.439-.734,2.666,2.666,0,0,1,.712-.536,5.447,5.447,0,0,1,.9-.387,10.712,10.712,0,0,1,1.072-.281l1.485-.334a1.638,1.638,0,0,0,.672-.286.57.57,0,0,0,.2-.453.932.932,0,0,0-.444-.87,2.073,2.073,0,0,0-1.077-.264,1.549,1.549,0,0,0-1.767,1.38l-2.241-.4a3.034,3.034,0,0,1,1.31-2.061,5.2,5.2,0,0,1,2.839-.664q3.8,0,3.8,3.261Zm-4.456.914a2.036,2.036,0,0,0,1.564-.655,2.759,2.759,0,0,0,.606-1.938l-2.145.606a2.534,2.534,0,0,0-.9.369.758.758,0,0,0-.312.65.842.842,0,0,0,.334.716A1.382,1.382,0,0,0,131.522,15.462Zm10.1,1.714a5.049,5.049,0,0,1-2.637-.633,2.675,2.675,0,0,1-1.292-1.881l2.118-.6a1.7,1.7,0,0,0,1.811,1.345,1.87,1.87,0,0,0,.923-.207.719.719,0,0,0,.36-.7.739.739,0,0,0-.149-.466,1.183,1.183,0,0,0-.461-.334,5.749,5.749,0,0,0-.615-.237q-.3-.1-.8-.233t-.835-.259a5.593,5.593,0,0,1-.8-.338,3.393,3.393,0,0,1-.659-.466,1.878,1.878,0,0,1-.492-.708,2.552,2.552,0,0,1-.171-.967,2.308,2.308,0,0,1,.98-2.021,4.379,4.379,0,0,1,2.562-.686,4.489,4.489,0,0,1,2.364.58,2.625,2.625,0,0,1,1.213,1.811l-1.96.439a1.535,1.535,0,0,0-1.608-1.143,1.761,1.761,0,0,0-.888.2.649.649,0,0,0-.352.6.685.685,0,0,0,.053.272.539.539,0,0,0,.185.22,2.692,2.692,0,0,0,.255.167,1.923,1.923,0,0,0,.36.145q.237.075.4.114l.461.119.47.123q.483.132.848.264a4.967,4.967,0,0,1,.778.369,2.792,2.792,0,0,1,.681.532,2.372,2.372,0,0,1,.444.747,2.759,2.759,0,0,1,.176,1.006,2.718,2.718,0,0,1-.3,1.31,2.276,2.276,0,0,1-.831.883,4.043,4.043,0,0,1-1.173.475A6.087,6.087,0,0,1,141.621,17.176Z" transform="translate(6018 -370)" fill="#00223d"/>
    <path id="Trazado_20167" data-name="Trazado 20167" d="M54.4,17V4.3h4.6a7.166,7.166,0,0,1,2.65.457,4.881,4.881,0,0,1,1.9,1.3,5.64,5.64,0,0,1,1.125,2,8.255,8.255,0,0,1,.382,2.593,8.286,8.286,0,0,1-.382,2.6,5.64,5.64,0,0,1-1.125,2,4.881,4.881,0,0,1-1.9,1.3,7.166,7.166,0,0,1-2.65.457Zm2.637-2.329H58.86a3.12,3.12,0,0,0,2.566-1.033,4.629,4.629,0,0,0,.844-2.993,4.629,4.629,0,0,0-.844-2.993A3.12,3.12,0,0,0,58.86,6.62H57.032Zm18.65-2.32-.026.606h-6.7a2.339,2.339,0,0,0,.721,1.652,2.3,2.3,0,0,0,1.591.571,2.221,2.221,0,0,0,1.191-.312,1.918,1.918,0,0,0,.76-.91l2.32.343A3.945,3.945,0,0,1,73.96,16.42a4.7,4.7,0,0,1-2.672.756,4.891,4.891,0,0,1-3.52-1.244,4.538,4.538,0,0,1-1.305-3.45,4.565,4.565,0,0,1,1.31-3.45,4.746,4.746,0,0,1,3.437-1.261,4.536,4.536,0,0,1,3.243,1.151A4.517,4.517,0,0,1,75.683,12.351ZM71.227,9.564a2,2,0,0,0-2.2,1.74h4.148a1.9,1.9,0,0,0-.624-1.292A1.978,1.978,0,0,0,71.227,9.564ZM88.313,7.789a3.452,3.452,0,0,1,2.329.734,2.626,2.626,0,0,1,.853,2.1V17H88.963V11.349a1.509,1.509,0,0,0-.4-1.143,1.416,1.416,0,0,0-1.02-.387,1.633,1.633,0,0,0-1.23.492,2.235,2.235,0,0,0-.475,1.591V17H83.276V11.375a1.549,1.549,0,0,0-.4-1.165,1.441,1.441,0,0,0-1.046-.391,1.581,1.581,0,0,0-1.222.519,2.476,2.476,0,0,0-.475,1.7V17H77.607V7.965H80.13V9.028a3.072,3.072,0,0,1,2.619-1.239,3.863,3.863,0,0,1,1.7.347,2.315,2.315,0,0,1,1.068,1.006A3.2,3.2,0,0,1,88.313,7.789Zm9.853,9.387a5.681,5.681,0,0,1-2.558-.554A4.138,4.138,0,0,1,93.854,15a4.846,4.846,0,0,1-.637-2.522,4.42,4.42,0,0,1,1.371-3.428,5.731,5.731,0,0,1,7.163,0,4.42,4.42,0,0,1,1.371,3.428,4.444,4.444,0,0,1-1.371,3.441A5.088,5.088,0,0,1,98.165,17.176Zm-.026-2.013a2.319,2.319,0,0,0,1.789-.738,2.764,2.764,0,0,0,.681-1.951,2.764,2.764,0,0,0-.681-1.951,2.319,2.319,0,0,0-1.789-.738,2.234,2.234,0,0,0-1.736.743,2.789,2.789,0,0,0-.672,1.947A2.789,2.789,0,0,0,96.4,14.42,2.234,2.234,0,0,0,98.139,15.163Zm13.087-7.2h2.408v8.358a6.759,6.759,0,0,1-.338,2.25,3.711,3.711,0,0,1-.98,1.542,4.085,4.085,0,0,1-1.5.866,6.336,6.336,0,0,1-1.969.281q-3.577,0-4.658-2.8l2.1-.9a3.065,3.065,0,0,0,.976,1.31,2.487,2.487,0,0,0,1.485.422q2.347,0,2.347-2.786V15.453a2.846,2.846,0,0,1-1.138.892,3.784,3.784,0,0,1-1.6.338,4.046,4.046,0,0,1-2.9-1.217,4.174,4.174,0,0,1-.892-1.419,5.247,5.247,0,0,1,0-3.661,4.006,4.006,0,0,1,.9-1.4,4.125,4.125,0,0,1,1.318-.879,4.069,4.069,0,0,1,1.6-.316,3.674,3.674,0,0,1,1.674.374,2.67,2.67,0,0,1,1.121,1Zm-3.88,5.977a2.319,2.319,0,0,0,3.318-.009,2.526,2.526,0,0,0,0-3.437,2.34,2.34,0,0,0-3.331-.013,2.4,2.4,0,0,0-.664,1.736A2.379,2.379,0,0,0,107.345,13.941ZM118.688,9.4a2.933,2.933,0,0,1,1.187-1.085,3.62,3.62,0,0,1,1.767-.453v2.259a3.423,3.423,0,0,0-2.162.545,2.379,2.379,0,0,0-.668,1.934V17h-2.549V7.965h2.426ZM129.5,4.37l-2,2.355h-1.556l2.3-3.234Zm.984,10.178a8.453,8.453,0,0,0,.22,2.206V17h-2.364l-.2-.984a2.938,2.938,0,0,1-1.266.87,4.664,4.664,0,0,1-1.635.29,4.3,4.3,0,0,1-.844-.079,2.868,2.868,0,0,1-.76-.268,2.307,2.307,0,0,1-.628-.47,2.062,2.062,0,0,1-.422-.716,2.853,2.853,0,0,1-.158-.98,2.718,2.718,0,0,1,.167-.98,2.3,2.3,0,0,1,.439-.734,2.666,2.666,0,0,1,.712-.536,5.447,5.447,0,0,1,.9-.387,10.712,10.712,0,0,1,1.072-.281l1.485-.334a1.638,1.638,0,0,0,.672-.286.57.57,0,0,0,.2-.453.932.932,0,0,0-.444-.87,2.073,2.073,0,0,0-1.077-.264,1.549,1.549,0,0,0-1.767,1.38l-2.241-.4a3.034,3.034,0,0,1,1.31-2.061,5.2,5.2,0,0,1,2.839-.664q3.8,0,3.8,3.261Zm-4.456.914a2.036,2.036,0,0,0,1.564-.655,2.759,2.759,0,0,0,.606-1.938l-2.145.606a2.534,2.534,0,0,0-.9.369.758.758,0,0,0-.312.65.842.842,0,0,0,.334.716A1.382,1.382,0,0,0,126.026,15.462Zm7.55-8.473a5.284,5.284,0,0,1,.114-1.151A3.5,3.5,0,0,1,134,4.963a2.047,2.047,0,0,1,.514-.628,3.034,3.034,0,0,1,.668-.422,3.817,3.817,0,0,1,.831-.255,7.285,7.285,0,0,1,.954-.127q.47-.031,1.077-.031V5.521h-.053q-.246,0-.374,0t-.36.031a1.459,1.459,0,0,0-.365.079,1.859,1.859,0,0,0-.3.163.809.809,0,0,0-.264.264,1.593,1.593,0,0,0-.158.391A2.042,2.042,0,0,0,136.1,7v.967h1.942V9.907H136.1V17h-2.522V9.907H131.81V7.965h1.767Zm7.189-.378a1.421,1.421,0,0,1-1.037-.426,1.4,1.4,0,0,1-.431-1.033,1.382,1.382,0,0,1,.435-1.024,1.425,1.425,0,0,1,1.033-.426,1.463,1.463,0,0,1,1.45,1.45,1.463,1.463,0,0,1-1.45,1.459ZM139.474,17V7.965h2.549V17Zm9.255.167a4.827,4.827,0,0,1-3.489-1.3,4.493,4.493,0,0,1-1.354-3.393,4.483,4.483,0,0,1,1.349-3.393,5.364,5.364,0,0,1,6.42-.422,3.885,3.885,0,0,1,1.512,2.452l-2.338.255a2,2,0,0,0-.756-1.187,2.3,2.3,0,0,0-1.371-.4,2.072,2.072,0,0,0-1.652.738,2.894,2.894,0,0,0-.633,1.951,2.9,2.9,0,0,0,.633,1.947,2.067,2.067,0,0,0,1.652.743,2.278,2.278,0,0,0,1.367-.4,2.05,2.05,0,0,0,.76-1.187l2.338.255a3.9,3.9,0,0,1-1.525,2.452A4.8,4.8,0,0,1,148.729,17.167Zm13.649-2.619a8.453,8.453,0,0,0,.22,2.206V17h-2.364l-.2-.984a2.938,2.938,0,0,1-1.266.87,4.664,4.664,0,0,1-1.635.29,4.3,4.3,0,0,1-.844-.079,2.868,2.868,0,0,1-.76-.268,2.307,2.307,0,0,1-.628-.47,2.062,2.062,0,0,1-.422-.716,2.853,2.853,0,0,1-.158-.98,2.718,2.718,0,0,1,.167-.98,2.3,2.3,0,0,1,.439-.734,2.666,2.666,0,0,1,.712-.536,5.447,5.447,0,0,1,.9-.387,10.712,10.712,0,0,1,1.072-.281l1.485-.334a1.638,1.638,0,0,0,.672-.286.57.57,0,0,0,.2-.453.932.932,0,0,0-.444-.87,2.073,2.073,0,0,0-1.077-.264,1.549,1.549,0,0,0-1.767,1.38l-2.241-.4a3.034,3.034,0,0,1,1.31-2.061,5.2,5.2,0,0,1,2.839-.664q3.8,0,3.8,3.261Zm-4.456.914a2.036,2.036,0,0,0,1.564-.655,2.759,2.759,0,0,0,.606-1.938l-2.145.606a2.534,2.534,0,0,0-.9.369.758.758,0,0,0-.312.65.842.842,0,0,0,.334.716A1.382,1.382,0,0,0,157.922,15.462Zm10.1,1.714a5.049,5.049,0,0,1-2.637-.633,2.675,2.675,0,0,1-1.292-1.881l2.118-.6a1.7,1.7,0,0,0,1.811,1.345,1.87,1.87,0,0,0,.923-.207.719.719,0,0,0,.36-.7.739.739,0,0,0-.149-.466,1.183,1.183,0,0,0-.461-.334,5.749,5.749,0,0,0-.615-.237q-.3-.1-.8-.233t-.835-.259a5.593,5.593,0,0,1-.8-.338,3.393,3.393,0,0,1-.659-.466,1.878,1.878,0,0,1-.492-.708,2.552,2.552,0,0,1-.171-.967,2.308,2.308,0,0,1,.98-2.021,4.379,4.379,0,0,1,2.562-.686,4.489,4.489,0,0,1,2.364.58,2.625,2.625,0,0,1,1.213,1.811l-1.96.439a1.535,1.535,0,0,0-1.608-1.143,1.761,1.761,0,0,0-.888.2.649.649,0,0,0-.352.6.685.685,0,0,0,.053.272.539.539,0,0,0,.185.22,2.692,2.692,0,0,0,.255.167,1.923,1.923,0,0,0,.36.145q.237.075.4.114l.461.119.47.123q.483.132.848.264a4.967,4.967,0,0,1,.778.369,2.792,2.792,0,0,1,.681.532,2.372,2.372,0,0,1,.444.747,2.759,2.759,0,0,1,.176,1.006,2.718,2.718,0,0,1-.3,1.31,2.276,2.276,0,0,1-.831.883,4.043,4.043,0,0,1-1.173.475A6.087,6.087,0,0,1,168.021,17.176Z" transform="translate(6467 -566)" fill="#00223d"/>
    <path id="Trazado_20168" data-name="Trazado 20168" d="M75,6.62H70.286V9.5h4.175V11.8H70.286v2.874H75V17H67.632V4.3H75Zm6.469,10.547a4.827,4.827,0,0,1-3.489-1.3,4.493,4.493,0,0,1-1.354-3.393,4.483,4.483,0,0,1,1.349-3.393,5.364,5.364,0,0,1,6.42-.422A3.885,3.885,0,0,1,85.9,11.111l-2.338.255a2,2,0,0,0-.756-1.187,2.3,2.3,0,0,0-1.371-.4,2.072,2.072,0,0,0-1.652.738,2.894,2.894,0,0,0-.633,1.951,2.9,2.9,0,0,0,.633,1.947,2.067,2.067,0,0,0,1.652.743,2.278,2.278,0,0,0,1.367-.4,2.05,2.05,0,0,0,.76-1.187l2.338.255a3.9,3.9,0,0,1-1.525,2.452A4.8,4.8,0,0,1,81.466,17.167Zm10.45.009a5.681,5.681,0,0,1-2.558-.554A4.138,4.138,0,0,1,87.6,15a4.846,4.846,0,0,1-.637-2.522,4.42,4.42,0,0,1,1.371-3.428,5.731,5.731,0,0,1,7.163,0,4.42,4.42,0,0,1,1.371,3.428A4.444,4.444,0,0,1,95.5,15.915,5.088,5.088,0,0,1,91.916,17.176Zm-.026-2.013a2.319,2.319,0,0,0,1.789-.738,2.764,2.764,0,0,0,.681-1.951,2.764,2.764,0,0,0-.681-1.951,2.319,2.319,0,0,0-1.789-.738,2.234,2.234,0,0,0-1.736.743,2.789,2.789,0,0,0-.672,1.947,2.789,2.789,0,0,0,.672,1.947A2.234,2.234,0,0,0,91.89,15.163ZM98.754,17V3.5h2.558V17Zm8.6-10.266,2.3-3.234,1.248.879-2,2.355Zm.782,10.441a5.681,5.681,0,0,1-2.558-.554A4.138,4.138,0,0,1,103.83,15a4.846,4.846,0,0,1-.637-2.522,4.42,4.42,0,0,1,1.371-3.428,5.731,5.731,0,0,1,7.163,0,4.42,4.42,0,0,1,1.371,3.428,4.444,4.444,0,0,1-1.371,3.441A5.088,5.088,0,0,1,108.141,17.176Zm-.026-2.013a2.319,2.319,0,0,0,1.789-.738,2.764,2.764,0,0,0,.681-1.951,2.764,2.764,0,0,0-.681-1.951,2.319,2.319,0,0,0-1.789-.738,2.234,2.234,0,0,0-1.736.743,2.789,2.789,0,0,0-.672,1.947,2.789,2.789,0,0,0,.672,1.947A2.234,2.234,0,0,0,108.114,15.163Zm13.087-7.2h2.408v8.358a6.759,6.759,0,0,1-.338,2.25,3.711,3.711,0,0,1-.98,1.542,4.085,4.085,0,0,1-1.5.866,6.336,6.336,0,0,1-1.969.281q-3.577,0-4.658-2.8l2.1-.9a3.065,3.065,0,0,0,.976,1.31,2.487,2.487,0,0,0,1.485.422q2.347,0,2.347-2.786V15.453a2.846,2.846,0,0,1-1.138.892,3.784,3.784,0,0,1-1.6.338,4.046,4.046,0,0,1-2.9-1.217,4.174,4.174,0,0,1-.892-1.419,5.247,5.247,0,0,1,0-3.661,4.006,4.006,0,0,1,.9-1.4,4.125,4.125,0,0,1,1.318-.879,4.069,4.069,0,0,1,1.6-.316,3.674,3.674,0,0,1,1.674.374,2.67,2.67,0,0,1,1.121,1Zm-3.88,5.977a2.319,2.319,0,0,0,3.318-.009,2.526,2.526,0,0,0,0-3.437,2.34,2.34,0,0,0-3.331-.013,2.4,2.4,0,0,0-.664,1.736A2.379,2.379,0,0,0,117.321,13.941Zm10.208-7.33a1.421,1.421,0,0,1-1.037-.426,1.4,1.4,0,0,1-.431-1.033,1.382,1.382,0,0,1,.435-1.024,1.425,1.425,0,0,1,1.033-.426,1.463,1.463,0,0,1,1.45,1.45,1.463,1.463,0,0,1-1.45,1.459ZM126.237,17V7.965h2.549V17Zm9.255.167a4.827,4.827,0,0,1-3.489-1.3,4.493,4.493,0,0,1-1.354-3.393A4.483,4.483,0,0,1,132,9.081a5.364,5.364,0,0,1,6.42-.422,3.885,3.885,0,0,1,1.512,2.452l-2.338.255a2,2,0,0,0-.756-1.187,2.3,2.3,0,0,0-1.371-.4,2.072,2.072,0,0,0-1.652.738,2.894,2.894,0,0,0-.633,1.951,2.9,2.9,0,0,0,.633,1.947,2.067,2.067,0,0,0,1.652.743,2.278,2.278,0,0,0,1.367-.4,2.05,2.05,0,0,0,.76-1.187l2.338.255a3.9,3.9,0,0,1-1.525,2.452A4.8,4.8,0,0,1,135.492,17.167Zm13.649-2.619a8.453,8.453,0,0,0,.22,2.206V17H147l-.2-.984a2.938,2.938,0,0,1-1.266.87,4.664,4.664,0,0,1-1.635.29,4.3,4.3,0,0,1-.844-.079,2.868,2.868,0,0,1-.76-.268,2.307,2.307,0,0,1-.628-.47,2.062,2.062,0,0,1-.422-.716,2.853,2.853,0,0,1-.158-.98,2.718,2.718,0,0,1,.167-.98,2.3,2.3,0,0,1,.439-.734,2.666,2.666,0,0,1,.712-.536,5.447,5.447,0,0,1,.9-.387,10.712,10.712,0,0,1,1.072-.281l1.485-.334a1.638,1.638,0,0,0,.672-.286.57.57,0,0,0,.2-.453.932.932,0,0,0-.444-.87,2.073,2.073,0,0,0-1.077-.264,1.549,1.549,0,0,0-1.767,1.38l-2.241-.4a3.034,3.034,0,0,1,1.31-2.061,5.2,5.2,0,0,1,2.839-.664q3.8,0,3.8,3.261Zm-4.456.914a2.036,2.036,0,0,0,1.564-.655,2.759,2.759,0,0,0,.606-1.938l-2.145.606a2.534,2.534,0,0,0-.9.369.758.758,0,0,0-.312.65.842.842,0,0,0,.334.716A1.382,1.382,0,0,0,144.686,15.462Zm10.1,1.714a5.049,5.049,0,0,1-2.637-.633,2.675,2.675,0,0,1-1.292-1.881l2.118-.6a1.7,1.7,0,0,0,1.811,1.345,1.87,1.87,0,0,0,.923-.207.719.719,0,0,0,.36-.7.739.739,0,0,0-.149-.466,1.183,1.183,0,0,0-.461-.334,5.749,5.749,0,0,0-.615-.237q-.3-.1-.8-.233t-.835-.259a5.593,5.593,0,0,1-.8-.338,3.393,3.393,0,0,1-.659-.466,1.878,1.878,0,0,1-.492-.708,2.552,2.552,0,0,1-.171-.967,2.308,2.308,0,0,1,.98-2.021,4.379,4.379,0,0,1,2.562-.686,4.489,4.489,0,0,1,2.364.58A2.625,2.625,0,0,1,158.2,10.18l-1.96.439a1.535,1.535,0,0,0-1.608-1.143,1.761,1.761,0,0,0-.888.2.649.649,0,0,0-.352.6.685.685,0,0,0,.053.272.539.539,0,0,0,.185.22,2.692,2.692,0,0,0,.255.167,1.923,1.923,0,0,0,.36.145q.237.075.4.114l.461.119.47.123q.483.132.848.264a4.967,4.967,0,0,1,.778.369,2.792,2.792,0,0,1,.681.532,2.372,2.372,0,0,1,.444.747,2.759,2.759,0,0,1,.176,1.006,2.718,2.718,0,0,1-.3,1.31,2.276,2.276,0,0,1-.831.883,4.043,4.043,0,0,1-1.173.475A6.087,6.087,0,0,1,154.784,17.176Z" transform="translate(6498 -470)" fill="#00223d"/>
    <path id="Trazado_20169" data-name="Trazado 20169" d="M65.29,4.3V6.62H62.275V17h-2.61V6.62H56.632V4.3Zm8.719,8.051-.026.606h-6.7a2.339,2.339,0,0,0,.721,1.652,2.3,2.3,0,0,0,1.591.571,2.221,2.221,0,0,0,1.191-.312,1.918,1.918,0,0,0,.76-.91l2.32.343a3.945,3.945,0,0,1-1.582,2.118,4.7,4.7,0,0,1-2.672.756,4.891,4.891,0,0,1-3.52-1.244,4.538,4.538,0,0,1-1.305-3.45,4.565,4.565,0,0,1,1.31-3.45,4.746,4.746,0,0,1,3.437-1.261,4.536,4.536,0,0,1,3.243,1.151A4.517,4.517,0,0,1,74.008,12.351ZM69.552,9.564a2,2,0,0,0-2.2,1.74H71.5a1.9,1.9,0,0,0-.624-1.292A1.978,1.978,0,0,0,69.552,9.564Zm10.468,7.6a4.827,4.827,0,0,1-3.489-1.3,4.493,4.493,0,0,1-1.354-3.393,4.483,4.483,0,0,1,1.349-3.393,5.364,5.364,0,0,1,6.42-.422,3.885,3.885,0,0,1,1.512,2.452l-2.338.255a2,2,0,0,0-.756-1.187,2.3,2.3,0,0,0-1.371-.4,2.072,2.072,0,0,0-1.652.738,2.894,2.894,0,0,0-.633,1.951,2.9,2.9,0,0,0,.633,1.947,2.067,2.067,0,0,0,1.652.743,2.278,2.278,0,0,0,1.367-.4,2.05,2.05,0,0,0,.76-1.187l2.338.255a3.9,3.9,0,0,1-1.525,2.452A4.8,4.8,0,0,1,80.02,17.167ZM91.6,7.789a3.522,3.522,0,0,1,2.5.813,3.014,3.014,0,0,1,.87,2.316V17h-2.54V11.463a1.574,1.574,0,0,0-.453-1.248,1.705,1.705,0,0,0-1.165-.4,2.379,2.379,0,0,0-.756.114,1.942,1.942,0,0,0-.633.356,1.573,1.573,0,0,0-.453.681,3.15,3.15,0,0,0-.171,1.046V17H86.26V7.965h2.531v1A3.481,3.481,0,0,1,91.6,7.789Zm10.028,9.387a5.681,5.681,0,0,1-2.558-.554A4.138,4.138,0,0,1,97.313,15a4.846,4.846,0,0,1-.637-2.522,4.42,4.42,0,0,1,1.371-3.428,5.731,5.731,0,0,1,7.163,0,4.42,4.42,0,0,1,1.371,3.428,4.444,4.444,0,0,1-1.371,3.441A5.088,5.088,0,0,1,101.624,17.176Zm-.026-2.013a2.319,2.319,0,0,0,1.789-.738,2.764,2.764,0,0,0,.681-1.951,2.764,2.764,0,0,0-.681-1.951,2.319,2.319,0,0,0-1.789-.738,2.234,2.234,0,0,0-1.736.743,2.789,2.789,0,0,0-.672,1.947,2.789,2.789,0,0,0,.672,1.947A2.234,2.234,0,0,0,101.6,15.163ZM108.461,17V3.5h2.558V17Zm8.6-10.266,2.3-3.234,1.248.879-2,2.355Zm.782,10.441a5.681,5.681,0,0,1-2.558-.554A4.138,4.138,0,0,1,113.537,15a4.846,4.846,0,0,1-.637-2.522,4.42,4.42,0,0,1,1.371-3.428,5.731,5.731,0,0,1,7.163,0,4.42,4.42,0,0,1,1.371,3.428,4.444,4.444,0,0,1-1.371,3.441A5.088,5.088,0,0,1,117.848,17.176Zm-.026-2.013a2.319,2.319,0,0,0,1.789-.738,2.764,2.764,0,0,0,.681-1.951,2.764,2.764,0,0,0-.681-1.951,2.319,2.319,0,0,0-1.789-.738,2.234,2.234,0,0,0-1.736.743,2.789,2.789,0,0,0-.672,1.947,2.789,2.789,0,0,0,.672,1.947A2.234,2.234,0,0,0,117.822,15.163Zm13.087-7.2h2.408v8.358a6.759,6.759,0,0,1-.338,2.25,3.711,3.711,0,0,1-.98,1.542,4.085,4.085,0,0,1-1.5.866,6.336,6.336,0,0,1-1.969.281q-3.577,0-4.658-2.8l2.1-.9a3.065,3.065,0,0,0,.976,1.31,2.487,2.487,0,0,0,1.485.422q2.347,0,2.347-2.786V15.453a2.846,2.846,0,0,1-1.138.892,3.784,3.784,0,0,1-1.6.338,4.046,4.046,0,0,1-2.9-1.217,4.174,4.174,0,0,1-.892-1.419,5.247,5.247,0,0,1,0-3.661,4.006,4.006,0,0,1,.9-1.4,4.125,4.125,0,0,1,1.318-.879,4.069,4.069,0,0,1,1.6-.316,3.674,3.674,0,0,1,1.674.374,2.67,2.67,0,0,1,1.121,1Zm-3.88,5.977a2.319,2.319,0,0,0,3.318-.009,2.526,2.526,0,0,0,0-3.437,2.34,2.34,0,0,0-3.331-.013,2.4,2.4,0,0,0-.664,1.736A2.379,2.379,0,0,0,127.028,13.941Zm10.208-7.33a1.421,1.421,0,0,1-1.037-.426,1.4,1.4,0,0,1-.431-1.033,1.382,1.382,0,0,1,.435-1.024,1.425,1.425,0,0,1,1.033-.426,1.463,1.463,0,0,1,1.45,1.45,1.463,1.463,0,0,1-1.45,1.459ZM135.945,17V7.965h2.549V17Zm9.255.167a4.827,4.827,0,0,1-3.489-1.3,4.493,4.493,0,0,1-1.354-3.393,4.483,4.483,0,0,1,1.349-3.393,5.364,5.364,0,0,1,6.42-.422,3.885,3.885,0,0,1,1.512,2.452l-2.338.255a2,2,0,0,0-.756-1.187,2.3,2.3,0,0,0-1.371-.4,2.072,2.072,0,0,0-1.652.738,2.894,2.894,0,0,0-.633,1.951,2.9,2.9,0,0,0,.633,1.947,2.067,2.067,0,0,0,1.652.743,2.278,2.278,0,0,0,1.367-.4,2.05,2.05,0,0,0,.76-1.187l2.338.255a3.9,3.9,0,0,1-1.525,2.452A4.8,4.8,0,0,1,145.2,17.167Zm13.649-2.619a8.453,8.453,0,0,0,.22,2.206V17H156.7l-.2-.984a2.938,2.938,0,0,1-1.266.87,4.664,4.664,0,0,1-1.635.29,4.3,4.3,0,0,1-.844-.079,2.868,2.868,0,0,1-.76-.268,2.307,2.307,0,0,1-.628-.47,2.062,2.062,0,0,1-.422-.716,2.853,2.853,0,0,1-.158-.98,2.718,2.718,0,0,1,.167-.98,2.3,2.3,0,0,1,.439-.734,2.666,2.666,0,0,1,.712-.536,5.447,5.447,0,0,1,.9-.387,10.712,10.712,0,0,1,1.072-.281l1.485-.334a1.638,1.638,0,0,0,.672-.286.57.57,0,0,0,.2-.453.932.932,0,0,0-.444-.87,2.073,2.073,0,0,0-1.077-.264,1.549,1.549,0,0,0-1.767,1.38l-2.241-.4a3.034,3.034,0,0,1,1.31-2.061,5.2,5.2,0,0,1,2.839-.664q3.8,0,3.8,3.261Zm-4.456.914a2.036,2.036,0,0,0,1.564-.655,2.759,2.759,0,0,0,.606-1.938l-2.145.606a2.534,2.534,0,0,0-.9.369.758.758,0,0,0-.312.65.842.842,0,0,0,.334.716A1.382,1.382,0,0,0,154.393,15.462Zm10.1,1.714a5.049,5.049,0,0,1-2.637-.633,2.675,2.675,0,0,1-1.292-1.881l2.118-.6a1.7,1.7,0,0,0,1.811,1.345,1.87,1.87,0,0,0,.923-.207.719.719,0,0,0,.36-.7.739.739,0,0,0-.149-.466,1.183,1.183,0,0,0-.461-.334,5.749,5.749,0,0,0-.615-.237q-.3-.1-.8-.233t-.835-.259a5.593,5.593,0,0,1-.8-.338,3.393,3.393,0,0,1-.659-.466,1.878,1.878,0,0,1-.492-.708,2.552,2.552,0,0,1-.171-.967,2.308,2.308,0,0,1,.98-2.021,4.379,4.379,0,0,1,2.562-.686,4.489,4.489,0,0,1,2.364.58,2.625,2.625,0,0,1,1.213,1.811l-1.96.439a1.535,1.535,0,0,0-1.608-1.143,1.761,1.761,0,0,0-.888.2.649.649,0,0,0-.352.6.685.685,0,0,0,.053.272.539.539,0,0,0,.185.22,2.692,2.692,0,0,0,.255.167,1.923,1.923,0,0,0,.36.145q.237.075.4.114l.461.119.47.123q.483.132.848.264a4.967,4.967,0,0,1,.778.369,2.792,2.792,0,0,1,.681.532,2.372,2.372,0,0,1,.444.747,2.759,2.759,0,0,1,.176,1.006,2.718,2.718,0,0,1-.3,1.31,2.276,2.276,0,0,1-.831.883,4.043,4.043,0,0,1-1.173.475A6.087,6.087,0,0,1,164.492,17.176Z" transform="translate(6465 -369)" fill="#00223d"/>
    <path id="Trazado_20170" data-name="Trazado 20170" d="M30,0H260a30,30,0,0,1,0,60H30A30,30,0,0,1,30,0Z" transform="translate(6212 -284)" fill="#eef0f2"/>
    <path id="Trazado_20171" data-name="Trazado 20171" d="M31.04,6.62H26.206V9.5h4.175V11.8H26.206V17H23.552V4.3H31.04Zm7.9,1.345h2.531V17h-2.4l-.062-1.09a3.45,3.45,0,0,1-2.874,1.266,3.522,3.522,0,0,1-2.5-.813,3.014,3.014,0,0,1-.87-2.316V7.965h2.54V13.5a1.562,1.562,0,0,0,.453,1.239,1.718,1.718,0,0,0,1.173.4,2.038,2.038,0,0,0,1.437-.514,2.209,2.209,0,0,0,.567-1.674Zm13.649,4.386-.026.606h-6.7a2.339,2.339,0,0,0,.721,1.652,2.3,2.3,0,0,0,1.591.571,2.221,2.221,0,0,0,1.191-.312,1.918,1.918,0,0,0,.76-.91l2.32.343a3.945,3.945,0,0,1-1.582,2.118,4.7,4.7,0,0,1-2.672.756,4.891,4.891,0,0,1-3.52-1.244,4.538,4.538,0,0,1-1.305-3.45,4.565,4.565,0,0,1,1.31-3.45,4.746,4.746,0,0,1,3.437-1.261A4.536,4.536,0,0,1,51.36,8.923,4.517,4.517,0,0,1,52.591,12.351ZM48.135,9.564a2,2,0,0,0-2.2,1.74h4.148a1.9,1.9,0,0,0-.624-1.292A1.978,1.978,0,0,0,48.135,9.564ZM59.851,7.789a3.522,3.522,0,0,1,2.5.813,3.014,3.014,0,0,1,.87,2.316V17h-2.54V11.463a1.574,1.574,0,0,0-.453-1.248,1.705,1.705,0,0,0-1.165-.4,2.379,2.379,0,0,0-.756.114,1.942,1.942,0,0,0-.633.356,1.573,1.573,0,0,0-.453.681,3.15,3.15,0,0,0-.171,1.046V17H54.516V7.965h2.531v1A3.481,3.481,0,0,1,59.851,7.789ZM69.035,17A2.729,2.729,0,0,1,67,16.266a2.854,2.854,0,0,1-.721-2.087V9.907H64.5V7.965h.571A1.491,1.491,0,0,0,66.2,7.587a1.946,1.946,0,0,0,.36-1.345v-1.2h2.285V7.965h1.863V9.907H68.842v4q0,1.169,1.046,1.169h.817V17Zm12.094-4.649-.026.606h-6.7a2.339,2.339,0,0,0,.721,1.652,2.3,2.3,0,0,0,1.591.571,2.221,2.221,0,0,0,1.191-.312,1.918,1.918,0,0,0,.76-.91l2.32.343a3.945,3.945,0,0,1-1.582,2.118,4.7,4.7,0,0,1-2.672.756,4.891,4.891,0,0,1-3.52-1.244,4.538,4.538,0,0,1-1.305-3.45,4.565,4.565,0,0,1,1.31-3.45,4.746,4.746,0,0,1,3.437-1.261A4.536,4.536,0,0,1,79.9,8.923,4.517,4.517,0,0,1,81.129,12.351ZM76.673,9.564a2,2,0,0,0-2.2,1.74h4.148A1.9,1.9,0,0,0,78,10.013,1.978,1.978,0,0,0,76.673,9.564Zm7.857,1.854a1.379,1.379,0,0,1-1.015-.431,1.411,1.411,0,0,1-.426-1.028A1.456,1.456,0,0,1,84.53,8.519a1.411,1.411,0,0,1,1.028.426,1.379,1.379,0,0,1,.431,1.015,1.471,1.471,0,0,1-1.459,1.459Zm0,5.757a1.456,1.456,0,0,1-1.441-1.441,1.411,1.411,0,0,1,.426-1.028,1.379,1.379,0,0,1,1.015-.431,1.471,1.471,0,0,1,1.459,1.459,1.379,1.379,0,0,1-.431,1.015A1.411,1.411,0,0,1,84.53,17.176Zm12.234,4.21a7.3,7.3,0,0,1-2.711-3.573,15.468,15.468,0,0,1-.989-5.779,15.519,15.519,0,0,1,.989-5.774,7.3,7.3,0,0,1,2.711-3.586l.809,1a6.166,6.166,0,0,0-2.312,3.133,14.5,14.5,0,0,0-.853,5.225,14.48,14.48,0,0,0,.848,5.225,6.122,6.122,0,0,0,2.316,3.116ZM107,17l-4.447-5.722h-1.09V17H99.894V4.625h1.573V9.854h1.081l4.28-5.229h1.934l-4.86,5.9L109.025,17Zm7.269.167a4.554,4.554,0,0,1-2.215-.536,3.9,3.9,0,0,1-1.56-1.569,4.819,4.819,0,0,1-.576-2.386,4.4,4.4,0,0,1,1.226-3.256,4.6,4.6,0,0,1,6.253,0,4.41,4.41,0,0,1,1.222,3.256,4.413,4.413,0,0,1-1.226,3.265A4.232,4.232,0,0,1,114.272,17.167Zm-.009-1.266a2.654,2.654,0,0,0,2.043-.888,3.326,3.326,0,0,0,.813-2.338,3.314,3.314,0,0,0-.813-2.329,2.654,2.654,0,0,0-2.043-.888,2.617,2.617,0,0,0-2.026.888,3.336,3.336,0,0,0-.8,2.329,3.348,3.348,0,0,0,.8,2.338A2.617,2.617,0,0,0,114.264,15.9Zm9.5,1.1a2.271,2.271,0,0,1-1.687-.62,2.344,2.344,0,0,1-.615-1.727V9.573H119.7V8.36h.65a1.249,1.249,0,0,0,.954-.3,1.492,1.492,0,0,0,.277-1.015V5.478h1.415V8.36h1.986V9.573h-1.986V14.5a1.31,1.31,0,0,0,.33.954,1.154,1.154,0,0,0,.866.338h.791V17Zm3.41,0V3.5h1.538V17Zm12.19-4.491-.018.413H132.6a3.053,3.053,0,0,0,.826,2.21,2.713,2.713,0,0,0,1.969.769,2.59,2.59,0,0,0,1.433-.413,2.68,2.68,0,0,0,.984-1.143l1.371.29A3.9,3.9,0,0,1,137.7,16.49a4.028,4.028,0,0,1-2.294.677,4.174,4.174,0,0,1-3.111-1.2,4.479,4.479,0,0,1-1.187-3.287A4.458,4.458,0,0,1,132.3,9.4a4.122,4.122,0,0,1,3.063-1.2,3.9,3.9,0,0,1,2.9,1.107A4.376,4.376,0,0,1,139.365,12.509Zm-4-3.146a2.694,2.694,0,0,0-1.8.611,2.8,2.8,0,0,0-.91,1.78h5.177a2.567,2.567,0,0,0-.756-1.78A2.441,2.441,0,0,0,135.366,9.362Zm7.866.519a2.612,2.612,0,0,1,1.072-1.16,3.229,3.229,0,0,1,1.661-.457V9.7a2.846,2.846,0,0,0-2.008.642,2.68,2.68,0,0,0-.69,2.048V17h-1.521V8.36h1.485Zm4.43,10.292h-1.107l1.072-5.449h1.591ZM153.7,15.6h6.161V17h-8.35V15.849l4.957-5.124a5.872,5.872,0,0,0,1.116-1.468,2.928,2.928,0,0,0,.308-1.274,2.136,2.136,0,0,0-.624-1.639,2.548,2.548,0,0,0-3.309.053,2.741,2.741,0,0,0-.628,1.991V9.3l-1.521-.141V8.4a3.912,3.912,0,0,1,1.046-2.94,4.33,4.33,0,0,1,5.48-.075,3.27,3.27,0,0,1,1.05,2.566,3.892,3.892,0,0,1-.417,1.789,7.689,7.689,0,0,1-1.34,1.78Zm12.138,1.564a3.447,3.447,0,0,1-3.05-1.617,8.623,8.623,0,0,1-1.072-4.746,8.662,8.662,0,0,1,1.059-4.737,3.705,3.705,0,0,1,6.113,0,8.637,8.637,0,0,1,1.063,4.733,8.6,8.6,0,0,1-1.077,4.742A3.44,3.44,0,0,1,165.838,17.167Zm0-1.406a2.093,2.093,0,0,0,1.925-1.239,8.08,8.08,0,0,0,.668-3.718,7.851,7.851,0,0,0-.681-3.713,2.115,2.115,0,0,0-3.828,0,7.891,7.891,0,0,0-.677,3.718,8.122,8.122,0,0,0,.664,3.722A2.091,2.091,0,0,0,165.838,15.761ZM176.06,4.625h1.424V17h-1.5V6.286L173.01,8.861V7.235Zm9.958,12.542q-4.122,0-4.122-4.4l1.547-.079a3.864,3.864,0,0,0,.58,2.329,2.339,2.339,0,0,0,2,.773,2.742,2.742,0,0,0,1.92-.668,2.254,2.254,0,0,0,.734-1.749,2.232,2.232,0,0,0-.708-1.74,2.537,2.537,0,0,0-1.771-.642h-.615V9.7h.6a1.831,1.831,0,0,0,1.354-.571,1.927,1.927,0,0,0,.563-1.406,1.733,1.733,0,0,0-.6-1.362,2.188,2.188,0,0,0-1.5-.527,2.392,2.392,0,0,0-.989.185,1.388,1.388,0,0,0-.628.541,2.548,2.548,0,0,0-.316.787,4.611,4.611,0,0,0-.1,1l-1.547-.053a4.007,4.007,0,0,1,.927-2.839,3.436,3.436,0,0,1,2.641-.993,3.669,3.669,0,0,1,2.536.905,2.893,2.893,0,0,1,1.015,2.25,2.71,2.71,0,0,1-.492,1.608,2.812,2.812,0,0,1-1.239,1,3.421,3.421,0,0,1,1.74,1.134,3.179,3.179,0,0,1,.677,2.083,3.4,3.4,0,0,1-1.182,2.7A4.434,4.434,0,0,1,186.018,17.167Zm6.337,4.219-.809-1.011a6.122,6.122,0,0,0,2.316-3.116,14.48,14.48,0,0,0,.848-5.225,14.5,14.5,0,0,0-.853-5.225,6.166,6.166,0,0,0-2.312-3.133l.809-1a7.3,7.3,0,0,1,2.711,3.586,15.519,15.519,0,0,1,.989,5.774,15.468,15.468,0,0,1-.989,5.779A7.3,7.3,0,0,1,192.354,21.386Z" transform="translate(6248 -265)" fill="#00223d"/>
  </g>
</svg>
