<svg xmlns="http://www.w3.org/2000/svg" width="663.756" height="318.811" viewBox="0 0 663.756 318.811">
  <g id="Grupo_23691" data-name="Grupo 23691" transform="translate(-383.632 -977.773)">
    <path id="Trazado_19276" data-name="Trazado 19276" d="M2295.682,1475.792s-38.232-98.913,17.7-157.975c72.142-76.179,165.367-12.5,200.349-14.359s36.951-74.95,141.47-83.68c80.814-6.751,213.535-7.283,185.221,112.138-21.527,90.794,98.245,43.765,74.924,144.068Z" transform="translate(-1899.297 -179.398)" fill="#f8e9e5"/>
    <g id="Grupo_23675" data-name="Grupo 23675" transform="translate(395.258 1081.475)">
      <g id="Grupo_23672" data-name="Grupo 23672" transform="translate(13.526 42.592)">
        <path id="Trazado_19277" data-name="Trazado 19277" d="M2720.631,1836.423l2.325,1.887s6.358-2.28,7.792,5.276c0,0,.382,3.22-1.657,3.226s-1.2-.352-4.086-.267-5.283-1.438-5.706-3.782l-1.382-1.986Z" transform="translate(-2651.255 -1791.846)" fill="#ea8e50"/>
        <path id="Trazado_19278" data-name="Trazado 19278" d="M2471.2,1673.856c1.855-1.937,1.706-3.367,1.706-3.367s-21.473-17.581-23.651-19.013c-1.484-.976-17.3-15-24.69-23.543-3.667-4.24-8.208-2.595-13.405-1.1l-4.279,1.228c-5.167,1.482-6.511,8.709-2.271,12.221,11.941,9.891,31.8,21.016,35.521,23.354,9.227,5.8,27.287,12.7,27.287,12.7A11.447,11.447,0,0,0,2471.2,1673.856Z" transform="translate(-2402.09 -1625.228)" fill="#1e3d70"/>
      </g>
      <path id="Trazado_19279" data-name="Trazado 19279" d="M2819.991,2367.349s5.21,3.9,13.2,1.841c0,0,6.438-1.467,7.85,1.744,0,0-9.874,5.016-12.372,6.388a29.9,29.9,0,0,0-5.238,3.927,2.59,2.59,0,0,1-3.749-.289c-.435-.534-.931-1.17-1.477-1.908-1.522-2.063-5.069-8.728-5.069-8.728Z" transform="translate(-2712.847 -2168.116)" fill="#233862"/>
      <path id="Trazado_19280" data-name="Trazado 19280" d="M2559.816,2009.934s-3.174,7.317-10.5,5.971c0,0-14.946-12.343-25.2-25.166a56.952,56.952,0,0,1-7.831-12.237c-6.8-15.741-25.149-39.218-36.816-51.117l29.19-10.56s9.35,18.809,21.79,41.911C2539.417,1975.381,2549.985,1994.257,2559.816,2009.934Z" transform="translate(-2449.613 -1812.685)" fill="#2b478b"/>
      <g id="Grupo_23673" data-name="Grupo 23673" transform="translate(31.837 10.6)">
        <path id="Trazado_19281" data-name="Trazado 19281" d="M2568.913,1521.385a35.132,35.132,0,0,0,.169-5.37,2.011,2.011,0,0,1,1.158-1.917l8.621-4a1.968,1.968,0,0,0,1.021-2.458l-2.976-8.181a1.916,1.916,0,0,0-2.257-1.206l-8.5,2.087a1.97,1.97,0,0,1-2.149-.891,35.013,35.013,0,0,0-7.22-8.422,1.987,1.987,0,0,1-.49-2.391l2.351-4.784a1.992,1.992,0,0,0-.721-2.561l-7.29-4.621a1.975,1.975,0,0,0-2.628.472l-5.116,6.722a35.207,35.207,0,0,0-11.4-.969,1.946,1.946,0,0,1-1.923-1.117l-3.227-6.953a2.015,2.015,0,0,0-2.517-1.046l-8.035,2.923a2.04,2.04,0,0,0-1.284,2.4l1.744,7.106a1.976,1.976,0,0,1-.841,2.132,35.036,35.036,0,0,0-6.248,5.145,2,2,0,0,1-2.329.4l-7.76-3.813a2,2,0,0,0-2.571.724l-4.6,7.26a2.005,2.005,0,0,0,.479,2.67l7.556,5.751a1.968,1.968,0,0,1,.705,2.079,35.139,35.139,0,0,0-.992,5.308q-.157,1.448-.193,2.879a2.055,2.055,0,0,1-1.186,1.812l-8.28,3.843a1.956,1.956,0,0,0-1.015,2.443l2.94,8.082a2.045,2.045,0,0,0,2.409,1.287l6.738-1.654a1.992,1.992,0,0,1,2.247,1.015,35.05,35.05,0,0,0,6.381,8.724,2.016,2.016,0,0,1,.393,2.319l-3.438,7a2.05,2.05,0,0,0,.743,2.635l7.244,4.592a1.978,1.978,0,0,0,2.633-.473l5.018-6.593a2.038,2.038,0,0,1,2.2-.715,34.97,34.97,0,0,0,6.051,1.2q1.679.182,3.335.2a1.993,1.993,0,0,1,1.781,1.154l3.274,7.055a2.036,2.036,0,0,0,2.543,1.056l8.047-2.927a2,2,0,0,0,1.261-2.361l-1.392-5.67a2,2,0,0,1,1.013-2.249,35.027,35.027,0,0,0,10.736-8.681,1.978,1.978,0,0,1,2.4-.51l6.279,3.085a2,2,0,0,0,2.564-.722l4.6-7.255a2.018,2.018,0,0,0-.482-2.686l-7.25-5.517a1.99,1.99,0,0,1-.746-1.963Q2568.752,1522.854,2568.913,1521.385Zm-27.274,13.735c-18.107,6.473-33.153-12.348-22.746-28.626a18.407,18.407,0,0,1,7.8-6.277c18.131-6.675,33.29,12.056,23.085,28.354A18.623,18.623,0,0,1,2541.639,1535.12Z" transform="translate(-2488.846 -1473.659)" fill="#d64626"/>
      </g>
      <path id="Trazado_19282" data-name="Trazado 19282" d="M2530.452,1958.736l-6.333,32a56.952,56.952,0,0,1-7.831-12.237c-6.8-15.741-25.149-39.218-36.816-51.117l29.19-10.56S2518.012,1935.633,2530.452,1958.736Z" transform="translate(-2449.613 -1812.685)" fill="#233862"/>
      <path id="Trazado_19283" data-name="Trazado 19283" d="M2568.71,2375.505s-.318,5.838,6.76,6.617c0,0,4.271.087,4.282,3.8h-20.8a15.984,15.984,0,0,1-.742-4.71c-.111-2.465,2.39-8.91,2.39-8.91Z" transform="translate(-2511.731 -2172.026)" fill="#233862"/>
      <path id="Trazado_19284" data-name="Trazado 19284" d="M2466.417,1911.983s13,14.289,21.259,40.032c4.491,14.006-8.232,49.221-10.712,61.457,0,0-8.535.724-14.371-1.532,0,0-.443-25.271,2.97-44.749,1.91-10.9-17.122-23.313-25.438-43.009-5.658-13.4,1.225-13.172,9.684-13.494Z" transform="translate(-2416.943 -1807.843)" fill="#2b478b"/>
      <path id="Trazado_19285" data-name="Trazado 19285" d="M2418.882,1548.888c-7.235,4.085-22.047.318-22.047.318s6.015-6.877,3.282-17.951l5.681,2.885,6.1,3.1a50.808,50.808,0,0,1,.669,5.469c.07.9.132,1.915.175,3.02A18.983,18.983,0,0,1,2418.882,1548.888Z" transform="translate(-2384.419 -1508.497)" fill="#ffb07b"/>
      <path id="Trazado_19286" data-name="Trazado 19286" d="M2425.037,1664.85c0,1.271-1.465,1.88-1.776,1.942-2.918.533-11.066,3.7-18.406,4.43a58.849,58.849,0,0,1-18.223-1.233c-.835-.168-2.794-.7-2.934-1.5-.174-.874-24.316-49.216-5.548-69.981.44-.487,4.145.39,7.533,1.194a13.908,13.908,0,0,0,8.562-.7l3.177,1.672c3.9,2.174,11.284,9.9,12.148,15.959.439,3.083,2.2,5.365,2.712,8.076q.283,1.5.579,2.938.577,2.809,1.188,5.349c1.1,4.584,2.27,8.531,3.413,11.94,1.218,3.619,2.412,6.631,3.479,9.149,1.384,3.266,2.554,5.707,3.284,7.576A9.335,9.335,0,0,1,2425.037,1664.85Z" transform="translate(-2364.044 -1561.448)" fill="#2a4e96"/>
      <path id="Trazado_19287" data-name="Trazado 19287" d="M2451.637,1722.988c-34.079-16.056-45.882-46.887-45.882-46.887s27.689,10.214,34.519,12.874q.577,2.808,1.188,5.349c1.1,4.584,2.269,8.531,3.413,11.94,1.217,3.619,2.412,6.63,3.478,9.149C2449.737,1718.679,2450.907,1721.119,2451.637,1722.988Z" transform="translate(-2391.456 -1622.771)" fill="#1e3d70"/>
      <g id="Grupo_23674" data-name="Grupo 23674" transform="translate(9.727 44.116)">
        <path id="Trazado_19288" data-name="Trazado 19288" d="M2711.853,1853.451l2.945,1.08s5.9-4.17,9.569,2.612c0,0,1.328,2.963-.774,3.606s-1.338.038-4.293,1.022-5.866.275-6.982-1.836l-2-1.469Z" transform="translate(-2641.459 -1806.655)" fill="#ffb07b"/>
        <path id="Trazado_19289" data-name="Trazado 19289" d="M2456.91,1683.408c1.088-2.841,1.585-4.128,1.585-4.128s-22.252-18.138-24.519-19.694c-1.545-1.06-16.927-12.558-24.426-21.518a15.692,15.692,0,0,0-15.257-5.287l-4.672.979a6.947,6.947,0,0,0-3.1,12.073c12.323,10.564,33.107,22.817,36.982,25.365,9.621,6.327,30.9,15.192,30.9,15.192A5.479,5.479,0,0,0,2456.91,1683.408Z" transform="translate(-2384.093 -1632.447)" fill="#2a4e96"/>
      </g>
      <path id="Trazado_19290" data-name="Trazado 19290" d="M2427.488,1553.49c-7.115.4-11.742-5.475-11.742-5.475a56.568,56.568,0,0,0,4.971-3.093l6.1,3.1A50.738,50.738,0,0,1,2427.488,1553.49Z" transform="translate(-2399.338 -1519.28)" fill="#ea8e50"/>
      <path id="Trazado_19291" data-name="Trazado 19291" d="M2405.546,1483.068s-10.78,7.736-15.494.949-9.281-10.36-2.6-15.587,9.834-3.575,11.959-1.692S2408.229,1480.88,2405.546,1483.068Z" transform="translate(-2374.366 -1456.162)" fill="#ffb07b"/>
      <path id="Trazado_19292" data-name="Trazado 19292" d="M2364.2,1427.882a17.383,17.383,0,0,0-1.256-4.445s-.677,2.8-5.8,2.416-13.238.5-15.944,6.34c-.172.371-.326.754-.462,1.145a13.511,13.511,0,0,1-.608-3.233,9.965,9.965,0,0,0,0,5.655h0c-.015.091-.027.184-.04.275-1.13.956-2.079,3.927-2.079,3.927a3.555,3.555,0,0,1,1.914-1.7c-.022,4.541,1.819,8.98,5.051,10.3,4.727,1.932,4.689.458,9.443,3.611,0,0,1.275-1.582.4-2.645s-4.155-2.609-2.319-4.156,2.512.193,3.189-.869-2.706-4.155,1.643-7.054S2364.583,1430.491,2364.2,1427.882Z" transform="translate(-2338.009 -1423.437)" fill="#233862"/>
    </g>
    <g id="Grupo_23677" data-name="Grupo 23677" transform="translate(868.95 1085.833)">
      <path id="Trazado_19293" data-name="Trazado 19293" d="M4842.942,2380.474s.581,9.366,2.394,9.5c.239.018,9.189.018,9.189.018h11.438a3.77,3.77,0,0,0-3.428-3.4c-3.339-.582-8.929-2.929-10.952-7.343C4849.455,2374.6,4842.942,2380.474,4842.942,2380.474Z" transform="translate(-4787.915 -2180.451)" fill="#163560"/>
      <path id="Trazado_19294" data-name="Trazado 19294" d="M4601.882,1929.75a78.509,78.509,0,0,0,5.461,8.715c6.01,8.46,12.551,15.435,13.69,22.029a32.568,32.568,0,0,0,1.057,4.22c.476,1.51,1.064,3.1,1.743,4.74a150.874,150.874,0,0,0,10.171,19.39c6.582,10.876,12.771,19.952,12.771,19.952l11.351-.539c-.455-1.269-5.405-16.286-12.027-34.639l-8.309-23.017q-.552-1.531-1.1-3.045c-.843-2.339-1.674-4.641-2.484-6.882-6.218-17.233-11.171-30.956-11.171-30.956s-24.854-10.5-27.435-3.7C4593.474,1911.632,4595.207,1917.128,4601.882,1929.75Z" transform="translate(-4592.104 -1806.712)" fill="#599dad"/>
      <path id="Trazado_19295" data-name="Trazado 19295" d="M4714.58,2336.816s-4.157,3.853-3.346,6.591,4.563,4.562,5.069,7.908,2.535,5.171,4.36,5.171h8.7s1.344-2.354-1.9-3.064-4.468-4.642-4.265-8.292a65.489,65.489,0,0,0-.3-8.517l-6.9-1.623Z" transform="translate(-4683.923 -2146.946)" fill="#233862"/>
      <path id="Trazado_19296" data-name="Trazado 19296" d="M4631.132,1925.984s26.153,42.423,26.153,45.8c0,7.465-19.761,50.449-19.761,50.449s-10.489-5.542-10.068-9.432c0,0,6.293-30.174,8.123-35.023s-33.054-23.123-34.883-45.2Z" transform="translate(-4596.8 -1824.269)" fill="#6bb7bf"/>
      <path id="Trazado_19297" data-name="Trazado 19297" d="M4798.09,1822.632s5.393,3.067,6.9,3.066,7.437-1.145,9.089-.3a19.336,19.336,0,0,1,5.2,5.35c1.009,2-4.062,1.114-6.459-.585a1.51,1.51,0,0,0-1.2-.247c-1.241.271-3.821.739-5.065.278-1.675-.62-10.5-1.308-10.5-1.308Z" transform="translate(-4750.936 -1742.732)" fill="#e49963"/>
      <path id="Trazado_19298" data-name="Trazado 19298" d="M4611.225,1604s5.592,39.739,14.851,43.3c4.568,1.756,24.757,5.738,30.729,6.137,0,0,1.463-1.187,1.106-6.018,0,0-21.152-7.766-24.158-11.989-4.472-6.285,2.777-25.677-2.835-31.58S4615.854,1595.4,4611.225,1604Z" transform="translate(-4605.106 -1565.867)" fill="#ed7d2b"/>
      <path id="Trazado_19299" data-name="Trazado 19299" d="M4640.539,1548.414c-7.474,1.932-19.863-4.992-19.863-4.992a18.344,18.344,0,0,0,6.594-10.336c.091-.358.172-.724.244-1.1l3.839-.814,5.708,5.114a49.115,49.115,0,0,1-.844,5.774q-.185.955-.431,2.048A17.606,17.606,0,0,1,4640.539,1548.414Z" transform="translate(-4612.563 -1512.79)" fill="#e49963"/>
      <path id="Trazado_19300" data-name="Trazado 19300" d="M4582.436,1614.126c1.07,14.4-.337,36.3.876,40.088,1.049,3.272,12.99,1.327,17.757.235,1.765-.4,3.9-.982,6.109-1.665,6.156-1.906,12.865-4.629,13.584-6.649a1.73,1.73,0,0,0,.067-.233,1.862,1.862,0,0,0-.013-.847c-.24-1.03-1.165-2.144-1.274-4.695-.121-2.848-.1-6.2-.21-9.807-.005-.406-.011-.849-.055-1.254l0-.147c0-.077,0-.153-.006-.23-.1-4.021-.313-8.249-.557-12.442-.156-2.633-.334-5.241-.541-7.74a103.576,103.576,0,0,0-2.218-15.812,25.388,25.388,0,0,0-8.157-12.591l-2.271-1.949a13.133,13.133,0,0,1-8.243-1.1c-2.935-1.393-3.948-2.392-4.458-2.015C4586.045,1580.5,4581.172,1596.524,4582.436,1614.126Z" transform="translate(-4582.236 -1547.522)" fill="#f99746"/>
      <path id="Trazado_19301" data-name="Trazado 19301" d="M4634.926,1735.086c6.156-1.906,12.865-4.629,13.585-6.649a1.733,1.733,0,0,0,.066-.233c0-.282-.008-.565-.014-.847-.24-1.03-1.164-2.144-1.273-4.695-.121-2.848-.1-6.2-.21-9.807,0-.406-.011-.849-.056-1.253v-.148l-.006-.23-24.889-31.708S4605.4,1714.354,4634.926,1735.086Z" transform="translate(-4609.984 -1629.823)" fill="#ed7d2b"/>
      <path id="Trazado_19302" data-name="Trazado 19302" d="M4661.708,1536.285a49.2,49.2,0,0,1-.844,5.774c-5.575-1.8-8.1-6.837-8.947-8.973.091-.358.171-.724.245-1.1l3.838-.814Z" transform="translate(-4637.208 -1512.79)" fill="#d68d5d"/>
      <path id="Trazado_19303" data-name="Trazado 19303" d="M4661.169,1489.849s-12.157-2.029-10.776-9.58.74-12.9,8.561-11.923,8.8,4.132,8.949,6.765S4664.367,1490.182,4661.169,1489.849Z" transform="translate(-4635.92 -1463.135)" fill="#e49963"/>
      <g id="Grupo_23676" data-name="Grupo 23676" transform="translate(43.206 63.253)">
        <rect id="Rectángulo_3764" data-name="Rectángulo 3764" width="1.127" height="29.516" transform="matrix(-0.951, -0.309, 0.309, -0.951, 30.964, 28.419)" fill="#4a75cb"/>
        <rect id="Rectángulo_3765" data-name="Rectángulo 3765" width="30.974" height="1.853" transform="matrix(-1, -0.021, 0.021, -1, 30.967, 28.419)" fill="#4a75cb"/>
      </g>
      <path id="Trazado_19304" data-name="Trazado 19304" d="M4789.875,1861.228s9.949,2.623,13.681,2.348,6.835-2.05,7.3-2.977,1.456-2.569-1.084-2.266-6.009.844-6.115.355,2.07-.442,2.07-.442.658-.958-.171-.992-3.247-.691-4.146-.242-1.728,2.107-2.383,2.038-8.327-3.455-8.327-3.455Z" transform="translate(-4746.049 -1768.738)" fill="#e49963"/>
      <path id="Trazado_19305" data-name="Trazado 19305" d="M4622.914,1615.163s1.176,40.113,9.986,44.672c4.346,2.249,23.974,8.432,29.865,9.488,0,0,1.586-1.019,1.764-5.859,0,0-20.168-10.05-22.688-14.579-3.753-6.74,5.59-25.215.663-31.7S4628.463,1607.134,4622.914,1615.163Z" transform="translate(-4614.328 -1575.403)" fill="#f99746"/>
      <path id="Trazado_19306" data-name="Trazado 19306" d="M4642.337,1464.382a5.753,5.753,0,0,1,1.459-4.075s-.557-2.6.471-3.026,1.242,1.756,1.713,1.413a10.5,10.5,0,0,0,3.468-4.367c.9-2.4,9.128.506,10.087.938s4.042-1.152,4.642-2.437a18.031,18.031,0,0,1-2.483-2.4c-.77-1.028-6.166-7.964-13.7-5.994s-8.564,5.566-8.136,8.649S4639.251,1463.348,4642.337,1464.382Z" transform="translate(-4627.629 -1444.086)" fill="#2b478b"/>
    </g>
    <g id="Grupo_23678" data-name="Grupo 23678" transform="translate(605.896 1035.508)">
      <path id="Trazado_19307" data-name="Trazado 19307" d="M3601.68,1363.324l-23.552-14.191a6.093,6.093,0,0,1-2.88-5.67q.361-4.365.36-8.821a102.342,102.342,0,0,0-1.23-16.171,6.012,6.012,0,0,1,2.85-6.151l24.6-14.851a5.9,5.9,0,0,0,2.25-7.71l-11.581-23.582a5.837,5.837,0,0,0-7.2-2.91l-24.871,9.031a5.861,5.861,0,0,1-6.75-1.98,106.245,106.245,0,0,0-24.422-22.921,6.051,6.051,0,0,1-2.25-7.021l5.521-15.121a6.113,6.113,0,0,0-3-7.5l-23.432-11.46a5.337,5.337,0,0,0-1.47-.51,5.864,5.864,0,0,0-6.24,2.76l-10.621,17.581-2.58,4.29a105.142,105.142,0,0,0-14.82-1.05,106.635,106.635,0,0,0-19.742,1.83,5.861,5.861,0,0,1-6.151-2.73l-11.94-19.831a6.073,6.073,0,0,0-7.89-2.31l-18.031,8.85-5.16,2.551a6.153,6.153,0,0,0-3.09,7.621l7.53,20.791a5.852,5.852,0,0,1-1.8,6.66,105.481,105.481,0,0,0-15.871,16.021,18.325,18.325,0,0,0-1.2,1.47,3.226,3.226,0,0,1-.42.48,6,6,0,0,1-6.48,1.5l-24.571-8.91a4.363,4.363,0,0,0-.84-.24,6.1,6.1,0,0,0-6.63,3.24l-11.461,23.341a6.068,6.068,0,0,0,2.31,7.861l24.571,14.791a5.865,5.865,0,0,1,2.791,6.031,107.247,107.247,0,0,0-1.23,16.26q0,4.411.36,8.73a6.18,6.18,0,0,1-2.97,5.791l-23.642,14.281a5.9,5.9,0,0,0-2.25,7.651l11.491,23.311a6.166,6.166,0,0,0,7.651,3.09l19.681-7.141a6.057,6.057,0,0,1,7.111,2.31,105.937,105.937,0,0,0,21.991,24.151,6.018,6.018,0,0,1,1.92,6.81l-8.04,22.141a6.225,6.225,0,0,0,3.09,7.68l23.251,11.431a5.95,5.95,0,0,0,7.74-2.28l.63-1.021,12.331-20.431a6.084,6.084,0,0,1,6.331-2.85h.03a105.389,105.389,0,0,0,18.6,1.65c3.39,0,6.72-.18,10.05-.48a5.968,5.968,0,0,1,5.73,2.85l12.12,20.131a6.175,6.175,0,0,0,8.011,2.37l23.221-11.43a6.658,6.658,0,0,0,1.71-1.26,6.148,6.148,0,0,0,1.32-6.24l-6.062-16.591a6.142,6.142,0,0,1,1.051-5.94,6.546,6.546,0,0,1,1.26-1.14,105.574,105.574,0,0,0,29.461-29.582,5.942,5.942,0,0,1,6-2.58,6.053,6.053,0,0,1,.99.27l19.892,7.23a6.043,6.043,0,0,0,7.47-3l.271-.541,11.19-22.741A6.153,6.153,0,0,0,3601.68,1363.324Zm-185.92-44.853a70.609,70.609,0,0,1,4.74-12.271c3.9-7.83,13.53-17.521,21.391-21.391.84-.42,1.68-.81,2.521-1.2,51.423-23.1,101.016,27.391,76.084,78.844-3.271,6.72-10.5,14.611-17.551,19.5a37.453,37.453,0,0,1-4.8,2.82,65.281,65.281,0,0,1-21.271,6.3C3437.211,1395.485,3404.569,1359.034,3415.76,1318.471Z" transform="translate(-3335.953 -1205.66)" fill="#97181a"/>
    </g>
    <g id="Grupo_23679" data-name="Grupo 23679" transform="translate(814.665 1237.384)">
      <path id="Trazado_19308" data-name="Trazado 19308" d="M4384.353,2197.281l-5.256-3.168a1.36,1.36,0,0,1-.643-1.265q.079-.975.08-1.969a22.825,22.825,0,0,0-.274-3.609,1.342,1.342,0,0,1,.636-1.373l5.49-3.314a1.317,1.317,0,0,0,.5-1.72l-2.585-5.263a1.3,1.3,0,0,0-1.606-.65l-5.552,2.016a1.307,1.307,0,0,1-1.506-.442,23.694,23.694,0,0,0-5.451-5.115,1.351,1.351,0,0,1-.5-1.567l1.231-3.375a1.363,1.363,0,0,0-.669-1.673l-5.229-2.558a1.2,1.2,0,0,0-.328-.114,1.31,1.31,0,0,0-1.393.616l-2.371,3.923-.576.958a23.46,23.46,0,0,0-3.307-.234,23.831,23.831,0,0,0-4.406.408,1.308,1.308,0,0,1-1.373-.609l-2.664-4.426a1.356,1.356,0,0,0-1.761-.516l-4.025,1.975-1.151.57a1.373,1.373,0,0,0-.689,1.7l1.681,4.64a1.305,1.305,0,0,1-.4,1.486,23.525,23.525,0,0,0-3.541,3.575c-.1.107-.181.215-.269.329a.718.718,0,0,1-.093.107,1.339,1.339,0,0,1-1.446.334l-5.483-1.988a1.07,1.07,0,0,0-.187-.054,1.363,1.363,0,0,0-1.481.723l-2.558,5.209a1.355,1.355,0,0,0,.516,1.755l5.484,3.3a1.312,1.312,0,0,1,.623,1.346,23.943,23.943,0,0,0-.275,3.629q0,.984.081,1.948a1.38,1.38,0,0,1-.663,1.292l-5.276,3.187a1.318,1.318,0,0,0-.5,1.708l2.564,5.2a1.377,1.377,0,0,0,1.707.69l4.393-1.594a1.352,1.352,0,0,1,1.587.515,23.676,23.676,0,0,0,4.908,5.39,1.343,1.343,0,0,1,.428,1.52l-1.794,4.942a1.389,1.389,0,0,0,.689,1.713l5.19,2.551a1.327,1.327,0,0,0,1.727-.509l.141-.228,2.752-4.56a1.358,1.358,0,0,1,1.413-.637h.007a23.455,23.455,0,0,0,4.151.368c.756,0,1.5-.04,2.243-.106a1.331,1.331,0,0,1,1.278.636l2.705,4.493a1.378,1.378,0,0,0,1.788.529l5.183-2.551a1.553,1.553,0,0,0,.382-.281,1.375,1.375,0,0,0,.294-1.393l-1.353-3.7a1.373,1.373,0,0,1,.234-1.326,1.5,1.5,0,0,1,.281-.255,23.571,23.571,0,0,0,6.576-6.6,1.324,1.324,0,0,1,1.339-.576,1.433,1.433,0,0,1,.221.061l4.439,1.614a1.35,1.35,0,0,0,1.667-.669l.061-.121,2.5-5.075A1.373,1.373,0,0,0,4384.353,2197.281Zm-41.494-10.01a15.9,15.9,0,0,1,1.059-2.739,12.393,12.393,0,0,1,4.774-4.774c.188-.094.375-.181.563-.268,11.477-5.156,22.544,6.113,16.98,17.6a12.859,12.859,0,0,1-3.917,4.352,8.236,8.236,0,0,1-1.071.629,14.562,14.562,0,0,1-4.748,1.407A12.712,12.712,0,0,1,4342.858,2187.271Z" transform="translate(-4325.048 -2162.093)" fill="#f99746"/>
    </g>
    <g id="Grupo_23680" data-name="Grupo 23680" transform="translate(957.498 1121.813)">
      <path id="Trazado_19309" data-name="Trazado 19309" d="M5090.626,1667.286l-7.877-4.747a2.039,2.039,0,0,1-.964-1.9q.122-1.46.121-2.95a34.313,34.313,0,0,0-.411-5.409,2.009,2.009,0,0,1,.953-2.057l8.229-4.967a1.976,1.976,0,0,0,.753-2.579l-3.874-7.887a1.951,1.951,0,0,0-2.408-.973l-8.318,3.02a1.96,1.96,0,0,1-2.258-.662,35.535,35.535,0,0,0-8.17-7.667,2.024,2.024,0,0,1-.751-2.348l1.846-5.058a2.045,2.045,0,0,0-1-2.509l-7.837-3.833a1.794,1.794,0,0,0-.492-.17,1.961,1.961,0,0,0-2.087.924l-3.553,5.88-.862,1.435a35.123,35.123,0,0,0-4.957-.351,35.69,35.69,0,0,0-6.6.612,1.96,1.96,0,0,1-2.058-.913l-3.994-6.633a2.031,2.031,0,0,0-2.639-.773l-6.031,2.96-1.727.853a2.059,2.059,0,0,0-1.033,2.549l2.52,6.954a1.959,1.959,0,0,1-.6,2.228,35.254,35.254,0,0,0-5.309,5.359,6.217,6.217,0,0,0-.4.492,1.023,1.023,0,0,1-.141.16,2,2,0,0,1-2.167.5l-8.219-2.98a1.507,1.507,0,0,0-.281-.081,2.04,2.04,0,0,0-2.218,1.084l-3.833,7.807a2.029,2.029,0,0,0,.772,2.629l8.219,4.947a1.963,1.963,0,0,1,.934,2.017,35.777,35.777,0,0,0-.412,5.439q0,1.475.12,2.92a2.067,2.067,0,0,1-.992,1.937l-7.908,4.777a1.973,1.973,0,0,0-.753,2.559l3.844,7.8a2.061,2.061,0,0,0,2.559,1.034l6.583-2.389a2.025,2.025,0,0,1,2.378.773,35.465,35.465,0,0,0,7.355,8.078,2.012,2.012,0,0,1,.643,2.278l-2.689,7.406a2.083,2.083,0,0,0,1.033,2.569l7.777,3.823a1.99,1.99,0,0,0,2.589-.763l.211-.341,4.125-6.834a2.032,2.032,0,0,1,2.116-.953h.011a35.246,35.246,0,0,0,6.222.552c1.133,0,2.247-.06,3.362-.161a1.993,1.993,0,0,1,1.915.953l4.055,6.733a2.065,2.065,0,0,0,2.68.793l7.767-3.823a2.223,2.223,0,0,0,.572-.421,2.055,2.055,0,0,0,.441-2.087l-2.027-5.549a2.054,2.054,0,0,1,.352-1.987,2.167,2.167,0,0,1,.422-.381,35.308,35.308,0,0,0,9.854-9.895,1.977,1.977,0,0,1,2.338-.773l6.654,2.419a2.021,2.021,0,0,0,2.5-1l.09-.181,3.743-7.606A2.057,2.057,0,0,0,5090.626,1667.286Zm-62.186-15a23.666,23.666,0,0,1,1.586-4.1,18.57,18.57,0,0,1,7.154-7.155c.281-.14.562-.271.843-.4,17.2-7.727,33.788,9.162,25.448,26.372a19.246,19.246,0,0,1-5.87,6.522,12.49,12.49,0,0,1-1.605.944,21.829,21.829,0,0,1-7.114,2.107A19.05,19.05,0,0,1,5028.441,1652.284Z" transform="translate(-5001.748 -1614.551)" fill="#97181a"/>
    </g>
    <g id="Grupo_23681" data-name="Grupo 23681" transform="translate(583.459 977.773)">
      <path id="Trazado_19310" data-name="Trazado 19310" d="M3320.573,981.026l-8.343-3.87a2.039,2.039,0,0,1-1.162-1.782q-.038-1.464-.2-2.946a34.282,34.282,0,0,0-.992-5.333,2.009,2.009,0,0,1,.726-2.148l7.646-5.825a1.975,1.975,0,0,0,.47-2.645l-4.7-7.424a1.953,1.953,0,0,0-2.5-.708l-7.945,3.9a1.959,1.959,0,0,1-2.315-.415,35.544,35.544,0,0,0-8.948-6.741,2.025,2.025,0,0,1-1-2.253l1.291-5.227a2.044,2.044,0,0,0-1.268-2.386l-8.205-2.966a1.8,1.8,0,0,0-.507-.117,1.962,1.962,0,0,0-1.976,1.143l-2.9,6.229-.7,1.52a35.131,35.131,0,0,0-4.966.185,35.689,35.689,0,0,0-6.5,1.32,1.96,1.96,0,0,1-2.144-.686l-4.685-6.164a2.032,2.032,0,0,0-2.707-.484l-5.677,3.593-1.624,1.034a2.058,2.058,0,0,0-.752,2.646l3.253,6.642a1.958,1.958,0,0,1-.359,2.28,35.292,35.292,0,0,0-4.7,5.9,6.239,6.239,0,0,0-.346.532,1.124,1.124,0,0,1-.122.175,2.005,2.005,0,0,1-2.1.732l-8.492-2.077a1.471,1.471,0,0,0-.289-.05,2.04,2.04,0,0,0-2.088,1.317l-2.969,8.175a2.03,2.03,0,0,0,1.052,2.531l8.7,4.032a1.962,1.962,0,0,1,1.146,1.9,35.827,35.827,0,0,0,.177,5.452q.158,1.466.435,2.89a2.07,2.07,0,0,1-.779,2.032l-7.347,5.6a1.973,1.973,0,0,0-.473,2.625l4.661,7.337a2.063,2.063,0,0,0,2.656.752l6.287-3.084a2.025,2.025,0,0,1,2.448.512,35.451,35.451,0,0,0,8.184,7.238,2.012,2.012,0,0,1,.884,2.2l-1.875,7.652a2.083,2.083,0,0,0,1.3,2.443l8.144,2.963a1.991,1.991,0,0,0,2.492-1.037l.172-.362,3.364-7.239a2.035,2.035,0,0,1,2-1.176h.01a35.24,35.24,0,0,0,6.245-.122c1.127-.122,2.228-.3,3.325-.522a2,2,0,0,1,2.009.741l4.756,6.257a2.065,2.065,0,0,0,2.749.5l7.31-4.638a2.226,2.226,0,0,0,.523-.481,2.057,2.057,0,0,0,.214-2.123l-2.613-5.3a2.052,2.052,0,0,1,.135-2.013,2.211,2.211,0,0,1,.377-.425,35.306,35.306,0,0,0,8.731-10.9,1.975,1.975,0,0,1,2.241-1.02l6.875,1.687a2.022,2.022,0,0,0,2.376-1.267l.07-.189,2.9-7.966A2.059,2.059,0,0,0,3320.573,981.026Zm-63.44-8.212a23.6,23.6,0,0,1,1.133-4.251,18.573,18.573,0,0,1,6.342-7.884c.265-.17.53-.33.8-.49,16.267-9.535,34.578,5.467,28.143,23.475a19.265,19.265,0,0,1-5.133,7.117,12.569,12.569,0,0,1-1.495,1.111,21.83,21.83,0,0,1-6.846,2.862A19.05,19.05,0,0,1,3257.133,972.814Z" transform="translate(-3229.656 -932.129)" fill="#d64626"/>
    </g>
    <g id="Grupo_23685" data-name="Grupo 23685" transform="translate(655.96 1115.355)">
      <g id="Grupo_23682" data-name="Grupo 23682" transform="translate(0)">
        <path id="Trazado_19311" data-name="Trazado 19311" d="M3842.523,2219.052a1.724,1.724,0,0,1,.307,1.844.015.015,0,0,1,0,.01c-.444,1.229-1.914,2.6-3.62,3.971-.219.176-.413.336-.582.484-.044.039-.089.078-.13.117s-.068.062-.1.091c-1.591,1.467-.992,1.8-3.852,4.78-3.26,3.392-5.5,3.453-6.143,3.144-.54-.264.558-2.063,1.773-4.084.059-.1.117-.2.177-.295.162-.268.323-.542.483-.812,1.425-2.434,1.06-3.576.721-7.2-.274-2.942-4.578-16.44-4.578-16.44l6.247-1.076s1.881,10.748,3.955,12.4c1.108.882,2.349.893,3.414,1.547.075.045.149.092.221.14A8.181,8.181,0,0,1,3842.523,2219.052Z" transform="translate(-3773.4 -2072.801)" fill="#e49963"/>
        <path id="Trazado_19312" data-name="Trazado 19312" d="M3847.312,2271.2a1.723,1.723,0,0,1,.307,1.844.014.014,0,0,1,0,.009,13.279,13.279,0,0,1-3.626,3.958c-.215.179-.406.343-.575.5-.044.039-.089.078-.13.117s-.068.062-.1.09c-1.591,1.467-.992,1.8-3.852,4.78-3.26,3.392-5.5,3.453-6.143,3.144-.54-.264.557-2.062,1.773-4.084a13.888,13.888,0,0,0,5.811-4.282c1.963-2.5,3.272-5.723,4.609-7.587.075.045.149.092.221.14A8.2,8.2,0,0,1,3847.312,2271.2Z" transform="translate(-3778.189 -2124.945)" fill="#c65447"/>
        <path id="Trazado_19313" data-name="Trazado 19313" d="M3591.9,2208.044c-.386,1.928-3.135,1.607-6.206.856s-2.341.142-6.711-.342-5.7-2.113-5.829-2.763c-.119-.577,2.041-.78,4.357-1.047.291-.033.583-.069.876-.1,2.616-.328,4.53-2.016,6.906-3.4,2.25-1.313,5.608-6.662,5.608-6.662l5.994.475s-3.145,4.777-4.362,6.854a7.252,7.252,0,0,0-.588,4.085A7.69,7.69,0,0,1,3591.9,2208.044Z" transform="translate(-3573.146 -2065.694)" fill="#e49963"/>
        <path id="Trazado_19314" data-name="Trazado 19314" d="M3585.69,2246.906c-3.071-.75-2.341.142-6.711-.342s-5.7-2.114-5.829-2.764c-.119-.577,2.041-.78,4.357-1.047l.021.044a12.321,12.321,0,0,0,6.259,1.945c2.965.072,6.106-.777,8.153-.744a7.692,7.692,0,0,1-.045,2.05C3591.51,2247.978,3588.761,2247.656,3585.69,2246.906Z" transform="translate(-3573.146 -2103.7)" fill="#c65447"/>
        <path id="Trazado_19315" data-name="Trazado 19315" d="M3687.566,1825.762s-1.428-3.5-3-3.642-6.57-.928-6.926-.214a4.939,4.939,0,0,0,1.071,4.213c1.071.928,7.711,2.428,7.711,2.428Z" transform="translate(-3655.479 -1771.448)" fill="#e49963"/>
        <path id="Trazado_19316" data-name="Trazado 19316" d="M3770.8,2040.874l12.917,34.765a11.845,11.845,0,0,0,3.887-.355,16.787,16.787,0,0,0,3.757-1.83s-3.2-33.38-9.08-40.323S3770.8,2040.874,3770.8,2040.874Z" transform="translate(-3729.084 -1936.851)" fill="#aa413e"/>
        <path id="Trazado_19317" data-name="Trazado 19317" d="M3719.345,1971.831s-37.119-12.551-45.4-9.881-33.134,52.122-33.134,52.122a4.8,4.8,0,0,0,2.092,1.321,19.742,19.742,0,0,0,4.872.5s22.432-19.227,25.1-24.834,3.738-10.949,6.408-10.415,34.449,13.085,41.659,5.608,5.325-17.192,5.325-17.192Z" transform="translate(-3626.531 -1881.872)" fill="#c65447"/>
        <path id="Trazado_19318" data-name="Trazado 19318" d="M3892.265,1615.524a21.09,21.09,0,0,1-1.58-7.273c.05.385.718,5.272,2.6,8.039,7.72,5.068,22.516,21.991,22.224,25.2,0,0,5.211-8.839,5.3-8.892,0,0,9.614-12.225-1.78-19.228-5.791-3.559-5.762-8.127-5.519-12.094s-1.58-21.05-13.181-16.58a7.556,7.556,0,0,0-2.7-.7,2.279,2.279,0,0,1,1.027.488,9,9,0,0,0-4.872.932C3889.534,1587.826,3885.728,1609.507,3892.265,1615.524Z" transform="translate(-3822.135 -1583.953)" fill="#b5453c"/>
        <path id="Trazado_19319" data-name="Trazado 19319" d="M3912.389,1695.631c-.039.017,3.727,1.973,6.56,1.2,2.664-.726,4.405-4.181,4.368-4.189-1.128-.225-1.454-1.775-1.429-8.438l-.511.1-8.577,1.7s.2,2.7.2,5.242C3913.007,1693.378,3912.878,1695.4,3912.389,1695.631Z" transform="translate(-3840.784 -1663.042)" fill="#e49963"/>
        <path id="Trazado_19320" data-name="Trazado 19320" d="M3914.341,1686.376s.2,2.7.2,5.242c4.8-.135,7.337-4.514,8.376-6.94Z" transform="translate(-3842.324 -1663.418)" fill="#d68d5d"/>
        <path id="Trazado_19321" data-name="Trazado 19321" d="M3903.613,1614.382a25.223,25.223,0,0,0,3.119-7.372c.431-2.427-.8-11.419-9.842-10.125a12.276,12.276,0,0,0-5.092,1.925c-1.962,1.325-4.794,4.186-1.628,12.034l.823,2.651Z" transform="translate(-3822.133 -1594.055)" fill="#b5453c"/>
        <path id="Trazado_19322" data-name="Trazado 19322" d="M3892.61,1632.511s11.356.187,11.364-6.887,1.479-11.814-5.771-12.232-8.662,2.279-9.239,4.639S3889.656,1632.279,3892.61,1632.511Z" transform="translate(-3822.196 -1607.144)" fill="#e49963"/>
        <path id="Trazado_19323" data-name="Trazado 19323" d="M3908.736,1607.359s3.109,8.3,7.881,9.526,6.841-.052,6.841-.052a13.515,13.515,0,0,1-4.419-7.983S3911.082,1603.409,3908.736,1607.359Z" transform="translate(-3837.903 -1601.284)" fill="#b5453c"/>
        <path id="Trazado_19324" data-name="Trazado 19324" d="M3890.9,1610.866s-2.322,1.853-2.888,3.654-.821,5.509-1.9,5.383c0,0-2.343-5.641.29-8.832C3889.189,1607.689,3890.9,1610.866,3890.9,1610.866Z" transform="translate(-3819.292 -1604.118)" fill="#b5453c"/>
        <path id="Trazado_19325" data-name="Trazado 19325" d="M3780.845,1757.7c1.12-4.7-2.69-13.81-6.667-21.355-3.609-6.838-7.355-12.386-7.691-12.186-9.518,5.649-10.378.952-10.378.952s-8.646,1.148-11.093,5.363c-3.387,5.827-7.074,23.314-10.7,23.055-1.663-.119-18.4-6.409-18.4-6.409s-2.788,2.612-2.254,5.816a174.692,174.692,0,0,0,15.251,9.064c3.7,1.868,7.035,3.175,8.605,2.8,3.184-.75,8.156-8.129,10.843-12.473l.018-.029c3.429,19.41-1.233,23.831,1.126,25.878,2.493,2.161,6.054-1.029,13.887,2.366,5.138,2.229,12.268,5.451,17.068,6.012,2.517.3,4.4-.142,5.008-1.843C3787.255,1779.777,3778.709,1766.656,3780.845,1757.7Z" transform="translate(-3683.953 -1694.563)" fill="#699dee"/>
        <path id="Trazado_19326" data-name="Trazado 19326" d="M3902.753,1681.669s-.211.9-2.447.76c0,0-1.876-.116-1.819-1.1A6.038,6.038,0,0,1,3902.753,1681.669Z" transform="translate(-3829.816 -1660.591)" fill="#fff"/>
        <path id="Trazado_19327" data-name="Trazado 19327" d="M3969.941,1863.018c-.612,1.7-2.491,2.138-5.008,1.842-3.323-1.447-17.674-7.008-17.514-10.774.239-5.578,2.76-5.756.979-12.641-1.43-5.528,11.831-15.807,13.946-18.041,3.978,7.545,4.087,7.9,2.967,12.6C3963.176,1844.956,3971.721,1858.077,3969.941,1863.018Z" transform="translate(-3868.419 -1772.863)" fill="#4a75cb"/>
        <path id="Trazado_19328" data-name="Trazado 19328" d="M3805.623,1854.066c-2.687,4.344-7.659,11.724-10.843,12.473-1.57.371-4.91-.937-8.606-2.8a22.354,22.354,0,0,0,7.864.431c2.76-.267,3.561-3.65,7.922-8.724C3804.79,1852.151,3805.484,1852.98,3805.623,1854.066Z" transform="translate(-3741.21 -1796.296)" fill="#4a75cb"/>
        <path id="Trazado_19329" data-name="Trazado 19329" d="M3911.512,1902.666s-2.4-1.869-4.674-1.424-3.383,2-3.293,2.715a4.048,4.048,0,0,0,3.026,2.893c1.736.178,6.677-1.068,6.677-1.068Z" transform="translate(-3833.803 -1834.217)" fill="#e49963"/>
        <path id="Trazado_19330" data-name="Trazado 19330" d="M3942.751,1724.18s9.256.57,12.459,5.039c4.51,6.291,12.344,31.972,10.208,37.848l-28.159-.119s-.683-3.19.267-4.733,16.379-4.036,17.092-4.748-8.9-13.887-8.9-16.023S3942.751,1724.18,3942.751,1724.18Z" transform="translate(-3860.218 -1694.582)" fill="#699dee"/>
      </g>
      <g id="Grupo_23684" data-name="Grupo 23684" transform="translate(35.056 59.59)">
        <g id="Grupo_23683" data-name="Grupo 23683">
          <path id="Trazado_19331" data-name="Trazado 19331" d="M3773.269,1866.276H3739.23l6.146,21.432h34.091Z" transform="translate(-3739.23 -1866.276)" fill="#1c468a"/>
          <rect id="Rectángulo_3766" data-name="Rectángulo 3766" width="44.568" height="0.835" transform="translate(6.262 20.597)" fill="#163560"/>
        </g>
        <path id="Trazado_19332" data-name="Trazado 19332" d="M3822.156,1910.3a1.954,1.954,0,0,0-1.755-1.364.992.992,0,0,0-.973,1.364,1.954,1.954,0,0,0,1.755,1.365A.993.993,0,0,0,3822.156,1910.3Z" transform="translate(-3802.457 -1899.93)" fill="#163560"/>
      </g>
    </g>
    <g id="Grupo_23690" data-name="Grupo 23690" transform="translate(464.153 993.059)">
      <g id="Grupo_23688" data-name="Grupo 23688" transform="translate(73.871 239.082)">
        <path id="Rectángulo_3767" data-name="Rectángulo 3767" d="M7.951,0H52.566a7.951,7.951,0,0,1,7.951,7.951v0A7.951,7.951,0,0,1,52.567,15.9H7.95A7.95,7.95,0,0,1,0,7.952v0A7.951,7.951,0,0,1,7.951,0Z" transform="translate(0.634)" fill="#f99746"/>
        <path id="Trazado_19333" data-name="Trazado 19333" d="M3077.913,2188.093v1.653a3.42,3.42,0,0,1-3.41,3.41h-53.7a3.42,3.42,0,0,1-3.41-3.41v-1.79h59.54A3.565,3.565,0,0,1,3077.913,2188.093Z" transform="translate(-3016.762 -2177.253)" fill="#ed7d2b"/>
        <g id="Grupo_23686" data-name="Grupo 23686" transform="translate(0 15.82)">
          <path id="Trazado_19334" data-name="Trazado 19334" d="M3027.955,2212.281l-2.42,9.168,0,0-10.078,38.16h-1.06l5.824-31.659c.006-.032.015-.062.02-.1l2.881-15.658Z" transform="translate(-3014.394 -2212.199)" fill="#e8c6a7"/>
        </g>
        <path id="Trazado_19335" data-name="Trazado 19335" d="M3049.8,2212.281l-2.421,9.168,0,0c-.139.068-4.546,2.347-5.293,6.4l2.881-15.658Z" transform="translate(-3036.238 -2196.379)" fill="#c69d7b"/>
        <g id="Grupo_23687" data-name="Grupo 23687" transform="translate(47.59 15.82)">
          <path id="Trazado_19336" data-name="Trazado 19336" d="M3253.422,2259.612h-1.06l-8.211-31.085v-.006l-1.867-7.069,0,0-2.421-9.168,4.836-.083,1.648,8.953,1.233,6.706c.006.034.014.065.02.1Z" transform="translate(-3239.861 -2212.199)" fill="#e8c6a7"/>
        </g>
        <path id="Trazado_19337" data-name="Trazado 19337" d="M3226.448,2269.335c-.005,0-.011,0-.017-.011C3226.408,2269.285,3226.414,2269.293,3226.448,2269.335Z" transform="translate(-3181.665 -2241.427)" fill="#e8c6a7"/>
        <path id="Trazado_19338" data-name="Trazado 19338" d="M3246.345,2221.151a13.346,13.346,0,0,0-2.193,7.37l-1.867-7.069,0,0-2.421-9.168,4.836-.083Z" transform="translate(-3192.272 -2196.379)" fill="#c69d7b"/>
      </g>
      <g id="man" transform="translate(0 0)">
        <path id="Trazado_19339" data-name="Trazado 19339" d="M2977.642,1286.637c1.248-1.3,2.1-.812,2.1-.812s14.736,11.315,16.143,12.138,20.574,1.379,20.574,1.379,7.677-.087,9.54,3.855a7.84,7.84,0,0,1-1.194,8.541,7.934,7.934,0,0,1-8.507,2.742c-7.026-2.05-21-6.236-23.617-7.835-5.82-3.56-16.331-17.775-16.331-17.775A5.676,5.676,0,0,1,2977.642,1286.637Z" transform="translate(-2910.505 -1226.384)" fill="#599dad"/>
        <g id="Grupo_23689" data-name="Grupo 23689">
          <path id="Trazado_19340" data-name="Trazado 19340" d="M2747.436,1053.8l-7.358-4.433a1.9,1.9,0,0,1-.9-1.772q.112-1.364.112-2.756a31.94,31.94,0,0,0-.385-5.052,1.879,1.879,0,0,1,.891-1.922l7.686-4.64a1.845,1.845,0,0,0,.7-2.409l-3.618-7.367a1.824,1.824,0,0,0-2.25-.909l-7.771,2.821a1.832,1.832,0,0,1-2.109-.619,33.185,33.185,0,0,0-7.63-7.161,1.891,1.891,0,0,1-.7-2.193l1.725-4.724a1.909,1.909,0,0,0-.937-2.343l-7.32-3.581a1.676,1.676,0,0,0-.459-.159,1.833,1.833,0,0,0-1.95.862l-3.318,5.493-.806,1.34a32.853,32.853,0,0,0-4.63-.328,33.323,33.323,0,0,0-6.168.572,1.83,1.83,0,0,1-1.921-.853l-3.731-6.2a1.9,1.9,0,0,0-2.465-.722l-5.633,2.765-1.612.8a1.921,1.921,0,0,0-.965,2.381l2.353,6.5a1.828,1.828,0,0,1-.562,2.081,32.926,32.926,0,0,0-4.958,5.005,5.687,5.687,0,0,0-.375.459,1.02,1.02,0,0,1-.132.15,1.873,1.873,0,0,1-2.024.469l-7.677-2.784a1.361,1.361,0,0,0-.263-.075,1.9,1.9,0,0,0-2.071,1.012l-3.581,7.293a1.9,1.9,0,0,0,.722,2.456l7.677,4.621a1.832,1.832,0,0,1,.872,1.884,33.512,33.512,0,0,0-.384,5.081q0,1.378.113,2.728a1.931,1.931,0,0,1-.928,1.809l-7.387,4.462a1.843,1.843,0,0,0-.7,2.39l3.59,7.283a1.926,1.926,0,0,0,2.39.965l6.149-2.231a1.891,1.891,0,0,1,2.221.722,33.11,33.11,0,0,0,6.871,7.545,1.881,1.881,0,0,1,.6,2.128l-2.512,6.918a1.945,1.945,0,0,0,.965,2.4l7.264,3.571a1.859,1.859,0,0,0,2.418-.712l.2-.319,3.853-6.383a1.9,1.9,0,0,1,1.978-.89h.009a32.967,32.967,0,0,0,5.813.515c1.059,0,2.1-.056,3.14-.15a1.865,1.865,0,0,1,1.791.891l3.787,6.29a1.93,1.93,0,0,0,2.5.74l7.255-3.572a2.1,2.1,0,0,0,.535-.394,1.921,1.921,0,0,0,.412-1.95l-1.894-5.183a1.921,1.921,0,0,1,.328-1.856,2.036,2.036,0,0,1,.394-.356,33,33,0,0,0,9.2-9.242,1.856,1.856,0,0,1,1.875-.806,1.883,1.883,0,0,1,.309.084l6.215,2.259a1.888,1.888,0,0,0,2.334-.937l.084-.169,3.5-7.105A1.922,1.922,0,0,0,2747.436,1053.8Zm-58.087-14.013a22.056,22.056,0,0,1,1.48-3.834,17.353,17.353,0,0,1,6.684-6.684c.262-.131.525-.253.787-.375,16.066-7.218,31.561,8.558,23.771,24.633a17.993,17.993,0,0,1-5.483,6.093,11.631,11.631,0,0,1-1.5.881,20.382,20.382,0,0,1-6.646,1.969A17.794,17.794,0,0,1,2689.349,1039.79Z" transform="translate(-2664.414 -1004.544)" fill="#f99746"/>
        </g>
        <path id="Trazado_19341" data-name="Trazado 19341" d="M2882.764,1269.919s.021-5.44-.838-7.024-2.828-3.561-3.949-2.928-1.465,5.935-1.121,6.885a42.029,42.029,0,0,0,2.891,4.511Z" transform="translate(-2831.915 -1205.959)" fill="#ffb27d"/>
        <path id="Trazado_19342" data-name="Trazado 19342" d="M3156.819,2101.861c1.213-1.038.486-6.854.486-6.854s-6.247-5-7.1-1.171-5.935,5.544-8.823,6.012a3.126,3.126,0,0,0-2.782,2.013Z" transform="translate(-3038.509 -1862.78)" fill="#2c3a64"/>
        <path id="Trazado_19343" data-name="Trazado 19343" d="M3135.567,1718.088c-5.783.9-7.9-.479-7.9-.479.075-5.7-1.681-18.54-4.089-33.286-3.174-19.444-7.48-42.2-10.2-56.224-1.565-8.068-2.607-13.249-2.607-13.249l4.727-.093,23.573-.467s-1.764,26.09-1.281,38.975a24.067,24.067,0,0,0,.786,6.438C3142.593,1669.465,3135.567,1718.088,3135.567,1718.088Z" transform="translate(-3016.559 -1485.59)" fill="#35488b"/>
        <path id="Trazado_19344" data-name="Trazado 19344" d="M3147.534,1653.265c-3.2,5.992-11.224,21.427-14.21,31.058-3.174-19.444-7.479-42.2-10.2-56.224.135-5.3.769-9.935,2.12-13.342l23.573-.467S3147.052,1640.38,3147.534,1653.265Z" transform="translate(-3026.302 -1485.59)" fill="#2c3a64"/>
        <path id="Trazado_19345" data-name="Trazado 19345" d="M3062.754,2101.861c1.212-1.038.486-6.854.486-6.854s-6.247-5-7.105-1.171-5.935,5.544-8.823,6.012a3.126,3.126,0,0,0-2.782,2.013Z" transform="translate(-2964.298 -1862.78)" fill="#2c3a64"/>
        <path id="Trazado_19346" data-name="Trazado 19346" d="M3062.221,1614.25s9.261,85.685,7.426,102.965c0,0,1.979,1.55,7.82,1.194,0,0,10.579-49.362,8.338-57.35-1.558-5.554,4.647-44.776,4.647-44.776Z" transform="translate(-2978.255 -1485.558)" fill="#35488b"/>
        <path id="Trazado_19347" data-name="Trazado 19347" d="M3104.385,1269.077s-11.775,5.881-17.617,3.2a17.871,17.871,0,0,1,5.2-4.5c-.059-1.047-.092-1.993-.109-2.83-.052-2.786.087-4.354.087-4.354l5.078-3.694,3.445-2.507a22.3,22.3,0,0,0-.14,4.3A17,17,0,0,0,3104.385,1269.077Z" transform="translate(-2997.621 -1201.659)" fill="#ffb27d"/>
        <path id="Trazado_19348" data-name="Trazado 19348" d="M3119.325,1268.064s-2.747,5.475-8.471,6.256c-.052-2.786.087-4.355.087-4.355l5.078-3.694A11.438,11.438,0,0,1,3119.325,1268.064Z" transform="translate(-3016.614 -1211.028)" fill="#ed975d"/>
        <path id="Trazado_19349" data-name="Trazado 19349" d="M3100.681,1217.232s10.54,3.753,12.777-2.846,5.1-10.561-1.532-13.236-8.8-.6-10.085,1.419S3098,1216.085,3100.681,1217.232Z" transform="translate(-3007.667 -1158.649)" fill="#ffb27d"/>
        <path id="Trazado_19350" data-name="Trazado 19350" d="M3089.763,1373.025c-1.65,3.437-38.178,3.285-39.982.861-.735-.985-1.576-10.845-2.058-22.309-.266-6.351-.423-13.194-.393-19.292.055-9.95.612-17.916,2.014-18.524,7.829-3.4,12.668-5.556,22.9-5.245a8.48,8.48,0,0,1,7.382,4.757,61.721,61.721,0,0,1,6.209,24.736C3086.243,1354.406,3091.841,1368.693,3089.763,1373.025Z" transform="translate(-2966.505 -1244.333)" fill="#6bb7bf"/>
        <path id="Trazado_19351" data-name="Trazado 19351" d="M3059.148,1389.174s-1.188,17.147-11.425,26.046c-.266-6.351-.423-13.194-.393-19.292C3050.389,1391.837,3054.424,1388.892,3059.148,1389.174Z" transform="translate(-2966.505 -1307.975)" fill="#599dad"/>
        <path id="Trazado_19352" data-name="Trazado 19352" d="M2932.655,1300.18s-11.233.07-14.759,3.344c-2.526,2.347-18.76,15.142-19.792,14.97s-11.483-21.036-11.483-21.036-5.153.436-6.013,2.667c0,0,4.86,26.05,15.346,31.713,0,0,26.508-5.028,34.372-13.8C2934.378,1313.526,2932.655,1300.18,2932.655,1300.18Z" transform="translate(-2834.976 -1235.631)" fill="#6bb7bf"/>
        <path id="Trazado_19353" data-name="Trazado 19353" d="M3107.256,1184.189s.623,6.3,2.514,8.015,1.392,4.084,1.6,4.428,2.163-.668,2.508-.088c.792,1.332-.446,2.3-1.228,2.625s2,5.727,4.037,5.926c3.527.344,8.976-9.41,9.436-12.269.6-3.739-1.515-9.57-7.585-9.283C3109,1184,3107.064,1181.927,3107.256,1184.189Z" transform="translate(-3013.775 -1145.42)" fill="#2b478b"/>
      </g>
    </g>
  </g>
</svg>
