<svg xmlns="http://www.w3.org/2000/svg" width="411.333" height="322.934" viewBox="0 0 411.333 322.934">
  <g id="Grupo_20926" data-name="Grupo 20926" transform="translate(-63.621 -121.771)">
    <path id="Trazado_18320" data-name="Trazado 18320" d="M96.873,439.315S59.53,381.006,71.556,326.574s56.343-53.31,46.526-111.783,52.362-97.252,121.832-92.651c95.571,6.329,76.584,78.482,128.484,82.28s104.924,51.619,94.939,97.363c-17.089,78.291,30.381,98.789-4.431,137.515Z" fill="#e84118" opacity="0.1"/>
    <g id="Grupo_20911" data-name="Grupo 20911">
      <ellipse id="Elipse_857" data-name="Elipse 857" cx="25.846" cy="68.202" rx="25.846" ry="68.202" transform="translate(63.621 282.43)" fill="#e84118"/>
      <g id="Grupo_20910" data-name="Grupo 20910">
        <path id="Trazado_18321" data-name="Trazado 18321" d="M89.467,440.96a1.425,1.425,0,0,1-1.424-1.425V315.511a1.424,1.424,0,0,1,2.849,0V439.535A1.425,1.425,0,0,1,89.467,440.96Z" fill="#231f20"/>
        <path id="Trazado_18322" data-name="Trazado 18322" d="M89.467,397.177a1.424,1.424,0,0,1-1.007-2.432l16.892-16.891a1.424,1.424,0,1,1,2.013,2.014L90.474,396.76A1.423,1.423,0,0,1,89.467,397.177Z" fill="#231f20"/>
        <path id="Trazado_18323" data-name="Trazado 18323" d="M89.467,378.505a1.422,1.422,0,0,1-1.007-.417l-14.28-14.28a1.424,1.424,0,0,1,2.013-2.014l14.281,14.28a1.424,1.424,0,0,1-1.007,2.431Z" fill="#231f20"/>
        <path id="Trazado_18324" data-name="Trazado 18324" d="M89.467,353.109a1.424,1.424,0,0,1-1.007-2.43L98.5,340.64a1.424,1.424,0,1,1,2.014,2.013L90.474,352.692A1.415,1.415,0,0,1,89.467,353.109Z" fill="#231f20"/>
        <path id="Trazado_18325" data-name="Trazado 18325" d="M89.467,334.756a1.422,1.422,0,0,1-1.007-.417l-8.5-8.5a1.424,1.424,0,0,1,2.014-2.014l8.5,8.5a1.424,1.424,0,0,1-1.007,2.431Z" fill="#231f20"/>
      </g>
    </g>
    <g id="Grupo_20913" data-name="Grupo 20913">
      <path id="Trazado_18326" data-name="Trazado 18326" d="M474.954,350.632c0,37.667-11.571,68.2-25.846,68.2s-25.846-30.535-25.846-68.2,11.572-68.2,25.846-68.2S474.954,312.965,474.954,350.632Z" fill="#e84118"/>
      <g id="Grupo_20912" data-name="Grupo 20912">
        <path id="Trazado_18327" data-name="Trazado 18327" d="M449.108,440.96a1.423,1.423,0,0,1-1.423-1.425V315.511a1.424,1.424,0,1,1,2.847,0V439.535A1.425,1.425,0,0,1,449.108,440.96Z" fill="#231f20"/>
        <path id="Trazado_18328" data-name="Trazado 18328" d="M449.108,397.177a1.424,1.424,0,0,1-1.006-2.432l16.89-16.891a1.424,1.424,0,1,1,2.014,2.014L450.115,396.76A1.423,1.423,0,0,1,449.108,397.177Z" fill="#231f20"/>
        <path id="Trazado_18329" data-name="Trazado 18329" d="M449.108,378.505a1.418,1.418,0,0,1-1.006-.417l-14.282-14.28a1.424,1.424,0,0,1,2.014-2.014l14.281,14.28a1.424,1.424,0,0,1-1.007,2.431Z" fill="#231f20"/>
        <path id="Trazado_18330" data-name="Trazado 18330" d="M449.108,353.109a1.424,1.424,0,0,1-1.006-2.43l10.039-10.039a1.423,1.423,0,0,1,2.013,2.013l-10.039,10.039A1.415,1.415,0,0,1,449.108,353.109Z" fill="#231f20"/>
        <path id="Trazado_18331" data-name="Trazado 18331" d="M449.108,334.756a1.418,1.418,0,0,1-1.006-.417l-8.5-8.5a1.424,1.424,0,0,1,2.014-2.014l8.5,8.5a1.424,1.424,0,0,1-1.007,2.431Z" fill="#231f20"/>
      </g>
    </g>
    <g id="Grupo_20915" data-name="Grupo 20915">
      <path id="Trazado_18332" data-name="Trazado 18332" d="M186.256,325.053c0,48.334-14.848,87.516-33.165,87.516s-33.165-39.182-33.165-87.516,14.848-87.515,33.165-87.515S186.256,276.72,186.256,325.053Z" fill="#fbc531"/>
      <g id="Grupo_20914" data-name="Grupo 20914">
        <path id="Trazado_18333" data-name="Trazado 18333" d="M153.091,440.96a1.827,1.827,0,0,1-1.827-1.827V279.986a1.827,1.827,0,1,1,3.654,0V439.133A1.826,1.826,0,0,1,153.091,440.96Z" fill="#231f20"/>
        <path id="Trazado_18334" data-name="Trazado 18334" d="M153.091,384.778a1.827,1.827,0,0,1-1.292-3.119l21.675-21.675a1.827,1.827,0,0,1,2.584,2.584l-21.675,21.675A1.82,1.82,0,0,1,153.091,384.778Z" fill="#231f20"/>
        <path id="Trazado_18335" data-name="Trazado 18335" d="M153.091,360.819a1.82,1.82,0,0,1-1.292-.535L133.475,341.96a1.827,1.827,0,0,1,2.584-2.584L154.383,357.7a1.827,1.827,0,0,1-1.292,3.119Z" fill="#231f20"/>
        <path id="Trazado_18336" data-name="Trazado 18336" d="M153.091,328.232a1.827,1.827,0,0,1-1.292-3.119l12.882-12.882a1.827,1.827,0,0,1,2.584,2.584L154.383,327.7A1.82,1.82,0,0,1,153.091,328.232Z" fill="#231f20"/>
        <path id="Trazado_18337" data-name="Trazado 18337" d="M153.091,304.682a1.824,1.824,0,0,1-1.292-.535l-10.9-10.9a1.827,1.827,0,0,1,2.584-2.584l10.9,10.9a1.827,1.827,0,0,1-1.292,3.119Z" fill="#231f20"/>
      </g>
    </g>
    <path id="Trazado_18338" data-name="Trazado 18338" d="M71.873,444.7H210.982a2.821,2.821,0,0,0,2.822-2.821h0a2.822,2.822,0,0,0-2.822-2.823H71.873a2.823,2.823,0,0,0-2.823,2.823h0A2.822,2.822,0,0,0,71.873,444.7Z" fill="#7f8fa6"/>
    <path id="Trazado_18339" data-name="Trazado 18339" d="M200.747,233.96a3.573,3.573,0,0,1,3.007-4.057c3.585-.887,2.05-7.838,8.359-9.382s7.551,6.086,12.609,4.184,3.537-8.621,12.539-8.748,9.138,10.27,14.9,9.509,7.919,4.437,7.919,8.494Z" fill="#00a8ff" opacity="0.5"/>
    <path id="Trazado_18340" data-name="Trazado 18340" d="M223.035,444.7H229.5a2.821,2.821,0,0,0,2.821-2.821h0a2.822,2.822,0,0,0-2.821-2.823h-6.461a2.822,2.822,0,0,0-2.822,2.823h0A2.821,2.821,0,0,0,223.035,444.7Z" fill="#7f8fa6"/>
    <g id="Grupo_20925" data-name="Grupo 20925">
      <g id="Grupo_20919" data-name="Grupo 20919">
        <rect id="Rectángulo_3569" data-name="Rectángulo 3569" width="185.661" height="234.655" rx="9.885" transform="translate(251.64 204.643)" fill="#b6b6b7"/>
        <rect id="Rectángulo_3570" data-name="Rectángulo 3570" width="185.661" height="234.656" rx="9.885" transform="translate(251.64 202.506)" fill="#dcdde1"/>
        <rect id="Rectángulo_3571" data-name="Rectángulo 3571" width="157.583" height="206.29" transform="translate(265.679 214.791)" fill="#b6b6b7"/>
        <rect id="Rectángulo_3572" data-name="Rectángulo 3572" width="157.583" height="206.29" transform="translate(265.679 214.253)" fill="#f5f6fa"/>
        <path id="Trazado_18341" data-name="Trazado 18341" d="M382.111,200.716H355.644l-1.565-5.687a2.887,2.887,0,0,0-2.783-2.121H337.645a2.888,2.888,0,0,0-2.784,2.121l-1.565,5.687H306.829a2.757,2.757,0,0,0-2.757,2.758V225.75a2.758,2.758,0,0,0,2.757,2.758h75.282a2.758,2.758,0,0,0,2.758-2.758V203.474A2.757,2.757,0,0,0,382.111,200.716Zm-41.831-3.4a1.827,1.827,0,0,1,1.826-1.827h4.728a1.827,1.827,0,0,1,1.827,1.827v.644a1.827,1.827,0,0,1-1.827,1.827h-4.728a1.827,1.827,0,0,1-1.826-1.827Z" fill="#4d5966"/>
        <path id="Trazado_18342" data-name="Trazado 18342" d="M382.111,199.355H355.644l-1.565-5.687a2.888,2.888,0,0,0-2.783-2.121H337.645a2.889,2.889,0,0,0-2.784,2.121l-1.565,5.687H306.829a2.757,2.757,0,0,0-2.757,2.757v22.277a2.758,2.758,0,0,0,2.757,2.758h75.282a2.758,2.758,0,0,0,2.758-2.758V202.112A2.757,2.757,0,0,0,382.111,199.355Zm-41.831-3.4a1.827,1.827,0,0,1,1.826-1.827h4.728a1.827,1.827,0,0,1,1.827,1.827v.644a1.827,1.827,0,0,1-1.827,1.827h-4.728a1.827,1.827,0,0,1-1.826-1.827Z" fill="#718093"/>
        <g id="Grupo_20917" data-name="Grupo 20917">
          <g id="Grupo_20916" data-name="Grupo 20916">
            <path id="Trazado_18343" data-name="Trazado 18343" d="M361.321,255.225h-69.91a3.592,3.592,0,0,1-3.581-3.581h0a3.591,3.591,0,0,1,3.581-3.581h69.91a3.591,3.591,0,0,1,3.581,3.581h0A3.592,3.592,0,0,1,361.321,255.225Z" fill="#b6b6b7"/>
            <path id="Trazado_18344" data-name="Trazado 18344" d="M361.321,268.118h-69.91a3.591,3.591,0,0,1-3.581-3.581h0a3.592,3.592,0,0,1,3.581-3.582h69.91a3.592,3.592,0,0,1,3.581,3.582h0A3.591,3.591,0,0,1,361.321,268.118Z" fill="#b6b6b7"/>
            <path id="Trazado_18345" data-name="Trazado 18345" d="M361.321,296.054h-69.91a3.592,3.592,0,0,1-3.581-3.582h0a3.591,3.591,0,0,1,3.581-3.581h69.91a3.591,3.591,0,0,1,3.581,3.581h0A3.592,3.592,0,0,1,361.321,296.054Z" fill="#b6b6b7"/>
            <path id="Trazado_18346" data-name="Trazado 18346" d="M361.321,308.946h-69.91a3.591,3.591,0,0,1-3.581-3.581h0a3.592,3.592,0,0,1,3.581-3.582h69.91a3.592,3.592,0,0,1,3.581,3.582h0A3.591,3.591,0,0,1,361.321,308.946Z" fill="#b6b6b7"/>
            <path id="Trazado_18347" data-name="Trazado 18347" d="M361.321,336.882h-69.91a3.591,3.591,0,0,1-3.581-3.581h0a3.591,3.591,0,0,1,3.581-3.582h69.91A3.591,3.591,0,0,1,364.9,333.3h0A3.591,3.591,0,0,1,361.321,336.882Z" fill="#b6b6b7"/>
            <path id="Trazado_18348" data-name="Trazado 18348" d="M361.321,349.775h-69.91a3.592,3.592,0,0,1-3.581-3.582h0a3.592,3.592,0,0,1,3.581-3.581h69.91a3.592,3.592,0,0,1,3.581,3.581h0A3.592,3.592,0,0,1,361.321,349.775Z" fill="#b6b6b7"/>
            <path id="Trazado_18349" data-name="Trazado 18349" d="M361.321,377.71h-69.91a3.591,3.591,0,0,1-3.581-3.581h0a3.592,3.592,0,0,1,3.581-3.582h69.91a3.592,3.592,0,0,1,3.581,3.582h0A3.591,3.591,0,0,1,361.321,377.71Z" fill="#b6b6b7"/>
            <path id="Trazado_18350" data-name="Trazado 18350" d="M361.321,390.6h-69.91a3.592,3.592,0,0,1-3.581-3.581h0a3.592,3.592,0,0,1,3.581-3.582h69.91a3.592,3.592,0,0,1,3.581,3.582h0A3.592,3.592,0,0,1,361.321,390.6Z" fill="#b6b6b7"/>
          </g>
          <path id="Trazado_18351" data-name="Trazado 18351" d="M398.661,268.539H384.507a3.877,3.877,0,0,1-3.873-3.873V250.512a3.878,3.878,0,0,1,3.873-3.874h14.154a3.879,3.879,0,0,1,3.874,3.874v14.154A3.878,3.878,0,0,1,398.661,268.539Zm-14.154-19.053a1.027,1.027,0,0,0-1.026,1.026v14.154a1.027,1.027,0,0,0,1.026,1.025h14.154a1.026,1.026,0,0,0,1.025-1.025V250.512a1.026,1.026,0,0,0-1.025-1.026Z" fill="#b6b6b7"/>
          <path id="Trazado_18352" data-name="Trazado 18352" d="M398.661,309.368H384.507a3.878,3.878,0,0,1-3.873-3.874V291.34a3.877,3.877,0,0,1,3.873-3.873h14.154a3.878,3.878,0,0,1,3.874,3.873v14.154A3.879,3.879,0,0,1,398.661,309.368Zm-14.154-19.053a1.026,1.026,0,0,0-1.026,1.025v14.154a1.028,1.028,0,0,0,1.026,1.027h14.154a1.027,1.027,0,0,0,1.025-1.027V291.34a1.025,1.025,0,0,0-1.025-1.025Z" fill="#b6b6b7"/>
          <path id="Trazado_18353" data-name="Trazado 18353" d="M398.661,350.2H384.507a3.878,3.878,0,0,1-3.873-3.874V332.168a3.877,3.877,0,0,1,3.873-3.873h14.154a3.878,3.878,0,0,1,3.874,3.873v14.154A3.879,3.879,0,0,1,398.661,350.2Zm-14.154-19.053a1.027,1.027,0,0,0-1.026,1.025v14.154a1.028,1.028,0,0,0,1.026,1.027h14.154a1.027,1.027,0,0,0,1.025-1.027V332.168a1.026,1.026,0,0,0-1.025-1.025Z" fill="#b6b6b7"/>
          <path id="Trazado_18354" data-name="Trazado 18354" d="M398.661,391.025H384.507a3.879,3.879,0,0,1-3.873-3.875V373a3.877,3.877,0,0,1,3.873-3.874h14.154A3.878,3.878,0,0,1,402.535,373V387.15A3.879,3.879,0,0,1,398.661,391.025Zm-14.154-19.053A1.027,1.027,0,0,0,383.481,373V387.15a1.028,1.028,0,0,0,1.026,1.027h14.154a1.027,1.027,0,0,0,1.025-1.027V373a1.026,1.026,0,0,0-1.025-1.025Z" fill="#b6b6b7"/>
          <path id="Trazado_18355" data-name="Trazado 18355" d="M391.584,263.645a2.147,2.147,0,0,1-1.326-.459l-4.567-3.582a2.149,2.149,0,0,1,2.653-3.381l2.725,2.137,6.4-9.761a2.149,2.149,0,1,1,3.593,2.357l-7.68,11.718a2.149,2.149,0,0,1-1.449.942A2.171,2.171,0,0,1,391.584,263.645Z" fill="#e84118"/>
          <path id="Trazado_18356" data-name="Trazado 18356" d="M391.584,304.061a2.146,2.146,0,0,1-1.326-.458l-4.567-3.581a2.149,2.149,0,0,1,2.653-3.381l2.725,2.136,6.4-9.761a2.148,2.148,0,1,1,3.593,2.356l-7.68,11.719a2.145,2.145,0,0,1-1.8.97Z" fill="#e84118"/>
          <path id="Trazado_18357" data-name="Trazado 18357" d="M391.584,344.891a2.153,2.153,0,0,1-1.326-.459l-4.567-3.581a2.149,2.149,0,0,1,2.653-3.382l2.725,2.138,6.4-9.762a2.148,2.148,0,0,1,3.593,2.355l-7.68,11.719a2.142,2.142,0,0,1-1.449.942A2.063,2.063,0,0,1,391.584,344.891Z" fill="#e84118"/>
          <path id="Trazado_18358" data-name="Trazado 18358" d="M391.584,385.719a2.147,2.147,0,0,1-1.326-.459l-4.567-3.581a2.149,2.149,0,1,1,2.653-3.381l2.725,2.137,6.4-9.762a2.148,2.148,0,1,1,3.593,2.355l-7.68,11.719a2.147,2.147,0,0,1-1.449.943A2.171,2.171,0,0,1,391.584,385.719Z" fill="#e84118"/>
        </g>
        <g id="Grupo_20918" data-name="Grupo 20918">
          <path id="Trazado_18359" data-name="Trazado 18359" d="M323.348,202.837H307.811a.743.743,0,0,1-.741-.741h0a.743.743,0,0,1,.741-.742h15.537a.744.744,0,0,1,.742.742h0A.743.743,0,0,1,323.348,202.837Z" fill="#718093" opacity="0.5" style="mix-blend-mode: screen;isolation: isolate"/>
          <path id="Trazado_18360" data-name="Trazado 18360" d="M325.93,202.837H325.6a.743.743,0,0,1-.741-.741h0a.744.744,0,0,1,.741-.742h.328a.744.744,0,0,1,.741.742h0A.743.743,0,0,1,325.93,202.837Z" fill="#718093" opacity="0.5" style="mix-blend-mode: screen;isolation: isolate"/>
        </g>
      </g>
      <g id="Grupo_20924" data-name="Grupo 20924">
        <path id="Trazado_18361" data-name="Trazado 18361" d="M186.256,284.257s5.2,13.471,6.532,23.378,3.5,16.239-9.333,16.573-8.167-28.873-8.167-28.873Z" fill="#192a56"/>
        <path id="Trazado_18362" data-name="Trazado 18362" d="M177.09,227.572s2.615,4.011,2.428,7.448-.126,9.063,1.78,11.313a13.335,13.335,0,0,1,.47,15.8c-4.625,6.7-6.688,6.515-9.125,6.39s-9.455-1.938-9.313-2.773-.75-13.04-.75-13.04Z" fill="#192a56"/>
        <path id="Trazado_18363" data-name="Trazado 18363" d="M142.872,276.475s-2.251,24.566-13.417,31.4,5.208,27.358,23.77,14.1,11.962-29.43,12.179-30.1-10.35-13.715-10.35-13.715Z" fill="#192a56"/>
        <path id="Trazado_18364" data-name="Trazado 18364" d="M159.5,259.326l-13.33,3.7-1.21,15.131,9.964,31.027h33.35l-5.007-48.645-11.921-.362Z" fill="#e84118"/>
        <path id="Trazado_18365" data-name="Trazado 18365" d="M183.262,260.542l35.391,24.2L216.507,297.4,183.2,274.058Z" fill="#e84118"/>
        <g id="Grupo_20921" data-name="Grupo 20921">
          <path id="Trazado_18366" data-name="Trazado 18366" d="M233.706,260.606l-8.285-32.471-13.468,33.49,4.847,14.344,9.742-.241S233.015,269.425,233.706,260.606Z" fill="#fcde95"/>
          <rect id="Rectángulo_3573" data-name="Rectángulo 3573" width="21.606" height="14.941" transform="translate(221.274 418.768) rotate(-175.507)" fill="#dcdde1"/>
          <rect id="Rectángulo_3574" data-name="Rectángulo 3574" width="21.605" height="1.612" transform="matrix(-0.997, -0.078, 0.078, -0.997, 222.445, 403.872)" fill="#dcdde1" style="mix-blend-mode: multiply;isolation: isolate"/>
          <path id="Rectángulo_3575" data-name="Rectángulo 3575" d="M7.02,0h7.567a7.019,7.019,0,0,1,7.019,7.019v14.12a0,0,0,0,1,0,0H0a0,0,0,0,1,0,0V7.02A7.02,7.02,0,0,1,7.02,0Z" transform="translate(219.618 439.842) rotate(-175.507)" fill="#e84118"/>
          <g id="Grupo_20920" data-name="Grupo 20920">
            <rect id="Rectángulo_3576" data-name="Rectángulo 3576" width="21.606" height="0.526" transform="translate(221.377 417.458) rotate(-175.505)" fill="#dcdde1" style="mix-blend-mode: multiply;isolation: isolate"/>
            <rect id="Rectángulo_3577" data-name="Rectángulo 3577" width="21.606" height="0.526" transform="translate(221.509 415.779) rotate(-175.505)" fill="#dcdde1" style="mix-blend-mode: multiply;isolation: isolate"/>
            <rect id="Rectángulo_3578" data-name="Rectángulo 3578" width="21.605" height="0.526" transform="translate(221.641 414.101) rotate(-175.505)" fill="#dcdde1" style="mix-blend-mode: multiply;isolation: isolate"/>
            <rect id="Rectángulo_3579" data-name="Rectángulo 3579" width="21.606" height="0.526" transform="translate(221.773 412.422) rotate(-175.505)" fill="#dcdde1" style="mix-blend-mode: multiply;isolation: isolate"/>
            <rect id="Rectángulo_3580" data-name="Rectángulo 3580" width="21.606" height="0.526" transform="translate(221.905 410.743) rotate(-175.505)" fill="#dcdde1" style="mix-blend-mode: multiply;isolation: isolate"/>
            <rect id="Rectángulo_3581" data-name="Rectángulo 3581" width="21.606" height="0.526" transform="matrix(-0.997, -0.078, 0.078, -0.997, 222.037, 409.064)" fill="#dcdde1" style="mix-blend-mode: multiply;isolation: isolate"/>
            <rect id="Rectángulo_3582" data-name="Rectángulo 3582" width="21.606" height="0.526" transform="translate(222.169 407.386) rotate(-175.505)" fill="#dcdde1" style="mix-blend-mode: multiply;isolation: isolate"/>
            <rect id="Rectángulo_3583" data-name="Rectángulo 3583" width="21.606" height="0.526" transform="matrix(-0.997, -0.078, 0.078, -0.997, 222.301, 405.707)" fill="#dcdde1" style="mix-blend-mode: multiply;isolation: isolate"/>
          </g>
          <path id="Trazado_18367" data-name="Trazado 18367" d="M222.3,264.794a5.06,5.06,0,0,1-4.362-3.337l-11.1,141.19,9.663.758L227.747,260.4c0-.088,0-.171.005-.26A5.068,5.068,0,0,1,222.3,264.794Z" fill="#fbb040"/>
          <path id="Trazado_18368" data-name="Trazado 18368" d="M214.273,264.163c-1.054-.083-1.9-1.093-2.32-2.538L200.906,402.18l5.938.467,11.1-141.19a5.032,5.032,0,0,1-.294-2.113C217.428,262.135,215.917,264.292,214.273,264.163Z" fill="#fbb040"/>
          <path id="Trazado_18369" data-name="Trazado 18369" d="M214.273,264.163c-1.054-.083-1.9-1.093-2.32-2.538L200.906,402.18l5.938.467,11.1-141.19a5.032,5.032,0,0,1-.294-2.113C217.428,262.135,215.917,264.292,214.273,264.163Z" fill="#fbb040" opacity="0.5" style="mix-blend-mode: multiply;isolation: isolate"/>
          <path id="Trazado_18370" data-name="Trazado 18370" d="M230.331,265.425c-1.591-.125-2.712-2.353-2.584-5.026L216.507,403.4l5.938.467,11.261-143.266C233.486,263.4,231.976,265.554,230.331,265.425Z" fill="#fbb040"/>
          <path id="Trazado_18371" data-name="Trazado 18371" d="M230.331,265.425c-1.591-.125-2.712-2.353-2.584-5.026L216.507,403.4l5.938.467,11.261-143.266C233.486,263.4,231.976,265.554,230.331,265.425Z" fill="#fbb040" opacity="0.5" style="mix-blend-mode: multiply;isolation: isolate"/>
          <path id="Trazado_18372" data-name="Trazado 18372" d="M225.421,228.135l-3.08,7.66a7.609,7.609,0,0,0,5.122.343Z" fill="#192a56"/>
        </g>
        <g id="Grupo_20922" data-name="Grupo 20922">
          <path id="Trazado_18373" data-name="Trazado 18373" d="M158.481,245.793a49.469,49.469,0,0,1,0,14.967l15.8,9.781V260.482a23.814,23.814,0,0,1,0-9.77l-8.592-7.206-5.2,1.455Z" fill="#fbb040"/>
          <path id="Trazado_18374" data-name="Trazado 18374" d="M174.279,250.712l-8.592-7.206-5.2,1.455-2.01.832.015.082.005.031c.246,1.387.328,2.812.462,4.218a34.552,34.552,0,0,0,15.316,10.358A23.814,23.814,0,0,1,174.279,250.712Z" fill="#fbb040" opacity="0.5" style="mix-blend-mode: multiply;isolation: isolate"/>
          <path id="Trazado_18375" data-name="Trazado 18375" d="M178.047,232.64l.449,12.818s-.191,7.459-2.967,8.583c-3.205,1.3-7.526.006-10.508-1.573a4.436,4.436,0,0,1-1.669-1.6c-.751-1.215-1.95-1.576-2.773-5.279,0,0-.2,2.1-1.979,1.962-2.491-.193-2.812-6.005-1.268-6.79s3.01,1.432,3.01,1.432l.514,1.651,1.239-.335a5.674,5.674,0,0,1,.345-4.18l-1.267-1.709,1.247.416.773-2.865a41.52,41.52,0,0,0,9.86.37C177.369,234.984,178.047,232.64,178.047,232.64Z" fill="#fbb040"/>
          <path id="Trazado_18376" data-name="Trazado 18376" d="M177.883,239.708s.076-1.94,1.648-1.212,1,6.813-1.479,6.044Z" fill="#fbb040"/>
          <path id="Trazado_18377" data-name="Trazado 18377" d="M178.047,232.64s.728,2.193-3.88,3.38-6.964,0-6.964,0,1.5,9.892-6.347,7.821c0,0-.5-3.325-3.317-3.167,0,0-1.85,1.009-.888,4.678,0,0,.632,2.318,1.949,2.2a1.924,1.924,0,0,0,.926-.171s.8,7.4-.031,11.949l-11.621,3.228s3.4-8.868,3.291-13.18.226-11.16,1.679-15.6c1.554-4.75,2.358-6.562,9.322-9.062S178.928,222.573,178.047,232.64Z" fill="#192a56"/>
          <path id="Trazado_18378" data-name="Trazado 18378" d="M155.247,229.917a.5.5,0,0,1-.373-.166c-.038-.041-.651-.639-2.127-.113a.5.5,0,1,1-.335-.943c2.171-.772,3.171.347,3.212.394a.5.5,0,0,1-.377.828Z" fill="#192a56"/>
          <path id="Trazado_18379" data-name="Trazado 18379" d="M154.909,229.668a.5.5,0,0,1-.473-.337,2.581,2.581,0,0,1,1.183-3.055.5.5,0,0,1,.5.864,1.574,1.574,0,0,0-.738,1.872.5.5,0,0,1-.318.631A.511.511,0,0,1,154.909,229.668Z" fill="#192a56"/>
          <path id="Trazado_18380" data-name="Trazado 18380" d="M173.163,245.749l2.375-.666S175.205,246.624,173.163,245.749Z" fill="#fbb040" style="mix-blend-mode: multiply;isolation: isolate"/>
        </g>
        <path id="Trazado_18381" data-name="Trazado 18381" d="M146.165,263.028,122.27,294.17s-.966,2.6,1.911,5.077l9.326-2.995,18.656-19.777S154.337,270.2,146.165,263.028Z" fill="#e84118"/>
        <path id="Trazado_18382" data-name="Trazado 18382" d="M230.69,298.965l-8.254,1.58v2.216l5.316-.317-3.971,1.108s-.277,5.617,1.325,7.674l4.528,1.18S232.537,304.663,230.69,298.965Z" fill="#fbb040"/>
        <path id="Trazado_18383" data-name="Trazado 18383" d="M183.583,268.565l6.245,12.131a3.093,3.093,0,0,1-.175,4.125l-7.744,7.651Z" fill="#e84118"/>
        <path id="Trazado_18384" data-name="Trazado 18384" d="M184.614,309.186s-.212,25.833.544,62.786H170.913s-5.392-17.056-6.985-62.786Z" fill="#fbb040"/>
        <path id="Trazado_18385" data-name="Trazado 18385" d="M156.055,310.333l-10.471,61.639H159.83s11.117-21.558,15.037-54.037v-8.749Z" fill="#fbb040"/>
        <path id="Trazado_18386" data-name="Trazado 18386" d="M147.306,371.972l-.155,57.361,4.234-.25s15.2-50.578,10.166-57.111Z" fill="#fbb040"/>
        <path id="Trazado_18387" data-name="Trazado 18387" d="M185.158,371.972l-7.251,53.558-5.792.926s-4.081-44.415-1.2-54.484Z" fill="#fbb040"/>
        <path id="Trazado_18388" data-name="Trazado 18388" d="M155.455,309.186l-6.331,11.454-4.843,53.488h46.252V317.141l-2.263-7.954Z" fill="#00a8ff"/>
        <path id="Trazado_18389" data-name="Trazado 18389" d="M147.306,425.53l-5.238,9.178-8.891,6.252H148.51l2.683-5.535,2.168,4.783H155.4l-2.653-15.825Z" fill="#fbb040"/>
        <path id="Trazado_18390" data-name="Trazado 18390" d="M177.907,425.53l5.238,9.178,8.892,6.252H176.7l-2.683-5.535-2.169,4.783h-2.043l2.653-15.825Z" fill="#fbb040"/>
        <path id="Trazado_18391" data-name="Trazado 18391" d="M148.51,440.96l2.682-5.535,2.169,4.783H155.4l-1.479-8.824a4.214,4.214,0,0,0-3.72,2.24l-3.054,5.436-1.113-1.936c-1.5-3.333-3.971-2.416-3.971-2.416l-8.891,6.252Z" fill="#e84118"/>
        <path id="Trazado_18392" data-name="Trazado 18392" d="M176.7,440.96l-2.683-5.535-2.169,4.783h-2.043l1.48-8.824a4.213,4.213,0,0,1,3.719,2.24l3.054,5.436,1.113-1.936c1.5-3.333,3.97-2.416,3.97-2.416l8.892,6.252Z" fill="#e84118"/>
        <path id="Trazado_18393" data-name="Trazado 18393" d="M186.256,288.177c-.021.015-3.4,2.229-10.968-.742l11.628,8.61A45.647,45.647,0,0,1,186.256,288.177Z" fill="#e84118" opacity="0.5" style="mix-blend-mode: multiply;isolation: isolate"/>
        <g id="Grupo_20923" data-name="Grupo 20923">
          <path id="Trazado_18394" data-name="Trazado 18394" d="M149.479,307.549l-3.1-1.755-3.907,7.4,3.554,2.644Z" fill="#fbb040"/>
          <rect id="Rectángulo_3584" data-name="Rectángulo 3584" width="3.244" height="9.523" transform="matrix(0.938, 0.345, -0.345, 0.938, 144.403, 304.829)" fill="#fff"/>
          <path id="Trazado_18395" data-name="Trazado 18395" d="M145.726,304.933l-13.2-12.3-2.973.648-6.325,4.972,18.8,17.287Z" fill="#e84118"/>
          <path id="Trazado_18396" data-name="Trazado 18396" d="M153.26,307.635l-4.136,11.31,4.445,1.7,5.574-9.792Z" fill="#fbb040"/>
          <path id="Trazado_18397" data-name="Trazado 18397" d="M153.26,307.635l-3.781-.086-3.457,8.291a4.392,4.392,0,0,0,3.1,3.1Z" fill="#fbb040"/>
          <path id="Trazado_18398" data-name="Trazado 18398" d="M157.211,313.458l1.33,1.217-.673,1.291-.755-.014.447.733-.8,1.808-1.138-.142.389,1.251-.981,1.22-1.465-.182.949-5.29Z" fill="#fbb040"/>
          <path id="Trazado_18399" data-name="Trazado 18399" d="M159.142,310.849l4.009,2.7-.5,1.16-5.858-1.352Z" fill="#fbb040"/>
        </g>
        <path id="Trazado_18400" data-name="Trazado 18400" d="M146.382,282.6l4.882-5.176-.962,17.385Z" fill="#e84118" opacity="0.5" style="mix-blend-mode: multiply;isolation: isolate"/>
      </g>
    </g>
    <path id="Trazado_18401" data-name="Trazado 18401" d="M239.53,444.7H468.069a2.822,2.822,0,0,0,2.822-2.821h0a2.823,2.823,0,0,0-2.822-2.823H239.53a2.823,2.823,0,0,0-2.822,2.823h0A2.822,2.822,0,0,0,239.53,444.7Z" fill="#7f8fa6"/>
    <path id="Trazado_18402" data-name="Trazado 18402" d="M173.473,180.366s.894-4.9-4.651-6.275-3.171-12.122-12.928-14.51-11.678,9.412-19.5,6.471-5.47-13.334-19.392-13.531S102.867,168.4,93.953,167.228s-12.247,6.863-12.247,13.138Z" fill="#00a8ff" opacity="0.5"/>
    <path id="Trazado_18403" data-name="Trazado 18403" d="M241.973,150.921s-.894-4.9,4.651-6.275,3.171-12.122,12.928-14.51,11.678,9.412,19.5,6.471,5.47-13.334,19.392-13.53,14.134,15.883,23.048,14.706,12.247,6.863,12.247,13.138Z" fill="#00a8ff" opacity="0.5"/>
    <path id="Trazado_18404" data-name="Trazado 18404" d="M473.825,191.547s.894-4.9-4.651-6.274S466,173.15,456.246,170.762s-11.678,9.412-19.5,6.471-5.47-13.334-19.393-13.53S403.219,179.586,394.3,178.41s-12.247,6.863-12.247,13.137Z" fill="#00a8ff" opacity="0.5"/>
  </g>
</svg>
