<svg xmlns="http://www.w3.org/2000/svg" width="640.409" height="661.324" viewBox="0 0 640.409 661.324">
  <g id="Grupo_26507" data-name="Grupo 26507" transform="translate(-387 -10542.999)">
    <path id="Trazado_18282" data-name="Trazado 18282" d="M1658.662,783.71l-66.995-19.479-66.995,19.479,66.995,19.9Z" transform="translate(-1137.673 10309.688)" fill="#97181a"/>
    <path id="Trazado_18284" data-name="Trazado 18284" d="M1658.662,267.99l-66.995-19.479-66.995,19.479,66.995,19.9Z" transform="translate(-1137.673 10403.816)" fill="#ffb300"/>
    <path id="Trazado_18285" data-name="Trazado 18285" d="M1658.662,396.92l-66.995-19.479-66.995,19.479,66.995,19.9Z" transform="translate(-1137.673 10380.887)" fill="#d64626"/>
    <path id="Trazado_18286" data-name="Trazado 18286" d="M1658.662,525.85l-66.995-19.479-66.995,19.479,66.995,19.9Z" transform="translate(-1137.673 10355.957)" fill="#d64626"/>
    <path id="Trazado_18287" data-name="Trazado 18287" d="M1658.662,654.78,1591.668,635.3l-66.995,19.479,66.995,19.9Z" transform="translate(-1137.673 10333.285)" fill="#97181a"/>
    <path id="Trazado_18288" data-name="Trazado 18288" d="M1658.662,139.06l-66.995-19.479-66.995,19.479,66.995,19.9Z" transform="translate(-1137.673 10423.816)" fill="#ff8f00"/>
    <path id="Trazado_18289" data-name="Trazado 18289" d="M1658.662,267.99l-66.995-19.479-66.995,19.479,66.995,19.9Z" transform="translate(-1137.673 10403.816)" fill="#ff8f00" opacity="0.52" style="mix-blend-mode: multiply;isolation: isolate"/>
    <g id="Grupo_20895" data-name="Grupo 20895" transform="translate(-1137.673 10447.816)">
      <path id="Trazado_18294" data-name="Trazado 18294" d="M1551.222,106.279l40.446-11.1,40.445,11.1V743.763h-80.891Z" fill="#cfd8dc"/>
      <path id="Trazado_18295" data-name="Trazado 18295" d="M1591.668,743.763h-40.446V106.279l40.446-11.1Z" fill="#fff" opacity="0.28" style="mix-blend-mode: overlay;isolation: isolate"/>
    </g>
    <g id="Grupo_20896" data-name="Grupo 20896" transform="translate(-1137.673 10423.816)">
      <path id="Trazado_18296" data-name="Trazado 18296" d="M1524.673,228.611l66.995,19.9,66.995-19.9V139.06l-66.995,19.9-66.995-19.9Z" fill="#ff8f00"/>
      <path id="Trazado_18297" data-name="Trazado 18297" d="M1591.668,158.96v89.551l-66.995-19.9V139.06Z" fill="#fff" opacity="0.28" style="mix-blend-mode: overlay;isolation: isolate"/>
    </g>
    <g id="Grupo_20897" data-name="Grupo 20897" transform="translate(-1137.673 10423.816)">
      <path id="Trazado_18298" data-name="Trazado 18298" d="M1546.452,207.386a14.251,14.251,0,0,1-8.424-6.81q-2.952-5.138-2.953-13.448t2.931-11.637q2.928-3.328,8.446-1.641a14.206,14.206,0,0,1,8.413,6.807q2.942,5.135,2.942,13.421t-2.953,11.63Q1551.9,209.053,1546.452,207.386Zm0-4.784a3.576,3.576,0,0,0,4.5-1.6q1.569-2.5,1.569-8.54a23.034,23.034,0,0,0-1.591-9.494,7.383,7.383,0,0,0-4.476-4.31,3.593,3.593,0,0,0-4.487,1.558q-1.578,2.448-1.579,8.537Q1540.386,200.747,1546.452,202.6Z" fill="#fff"/>
      <path id="Trazado_18299" data-name="Trazado 18299" d="M1573.3,182.517l4.99,1.526v32.644l-5.265-1.61v-27.1l-7.669,4.546v-5.495Z" fill="#fff"/>
    </g>
    <g id="Grupo_20898" data-name="Grupo 20898" transform="translate(-1137.673 10403.816)">
      <path id="Trazado_18300" data-name="Trazado 18300" d="M1524.673,357.541l66.995,19.9,66.995-19.9V267.99l-66.995,19.9-66.995-19.9Z" fill="#ff8f00"/>
      <path id="Trazado_18301" data-name="Trazado 18301" d="M1591.668,287.89v89.551l-66.995-19.9V267.99Z" fill="#ff8f00" opacity="0.28" style="mix-blend-mode: overlay;isolation: isolate"/>
    </g>
    <g id="Grupo_20899" data-name="Grupo 20899" transform="translate(-1137.673 10403.816)">
      <path id="Trazado_18302" data-name="Trazado 18302" d="M1543.305,335.354a14.249,14.249,0,0,1-8.425-6.811q-2.953-5.137-2.953-13.448t2.93-11.637q2.931-3.328,8.448-1.641a14.21,14.21,0,0,1,8.412,6.807q2.941,5.135,2.941,13.421t-2.952,11.63Q1548.753,337.02,1543.305,335.354Zm0-4.785a3.575,3.575,0,0,0,4.5-1.6q1.569-2.5,1.568-8.54,0-6.066-1.591-9.494a7.373,7.373,0,0,0-4.474-4.309,3.593,3.593,0,0,0-4.488,1.557q-1.578,2.448-1.579,8.537Q1537.238,328.715,1543.305,330.569Z" fill="#fff"/>
      <path id="Trazado_18303" data-name="Trazado 18303" d="M1566.631,337.289l15.062,4.605v4.762l-22.525-6.887v-3.983l13.049-9.4q3.273-2.364,3.273-5.409a6.364,6.364,0,0,0-1.4-4.1,7.5,7.5,0,0,0-3.777-2.472,4.41,4.41,0,0,0-3.937.25q-1.443,1.014-1.443,4.195v2.4l-5.242-2.106v-1.831q0-5.082,2.862-6.932t7.737-.358a15.65,15.65,0,0,1,7.485,4.784,11.528,11.528,0,0,1,2.908,7.733,8.1,8.1,0,0,1-1.076,4.273,12.567,12.567,0,0,1-3.388,3.474Z" fill="#fff"/>
    </g>
    <g id="Grupo_20900" data-name="Grupo 20900" transform="translate(-1137.673 10380.887)">
      <path id="Trazado_18304" data-name="Trazado 18304" d="M1524.673,486.471l66.995,19.9,66.995-19.9V396.92l-66.995,19.9-66.995-19.9Z" fill="#d64626"/>
      <path id="Trazado_18305" data-name="Trazado 18305" d="M1591.668,416.82v89.551l-66.995-19.9V396.92Z" fill="#d64626" opacity="0.28" style="mix-blend-mode: overlay;isolation: isolate"/>
    </g>
    <g id="Grupo_20901" data-name="Grupo 20901" transform="translate(-1137.673 10380.887)">
      <path id="Trazado_18306" data-name="Trazado 18306" d="M1543.2,464.252a14.252,14.252,0,0,1-8.425-6.811q-2.952-5.136-2.953-13.447t2.931-11.638q2.928-3.327,8.447-1.64a14.205,14.205,0,0,1,8.412,6.806q2.941,5.135,2.942,13.421t-2.953,11.631Q1548.651,465.918,1543.2,464.252Zm0-4.784a3.577,3.577,0,0,0,4.5-1.6q1.569-2.5,1.569-8.54a23.034,23.034,0,0,0-1.591-9.494,7.383,7.383,0,0,0-4.475-4.311,3.594,3.594,0,0,0-4.487,1.559q-1.579,2.448-1.58,8.536Q1537.135,457.613,1543.2,459.468Z" fill="#fff"/>
      <path id="Trazado_18307" data-name="Trazado 18307" d="M1570.236,472.518q-5.79-1.771-8.548-5.58a16.175,16.175,0,0,1-2.759-9.736l5.4,1.4a18.547,18.547,0,0,0,.252,3.281,8.511,8.511,0,0,0,.9,2.577,6.038,6.038,0,0,0,1.821,2.033,10,10,0,0,0,2.928,1.376q2.817.861,4.453-.183a3.853,3.853,0,0,0,1.637-3.518,6.993,6.993,0,0,0-1.568-4.542,8.173,8.173,0,0,0-4.064-2.7l-1.441-.441v-4.235l1.373.42a3.184,3.184,0,0,0,4.418-3.3,5.3,5.3,0,0,0-1.373-3.557,7.417,7.417,0,0,0-3.525-2.245,5.236,5.236,0,0,0-2.359-.263,2.1,2.1,0,0,0-1.453.883,4.647,4.647,0,0,0-.7,1.653,10.483,10.483,0,0,0-.206,2.238l-5.357-1.867q0-5.013,2.633-6.875t7.394-.408a14.751,14.751,0,0,1,7.073,4.613,10.576,10.576,0,0,1,2.815,6.927,5.509,5.509,0,0,1-1.281,3.843,4.784,4.784,0,0,1-3.067,1.626,13.141,13.141,0,0,1,4.338,4.142,10.545,10.545,0,0,1,1.728,5.954q0,4.51-3.182,6.272T1570.236,472.518Z" fill="#fff"/>
    </g>
    <g id="Grupo_20902" data-name="Grupo 20902" transform="translate(-1137.673 10355.957)">
      <path id="Trazado_18308" data-name="Trazado 18308" d="M1524.673,615.4l66.995,19.9,66.995-19.9V525.85l-66.995,19.9-66.995-19.9Z" fill="#d64626"/>
      <path id="Trazado_18309" data-name="Trazado 18309" d="M1591.668,545.75V635.3l-66.995-19.9V525.85Z" fill="#d64626" opacity="0.28" style="mix-blend-mode: overlay;isolation: isolate"/>
    </g>
    <g id="Grupo_20903" data-name="Grupo 20903" transform="translate(-1137.673 10355.957)">
      <path id="Trazado_18310" data-name="Trazado 18310" d="M1543.305,593.213a14.248,14.248,0,0,1-8.425-6.811q-2.953-5.136-2.953-13.447t2.93-11.638q2.931-3.327,8.448-1.64a14.212,14.212,0,0,1,8.412,6.806q2.941,5.135,2.941,13.421t-2.952,11.631Q1548.753,594.88,1543.305,593.213Zm0-4.784a3.577,3.577,0,0,0,4.5-1.6q1.569-2.5,1.568-8.54,0-6.066-1.591-9.494a7.379,7.379,0,0,0-4.474-4.311,3.6,3.6,0,0,0-4.488,1.559q-1.578,2.448-1.579,8.537Q1537.238,586.573,1543.305,588.429Z" fill="#fff"/>
      <path id="Trazado_18311" data-name="Trazado 18311" d="M1583,593.788v4.738l-4.486-1.371v6.387l-5.265-1.609v-6.387l-15.338-4.69v-4.761l12.568-17.653,8.035,2.456v21.519Zm-19.961-6.1,10.21,3.121v-18.13Z" fill="#fff"/>
    </g>
    <g id="Grupo_20904" data-name="Grupo 20904" transform="translate(-1137.673 10333.285)">
      <path id="Trazado_18312" data-name="Trazado 18312" d="M1524.673,744.331l66.995,19.9,66.995-19.9V654.78l-66.995,19.9-66.995-19.9Z" fill="#97181a"/>
      <path id="Trazado_18313" data-name="Trazado 18313" d="M1591.668,674.68v89.551l-66.995-19.9V654.78Z" fill="#e74e28" opacity="0.28" style="mix-blend-mode: overlay;isolation: isolate"/>
    </g>
    <g id="Grupo_20905" data-name="Grupo 20905" transform="translate(-1137.673 10309.688)">
      <path id="Trazado_18314" data-name="Trazado 18314" d="M1524.673,873.261l66.995,19.9,66.995-19.9V783.71l-66.995,19.9-66.995-19.9Z" fill="#97181a"/>
      <path id="Trazado_18315" data-name="Trazado 18315" d="M1591.668,803.61v89.551l-66.995-19.9V783.71Z" fill="#97181a" opacity="0.28" style="mix-blend-mode: overlay;isolation: isolate"/>
    </g>
    <g id="Grupo_20906" data-name="Grupo 20906" transform="translate(-1137.673 10333.285)">
      <path id="Trazado_18316" data-name="Trazado 18316" d="M1543.305,722.143a14.252,14.252,0,0,1-8.425-6.811q-2.953-5.137-2.953-13.447t2.93-11.638q2.931-3.328,8.448-1.641a14.213,14.213,0,0,1,8.412,6.807q2.941,5.134,2.941,13.421t-2.952,11.631Q1548.753,723.808,1543.305,722.143Zm0-4.785a3.576,3.576,0,0,0,4.5-1.6q1.569-2.5,1.568-8.54,0-6.066-1.591-9.494a7.376,7.376,0,0,0-4.474-4.311,3.593,3.593,0,0,0-4.488,1.559q-1.578,2.448-1.579,8.537Q1537.238,715.5,1543.305,717.358Z" fill="#fff"/>
      <path id="Trazado_18317" data-name="Trazado 18317" d="M1569.767,708.691q6.135,1.877,9.18,5.5a12.952,12.952,0,0,1,3.044,8.612q0,5.013-3.1,7.143t-8.139.591a17.571,17.571,0,0,1-5.585-2.864,15.211,15.211,0,0,1-4.1-4.777,12.292,12.292,0,0,1-1.58-6.035,13.692,13.692,0,0,1,.116-1.613l5.288,1.3a11.107,11.107,0,0,0-.161,1.6,6.954,6.954,0,0,0,1.728,4.786,9.006,9.006,0,0,0,4.179,2.7q2.816.861,4.428-.328a4.565,4.565,0,0,0,1.615-3.937q0-6.066-7.669-8.411l-8.4-2.568,1.7-15.483,18.2,5.564v4.762l-13.6-4.159-.709,6.537Z" fill="#fff"/>
    </g>
    <g id="Grupo_20907" data-name="Grupo 20907" transform="translate(-1137.673 10309.688)">
      <path id="Trazado_18318" data-name="Trazado 18318" d="M1543.305,855.477a14.252,14.252,0,0,1-8.425-6.811q-2.953-5.137-2.953-13.447t2.93-11.638q2.931-3.328,8.448-1.641a14.213,14.213,0,0,1,8.412,6.807q2.941,5.134,2.941,13.421t-2.952,11.631Q1548.753,857.143,1543.305,855.477Zm0-4.785a3.576,3.576,0,0,0,4.5-1.6q1.569-2.5,1.568-8.54,0-6.066-1.591-9.494a7.377,7.377,0,0,0-4.474-4.311,3.593,3.593,0,0,0-4.488,1.559q-1.578,2.448-1.579,8.537Q1537.238,848.837,1543.305,850.692Z" fill="#fff"/>
      <path id="Trazado_18319" data-name="Trazado 18319" d="M1582.129,855.992a8.616,8.616,0,0,1-1.579,5.4,7.108,7.108,0,0,1-4.27,2.711,11.346,11.346,0,0,1-5.826-.373,16.8,16.8,0,0,1-8.333-5.707,14.152,14.152,0,0,1-3.364-9.041,9.936,9.936,0,0,1,2.861-7.022l10.553-10.737,6.066,1.854-8.745,8.521a11.243,11.243,0,0,1,2.13.445,13.756,13.756,0,0,1,3.926,1.955,16.617,16.617,0,0,1,3.342,3.128,14.934,14.934,0,0,1,2.335,4.113A13.645,13.645,0,0,1,1582.129,855.992Zm-11.812,2.89a5.489,5.489,0,0,0,4.807-.35,4.651,4.651,0,0,0,1.855-4.228,8.77,8.77,0,0,0-1.877-5.428,9.367,9.367,0,0,0-4.785-3.294,5.109,5.109,0,0,0-4.739.485,4.909,4.909,0,0,0-1.854,4.229,8.477,8.477,0,0,0,1.809,5.35A9.355,9.355,0,0,0,1570.317,858.882Z" fill="#fff"/>
    </g>
    <path id="Trazado_20882" data-name="Trazado 20882" d="M1591.668,158.96v89.551l-66.995-19.9V139.06Z" transform="translate(-1137.673 10532.957)" fill="#fff" opacity="0.28" style="mix-blend-mode: overlay;isolation: isolate"/>
    <path id="Trazado_20883" data-name="Trazado 20883" d="M1591.668,158.96v89.551l-66.995-19.9V139.06Z" transform="translate(-1137.673 10638.746)" fill="#fff" opacity="0.28" style="mix-blend-mode: overlay;isolation: isolate"/>
    <path id="Trazado_20884" data-name="Trazado 20884" d="M1591.668,158.96v89.551l-66.995-19.9V139.06Z" transform="translate(-1137.673 10742.081)" fill="#fff" opacity="0.28" style="mix-blend-mode: overlay;isolation: isolate"/>
    <path id="Trazado_20885" data-name="Trazado 20885" d="M1591.668,158.96v89.551l-66.995-19.9V139.06Z" transform="translate(-1137.673 10955.813)" fill="#fff" opacity="0.28" style="mix-blend-mode: overlay;isolation: isolate"/>
    <rect id="Rectángulo_3557" data-name="Rectángulo 3557" width="374" height="60" transform="translate(653 10583)" fill="#eef0f2"/>
    <rect id="Rectángulo_3559" data-name="Rectángulo 3559" width="374" height="60" transform="translate(653 10689)" fill="#eef0f2"/>
    <rect id="Rectángulo_3561" data-name="Rectángulo 3561" width="374" height="60" transform="translate(653 10794)" fill="#eef0f2"/>
    <rect id="Rectángulo_3563" data-name="Rectángulo 3563" width="374" height="60" transform="translate(653 10899)" fill="#eef0f2"/>
    <rect id="Rectángulo_3565" data-name="Rectángulo 3565" width="374" height="60" transform="translate(653 11005)" fill="#eef0f2"/>
    <rect id="Rectángulo_3567" data-name="Rectángulo 3567" width="374.409" height="60" transform="translate(653 11110.299)" fill="#eef0f2"/>
    <path id="Trazado_20934" data-name="Trazado 20934" d="M12.949,12.213a8.583,8.583,0,0,1-.742,3.682,5.589,5.589,0,0,1-2.124,2.441,5.875,5.875,0,0,1-3.169.859,5.915,5.915,0,0,1-3.154-.85,5.644,5.644,0,0,1-2.148-2.427A8.338,8.338,0,0,1,.84,12.291v-.7a8.538,8.538,0,0,1,.757-3.7A5.635,5.635,0,0,1,3.735,5.44a5.883,5.883,0,0,1,3.159-.854,5.883,5.883,0,0,1,3.159.854,5.635,5.635,0,0,1,2.139,2.451,8.514,8.514,0,0,1,.757,3.687ZM9.98,11.568a5.984,5.984,0,0,0-.8-3.4A2.61,2.61,0,0,0,6.895,7.008,2.611,2.611,0,0,0,4.619,8.155a5.915,5.915,0,0,0-.811,3.364v.693a6.058,6.058,0,0,0,.8,3.379,2.6,2.6,0,0,0,2.3,1.2A2.579,2.579,0,0,0,9.18,15.636a6.023,6.023,0,0,0,.8-3.374Zm14.434,2.246a6.4,6.4,0,0,1-1.084,3.96A3.591,3.591,0,0,1,20.3,19.2a3.3,3.3,0,0,1-2.744-1.318L17.432,19H14.893V4h2.822V9.381a3.214,3.214,0,0,1,2.568-1.143,3.62,3.62,0,0,1,3.032,1.421,6.408,6.408,0,0,1,1.1,4ZM21.592,13.6a4.227,4.227,0,0,0-.508-2.346,1.715,1.715,0,0,0-1.514-.74,1.861,1.861,0,0,0-1.855,1.107V15.8A1.886,1.886,0,0,0,19.59,16.92a1.743,1.743,0,0,0,1.8-1.352A6.993,6.993,0,0,0,21.592,13.6Zm7.549-5.166V19.576a3.78,3.78,0,0,1-.928,2.72,3.526,3.526,0,0,1-2.676.972,5.738,5.738,0,0,1-1.4-.166V20.865a5.3,5.3,0,0,0,.889.088q1.279,0,1.279-1.357V8.434ZM26.084,5.7a1.39,1.39,0,0,1,.425-1.045,1.838,1.838,0,0,1,2.314,0A1.39,1.39,0,0,1,29.248,5.7a1.386,1.386,0,0,1-.435,1.055,1.81,1.81,0,0,1-2.295,0A1.386,1.386,0,0,1,26.084,5.7ZM36.211,19.2a5.187,5.187,0,0,1-3.784-1.426,5.068,5.068,0,0,1-1.46-3.8V13.7a6.383,6.383,0,0,1,.615-2.847,4.515,4.515,0,0,1,1.743-1.934A4.893,4.893,0,0,1,35.9,8.238a4.385,4.385,0,0,1,3.413,1.367,5.555,5.555,0,0,1,1.245,3.877v1.152H33.828a2.622,2.622,0,0,0,.825,1.66,2.5,2.5,0,0,0,1.743.625,3.046,3.046,0,0,0,2.549-1.182l1.387,1.553a4.237,4.237,0,0,1-1.719,1.4A5.639,5.639,0,0,1,36.211,19.2Zm-.322-8.682a1.764,1.764,0,0,0-1.362.569,2.946,2.946,0,0,0-.669,1.628h3.926v-.226a2.1,2.1,0,0,0-.508-1.457A1.819,1.819,0,0,0,35.889,10.514Zm9.648-4.678v2.6h1.807V10.5H45.537v5.273a1.259,1.259,0,0,0,.225.84,1.128,1.128,0,0,0,.859.254,4.5,4.5,0,0,0,.83-.068v2.139a5.81,5.81,0,0,1-1.709.254q-2.969,0-3.027-3V10.5H41.172V8.434h1.543v-2.6ZM51.895,19H49.063V8.434h2.832Zm-3-13.3a1.39,1.39,0,0,1,.425-1.045,1.831,1.831,0,0,1,2.31,0,1.382,1.382,0,0,1,.43,1.045,1.386,1.386,0,0,1-.435,1.055,1.81,1.81,0,0,1-2.295,0A1.386,1.386,0,0,1,48.9,5.7Zm9.277,9.854,1.963-7.119h2.949L59.521,19h-2.7L53.262,8.434h2.949Zm5.566-1.934a6.267,6.267,0,0,1,.605-2.8,4.432,4.432,0,0,1,1.743-1.9,5.086,5.086,0,0,1,2.642-.674,4.812,4.812,0,0,1,3.491,1.309A5.252,5.252,0,0,1,73.73,13.1l.02.723a5.523,5.523,0,0,1-1.357,3.9,5.261,5.261,0,0,1-7.29,0,5.62,5.62,0,0,1-1.362-3.984Zm2.822.2a3.95,3.95,0,0,0,.566,2.3,2.035,2.035,0,0,0,3.223.01,4.322,4.322,0,0,0,.576-2.518,3.91,3.91,0,0,0-.576-2.289,1.873,1.873,0,0,0-1.621-.812,1.842,1.842,0,0,0-1.6.807A4.395,4.395,0,0,0,66.563,13.819ZM81.211,16.08a.909.909,0,0,0-.513-.815,5.824,5.824,0,0,0-1.646-.532q-3.77-.791-3.77-3.2A2.9,2.9,0,0,1,76.45,9.181,4.708,4.708,0,0,1,79.5,8.238a5.067,5.067,0,0,1,3.218.947,2.985,2.985,0,0,1,1.206,2.461H81.1a1.366,1.366,0,0,0-.391-1,1.653,1.653,0,0,0-1.221-.4,1.689,1.689,0,0,0-1.1.322,1.017,1.017,0,0,0-.391.82.87.87,0,0,0,.444.757,4.571,4.571,0,0,0,1.5.5,12.244,12.244,0,0,1,1.777.474,2.92,2.92,0,0,1,2.236,2.842,2.756,2.756,0,0,1-1.24,2.339,5.35,5.35,0,0,1-3.2.894,5.588,5.588,0,0,1-2.358-.474,3.957,3.957,0,0,1-1.616-1.3,3.018,3.018,0,0,1-.586-1.782h2.676a1.473,1.473,0,0,0,.557,1.152,2.208,2.208,0,0,0,1.387.4,2.044,2.044,0,0,0,1.226-.308A.957.957,0,0,0,81.211,16.08Zm9.1-2.441A6.368,6.368,0,0,1,91.421,9.7a3.6,3.6,0,0,1,3.032-1.465A3.236,3.236,0,0,1,97,9.391V4h2.832V19H97.285l-.137-1.123A3.321,3.321,0,0,1,94.434,19.2a3.587,3.587,0,0,1-2.993-1.47A6.573,6.573,0,0,1,90.313,13.639Zm2.822.2a4.194,4.194,0,0,0,.518,2.286,1.685,1.685,0,0,0,1.5.795A1.888,1.888,0,0,0,97,15.811V11.622a1.861,1.861,0,0,0-1.826-1.109Q93.135,10.514,93.135,13.839Zm13.75,5.356A5.187,5.187,0,0,1,103.1,17.77a5.068,5.068,0,0,1-1.46-3.8V13.7a6.383,6.383,0,0,1,.615-2.847A4.515,4.515,0,0,1,104,8.917a4.893,4.893,0,0,1,2.573-.679,4.385,4.385,0,0,1,3.413,1.367,5.555,5.555,0,0,1,1.245,3.877v1.152H104.5a2.622,2.622,0,0,0,.825,1.66,2.5,2.5,0,0,0,1.743.625,3.046,3.046,0,0,0,2.549-1.182l1.387,1.553a4.237,4.237,0,0,1-1.719,1.4A5.639,5.639,0,0,1,106.885,19.2Zm-.322-8.682a1.764,1.764,0,0,0-1.362.569,2.946,2.946,0,0,0-.669,1.628h3.926v-.226a2.1,2.1,0,0,0-.508-1.457A1.819,1.819,0,0,0,106.563,10.514Zm13.9-2.08.088,1.182a3.713,3.713,0,0,1,3.037-1.377,2.818,2.818,0,0,1,2.8,1.611,3.628,3.628,0,0,1,3.174-1.611,3.152,3.152,0,0,1,2.559,1,4.6,4.6,0,0,1,.84,3.013V19h-2.832V12.246a2.02,2.02,0,0,0-.352-1.316,1.556,1.556,0,0,0-1.24-.416,1.762,1.762,0,0,0-1.758,1.214l.01,7.273h-2.822V12.256a2,2,0,0,0-.361-1.331,1.571,1.571,0,0,0-1.23-.411,1.828,1.828,0,0,0-1.738,1V19h-2.822V8.434ZM141.25,19a3.134,3.134,0,0,1-.283-.947A3.415,3.415,0,0,1,138.3,19.2a3.752,3.752,0,0,1-2.573-.9,2.889,2.889,0,0,1-1.021-2.266,2.986,2.986,0,0,1,1.245-2.578,6.144,6.144,0,0,1,3.6-.908h1.3v-.605a1.741,1.741,0,0,0-.376-1.172,1.479,1.479,0,0,0-1.187-.439,1.682,1.682,0,0,0-1.118.342,1.161,1.161,0,0,0-.405.938h-2.822a2.835,2.835,0,0,1,.566-1.7,3.744,3.744,0,0,1,1.6-1.226,5.837,5.837,0,0,1,2.324-.444,4.611,4.611,0,0,1,3.1.981,3.433,3.433,0,0,1,1.147,2.759v4.58a5.052,5.052,0,0,0,.42,2.275V19Zm-2.334-1.963a2.431,2.431,0,0,0,1.152-.278,1.828,1.828,0,0,0,.781-.747V14.2h-1.055q-2.119,0-2.256,1.465l-.01.166a1.13,1.13,0,0,0,.371.869A1.441,1.441,0,0,0,138.916,17.037Zm12.871-5.957A7.667,7.667,0,0,0,150.771,11a2.067,2.067,0,0,0-2.1,1.084V19H145.85V8.434h2.666l.078,1.26a2.615,2.615,0,0,1,2.354-1.455,2.957,2.957,0,0,1,.879.127Zm5.2,3.682-1.016,1.016V19h-2.822V4h2.822v8.311l.547-.7,2.705-3.174h3.389l-3.818,4.4L162.939,19H159.7ZM168.5,19.2a5.187,5.187,0,0,1-3.784-1.426,5.068,5.068,0,0,1-1.46-3.8V13.7a6.383,6.383,0,0,1,.615-2.847,4.515,4.515,0,0,1,1.743-1.934,4.893,4.893,0,0,1,2.573-.679A4.385,4.385,0,0,1,171.6,9.605a5.555,5.555,0,0,1,1.245,3.877v1.152h-6.729a2.622,2.622,0,0,0,.825,1.66,2.5,2.5,0,0,0,1.743.625,3.046,3.046,0,0,0,2.549-1.182l1.387,1.553a4.237,4.237,0,0,1-1.719,1.4A5.639,5.639,0,0,1,168.5,19.2Zm-.322-8.682a1.764,1.764,0,0,0-1.362.569,2.946,2.946,0,0,0-.669,1.628h3.926v-.226a2.1,2.1,0,0,0-.508-1.457A1.819,1.819,0,0,0,168.174,10.514Zm9.648-4.678v2.6h1.807V10.5h-1.807v5.273a1.259,1.259,0,0,0,.225.84,1.128,1.128,0,0,0,.859.254,4.5,4.5,0,0,0,.83-.068v2.139a5.81,5.81,0,0,1-1.709.254q-2.969,0-3.027-3V10.5h-1.543V8.434H175v-2.6ZM184.18,19h-2.832V8.434h2.832Zm-3-13.3a1.39,1.39,0,0,1,.425-1.045,1.831,1.831,0,0,1,2.31,0,1.382,1.382,0,0,1,.43,1.045,1.386,1.386,0,0,1-.435,1.055,1.81,1.81,0,0,1-2.295,0A1.386,1.386,0,0,1,181.182,5.7Zm7.92,2.734.088,1.221a3.689,3.689,0,0,1,3.037-1.416,3.066,3.066,0,0,1,2.5.986,4.6,4.6,0,0,1,.84,2.949V19h-2.822V12.227a1.838,1.838,0,0,0-.391-1.307,1.746,1.746,0,0,0-1.3-.406,1.941,1.941,0,0,0-1.787,1.018V19h-2.822V8.434Zm8.193,5.205a6.193,6.193,0,0,1,1.157-3.916,3.75,3.75,0,0,1,3.12-1.484,3.289,3.289,0,0,1,2.705,1.191l.117-1h2.559V18.648a4.516,4.516,0,0,1-.63,2.412,4.045,4.045,0,0,1-1.772,1.563,6.231,6.231,0,0,1-2.676.537,5.794,5.794,0,0,1-2.266-.464,4.021,4.021,0,0,1-1.67-1.2l1.25-1.719a3.306,3.306,0,0,0,2.559,1.182,2.42,2.42,0,0,0,1.748-.6,2.253,2.253,0,0,0,.625-1.7v-.566a3.264,3.264,0,0,1-2.568,1.1,3.74,3.74,0,0,1-3.081-1.489,6.191,6.191,0,0,1-1.177-3.95Zm2.822.2a3.877,3.877,0,0,0,.576,2.261,1.831,1.831,0,0,0,1.582.819,1.958,1.958,0,0,0,1.846-.971V11.485a1.954,1.954,0,0,0-1.826-.971,1.843,1.843,0,0,0-1.6.834A4.37,4.37,0,0,0,200.117,13.839Z" transform="translate(700 10601)" fill="#002b45"/>
    <path id="Trazado_20935" data-name="Trazado 20935" d="M12.949-6.787a8.583,8.583,0,0,1-.742,3.682A5.589,5.589,0,0,1,10.083-.664,5.875,5.875,0,0,1,6.914.2,5.915,5.915,0,0,1,3.76-.654,5.644,5.644,0,0,1,1.611-3.081,8.338,8.338,0,0,1,.84-6.709v-.7a8.538,8.538,0,0,1,.757-3.7A5.635,5.635,0,0,1,3.735-13.56a5.883,5.883,0,0,1,3.159-.854,5.883,5.883,0,0,1,3.159.854,5.635,5.635,0,0,1,2.139,2.451,8.514,8.514,0,0,1,.757,3.687ZM9.98-7.432a5.984,5.984,0,0,0-.8-3.4,2.61,2.61,0,0,0-2.285-1.162,2.611,2.611,0,0,0-2.275,1.147A5.915,5.915,0,0,0,3.809-7.48v.693a6.058,6.058,0,0,0,.8,3.379,2.6,2.6,0,0,0,2.3,1.2A2.579,2.579,0,0,0,9.18-3.364a6.023,6.023,0,0,0,.8-3.374ZM24.414-5.186a6.4,6.4,0,0,1-1.084,3.96A3.591,3.591,0,0,1,20.3.2a3.3,3.3,0,0,1-2.744-1.318L17.432,0H14.893V-15h2.822v5.381a3.214,3.214,0,0,1,2.568-1.143,3.62,3.62,0,0,1,3.032,1.421,6.408,6.408,0,0,1,1.1,4ZM21.592-5.4a4.227,4.227,0,0,0-.508-2.346,1.715,1.715,0,0,0-1.514-.74,1.861,1.861,0,0,0-1.855,1.107V-3.2A1.886,1.886,0,0,0,19.59-2.08a1.743,1.743,0,0,0,1.8-1.352A6.993,6.993,0,0,0,21.592-5.4Zm7.549-5.166V.576a3.78,3.78,0,0,1-.928,2.72,3.526,3.526,0,0,1-2.676.972,5.738,5.738,0,0,1-1.4-.166V1.865a5.3,5.3,0,0,0,.889.088q1.279,0,1.279-1.357V-10.566ZM26.084-13.3a1.39,1.39,0,0,1,.425-1.045,1.6,1.6,0,0,1,1.157-.41,1.6,1.6,0,0,1,1.157.41,1.39,1.39,0,0,1,.425,1.045,1.386,1.386,0,0,1-.435,1.055,1.6,1.6,0,0,1-1.147.41,1.6,1.6,0,0,1-1.147-.41A1.386,1.386,0,0,1,26.084-13.3ZM36.211.2A5.187,5.187,0,0,1,32.427-1.23a5.068,5.068,0,0,1-1.46-3.8V-5.3a6.383,6.383,0,0,1,.615-2.847,4.515,4.515,0,0,1,1.743-1.934,4.893,4.893,0,0,1,2.573-.679,4.385,4.385,0,0,1,3.413,1.367,5.555,5.555,0,0,1,1.245,3.877v1.152H33.828a2.622,2.622,0,0,0,.825,1.66A2.5,2.5,0,0,0,36.4-2.08a3.046,3.046,0,0,0,2.549-1.182l1.387,1.553a4.237,4.237,0,0,1-1.719,1.4A5.639,5.639,0,0,1,36.211.2Zm-.322-8.682a1.764,1.764,0,0,0-1.362.569,2.946,2.946,0,0,0-.669,1.628h3.926v-.226a2.1,2.1,0,0,0-.508-1.457A1.819,1.819,0,0,0,35.889-8.486Zm9.648-4.678v2.6h1.807V-8.5H45.537v5.273a1.259,1.259,0,0,0,.225.84,1.128,1.128,0,0,0,.859.254,4.5,4.5,0,0,0,.83-.068V-.059A5.81,5.81,0,0,1,45.742.2q-2.969,0-3.027-3V-8.5H41.172v-2.07h1.543v-2.6ZM51.895,0H49.063V-10.566h2.832Zm-3-13.3a1.39,1.39,0,0,1,.425-1.045,1.6,1.6,0,0,1,1.157-.41,1.6,1.6,0,0,1,1.152.41,1.382,1.382,0,0,1,.43,1.045,1.386,1.386,0,0,1-.435,1.055,1.6,1.6,0,0,1-1.147.41,1.6,1.6,0,0,1-1.147-.41A1.386,1.386,0,0,1,48.9-13.3Zm9.277,9.854,1.963-7.119h2.949L59.521,0h-2.7L53.262-10.566h2.949ZM63.74-5.381a6.267,6.267,0,0,1,.605-2.8,4.432,4.432,0,0,1,1.743-1.9,5.086,5.086,0,0,1,2.642-.674,4.812,4.812,0,0,1,3.491,1.309A5.252,5.252,0,0,1,73.73-5.9l.02.723a5.523,5.523,0,0,1-1.357,3.9A4.718,4.718,0,0,1,68.75.2,4.742,4.742,0,0,1,65.1-1.27,5.62,5.62,0,0,1,63.74-5.254Zm2.822.2a3.95,3.95,0,0,0,.566,2.3,1.868,1.868,0,0,0,1.621.8,1.873,1.873,0,0,0,1.6-.787,4.322,4.322,0,0,0,.576-2.518,3.91,3.91,0,0,0-.576-2.289,1.873,1.873,0,0,0-1.621-.812,1.842,1.842,0,0,0-1.6.807A4.395,4.395,0,0,0,66.563-5.181ZM81.211-2.92a.909.909,0,0,0-.513-.815,5.824,5.824,0,0,0-1.646-.532q-3.77-.791-3.77-3.2A2.9,2.9,0,0,1,76.45-9.819a4.708,4.708,0,0,1,3.052-.942,5.067,5.067,0,0,1,3.218.947,2.985,2.985,0,0,1,1.206,2.461H81.1a1.366,1.366,0,0,0-.391-1,1.653,1.653,0,0,0-1.221-.4,1.689,1.689,0,0,0-1.1.322,1.017,1.017,0,0,0-.391.82.87.87,0,0,0,.444.757,4.571,4.571,0,0,0,1.5.5,12.244,12.244,0,0,1,1.777.474,2.92,2.92,0,0,1,2.236,2.842A2.756,2.756,0,0,1,82.715-.7a5.35,5.35,0,0,1-3.2.894,5.588,5.588,0,0,1-2.358-.474,3.957,3.957,0,0,1-1.616-1.3,3.018,3.018,0,0,1-.586-1.782h2.676a1.473,1.473,0,0,0,.557,1.152,2.208,2.208,0,0,0,1.387.4A2.044,2.044,0,0,0,80.8-2.114.957.957,0,0,0,81.211-2.92Zm9.1-2.441A6.368,6.368,0,0,1,91.421-9.3a3.6,3.6,0,0,1,3.032-1.465A3.236,3.236,0,0,1,97-9.609V-15h2.832V0H97.285l-.137-1.123A3.321,3.321,0,0,1,94.434.2a3.587,3.587,0,0,1-2.993-1.47A6.573,6.573,0,0,1,90.313-5.361Zm2.822.2a4.194,4.194,0,0,0,.518,2.286,1.685,1.685,0,0,0,1.5.795A1.888,1.888,0,0,0,97-3.189V-7.378a1.861,1.861,0,0,0-1.826-1.109Q93.135-8.486,93.135-5.161ZM106.885.2A5.187,5.187,0,0,1,103.1-1.23a5.068,5.068,0,0,1-1.46-3.8V-5.3a6.383,6.383,0,0,1,.615-2.847A4.515,4.515,0,0,1,104-10.083a4.893,4.893,0,0,1,2.573-.679,4.385,4.385,0,0,1,3.413,1.367,5.555,5.555,0,0,1,1.245,3.877v1.152H104.5a2.622,2.622,0,0,0,.825,1.66,2.5,2.5,0,0,0,1.743.625,3.046,3.046,0,0,0,2.549-1.182l1.387,1.553a4.237,4.237,0,0,1-1.719,1.4A5.639,5.639,0,0,1,106.885.2Zm-.322-8.682a1.764,1.764,0,0,0-1.362.569,2.946,2.946,0,0,0-.669,1.628h3.926v-.226a2.1,2.1,0,0,0-.508-1.457A1.819,1.819,0,0,0,106.563-8.486Zm15.205,5.039,1.963-7.119h2.949L123.115,0h-2.7l-3.564-10.566H119.8ZM132.656.2a5.187,5.187,0,0,1-3.784-1.426,5.068,5.068,0,0,1-1.46-3.8V-5.3a6.383,6.383,0,0,1,.615-2.847,4.515,4.515,0,0,1,1.743-1.934,4.893,4.893,0,0,1,2.573-.679,4.385,4.385,0,0,1,3.413,1.367A5.555,5.555,0,0,1,137-5.518v1.152h-6.729a2.622,2.622,0,0,0,.825,1.66,2.5,2.5,0,0,0,1.743.625,3.046,3.046,0,0,0,2.549-1.182l1.387,1.553a4.237,4.237,0,0,1-1.719,1.4A5.639,5.639,0,0,1,132.656.2Zm-.322-8.682a1.764,1.764,0,0,0-1.362.569,2.946,2.946,0,0,0-.669,1.628h3.926v-.226a2.1,2.1,0,0,0-.508-1.457A1.819,1.819,0,0,0,132.334-8.486Zm8.867-2.08.088,1.221a3.689,3.689,0,0,1,3.037-1.416,3.066,3.066,0,0,1,2.5.986,4.6,4.6,0,0,1,.84,2.949V0h-2.822V-6.773a1.838,1.838,0,0,0-.391-1.307,1.746,1.746,0,0,0-1.3-.406,1.941,1.941,0,0,0-1.787,1.018V0h-2.822V-10.566Zm11.982-2.6v2.6h1.807V-8.5h-1.807v5.273a1.259,1.259,0,0,0,.225.84,1.128,1.128,0,0,0,.859.254,4.5,4.5,0,0,0,.83-.068V-.059A5.81,5.81,0,0,1,153.389.2q-2.969,0-3.027-3V-8.5h-1.543v-2.07h1.543v-2.6ZM162.686,0a3.134,3.134,0,0,1-.283-.947A3.415,3.415,0,0,1,159.736.2a3.752,3.752,0,0,1-2.573-.9,2.889,2.889,0,0,1-1.021-2.266,2.986,2.986,0,0,1,1.245-2.578,6.144,6.144,0,0,1,3.6-.908h1.3v-.605a1.741,1.741,0,0,0-.376-1.172,1.479,1.479,0,0,0-1.187-.439,1.682,1.682,0,0,0-1.118.342,1.161,1.161,0,0,0-.405.938h-2.822a2.835,2.835,0,0,1,.566-1.7,3.744,3.744,0,0,1,1.6-1.226,5.837,5.837,0,0,1,2.324-.444,4.611,4.611,0,0,1,3.1.981,3.433,3.433,0,0,1,1.147,2.759v4.58a5.052,5.052,0,0,0,.42,2.275V0Zm-2.334-1.963a2.431,2.431,0,0,0,1.152-.278,1.828,1.828,0,0,0,.781-.747V-4.8H161.23q-2.119,0-2.256,1.465l-.01.166a1.13,1.13,0,0,0,.371.869A1.441,1.441,0,0,0,160.352-1.963Zm12.656-.957a.909.909,0,0,0-.513-.815,5.824,5.824,0,0,0-1.646-.532q-3.77-.791-3.77-3.2a2.9,2.9,0,0,1,1.167-2.349,4.708,4.708,0,0,1,3.052-.942,5.067,5.067,0,0,1,3.218.947,2.985,2.985,0,0,1,1.206,2.461H172.9a1.366,1.366,0,0,0-.391-1,1.653,1.653,0,0,0-1.221-.4,1.689,1.689,0,0,0-1.1.322,1.017,1.017,0,0,0-.391.82.87.87,0,0,0,.444.757,4.571,4.571,0,0,0,1.5.5,12.244,12.244,0,0,1,1.777.474,2.92,2.92,0,0,1,2.236,2.842A2.756,2.756,0,0,1,174.512-.7a5.35,5.35,0,0,1-3.2.894,5.588,5.588,0,0,1-2.358-.474,3.957,3.957,0,0,1-1.616-1.3,3.018,3.018,0,0,1-.586-1.782h2.676a1.473,1.473,0,0,0,.557,1.152,2.208,2.208,0,0,0,1.387.4,2.044,2.044,0,0,0,1.226-.308A.957.957,0,0,0,173.008-2.92Z" transform="translate(700 10726)" fill="#002b45"/>
    <path id="Trazado_20936" data-name="Trazado 20936" d="M12.949-6.787a8.583,8.583,0,0,1-.742,3.682A5.589,5.589,0,0,1,10.083-.664,5.875,5.875,0,0,1,6.914.2,5.915,5.915,0,0,1,3.76-.654,5.644,5.644,0,0,1,1.611-3.081,8.338,8.338,0,0,1,.84-6.709v-.7a8.538,8.538,0,0,1,.757-3.7A5.635,5.635,0,0,1,3.735-13.56a5.883,5.883,0,0,1,3.159-.854,5.883,5.883,0,0,1,3.159.854,5.635,5.635,0,0,1,2.139,2.451,8.514,8.514,0,0,1,.757,3.687ZM9.98-7.432a5.984,5.984,0,0,0-.8-3.4,2.61,2.61,0,0,0-2.285-1.162,2.611,2.611,0,0,0-2.275,1.147A5.915,5.915,0,0,0,3.809-7.48v.693a6.058,6.058,0,0,0,.8,3.379,2.6,2.6,0,0,0,2.3,1.2A2.579,2.579,0,0,0,9.18-3.364a6.023,6.023,0,0,0,.8-3.374ZM24.414-5.186a6.4,6.4,0,0,1-1.084,3.96A3.591,3.591,0,0,1,20.3.2a3.3,3.3,0,0,1-2.744-1.318L17.432,0H14.893V-15h2.822v5.381a3.214,3.214,0,0,1,2.568-1.143,3.62,3.62,0,0,1,3.032,1.421,6.408,6.408,0,0,1,1.1,4ZM21.592-5.4a4.227,4.227,0,0,0-.508-2.346,1.715,1.715,0,0,0-1.514-.74,1.861,1.861,0,0,0-1.855,1.107V-3.2A1.886,1.886,0,0,0,19.59-2.08a1.743,1.743,0,0,0,1.8-1.352A6.993,6.993,0,0,0,21.592-5.4Zm7.549-5.166V.576a3.78,3.78,0,0,1-.928,2.72,3.526,3.526,0,0,1-2.676.972,5.738,5.738,0,0,1-1.4-.166V1.865a5.3,5.3,0,0,0,.889.088q1.279,0,1.279-1.357V-10.566ZM26.084-13.3a1.39,1.39,0,0,1,.425-1.045,1.6,1.6,0,0,1,1.157-.41,1.6,1.6,0,0,1,1.157.41,1.39,1.39,0,0,1,.425,1.045,1.386,1.386,0,0,1-.435,1.055,1.6,1.6,0,0,1-1.147.41,1.6,1.6,0,0,1-1.147-.41A1.386,1.386,0,0,1,26.084-13.3ZM36.211.2A5.187,5.187,0,0,1,32.427-1.23a5.068,5.068,0,0,1-1.46-3.8V-5.3a6.383,6.383,0,0,1,.615-2.847,4.515,4.515,0,0,1,1.743-1.934,4.893,4.893,0,0,1,2.573-.679,4.385,4.385,0,0,1,3.413,1.367,5.555,5.555,0,0,1,1.245,3.877v1.152H33.828a2.622,2.622,0,0,0,.825,1.66A2.5,2.5,0,0,0,36.4-2.08a3.046,3.046,0,0,0,2.549-1.182l1.387,1.553a4.237,4.237,0,0,1-1.719,1.4A5.639,5.639,0,0,1,36.211.2Zm-.322-8.682a1.764,1.764,0,0,0-1.362.569,2.946,2.946,0,0,0-.669,1.628h3.926v-.226a2.1,2.1,0,0,0-.508-1.457A1.819,1.819,0,0,0,35.889-8.486Zm9.648-4.678v2.6h1.807V-8.5H45.537v5.273a1.259,1.259,0,0,0,.225.84,1.128,1.128,0,0,0,.859.254,4.5,4.5,0,0,0,.83-.068V-.059A5.81,5.81,0,0,1,45.742.2q-2.969,0-3.027-3V-8.5H41.172v-2.07h1.543v-2.6ZM51.895,0H49.063V-10.566h2.832Zm-3-13.3a1.39,1.39,0,0,1,.425-1.045,1.6,1.6,0,0,1,1.157-.41,1.6,1.6,0,0,1,1.152.41,1.382,1.382,0,0,1,.43,1.045,1.386,1.386,0,0,1-.435,1.055,1.6,1.6,0,0,1-1.147.41,1.6,1.6,0,0,1-1.147-.41A1.386,1.386,0,0,1,48.9-13.3Zm9.277,9.854,1.963-7.119h2.949L59.521,0h-2.7L53.262-10.566h2.949ZM63.74-5.381a6.267,6.267,0,0,1,.605-2.8,4.432,4.432,0,0,1,1.743-1.9,5.086,5.086,0,0,1,2.642-.674,4.812,4.812,0,0,1,3.491,1.309A5.252,5.252,0,0,1,73.73-5.9l.02.723a5.523,5.523,0,0,1-1.357,3.9A4.718,4.718,0,0,1,68.75.2,4.742,4.742,0,0,1,65.1-1.27,5.62,5.62,0,0,1,63.74-5.254Zm2.822.2a3.95,3.95,0,0,0,.566,2.3,1.868,1.868,0,0,0,1.621.8,1.873,1.873,0,0,0,1.6-.787,4.322,4.322,0,0,0,.576-2.518,3.91,3.91,0,0,0-.576-2.289,1.873,1.873,0,0,0-1.621-.812,1.842,1.842,0,0,0-1.6.807A4.395,4.395,0,0,0,66.563-5.181ZM81.211-2.92a.909.909,0,0,0-.513-.815,5.824,5.824,0,0,0-1.646-.532q-3.77-.791-3.77-3.2A2.9,2.9,0,0,1,76.45-9.819a4.708,4.708,0,0,1,3.052-.942,5.067,5.067,0,0,1,3.218.947,2.985,2.985,0,0,1,1.206,2.461H81.1a1.366,1.366,0,0,0-.391-1,1.653,1.653,0,0,0-1.221-.4,1.689,1.689,0,0,0-1.1.322,1.017,1.017,0,0,0-.391.82.87.87,0,0,0,.444.757,4.571,4.571,0,0,0,1.5.5,12.244,12.244,0,0,1,1.777.474,2.92,2.92,0,0,1,2.236,2.842A2.756,2.756,0,0,1,82.715-.7a5.35,5.35,0,0,1-3.2.894,5.588,5.588,0,0,1-2.358-.474,3.957,3.957,0,0,1-1.616-1.3,3.018,3.018,0,0,1-.586-1.782h2.676a1.473,1.473,0,0,0,.557,1.152,2.208,2.208,0,0,0,1.387.4A2.044,2.044,0,0,0,80.8-2.114.957.957,0,0,0,81.211-2.92ZM91.436,0V-8.5H89.863v-2.07h1.572v-.488a3.963,3.963,0,0,1,1.226-3.071,4.931,4.931,0,0,1,3.4-1.079,11.289,11.289,0,0,1,3.2.576l-.41,2.334a12.5,12.5,0,0,0-1.484-.366,7.293,7.293,0,0,0-1.133-.083q-1.973,0-1.973,1.748v.43h2.08V-8.5h-2.08V0Zm9.15,0H97.754V-10.566h2.832Zm4.932-10.566.088,1.221a3.689,3.689,0,0,1,3.037-1.416,3.066,3.066,0,0,1,2.5.986,4.6,4.6,0,0,1,.84,2.949V0H109.16V-6.773a1.838,1.838,0,0,0-.391-1.307,1.746,1.746,0,0,0-1.3-.406,1.941,1.941,0,0,0-1.787,1.018V0h-2.822V-10.566ZM120.244,0a3.134,3.134,0,0,1-.283-.947A3.415,3.415,0,0,1,117.295.2a3.752,3.752,0,0,1-2.573-.9A2.89,2.89,0,0,1,113.7-2.969a2.986,2.986,0,0,1,1.245-2.578,6.144,6.144,0,0,1,3.6-.908h1.3v-.605a1.741,1.741,0,0,0-.376-1.172,1.479,1.479,0,0,0-1.187-.439,1.682,1.682,0,0,0-1.118.342,1.161,1.161,0,0,0-.405.938h-2.822a2.835,2.835,0,0,1,.566-1.7,3.744,3.744,0,0,1,1.6-1.226,5.837,5.837,0,0,1,2.324-.444,4.611,4.611,0,0,1,3.1.981,3.433,3.433,0,0,1,1.147,2.759v4.58a5.052,5.052,0,0,0,.42,2.275V0ZM117.91-1.963a2.431,2.431,0,0,0,1.152-.278,1.828,1.828,0,0,0,.781-.747V-4.8h-1.055q-2.119,0-2.256,1.465l-.01.166a1.13,1.13,0,0,0,.371.869A1.441,1.441,0,0,0,117.91-1.963Zm9.531-8.6.088,1.221a3.689,3.689,0,0,1,3.037-1.416,3.066,3.066,0,0,1,2.5.986,4.6,4.6,0,0,1,.84,2.949V0h-2.822V-6.773a1.838,1.838,0,0,0-.391-1.307,1.746,1.746,0,0,0-1.3-.406,1.941,1.941,0,0,0-1.787,1.018V0h-2.822V-10.566Zm13,8.486a1.851,1.851,0,0,0,1.27-.43,1.506,1.506,0,0,0,.508-1.143h2.646a3.62,3.62,0,0,1-.586,1.968A3.866,3.866,0,0,1,142.7-.3,4.936,4.936,0,0,1,140.488.2a4.587,4.587,0,0,1-3.574-1.44,5.7,5.7,0,0,1-1.309-3.979V-5.41a5.635,5.635,0,0,1,1.3-3.9,4.534,4.534,0,0,1,3.564-1.455,4.444,4.444,0,0,1,3.179,1.128,3.994,3.994,0,0,1,1.216,3h-2.646a1.939,1.939,0,0,0-.508-1.34,1.693,1.693,0,0,0-1.289-.515,1.7,1.7,0,0,0-1.489.719,4.166,4.166,0,0,0-.5,2.333v.293a4.219,4.219,0,0,0,.5,2.347A1.721,1.721,0,0,0,140.439-2.08ZM149.453,0h-2.832V-10.566h2.832Zm-3-13.3a1.39,1.39,0,0,1,.425-1.045,1.6,1.6,0,0,1,1.157-.41,1.6,1.6,0,0,1,1.152.41,1.382,1.382,0,0,1,.43,1.045,1.386,1.386,0,0,1-.435,1.055,1.6,1.6,0,0,1-1.147.41,1.6,1.6,0,0,1-1.147-.41A1.386,1.386,0,0,1,146.455-13.3ZM156.641.2a5.187,5.187,0,0,1-3.784-1.426,5.068,5.068,0,0,1-1.46-3.8V-5.3a6.383,6.383,0,0,1,.615-2.847,4.515,4.515,0,0,1,1.743-1.934,4.893,4.893,0,0,1,2.573-.679,4.385,4.385,0,0,1,3.413,1.367,5.555,5.555,0,0,1,1.245,3.877v1.152h-6.729a2.622,2.622,0,0,0,.825,1.66,2.5,2.5,0,0,0,1.743.625,3.046,3.046,0,0,0,2.549-1.182l1.387,1.553a4.237,4.237,0,0,1-1.719,1.4A5.639,5.639,0,0,1,156.641.2Zm-.322-8.682a1.764,1.764,0,0,0-1.362.569,2.946,2.946,0,0,0-.669,1.628h3.926v-.226a2.1,2.1,0,0,0-.508-1.457A1.819,1.819,0,0,0,156.318-8.486Zm12.207.566A7.667,7.667,0,0,0,167.51-8a2.067,2.067,0,0,0-2.1,1.084V0h-2.822V-10.566h2.666l.078,1.26a2.615,2.615,0,0,1,2.354-1.455,2.957,2.957,0,0,1,.879.127Zm.566,2.539a6.267,6.267,0,0,1,.605-2.8,4.432,4.432,0,0,1,1.743-1.9,5.086,5.086,0,0,1,2.642-.674,4.812,4.812,0,0,1,3.491,1.309A5.252,5.252,0,0,1,179.082-5.9l.02.723a5.523,5.523,0,0,1-1.357,3.9A4.718,4.718,0,0,1,174.1.2a4.742,4.742,0,0,1-3.647-1.465,5.62,5.62,0,0,1-1.362-3.984Zm2.822.2a3.95,3.95,0,0,0,.566,2.3,1.868,1.868,0,0,0,1.621.8,1.873,1.873,0,0,0,1.6-.787,4.322,4.322,0,0,0,.576-2.518,3.91,3.91,0,0,0-.576-2.289,1.873,1.873,0,0,0-1.621-.812,1.842,1.842,0,0,0-1.6.807A4.395,4.395,0,0,0,171.914-5.181ZM186.563-2.92a.909.909,0,0,0-.513-.815,5.824,5.824,0,0,0-1.646-.532q-3.77-.791-3.77-3.2A2.9,2.9,0,0,1,181.8-9.819a4.708,4.708,0,0,1,3.052-.942,5.067,5.067,0,0,1,3.218.947,2.985,2.985,0,0,1,1.206,2.461h-2.822a1.366,1.366,0,0,0-.391-1,1.653,1.653,0,0,0-1.221-.4,1.689,1.689,0,0,0-1.1.322,1.017,1.017,0,0,0-.391.82.87.87,0,0,0,.444.757,4.571,4.571,0,0,0,1.5.5,12.244,12.244,0,0,1,1.777.474,2.92,2.92,0,0,1,2.236,2.842A2.756,2.756,0,0,1,188.066-.7a5.35,5.35,0,0,1-3.2.894A5.588,5.588,0,0,1,182.5-.278a3.957,3.957,0,0,1-1.616-1.3,3.018,3.018,0,0,1-.586-1.782h2.676a1.473,1.473,0,0,0,.557,1.152,2.208,2.208,0,0,0,1.387.4,2.044,2.044,0,0,0,1.226-.308A.957.957,0,0,0,186.563-2.92Z" transform="translate(700 10831)" fill="#002b45"/>
    <path id="Trazado_20937" data-name="Trazado 20937" d="M12.949,12.213a8.583,8.583,0,0,1-.742,3.682,5.589,5.589,0,0,1-2.124,2.441,5.875,5.875,0,0,1-3.169.859,5.915,5.915,0,0,1-3.154-.85,5.644,5.644,0,0,1-2.148-2.427A8.338,8.338,0,0,1,.84,12.291v-.7a8.538,8.538,0,0,1,.757-3.7A5.635,5.635,0,0,1,3.735,5.44a5.883,5.883,0,0,1,3.159-.854,5.883,5.883,0,0,1,3.159.854,5.635,5.635,0,0,1,2.139,2.451,8.514,8.514,0,0,1,.757,3.687ZM9.98,11.568a5.984,5.984,0,0,0-.8-3.4A2.61,2.61,0,0,0,6.895,7.008,2.611,2.611,0,0,0,4.619,8.155a5.915,5.915,0,0,0-.811,3.364v.693a6.058,6.058,0,0,0,.8,3.379,2.6,2.6,0,0,0,2.3,1.2A2.579,2.579,0,0,0,9.18,15.636a6.023,6.023,0,0,0,.8-3.374Zm14.434,2.246a6.4,6.4,0,0,1-1.084,3.96A3.591,3.591,0,0,1,20.3,19.2a3.3,3.3,0,0,1-2.744-1.318L17.432,19H14.893V4h2.822V9.381a3.214,3.214,0,0,1,2.568-1.143,3.62,3.62,0,0,1,3.032,1.421,6.408,6.408,0,0,1,1.1,4ZM21.592,13.6a4.227,4.227,0,0,0-.508-2.346,1.715,1.715,0,0,0-1.514-.74,1.861,1.861,0,0,0-1.855,1.107V15.8A1.886,1.886,0,0,0,19.59,16.92a1.743,1.743,0,0,0,1.8-1.352A6.993,6.993,0,0,0,21.592,13.6Zm7.549-5.166V19.576a3.78,3.78,0,0,1-.928,2.72,3.526,3.526,0,0,1-2.676.972,5.738,5.738,0,0,1-1.4-.166V20.865a5.3,5.3,0,0,0,.889.088q1.279,0,1.279-1.357V8.434ZM26.084,5.7a1.39,1.39,0,0,1,.425-1.045,1.838,1.838,0,0,1,2.314,0A1.39,1.39,0,0,1,29.248,5.7a1.386,1.386,0,0,1-.435,1.055,1.81,1.81,0,0,1-2.295,0A1.386,1.386,0,0,1,26.084,5.7ZM36.211,19.2a5.187,5.187,0,0,1-3.784-1.426,5.068,5.068,0,0,1-1.46-3.8V13.7a6.383,6.383,0,0,1,.615-2.847,4.515,4.515,0,0,1,1.743-1.934A4.893,4.893,0,0,1,35.9,8.238a4.385,4.385,0,0,1,3.413,1.367,5.555,5.555,0,0,1,1.245,3.877v1.152H33.828a2.622,2.622,0,0,0,.825,1.66,2.5,2.5,0,0,0,1.743.625,3.046,3.046,0,0,0,2.549-1.182l1.387,1.553a4.237,4.237,0,0,1-1.719,1.4A5.639,5.639,0,0,1,36.211,19.2Zm-.322-8.682a1.764,1.764,0,0,0-1.362.569,2.946,2.946,0,0,0-.669,1.628h3.926v-.226a2.1,2.1,0,0,0-.508-1.457A1.819,1.819,0,0,0,35.889,10.514Zm9.648-4.678v2.6h1.807V10.5H45.537v5.273a1.259,1.259,0,0,0,.225.84,1.128,1.128,0,0,0,.859.254,4.5,4.5,0,0,0,.83-.068v2.139a5.81,5.81,0,0,1-1.709.254q-2.969,0-3.027-3V10.5H41.172V8.434h1.543v-2.6ZM51.895,19H49.063V8.434h2.832Zm-3-13.3a1.39,1.39,0,0,1,.425-1.045,1.831,1.831,0,0,1,2.31,0,1.382,1.382,0,0,1,.43,1.045,1.386,1.386,0,0,1-.435,1.055,1.81,1.81,0,0,1-2.295,0A1.386,1.386,0,0,1,48.9,5.7Zm9.277,9.854,1.963-7.119h2.949L59.521,19h-2.7L53.262,8.434h2.949Zm5.566-1.934a6.267,6.267,0,0,1,.605-2.8,4.432,4.432,0,0,1,1.743-1.9,5.086,5.086,0,0,1,2.642-.674,4.812,4.812,0,0,1,3.491,1.309A5.252,5.252,0,0,1,73.73,13.1l.02.723a5.523,5.523,0,0,1-1.357,3.9,5.261,5.261,0,0,1-7.29,0,5.62,5.62,0,0,1-1.362-3.984Zm2.822.2a3.95,3.95,0,0,0,.566,2.3,2.035,2.035,0,0,0,3.223.01,4.322,4.322,0,0,0,.576-2.518,3.91,3.91,0,0,0-.576-2.289,1.873,1.873,0,0,0-1.621-.812,1.842,1.842,0,0,0-1.6.807A4.395,4.395,0,0,0,66.563,13.819ZM81.211,16.08a.909.909,0,0,0-.513-.815,5.824,5.824,0,0,0-1.646-.532q-3.77-.791-3.77-3.2A2.9,2.9,0,0,1,76.45,9.181,4.708,4.708,0,0,1,79.5,8.238a5.067,5.067,0,0,1,3.218.947,2.985,2.985,0,0,1,1.206,2.461H81.1a1.366,1.366,0,0,0-.391-1,1.653,1.653,0,0,0-1.221-.4,1.689,1.689,0,0,0-1.1.322,1.017,1.017,0,0,0-.391.82.87.87,0,0,0,.444.757,4.571,4.571,0,0,0,1.5.5,12.244,12.244,0,0,1,1.777.474,2.92,2.92,0,0,1,2.236,2.842,2.756,2.756,0,0,1-1.24,2.339,5.35,5.35,0,0,1-3.2.894,5.588,5.588,0,0,1-2.358-.474,3.957,3.957,0,0,1-1.616-1.3,3.018,3.018,0,0,1-.586-1.782h2.676a1.473,1.473,0,0,0,.557,1.152,2.208,2.208,0,0,0,1.387.4,2.044,2.044,0,0,0,1.226-.308A.957.957,0,0,0,81.211,16.08Zm15.479-5A7.667,7.667,0,0,0,95.674,11a2.067,2.067,0,0,0-2.1,1.084V19H90.752V8.434h2.666l.078,1.26A2.615,2.615,0,0,1,95.85,8.238a2.957,2.957,0,0,1,.879.127Zm6.035,8.115A5.187,5.187,0,0,1,98.94,17.77a5.068,5.068,0,0,1-1.46-3.8V13.7a6.383,6.383,0,0,1,.615-2.847,4.515,4.515,0,0,1,1.743-1.934,4.893,4.893,0,0,1,2.573-.679,4.385,4.385,0,0,1,3.413,1.367,5.555,5.555,0,0,1,1.245,3.877v1.152h-6.729a2.622,2.622,0,0,0,.825,1.66,2.5,2.5,0,0,0,1.743.625,3.046,3.046,0,0,0,2.549-1.182l1.387,1.553a4.237,4.237,0,0,1-1.719,1.4A5.639,5.639,0,0,1,102.725,19.2Zm-.322-8.682a1.764,1.764,0,0,0-1.362.569,2.946,2.946,0,0,0-.669,1.628H104.3v-.226a2.1,2.1,0,0,0-.508-1.457A1.819,1.819,0,0,0,102.4,10.514Zm11.992,5.566a.909.909,0,0,0-.513-.815,5.824,5.824,0,0,0-1.646-.532q-3.77-.791-3.77-3.2a2.9,2.9,0,0,1,1.167-2.349,4.708,4.708,0,0,1,3.052-.942,5.067,5.067,0,0,1,3.218.947,2.985,2.985,0,0,1,1.206,2.461h-2.822a1.366,1.366,0,0,0-.391-1,1.653,1.653,0,0,0-1.221-.4,1.689,1.689,0,0,0-1.1.322,1.017,1.017,0,0,0-.391.82.87.87,0,0,0,.444.757,4.571,4.571,0,0,0,1.5.5,12.244,12.244,0,0,1,1.777.474,2.92,2.92,0,0,1,2.236,2.842A2.756,2.756,0,0,1,115.9,18.3a5.35,5.35,0,0,1-3.2.894,5.588,5.588,0,0,1-2.358-.474,3.957,3.957,0,0,1-1.616-1.3,3.018,3.018,0,0,1-.586-1.782h2.676a1.473,1.473,0,0,0,.557,1.152,2.208,2.208,0,0,0,1.387.4,2.044,2.044,0,0,0,1.226-.308A.957.957,0,0,0,114.395,16.08Zm14.072-2.266a6.337,6.337,0,0,1-1.108,3.911,3.554,3.554,0,0,1-2.993,1.47,3.292,3.292,0,0,1-2.588-1.113v4.98h-2.822V8.434h2.617l.1,1.035a3.317,3.317,0,0,1,2.676-1.23,3.578,3.578,0,0,1,3.037,1.445,6.509,6.509,0,0,1,1.084,3.984Zm-2.822-.215a4.182,4.182,0,0,0-.522-2.282,1.7,1.7,0,0,0-1.519-.8,1.847,1.847,0,0,0-1.826,1.019v4.339a1.879,1.879,0,0,0,1.846,1.048Q125.645,16.92,125.645,13.6Zm4.131.02a6.267,6.267,0,0,1,.605-2.8,4.432,4.432,0,0,1,1.743-1.9,5.086,5.086,0,0,1,2.642-.674,4.812,4.812,0,0,1,3.491,1.309,5.252,5.252,0,0,1,1.509,3.555l.02.723a5.523,5.523,0,0,1-1.357,3.9,5.261,5.261,0,0,1-7.29,0,5.62,5.62,0,0,1-1.362-3.984Zm2.822.2a3.95,3.95,0,0,0,.566,2.3,2.035,2.035,0,0,0,3.223.01,4.322,4.322,0,0,0,.576-2.518,3.91,3.91,0,0,0-.576-2.289,1.873,1.873,0,0,0-1.621-.812,1.842,1.842,0,0,0-1.6.807A4.395,4.395,0,0,0,132.6,13.819Zm11.523-5.386.088,1.221a3.689,3.689,0,0,1,3.037-1.416,3.066,3.066,0,0,1,2.5.986,4.6,4.6,0,0,1,.84,2.949V19h-2.822V12.227a1.838,1.838,0,0,0-.391-1.307,1.746,1.746,0,0,0-1.3-.406,1.941,1.941,0,0,0-1.787,1.018V19h-2.822V8.434Zm14.326,7.646a.909.909,0,0,0-.513-.815,5.824,5.824,0,0,0-1.646-.532q-3.77-.791-3.77-3.2a2.9,2.9,0,0,1,1.167-2.349,4.708,4.708,0,0,1,3.052-.942,5.067,5.067,0,0,1,3.218.947,2.985,2.985,0,0,1,1.206,2.461H158.34a1.366,1.366,0,0,0-.391-1,1.653,1.653,0,0,0-1.221-.4,1.689,1.689,0,0,0-1.1.322,1.017,1.017,0,0,0-.391.82.87.87,0,0,0,.444.757,4.571,4.571,0,0,0,1.5.5,12.244,12.244,0,0,1,1.777.474,2.92,2.92,0,0,1,2.236,2.842,2.756,2.756,0,0,1-1.24,2.339,5.35,5.35,0,0,1-3.2.894,5.588,5.588,0,0,1-2.358-.474,3.957,3.957,0,0,1-1.616-1.3,3.018,3.018,0,0,1-.586-1.782h2.676a1.473,1.473,0,0,0,.557,1.152,2.208,2.208,0,0,0,1.387.4,2.044,2.044,0,0,0,1.226-.308A.957.957,0,0,0,158.447,16.08ZM169.131,19a3.134,3.134,0,0,1-.283-.947,3.415,3.415,0,0,1-2.666,1.143,3.752,3.752,0,0,1-2.573-.9,2.889,2.889,0,0,1-1.021-2.266,2.986,2.986,0,0,1,1.245-2.578,6.144,6.144,0,0,1,3.6-.908h1.3v-.605a1.741,1.741,0,0,0-.376-1.172,1.479,1.479,0,0,0-1.187-.439,1.682,1.682,0,0,0-1.118.342,1.161,1.161,0,0,0-.405.938h-2.822a2.835,2.835,0,0,1,.566-1.7,3.744,3.744,0,0,1,1.6-1.226,5.837,5.837,0,0,1,2.324-.444,4.611,4.611,0,0,1,3.1.981,3.433,3.433,0,0,1,1.147,2.759v4.58a5.052,5.052,0,0,0,.42,2.275V19ZM166.8,17.037a2.431,2.431,0,0,0,1.152-.278,1.828,1.828,0,0,0,.781-.747V14.2h-1.055q-2.119,0-2.256,1.465l-.01.166a1.13,1.13,0,0,0,.371.869A1.441,1.441,0,0,0,166.8,17.037Zm16.455-3.223a6.4,6.4,0,0,1-1.084,3.96,3.591,3.591,0,0,1-3.027,1.421,3.3,3.3,0,0,1-2.744-1.318L176.27,19H173.73V4h2.822V9.381a3.214,3.214,0,0,1,2.568-1.143,3.62,3.62,0,0,1,3.032,1.421,6.408,6.408,0,0,1,1.1,4ZM180.43,13.6a4.227,4.227,0,0,0-.508-2.346,1.715,1.715,0,0,0-1.514-.74,1.861,1.861,0,0,0-1.855,1.107V15.8a1.886,1.886,0,0,0,1.875,1.117,1.743,1.743,0,0,0,1.8-1.352A6.993,6.993,0,0,0,180.43,13.6Zm7.539,5.4h-2.832V8.434h2.832Zm-3-13.3a1.39,1.39,0,0,1,.425-1.045,1.831,1.831,0,0,1,2.31,0,1.382,1.382,0,0,1,.43,1.045,1.386,1.386,0,0,1-.435,1.055,1.81,1.81,0,0,1-2.295,0A1.386,1.386,0,0,1,184.971,5.7Zm8.3,13.3h-2.832V4h2.832Zm5.3,0h-2.832V8.434h2.832Zm-3-13.3A1.39,1.39,0,0,1,196,4.654a1.831,1.831,0,0,1,2.31,0,1.382,1.382,0,0,1,.43,1.045,1.386,1.386,0,0,1-.435,1.055,1.81,1.81,0,0,1-2.295,0A1.386,1.386,0,0,1,195.576,5.7Zm4.883,7.939A6.368,6.368,0,0,1,201.567,9.7,3.6,3.6,0,0,1,204.6,8.238a3.236,3.236,0,0,1,2.549,1.152V4h2.832V19h-2.549l-.137-1.123A3.321,3.321,0,0,1,204.58,19.2a3.587,3.587,0,0,1-2.993-1.47A6.573,6.573,0,0,1,200.459,13.639Zm2.822.2a4.194,4.194,0,0,0,.518,2.286,1.685,1.685,0,0,0,1.5.795,1.888,1.888,0,0,0,1.846-1.109V11.622a1.861,1.861,0,0,0-1.826-1.109Q203.281,10.514,203.281,13.839ZM218.291,19a3.134,3.134,0,0,1-.283-.947,3.415,3.415,0,0,1-2.666,1.143,3.752,3.752,0,0,1-2.573-.9,2.889,2.889,0,0,1-1.021-2.266,2.986,2.986,0,0,1,1.245-2.578,6.144,6.144,0,0,1,3.6-.908h1.3v-.605a1.741,1.741,0,0,0-.376-1.172,1.479,1.479,0,0,0-1.187-.439,1.682,1.682,0,0,0-1.118.342,1.161,1.161,0,0,0-.405.938h-2.822a2.835,2.835,0,0,1,.566-1.7,3.744,3.744,0,0,1,1.6-1.226,5.837,5.837,0,0,1,2.324-.444,4.611,4.611,0,0,1,3.1.981,3.433,3.433,0,0,1,1.147,2.759v4.58a5.052,5.052,0,0,0,.42,2.275V19Zm-2.334-1.963a2.431,2.431,0,0,0,1.152-.278,1.828,1.828,0,0,0,.781-.747V14.2h-1.055q-2.119,0-2.256,1.465l-.01.166a1.13,1.13,0,0,0,.371.869A1.441,1.441,0,0,0,215.957,17.037Zm6.494-3.4A6.368,6.368,0,0,1,223.56,9.7a3.6,3.6,0,0,1,3.032-1.465,3.236,3.236,0,0,1,2.549,1.152V4h2.832V19h-2.549l-.137-1.123a3.321,3.321,0,0,1-2.715,1.318,3.587,3.587,0,0,1-2.993-1.47A6.573,6.573,0,0,1,222.451,13.639Zm2.822.2a4.194,4.194,0,0,0,.518,2.286,1.685,1.685,0,0,0,1.5.795,1.888,1.888,0,0,0,1.846-1.109V11.622a1.861,1.861,0,0,0-1.826-1.109Q225.273,10.514,225.273,13.839Zm19.59,2.241a.909.909,0,0,0-.513-.815,5.824,5.824,0,0,0-1.646-.532q-3.77-.791-3.77-3.2A2.9,2.9,0,0,1,240.1,9.181a4.708,4.708,0,0,1,3.052-.942,5.067,5.067,0,0,1,3.218.947,2.985,2.985,0,0,1,1.206,2.461h-2.822a1.366,1.366,0,0,0-.391-1,1.653,1.653,0,0,0-1.221-.4,1.689,1.689,0,0,0-1.1.322,1.017,1.017,0,0,0-.391.82.87.87,0,0,0,.444.757,4.571,4.571,0,0,0,1.5.5,12.244,12.244,0,0,1,1.777.474,2.92,2.92,0,0,1,2.236,2.842,2.756,2.756,0,0,1-1.24,2.339,5.35,5.35,0,0,1-3.2.894,5.588,5.588,0,0,1-2.358-.474,3.957,3.957,0,0,1-1.616-1.3,3.018,3.018,0,0,1-.586-1.782h2.676a1.473,1.473,0,0,0,.557,1.152,2.208,2.208,0,0,0,1.387.4,2.044,2.044,0,0,0,1.226-.308A.957.957,0,0,0,244.863,16.08Zm4.121-2.461a6.267,6.267,0,0,1,.605-2.8,4.432,4.432,0,0,1,1.743-1.9,5.086,5.086,0,0,1,2.642-.674,4.812,4.812,0,0,1,3.491,1.309,5.252,5.252,0,0,1,1.509,3.555l.02.723a5.523,5.523,0,0,1-1.357,3.9,5.261,5.261,0,0,1-7.29,0,5.62,5.62,0,0,1-1.362-3.984Zm2.822.2a3.95,3.95,0,0,0,.566,2.3,2.035,2.035,0,0,0,3.223.01,4.322,4.322,0,0,0,.576-2.518,3.91,3.91,0,0,0-.576-2.289,1.873,1.873,0,0,0-1.621-.812,1.842,1.842,0,0,0-1.6.807A4.395,4.395,0,0,0,251.807,13.819Zm13.32,3.1a1.851,1.851,0,0,0,1.27-.43,1.506,1.506,0,0,0,.508-1.143h2.646a3.62,3.62,0,0,1-.586,1.968,3.866,3.866,0,0,1-1.577,1.387,4.936,4.936,0,0,1-2.212.493,4.587,4.587,0,0,1-3.574-1.44,5.7,5.7,0,0,1-1.309-3.979V13.59a5.635,5.635,0,0,1,1.3-3.9,4.534,4.534,0,0,1,3.564-1.455,4.444,4.444,0,0,1,3.179,1.128,3.994,3.994,0,0,1,1.216,3H266.9a1.939,1.939,0,0,0-.508-1.34,1.887,1.887,0,0,0-2.778.2,4.166,4.166,0,0,0-.5,2.333v.293a4.219,4.219,0,0,0,.5,2.347A1.721,1.721,0,0,0,265.127,16.92ZM274.141,19h-2.832V8.434h2.832Zm-3-13.3a1.39,1.39,0,0,1,.425-1.045,1.831,1.831,0,0,1,2.31,0,1.382,1.382,0,0,1,.43,1.045,1.386,1.386,0,0,1-.435,1.055,1.81,1.81,0,0,1-2.295,0A1.386,1.386,0,0,1,271.143,5.7ZM282.588,19a3.134,3.134,0,0,1-.283-.947,3.415,3.415,0,0,1-2.666,1.143,3.752,3.752,0,0,1-2.573-.9,2.89,2.89,0,0,1-1.021-2.266,2.986,2.986,0,0,1,1.245-2.578,6.144,6.144,0,0,1,3.6-.908h1.3v-.605a1.741,1.741,0,0,0-.376-1.172,1.479,1.479,0,0,0-1.187-.439,1.682,1.682,0,0,0-1.118.342,1.161,1.161,0,0,0-.405.938h-2.822a2.835,2.835,0,0,1,.566-1.7,3.744,3.744,0,0,1,1.6-1.226,5.837,5.837,0,0,1,2.324-.444,4.611,4.611,0,0,1,3.1.981,3.433,3.433,0,0,1,1.147,2.759v4.58a5.051,5.051,0,0,0,.42,2.275V19Zm-2.334-1.963a2.431,2.431,0,0,0,1.152-.278,1.828,1.828,0,0,0,.781-.747V14.2h-1.055q-2.119,0-2.256,1.465l-.01.166a1.13,1.13,0,0,0,.371.869A1.441,1.441,0,0,0,280.254,17.037ZM290.166,19h-2.832V4h2.832Z" transform="translate(700 10917)" fill="#002b45"/>
    <path id="Trazado_20938" data-name="Trazado 20938" d="M12.949-6.787a8.583,8.583,0,0,1-.742,3.682A5.589,5.589,0,0,1,10.083-.664,5.875,5.875,0,0,1,6.914.2,5.915,5.915,0,0,1,3.76-.654,5.644,5.644,0,0,1,1.611-3.081,8.338,8.338,0,0,1,.84-6.709v-.7a8.538,8.538,0,0,1,.757-3.7A5.635,5.635,0,0,1,3.735-13.56a5.883,5.883,0,0,1,3.159-.854,5.883,5.883,0,0,1,3.159.854,5.635,5.635,0,0,1,2.139,2.451,8.514,8.514,0,0,1,.757,3.687ZM9.98-7.432a5.984,5.984,0,0,0-.8-3.4,2.61,2.61,0,0,0-2.285-1.162,2.611,2.611,0,0,0-2.275,1.147A5.915,5.915,0,0,0,3.809-7.48v.693a6.058,6.058,0,0,0,.8,3.379,2.6,2.6,0,0,0,2.3,1.2A2.579,2.579,0,0,0,9.18-3.364a6.023,6.023,0,0,0,.8-3.374ZM24.414-5.186a6.4,6.4,0,0,1-1.084,3.96A3.591,3.591,0,0,1,20.3.2a3.3,3.3,0,0,1-2.744-1.318L17.432,0H14.893V-15h2.822v5.381a3.214,3.214,0,0,1,2.568-1.143,3.62,3.62,0,0,1,3.032,1.421,6.408,6.408,0,0,1,1.1,4ZM21.592-5.4a4.227,4.227,0,0,0-.508-2.346,1.715,1.715,0,0,0-1.514-.74,1.861,1.861,0,0,0-1.855,1.107V-3.2A1.886,1.886,0,0,0,19.59-2.08a1.743,1.743,0,0,0,1.8-1.352A6.993,6.993,0,0,0,21.592-5.4Zm7.549-5.166V.576a3.78,3.78,0,0,1-.928,2.72,3.526,3.526,0,0,1-2.676.972,5.738,5.738,0,0,1-1.4-.166V1.865a5.3,5.3,0,0,0,.889.088q1.279,0,1.279-1.357V-10.566ZM26.084-13.3a1.39,1.39,0,0,1,.425-1.045,1.6,1.6,0,0,1,1.157-.41,1.6,1.6,0,0,1,1.157.41,1.39,1.39,0,0,1,.425,1.045,1.386,1.386,0,0,1-.435,1.055,1.6,1.6,0,0,1-1.147.41,1.6,1.6,0,0,1-1.147-.41A1.386,1.386,0,0,1,26.084-13.3ZM36.211.2A5.187,5.187,0,0,1,32.427-1.23a5.068,5.068,0,0,1-1.46-3.8V-5.3a6.383,6.383,0,0,1,.615-2.847,4.515,4.515,0,0,1,1.743-1.934,4.893,4.893,0,0,1,2.573-.679,4.385,4.385,0,0,1,3.413,1.367,5.555,5.555,0,0,1,1.245,3.877v1.152H33.828a2.622,2.622,0,0,0,.825,1.66A2.5,2.5,0,0,0,36.4-2.08a3.046,3.046,0,0,0,2.549-1.182l1.387,1.553a4.237,4.237,0,0,1-1.719,1.4A5.639,5.639,0,0,1,36.211.2Zm-.322-8.682a1.764,1.764,0,0,0-1.362.569,2.946,2.946,0,0,0-.669,1.628h3.926v-.226a2.1,2.1,0,0,0-.508-1.457A1.819,1.819,0,0,0,35.889-8.486Zm9.648-4.678v2.6h1.807V-8.5H45.537v5.273a1.259,1.259,0,0,0,.225.84,1.128,1.128,0,0,0,.859.254,4.5,4.5,0,0,0,.83-.068V-.059A5.81,5.81,0,0,1,45.742.2q-2.969,0-3.027-3V-8.5H41.172v-2.07h1.543v-2.6ZM51.895,0H49.063V-10.566h2.832Zm-3-13.3a1.39,1.39,0,0,1,.425-1.045,1.6,1.6,0,0,1,1.157-.41,1.6,1.6,0,0,1,1.152.41,1.382,1.382,0,0,1,.43,1.045,1.386,1.386,0,0,1-.435,1.055,1.6,1.6,0,0,1-1.147.41,1.6,1.6,0,0,1-1.147-.41A1.386,1.386,0,0,1,48.9-13.3Zm9.277,9.854,1.963-7.119h2.949L59.521,0h-2.7L53.262-10.566h2.949ZM63.74-5.381a6.267,6.267,0,0,1,.605-2.8,4.432,4.432,0,0,1,1.743-1.9,5.086,5.086,0,0,1,2.642-.674,4.812,4.812,0,0,1,3.491,1.309A5.252,5.252,0,0,1,73.73-5.9l.02.723a5.523,5.523,0,0,1-1.357,3.9A4.718,4.718,0,0,1,68.75.2,4.742,4.742,0,0,1,65.1-1.27,5.62,5.62,0,0,1,63.74-5.254Zm2.822.2a3.95,3.95,0,0,0,.566,2.3,1.868,1.868,0,0,0,1.621.8,1.873,1.873,0,0,0,1.6-.787,4.322,4.322,0,0,0,.576-2.518,3.91,3.91,0,0,0-.576-2.289,1.873,1.873,0,0,0-1.621-.812,1.842,1.842,0,0,0-1.6.807A4.395,4.395,0,0,0,66.563-5.181ZM81.211-2.92a.909.909,0,0,0-.513-.815,5.824,5.824,0,0,0-1.646-.532q-3.77-.791-3.77-3.2A2.9,2.9,0,0,1,76.45-9.819a4.708,4.708,0,0,1,3.052-.942,5.067,5.067,0,0,1,3.218.947,2.985,2.985,0,0,1,1.206,2.461H81.1a1.366,1.366,0,0,0-.391-1,1.653,1.653,0,0,0-1.221-.4,1.689,1.689,0,0,0-1.1.322,1.017,1.017,0,0,0-.391.82.87.87,0,0,0,.444.757,4.571,4.571,0,0,0,1.5.5,12.244,12.244,0,0,1,1.777.474,2.92,2.92,0,0,1,2.236,2.842A2.756,2.756,0,0,1,82.715-.7a5.35,5.35,0,0,1-3.2.894,5.588,5.588,0,0,1-2.358-.474,3.957,3.957,0,0,1-1.616-1.3,3.018,3.018,0,0,1-.586-1.782h2.676a1.473,1.473,0,0,0,.557,1.152,2.208,2.208,0,0,0,1.387.4A2.044,2.044,0,0,0,80.8-2.114.957.957,0,0,0,81.211-2.92Zm19.053-2.266a6.337,6.337,0,0,1-1.108,3.911A3.554,3.554,0,0,1,96.162.2,3.292,3.292,0,0,1,93.574-.918v4.98H90.752V-10.566h2.617l.1,1.035a3.317,3.317,0,0,1,2.676-1.23A3.578,3.578,0,0,1,99.18-9.316a6.509,6.509,0,0,1,1.084,3.984ZM97.441-5.4a4.182,4.182,0,0,0-.522-2.282,1.7,1.7,0,0,0-1.519-.8,1.847,1.847,0,0,0-1.826,1.019v4.339A1.879,1.879,0,0,0,95.42-2.08Q97.441-2.08,97.441-5.4ZM107.949-7.92A7.667,7.667,0,0,0,106.934-8a2.067,2.067,0,0,0-2.1,1.084V0h-2.822V-10.566h2.666l.078,1.26a2.615,2.615,0,0,1,2.354-1.455,2.957,2.957,0,0,1,.879.127Zm.566,2.539a6.266,6.266,0,0,1,.605-2.8,4.432,4.432,0,0,1,1.743-1.9,5.086,5.086,0,0,1,2.642-.674A4.812,4.812,0,0,1,117-9.453,5.252,5.252,0,0,1,118.506-5.9l.02.723a5.523,5.523,0,0,1-1.357,3.9A4.718,4.718,0,0,1,113.525.2a4.742,4.742,0,0,1-3.647-1.465,5.62,5.62,0,0,1-1.362-3.984Zm2.822.2a3.95,3.95,0,0,0,.566,2.3,1.868,1.868,0,0,0,1.621.8,1.873,1.873,0,0,0,1.6-.787,4.322,4.322,0,0,0,.576-2.518,3.91,3.91,0,0,0-.576-2.289,1.873,1.873,0,0,0-1.621-.812,1.842,1.842,0,0,0-1.6.807A4.395,4.395,0,0,0,111.338-5.181Zm8.486-.181A6.368,6.368,0,0,1,120.933-9.3a3.6,3.6,0,0,1,3.032-1.465,3.236,3.236,0,0,1,2.549,1.152V-15h2.832V0H126.8l-.137-1.123A3.321,3.321,0,0,1,123.945.2a3.587,3.587,0,0,1-2.993-1.47A6.573,6.573,0,0,1,119.824-5.361Zm2.822.2a4.194,4.194,0,0,0,.518,2.286,1.685,1.685,0,0,0,1.5.795,1.888,1.888,0,0,0,1.846-1.109V-7.378a1.861,1.861,0,0,0-1.826-1.109Q122.646-8.486,122.646-5.161Zm15.215,4.086A3.539,3.539,0,0,1,134.971.2a3.338,3.338,0,0,1-2.593-.977,4.169,4.169,0,0,1-.913-2.861v-6.924h2.822v6.834q0,1.652,1.5,1.652a2.038,2.038,0,0,0,1.973-1v-7.489H140.6V0h-2.656Zm9.258-1.006a1.851,1.851,0,0,0,1.27-.43,1.506,1.506,0,0,0,.508-1.143h2.646a3.62,3.62,0,0,1-.586,1.968A3.866,3.866,0,0,1,149.38-.3,4.936,4.936,0,0,1,147.168.2a4.587,4.587,0,0,1-3.574-1.44,5.7,5.7,0,0,1-1.309-3.979V-5.41a5.635,5.635,0,0,1,1.3-3.9,4.534,4.534,0,0,1,3.564-1.455,4.444,4.444,0,0,1,3.179,1.128,3.994,3.994,0,0,1,1.216,3H148.9a1.939,1.939,0,0,0-.508-1.34,1.693,1.693,0,0,0-1.289-.515,1.7,1.7,0,0,0-1.489.719,4.166,4.166,0,0,0-.5,2.333v.293a4.219,4.219,0,0,0,.5,2.347A1.721,1.721,0,0,0,147.119-2.08Zm10.43,0a1.851,1.851,0,0,0,1.27-.43,1.506,1.506,0,0,0,.508-1.143h2.646a3.62,3.62,0,0,1-.586,1.968A3.866,3.866,0,0,1,159.81-.3,4.936,4.936,0,0,1,157.6.2a4.587,4.587,0,0,1-3.574-1.44,5.7,5.7,0,0,1-1.309-3.979V-5.41a5.635,5.635,0,0,1,1.3-3.9,4.534,4.534,0,0,1,3.564-1.455,4.444,4.444,0,0,1,3.179,1.128,3.994,3.994,0,0,1,1.216,3h-2.646a1.939,1.939,0,0,0-.508-1.34,1.693,1.693,0,0,0-1.289-.515,1.7,1.7,0,0,0-1.489.719,4.166,4.166,0,0,0-.5,2.333v.293a4.219,4.219,0,0,0,.5,2.347A1.721,1.721,0,0,0,157.549-2.08ZM166.563,0H163.73V-10.566h2.832Zm-3-13.3a1.39,1.39,0,0,1,.425-1.045,1.6,1.6,0,0,1,1.157-.41,1.6,1.6,0,0,1,1.152.41,1.382,1.382,0,0,1,.43,1.045,1.386,1.386,0,0,1-.435,1.055,1.6,1.6,0,0,1-1.147.41,1.6,1.6,0,0,1-1.147-.41A1.386,1.386,0,0,1,163.564-13.3Zm4.883,7.92a6.267,6.267,0,0,1,.605-2.8,4.432,4.432,0,0,1,1.743-1.9,5.086,5.086,0,0,1,2.642-.674,4.812,4.812,0,0,1,3.491,1.309A5.252,5.252,0,0,1,178.438-5.9l.02.723a5.523,5.523,0,0,1-1.357,3.9A4.718,4.718,0,0,1,173.457.2,4.742,4.742,0,0,1,169.81-1.27a5.62,5.62,0,0,1-1.362-3.984Zm2.822.2a3.95,3.95,0,0,0,.566,2.3,1.868,1.868,0,0,0,1.621.8,1.873,1.873,0,0,0,1.6-.787,4.322,4.322,0,0,0,.576-2.518,3.91,3.91,0,0,0-.576-2.289,1.873,1.873,0,0,0-1.621-.812,1.842,1.842,0,0,0-1.6.807A4.395,4.395,0,0,0,171.27-5.181ZM173.994-15h3.076l-2.705,3.027H172.07Zm8.8,4.434.088,1.221a3.689,3.689,0,0,1,3.037-1.416,3.066,3.066,0,0,1,2.5.986,4.6,4.6,0,0,1,.84,2.949V0h-2.822V-6.773a1.838,1.838,0,0,0-.391-1.307,1.746,1.746,0,0,0-1.3-.406,1.941,1.941,0,0,0-1.787,1.018V0h-2.822V-10.566Z" transform="translate(700 11042)" fill="#002b45"/>
    <path id="Trazado_20939" data-name="Trazado 20939" d="M12.949-6.787a8.583,8.583,0,0,1-.742,3.682A5.589,5.589,0,0,1,10.083-.664,5.875,5.875,0,0,1,6.914.2,5.915,5.915,0,0,1,3.76-.654,5.644,5.644,0,0,1,1.611-3.081,8.338,8.338,0,0,1,.84-6.709v-.7a8.538,8.538,0,0,1,.757-3.7A5.635,5.635,0,0,1,3.735-13.56a5.883,5.883,0,0,1,3.159-.854,5.883,5.883,0,0,1,3.159.854,5.635,5.635,0,0,1,2.139,2.451,8.514,8.514,0,0,1,.757,3.687ZM9.98-7.432a5.984,5.984,0,0,0-.8-3.4,2.61,2.61,0,0,0-2.285-1.162,2.611,2.611,0,0,0-2.275,1.147A5.915,5.915,0,0,0,3.809-7.48v.693a6.058,6.058,0,0,0,.8,3.379,2.6,2.6,0,0,0,2.3,1.2A2.579,2.579,0,0,0,9.18-3.364a6.023,6.023,0,0,0,.8-3.374ZM24.414-5.186a6.4,6.4,0,0,1-1.084,3.96A3.591,3.591,0,0,1,20.3.2a3.3,3.3,0,0,1-2.744-1.318L17.432,0H14.893V-15h2.822v5.381a3.214,3.214,0,0,1,2.568-1.143,3.62,3.62,0,0,1,3.032,1.421,6.408,6.408,0,0,1,1.1,4ZM21.592-5.4a4.227,4.227,0,0,0-.508-2.346,1.715,1.715,0,0,0-1.514-.74,1.861,1.861,0,0,0-1.855,1.107V-3.2A1.886,1.886,0,0,0,19.59-2.08a1.743,1.743,0,0,0,1.8-1.352A6.993,6.993,0,0,0,21.592-5.4Zm7.549-5.166V.576a3.78,3.78,0,0,1-.928,2.72,3.526,3.526,0,0,1-2.676.972,5.738,5.738,0,0,1-1.4-.166V1.865a5.3,5.3,0,0,0,.889.088q1.279,0,1.279-1.357V-10.566ZM26.084-13.3a1.39,1.39,0,0,1,.425-1.045,1.6,1.6,0,0,1,1.157-.41,1.6,1.6,0,0,1,1.157.41,1.39,1.39,0,0,1,.425,1.045,1.386,1.386,0,0,1-.435,1.055,1.6,1.6,0,0,1-1.147.41,1.6,1.6,0,0,1-1.147-.41A1.386,1.386,0,0,1,26.084-13.3ZM36.211.2A5.187,5.187,0,0,1,32.427-1.23a5.068,5.068,0,0,1-1.46-3.8V-5.3a6.383,6.383,0,0,1,.615-2.847,4.515,4.515,0,0,1,1.743-1.934,4.893,4.893,0,0,1,2.573-.679,4.385,4.385,0,0,1,3.413,1.367,5.555,5.555,0,0,1,1.245,3.877v1.152H33.828a2.622,2.622,0,0,0,.825,1.66A2.5,2.5,0,0,0,36.4-2.08a3.046,3.046,0,0,0,2.549-1.182l1.387,1.553a4.237,4.237,0,0,1-1.719,1.4A5.639,5.639,0,0,1,36.211.2Zm-.322-8.682a1.764,1.764,0,0,0-1.362.569,2.946,2.946,0,0,0-.669,1.628h3.926v-.226a2.1,2.1,0,0,0-.508-1.457A1.819,1.819,0,0,0,35.889-8.486Zm9.648-4.678v2.6h1.807V-8.5H45.537v5.273a1.259,1.259,0,0,0,.225.84,1.128,1.128,0,0,0,.859.254,4.5,4.5,0,0,0,.83-.068V-.059A5.81,5.81,0,0,1,45.742.2q-2.969,0-3.027-3V-8.5H41.172v-2.07h1.543v-2.6ZM51.895,0H49.063V-10.566h2.832Zm-3-13.3a1.39,1.39,0,0,1,.425-1.045,1.6,1.6,0,0,1,1.157-.41,1.6,1.6,0,0,1,1.152.41,1.382,1.382,0,0,1,.43,1.045,1.386,1.386,0,0,1-.435,1.055,1.6,1.6,0,0,1-1.147.41,1.6,1.6,0,0,1-1.147-.41A1.386,1.386,0,0,1,48.9-13.3Zm9.277,9.854,1.963-7.119h2.949L59.521,0h-2.7L53.262-10.566h2.949ZM63.74-5.381a6.267,6.267,0,0,1,.605-2.8,4.432,4.432,0,0,1,1.743-1.9,5.086,5.086,0,0,1,2.642-.674,4.812,4.812,0,0,1,3.491,1.309A5.252,5.252,0,0,1,73.73-5.9l.02.723a5.523,5.523,0,0,1-1.357,3.9A4.718,4.718,0,0,1,68.75.2,4.742,4.742,0,0,1,65.1-1.27,5.62,5.62,0,0,1,63.74-5.254Zm2.822.2a3.95,3.95,0,0,0,.566,2.3,1.868,1.868,0,0,0,1.621.8,1.873,1.873,0,0,0,1.6-.787,4.322,4.322,0,0,0,.576-2.518,3.91,3.91,0,0,0-.576-2.289,1.873,1.873,0,0,0-1.621-.812,1.842,1.842,0,0,0-1.6.807A4.395,4.395,0,0,0,66.563-5.181ZM81.211-2.92a.909.909,0,0,0-.513-.815,5.824,5.824,0,0,0-1.646-.532q-3.77-.791-3.77-3.2A2.9,2.9,0,0,1,76.45-9.819a4.708,4.708,0,0,1,3.052-.942,5.067,5.067,0,0,1,3.218.947,2.985,2.985,0,0,1,1.206,2.461H81.1a1.366,1.366,0,0,0-.391-1,1.653,1.653,0,0,0-1.221-.4,1.689,1.689,0,0,0-1.1.322,1.017,1.017,0,0,0-.391.82.87.87,0,0,0,.444.757,4.571,4.571,0,0,0,1.5.5,12.244,12.244,0,0,1,1.777.474,2.92,2.92,0,0,1,2.236,2.842A2.756,2.756,0,0,1,82.715-.7a5.35,5.35,0,0,1-3.2.894,5.588,5.588,0,0,1-2.358-.474,3.957,3.957,0,0,1-1.616-1.3,3.018,3.018,0,0,1-.586-1.782h2.676a1.473,1.473,0,0,0,.557,1.152,2.208,2.208,0,0,0,1.387.4A2.044,2.044,0,0,0,80.8-2.114.957.957,0,0,0,81.211-2.92Zm13.936.84a1.851,1.851,0,0,0,1.27-.43,1.506,1.506,0,0,0,.508-1.143H99.57a3.62,3.62,0,0,1-.586,1.968A3.866,3.866,0,0,1,97.407-.3,4.936,4.936,0,0,1,95.2.2a4.587,4.587,0,0,1-3.574-1.44,5.7,5.7,0,0,1-1.309-3.979V-5.41a5.635,5.635,0,0,1,1.3-3.9,4.534,4.534,0,0,1,3.564-1.455,4.444,4.444,0,0,1,3.179,1.128,3.994,3.994,0,0,1,1.216,3H96.924a1.939,1.939,0,0,0-.508-1.34,1.693,1.693,0,0,0-1.289-.515,1.7,1.7,0,0,0-1.489.719,4.166,4.166,0,0,0-.5,2.333v.293a4.219,4.219,0,0,0,.5,2.347A1.721,1.721,0,0,0,95.146-2.08Zm5.6-3.3a6.266,6.266,0,0,1,.605-2.8,4.432,4.432,0,0,1,1.743-1.9,5.086,5.086,0,0,1,2.642-.674,4.812,4.812,0,0,1,3.491,1.309A5.252,5.252,0,0,1,110.732-5.9l.02.723a5.523,5.523,0,0,1-1.357,3.9A4.718,4.718,0,0,1,105.752.2,4.742,4.742,0,0,1,102.1-1.27a5.62,5.62,0,0,1-1.362-3.984Zm2.822.2a3.95,3.95,0,0,0,.566,2.3,1.868,1.868,0,0,0,1.621.8,1.873,1.873,0,0,0,1.6-.787,4.322,4.322,0,0,0,.576-2.518,3.91,3.91,0,0,0-.576-2.289,1.873,1.873,0,0,0-1.621-.812,1.842,1.842,0,0,0-1.6.807A4.395,4.395,0,0,0,103.564-5.181Zm11.572-5.386.088,1.182a3.713,3.713,0,0,1,3.037-1.377,2.818,2.818,0,0,1,2.8,1.611,3.628,3.628,0,0,1,3.174-1.611,3.152,3.152,0,0,1,2.559,1,4.6,4.6,0,0,1,.84,3.013V0H124.8V-6.754a2.02,2.02,0,0,0-.352-1.316,1.556,1.556,0,0,0-1.24-.416,1.762,1.762,0,0,0-1.758,1.214L121.465,0h-2.822V-6.744a2,2,0,0,0-.361-1.331,1.571,1.571,0,0,0-1.23-.411,1.828,1.828,0,0,0-1.738,1V0H112.49V-10.566Zm24.18,5.381a6.337,6.337,0,0,1-1.108,3.911A3.554,3.554,0,0,1,135.215.2a3.292,3.292,0,0,1-2.588-1.113v4.98H129.8V-10.566h2.617l.1,1.035a3.317,3.317,0,0,1,2.676-1.23,3.578,3.578,0,0,1,3.037,1.445,6.509,6.509,0,0,1,1.084,3.984ZM136.494-5.4a4.182,4.182,0,0,0-.522-2.282,1.7,1.7,0,0,0-1.519-.8,1.847,1.847,0,0,0-1.826,1.019v4.339a1.879,1.879,0,0,0,1.846,1.048Q136.494-2.08,136.494-5.4ZM145.928.2a5.187,5.187,0,0,1-3.784-1.426,5.068,5.068,0,0,1-1.46-3.8V-5.3a6.383,6.383,0,0,1,.615-2.847,4.515,4.515,0,0,1,1.743-1.934,4.893,4.893,0,0,1,2.573-.679,4.385,4.385,0,0,1,3.413,1.367,5.555,5.555,0,0,1,1.245,3.877v1.152h-6.729a2.622,2.622,0,0,0,.825,1.66,2.5,2.5,0,0,0,1.743.625,3.046,3.046,0,0,0,2.549-1.182l1.387,1.553a4.237,4.237,0,0,1-1.719,1.4A5.639,5.639,0,0,1,145.928.2Zm-.322-8.682a1.764,1.764,0,0,0-1.362.569,2.946,2.946,0,0,0-.669,1.628H147.5v-.226a2.1,2.1,0,0,0-.508-1.457A1.819,1.819,0,0,0,145.605-8.486Zm9.648-4.678v2.6h1.807V-8.5h-1.807v5.273a1.259,1.259,0,0,0,.225.84,1.128,1.128,0,0,0,.859.254,4.5,4.5,0,0,0,.83-.068V-.059A5.81,5.81,0,0,1,155.459.2q-2.969,0-3.027-3V-8.5h-1.543v-2.07h1.543v-2.6ZM161.611,0h-2.832V-10.566h2.832Zm-3-13.3a1.39,1.39,0,0,1,.425-1.045,1.6,1.6,0,0,1,1.157-.41,1.6,1.6,0,0,1,1.152.41,1.382,1.382,0,0,1,.43,1.045,1.386,1.386,0,0,1-.435,1.055,1.6,1.6,0,0,1-1.147.41,1.6,1.6,0,0,1-1.147-.41A1.386,1.386,0,0,1,158.613-13.3Zm8.7.137v2.6h1.807V-8.5h-1.807v5.273a1.259,1.259,0,0,0,.225.84,1.128,1.128,0,0,0,.859.254,4.5,4.5,0,0,0,.83-.068V-.059A5.81,5.81,0,0,1,167.52.2q-2.969,0-3.027-3V-8.5h-1.543v-2.07h1.543v-2.6ZM173.672,0H170.84V-10.566h2.832Zm-3-13.3a1.39,1.39,0,0,1,.425-1.045,1.6,1.6,0,0,1,1.157-.41,1.6,1.6,0,0,1,1.152.41,1.382,1.382,0,0,1,.43,1.045,1.386,1.386,0,0,1-.435,1.055,1.6,1.6,0,0,1-1.147.41,1.6,1.6,0,0,1-1.147-.41A1.386,1.386,0,0,1,170.674-13.3Zm9.277,9.854,1.963-7.119h2.949L181.3,0h-2.7l-3.564-10.566h2.949Zm5.566-1.934a6.267,6.267,0,0,1,.605-2.8,4.432,4.432,0,0,1,1.743-1.9,5.086,5.086,0,0,1,2.642-.674A4.812,4.812,0,0,1,194-9.453,5.252,5.252,0,0,1,195.508-5.9l.02.723a5.523,5.523,0,0,1-1.357,3.9A4.718,4.718,0,0,1,190.527.2,4.742,4.742,0,0,1,186.88-1.27a5.62,5.62,0,0,1-1.362-3.984Zm2.822.2a3.95,3.95,0,0,0,.566,2.3,1.868,1.868,0,0,0,1.621.8,1.873,1.873,0,0,0,1.6-.787,4.322,4.322,0,0,0,.576-2.518,3.91,3.91,0,0,0-.576-2.289,1.873,1.873,0,0,0-1.621-.812,1.842,1.842,0,0,0-1.6.807A4.395,4.395,0,0,0,188.34-5.181ZM202.988-2.92a.909.909,0,0,0-.513-.815,5.824,5.824,0,0,0-1.646-.532q-3.77-.791-3.77-3.2a2.9,2.9,0,0,1,1.167-2.349,4.708,4.708,0,0,1,3.052-.942,5.067,5.067,0,0,1,3.218.947A2.985,2.985,0,0,1,205.7-7.354h-2.822a1.366,1.366,0,0,0-.391-1,1.653,1.653,0,0,0-1.221-.4,1.689,1.689,0,0,0-1.1.322,1.017,1.017,0,0,0-.391.82.87.87,0,0,0,.444.757,4.571,4.571,0,0,0,1.5.5,12.244,12.244,0,0,1,1.777.474,2.92,2.92,0,0,1,2.236,2.842A2.756,2.756,0,0,1,204.492-.7a5.35,5.35,0,0,1-3.2.894,5.588,5.588,0,0,1-2.358-.474,3.957,3.957,0,0,1-1.616-1.3,3.018,3.018,0,0,1-.586-1.782H199.4a1.473,1.473,0,0,0,.557,1.152,2.208,2.208,0,0,0,1.387.4,2.044,2.044,0,0,0,1.226-.308A.957.957,0,0,0,202.988-2.92Z" transform="translate(700 11149.299)" fill="#002b45"/>
    <rect id="Rectángulo_3558" data-name="Rectángulo 3558" width="20" height="60" transform="translate(633 10583)" fill="#ff8f00"/>
    <rect id="Rectángulo_3560" data-name="Rectángulo 3560" width="20" height="60" transform="translate(633 10689)" fill="#ff8f00"/>
    <rect id="Rectángulo_3562" data-name="Rectángulo 3562" width="20" height="60" transform="translate(633 10794)" fill="#d64626"/>
    <rect id="Rectángulo_3564" data-name="Rectángulo 3564" width="20" height="60" transform="translate(633 10899)" fill="#d64626"/>
    <rect id="Rectángulo_3566" data-name="Rectángulo 3566" width="20" height="60" transform="translate(633 11005)" fill="#97181a"/>
    <rect id="Rectángulo_3568" data-name="Rectángulo 3568" width="20" height="60" transform="translate(633 11110.299)" fill="#97181a"/>
    <line id="Línea_192" data-name="Línea 192" x2="113" transform="translate(520.5 10613.5)" fill="none" stroke="#cbd9e4" stroke-width="3"/>
    <line id="Línea_193" data-name="Línea 193" x2="113" transform="translate(520.5 10719.5)" fill="none" stroke="#cbd9e4" stroke-width="3"/>
    <line id="Línea_194" data-name="Línea 194" x2="113" transform="translate(520.5 10823.5)" fill="none" stroke="#cbd9e4" stroke-width="3"/>
    <line id="Línea_195" data-name="Línea 195" x2="113" transform="translate(520.5 10929.758)" fill="none" stroke="#cbd9e4" stroke-width="3"/>
    <line id="Línea_196" data-name="Línea 196" x2="113" transform="translate(520.5 11035.092)" fill="none" stroke="#cbd9e4" stroke-width="3"/>
    <line id="Línea_197" data-name="Línea 197" x2="113" transform="translate(520.5 11140.799)" fill="none" stroke="#cbd9e4" stroke-width="3"/>
    <g id="_015-target-1" data-name="015-target-1" transform="translate(639.92 10591)">
      <g id="Grupo_26051" data-name="Grupo 26051" transform="translate(0 2.845)">
        <g id="Grupo_26050" data-name="Grupo 26050">
          <path id="Trazado_20183" data-name="Trazado 20183" d="M39.289,42.524a.659.659,0,0,0-1.138.665,19.75,19.75,0,1,1-7.226-7.182.659.659,0,0,0,.658-1.142,21.069,21.069,0,1,0,7.706,7.659Z" transform="translate(0 -32.064)" fill="#002b45"/>
        </g>
      </g>
      <g id="Grupo_26053" data-name="Grupo 26053" transform="translate(16.872 19.776)">
        <g id="Grupo_26052" data-name="Grupo 26052">
          <path id="Trazado_20184" data-name="Trazado 20184" d="M200.228,229.7a.665.665,0,0,0-.785.519,2.892,2.892,0,1,1-3.494-3.4.666.666,0,0,0-.3-1.3,4.223,4.223,0,1,0,5.1,4.962A.666.666,0,0,0,200.228,229.7Z" transform="translate(-192.387 -225.501)" fill="#002b45"/>
        </g>
      </g>
      <g id="Grupo_26055" data-name="Grupo 26055" transform="translate(20.194 0)">
        <g id="Grupo_26054" data-name="Grupo 26054">
          <path id="Trazado_20185" data-name="Trazado 20185" d="M257.223,3.968a.666.666,0,0,0-.615-.411h-2.891V.666A.666.666,0,0,0,252.581.2l-7.114,7.114a.665.665,0,0,0-.195.471v3.281l-4.722,4.722a2.1,2.1,0,0,0-2.406.393l-3.018,3.018a2.091,2.091,0,0,0-.392,2.4l-2.072,2.072a.666.666,0,1,0,.941.941l2.072-2.072a2.087,2.087,0,0,0,2.4-.392l3.018-3.018a2.1,2.1,0,0,0,.393-2.406L246.213,12h3.281a.665.665,0,0,0,.471-.195l7.114-7.114A.665.665,0,0,0,257.223,3.968Zm-17.066,14.22-3.018,3.018a.757.757,0,1,1-1.071-1.071l3.018-3.018a.757.757,0,0,1,1.071,1.071Zm9.062-7.517h-1.674l4.2-4.2a.666.666,0,1,0-.941-.941l-4.2,4.2V8.055l5.783-5.783v1.95a.666.666,0,0,0,.666.666H255Z" transform="translate(-232.467 0)" fill="#002b45"/>
        </g>
      </g>
      <g id="Grupo_26057" data-name="Grupo 26057" transform="translate(4.268 6.678)">
        <g id="Grupo_26056" data-name="Grupo 26056">
          <path id="Trazado_20186" data-name="Trazado 20186" d="M79.155,87.541a.666.666,0,1,0-1.1.755,15.694,15.694,0,1,1-3.876-3.927.666.666,0,1,0,.769-1.086,17.022,17.022,0,1,0,4.2,4.258Z" transform="translate(-48.096 -80.162)" fill="#002b45"/>
        </g>
      </g>
      <g id="Grupo_26059" data-name="Grupo 26059" transform="translate(8.35 11.133)">
        <g id="Grupo_26058" data-name="Grupo 26058">
          <path id="Trazado_20187" data-name="Trazado 20187" d="M119.968,134.576a.666.666,0,1,0-1.149.673,11.421,11.421,0,1,1-4.284-4.2.666.666,0,1,0,.651-1.161,12.755,12.755,0,1,0,4.781,4.693Z" transform="translate(-96.194 -128.259)" fill="#002b45"/>
        </g>
      </g>
      <g id="Grupo_26061" data-name="Grupo 26061" transform="translate(12.608 15.41)">
        <g id="Grupo_26060" data-name="Grupo 26060">
          <path id="Trazado_20188" data-name="Trazado 20188" d="M161.08,183.041a.666.666,0,0,0-1.3.282,7.15,7.15,0,1,1-5.5-5.479.666.666,0,0,0,.277-1.3,8.482,8.482,0,1,0,6.522,6.5Z" transform="translate(-144.291 -176.356)" fill="#002b45"/>
        </g>
      </g>
    </g>
    <g id="_015-target-1-2" data-name="015-target-1" transform="translate(639.92 10907)">
      <g id="Grupo_26051-2" data-name="Grupo 26051" transform="translate(0 2.845)">
        <g id="Grupo_26050-2" data-name="Grupo 26050">
          <path id="Trazado_20183-2" data-name="Trazado 20183" d="M39.289,42.524a.659.659,0,0,0-1.138.665,19.75,19.75,0,1,1-7.226-7.182.659.659,0,0,0,.658-1.142,21.069,21.069,0,1,0,7.706,7.659Z" transform="translate(0 -32.064)" fill="#002b45"/>
        </g>
      </g>
      <g id="Grupo_26053-2" data-name="Grupo 26053" transform="translate(16.872 19.776)">
        <g id="Grupo_26052-2" data-name="Grupo 26052">
          <path id="Trazado_20184-2" data-name="Trazado 20184" d="M200.228,229.7a.665.665,0,0,0-.785.519,2.892,2.892,0,1,1-3.494-3.4.666.666,0,0,0-.3-1.3,4.223,4.223,0,1,0,5.1,4.962A.666.666,0,0,0,200.228,229.7Z" transform="translate(-192.387 -225.501)" fill="#002b45"/>
        </g>
      </g>
      <g id="Grupo_26055-2" data-name="Grupo 26055" transform="translate(20.194 0)">
        <g id="Grupo_26054-2" data-name="Grupo 26054">
          <path id="Trazado_20185-2" data-name="Trazado 20185" d="M257.223,3.968a.666.666,0,0,0-.615-.411h-2.891V.666A.666.666,0,0,0,252.581.2l-7.114,7.114a.665.665,0,0,0-.195.471v3.281l-4.722,4.722a2.1,2.1,0,0,0-2.406.393l-3.018,3.018a2.091,2.091,0,0,0-.392,2.4l-2.072,2.072a.666.666,0,1,0,.941.941l2.072-2.072a2.087,2.087,0,0,0,2.4-.392l3.018-3.018a2.1,2.1,0,0,0,.393-2.406L246.213,12h3.281a.665.665,0,0,0,.471-.195l7.114-7.114A.665.665,0,0,0,257.223,3.968Zm-17.066,14.22-3.018,3.018a.757.757,0,1,1-1.071-1.071l3.018-3.018a.757.757,0,0,1,1.071,1.071Zm9.062-7.517h-1.674l4.2-4.2a.666.666,0,1,0-.941-.941l-4.2,4.2V8.055l5.783-5.783v1.95a.666.666,0,0,0,.666.666H255Z" transform="translate(-232.467 0)" fill="#002b45"/>
        </g>
      </g>
      <g id="Grupo_26057-2" data-name="Grupo 26057" transform="translate(4.268 6.678)">
        <g id="Grupo_26056-2" data-name="Grupo 26056">
          <path id="Trazado_20186-2" data-name="Trazado 20186" d="M79.155,87.541a.666.666,0,1,0-1.1.755,15.694,15.694,0,1,1-3.876-3.927.666.666,0,1,0,.769-1.086,17.022,17.022,0,1,0,4.2,4.258Z" transform="translate(-48.096 -80.162)" fill="#002b45"/>
        </g>
      </g>
      <g id="Grupo_26059-2" data-name="Grupo 26059" transform="translate(8.35 11.133)">
        <g id="Grupo_26058-2" data-name="Grupo 26058">
          <path id="Trazado_20187-2" data-name="Trazado 20187" d="M119.968,134.576a.666.666,0,1,0-1.149.673,11.421,11.421,0,1,1-4.284-4.2.666.666,0,1,0,.651-1.161,12.755,12.755,0,1,0,4.781,4.693Z" transform="translate(-96.194 -128.259)" fill="#002b45"/>
        </g>
      </g>
      <g id="Grupo_26061-2" data-name="Grupo 26061" transform="translate(12.608 15.41)">
        <g id="Grupo_26060-2" data-name="Grupo 26060">
          <path id="Trazado_20188-2" data-name="Trazado 20188" d="M161.08,183.041a.666.666,0,0,0-1.3.282,7.15,7.15,0,1,1-5.5-5.479.666.666,0,0,0,.277-1.3,8.482,8.482,0,1,0,6.522,6.5Z" transform="translate(-144.291 -176.356)" fill="#002b45"/>
        </g>
      </g>
    </g>
    <g id="_015-target-1-3" data-name="015-target-1" transform="translate(639.92 11012)">
      <g id="Grupo_26051-3" data-name="Grupo 26051" transform="translate(0 2.845)">
        <g id="Grupo_26050-3" data-name="Grupo 26050">
          <path id="Trazado_20183-3" data-name="Trazado 20183" d="M39.289,42.524a.659.659,0,0,0-1.138.665,19.75,19.75,0,1,1-7.226-7.182.659.659,0,0,0,.658-1.142,21.069,21.069,0,1,0,7.706,7.659Z" transform="translate(0 -32.064)" fill="#002b45"/>
        </g>
      </g>
      <g id="Grupo_26053-3" data-name="Grupo 26053" transform="translate(16.872 19.776)">
        <g id="Grupo_26052-3" data-name="Grupo 26052">
          <path id="Trazado_20184-3" data-name="Trazado 20184" d="M200.228,229.7a.665.665,0,0,0-.785.519,2.892,2.892,0,1,1-3.494-3.4.666.666,0,0,0-.3-1.3,4.223,4.223,0,1,0,5.1,4.962A.666.666,0,0,0,200.228,229.7Z" transform="translate(-192.387 -225.501)" fill="#002b45"/>
        </g>
      </g>
      <g id="Grupo_26055-3" data-name="Grupo 26055" transform="translate(20.194 0)">
        <g id="Grupo_26054-3" data-name="Grupo 26054">
          <path id="Trazado_20185-3" data-name="Trazado 20185" d="M257.223,3.968a.666.666,0,0,0-.615-.411h-2.891V.666A.666.666,0,0,0,252.581.2l-7.114,7.114a.665.665,0,0,0-.195.471v3.281l-4.722,4.722a2.1,2.1,0,0,0-2.406.393l-3.018,3.018a2.091,2.091,0,0,0-.392,2.4l-2.072,2.072a.666.666,0,1,0,.941.941l2.072-2.072a2.087,2.087,0,0,0,2.4-.392l3.018-3.018a2.1,2.1,0,0,0,.393-2.406L246.213,12h3.281a.665.665,0,0,0,.471-.195l7.114-7.114A.665.665,0,0,0,257.223,3.968Zm-17.066,14.22-3.018,3.018a.757.757,0,1,1-1.071-1.071l3.018-3.018a.757.757,0,0,1,1.071,1.071Zm9.062-7.517h-1.674l4.2-4.2a.666.666,0,1,0-.941-.941l-4.2,4.2V8.055l5.783-5.783v1.95a.666.666,0,0,0,.666.666H255Z" transform="translate(-232.467 0)" fill="#002b45"/>
        </g>
      </g>
      <g id="Grupo_26057-3" data-name="Grupo 26057" transform="translate(4.268 6.678)">
        <g id="Grupo_26056-3" data-name="Grupo 26056">
          <path id="Trazado_20186-3" data-name="Trazado 20186" d="M79.155,87.541a.666.666,0,1,0-1.1.755,15.694,15.694,0,1,1-3.876-3.927.666.666,0,1,0,.769-1.086,17.022,17.022,0,1,0,4.2,4.258Z" transform="translate(-48.096 -80.162)" fill="#002b45"/>
        </g>
      </g>
      <g id="Grupo_26059-3" data-name="Grupo 26059" transform="translate(8.35 11.133)">
        <g id="Grupo_26058-3" data-name="Grupo 26058">
          <path id="Trazado_20187-3" data-name="Trazado 20187" d="M119.968,134.576a.666.666,0,1,0-1.149.673,11.421,11.421,0,1,1-4.284-4.2.666.666,0,1,0,.651-1.161,12.755,12.755,0,1,0,4.781,4.693Z" transform="translate(-96.194 -128.259)" fill="#002b45"/>
        </g>
      </g>
      <g id="Grupo_26061-3" data-name="Grupo 26061" transform="translate(12.608 15.41)">
        <g id="Grupo_26060-3" data-name="Grupo 26060">
          <path id="Trazado_20188-3" data-name="Trazado 20188" d="M161.08,183.041a.666.666,0,0,0-1.3.282,7.15,7.15,0,1,1-5.5-5.479.666.666,0,0,0,.277-1.3,8.482,8.482,0,1,0,6.522,6.5Z" transform="translate(-144.291 -176.356)" fill="#002b45"/>
        </g>
      </g>
    </g>
    <g id="Grupo_26506" data-name="Grupo 26506">
      <g id="Grupo_26051-4" data-name="Grupo 26051" transform="translate(639.92 11121.145)">
        <g id="Grupo_26050-4" data-name="Grupo 26050">
          <path id="Trazado_20183-4" data-name="Trazado 20183" d="M39.289,42.524a.659.659,0,0,0-1.138.665,19.75,19.75,0,1,1-7.226-7.182.659.659,0,0,0,.658-1.142,21.069,21.069,0,1,0,7.706,7.659Z" transform="translate(0 -32.064)" fill="#002b45"/>
        </g>
      </g>
      <g id="Grupo_26053-4" data-name="Grupo 26053" transform="translate(656.792 11138.075)">
        <g id="Grupo_26052-4" data-name="Grupo 26052">
          <path id="Trazado_20184-4" data-name="Trazado 20184" d="M200.228,229.7a.665.665,0,0,0-.785.519,2.892,2.892,0,1,1-3.494-3.4.666.666,0,0,0-.3-1.3,4.223,4.223,0,1,0,5.1,4.962A.666.666,0,0,0,200.228,229.7Z" transform="translate(-192.387 -225.501)" fill="#002b45"/>
        </g>
      </g>
      <g id="Grupo_26055-4" data-name="Grupo 26055" transform="translate(660.114 11118.299)">
        <g id="Grupo_26054-4" data-name="Grupo 26054">
          <path id="Trazado_20185-4" data-name="Trazado 20185" d="M257.223,3.968a.666.666,0,0,0-.615-.411h-2.891V.666A.666.666,0,0,0,252.581.2l-7.114,7.114a.665.665,0,0,0-.195.471v3.281l-4.722,4.722a2.1,2.1,0,0,0-2.406.393l-3.018,3.018a2.091,2.091,0,0,0-.392,2.4l-2.072,2.072a.666.666,0,1,0,.941.941l2.072-2.072a2.087,2.087,0,0,0,2.4-.392l3.018-3.018a2.1,2.1,0,0,0,.393-2.406L246.213,12h3.281a.665.665,0,0,0,.471-.195l7.114-7.114A.665.665,0,0,0,257.223,3.968Zm-17.066,14.22-3.018,3.018a.757.757,0,1,1-1.071-1.071l3.018-3.018a.757.757,0,0,1,1.071,1.071Zm9.062-7.517h-1.674l4.2-4.2a.666.666,0,1,0-.941-.941l-4.2,4.2V8.055l5.783-5.783v1.95a.666.666,0,0,0,.666.666H255Z" transform="translate(-232.467 0)" fill="#002b45"/>
        </g>
      </g>
      <g id="Grupo_26057-4" data-name="Grupo 26057" transform="translate(644.188 11124.977)">
        <g id="Grupo_26056-4" data-name="Grupo 26056">
          <path id="Trazado_20186-4" data-name="Trazado 20186" d="M79.155,87.541a.666.666,0,1,0-1.1.755,15.694,15.694,0,1,1-3.876-3.927.666.666,0,1,0,.769-1.086,17.022,17.022,0,1,0,4.2,4.258Z" transform="translate(-48.096 -80.162)" fill="#002b45"/>
        </g>
      </g>
      <g id="Grupo_26059-4" data-name="Grupo 26059" transform="translate(648.27 11129.432)">
        <g id="Grupo_26058-4" data-name="Grupo 26058">
          <path id="Trazado_20187-4" data-name="Trazado 20187" d="M119.968,134.576a.666.666,0,1,0-1.149.673,11.421,11.421,0,1,1-4.284-4.2.666.666,0,1,0,.651-1.161,12.755,12.755,0,1,0,4.781,4.693Z" transform="translate(-96.194 -128.259)" fill="#002b45"/>
        </g>
      </g>
      <g id="Grupo_26061-4" data-name="Grupo 26061" transform="translate(652.529 11133.709)">
        <g id="Grupo_26060-4" data-name="Grupo 26060">
          <path id="Trazado_20188-4" data-name="Trazado 20188" d="M161.08,183.041a.666.666,0,0,0-1.3.282,7.15,7.15,0,1,1-5.5-5.479.666.666,0,0,0,.277-1.3,8.482,8.482,0,1,0,6.522,6.5Z" transform="translate(-144.291 -176.356)" fill="#002b45"/>
        </g>
      </g>
    </g>
    <g id="_015-target-1-4" data-name="015-target-1" transform="translate(639.92 10697)">
      <g id="Grupo_26051-5" data-name="Grupo 26051" transform="translate(0 2.845)">
        <g id="Grupo_26050-5" data-name="Grupo 26050">
          <path id="Trazado_20183-5" data-name="Trazado 20183" d="M39.289,42.524a.659.659,0,0,0-1.138.665,19.75,19.75,0,1,1-7.226-7.182.659.659,0,0,0,.658-1.142,21.069,21.069,0,1,0,7.706,7.659Z" transform="translate(0 -32.064)" fill="#002b45"/>
        </g>
      </g>
      <g id="Grupo_26053-5" data-name="Grupo 26053" transform="translate(16.872 19.776)">
        <g id="Grupo_26052-5" data-name="Grupo 26052">
          <path id="Trazado_20184-5" data-name="Trazado 20184" d="M200.228,229.7a.665.665,0,0,0-.785.519,2.892,2.892,0,1,1-3.494-3.4.666.666,0,0,0-.3-1.3,4.223,4.223,0,1,0,5.1,4.962A.666.666,0,0,0,200.228,229.7Z" transform="translate(-192.387 -225.501)" fill="#002b45"/>
        </g>
      </g>
      <g id="Grupo_26055-5" data-name="Grupo 26055" transform="translate(20.194 0)">
        <g id="Grupo_26054-5" data-name="Grupo 26054">
          <path id="Trazado_20185-5" data-name="Trazado 20185" d="M257.223,3.968a.666.666,0,0,0-.615-.411h-2.891V.666A.666.666,0,0,0,252.581.2l-7.114,7.114a.665.665,0,0,0-.195.471v3.281l-4.722,4.722a2.1,2.1,0,0,0-2.406.393l-3.018,3.018a2.091,2.091,0,0,0-.392,2.4l-2.072,2.072a.666.666,0,1,0,.941.941l2.072-2.072a2.087,2.087,0,0,0,2.4-.392l3.018-3.018a2.1,2.1,0,0,0,.393-2.406L246.213,12h3.281a.665.665,0,0,0,.471-.195l7.114-7.114A.665.665,0,0,0,257.223,3.968Zm-17.066,14.22-3.018,3.018a.757.757,0,1,1-1.071-1.071l3.018-3.018a.757.757,0,0,1,1.071,1.071Zm9.062-7.517h-1.674l4.2-4.2a.666.666,0,1,0-.941-.941l-4.2,4.2V8.055l5.783-5.783v1.95a.666.666,0,0,0,.666.666H255Z" transform="translate(-232.467 0)" fill="#002b45"/>
        </g>
      </g>
      <g id="Grupo_26057-5" data-name="Grupo 26057" transform="translate(4.268 6.678)">
        <g id="Grupo_26056-5" data-name="Grupo 26056">
          <path id="Trazado_20186-5" data-name="Trazado 20186" d="M79.155,87.541a.666.666,0,1,0-1.1.755,15.694,15.694,0,1,1-3.876-3.927.666.666,0,1,0,.769-1.086,17.022,17.022,0,1,0,4.2,4.258Z" transform="translate(-48.096 -80.162)" fill="#002b45"/>
        </g>
      </g>
      <g id="Grupo_26059-5" data-name="Grupo 26059" transform="translate(8.35 11.133)">
        <g id="Grupo_26058-5" data-name="Grupo 26058">
          <path id="Trazado_20187-5" data-name="Trazado 20187" d="M119.968,134.576a.666.666,0,1,0-1.149.673,11.421,11.421,0,1,1-4.284-4.2.666.666,0,1,0,.651-1.161,12.755,12.755,0,1,0,4.781,4.693Z" transform="translate(-96.194 -128.259)" fill="#002b45"/>
        </g>
      </g>
      <g id="Grupo_26061-5" data-name="Grupo 26061" transform="translate(12.608 15.41)">
        <g id="Grupo_26060-5" data-name="Grupo 26060">
          <path id="Trazado_20188-5" data-name="Trazado 20188" d="M161.08,183.041a.666.666,0,0,0-1.3.282,7.15,7.15,0,1,1-5.5-5.479.666.666,0,0,0,.277-1.3,8.482,8.482,0,1,0,6.522,6.5Z" transform="translate(-144.291 -176.356)" fill="#002b45"/>
        </g>
      </g>
    </g>
    <g id="_015-target-1-5" data-name="015-target-1" transform="translate(639.92 10802)">
      <g id="Grupo_26051-6" data-name="Grupo 26051" transform="translate(0 2.845)">
        <g id="Grupo_26050-6" data-name="Grupo 26050">
          <path id="Trazado_20183-6" data-name="Trazado 20183" d="M39.289,42.524a.659.659,0,0,0-1.138.665,19.75,19.75,0,1,1-7.226-7.182.659.659,0,0,0,.658-1.142,21.069,21.069,0,1,0,7.706,7.659Z" transform="translate(0 -32.064)" fill="#002b45"/>
        </g>
      </g>
      <g id="Grupo_26053-6" data-name="Grupo 26053" transform="translate(16.872 19.776)">
        <g id="Grupo_26052-6" data-name="Grupo 26052">
          <path id="Trazado_20184-6" data-name="Trazado 20184" d="M200.228,229.7a.665.665,0,0,0-.785.519,2.892,2.892,0,1,1-3.494-3.4.666.666,0,0,0-.3-1.3,4.223,4.223,0,1,0,5.1,4.962A.666.666,0,0,0,200.228,229.7Z" transform="translate(-192.387 -225.501)" fill="#002b45"/>
        </g>
      </g>
      <g id="Grupo_26055-6" data-name="Grupo 26055" transform="translate(20.194 0)">
        <g id="Grupo_26054-6" data-name="Grupo 26054">
          <path id="Trazado_20185-6" data-name="Trazado 20185" d="M257.223,3.968a.666.666,0,0,0-.615-.411h-2.891V.666A.666.666,0,0,0,252.581.2l-7.114,7.114a.665.665,0,0,0-.195.471v3.281l-4.722,4.722a2.1,2.1,0,0,0-2.406.393l-3.018,3.018a2.091,2.091,0,0,0-.392,2.4l-2.072,2.072a.666.666,0,1,0,.941.941l2.072-2.072a2.087,2.087,0,0,0,2.4-.392l3.018-3.018a2.1,2.1,0,0,0,.393-2.406L246.213,12h3.281a.665.665,0,0,0,.471-.195l7.114-7.114A.665.665,0,0,0,257.223,3.968Zm-17.066,14.22-3.018,3.018a.757.757,0,1,1-1.071-1.071l3.018-3.018a.757.757,0,0,1,1.071,1.071Zm9.062-7.517h-1.674l4.2-4.2a.666.666,0,1,0-.941-.941l-4.2,4.2V8.055l5.783-5.783v1.95a.666.666,0,0,0,.666.666H255Z" transform="translate(-232.467 0)" fill="#002b45"/>
        </g>
      </g>
      <g id="Grupo_26057-6" data-name="Grupo 26057" transform="translate(4.268 6.678)">
        <g id="Grupo_26056-6" data-name="Grupo 26056">
          <path id="Trazado_20186-6" data-name="Trazado 20186" d="M79.155,87.541a.666.666,0,1,0-1.1.755,15.694,15.694,0,1,1-3.876-3.927.666.666,0,1,0,.769-1.086,17.022,17.022,0,1,0,4.2,4.258Z" transform="translate(-48.096 -80.162)" fill="#002b45"/>
        </g>
      </g>
      <g id="Grupo_26059-6" data-name="Grupo 26059" transform="translate(8.35 11.133)">
        <g id="Grupo_26058-6" data-name="Grupo 26058">
          <path id="Trazado_20187-6" data-name="Trazado 20187" d="M119.968,134.576a.666.666,0,1,0-1.149.673,11.421,11.421,0,1,1-4.284-4.2.666.666,0,1,0,.651-1.161,12.755,12.755,0,1,0,4.781,4.693Z" transform="translate(-96.194 -128.259)" fill="#002b45"/>
        </g>
      </g>
      <g id="Grupo_26061-6" data-name="Grupo 26061" transform="translate(12.608 15.41)">
        <g id="Grupo_26060-6" data-name="Grupo 26060">
          <path id="Trazado_20188-6" data-name="Trazado 20188" d="M161.08,183.041a.666.666,0,0,0-1.3.282,7.15,7.15,0,1,1-5.5-5.479.666.666,0,0,0,.277-1.3,8.482,8.482,0,1,0,6.522,6.5Z" transform="translate(-144.291 -176.356)" fill="#002b45"/>
        </g>
      </g>
    </g>
  </g>
</svg>
