<svg xmlns="http://www.w3.org/2000/svg" width="732" height="236.001" viewBox="0 0 732 236.001">
  <g id="Grupo_26512" data-name="Grupo 26512" transform="translate(-334 -7385)">
    <path id="Trazado_20963" data-name="Trazado 20963" d="M-40.659-14.219l3.652,10.313,3.633-10.312h3.848V0h-2.939V-3.887l.293-6.709L-36.011,0h-2.012l-3.828-10.586.293,6.7V0h-2.93V-14.219ZM-21.03,0a3.134,3.134,0,0,1-.283-.947A3.415,3.415,0,0,1-23.979.2a3.752,3.752,0,0,1-2.573-.9,2.89,2.89,0,0,1-1.021-2.266,2.986,2.986,0,0,1,1.245-2.578,6.144,6.144,0,0,1,3.6-.908h1.3v-.605a1.741,1.741,0,0,0-.376-1.172,1.479,1.479,0,0,0-1.187-.439,1.682,1.682,0,0,0-1.118.342,1.161,1.161,0,0,0-.405.938h-2.822a2.835,2.835,0,0,1,.566-1.7,3.744,3.744,0,0,1,1.6-1.226,5.837,5.837,0,0,1,2.324-.444,4.611,4.611,0,0,1,3.1.981A3.433,3.433,0,0,1-18.6-7.021v4.58a5.052,5.052,0,0,0,.42,2.275V0Zm-2.334-1.963a2.431,2.431,0,0,0,1.152-.278,1.828,1.828,0,0,0,.781-.747V-4.8h-1.055q-2.119,0-2.256,1.465l-.01.166a1.13,1.13,0,0,0,.371.869A1.441,1.441,0,0,0-23.364-1.963ZM-10.493-7.92A7.667,7.667,0,0,0-11.509-8a2.067,2.067,0,0,0-2.1,1.084V0h-2.822V-10.566h2.666l.078,1.26a2.615,2.615,0,0,1,2.354-1.455,2.957,2.957,0,0,1,.879.127Zm5.2,3.682L-6.313-3.223V0H-9.136V-15h2.822v8.311l.547-.7,2.705-3.174H.327l-3.818,4.4L.659,0H-2.583ZM6.216.2A5.187,5.187,0,0,1,2.432-1.23a5.068,5.068,0,0,1-1.46-3.8V-5.3a6.383,6.383,0,0,1,.615-2.847A4.515,4.515,0,0,1,3.33-10.083,4.893,4.893,0,0,1,5.9-10.762,4.385,4.385,0,0,1,9.316-9.395a5.555,5.555,0,0,1,1.245,3.877v1.152H3.833a2.622,2.622,0,0,0,.825,1.66A2.5,2.5,0,0,0,6.4-2.08,3.046,3.046,0,0,0,8.95-3.262l1.387,1.553a4.237,4.237,0,0,1-1.719,1.4A5.639,5.639,0,0,1,6.216.2ZM5.894-8.486a1.764,1.764,0,0,0-1.362.569,2.946,2.946,0,0,0-.669,1.628H7.788v-.226A2.1,2.1,0,0,0,7.28-7.971,1.819,1.819,0,0,0,5.894-8.486Zm9.648-4.678v2.6h1.807V-8.5H15.542v5.273a1.259,1.259,0,0,0,.225.84,1.128,1.128,0,0,0,.859.254,4.5,4.5,0,0,0,.83-.068V-.059A5.81,5.81,0,0,1,15.747.2q-2.969,0-3.027-3V-8.5H11.177v-2.07H12.72v-2.6ZM21.9,0H19.067V-10.566H21.9Zm-3-13.3a1.39,1.39,0,0,1,.425-1.045,1.6,1.6,0,0,1,1.157-.41,1.6,1.6,0,0,1,1.152.41,1.382,1.382,0,0,1,.43,1.045,1.386,1.386,0,0,1-.435,1.055,1.6,1.6,0,0,1-1.147.41,1.6,1.6,0,0,1-1.147-.41A1.386,1.386,0,0,1,18.9-13.3Zm7.92,2.734.088,1.221a3.689,3.689,0,0,1,3.037-1.416,3.066,3.066,0,0,1,2.5.986,4.6,4.6,0,0,1,.84,2.949V0H30.464V-6.773a1.838,1.838,0,0,0-.391-1.307,1.746,1.746,0,0,0-1.3-.406,1.941,1.941,0,0,0-1.787,1.018V0H24.165V-10.566Zm8.193,5.205a6.193,6.193,0,0,1,1.157-3.916,3.75,3.75,0,0,1,3.12-1.484A3.289,3.289,0,0,1,42-9.57l.117-1h2.559V-.352a4.516,4.516,0,0,1-.63,2.412,4.045,4.045,0,0,1-1.772,1.563,6.231,6.231,0,0,1-2.676.537A5.794,5.794,0,0,1,37.329,3.7a4.021,4.021,0,0,1-1.67-1.2L36.909.781a3.306,3.306,0,0,0,2.559,1.182,2.42,2.42,0,0,0,1.748-.6,2.253,2.253,0,0,0,.625-1.7V-.908A3.264,3.264,0,0,1,39.272.2a3.74,3.74,0,0,1-3.081-1.489,6.191,6.191,0,0,1-1.177-3.95Zm2.822.2A3.877,3.877,0,0,0,38.413-2.9,1.831,1.831,0,0,0,40-2.08a1.958,1.958,0,0,0,1.846-.971V-7.515a1.954,1.954,0,0,0-1.826-.971,1.843,1.843,0,0,0-1.6.834A4.37,4.37,0,0,0,37.837-5.161Z" transform="translate(696 7575)" fill="#002b45"/>
    <g id="Sustracción_1" data-name="Sustracción 1" transform="translate(4589 729)" fill="none">
      <path d="M-3808.13,6892h-169.739a98.5,98.5,0,0,1-10.429-24.09A99.206,99.206,0,0,1-3992,6841a98.381,98.381,0,0,1,7.78-38.536,98.984,98.984,0,0,1,9.128-16.816A99.7,99.7,0,0,1-3963,6771a99.71,99.71,0,0,1,14.652-12.089,98.98,98.98,0,0,1,16.816-9.127A98.386,98.386,0,0,1-3893,6742a98.393,98.393,0,0,1,38.536,7.78,99,99,0,0,1,16.816,9.127A99.719,99.719,0,0,1-3823,6771a99.7,99.7,0,0,1,12.089,14.652,98.984,98.984,0,0,1,9.128,16.816A98.381,98.381,0,0,1-3794,6841a99.2,99.2,0,0,1-3.7,26.91A98.5,98.5,0,0,1-3808.13,6892Z" stroke="none"/>
      <path d="M -3809.8427734375 6889.00048828125 C -3805.85498046875 6882.10693359375 -3802.74462890625 6874.74609375 -3800.5888671875 6867.0966796875 C -3798.207763671875 6858.64697265625 -3797.000244140625 6849.86669921875 -3797.000244140625 6841.00048828125 C -3797.000244140625 6828.03857421875 -3799.5380859375 6815.466796875 -3804.54296875 6803.63330078125 C -3806.948974609375 6797.94482421875 -3809.9267578125 6792.458984375 -3813.3935546875 6787.32763671875 C -3816.828125 6782.24365234375 -3820.772705078125 6777.462890625 -3825.11767578125 6773.11767578125 C -3829.462158203125 6768.7734375 -3834.2431640625 6764.82861328125 -3839.32763671875 6761.3935546875 C -3844.460693359375 6757.92578125 -3849.946533203125 6754.9482421875 -3855.633056640625 6752.54345703125 C -3867.4677734375 6747.5380859375 -3880.0400390625 6745.00048828125 -3893.000732421875 6745.00048828125 C -3905.9609375 6745.00048828125 -3918.532958984375 6747.5380859375 -3930.366943359375 6752.54345703125 C -3936.0556640625 6754.94921875 -3941.541748046875 6757.92724609375 -3946.67236328125 6761.3935546875 C -3951.755859375 6764.82763671875 -3956.53662109375 6768.7724609375 -3960.882080078125 6773.11767578125 C -3965.2265625 6777.46240234375 -3969.1708984375 6782.2431640625 -3972.60595703125 6787.328125 C -3976.07275390625 6792.458984375 -3979.050537109375 6797.94482421875 -3981.45654296875 6803.63330078125 C -3986.46142578125 6815.466796875 -3988.999267578125 6828.03857421875 -3988.999267578125 6841.00048828125 C -3988.999267578125 6849.86572265625 -3987.791748046875 6858.64599609375 -3985.41064453125 6867.0966796875 C -3983.255126953125 6874.74560546875 -3980.144775390625 6882.1064453125 -3976.15673828125 6889.00048828125 L -3809.8427734375 6889.00048828125 M -3808.13037109375 6892.0009765625 L -3808.130126953125 6892.00048828125 L -3977.869384765625 6892.00048828125 C -3982.409423828125 6884.46142578125 -3985.91796875 6876.3564453125 -3988.298095703125 6867.91064453125 C -3990.75390625 6859.1953125 -3991.999267578125 6850.1416015625 -3991.999267578125 6841.00048828125 C -3991.999267578125 6827.63525390625 -3989.3818359375 6814.669921875 -3984.219482421875 6802.46484375 C -3981.73876953125 6796.599609375 -3978.66796875 6790.94140625 -3975.091796875 6785.6484375 C -3971.550048828125 6780.40576171875 -3967.48291015625 6775.47607421875 -3963.00341796875 6770.99658203125 C -3958.52294921875 6766.51611328125 -3953.59326171875 6762.44873046875 -3948.351806640625 6758.90771484375 C -3943.060302734375 6755.33251953125 -3937.402587890625 6752.26171875 -3931.53564453125 6749.7802734375 C -3919.330078125 6744.6181640625 -3906.365234375 6742.00048828125 -3893.000732421875 6742.00048828125 C -3879.635986328125 6742.00048828125 -3866.670654296875 6744.6181640625 -3854.464599609375 6749.7802734375 C -3848.598388671875 6752.26123046875 -3842.9404296875 6755.33251953125 -3837.648193359375 6758.90771484375 C -3832.406982421875 6762.44873046875 -3827.477294921875 6766.515625 -3822.996337890625 6770.99658203125 C -3818.516845703125 6775.47607421875 -3814.449462890625 6780.40576171875 -3810.90771484375 6785.6484375 C -3807.33154296875 6790.94140625 -3804.2607421875 6796.599609375 -3801.780029296875 6802.46484375 C -3796.61767578125 6814.669921875 -3794.000244140625 6827.63525390625 -3794.000244140625 6841.00048828125 C -3794.000244140625 6850.14111328125 -3795.245361328125 6859.1953125 -3797.701416015625 6867.91064453125 C -3800.081787109375 6876.35693359375 -3803.59033203125 6884.4619140625 -3808.130126953125 6892.00048828125 L -3808.13037109375 6892.0009765625 Z" stroke="none" fill="#eef0f2"/>
    </g>
    <line id="Línea_198" data-name="Línea 198" x1="41" y1="19" transform="translate(578 7483)" fill="none" stroke="#eef0f2" stroke-width="3"/>
    <line id="Línea_208" data-name="Línea 208" y1="19" x2="41" transform="translate(774 7483)" fill="none" stroke="#eef0f2" stroke-width="3"/>
    <line id="Línea_199" data-name="Línea 199" x1="47" transform="translate(552 7569)" fill="none" stroke="#eef0f2" stroke-width="3"/>
    <line id="Línea_206" data-name="Línea 206" x2="47" transform="translate(797 7569)" fill="none" stroke="#eef0f2" stroke-width="3"/>
    <circle id="Elipse_886" data-name="Elipse 886" cx="5" cy="5" r="5" transform="translate(764 7499)" fill="#ff8f00"/>
    <circle id="Elipse_882" data-name="Elipse 882" cx="5" cy="5" r="5" transform="translate(619 7499)" fill="#ff8f00"/>
    <circle id="Elipse_877" data-name="Elipse 877" cx="5" cy="5" r="5" transform="translate(594 7564)" fill="#ff8f00"/>
    <circle id="Elipse_884" data-name="Elipse 884" cx="5" cy="5" r="5" transform="translate(789 7564)" fill="#ff8f00"/>
    <rect id="Rectángulo_3670" data-name="Rectángulo 3670" width="223" height="40" rx="20" transform="translate(361 7454)" fill="#ff8f00"/>
    <rect id="Rectángulo_3673" data-name="Rectángulo 3673" width="223" height="40" rx="20" transform="translate(812 7454)" fill="#ff8f00"/>
    <rect id="Rectángulo_3671" data-name="Rectángulo 3671" width="223" height="40" rx="20" transform="translate(334 7549)" fill="#ff8f00"/>
    <rect id="Rectángulo_3674" data-name="Rectángulo 3674" width="223" height="40" rx="20" transform="translate(843 7549)" fill="#ff8f00"/>
    <path id="Trazado_20960" data-name="Trazado 20960" d="M-47.246-4.509V0h-2.637V-12.8h4.992a5.776,5.776,0,0,1,2.536.527,3.886,3.886,0,0,1,1.683,1.5,4.178,4.178,0,0,1,.589,2.21A3.674,3.674,0,0,1-41.37-5.594a5.363,5.363,0,0,1-3.564,1.085Zm0-2.136h2.355a2.316,2.316,0,0,0,1.6-.492,1.79,1.79,0,0,0,.549-1.406,2.111,2.111,0,0,0-.554-1.521,2.068,2.068,0,0,0-1.529-.6h-2.417Zm14.15-.483a6.9,6.9,0,0,0-.914-.07,1.86,1.86,0,0,0-1.89.976V0h-2.54V-9.51h2.4l.07,1.134a2.354,2.354,0,0,1,2.118-1.31,2.662,2.662,0,0,1,.791.114Zm.51,2.285a5.64,5.64,0,0,1,.545-2.522,3.989,3.989,0,0,1,1.569-1.714,4.577,4.577,0,0,1,2.377-.606,4.33,4.33,0,0,1,3.142,1.178,4.727,4.727,0,0,1,1.358,3.2l.018.65A4.97,4.97,0,0,1-24.8-1.147,4.247,4.247,0,0,1-28.077.176a4.268,4.268,0,0,1-3.283-1.318,5.058,5.058,0,0,1-1.226-3.586Zm2.54.18a3.555,3.555,0,0,0,.51,2.073,1.682,1.682,0,0,0,1.459.717,1.686,1.686,0,0,0,1.441-.709,3.89,3.89,0,0,0,.519-2.267,3.519,3.519,0,0,0-.519-2.06,1.686,1.686,0,0,0-1.459-.731,1.658,1.658,0,0,0-1.441.726A3.955,3.955,0,0,0-30.045-4.662ZM-18.584-3.1l1.767-6.407h2.654L-17.372,0H-19.8l-3.208-9.51h2.654Zm9.8,3.278A4.668,4.668,0,0,1-12.19-1.107,4.561,4.561,0,0,1-13.5-4.526v-.246a5.745,5.745,0,0,1,.554-2.562,4.064,4.064,0,0,1,1.569-1.74,4.4,4.4,0,0,1,2.316-.611,3.947,3.947,0,0,1,3.072,1.23A5,5,0,0,1-4.874-4.966v1.037h-6.056a2.36,2.36,0,0,0,.743,1.494,2.245,2.245,0,0,0,1.569.563A2.742,2.742,0,0,0-6.324-2.936l1.248,1.4A3.813,3.813,0,0,1-6.623-.277,5.075,5.075,0,0,1-8.785.176Zm-.29-7.813a1.587,1.587,0,0,0-1.226.512,2.651,2.651,0,0,0-.6,1.466H-7.37v-.2a1.891,1.891,0,0,0-.457-1.311A1.638,1.638,0,0,0-9.075-7.638ZM.945.176A4.668,4.668,0,0,1-2.461-1.107,4.561,4.561,0,0,1-3.775-4.526v-.246a5.745,5.745,0,0,1,.554-2.562,4.064,4.064,0,0,1,1.569-1.74A4.4,4.4,0,0,1,.664-9.686a3.947,3.947,0,0,1,3.072,1.23A5,5,0,0,1,4.856-4.966v1.037H-1.2A2.36,2.36,0,0,0-.457-2.435a2.245,2.245,0,0,0,1.569.563A2.742,2.742,0,0,0,3.406-2.936l1.248,1.4A3.813,3.813,0,0,1,3.107-.277,5.075,5.075,0,0,1,.945.176ZM.655-7.638a1.587,1.587,0,0,0-1.226.512,2.651,2.651,0,0,0-.6,1.466H2.36v-.2A1.891,1.891,0,0,0,1.9-7.174,1.638,1.638,0,0,0,.655-7.638ZM5.9-4.825a5.731,5.731,0,0,1,1-3.542A3.237,3.237,0,0,1,9.628-9.686a2.913,2.913,0,0,1,2.294,1.037V-13.5h2.549V0H12.177l-.123-1.011A2.989,2.989,0,0,1,9.611.176,3.228,3.228,0,0,1,6.917-1.147,5.916,5.916,0,0,1,5.9-4.825Zm2.54.181a3.775,3.775,0,0,0,.466,2.057,1.516,1.516,0,0,0,1.354.715,1.7,1.7,0,0,0,1.661-1V-6.64a1.675,1.675,0,0,0-1.644-1Q8.442-7.638,8.442-4.644Zm7.6-.2a5.64,5.64,0,0,1,.545-2.522,3.989,3.989,0,0,1,1.569-1.714,4.577,4.577,0,0,1,2.377-.606,4.33,4.33,0,0,1,3.142,1.178,4.727,4.727,0,0,1,1.358,3.2l.018.65a4.97,4.97,0,0,1-1.222,3.511A4.247,4.247,0,0,1,20.553.176a4.268,4.268,0,0,1-3.283-1.318,5.058,5.058,0,0,1-1.226-3.586Zm2.54.18a3.555,3.555,0,0,0,.51,2.073,1.682,1.682,0,0,0,1.459.717,1.686,1.686,0,0,0,1.441-.709,3.89,3.89,0,0,0,.519-2.267,3.519,3.519,0,0,0-.519-2.06,1.686,1.686,0,0,0-1.459-.731,1.658,1.658,0,0,0-1.441.726A3.955,3.955,0,0,0,18.584-4.662ZM31.961-7.128a6.9,6.9,0,0,0-.914-.07,1.86,1.86,0,0,0-1.89.976V0h-2.54V-9.51h2.4l.07,1.134a2.354,2.354,0,0,1,2.118-1.31A2.662,2.662,0,0,1,32-9.571Zm5.432,7.3a4.668,4.668,0,0,1-3.406-1.283,4.561,4.561,0,0,1-1.314-3.419v-.246a5.745,5.745,0,0,1,.554-2.562A4.064,4.064,0,0,1,34.8-9.075a4.4,4.4,0,0,1,2.316-.611,3.947,3.947,0,0,1,3.072,1.23A5,5,0,0,1,41.3-4.966v1.037H35.249a2.36,2.36,0,0,0,.743,1.494,2.245,2.245,0,0,0,1.569.563,2.742,2.742,0,0,0,2.294-1.063l1.248,1.4A3.813,3.813,0,0,1,39.555-.277,5.075,5.075,0,0,1,37.393.176ZM37.1-7.638a1.587,1.587,0,0,0-1.226.512,2.651,2.651,0,0,0-.6,1.466h3.533v-.2a1.891,1.891,0,0,0-.457-1.311A1.638,1.638,0,0,0,37.1-7.638ZM47.9-2.628a.818.818,0,0,0-.461-.734,5.241,5.241,0,0,0-1.481-.479q-3.393-.712-3.393-2.883a2.613,2.613,0,0,1,1.05-2.114,4.237,4.237,0,0,1,2.747-.848,4.56,4.56,0,0,1,2.9.853,2.687,2.687,0,0,1,1.085,2.215H47.8a1.229,1.229,0,0,0-.352-.9,1.488,1.488,0,0,0-1.1-.356,1.52,1.52,0,0,0-.993.29A.916.916,0,0,0,45-6.847a.783.783,0,0,0,.4.681,4.114,4.114,0,0,0,1.349.448,11.019,11.019,0,0,1,1.6.426,2.628,2.628,0,0,1,2.013,2.558,2.481,2.481,0,0,1-1.116,2.1,4.815,4.815,0,0,1-2.883.8A5.029,5.029,0,0,1,44.244-.25,3.561,3.561,0,0,1,42.79-1.419a2.716,2.716,0,0,1-.527-1.6H44.67a1.326,1.326,0,0,0,.5,1.037,1.987,1.987,0,0,0,1.248.36,1.839,1.839,0,0,0,1.1-.277A.861.861,0,0,0,47.9-2.628Z" transform="translate(473 7480)" fill="#00223d"/>
    <path id="Trazado_20961" data-name="Trazado 20961" d="M-31.039-12.8l3.287,9.281,3.27-9.281h3.463V0h-2.646V-3.5l.264-6.038L-26.855,0h-1.811l-3.445-9.527.264,6.029V0h-2.637V-12.8ZM-14.506.176a4.668,4.668,0,0,1-3.406-1.283,4.561,4.561,0,0,1-1.314-3.419v-.246a5.745,5.745,0,0,1,.554-2.562A4.064,4.064,0,0,1-17.1-9.075a4.4,4.4,0,0,1,2.316-.611,3.947,3.947,0,0,1,3.072,1.23A5,5,0,0,1-10.6-4.966v1.037h-6.056a2.36,2.36,0,0,0,.743,1.494,2.245,2.245,0,0,0,1.569.563,2.742,2.742,0,0,0,2.294-1.063l1.248,1.4A3.813,3.813,0,0,1-12.344-.277,5.075,5.075,0,0,1-14.506.176Zm-.29-7.813a1.587,1.587,0,0,0-1.226.512,2.651,2.651,0,0,0-.6,1.466h3.533v-.2a1.891,1.891,0,0,0-.457-1.311A1.638,1.638,0,0,0-14.8-7.638Zm10.986.51a6.9,6.9,0,0,0-.914-.07,1.86,1.86,0,0,0-1.89.976V0h-2.54V-9.51h2.4l.07,1.134a2.354,2.354,0,0,1,2.118-1.31,2.662,2.662,0,0,1,.791.114ZM1.2-1.872a1.666,1.666,0,0,0,1.143-.387A1.355,1.355,0,0,0,2.8-3.287H5.181a3.258,3.258,0,0,1-.527,1.771A3.48,3.48,0,0,1,3.234-.268,4.442,4.442,0,0,1,1.244.176a4.129,4.129,0,0,1-3.217-1.3A5.13,5.13,0,0,1-3.151-4.7v-.167A5.071,5.071,0,0,1-1.982-8.376a4.08,4.08,0,0,1,3.208-1.31A4,4,0,0,1,4.087-8.67a3.594,3.594,0,0,1,1.094,2.7H2.8a1.745,1.745,0,0,0-.457-1.206,1.524,1.524,0,0,0-1.16-.464,1.53,1.53,0,0,0-1.34.647,3.749,3.749,0,0,0-.453,2.1v.264A3.8,3.8,0,0,0-.163-2.515,1.549,1.549,0,0,0,1.2-1.872ZM12.142,0a2.821,2.821,0,0,1-.255-.853A3.073,3.073,0,0,1,9.488.176,3.376,3.376,0,0,1,7.172-.633a2.6,2.6,0,0,1-.918-2.039,2.687,2.687,0,0,1,1.121-2.32,5.529,5.529,0,0,1,3.239-.817h1.169v-.545a1.567,1.567,0,0,0-.338-1.055,1.331,1.331,0,0,0-1.068-.4A1.513,1.513,0,0,0,9.369-7.5,1.045,1.045,0,0,0,9-6.653H6.464a2.551,2.551,0,0,1,.51-1.529,3.37,3.37,0,0,1,1.441-1.1,5.253,5.253,0,0,1,2.092-.4A4.15,4.15,0,0,1,13.3-8.8a3.09,3.09,0,0,1,1.033,2.483V-2.2a4.546,4.546,0,0,0,.378,2.048V0Zm-2.1-1.767a2.188,2.188,0,0,0,1.037-.25,1.645,1.645,0,0,0,.7-.672V-4.324h-.949q-1.907,0-2.03,1.318l-.009.149a1.017,1.017,0,0,0,.334.782A1.3,1.3,0,0,0,10.042-1.767Zm5.845-3.059a5.731,5.731,0,0,1,1-3.542,3.237,3.237,0,0,1,2.729-1.318,2.913,2.913,0,0,1,2.294,1.037V-13.5h2.549V0H22.162l-.123-1.011A2.989,2.989,0,0,1,19.6.176,3.228,3.228,0,0,1,16.9-1.147,5.916,5.916,0,0,1,15.886-4.825Zm2.54.181a3.775,3.775,0,0,0,.466,2.057,1.516,1.516,0,0,0,1.354.715,1.7,1.7,0,0,0,1.661-1V-6.64a1.675,1.675,0,0,0-1.644-1Q18.426-7.638,18.426-4.644Zm7.6-.2a5.64,5.64,0,0,1,.545-2.522,3.989,3.989,0,0,1,1.569-1.714,4.577,4.577,0,0,1,2.377-.606,4.33,4.33,0,0,1,3.142,1.178,4.727,4.727,0,0,1,1.358,3.2l.018.65a4.97,4.97,0,0,1-1.222,3.511A4.247,4.247,0,0,1,30.538.176a4.268,4.268,0,0,1-3.283-1.318,5.058,5.058,0,0,1-1.226-3.586Zm2.54.18a3.555,3.555,0,0,0,.51,2.073,1.682,1.682,0,0,0,1.459.717,1.686,1.686,0,0,0,1.441-.709A3.89,3.89,0,0,0,32.5-4.847a3.519,3.519,0,0,0-.519-2.06,1.686,1.686,0,0,0-1.459-.731,1.658,1.658,0,0,0-1.441.726A3.955,3.955,0,0,0,28.569-4.662Z" transform="translate(446 7575)" fill="#00223d"/>
    <path id="Trazado_20959" data-name="Trazado 20959" d="M-45.791-4.263a4.528,4.528,0,0,1-1.525,3.252A5.355,5.355,0,0,1-50.941.176a4.816,4.816,0,0,1-3.872-1.657,6.793,6.793,0,0,1-1.411-4.548v-.782a7.671,7.671,0,0,1,.65-3.252,4.874,4.874,0,0,1,1.859-2.158,5.207,5.207,0,0,1,2.808-.751,5.217,5.217,0,0,1,3.568,1.187,4.866,4.866,0,0,1,1.564,3.331H-48.41a2.673,2.673,0,0,0-.69-1.8,2.555,2.555,0,0,0-1.806-.558,2.24,2.24,0,0,0-1.973.945,5.3,5.3,0,0,0-.672,2.931v.967a5.667,5.667,0,0,0,.628,3.032,2.2,2.2,0,0,0,1.982.958,2.6,2.6,0,0,0,1.824-.558,2.521,2.521,0,0,0,.69-1.727Zm1.169-.58a5.64,5.64,0,0,1,.545-2.522,3.989,3.989,0,0,1,1.569-1.714,4.577,4.577,0,0,1,2.377-.606,4.33,4.33,0,0,1,3.142,1.178,4.727,4.727,0,0,1,1.358,3.2l.018.65a4.97,4.97,0,0,1-1.222,3.511A4.247,4.247,0,0,1-40.113.176,4.268,4.268,0,0,1-43.4-1.143a5.058,5.058,0,0,1-1.226-3.586Zm2.54.18a3.555,3.555,0,0,0,.51,2.073,1.682,1.682,0,0,0,1.459.717,1.686,1.686,0,0,0,1.441-.709,3.89,3.89,0,0,0,.519-2.267,3.519,3.519,0,0,0-.519-2.06,1.686,1.686,0,0,0-1.459-.731,1.658,1.658,0,0,0-1.441.726A3.955,3.955,0,0,0-42.082-4.662ZM-31.667-9.51l.079,1.063a3.342,3.342,0,0,1,2.733-1.239,2.536,2.536,0,0,1,2.522,1.45,3.265,3.265,0,0,1,2.856-1.45,2.836,2.836,0,0,1,2.3.9,4.141,4.141,0,0,1,.756,2.711V0h-2.549V-6.078a1.818,1.818,0,0,0-.316-1.185A1.4,1.4,0,0,0-24.4-7.638,1.585,1.585,0,0,0-25.98-6.545L-25.972,0h-2.54V-6.07a1.8,1.8,0,0,0-.325-1.2,1.414,1.414,0,0,0-1.107-.37,1.645,1.645,0,0,0-1.564.9V0h-2.54V-9.51ZM-9.905-4.667a5.7,5.7,0,0,1-1,3.52A3.2,3.2,0,0,1-13.6.176a2.963,2.963,0,0,1-2.329-1V3.656h-2.54V-9.51h2.355l.088.932a2.985,2.985,0,0,1,2.408-1.107,3.22,3.22,0,0,1,2.733,1.3A5.858,5.858,0,0,1-9.905-4.8Zm-2.54-.194a3.763,3.763,0,0,0-.47-2.054,1.53,1.53,0,0,0-1.367-.723,1.662,1.662,0,0,0-1.644.917v3.906a1.691,1.691,0,0,0,1.661.943Q-12.445-1.872-12.445-4.861ZM-3.955.176A4.668,4.668,0,0,1-7.361-1.107,4.561,4.561,0,0,1-8.675-4.526v-.246a5.745,5.745,0,0,1,.554-2.562,4.064,4.064,0,0,1,1.569-1.74,4.4,4.4,0,0,1,2.316-.611,3.947,3.947,0,0,1,3.072,1.23A5,5,0,0,1-.044-4.966v1.037H-6.1a2.36,2.36,0,0,0,.743,1.494,2.245,2.245,0,0,0,1.569.563A2.742,2.742,0,0,0-1.494-2.936l1.248,1.4A3.813,3.813,0,0,1-1.793-.277,5.075,5.075,0,0,1-3.955.176Zm-.29-7.813a1.587,1.587,0,0,0-1.226.512,2.651,2.651,0,0,0-.6,1.466H-2.54v-.2A1.891,1.891,0,0,0-3-7.174,1.638,1.638,0,0,0-4.245-7.638Zm8.684-4.21V-9.51H6.064v1.863H4.438V-2.9a1.133,1.133,0,0,0,.2.756,1.015,1.015,0,0,0,.773.229,4.051,4.051,0,0,0,.747-.062V-.053A5.229,5.229,0,0,1,4.623.176,2.425,2.425,0,0,1,1.9-2.522V-7.646H.51V-9.51H1.9v-2.338ZM10.16,0H7.611V-9.51H10.16Zm-2.7-11.971a1.251,1.251,0,0,1,.382-.94,1.436,1.436,0,0,1,1.042-.369,1.44,1.44,0,0,1,1.037.369,1.244,1.244,0,0,1,.387.94,1.247,1.247,0,0,1-.391.949,1.443,1.443,0,0,1-1.033.369,1.443,1.443,0,0,1-1.033-.369A1.247,1.247,0,0,1,7.462-11.971Zm4.395,7.146a5.731,5.731,0,0,1,1-3.542,3.237,3.237,0,0,1,2.729-1.318,2.913,2.913,0,0,1,2.294,1.037V-13.5h2.549V0H18.132l-.123-1.011A2.989,2.989,0,0,1,15.565.176a3.228,3.228,0,0,1-2.694-1.323A5.916,5.916,0,0,1,11.856-4.825Zm2.54.181a3.775,3.775,0,0,0,.466,2.057,1.516,1.516,0,0,0,1.354.715,1.7,1.7,0,0,0,1.661-1V-6.64a1.675,1.675,0,0,0-1.644-1Q14.4-7.638,14.4-4.644Zm7.6-.2a5.64,5.64,0,0,1,.545-2.522,3.989,3.989,0,0,1,1.569-1.714,4.577,4.577,0,0,1,2.377-.606,4.33,4.33,0,0,1,3.142,1.178,4.727,4.727,0,0,1,1.358,3.2l.018.65a4.97,4.97,0,0,1-1.222,3.511A4.247,4.247,0,0,1,26.508.176a4.268,4.268,0,0,1-3.283-1.318A5.058,5.058,0,0,1,22-4.729Zm2.54.18a3.555,3.555,0,0,0,.51,2.073,1.682,1.682,0,0,0,1.459.717,1.686,1.686,0,0,0,1.441-.709,3.89,3.89,0,0,0,.519-2.267,3.519,3.519,0,0,0-.519-2.06,1.686,1.686,0,0,0-1.459-.731,1.658,1.658,0,0,0-1.441.726A3.955,3.955,0,0,0,24.539-4.662ZM37.916-7.128A6.9,6.9,0,0,0,37-7.2a1.86,1.86,0,0,0-1.89.976V0h-2.54V-9.51h2.4l.07,1.134a2.354,2.354,0,0,1,2.118-1.31,2.662,2.662,0,0,1,.791.114Zm5.432,7.3a4.668,4.668,0,0,1-3.406-1.283,4.561,4.561,0,0,1-1.314-3.419v-.246a5.745,5.745,0,0,1,.554-2.562,4.064,4.064,0,0,1,1.569-1.74,4.4,4.4,0,0,1,2.316-.611,3.947,3.947,0,0,1,3.072,1.23,5,5,0,0,1,1.121,3.489v1.037H41.2a2.36,2.36,0,0,0,.743,1.494,2.245,2.245,0,0,0,1.569.563,2.742,2.742,0,0,0,2.294-1.063l1.248,1.4A3.813,3.813,0,0,1,45.51-.277,5.075,5.075,0,0,1,43.348.176Zm-.29-7.813a1.587,1.587,0,0,0-1.226.512,2.651,2.651,0,0,0-.6,1.466h3.533v-.2a1.891,1.891,0,0,0-.457-1.311A1.638,1.638,0,0,0,43.058-7.638Zm10.793,5.01a.818.818,0,0,0-.461-.734,5.241,5.241,0,0,0-1.481-.479q-3.393-.712-3.393-2.883a2.613,2.613,0,0,1,1.05-2.114,4.237,4.237,0,0,1,2.747-.848,4.56,4.56,0,0,1,2.9.853,2.687,2.687,0,0,1,1.085,2.215h-2.54a1.229,1.229,0,0,0-.352-.9,1.488,1.488,0,0,0-1.1-.356,1.52,1.52,0,0,0-.993.29.916.916,0,0,0-.352.738.783.783,0,0,0,.4.681,4.114,4.114,0,0,0,1.349.448,11.019,11.019,0,0,1,1.6.426A2.628,2.628,0,0,1,56.32-2.733,2.481,2.481,0,0,1,55.2-.628a4.815,4.815,0,0,1-2.883.8A5.029,5.029,0,0,1,50.2-.25a3.561,3.561,0,0,1-1.455-1.169,2.716,2.716,0,0,1-.527-1.6h2.408a1.326,1.326,0,0,0,.5,1.037,1.987,1.987,0,0,0,1.248.36,1.839,1.839,0,0,0,1.1-.277A.861.861,0,0,0,53.851-2.628Z" transform="translate(924 7480)" fill="#00223d"/>
    <path id="Trazado_20962" data-name="Trazado 20962" d="M-45.562-3.357A1.353,1.353,0,0,0-46.09-4.5a6.917,6.917,0,0,0-1.9-.844,13.458,13.458,0,0,1-2.171-.875A3.547,3.547,0,0,1-52.339-9.4a3.09,3.09,0,0,1,.584-1.85,3.812,3.812,0,0,1,1.679-1.27,6.318,6.318,0,0,1,2.457-.457,5.751,5.751,0,0,1,2.443.5,3.891,3.891,0,0,1,1.666,1.4,3.668,3.668,0,0,1,.593,2.057h-2.637a1.726,1.726,0,0,0-.554-1.367,2.276,2.276,0,0,0-1.556-.488,2.432,2.432,0,0,0-1.5.409A1.289,1.289,0,0,0-49.7-9.387a1.235,1.235,0,0,0,.628,1.046,7.1,7.1,0,0,0,1.85.791,7.994,7.994,0,0,1,3.278,1.679,3.343,3.343,0,0,1,1.028,2.5A3.08,3.08,0,0,1-44.174-.769a5.5,5.5,0,0,1-3.384.945,6.534,6.534,0,0,1-2.689-.541A4.256,4.256,0,0,1-52.1-1.846a3.793,3.793,0,0,1-.637-2.18h2.646q0,2.118,2.531,2.118A2.462,2.462,0,0,0-46.09-2.29,1.244,1.244,0,0,0-45.562-3.357Zm7.3-8.49V-9.51h1.626v1.863h-1.626V-2.9a1.133,1.133,0,0,0,.2.756,1.015,1.015,0,0,0,.773.229,4.051,4.051,0,0,0,.747-.062V-.053a5.229,5.229,0,0,1-1.538.229,2.425,2.425,0,0,1-2.725-2.7V-7.646h-1.389V-9.51H-40.8v-2.338ZM-29.707,0a2.821,2.821,0,0,1-.255-.853,3.073,3.073,0,0,1-2.4,1.028,3.376,3.376,0,0,1-2.316-.809A2.6,2.6,0,0,1-35.6-2.672a2.687,2.687,0,0,1,1.121-2.32,5.529,5.529,0,0,1,3.239-.817h1.169v-.545a1.567,1.567,0,0,0-.338-1.055,1.331,1.331,0,0,0-1.068-.4A1.513,1.513,0,0,0-32.48-7.5a1.045,1.045,0,0,0-.365.844h-2.54a2.551,2.551,0,0,1,.51-1.529,3.37,3.37,0,0,1,1.441-1.1,5.253,5.253,0,0,1,2.092-.4,4.15,4.15,0,0,1,2.791.883,3.09,3.09,0,0,1,1.033,2.483V-2.2a4.546,4.546,0,0,0,.378,2.048V0Zm-2.1-1.767a2.188,2.188,0,0,0,1.037-.25,1.645,1.645,0,0,0,.7-.672V-4.324h-.949q-1.907,0-2.03,1.318l-.009.149a1.017,1.017,0,0,0,.334.782A1.3,1.3,0,0,0-31.808-1.767Zm9.694-2.048-.914.914V0h-2.54V-13.5h2.54v7.479l.492-.633L-20.1-9.51h3.05l-3.437,3.964L-16.752,0H-19.67ZM-11.751.176a4.668,4.668,0,0,1-3.406-1.283,4.561,4.561,0,0,1-1.314-3.419v-.246a5.745,5.745,0,0,1,.554-2.562,4.064,4.064,0,0,1,1.569-1.74,4.4,4.4,0,0,1,2.316-.611A3.947,3.947,0,0,1-8.96-8.455,5,5,0,0,1-7.84-4.966v1.037H-13.9a2.36,2.36,0,0,0,.743,1.494,2.245,2.245,0,0,0,1.569.563A2.742,2.742,0,0,0-9.29-2.936l1.248,1.4A3.813,3.813,0,0,1-9.589-.277,5.075,5.075,0,0,1-11.751.176Zm-.29-7.813a1.587,1.587,0,0,0-1.226.512,2.651,2.651,0,0,0-.6,1.466h3.533v-.2a1.891,1.891,0,0,0-.457-1.311A1.638,1.638,0,0,0-12.041-7.638Zm8.121-.835A3.17,3.17,0,0,1-1.38-9.686q3.094,0,3.138,3.595V0H-.782V-6.034a1.774,1.774,0,0,0-.352-1.211A1.505,1.505,0,0,0-2.3-7.638a1.728,1.728,0,0,0-1.617.863V0H-6.46V-13.5h2.54Zm7.2,3.63a5.64,5.64,0,0,1,.545-2.522A3.989,3.989,0,0,1,5.392-9.079,4.577,4.577,0,0,1,7.77-9.686a4.33,4.33,0,0,1,3.142,1.178,4.727,4.727,0,0,1,1.358,3.2l.018.65a4.97,4.97,0,0,1-1.222,3.511A4.247,4.247,0,0,1,7.787.176,4.268,4.268,0,0,1,4.5-1.143,5.058,5.058,0,0,1,3.278-4.729Zm2.54.18a3.555,3.555,0,0,0,.51,2.073,1.682,1.682,0,0,0,1.459.717,1.686,1.686,0,0,0,1.441-.709,3.89,3.89,0,0,0,.519-2.267,3.519,3.519,0,0,0-.519-2.06A1.686,1.686,0,0,0,7.77-7.638a1.658,1.658,0,0,0-1.441.726A3.955,3.955,0,0,0,5.818-4.662ZM16.532,0H13.983V-13.5h2.549Zm1.7-4.825a5.731,5.731,0,0,1,1-3.542,3.237,3.237,0,0,1,2.729-1.318,2.913,2.913,0,0,1,2.294,1.037V-13.5H26.8V0H24.5l-.123-1.011A2.989,2.989,0,0,1,21.938.176a3.228,3.228,0,0,1-2.694-1.323A5.916,5.916,0,0,1,18.229-4.825Zm2.54.181a3.775,3.775,0,0,0,.466,2.057,1.516,1.516,0,0,0,1.354.715,1.7,1.7,0,0,0,1.661-1V-6.64a1.675,1.675,0,0,0-1.644-1Q20.769-7.638,20.769-4.644ZM33.144.176a4.668,4.668,0,0,1-3.406-1.283,4.561,4.561,0,0,1-1.314-3.419v-.246a5.745,5.745,0,0,1,.554-2.562,4.064,4.064,0,0,1,1.569-1.74,4.4,4.4,0,0,1,2.316-.611,3.947,3.947,0,0,1,3.072,1.23,5,5,0,0,1,1.121,3.489v1.037H31a2.36,2.36,0,0,0,.743,1.494,2.245,2.245,0,0,0,1.569.563A2.742,2.742,0,0,0,35.6-2.936l1.248,1.4A3.813,3.813,0,0,1,35.306-.277,5.075,5.075,0,0,1,33.144.176Zm-.29-7.813a1.587,1.587,0,0,0-1.226.512,2.651,2.651,0,0,0-.6,1.466h3.533v-.2A1.891,1.891,0,0,0,34.1-7.174,1.638,1.638,0,0,0,32.854-7.638Zm10.986.51a6.9,6.9,0,0,0-.914-.07,1.86,1.86,0,0,0-1.89.976V0H38.5V-9.51h2.4l.07,1.134a2.354,2.354,0,0,1,2.118-1.31,2.662,2.662,0,0,1,.791.114Zm6.372,4.5a.818.818,0,0,0-.461-.734,5.241,5.241,0,0,0-1.481-.479q-3.393-.712-3.393-2.883a2.613,2.613,0,0,1,1.05-2.114,4.237,4.237,0,0,1,2.747-.848,4.56,4.56,0,0,1,2.9.853,2.687,2.687,0,0,1,1.085,2.215h-2.54a1.229,1.229,0,0,0-.352-.9,1.488,1.488,0,0,0-1.1-.356,1.52,1.52,0,0,0-.993.29.916.916,0,0,0-.352.738.783.783,0,0,0,.4.681,4.114,4.114,0,0,0,1.349.448,11.019,11.019,0,0,1,1.6.426,2.628,2.628,0,0,1,2.013,2.558,2.481,2.481,0,0,1-1.116,2.1,4.815,4.815,0,0,1-2.883.8A5.029,5.029,0,0,1,46.56-.25a3.561,3.561,0,0,1-1.455-1.169,2.716,2.716,0,0,1-.527-1.6h2.408a1.326,1.326,0,0,0,.5,1.037,1.987,1.987,0,0,0,1.248.36,1.839,1.839,0,0,0,1.1-.277A.861.861,0,0,0,50.212-2.628Z" transform="translate(955 7575)" fill="#00223d"/>
    <line id="Línea_209" data-name="Línea 209" y1="47" transform="translate(695.5 7425.5)" fill="none" stroke="#eef0f2" stroke-width="3"/>
    <rect id="Rectángulo_3687" data-name="Rectángulo 3687" width="223" height="40" rx="20" transform="translate(582 7385)" fill="#ff8f00"/>
    <path id="Trazado_20958" data-name="Trazado 20958" d="M-55.23,0h-2.637V-12.8h2.637Zm4.614-9.51.079,1.1A3.32,3.32,0,0,1-47.8-9.686a2.759,2.759,0,0,1,2.25.888A4.142,4.142,0,0,1-44.8-6.144V0h-2.54V-6.1a1.654,1.654,0,0,0-.352-1.176,1.572,1.572,0,0,0-1.169-.366,1.747,1.747,0,0,0-1.608.916V0h-2.54V-9.51Zm10.784-2.338V-9.51h1.626v1.863h-1.626V-2.9a1.133,1.133,0,0,0,.2.756,1.015,1.015,0,0,0,.773.229,4.051,4.051,0,0,0,.747-.062V-.053a5.229,5.229,0,0,1-1.538.229,2.425,2.425,0,0,1-2.725-2.7V-7.646h-1.389V-9.51h1.389v-2.338ZM-32.414.176A4.668,4.668,0,0,1-35.82-1.107a4.561,4.561,0,0,1-1.314-3.419v-.246a5.745,5.745,0,0,1,.554-2.562,4.064,4.064,0,0,1,1.569-1.74A4.4,4.4,0,0,1-32.7-9.686a3.947,3.947,0,0,1,3.072,1.23A5,5,0,0,1-28.5-4.966v1.037h-6.056a2.36,2.36,0,0,0,.743,1.494,2.245,2.245,0,0,0,1.569.563,2.742,2.742,0,0,0,2.294-1.063l1.248,1.4A3.813,3.813,0,0,1-30.252-.277,5.075,5.075,0,0,1-32.414.176Zm-.29-7.813a1.587,1.587,0,0,0-1.226.512,2.651,2.651,0,0,0-.6,1.466H-31v-.2a1.891,1.891,0,0,0-.457-1.311A1.638,1.638,0,0,0-32.7-7.638Zm10.986.51a6.9,6.9,0,0,0-.914-.07,1.86,1.86,0,0,0-1.89.976V0h-2.54V-9.51h2.4l.07,1.134a2.354,2.354,0,0,1,2.118-1.31,2.662,2.662,0,0,1,.791.114Zm3.6-2.382.079,1.063A3.342,3.342,0,0,1-15.3-9.686a2.536,2.536,0,0,1,2.522,1.45,3.265,3.265,0,0,1,2.856-1.45,2.836,2.836,0,0,1,2.3.9,4.141,4.141,0,0,1,.756,2.711V0H-9.413V-6.078a1.818,1.818,0,0,0-.316-1.185,1.4,1.4,0,0,0-1.116-.374,1.585,1.585,0,0,0-1.582,1.092L-12.419,0h-2.54V-6.07a1.8,1.8,0,0,0-.325-1.2,1.414,1.414,0,0,0-1.107-.37,1.645,1.645,0,0,0-1.564.9V0H-20.5V-9.51ZM-.536.176A4.668,4.668,0,0,1-3.942-1.107,4.561,4.561,0,0,1-5.256-4.526v-.246A5.745,5.745,0,0,1-4.7-7.334a4.064,4.064,0,0,1,1.569-1.74A4.4,4.4,0,0,1-.817-9.686a3.947,3.947,0,0,1,3.072,1.23A5,5,0,0,1,3.375-4.966v1.037H-2.681a2.36,2.36,0,0,0,.743,1.494,2.245,2.245,0,0,0,1.569.563A2.742,2.742,0,0,0,1.925-2.936l1.248,1.4A3.813,3.813,0,0,1,1.626-.277,5.075,5.075,0,0,1-.536.176Zm-.29-7.813a1.587,1.587,0,0,0-1.226.512,2.651,2.651,0,0,0-.6,1.466H.879v-.2A1.891,1.891,0,0,0,.422-7.174,1.638,1.638,0,0,0-.826-7.638ZM4.421-4.825a5.731,5.731,0,0,1,1-3.542A3.237,3.237,0,0,1,8.147-9.686a2.913,2.913,0,0,1,2.294,1.037V-13.5H12.99V0H10.7l-.123-1.011A2.989,2.989,0,0,1,8.13.176,3.228,3.228,0,0,1,5.436-1.147,5.916,5.916,0,0,1,4.421-4.825Zm2.54.181a3.775,3.775,0,0,0,.466,2.057,1.516,1.516,0,0,0,1.354.715,1.7,1.7,0,0,0,1.661-1V-6.64a1.675,1.675,0,0,0-1.644-1Q6.961-7.638,6.961-4.644ZM17.64,0H15.091V-9.51H17.64Zm-2.7-11.971a1.251,1.251,0,0,1,.382-.94,1.436,1.436,0,0,1,1.042-.369,1.44,1.44,0,0,1,1.037.369,1.244,1.244,0,0,1,.387.94,1.247,1.247,0,0,1-.391.949,1.443,1.443,0,0,1-1.033.369,1.443,1.443,0,0,1-1.033-.369A1.247,1.247,0,0,1,14.941-11.971ZM25.242,0a2.821,2.821,0,0,1-.255-.853,3.073,3.073,0,0,1-2.4,1.028,3.376,3.376,0,0,1-2.316-.809,2.6,2.6,0,0,1-.918-2.039,2.687,2.687,0,0,1,1.121-2.32,5.529,5.529,0,0,1,3.239-.817h1.169v-.545a1.567,1.567,0,0,0-.338-1.055,1.331,1.331,0,0,0-1.068-.4,1.513,1.513,0,0,0-1.006.308,1.045,1.045,0,0,0-.365.844h-2.54a2.551,2.551,0,0,1,.51-1.529,3.37,3.37,0,0,1,1.441-1.1,5.253,5.253,0,0,1,2.092-.4A4.15,4.15,0,0,1,26.4-8.8a3.09,3.09,0,0,1,1.033,2.483V-2.2a4.546,4.546,0,0,0,.378,2.048V0Zm-2.1-1.767a2.188,2.188,0,0,0,1.037-.25,1.645,1.645,0,0,0,.7-.672V-4.324h-.949q-1.907,0-2.03,1.318l-.009.149a1.017,1.017,0,0,0,.334.782A1.3,1.3,0,0,0,23.142-1.767ZM34.726-7.128a6.9,6.9,0,0,0-.914-.07,1.86,1.86,0,0,0-1.89.976V0h-2.54V-9.51h2.4l.07,1.134a2.354,2.354,0,0,1,2.118-1.31,2.662,2.662,0,0,1,.791.114ZM38.628,0H36.079V-9.51h2.549Zm-2.7-11.971a1.251,1.251,0,0,1,.382-.94,1.436,1.436,0,0,1,1.042-.369,1.44,1.44,0,0,1,1.037.369,1.244,1.244,0,0,1,.387.94,1.247,1.247,0,0,1-.391.949,1.443,1.443,0,0,1-1.033.369,1.443,1.443,0,0,1-1.033-.369A1.247,1.247,0,0,1,35.93-11.971Zm4.395,7.128a5.64,5.64,0,0,1,.545-2.522,3.989,3.989,0,0,1,1.569-1.714,4.577,4.577,0,0,1,2.377-.606,4.33,4.33,0,0,1,3.142,1.178,4.727,4.727,0,0,1,1.358,3.2l.018.65a4.97,4.97,0,0,1-1.222,3.511A4.247,4.247,0,0,1,44.833.176,4.268,4.268,0,0,1,41.55-1.143a5.058,5.058,0,0,1-1.226-3.586Zm2.54.18a3.555,3.555,0,0,0,.51,2.073,1.682,1.682,0,0,0,1.459.717,1.686,1.686,0,0,0,1.441-.709,3.89,3.89,0,0,0,.519-2.267,3.519,3.519,0,0,0-.519-2.06,1.686,1.686,0,0,0-1.459-.731,1.658,1.658,0,0,0-1.441.726A3.955,3.955,0,0,0,42.864-4.662ZM56.048-2.628a.818.818,0,0,0-.461-.734,5.241,5.241,0,0,0-1.481-.479q-3.393-.712-3.393-2.883a2.613,2.613,0,0,1,1.05-2.114,4.237,4.237,0,0,1,2.747-.848,4.56,4.56,0,0,1,2.9.853,2.687,2.687,0,0,1,1.085,2.215h-2.54a1.229,1.229,0,0,0-.352-.9,1.488,1.488,0,0,0-1.1-.356,1.52,1.52,0,0,0-.993.29.916.916,0,0,0-.352.738.783.783,0,0,0,.4.681,4.114,4.114,0,0,0,1.349.448,11.019,11.019,0,0,1,1.6.426,2.628,2.628,0,0,1,2.013,2.558A2.481,2.481,0,0,1,57.4-.628a4.815,4.815,0,0,1-2.883.8A5.029,5.029,0,0,1,52.4-.25a3.561,3.561,0,0,1-1.455-1.169,2.716,2.716,0,0,1-.527-1.6h2.408a1.326,1.326,0,0,0,.5,1.037,1.987,1.987,0,0,0,1.248.36,1.839,1.839,0,0,0,1.1-.277A.861.861,0,0,0,56.048-2.628Z" transform="translate(694 7411)" fill="#00223d"/>
    <circle id="Elipse_893" data-name="Elipse 893" cx="5" cy="5" r="5" transform="translate(690 7468)" fill="#ff8f00"/>
  </g>
</svg>
