<svg xmlns="http://www.w3.org/2000/svg" width="107.985" height="107.985" viewBox="0 0 107.985 107.985">
  <g id="Grupo_25937" data-name="Grupo 25937" transform="translate(-330 -2833)">
    <g id="Trazado_19525" data-name="Trazado 19525" transform="translate(330 2833)" fill="#fff">
      <path d="M 53.99265289306641 105.4853057861328 C 47.04008483886719 105.4853057861328 40.29681777954102 104.1241836547852 33.95015335083008 101.4397888183594 C 27.81875228881836 98.84642028808594 22.31165313720703 95.13325500488281 17.58185195922852 90.40345001220703 C 12.85205268859863 85.67365264892578 9.138886451721191 80.16654968261719 6.545519351959229 74.03515625 C 3.861119508743286 67.68848419189453 2.500002861022949 60.94522094726562 2.500002861022949 53.99265289306641 C 2.500002861022949 47.04008483886719 3.861119508743286 40.29681777954102 6.545519351959229 33.95015335083008 C 9.138886451721191 27.81875228881836 12.85205268859863 22.31165313720703 17.58185195922852 17.58185195922852 C 22.31165313720703 12.85205268859863 27.81875228881836 9.138886451721191 33.95015335083008 6.545519351959229 C 40.29681777954102 3.861119508743286 47.04008483886719 2.500002861022949 53.99265289306641 2.500002861022949 C 60.94522094726562 2.500002861022949 67.68848419189453 3.861119508743286 74.03515625 6.545519351959229 C 80.16654968261719 9.138886451721191 85.67365264892578 12.85205268859863 90.40345001220703 17.58185195922852 C 95.13325500488281 22.31165313720703 98.84642028808594 27.81875228881836 101.4397888183594 33.95015335083008 C 104.1241836547852 40.29681777954102 105.4853057861328 47.04008483886719 105.4853057861328 53.99265289306641 C 105.4853057861328 60.94522094726562 104.1241836547852 67.68848419189453 101.4397888183594 74.03515625 C 98.84642028808594 80.16654968261719 95.13325500488281 85.67365264892578 90.40345001220703 90.40345001220703 C 85.67365264892578 95.13325500488281 80.16654968261719 98.84642028808594 74.03515625 101.4397888183594 C 67.68848419189453 104.1241836547852 60.94522094726562 105.4853057861328 53.99265289306641 105.4853057861328 Z" stroke="none"/>
      <path d="M 53.99265289306641 5 C 47.37648773193359 5 40.96086883544922 6.294670104980469 34.92403411865234 8.848037719726562 C 29.09061431884766 11.31536102294922 23.85061645507812 14.84859466552734 19.34961700439453 19.34961700439453 C 14.84859466552734 23.85061645507812 11.31536102294922 29.09061431884766 8.848037719726562 34.92403411865234 C 6.294670104980469 40.96086883544922 5 47.37648773193359 5 53.99265289306641 C 5 60.60881805419922 6.294670104980469 67.02442932128906 8.848037719726562 73.06127166748047 C 11.31536102294922 78.89469146728516 14.84859466552734 84.13467407226562 19.34961700439453 88.63568878173828 C 23.85063171386719 93.13670349121094 29.09061431884766 96.66994476318359 34.92403411865234 99.13726806640625 C 40.96086883544922 101.6906356811523 47.37648773193359 102.9853057861328 53.99265289306641 102.9853057861328 C 60.60881805419922 102.9853057861328 67.02442932128906 101.6906356811523 73.06127166748047 99.13726806640625 C 78.89466857910156 96.66994476318359 84.13467407226562 93.13670349121094 88.63568878173828 88.63568878173828 C 93.13670349121094 84.13467407226562 96.66994476318359 78.89466857910156 99.13726806640625 73.06127166748047 C 101.6906356811523 67.02442932128906 102.9853057861328 60.60881805419922 102.9853057861328 53.99265289306641 C 102.9853057861328 47.37648773193359 101.6906356811523 40.96086883544922 99.13726806640625 34.92403411865234 C 96.66994476318359 29.09061431884766 93.13670349121094 23.85063171386719 88.63568878173828 19.34961700439453 C 84.13467407226562 14.84859466552734 78.89469146728516 11.31536102294922 73.06127166748047 8.848037719726562 C 67.02442932128906 6.294670104980469 60.60881805419922 5 53.99265289306641 5 M 53.99265289306641 0 C 83.81196594238281 0 107.9853057861328 24.17332458496094 107.9853057861328 53.99265289306641 C 107.9853057861328 83.81196594238281 83.81196594238281 107.9853057861328 53.99265289306641 107.9853057861328 C 24.17332458496094 107.9853057861328 0 83.81196594238281 0 53.99265289306641 C 0 24.17332458496094 24.17332458496094 0 53.99265289306641 0 Z" stroke="none" fill="#d64626"/>
    </g>
    <g id="witness" transform="translate(354 2857.001)">
      <path id="Trazado_19553" data-name="Trazado 19553" d="M59.6,137.5c-5.453-6.644-17-14.4-29.6-14.4-12.646,0-24.191,7.806-29.6,14.4a1.765,1.765,0,0,0,0,2.239c5.582,6.8,17.155,14.4,29.6,14.4,12.886,0,24.382-8.042,29.6-14.4A1.765,1.765,0,0,0,59.6,137.5Zm-17.612,1.119A11.987,11.987,0,1,1,30,126.636,12,12,0,0,1,41.985,138.623Zm-37.838,0a42.621,42.621,0,0,1,13.5-9.379,15.476,15.476,0,0,0,0,18.754,41.844,41.844,0,0,1-13.5-9.375ZM42.351,148a15.477,15.477,0,0,0,0-18.754,41.851,41.851,0,0,1,13.5,9.375A42.619,42.619,0,0,1,42.351,148Z" transform="translate(0 -108.624)"/>
      <path id="Trazado_19554" data-name="Trazado 19554" d="M204,210a6,6,0,1,0,6-6A6.006,6.006,0,0,0,204,210Zm8.47,0a2.47,2.47,0,1,1-2.471-2.47A2.473,2.473,0,0,1,212.47,210Z" transform="translate(-180.001 -180.001)"/>
      <path id="Trazado_19555" data-name="Trazado 19555" d="M241.765,7.647a1.765,1.765,0,0,0,1.765-1.765V1.765a1.765,1.765,0,1,0-3.529,0V5.882A1.765,1.765,0,0,0,241.765,7.647Z" transform="translate(-211.766)"/>
      <path id="Trazado_19556" data-name="Trazado 19556" d="M337.82,29.444a1.765,1.765,0,0,0,2.407-.659l2.348-4.118a1.765,1.765,0,1,0-3.066-1.748l-2.348,4.118A1.765,1.765,0,0,0,337.82,29.444Z" transform="translate(-297.292 -19.437)"/>
      <path id="Trazado_19557" data-name="Trazado 19557" d="M125.685,28.786a1.765,1.765,0,0,0,3.066-1.749L126.4,22.92a1.765,1.765,0,0,0-3.066,1.749Z" transform="translate(-108.622 -19.438)"/>
      <path id="Trazado_19558" data-name="Trazado 19558" d="M241.765,445A1.765,1.765,0,0,0,240,446.765v4.117a1.765,1.765,0,1,0,3.529,0v-4.117A1.765,1.765,0,0,0,241.765,445Z" transform="translate(-211.766 -392.649)"/>
      <path id="Trazado_19559" data-name="Trazado 19559" d="M128.092,423.2a1.765,1.765,0,0,0-2.407.659l-2.348,4.118a1.765,1.765,0,0,0,3.066,1.749l2.348-4.118A1.765,1.765,0,0,0,128.092,423.2Z" transform="translate(-108.622 -373.208)"/>
      <path id="Trazado_19560" data-name="Trazado 19560" d="M340.227,423.857a1.765,1.765,0,1,0-3.066,1.748l2.348,4.118a1.765,1.765,0,1,0,3.066-1.748Z" transform="translate(-297.292 -373.207)"/>
    </g>
  </g>
</svg>
