<svg xmlns="http://www.w3.org/2000/svg" width="107.985" height="107.985" viewBox="0 0 107.985 107.985">
  <g id="Grupo_25936" data-name="Grupo 25936" transform="translate(-330 -3722)">
    <g id="Trazado_19529" data-name="Trazado 19529" transform="translate(330 3722)" fill="#fff">
      <path d="M 53.99265289306641 105.4853057861328 C 47.04008483886719 105.4853057861328 40.29681777954102 104.1241836547852 33.95015335083008 101.4397888183594 C 27.81875228881836 98.84642028808594 22.31165313720703 95.13325500488281 17.58185195922852 90.40345001220703 C 12.85205268859863 85.67365264892578 9.138886451721191 80.16654968261719 6.545519351959229 74.03515625 C 3.861119508743286 67.68848419189453 2.500002861022949 60.94522094726562 2.500002861022949 53.99265289306641 C 2.500002861022949 47.04008483886719 3.861119508743286 40.29681777954102 6.545519351959229 33.95015335083008 C 9.138886451721191 27.81875228881836 12.85205268859863 22.31165313720703 17.58185195922852 17.58185195922852 C 22.31165313720703 12.85205268859863 27.81875228881836 9.138886451721191 33.95015335083008 6.545519351959229 C 40.29681777954102 3.861119508743286 47.04008483886719 2.500002861022949 53.99265289306641 2.500002861022949 C 60.94522094726562 2.500002861022949 67.68848419189453 3.861119508743286 74.03515625 6.545519351959229 C 80.16654968261719 9.138886451721191 85.67365264892578 12.85205268859863 90.40345001220703 17.58185195922852 C 95.13325500488281 22.31165313720703 98.84642028808594 27.81875228881836 101.4397888183594 33.95015335083008 C 104.1241836547852 40.29681777954102 105.4853057861328 47.04008483886719 105.4853057861328 53.99265289306641 C 105.4853057861328 60.94522094726562 104.1241836547852 67.68848419189453 101.4397888183594 74.03515625 C 98.84642028808594 80.16654968261719 95.13325500488281 85.67365264892578 90.40345001220703 90.40345001220703 C 85.67365264892578 95.13325500488281 80.16654968261719 98.84642028808594 74.03515625 101.4397888183594 C 67.68848419189453 104.1241836547852 60.94522094726562 105.4853057861328 53.99265289306641 105.4853057861328 Z" stroke="none"/>
      <path d="M 53.99265289306641 5 C 47.37648773193359 5 40.96086883544922 6.294670104980469 34.92403411865234 8.848037719726562 C 29.09061431884766 11.31536102294922 23.85061645507812 14.84859466552734 19.34961700439453 19.34961700439453 C 14.84859466552734 23.85061645507812 11.31536102294922 29.09061431884766 8.848037719726562 34.92403411865234 C 6.294670104980469 40.96086883544922 5 47.37648773193359 5 53.99265289306641 C 5 60.60881805419922 6.294670104980469 67.02442932128906 8.848037719726562 73.06127166748047 C 11.31536102294922 78.89469146728516 14.84859466552734 84.13467407226562 19.34961700439453 88.63568878173828 C 23.85063171386719 93.13670349121094 29.09061431884766 96.66994476318359 34.92403411865234 99.13726806640625 C 40.96086883544922 101.6906356811523 47.37648773193359 102.9853057861328 53.99265289306641 102.9853057861328 C 60.60881805419922 102.9853057861328 67.02442932128906 101.6906356811523 73.06127166748047 99.13726806640625 C 78.89466857910156 96.66994476318359 84.13467407226562 93.13670349121094 88.63568878173828 88.63568878173828 C 93.13670349121094 84.13467407226562 96.66994476318359 78.89466857910156 99.13726806640625 73.06127166748047 C 101.6906356811523 67.02442932128906 102.9853057861328 60.60881805419922 102.9853057861328 53.99265289306641 C 102.9853057861328 47.37648773193359 101.6906356811523 40.96086883544922 99.13726806640625 34.92403411865234 C 96.66994476318359 29.09061431884766 93.13670349121094 23.85063171386719 88.63568878173828 19.34961700439453 C 84.13467407226562 14.84859466552734 78.89469146728516 11.31536102294922 73.06127166748047 8.848037719726562 C 67.02442932128906 6.294670104980469 60.60881805419922 5 53.99265289306641 5 M 53.99265289306641 0 C 83.81196594238281 0 107.9853057861328 24.17332458496094 107.9853057861328 53.99265289306641 C 107.9853057861328 83.81196594238281 83.81196594238281 107.9853057861328 53.99265289306641 107.9853057861328 C 24.17332458496094 107.9853057861328 0 83.81196594238281 0 53.99265289306641 C 0 24.17332458496094 24.17332458496094 0 53.99265289306641 0 Z" stroke="none" fill="#d64626"/>
    </g>
    <g id="support" transform="translate(333.143 3746.253)">
      <g id="Grupo_24237" data-name="Grupo 24237" transform="translate(61.767 42.921)">
        <g id="Grupo_24236" data-name="Grupo 24236">
          <path id="Trazado_19550" data-name="Trazado 19550" d="M357.084,396a1.084,1.084,0,1,0,1.084,1.084A1.084,1.084,0,0,0,357.084,396Z" transform="translate(-356 -396)"/>
        </g>
      </g>
      <g id="Grupo_24239" data-name="Grupo 24239" transform="translate(26)">
        <g id="Grupo_24238" data-name="Grupo 24238">
          <path id="Trazado_19551" data-name="Trazado 19551" d="M65.52,39.416,60.368,37.7,58.519,34a11.871,11.871,0,0,0,3.213-6.28l.231-1.382h1.973a3.255,3.255,0,0,0,3.252-3.252V16.258a16.258,16.258,0,1,0-32.516,0v6.828a3.257,3.257,0,0,0,2.168,3.065v1.27a3.255,3.255,0,0,0,3.252,3.252h.952a11.759,11.759,0,0,0,1.818,2.815c.153.176.314.347.478.514l-1.848,3.7-5.152,1.717C30.348,41.413,26,47.719,26,54.41a1.084,1.084,0,0,0,1.084,1.084h47.69a1.084,1.084,0,0,0,1.084-1.084C75.858,47.719,71.51,41.413,65.52,39.416Zm-.5-16.33a1.085,1.085,0,0,1-1.084,1.084H62.281c.276-2.134.459-4.405.533-6.642,0-.063,0-.124.006-.186h2.2Zm-27.1,1.084a1.085,1.085,0,0,1-1.084-1.084V17.342h2.2q.005.17.012.341v.012h0c.076,2.176.257,4.388.526,6.475H37.922Zm2.168,4.335a1.085,1.085,0,0,1-1.084-1.084V26.338h.889l.231,1.383c.044.263.1.525.161.785ZM39.008,15.174H36.88a14.091,14.091,0,0,1,28.1,0H62.85A10.978,10.978,0,0,0,51.9,4.335h-1.94A10.978,10.978,0,0,0,39.008,15.174ZM49.959,6.5H51.9a8.813,8.813,0,0,1,8.785,8.824c0,.341,0,.638-.008.908,0,0,0,.007,0,.011l-1.356-.194a17.416,17.416,0,0,1-9.792-4.9,1.084,1.084,0,0,0-.766-.317,9.806,9.806,0,0,0-7.539,3.567A8.811,8.811,0,0,1,49.959,6.5Zm-7.426,22a61.952,61.952,0,0,1-1.3-10.519l1.459-1.945a7.629,7.629,0,0,1,5.641-3.023A19.6,19.6,0,0,0,59.013,18.2l1.6.228c-.107,2.264-.325,4.535-.637,6.624v0c-.1.672-.178,1.1-.377,2.311a9.206,9.206,0,0,1-6.534,7.4,8.528,8.528,0,0,1-9.573-4.095H45.7a3.257,3.257,0,0,0,3.065,2.168h2.168a3.252,3.252,0,1,0,0-6.5H48.761a3.253,3.253,0,0,0-3.067,2.168Zm6.137,8.456a10.871,10.871,0,0,0,4.031.091l-1.915,2.025Zm.626,3.692-3.438,3.635a41.3,41.3,0,0,1-2.427-5.627l1.291-2.582Zm7.655-4.941,1.474,2.949A41.285,41.285,0,0,1,56,44.29l-3.679-3.679Zm-9.274-6.123a1.084,1.084,0,0,1,1.084-1.084h2.168a1.084,1.084,0,1,1,0,2.168H48.761A1.085,1.085,0,0,1,47.677,29.589ZM28.211,53.326c.43-5.369,4-10.25,8.812-11.853l4.562-1.52a43.448,43.448,0,0,0,3.085,6.692l.006.011h0a43.459,43.459,0,0,0,2.967,4.53l1.333,2.141Zm22.718-.966L49.459,50q-.025-.04-.053-.077a41.326,41.326,0,0,1-2.442-3.648l3.865-4.088L54.9,46.26a41.28,41.28,0,0,1-2.451,3.663C52.4,49.993,52.474,49.882,50.929,52.36Zm1.952.966,1.333-2.14A43.444,43.444,0,0,0,57.2,46.619l.016-.029,0,0a43.413,43.413,0,0,0,3.053-6.635l4.562,1.52c4.809,1.6,8.383,6.484,8.812,11.853H52.881Z" transform="translate(-26)"/>
        </g>
      </g>
      <g id="Grupo_24241" data-name="Grupo 24241" transform="translate(65.576 44.99)">
        <g id="Grupo_24240" data-name="Grupo 24240">
          <path id="Trazado_19552" data-name="Trazado 19552" d="M395.952,419.038a10.836,10.836,0,0,0-3.068-3.725,1.084,1.084,0,1,0-1.322,1.718,8.656,8.656,0,0,1,2.451,2.976,1.084,1.084,0,0,0,1.939-.969Z" transform="translate(-391.139 -415.088)"/>
        </g>
      </g>
    </g>
  </g>
</svg>
