<svg xmlns="http://www.w3.org/2000/svg" width="509" height="363.041" viewBox="0 0 509 363.041">
  <g id="Grupo_26371" data-name="Grupo 26371" transform="translate(-446 -3802)">
    <path id="Trazado_17678" data-name="Trazado 17678" d="M615.7,344.083v-.246h-509v.247l23.665,80.774H592.036Z" transform="translate(339.299 3458.164)" fill="#97181a"/>
    <path id="Trazado_17679" data-name="Trazado 17679" d="M160.839,528.863H561.563L585.3,447.843H137.1Z" transform="translate(338.899 3448.157)" fill="#b52426"/>
    <path id="Trazado_17680" data-name="Trazado 17680" d="M191.311,632.869h339.78l23.738-81.021H167.573Z" transform="translate(338.427 3438.172)" fill="#d64626"/>
    <path id="Trazado_17681" data-name="Trazado 17681" d="M221.783,736.876H500.619l23.738-81.021H198.046Z" transform="translate(338.954 3428.165)" fill="#ff8f00"/>
    <path id="Trazado_20343" data-name="Trazado 20343" d="M-114.717-4.824V0h-3.154V-14h4.941q5.293,0,5.293,4.463a4.282,4.282,0,0,1-1.519,3.413,6.016,6.016,0,0,1-4.058,1.3Zm0-6.758v4.365h1.24q2.52,0,2.52-2.207,0-2.158-2.52-2.158ZM-97.5-4.121h-6.523q.156,2.178,2.744,2.178a5.357,5.357,0,0,0,2.9-.781V-.5a7.619,7.619,0,0,1-3.6.742,5.073,5.073,0,0,1-3.76-1.343,5.073,5.073,0,0,1-1.338-3.745,5.352,5.352,0,0,1,1.445-3.945,4.815,4.815,0,0,1,3.555-1.455,4.37,4.37,0,0,1,3.384,1.3A5,5,0,0,1-97.5-5.42Zm-2.861-1.895q0-2.148-1.738-2.148a1.66,1.66,0,0,0-1.284.615,2.792,2.792,0,0,0-.659,1.533Zm11.221-1.2a2.677,2.677,0,0,0-1.3-.3,1.871,1.871,0,0,0-1.572.737,3.217,3.217,0,0,0-.566,2.007V0h-3.086V-10h3.086v1.855h.039A2.67,2.67,0,0,1-89.9-10.176a1.987,1.987,0,0,1,.762.117Zm.9,6.953v-2.5a6.57,6.57,0,0,0,1.519.684,5.035,5.035,0,0,0,1.431.225A3.068,3.068,0,0,0-84-2.08a.726.726,0,0,0,.474-.684.632.632,0,0,0-.215-.488,2,2,0,0,0-.552-.342,6.261,6.261,0,0,0-.737-.264q-.4-.117-.771-.264a7.392,7.392,0,0,1-1.05-.483,3.034,3.034,0,0,1-.762-.6A2.361,2.361,0,0,1-88.081-6a3.157,3.157,0,0,1-.161-1.064,2.74,2.74,0,0,1,.366-1.445A2.991,2.991,0,0,1-86.9-9.5a4.462,4.462,0,0,1,1.4-.566,7.281,7.281,0,0,1,1.636-.181,9.076,9.076,0,0,1,1.348.1,10.059,10.059,0,0,1,1.348.3v2.383a4.87,4.87,0,0,0-1.255-.513,5.294,5.294,0,0,0-1.313-.171,2.91,2.91,0,0,0-.571.054,1.882,1.882,0,0,0-.474.156.87.87,0,0,0-.322.264.607.607,0,0,0-.117.366.677.677,0,0,0,.176.469,1.527,1.527,0,0,0,.459.337,4.531,4.531,0,0,0,.63.254q.347.112.688.229a8.951,8.951,0,0,1,1.113.469,3.56,3.56,0,0,1,.854.6,2.339,2.339,0,0,1,.547.8,2.846,2.846,0,0,1,.19,1.094,2.853,2.853,0,0,1-.386,1.519A3.088,3.088,0,0,1-81.978-.513a4.65,4.65,0,0,1-1.475.576,8.175,8.175,0,0,1-1.733.181A8.936,8.936,0,0,1-88.242-.264Zm14.219.508a5.376,5.376,0,0,1-3.931-1.4,5.081,5.081,0,0,1-1.431-3.8A5.081,5.081,0,0,1-77.9-8.843a5.609,5.609,0,0,1,4.014-1.4,5.311,5.311,0,0,1,3.906,1.4,4.981,4.981,0,0,1,1.416,3.706A5.288,5.288,0,0,1-70.024-1.2,5.435,5.435,0,0,1-74.023.244Zm.078-8.125a2.058,2.058,0,0,0-1.7.752A3.316,3.316,0,0,0-76.25-5q0,2.881,2.324,2.881,2.217,0,2.217-2.959Q-71.709-7.881-73.945-7.881ZM-56.9,0H-59.98V-5.557q0-2.324-1.66-2.324a1.647,1.647,0,0,0-1.318.615A2.344,2.344,0,0,0-63.477-5.7V0h-3.086V-10h3.086v1.582h.039a3.536,3.536,0,0,1,3.213-1.826q3.32,0,3.32,4.121Zm10.762,0h-2.92V-1.436H-49.1A3.259,3.259,0,0,1-52.08.244a3.116,3.116,0,0,1-2.29-.825,2.957,2.957,0,0,1-.835-2.2q0-2.91,3.447-3.359l2.715-.361q0-1.641-1.777-1.641a6.067,6.067,0,0,0-3.4,1.064V-9.4a7.646,7.646,0,0,1,1.763-.586,9.266,9.266,0,0,1,2.036-.254q4.277,0,4.277,4.268Zm-2.9-4.062v-.674l-1.816.234q-1.5.2-1.5,1.357A1.122,1.122,0,0,0-52-2.28a1.407,1.407,0,0,0,.991.337,1.827,1.827,0,0,0,1.416-.6A2.169,2.169,0,0,0-49.043-4.062ZM-40.615,0H-43.7V-14.8h3.086Zm17.9,0H-25.8V-1.377h-.039a3.46,3.46,0,0,1-3.1,1.621,3.791,3.791,0,0,1-3.018-1.323,5.478,5.478,0,0,1-1.143-3.7,5.962,5.962,0,0,1,1.26-3.975,4.109,4.109,0,0,1,3.3-1.494,2.808,2.808,0,0,1,2.7,1.387h.039V-14.8h3.086Zm-3.027-4.863v-.752a2.366,2.366,0,0,0-.566-1.621,1.871,1.871,0,0,0-1.475-.645,1.859,1.859,0,0,0-1.6.806,3.741,3.741,0,0,0-.576,2.212A3.237,3.237,0,0,0-29.4-2.832a1.848,1.848,0,0,0,1.543.713,1.856,1.856,0,0,0,1.528-.752A3.134,3.134,0,0,0-25.742-4.863Zm14.609.742h-6.523q.156,2.178,2.744,2.178a5.357,5.357,0,0,0,2.9-.781V-.5a7.619,7.619,0,0,1-3.6.742A5.073,5.073,0,0,1-19.375-1.1a5.073,5.073,0,0,1-1.338-3.745,5.352,5.352,0,0,1,1.445-3.945,4.815,4.815,0,0,1,3.555-1.455,4.37,4.37,0,0,1,3.384,1.3,5,5,0,0,1,1.2,3.525Zm-2.861-1.895q0-2.148-1.738-2.148a1.66,1.66,0,0,0-1.284.615,2.792,2.792,0,0,0-.659,1.533ZM-.654-1.162H-.693V4.6H-3.779V-10H-.693v1.5h.039a3.628,3.628,0,0,1,3.213-1.748,3.615,3.615,0,0,1,3,1.333,5.676,5.676,0,0,1,1.06,3.628A6.152,6.152,0,0,1,5.386-1.27,4.028,4.028,0,0,1,2.1.244,3.114,3.114,0,0,1-.654-1.162Zm-.088-4.1v.8A2.546,2.546,0,0,0-.2-2.773a1.78,1.78,0,0,0,1.436.654,1.892,1.892,0,0,0,1.636-.815,3.937,3.937,0,0,0,.581-2.31q0-2.637-2.051-2.637a1.926,1.926,0,0,0-1.548.718A2.863,2.863,0,0,0-.742-5.264ZM15.146-7.217a2.677,2.677,0,0,0-1.3-.3,1.871,1.871,0,0,0-1.572.737,3.217,3.217,0,0,0-.566,2.007V0H8.623V-10h3.086v1.855h.039a2.67,2.67,0,0,1,2.637-2.031,1.987,1.987,0,0,1,.762.117Zm3.076-4.365a1.8,1.8,0,0,1-1.279-.464,1.5,1.5,0,0,1-.5-1.138,1.441,1.441,0,0,1,.5-1.133,1.862,1.862,0,0,1,1.279-.439,1.858,1.858,0,0,1,1.284.439A1.448,1.448,0,0,1,20-13.184a1.489,1.489,0,0,1-.493,1.152A1.833,1.833,0,0,1,18.223-11.582ZM19.746,0H16.66V-10h3.086ZM38.223,0H35.146V-5.7q0-2.178-1.6-2.178a1.471,1.471,0,0,0-1.24.654A2.689,2.689,0,0,0,31.826-5.6V0H28.74V-5.762q0-2.119-1.572-2.119a1.507,1.507,0,0,0-1.265.625,2.75,2.75,0,0,0-.474,1.7V0H22.344V-10H25.43v1.563h.039a3.69,3.69,0,0,1,1.343-1.3,3.69,3.69,0,0,1,1.89-.5,2.88,2.88,0,0,1,2.9,1.865,3.7,3.7,0,0,1,3.359-1.865q3.262,0,3.262,4.023ZM49.648-4.121H43.125q.156,2.178,2.744,2.178a5.357,5.357,0,0,0,2.9-.781V-.5a7.619,7.619,0,0,1-3.6.742A5.073,5.073,0,0,1,41.406-1.1a5.073,5.073,0,0,1-1.338-3.745,5.352,5.352,0,0,1,1.445-3.945,4.815,4.815,0,0,1,3.555-1.455,4.37,4.37,0,0,1,3.384,1.3,5,5,0,0,1,1.2,3.525ZM46.787-6.016q0-2.148-1.738-2.148a1.66,1.66,0,0,0-1.284.615,2.792,2.792,0,0,0-.659,1.533Zm11.221-1.2a2.677,2.677,0,0,0-1.3-.3,1.871,1.871,0,0,0-1.572.737,3.217,3.217,0,0,0-.566,2.007V0H51.484V-10H54.57v1.855h.039a2.67,2.67,0,0,1,2.637-2.031,1.987,1.987,0,0,1,.762.117ZM67.764,0h-2.92V-1.436H64.8A3.259,3.259,0,0,1,61.826.244a3.116,3.116,0,0,1-2.29-.825,2.957,2.957,0,0,1-.835-2.2q0-2.91,3.447-3.359L64.863-6.5q0-1.641-1.777-1.641a6.067,6.067,0,0,0-3.4,1.064V-9.4A7.646,7.646,0,0,1,61.45-9.99a9.266,9.266,0,0,1,2.036-.254q4.277,0,4.277,4.268Zm-2.9-4.062v-.674L63.047-4.5q-1.5.2-1.5,1.357a1.122,1.122,0,0,0,.366.864,1.407,1.407,0,0,0,.991.337,1.827,1.827,0,0,0,1.416-.6A2.169,2.169,0,0,0,64.863-4.062ZM78.809,0H75.723V-14.8h3.086Zm5.684,0H81.406V-10h3.086Zm1.592-14.736-3.057,3.154H80.8l2.539-3.154ZM96.748,0H93.672V-5.557q0-2.324-1.66-2.324a1.647,1.647,0,0,0-1.318.615A2.344,2.344,0,0,0,90.176-5.7V0H87.09V-10h3.086v1.582h.039a3.536,3.536,0,0,1,3.213-1.826q3.32,0,3.32,4.121Zm11.426-4.121H101.65q.156,2.178,2.744,2.178a5.357,5.357,0,0,0,2.9-.781V-.5a7.619,7.619,0,0,1-3.6.742A5.073,5.073,0,0,1,99.932-1.1a5.073,5.073,0,0,1-1.338-3.745,5.352,5.352,0,0,1,1.445-3.945,4.815,4.815,0,0,1,3.555-1.455,4.37,4.37,0,0,1,3.384,1.3,5,5,0,0,1,1.2,3.525Zm-2.861-1.895q0-2.148-1.738-2.148a1.66,1.66,0,0,0-1.284.615,2.792,2.792,0,0,0-.659,1.533ZM118.33,0h-2.92V-1.436h-.039a3.259,3.259,0,0,1-2.979,1.68,3.116,3.116,0,0,1-2.29-.825,2.957,2.957,0,0,1-.835-2.2q0-2.91,3.447-3.359L115.43-6.5q0-1.641-1.777-1.641a6.067,6.067,0,0,0-3.4,1.064V-9.4a7.646,7.646,0,0,1,1.763-.586,9.266,9.266,0,0,1,2.036-.254q4.277,0,4.277,4.268Zm-2.9-4.062v-.674l-1.816.234q-1.5.2-1.5,1.357a1.122,1.122,0,0,0,.366.864,1.407,1.407,0,0,0,.991.337,1.827,1.827,0,0,0,1.416-.6A2.169,2.169,0,0,0,115.43-4.062Z" transform="translate(700 3945)" fill="#fff"/>
    <path id="Trazado_20341" data-name="Trazado 20341" d="M-59.59-.937a10.078,10.078,0,0,1-5.1,1.182,7.372,7.372,0,0,1-5.327-1.87,6.8,6.8,0,0,1-1.948-5.151,7.192,7.192,0,0,1,2.129-5.381,7.756,7.756,0,0,1,5.664-2.08,11.5,11.5,0,0,1,3.926.615v2.959a7.8,7.8,0,0,0-3.965-.937,4.257,4.257,0,0,0-3.2,1.274,4.682,4.682,0,0,0-1.235,3.4,4.7,4.7,0,0,0,1.108,3.34A3.907,3.907,0,0,0-64.541-2.4a4.166,4.166,0,0,0,1.8-.322V-5.459h-2.8v-2.52h5.957Zm11.406-3.184h-6.523q.156,2.178,2.744,2.178a5.357,5.357,0,0,0,2.9-.781V-.5a7.619,7.619,0,0,1-3.6.742A5.073,5.073,0,0,1-56.426-1.1a5.073,5.073,0,0,1-1.338-3.745,5.352,5.352,0,0,1,1.445-3.945,4.815,4.815,0,0,1,3.555-1.455,4.37,4.37,0,0,1,3.384,1.3,5,5,0,0,1,1.2,3.525Zm-2.861-1.895q0-2.148-1.738-2.148a1.66,1.66,0,0,0-1.284.615,2.792,2.792,0,0,0-.659,1.533Zm11.221-1.2a2.677,2.677,0,0,0-1.3-.3,1.871,1.871,0,0,0-1.572.737,3.217,3.217,0,0,0-.566,2.007V0h-3.086V-10h3.086v1.855h.039a2.67,2.67,0,0,1,2.637-2.031,1.987,1.987,0,0,1,.762.117Zm10.342,3.1h-6.523q.156,2.178,2.744,2.178a5.357,5.357,0,0,0,2.9-.781V-.5a7.619,7.619,0,0,1-3.6.742A5.073,5.073,0,0,1-37.725-1.1a5.073,5.073,0,0,1-1.338-3.745,5.352,5.352,0,0,1,1.445-3.945,4.815,4.815,0,0,1,3.555-1.455,4.37,4.37,0,0,1,3.384,1.3,5,5,0,0,1,1.2,3.525Zm-2.861-1.895q0-2.148-1.738-2.148a1.66,1.66,0,0,0-1.284.615,2.792,2.792,0,0,0-.659,1.533ZM-17.988,0h-3.076V-5.557q0-2.324-1.66-2.324a1.647,1.647,0,0,0-1.318.615A2.344,2.344,0,0,0-24.561-5.7V0h-3.086V-10h3.086v1.582h.039a3.536,3.536,0,0,1,3.213-1.826q3.32,0,3.32,4.121Zm10.02-.361a6.1,6.1,0,0,1-3.018.605,5.1,5.1,0,0,1-3.73-1.4,4.823,4.823,0,0,1-1.426-3.6,5.313,5.313,0,0,1,1.528-4.019,5.648,5.648,0,0,1,4.087-1.47,5.244,5.244,0,0,1,2.559.469v2.617a3.518,3.518,0,0,0-2.158-.723,2.844,2.844,0,0,0-2.1.776,2.9,2.9,0,0,0-.776,2.144,2.85,2.85,0,0,0,.742,2.085,2.728,2.728,0,0,0,2.041.757,4.073,4.073,0,0,0,2.256-.723Zm3.584-11.221a1.8,1.8,0,0,1-1.279-.464,1.5,1.5,0,0,1-.5-1.138,1.441,1.441,0,0,1,.5-1.133,1.862,1.862,0,0,1,1.279-.439,1.858,1.858,0,0,1,1.284.439,1.448,1.448,0,0,1,.493,1.133A1.489,1.489,0,0,1-3.1-12.031,1.833,1.833,0,0,1-4.385-11.582ZM-2.861,0H-5.947V-10h3.086ZM8.057,0H5.137V-1.436H5.1A3.259,3.259,0,0,1,2.119.244,3.116,3.116,0,0,1-.171-.581a2.957,2.957,0,0,1-.835-2.2q0-2.91,3.447-3.359L5.156-6.5q0-1.641-1.777-1.641A6.067,6.067,0,0,0-.02-7.08V-9.4A7.646,7.646,0,0,1,1.743-9.99a9.266,9.266,0,0,1,2.036-.254q4.277,0,4.277,4.268Zm-2.9-4.062v-.674L3.34-4.5q-1.5.2-1.5,1.357A1.122,1.122,0,0,0,2.2-2.28a1.407,1.407,0,0,0,.991.337,1.827,1.827,0,0,0,1.416-.6A2.169,2.169,0,0,0,5.156-4.062ZM31.895,0H28.818V-5.7q0-2.178-1.6-2.178a1.471,1.471,0,0,0-1.24.654A2.689,2.689,0,0,0,25.5-5.6V0H22.412V-5.762q0-2.119-1.572-2.119a1.507,1.507,0,0,0-1.265.625,2.75,2.75,0,0,0-.474,1.7V0H16.016V-10H19.1v1.563h.039a3.69,3.69,0,0,1,1.343-1.3,3.69,3.69,0,0,1,1.89-.5,2.88,2.88,0,0,1,2.9,1.865,3.7,3.7,0,0,1,3.359-1.865q3.262,0,3.262,4.023ZM43.32-4.121H36.8q.156,2.178,2.744,2.178a5.357,5.357,0,0,0,2.9-.781V-.5a7.619,7.619,0,0,1-3.6.742A5.073,5.073,0,0,1,35.078-1.1,5.073,5.073,0,0,1,33.74-4.844a5.352,5.352,0,0,1,1.445-3.945,4.815,4.815,0,0,1,3.555-1.455,4.37,4.37,0,0,1,3.384,1.3,5,5,0,0,1,1.2,3.525ZM40.459-6.016q0-2.148-1.738-2.148a1.66,1.66,0,0,0-1.284.615,2.792,2.792,0,0,0-.659,1.533ZM54.941,0H51.855V-1.377h-.039a3.46,3.46,0,0,1-3.1,1.621A3.791,3.791,0,0,1,45.7-1.079a5.478,5.478,0,0,1-1.143-3.7A5.962,5.962,0,0,1,45.82-8.75a4.109,4.109,0,0,1,3.3-1.494,2.808,2.808,0,0,1,2.7,1.387h.039V-14.8h3.086ZM51.914-4.863v-.752a2.366,2.366,0,0,0-.566-1.621,1.871,1.871,0,0,0-1.475-.645,1.859,1.859,0,0,0-1.6.806A3.741,3.741,0,0,0,47.7-4.863a3.237,3.237,0,0,0,.557,2.031,1.848,1.848,0,0,0,1.543.713,1.856,1.856,0,0,0,1.528-.752A3.134,3.134,0,0,0,51.914-4.863ZM59.1-11.582a1.8,1.8,0,0,1-1.279-.464,1.5,1.5,0,0,1-.5-1.138,1.441,1.441,0,0,1,.5-1.133,1.862,1.862,0,0,1,1.279-.439,1.858,1.858,0,0,1,1.284.439,1.448,1.448,0,0,1,.493,1.133,1.489,1.489,0,0,1-.493,1.152A1.833,1.833,0,0,1,59.1-11.582ZM60.625,0H57.539V-10h3.086ZM71.543,0h-2.92V-1.436h-.039A3.259,3.259,0,0,1,65.605.244a3.116,3.116,0,0,1-2.29-.825,2.957,2.957,0,0,1-.835-2.2q0-2.91,3.447-3.359L68.643-6.5q0-1.641-1.777-1.641a6.067,6.067,0,0,0-3.4,1.064V-9.4a7.646,7.646,0,0,1,1.763-.586,9.266,9.266,0,0,1,2.036-.254q4.277,0,4.277,4.268Zm-2.9-4.062v-.674L66.826-4.5q-1.5.2-1.5,1.357a1.122,1.122,0,0,0,.366.864,1.407,1.407,0,0,0,.991.337,1.827,1.827,0,0,0,1.416-.6A2.169,2.169,0,0,0,68.643-4.062Z" transform="translate(700 4039.021)" fill="#fff"/>
    <path id="Trazado_20342" data-name="Trazado 20342" d="M-45.332,0V-14h4.961q7.461,0,7.461,6.826a6.9,6.9,0,0,1-2.036,5.225A7.508,7.508,0,0,1-40.371,0Zm3.154-11.436v8.877h1.563A4.222,4.222,0,0,0-37.4-3.789a4.669,4.669,0,0,0,1.167-3.35,4.235,4.235,0,0,0-1.157-3.149,4.412,4.412,0,0,0-3.247-1.147Zm12.852-.146a1.8,1.8,0,0,1-1.279-.464,1.5,1.5,0,0,1-.5-1.138,1.441,1.441,0,0,1,.5-1.133,1.862,1.862,0,0,1,1.279-.439,1.858,1.858,0,0,1,1.284.439,1.448,1.448,0,0,1,.493,1.133,1.489,1.489,0,0,1-.493,1.152A1.833,1.833,0,0,1-29.326-11.582ZM-27.8,0h-3.086V-10H-27.8Zm9.121-7.217a2.677,2.677,0,0,0-1.3-.3,1.871,1.871,0,0,0-1.572.737,3.217,3.217,0,0,0-.566,2.007V0h-3.086V-10h3.086v1.855h.039a2.67,2.67,0,0,1,2.637-2.031,1.987,1.987,0,0,1,.762.117Zm10.342,3.1h-6.523q.156,2.178,2.744,2.178a5.357,5.357,0,0,0,2.9-.781V-.5a7.619,7.619,0,0,1-3.6.742A5.073,5.073,0,0,1-16.582-1.1,5.073,5.073,0,0,1-17.92-4.844a5.352,5.352,0,0,1,1.445-3.945,4.815,4.815,0,0,1,3.555-1.455,4.37,4.37,0,0,1,3.384,1.3A5,5,0,0,1-8.34-5.42ZM-11.2-6.016q0-2.148-1.738-2.148a1.66,1.66,0,0,0-1.284.615,2.792,2.792,0,0,0-.659,1.533ZM1.074-.361A6.1,6.1,0,0,1-1.943.244a5.1,5.1,0,0,1-3.73-1.4A4.823,4.823,0,0,1-7.1-4.756,5.313,5.313,0,0,1-5.571-8.774a5.648,5.648,0,0,1,4.087-1.47,5.244,5.244,0,0,1,2.559.469v2.617a3.518,3.518,0,0,0-2.158-.723,2.844,2.844,0,0,0-2.1.776,2.9,2.9,0,0,0-.776,2.144,2.85,2.85,0,0,0,.742,2.085,2.728,2.728,0,0,0,2.041.757,4.073,4.073,0,0,0,2.256-.723Zm8.066.244A4.561,4.561,0,0,1,7.08.244q-3.262,0-3.262-3.389v-4.58H2.2V-10H3.818v-2.158l3.076-.879V-10H9.141v2.275H6.895v4.043q0,1.563,1.24,1.563A2.091,2.091,0,0,0,9.141-2.4Zm3.3-11.465a1.8,1.8,0,0,1-1.279-.464,1.5,1.5,0,0,1-.5-1.138,1.441,1.441,0,0,1,.5-1.133,1.862,1.862,0,0,1,1.279-.439,1.858,1.858,0,0,1,1.284.439,1.448,1.448,0,0,1,.493,1.133,1.489,1.489,0,0,1-.493,1.152A1.833,1.833,0,0,1,12.441-11.582ZM13.965,0H10.879V-10h3.086ZM26.084-10,22.363,0H18.848L15.3-10h3.3l1.738,6.162a9,9,0,0,1,.342,1.777h.039a10.086,10.086,0,0,1,.361-1.719L22.861-10ZM31.973.244a5.376,5.376,0,0,1-3.931-1.4,5.081,5.081,0,0,1-1.431-3.8A5.081,5.081,0,0,1,28.1-8.843a5.609,5.609,0,0,1,4.014-1.4,5.311,5.311,0,0,1,3.906,1.4,4.981,4.981,0,0,1,1.416,3.706A5.288,5.288,0,0,1,35.972-1.2,5.435,5.435,0,0,1,31.973.244Zm.078-8.125a2.058,2.058,0,0,0-1.7.752A3.316,3.316,0,0,0,29.746-5q0,2.881,2.324,2.881,2.217,0,2.217-2.959Q34.287-7.881,32.051-7.881ZM38.779-.264v-2.5A6.57,6.57,0,0,0,40.3-2.08a5.035,5.035,0,0,0,1.431.225,3.068,3.068,0,0,0,1.294-.225.726.726,0,0,0,.474-.684.632.632,0,0,0-.215-.488,2,2,0,0,0-.552-.342,6.261,6.261,0,0,0-.737-.264q-.4-.117-.771-.264a7.392,7.392,0,0,1-1.05-.483,3.034,3.034,0,0,1-.762-.6A2.361,2.361,0,0,1,38.94-6a3.157,3.157,0,0,1-.161-1.064,2.74,2.74,0,0,1,.366-1.445,2.991,2.991,0,0,1,.977-.991,4.462,4.462,0,0,1,1.4-.566,7.281,7.281,0,0,1,1.636-.181,9.076,9.076,0,0,1,1.348.1,10.058,10.058,0,0,1,1.348.3v2.383a4.87,4.87,0,0,0-1.255-.513,5.294,5.294,0,0,0-1.313-.171,2.91,2.91,0,0,0-.571.054,1.882,1.882,0,0,0-.474.156.87.87,0,0,0-.322.264A.607.607,0,0,0,41.8-7.3a.677.677,0,0,0,.176.469,1.527,1.527,0,0,0,.459.337,4.531,4.531,0,0,0,.63.254q.347.112.688.229a8.951,8.951,0,0,1,1.113.469,3.56,3.56,0,0,1,.854.6,2.339,2.339,0,0,1,.547.8,2.846,2.846,0,0,1,.19,1.094,2.853,2.853,0,0,1-.386,1.519A3.088,3.088,0,0,1,45.044-.513a4.65,4.65,0,0,1-1.475.576,8.175,8.175,0,0,1-1.733.181A8.936,8.936,0,0,1,38.779-.264Z" transform="translate(700 4133.021)" fill="#fff"/>
    <path id="Trazado_20344" data-name="Trazado 20344" d="M-25.405-.5a9.235,9.235,0,0,1-4,.742A6.749,6.749,0,0,1-34.478-1.65,6.925,6.925,0,0,1-36.323-6.7a7.4,7.4,0,0,1,2.075-5.449,7.259,7.259,0,0,1,5.386-2.09,10.072,10.072,0,0,1,3.457.518v3.037a6.126,6.126,0,0,0-3.2-.84,4.249,4.249,0,0,0-3.184,1.24A4.6,4.6,0,0,0-33-6.924,4.514,4.514,0,0,0-31.86-3.687,4.036,4.036,0,0,0-28.784-2.48a6.561,6.561,0,0,0,3.379-.9Zm5.225.5h-3.086V-14.8h3.086Zm4.16-11.582a1.8,1.8,0,0,1-1.279-.464,1.5,1.5,0,0,1-.5-1.138,1.441,1.441,0,0,1,.5-1.133,1.862,1.862,0,0,1,1.279-.439,1.858,1.858,0,0,1,1.284.439,1.448,1.448,0,0,1,.493,1.133,1.489,1.489,0,0,1-.493,1.152A1.833,1.833,0,0,1-16.021-11.582ZM-14.5,0h-3.086V-10H-14.5ZM-2.915-4.121H-9.438q.156,2.178,2.744,2.178a5.357,5.357,0,0,0,2.9-.781V-.5A7.619,7.619,0,0,1-7.4.244,5.073,5.073,0,0,1-11.157-1.1,5.073,5.073,0,0,1-12.5-4.844,5.352,5.352,0,0,1-11.05-8.789,4.815,4.815,0,0,1-7.5-10.244a4.37,4.37,0,0,1,3.384,1.3,5,5,0,0,1,1.2,3.525ZM-5.776-6.016q0-2.148-1.738-2.148A1.66,1.66,0,0,0-8.8-7.549a2.792,2.792,0,0,0-.659,1.533ZM8.579,0H5.5V-5.557q0-2.324-1.66-2.324a1.647,1.647,0,0,0-1.318.615A2.344,2.344,0,0,0,2.007-5.7V0H-1.079V-10H2.007v1.582h.039a3.536,3.536,0,0,1,3.213-1.826q3.32,0,3.32,4.121Zm8.486-.117A4.561,4.561,0,0,1,15,.244q-3.262,0-3.262-3.389v-4.58H10.122V-10h1.621v-2.158l3.076-.879V-10h2.246v2.275H14.819v4.043q0,1.563,1.24,1.563A2.091,2.091,0,0,0,17.065-2.4Zm10.645-4H21.187q.156,2.178,2.744,2.178a5.357,5.357,0,0,0,2.9-.781V-.5a7.619,7.619,0,0,1-3.6.742A5.073,5.073,0,0,1,19.468-1.1,5.073,5.073,0,0,1,18.13-4.844a5.352,5.352,0,0,1,1.445-3.945,4.815,4.815,0,0,1,3.555-1.455,4.37,4.37,0,0,1,3.384,1.3,5,5,0,0,1,1.2,3.525ZM24.849-6.016q0-2.148-1.738-2.148a1.66,1.66,0,0,0-1.284.615,2.792,2.792,0,0,0-.659,1.533ZM28.892-.264v-2.5a6.57,6.57,0,0,0,1.519.684,5.035,5.035,0,0,0,1.431.225,3.068,3.068,0,0,0,1.294-.225.726.726,0,0,0,.474-.684.632.632,0,0,0-.215-.488,2,2,0,0,0-.552-.342,6.261,6.261,0,0,0-.737-.264q-.4-.117-.771-.264a7.392,7.392,0,0,1-1.05-.483,3.034,3.034,0,0,1-.762-.6A2.361,2.361,0,0,1,29.053-6a3.157,3.157,0,0,1-.161-1.064,2.74,2.74,0,0,1,.366-1.445,2.991,2.991,0,0,1,.977-.991,4.462,4.462,0,0,1,1.4-.566,7.281,7.281,0,0,1,1.636-.181,9.076,9.076,0,0,1,1.348.1,10.058,10.058,0,0,1,1.348.3v2.383a4.87,4.87,0,0,0-1.255-.513,5.294,5.294,0,0,0-1.313-.171,2.91,2.91,0,0,0-.571.054,1.882,1.882,0,0,0-.474.156.87.87,0,0,0-.322.264.607.607,0,0,0-.117.366.677.677,0,0,0,.176.469,1.527,1.527,0,0,0,.459.337,4.531,4.531,0,0,0,.63.254q.347.112.688.229a8.951,8.951,0,0,1,1.113.469,3.56,3.56,0,0,1,.854.6,2.339,2.339,0,0,1,.547.8,2.846,2.846,0,0,1,.19,1.094,2.853,2.853,0,0,1-.386,1.519A3.088,3.088,0,0,1,35.156-.513a4.65,4.65,0,0,1-1.475.576,8.175,8.175,0,0,1-1.733.181A8.936,8.936,0,0,1,28.892-.264Z" transform="translate(700 3851)" fill="#fff"/>
    <g id="Grupo_26362" data-name="Grupo 26362" transform="translate(-5.235)" opacity="0.4">
      <g id="_028-employees" data-name="028-employees" transform="translate(552.235 4007.89)">
        <g id="Grupo_26198" data-name="Grupo 26198" transform="translate(28.257 33.326)">
          <g id="Grupo_26197" data-name="Grupo 26197">
            <path id="Trazado_20258" data-name="Trazado 20258" d="M283.075,361.686h-2.838a.758.758,0,0,0,0,1.517h2.838a.758.758,0,0,0,0-1.517Z" transform="translate(-279.479 -361.686)" fill="#fff"/>
          </g>
        </g>
        <g id="Grupo_26200" data-name="Grupo 26200" transform="translate(22.317 0)">
          <g id="Grupo_26199" data-name="Grupo 26199">
            <path id="Trazado_20259" data-name="Trazado 20259" d="M246.968,57.274l-4.129-1.593-2.105-2.105a.755.755,0,0,0-.487-.22V51.681a7.82,7.82,0,0,0,1.984-3.907,2.169,2.169,0,0,0,.532-.042,2.244,2.244,0,0,0,1.741-2.226v-.553a2.273,2.273,0,0,0-.668-1.613c.67-3.642.118-6.61-1.6-8.6-1.664-1.921-4.345-2.84-7.752-2.655a10.156,10.156,0,0,0-5.824,2.148,4,4,0,0,0-1.56.53,4.036,4.036,0,0,0-1.846,3.754,18.936,18.936,0,0,0,.526,4.4,2.248,2.248,0,0,0-1.235,2.035v.544a2.244,2.244,0,0,0,1.741,2.226,2.165,2.165,0,0,0,.532.042,7.821,7.821,0,0,0,1.984,3.907v1.675a.755.755,0,0,0-.487.22L226.2,55.681l-4.129,1.593a5.021,5.021,0,0,0-1.014.531.758.758,0,1,0,.852,1.254,3.508,3.508,0,0,1,.708-.37l3.832-1.478,2.93,4.4a2.169,2.169,0,0,0,1.6.959c.072.007.145.011.217.011a2.164,2.164,0,0,0,1.067-.282l-.629,14.263a.758.758,0,0,0,.724.791h.034a.758.758,0,0,0,.757-.725l.584-13.239h1.574l.584,13.239a.758.758,0,0,0,.757.725h.034a.758.758,0,0,0,.724-.791l-.629-14.263a2.164,2.164,0,0,0,1.067.282c.072,0,.144,0,.217-.011a2.169,2.169,0,0,0,1.6-.959l2.93-4.4,3.832,1.478a3.49,3.49,0,0,1,1.364.951l-2.622,2.622a4.982,4.982,0,0,0-1.469,3.546V76.589a.758.758,0,1,0,1.517,0V65.807a3.475,3.475,0,0,1,1.025-2.474l2.3-2.3a3.5,3.5,0,0,1,.121,1.06l-.587,14.466a.758.758,0,0,0,.727.789h.031a.758.758,0,0,0,.757-.727l.588-14.466A5.013,5.013,0,0,0,246.968,57.274ZM228.3,47.461a1.476,1.476,0,0,0-1.536-1.2.651.651,0,0,1-.176-.012.735.735,0,0,1-.529-.74v-.545a.719.719,0,0,1,.535-.721.659.659,0,0,1,.649.249,1.058,1.058,0,0,0,1.453.228,5.506,5.506,0,0,0,1.243-1.216.758.758,0,0,0-1.217-.9,4.025,4.025,0,0,1-.59.638,2.169,2.169,0,0,0-.822-.439,17.439,17.439,0,0,1-.542-4.274,2.657,2.657,0,0,1,1.064-2.425,2.461,2.461,0,0,1,1.134-.364.765.765,0,0,0,.523-.209,8.542,8.542,0,0,1,5.075-1.92c2.922-.158,5.178.58,6.524,2.134s1.808,3.97,1.318,6.98a3.287,3.287,0,0,0-.647.045l-.712-1.711a.759.759,0,0,0-.892-.442c-.07.018-7.073,1.794-10.009-1.862a.758.758,0,1,0-1.182.95c3,3.733,8.948,2.921,10.928,2.525l.551,1.323a1.246,1.246,0,0,0,1.44.738,1.637,1.637,0,0,1,.567-.042.715.715,0,0,1,.538.712v.553a.735.735,0,0,1-.529.74.643.643,0,0,1-.176.012,1.477,1.477,0,0,0-1.536,1.2,6.328,6.328,0,0,1-12.447,0Zm3.364,13.4a.661.661,0,0,1-1.017-.1l-2.952-4.428,1.187-1.187,4.532,3.965Zm2.139,1,.046-1.042.674-.674.674.674.046,1.042Zm.72-3.8-4.208-3.682V52.938a7.848,7.848,0,0,0,8.415,0v1.451Zm3.876,2.694a.661.661,0,0,1-1.017.1l-1.75-1.75,4.532-3.965,1.187,1.187Z" transform="translate(-220.729 -32.066)" fill="#fff"/>
          </g>
        </g>
        <g id="Grupo_26202" data-name="Grupo 26202" transform="translate(0 0)">
          <g id="Grupo_26201" data-name="Grupo 26201">
            <path id="Trazado_20260" data-name="Trazado 20260" d="M24.048,61.245l-3.7-1.616-2.024-2.024a.754.754,0,0,0-.487-.22V56.193a7.832,7.832,0,0,0,3.4-5.1,2.179,2.179,0,0,0,.6-.057,2.257,2.257,0,0,0,1.674-2.211v-.553a2.261,2.261,0,0,0-.972-1.865,8.575,8.575,0,0,0,.262-2.1,8.841,8.841,0,0,0-4.258-7.5,4.916,4.916,0,0,0-5.014-4.747A4.916,4.916,0,0,0,8.514,36.81a8.841,8.841,0,0,0-4.258,7.5A8.574,8.574,0,0,0,4.517,46.4a2.266,2.266,0,0,0-.97,1.879v.545a2.257,2.257,0,0,0,1.674,2.211,2.174,2.174,0,0,0,.6.057,7.832,7.832,0,0,0,3.4,5.1v1.193a.754.754,0,0,0-.487.22L6.711,59.629l-3.7,1.616a5.046,5.046,0,0,0-3,4.808L.453,76.619a.758.758,0,0,0,.757.726h.033a.758.758,0,0,0,.726-.79L1.52,65.99A3.492,3.492,0,0,1,2,64.08l1.99,2.388a4.215,4.215,0,0,1,.975,2.694v7.425a.758.758,0,0,0,1.517,0V69.162A5.735,5.735,0,0,0,5.156,65.5L3.04,62.958a3.439,3.439,0,0,1,.575-.323l3.227-1.409,2.28,3.7a1.468,1.468,0,0,0,2.2.347l1.445-1.233V76.586a.758.758,0,1,0,1.517,0V64.042l1.445,1.233a1.468,1.468,0,0,0,2.2-.347l2.28-3.7,3.227,1.409a3.442,3.442,0,0,1,.575.323L21.9,65.5a5.735,5.735,0,0,0-1.327,3.665v7.425a.758.758,0,1,0,1.517,0V69.162a4.216,4.216,0,0,1,.975-2.694l1.99-2.388a3.492,3.492,0,0,1,.481,1.91l-.448,10.565a.758.758,0,0,0,.726.79h.033a.758.758,0,0,0,.757-.726l.448-10.565A5.047,5.047,0,0,0,24.048,61.245ZM13.528,33.58A3.474,3.474,0,0,1,16.905,36a9.616,9.616,0,0,0-6.754,0A3.474,3.474,0,0,1,13.528,33.58ZM7.3,50.781a1.477,1.477,0,0,0-1.535-1.2.655.655,0,0,1-.2-.017.741.741,0,0,1-.507-.735v-.545A.719.719,0,0,1,5.6,47.56a.659.659,0,0,1,.649.248,1.057,1.057,0,0,0,1.453.228,5.5,5.5,0,0,0,1.227-1.194.758.758,0,0,0-1.213-.911,4.02,4.02,0,0,1-.579.622,2.173,2.173,0,0,0-1.144-.5,7.062,7.062,0,0,1-.22-1.743,7.592,7.592,0,0,1,7.755-7.4,7.592,7.592,0,0,1,7.755,7.4,7.06,7.06,0,0,1-.219,1.739,3.478,3.478,0,0,0-.59.1l-.57-.469a1.456,1.456,0,0,0-1.012-.332c-1.115.066-6.823.217-9.751-3.288a.758.758,0,1,0-1.164.972,10.837,10.837,0,0,0,6.3,3.474,18.559,18.559,0,0,0,4.682.357l.889.731a.757.757,0,0,0,.862.07,1.673,1.673,0,0,1,.747-.1.715.715,0,0,1,.538.712v.553a.74.74,0,0,1-.507.735.648.648,0,0,1-.2.017,1.478,1.478,0,0,0-1.536,1.2,6.328,6.328,0,0,1-12.447,0Zm3.079,13.3L8.1,60.382l1.168-1.168,3.14,3.14Zm3.144-2.759-2.789-2.789V56.968a7.839,7.839,0,0,0,5.578,0v1.569Zm3.144,2.759-2.028-1.73,3.14-3.14,1.168,1.168Z" transform="translate(0 -32.063)" fill="#fff"/>
          </g>
        </g>
        <g id="Grupo_26204" data-name="Grupo 26204" transform="translate(7.804 36.671)">
          <g id="Grupo_26203" data-name="Grupo 26203">
            <path id="Trazado_20261" data-name="Trazado 20261" d="M80.071,394.766H77.942a.758.758,0,1,0,0,1.517h2.128a.758.758,0,1,0,0-1.517Z" transform="translate(-77.184 -394.766)" fill="#fff"/>
          </g>
        </g>
      </g>
      <g id="_028-employees-2" data-name="028-employees" transform="translate(807.342 4007.89)">
        <g id="Grupo_26198-2" data-name="Grupo 26198" transform="translate(28.257 33.326)">
          <g id="Grupo_26197-2" data-name="Grupo 26197">
            <path id="Trazado_20258-2" data-name="Trazado 20258" d="M283.075,361.686h-2.838a.758.758,0,0,0,0,1.517h2.838a.758.758,0,0,0,0-1.517Z" transform="translate(-279.479 -361.686)" fill="#fff"/>
          </g>
        </g>
        <g id="Grupo_26200-2" data-name="Grupo 26200" transform="translate(22.317 0)">
          <g id="Grupo_26199-2" data-name="Grupo 26199">
            <path id="Trazado_20259-2" data-name="Trazado 20259" d="M246.968,57.274l-4.129-1.593-2.105-2.105a.755.755,0,0,0-.487-.22V51.681a7.82,7.82,0,0,0,1.984-3.907,2.169,2.169,0,0,0,.532-.042,2.244,2.244,0,0,0,1.741-2.226v-.553a2.273,2.273,0,0,0-.668-1.613c.67-3.642.118-6.61-1.6-8.6-1.664-1.921-4.345-2.84-7.752-2.655a10.156,10.156,0,0,0-5.824,2.148,4,4,0,0,0-1.56.53,4.036,4.036,0,0,0-1.846,3.754,18.936,18.936,0,0,0,.526,4.4,2.248,2.248,0,0,0-1.235,2.035v.544a2.244,2.244,0,0,0,1.741,2.226,2.165,2.165,0,0,0,.532.042,7.821,7.821,0,0,0,1.984,3.907v1.675a.755.755,0,0,0-.487.22L226.2,55.681l-4.129,1.593a5.021,5.021,0,0,0-1.014.531.758.758,0,1,0,.852,1.254,3.508,3.508,0,0,1,.708-.37l3.832-1.478,2.93,4.4a2.169,2.169,0,0,0,1.6.959c.072.007.145.011.217.011a2.164,2.164,0,0,0,1.067-.282l-.629,14.263a.758.758,0,0,0,.724.791h.034a.758.758,0,0,0,.757-.725l.584-13.239h1.574l.584,13.239a.758.758,0,0,0,.757.725h.034a.758.758,0,0,0,.724-.791l-.629-14.263a2.164,2.164,0,0,0,1.067.282c.072,0,.144,0,.217-.011a2.169,2.169,0,0,0,1.6-.959l2.93-4.4,3.832,1.478a3.49,3.49,0,0,1,1.364.951l-2.622,2.622a4.982,4.982,0,0,0-1.469,3.546V76.589a.758.758,0,1,0,1.517,0V65.807a3.475,3.475,0,0,1,1.025-2.474l2.3-2.3a3.5,3.5,0,0,1,.121,1.06l-.587,14.466a.758.758,0,0,0,.727.789h.031a.758.758,0,0,0,.757-.727l.588-14.466A5.013,5.013,0,0,0,246.968,57.274ZM228.3,47.461a1.476,1.476,0,0,0-1.536-1.2.651.651,0,0,1-.176-.012.735.735,0,0,1-.529-.74v-.545a.719.719,0,0,1,.535-.721.659.659,0,0,1,.649.249,1.058,1.058,0,0,0,1.453.228,5.506,5.506,0,0,0,1.243-1.216.758.758,0,0,0-1.217-.9,4.025,4.025,0,0,1-.59.638,2.169,2.169,0,0,0-.822-.439,17.439,17.439,0,0,1-.542-4.274,2.657,2.657,0,0,1,1.064-2.425,2.461,2.461,0,0,1,1.134-.364.765.765,0,0,0,.523-.209,8.542,8.542,0,0,1,5.075-1.92c2.922-.158,5.178.58,6.524,2.134s1.808,3.97,1.318,6.98a3.287,3.287,0,0,0-.647.045l-.712-1.711a.759.759,0,0,0-.892-.442c-.07.018-7.073,1.794-10.009-1.862a.758.758,0,1,0-1.182.95c3,3.733,8.948,2.921,10.928,2.525l.551,1.323a1.246,1.246,0,0,0,1.44.738,1.637,1.637,0,0,1,.567-.042.715.715,0,0,1,.538.712v.553a.735.735,0,0,1-.529.74.643.643,0,0,1-.176.012,1.477,1.477,0,0,0-1.536,1.2,6.328,6.328,0,0,1-12.447,0Zm3.364,13.4a.661.661,0,0,1-1.017-.1l-2.952-4.428,1.187-1.187,4.532,3.965Zm2.139,1,.046-1.042.674-.674.674.674.046,1.042Zm.72-3.8-4.208-3.682V52.938a7.848,7.848,0,0,0,8.415,0v1.451Zm3.876,2.694a.661.661,0,0,1-1.017.1l-1.75-1.75,4.532-3.965,1.187,1.187Z" transform="translate(-220.729 -32.066)" fill="#fff"/>
          </g>
        </g>
        <g id="Grupo_26202-2" data-name="Grupo 26202" transform="translate(0 0)">
          <g id="Grupo_26201-2" data-name="Grupo 26201">
            <path id="Trazado_20260-2" data-name="Trazado 20260" d="M24.048,61.245l-3.7-1.616-2.024-2.024a.754.754,0,0,0-.487-.22V56.193a7.832,7.832,0,0,0,3.4-5.1,2.179,2.179,0,0,0,.6-.057,2.257,2.257,0,0,0,1.674-2.211v-.553a2.261,2.261,0,0,0-.972-1.865,8.575,8.575,0,0,0,.262-2.1,8.841,8.841,0,0,0-4.258-7.5,4.916,4.916,0,0,0-5.014-4.747A4.916,4.916,0,0,0,8.514,36.81a8.841,8.841,0,0,0-4.258,7.5A8.574,8.574,0,0,0,4.517,46.4a2.266,2.266,0,0,0-.97,1.879v.545a2.257,2.257,0,0,0,1.674,2.211,2.174,2.174,0,0,0,.6.057,7.832,7.832,0,0,0,3.4,5.1v1.193a.754.754,0,0,0-.487.22L6.711,59.629l-3.7,1.616a5.046,5.046,0,0,0-3,4.808L.453,76.619a.758.758,0,0,0,.757.726h.033a.758.758,0,0,0,.726-.79L1.52,65.99A3.492,3.492,0,0,1,2,64.08l1.99,2.388a4.215,4.215,0,0,1,.975,2.694v7.425a.758.758,0,0,0,1.517,0V69.162A5.735,5.735,0,0,0,5.156,65.5L3.04,62.958a3.439,3.439,0,0,1,.575-.323l3.227-1.409,2.28,3.7a1.468,1.468,0,0,0,2.2.347l1.445-1.233V76.586a.758.758,0,1,0,1.517,0V64.042l1.445,1.233a1.468,1.468,0,0,0,2.2-.347l2.28-3.7,3.227,1.409a3.442,3.442,0,0,1,.575.323L21.9,65.5a5.735,5.735,0,0,0-1.327,3.665v7.425a.758.758,0,1,0,1.517,0V69.162a4.216,4.216,0,0,1,.975-2.694l1.99-2.388a3.492,3.492,0,0,1,.481,1.91l-.448,10.565a.758.758,0,0,0,.726.79h.033a.758.758,0,0,0,.757-.726l.448-10.565A5.047,5.047,0,0,0,24.048,61.245ZM13.528,33.58A3.474,3.474,0,0,1,16.905,36a9.616,9.616,0,0,0-6.754,0A3.474,3.474,0,0,1,13.528,33.58ZM7.3,50.781a1.477,1.477,0,0,0-1.535-1.2.655.655,0,0,1-.2-.017.741.741,0,0,1-.507-.735v-.545A.719.719,0,0,1,5.6,47.56a.659.659,0,0,1,.649.248,1.057,1.057,0,0,0,1.453.228,5.5,5.5,0,0,0,1.227-1.194.758.758,0,0,0-1.213-.911,4.02,4.02,0,0,1-.579.622,2.173,2.173,0,0,0-1.144-.5,7.062,7.062,0,0,1-.22-1.743,7.592,7.592,0,0,1,7.755-7.4,7.592,7.592,0,0,1,7.755,7.4,7.06,7.06,0,0,1-.219,1.739,3.478,3.478,0,0,0-.59.1l-.57-.469a1.456,1.456,0,0,0-1.012-.332c-1.115.066-6.823.217-9.751-3.288a.758.758,0,1,0-1.164.972,10.837,10.837,0,0,0,6.3,3.474,18.559,18.559,0,0,0,4.682.357l.889.731a.757.757,0,0,0,.862.07,1.673,1.673,0,0,1,.747-.1.715.715,0,0,1,.538.712v.553a.74.74,0,0,1-.507.735.648.648,0,0,1-.2.017,1.478,1.478,0,0,0-1.536,1.2,6.328,6.328,0,0,1-12.447,0Zm3.079,13.3L8.1,60.382l1.168-1.168,3.14,3.14Zm3.144-2.759-2.789-2.789V56.968a7.839,7.839,0,0,0,5.578,0v1.569Zm3.144,2.759-2.028-1.73,3.14-3.14,1.168,1.168Z" transform="translate(0 -32.063)" fill="#fff"/>
          </g>
        </g>
        <g id="Grupo_26204-2" data-name="Grupo 26204" transform="translate(7.804 36.671)">
          <g id="Grupo_26203-2" data-name="Grupo 26203">
            <path id="Trazado_20261-2" data-name="Trazado 20261" d="M80.071,394.766H77.942a.758.758,0,1,0,0,1.517h2.128a.758.758,0,1,0,0-1.517Z" transform="translate(-77.184 -394.766)" fill="#fff"/>
          </g>
        </g>
      </g>
    </g>
    <g id="Grupo_26361" data-name="Grupo 26361" transform="translate(-0.829)" opacity="0.4">
      <g id="_033-speech" data-name="033-speech" transform="translate(593.829 4098.638)">
        <g id="Grupo_26242" data-name="Grupo 26242" transform="translate(0)">
          <g id="Grupo_26241" data-name="Grupo 26241">
            <path id="Trazado_20280" data-name="Trazado 20280" d="M139.729,28.366h-1.673v-6.05a4,4,0,0,0-2.376-3.655L131.274,16.7a.863.863,0,0,1-.512-.788V14.7a6.421,6.421,0,0,0,2.431-5.031V7.97A1.571,1.571,0,0,0,134,6.6V6.432A6.439,6.439,0,0,0,127.572,0h-1.621a6.439,6.439,0,0,0-6.432,6.432v1.5a1.59,1.59,0,0,0,.605,1.274,1.489,1.489,0,0,0,.205.133v.335a6.422,6.422,0,0,0,2.431,5.031v1.21a.863.863,0,0,1-.512.788l-4.406,1.958a4,4,0,0,0-2.375,3.655v6.05h-1.673a1.57,1.57,0,0,0-1.569,1.569v1.621a1.57,1.57,0,0,0,1.569,1.569h3.294V51.007a.758.758,0,1,0,1.517,0V33.125h12.21a.758.758,0,1,0,0-1.517h-17.02a.052.052,0,0,1-.052-.052V29.935a.052.052,0,0,1,.052-.052h25.935a.052.052,0,0,1,.052.052v1.621a.052.052,0,0,1-.052.052h-5.673a.758.758,0,1,0,0,1.517h.863V51.007a.758.758,0,1,0,1.517,0V33.125h3.294a1.57,1.57,0,0,0,1.569-1.569V29.935A1.571,1.571,0,0,0,139.729,28.366ZM121.846,9.673V9.332a4.481,4.481,0,0,0,1.377-.894.758.758,0,0,0-1.029-1.114A2.723,2.723,0,0,1,121.069,8l-.02,0a.154.154,0,0,1-.013-.069v-1.5a4.921,4.921,0,0,1,4.915-4.915h1.621a4.921,4.921,0,0,1,4.915,4.915V6.6a.049.049,0,0,1-.034.05c-4.541.9-6.818-.793-7.586-1.562a.758.758,0,0,0-1.072,1.072c2.355,2.355,5.791,2.4,7.883,2.146v1.37a4.915,4.915,0,1,1-9.83,0Zm-2.327,18.693h-2.536v-6.05h0a2.477,2.477,0,0,1,.015-.261l2.03,2.03a1.662,1.662,0,0,1,.49,1.183Zm6.484,0h-4.967v-3.1a3.169,3.169,0,0,0-.934-2.255l-2.421-2.421a2.477,2.477,0,0,1,.777-.546l4.332-1.925L126,21.334Zm-2.061-11.238a2.375,2.375,0,0,0,.335-1.214v-.309a6.426,6.426,0,0,0,4.967,0v.308a2.375,2.375,0,0,0,.335,1.214l-2.819,2.819Zm8.544,8.14v3.1H127.52V21.334l3.213-3.213,4.332,1.925a2.473,2.473,0,0,1,.777.546l-2.421,2.421A3.169,3.169,0,0,0,132.487,25.269Zm4.052,3.1H134v-3.1a1.662,1.662,0,0,1,.49-1.183l2.03-2.03a2.443,2.443,0,0,1,.015.261Z" transform="translate(-112.225)" fill="#fff"/>
          </g>
        </g>
        <g id="Grupo_26244" data-name="Grupo 26244" transform="translate(9.726 35.661)">
          <g id="Grupo_26243" data-name="Grupo 26243">
            <path id="Trazado_20281" data-name="Trazado 20281" d="M216.471,352.709h-6.484a1.57,1.57,0,0,0-1.569,1.569v3.242a1.57,1.57,0,0,0,1.569,1.569h6.484a1.57,1.57,0,0,0,1.569-1.569v-3.242A1.57,1.57,0,0,0,216.471,352.709Zm.052,4.811a.052.052,0,0,1-.052.052h-6.484a.052.052,0,0,1-.052-.052v-3.242a.052.052,0,0,1,.052-.052h6.484a.052.052,0,0,1,.052.052Z" transform="translate(-208.419 -352.709)" fill="#fff"/>
          </g>
        </g>
      </g>
      <g id="_033-speech-2" data-name="033-speech" transform="translate(779.098 4098.638)">
        <g id="Grupo_26242-2" data-name="Grupo 26242" transform="translate(0)">
          <g id="Grupo_26241-2" data-name="Grupo 26241">
            <path id="Trazado_20280-2" data-name="Trazado 20280" d="M139.729,28.366h-1.673v-6.05a4,4,0,0,0-2.376-3.655L131.274,16.7a.863.863,0,0,1-.512-.788V14.7a6.421,6.421,0,0,0,2.431-5.031V7.97A1.571,1.571,0,0,0,134,6.6V6.432A6.439,6.439,0,0,0,127.572,0h-1.621a6.439,6.439,0,0,0-6.432,6.432v1.5a1.59,1.59,0,0,0,.605,1.274,1.489,1.489,0,0,0,.205.133v.335a6.422,6.422,0,0,0,2.431,5.031v1.21a.863.863,0,0,1-.512.788l-4.406,1.958a4,4,0,0,0-2.375,3.655v6.05h-1.673a1.57,1.57,0,0,0-1.569,1.569v1.621a1.57,1.57,0,0,0,1.569,1.569h3.294V51.007a.758.758,0,1,0,1.517,0V33.125h12.21a.758.758,0,1,0,0-1.517h-17.02a.052.052,0,0,1-.052-.052V29.935a.052.052,0,0,1,.052-.052h25.935a.052.052,0,0,1,.052.052v1.621a.052.052,0,0,1-.052.052h-5.673a.758.758,0,1,0,0,1.517h.863V51.007a.758.758,0,1,0,1.517,0V33.125h3.294a1.57,1.57,0,0,0,1.569-1.569V29.935A1.571,1.571,0,0,0,139.729,28.366ZM121.846,9.673V9.332a4.481,4.481,0,0,0,1.377-.894.758.758,0,0,0-1.029-1.114A2.723,2.723,0,0,1,121.069,8l-.02,0a.154.154,0,0,1-.013-.069v-1.5a4.921,4.921,0,0,1,4.915-4.915h1.621a4.921,4.921,0,0,1,4.915,4.915V6.6a.049.049,0,0,1-.034.05c-4.541.9-6.818-.793-7.586-1.562a.758.758,0,0,0-1.072,1.072c2.355,2.355,5.791,2.4,7.883,2.146v1.37a4.915,4.915,0,1,1-9.83,0Zm-2.327,18.693h-2.536v-6.05h0a2.477,2.477,0,0,1,.015-.261l2.03,2.03a1.662,1.662,0,0,1,.49,1.183Zm6.484,0h-4.967v-3.1a3.169,3.169,0,0,0-.934-2.255l-2.421-2.421a2.477,2.477,0,0,1,.777-.546l4.332-1.925L126,21.334Zm-2.061-11.238a2.375,2.375,0,0,0,.335-1.214v-.309a6.426,6.426,0,0,0,4.967,0v.308a2.375,2.375,0,0,0,.335,1.214l-2.819,2.819Zm8.544,8.14v3.1H127.52V21.334l3.213-3.213,4.332,1.925a2.473,2.473,0,0,1,.777.546l-2.421,2.421A3.169,3.169,0,0,0,132.487,25.269Zm4.052,3.1H134v-3.1a1.662,1.662,0,0,1,.49-1.183l2.03-2.03a2.443,2.443,0,0,1,.015.261Z" transform="translate(-112.225)" fill="#fff"/>
          </g>
        </g>
        <g id="Grupo_26244-2" data-name="Grupo 26244" transform="translate(9.726 35.661)">
          <g id="Grupo_26243-2" data-name="Grupo 26243">
            <path id="Trazado_20281-2" data-name="Trazado 20281" d="M216.471,352.709h-6.484a1.57,1.57,0,0,0-1.569,1.569v3.242a1.57,1.57,0,0,0,1.569,1.569h6.484a1.57,1.57,0,0,0,1.569-1.569v-3.242A1.57,1.57,0,0,0,216.471,352.709Zm.052,4.811a.052.052,0,0,1-.052.052h-6.484a.052.052,0,0,1-.052-.052v-3.242a.052.052,0,0,1,.052-.052h6.484a.052.052,0,0,1,.052.052Z" transform="translate(-208.419 -352.709)" fill="#fff"/>
          </g>
        </g>
      </g>
    </g>
    <g id="Grupo_26363" data-name="Grupo 26363" transform="translate(-0.224)" opacity="0.4">
      <g id="_042-telemarketer-1" data-name="042-telemarketer-1" transform="translate(519.224 3910.627)">
        <g id="Grupo_26305" data-name="Grupo 26305" transform="translate(0)">
          <g id="Grupo_26304" data-name="Grupo 26304">
            <path id="Trazado_20312" data-name="Trazado 20312" d="M111.992,28.858,107.6,27.3a.755.755,0,0,0-.193-.33l-2.431-2.431a.759.759,0,0,0-.578-.221h-.006V22.245a8.847,8.847,0,0,0,2.288-4.519h1a2.382,2.382,0,0,0,2.379-2.379V12.915a2.382,2.382,0,0,0-2.379-2.379h-.052V7.491a6.733,6.733,0,0,0-2.912-5.366,11.816,11.816,0,0,0-13.522,0A6.734,6.734,0,0,0,88.28,7.491v3.045h-.052a2.382,2.382,0,0,0-2.379,2.379v2.431a2.382,2.382,0,0,0,2.379,2.379h1a8.846,8.846,0,0,0,2.292,4.523v2.067h-.01a.76.76,0,0,0-.578.221L88.5,26.968a.757.757,0,0,0-.194.332l-4.389,1.559a5.6,5.6,0,0,0-3.735,5.522l.667,16.658a.758.758,0,0,0,.757.728h.031a.758.758,0,0,0,.727-.788L81.7,34.319a4.124,4.124,0,0,1,.215-1.495l2.732,2.732a4.077,4.077,0,0,1,1.2,2.9V51.007a.758.758,0,1,0,1.517,0V38.459a5.584,5.584,0,0,0-1.646-3.975L82.7,31.462a4.107,4.107,0,0,1,1.73-1.175L88.893,28.7l2.62,4.192a2.379,2.379,0,0,0,3.445.642L96.4,32.452l.326.408a1.569,1.569,0,0,0,2.45,0l.326-.408,1.445,1.084a2.379,2.379,0,0,0,3.445-.642l2.621-4.193,4.469,1.587a4.106,4.106,0,0,1,1.73,1.175l-3.022,3.022a5.584,5.584,0,0,0-1.646,3.975V51.007a.758.758,0,1,0,1.517,0V38.459a4.077,4.077,0,0,1,1.2-2.9L114,32.824a4.125,4.125,0,0,1,.215,1.495l-.667,16.658a.758.758,0,0,0,.727.788h.031a.758.758,0,0,0,.757-.728l.667-16.658A5.6,5.6,0,0,0,111.992,28.858Zm-5.175-16.805h.863a.864.864,0,0,1,.863.863v2.431a.864.864,0,0,1-.863.863h-.863ZM89.091,16.209h-.863a.864.864,0,0,1-.863-.863V12.915a.864.864,0,0,1,.863-.863h.863Zm1.517-.052v-4.1h.314a1.561,1.561,0,0,0,1.457-.986A.758.758,0,1,0,90.97,10.5a.052.052,0,0,1-.048.033H89.8V7.491c0-3.295,3.659-5.975,8.157-5.975s8.157,2.68,8.157,5.975v3.045h-1.124a.052.052,0,0,1-.048-.033l-1.01-2.524a2.368,2.368,0,0,0-2.209-1.5H94.188a2.388,2.388,0,0,0-2.052,1.175.758.758,0,1,0,1.308.767A.865.865,0,0,1,94.188,8h7.531a.858.858,0,0,1,.8.542l1.01,2.524a1.561,1.561,0,0,0,1.457.986h.314v3.294c0,2.225-3.364,4.1-7.346,4.1a.758.758,0,0,0,0,1.517,11.467,11.467,0,0,0,6.769-1.957,7.346,7.346,0,0,1-14.116-2.854Zm3.44,16.165a.863.863,0,0,1-1.249-.233L90,27.613l1.406-1.406,4.048,5.059Zm3.947-.41a.052.052,0,0,1-.081,0L93.039,25.82V23.529a8.845,8.845,0,0,0,9.834,0v2.288Zm5.114.177a.863.863,0,0,1-1.249.233l-1.407-1.055,4.047-5.059,1.406,1.406Z" transform="translate(-80.179)" fill="#fff"/>
          </g>
        </g>
        <g id="Grupo_26307" data-name="Grupo 26307" transform="translate(8.911 40.523)">
          <g id="Grupo_26306" data-name="Grupo 26306">
            <path id="Trazado_20313" data-name="Trazado 20313" d="M173.94,400.807h-4.863a.758.758,0,1,0,0,1.517h4.863a.758.758,0,0,0,0-1.517Z" transform="translate(-168.319 -400.807)" fill="#fff"/>
          </g>
        </g>
      </g>
      <g id="_042-telemarketer-1-2" data-name="042-telemarketer-1" transform="translate(845.224 3910.627)">
        <g id="Grupo_26305-2" data-name="Grupo 26305" transform="translate(0)">
          <g id="Grupo_26304-2" data-name="Grupo 26304">
            <path id="Trazado_20312-2" data-name="Trazado 20312" d="M111.992,28.858,107.6,27.3a.755.755,0,0,0-.193-.33l-2.431-2.431a.759.759,0,0,0-.578-.221h-.006V22.245a8.847,8.847,0,0,0,2.288-4.519h1a2.382,2.382,0,0,0,2.379-2.379V12.915a2.382,2.382,0,0,0-2.379-2.379h-.052V7.491a6.733,6.733,0,0,0-2.912-5.366,11.816,11.816,0,0,0-13.522,0A6.734,6.734,0,0,0,88.28,7.491v3.045h-.052a2.382,2.382,0,0,0-2.379,2.379v2.431a2.382,2.382,0,0,0,2.379,2.379h1a8.846,8.846,0,0,0,2.292,4.523v2.067h-.01a.76.76,0,0,0-.578.221L88.5,26.968a.757.757,0,0,0-.194.332l-4.389,1.559a5.6,5.6,0,0,0-3.735,5.522l.667,16.658a.758.758,0,0,0,.757.728h.031a.758.758,0,0,0,.727-.788L81.7,34.319a4.124,4.124,0,0,1,.215-1.495l2.732,2.732a4.077,4.077,0,0,1,1.2,2.9V51.007a.758.758,0,1,0,1.517,0V38.459a5.584,5.584,0,0,0-1.646-3.975L82.7,31.462a4.107,4.107,0,0,1,1.73-1.175L88.893,28.7l2.62,4.192a2.379,2.379,0,0,0,3.445.642L96.4,32.452l.326.408a1.569,1.569,0,0,0,2.45,0l.326-.408,1.445,1.084a2.379,2.379,0,0,0,3.445-.642l2.621-4.193,4.469,1.587a4.106,4.106,0,0,1,1.73,1.175l-3.022,3.022a5.584,5.584,0,0,0-1.646,3.975V51.007a.758.758,0,1,0,1.517,0V38.459a4.077,4.077,0,0,1,1.2-2.9L114,32.824a4.125,4.125,0,0,1,.215,1.495l-.667,16.658a.758.758,0,0,0,.727.788h.031a.758.758,0,0,0,.757-.728l.667-16.658A5.6,5.6,0,0,0,111.992,28.858Zm-5.175-16.805h.863a.864.864,0,0,1,.863.863v2.431a.864.864,0,0,1-.863.863h-.863ZM89.091,16.209h-.863a.864.864,0,0,1-.863-.863V12.915a.864.864,0,0,1,.863-.863h.863Zm1.517-.052v-4.1h.314a1.561,1.561,0,0,0,1.457-.986A.758.758,0,1,0,90.97,10.5a.052.052,0,0,1-.048.033H89.8V7.491c0-3.295,3.659-5.975,8.157-5.975s8.157,2.68,8.157,5.975v3.045h-1.124a.052.052,0,0,1-.048-.033l-1.01-2.524a2.368,2.368,0,0,0-2.209-1.5H94.188a2.388,2.388,0,0,0-2.052,1.175.758.758,0,1,0,1.308.767A.865.865,0,0,1,94.188,8h7.531a.858.858,0,0,1,.8.542l1.01,2.524a1.561,1.561,0,0,0,1.457.986h.314v3.294c0,2.225-3.364,4.1-7.346,4.1a.758.758,0,0,0,0,1.517,11.467,11.467,0,0,0,6.769-1.957,7.346,7.346,0,0,1-14.116-2.854Zm3.44,16.165a.863.863,0,0,1-1.249-.233L90,27.613l1.406-1.406,4.048,5.059Zm3.947-.41a.052.052,0,0,1-.081,0L93.039,25.82V23.529a8.845,8.845,0,0,0,9.834,0v2.288Zm5.114.177a.863.863,0,0,1-1.249.233l-1.407-1.055,4.047-5.059,1.406,1.406Z" transform="translate(-80.179)" fill="#fff"/>
          </g>
        </g>
        <g id="Grupo_26307-2" data-name="Grupo 26307" transform="translate(8.911 40.523)">
          <g id="Grupo_26306-2" data-name="Grupo 26306">
            <path id="Trazado_20313-2" data-name="Trazado 20313" d="M173.94,400.807h-4.863a.758.758,0,1,0,0,1.517h4.863a.758.758,0,0,0,0-1.517Z" transform="translate(-168.319 -400.807)" fill="#fff"/>
          </g>
        </g>
      </g>
    </g>
    <g id="Grupo_26366" data-name="Grupo 26366" opacity="0.4">
      <g id="Grupo_26364" data-name="Grupo 26364" transform="translate(220.28 -5.975)">
        <g id="_044-man-1" data-name="044-man-1" transform="translate(298.72 3822.974)">
          <g id="Grupo_26313" data-name="Grupo 26313" transform="translate(0 4.052)">
            <g id="Grupo_26312" data-name="Grupo 26312">
              <path id="Trazado_20316" data-name="Trazado 20316" d="M46.052,66.431l-5.713-2.2a1.683,1.683,0,0,1-1.073-1.562V60.59A8.174,8.174,0,0,0,41.3,56.521l0,0a2.235,2.235,0,0,0,.65-.057,2.332,2.332,0,0,0,1.729-2.285V53.6a2.348,2.348,0,0,0-.707-1.684c.711-3.829.137-6.948-1.667-9.031-1.74-2.009-4.545-2.969-8.111-2.776a10.616,10.616,0,0,0-6.11,2.26c-.921.12-3.549.784-3.549,4.458a19.82,19.82,0,0,0,.563,4.664A2.32,2.32,0,0,0,22.8,53.6v.572a2.332,2.332,0,0,0,1.729,2.285,2.237,2.237,0,0,0,.65.057l0,0a8.174,8.174,0,0,0,2.037,4.069v2.082a1.683,1.683,0,0,1-1.073,1.562l-5.713,2.2a5.616,5.616,0,0,0-3.6,5.491l.658,15.146a.758.758,0,0,0,.757.725h.033A.758.758,0,0,0,19,87l-.659-15.146a4.1,4.1,0,0,1,.186-1.414l2.431,2.432A3.688,3.688,0,0,1,22.05,75.5V87.035a.758.758,0,1,0,1.517,0V75.5a5.194,5.194,0,0,0-1.532-3.7l-2.747-2.747a4.1,4.1,0,0,1,1.684-1.207l4.374-1.682a8.543,8.543,0,0,0,2.83,3.737,8.46,8.46,0,0,0,10.175-.036,8.539,8.539,0,0,0,2.783-3.7l4.373,1.682a4.1,4.1,0,0,1,1.684,1.207L44.445,71.8a5.194,5.194,0,0,0-1.532,3.7V87.035a.758.758,0,1,0,1.517,0V75.5a3.688,3.688,0,0,1,1.087-2.625l2.431-2.431a4.1,4.1,0,0,1,.186,1.414L47.476,87a.758.758,0,0,0,.725.791h.033a.758.758,0,0,0,.757-.725l.658-15.146A5.615,5.615,0,0,0,46.052,66.431ZM26.666,56.237A1.513,1.513,0,0,0,25.094,55a.726.726,0,0,1-.22-.019.816.816,0,0,1-.562-.809V53.6a.794.794,0,0,1,.594-.8.73.73,0,0,1,.718.275,1.073,1.073,0,0,0,1.474.232,5.828,5.828,0,0,0,1.925-2.62.758.758,0,1,0-1.443-.467,4.372,4.372,0,0,1-1.063,1.6,2.242,2.242,0,0,0-.879-.47,18.323,18.323,0,0,1-.581-4.538,2.824,2.824,0,0,1,1.138-2.581,2.624,2.624,0,0,1,1.209-.386.758.758,0,0,0,.525-.212,8.891,8.891,0,0,1,5.352-2.025c3.081-.166,5.461.613,6.883,2.254,1.44,1.663,1.914,4.218,1.384,7.415a3.232,3.232,0,0,0-.478.014l-.049-.659a.759.759,0,0,0-.228-.488,15.334,15.334,0,0,0-3.967-2.6,12.827,12.827,0,0,0-9.736-.595.758.758,0,0,0,.5,1.432,11.184,11.184,0,0,1,8.557.52,14.62,14.62,0,0,1,3.385,2.147l.094,1.261a.758.758,0,0,0,1.137.6,1.788,1.788,0,0,1,.811-.108.79.79,0,0,1,.6.785v.581a.816.816,0,0,1-.562.809.722.722,0,0,1-.22.019,1.512,1.512,0,0,0-1.572,1.233,6.684,6.684,0,0,1-13.148,0ZM33.24,70.068a6.9,6.9,0,0,1-6.48-4.45,3.208,3.208,0,0,0,1.97-2.945v-.8a8.195,8.195,0,0,0,9.019,0v.8a3.208,3.208,0,0,0,1.971,2.945A6.984,6.984,0,0,1,33.24,70.068Z" transform="translate(-16.825 -40.08)" fill="#fff"/>
            </g>
          </g>
          <g id="Grupo_26315" data-name="Grupo 26315" transform="translate(24.761)">
            <g id="Grupo_26314" data-name="Grupo 26314">
              <path id="Trazado_20317" data-name="Trazado 20317" d="M271.606,0a13.643,13.643,0,0,0-9.652,3.966.758.758,0,0,0,1.066,1.078,12.209,12.209,0,1,1,.419,17.757.758.758,0,0,0-1.015,1.127A13.726,13.726,0,1,0,271.606,0Z" transform="translate(-261.729)" fill="#fff"/>
            </g>
          </g>
          <g id="Grupo_26317" data-name="Grupo 26317" transform="translate(29.84 5.673)">
            <g id="Grupo_26316" data-name="Grupo 26316">
              <path id="Trazado_20318" data-name="Trazado 20318" d="M317.534,63.6V59.3c1.526.2,2.536.971,2.536,1.675a.758.758,0,1,0,1.517,0c0-1.643-1.727-2.964-4.052-3.2v-.9a.758.758,0,1,0-1.517,0v.9c-2.325.238-4.052,1.559-4.052,3.2,0,2.2,1.858,3.077,4.052,3.755v4.3c-1.526-.2-2.536-.971-2.536-1.675a.758.758,0,1,0-1.517,0c0,1.643,1.728,2.964,4.052,3.2v.9a.758.758,0,1,0,1.517,0v-.9c2.325-.238,4.052-1.559,4.052-3.2C321.586,65.157,319.728,64.28,317.534,63.6Zm-1.517-.467c-1.9-.64-2.536-1.216-2.536-2.16,0-.7,1.01-1.477,2.536-1.675Zm1.516,5.9V65.2c1.9.64,2.536,1.216,2.536,2.16C320.07,68.061,319.06,68.834,317.534,69.032Z" transform="translate(-311.965 -56.113)" fill="#fff"/>
            </g>
          </g>
        </g>
        <g id="_045-woman-2" data-name="045-woman-2" transform="translate(351.262 3822.974)">
          <g id="Grupo_26319" data-name="Grupo 26319" transform="translate(0 7.294)">
            <g id="Grupo_26318" data-name="Grupo 26318">
              <path id="Trazado_20319" data-name="Trazado 20319" d="M51.063,99.783l-3.933-1.717-1.47-1.2,2.018-.4a1.573,1.573,0,0,0,1.257-1.426l.452-6.321A2.388,2.388,0,0,0,50.474,86.7v-.581a2.347,2.347,0,0,0-.778-1.752l.122-1.71a9.814,9.814,0,1,0-19.578,0l.122,1.7a2.361,2.361,0,0,0-.777,1.768V86.7a2.388,2.388,0,0,0,1.088,2.012l.452,6.321a1.573,1.573,0,0,0,1.257,1.426l2.018.4-1.47,1.2L29,99.783a5.262,5.262,0,0,0-3.132,5.014l.47,11.1a.758.758,0,0,0,.757.726h.033a.758.758,0,0,0,.726-.79l-.47-11.1a3.707,3.707,0,0,1,.537-2.074l2.125,2.55a4.465,4.465,0,0,1,1.033,2.854v7.8a.758.758,0,1,0,1.517,0v-7.8a5.986,5.986,0,0,0-1.385-3.824l-2.249-2.7a3.65,3.65,0,0,1,.645-.367l3.388-1.479.76,1.386a2.372,2.372,0,0,0,3.15.984l1.358-.679,1.012,1.012v13.464a.758.758,0,1,0,1.517,0V102.4l1.012-1.012,1.358.679a2.372,2.372,0,0,0,3.15-.984l.76-1.386,3.388,1.479a3.651,3.651,0,0,1,.645.367l-2.249,2.7a5.985,5.985,0,0,0-1.385,3.824v7.8a.758.758,0,1,0,1.517,0v-7.8a4.466,4.466,0,0,1,1.033-2.854l2.125-2.55a3.708,3.708,0,0,1,.537,2.074l-.47,11.1a.758.758,0,0,0,.726.79h.033a.758.758,0,0,0,.757-.726l.47-11.1A5.262,5.262,0,0,0,51.063,99.783Zm-3.641-4.854a.052.052,0,0,1-.042.047l-2.867.573V94.421a8.193,8.193,0,0,0,3.238-4.107Zm-15.539-7.4a.723.723,0,0,1-.22-.019A.816.816,0,0,1,31.1,86.7v-.572a.794.794,0,0,1,.594-.8.731.731,0,0,1,.718.275,1.073,1.073,0,0,0,1.474.232A5.781,5.781,0,0,0,35.44,84.2a.758.758,0,1,0-1.281-.812,4.321,4.321,0,0,1-.842.976,2.247,2.247,0,0,0-1.474-.559l-.09-1.256a8.3,8.3,0,1,1,16.553,0l-.09,1.259a3.59,3.59,0,0,0-.8.092l-.989-1.195a1.572,1.572,0,0,0-1.425-.554,16.932,16.932,0,0,1-4.5.033,7.507,7.507,0,0,1-5.1-2.552.758.758,0,0,0-1.193.936c3.053,3.892,9.2,3.345,11.008,3.085a.046.046,0,0,1,.041.019l1.323,1.6a.758.758,0,0,0,.965.172,1.787,1.787,0,0,1,.811-.108.79.79,0,0,1,.6.785V86.7a.816.816,0,0,1-.562.809.723.723,0,0,1-.22.019A1.513,1.513,0,0,0,46.6,88.765a6.684,6.684,0,0,1-13.148,0A1.512,1.512,0,0,0,31.883,87.532Zm.8,7.445a.052.052,0,0,1-.042-.047l-.33-4.616a8.193,8.193,0,0,0,3.238,4.107V95.55Zm3.544,5.73a.86.86,0,0,1-1.142-.357l-.789-1.438.823-.671,2.013,2.013Zm3.806.3-3.294-3.294a.757.757,0,0,0,.327-.623V95.2A8.194,8.194,0,0,0,43,95.2v1.894a.757.757,0,0,0,.327.623Zm4.948-.66a.86.86,0,0,1-1.142.357l-.905-.453,2.014-2.013.823.671Z" transform="translate(-25.859 -72.148)" fill="#fff"/>
            </g>
          </g>
          <g id="Grupo_26321" data-name="Grupo 26321" transform="translate(20.575)">
            <g id="Grupo_26320" data-name="Grupo 26320">
              <path id="Trazado_20320" data-name="Trazado 20320" d="M241.6,0a13.7,13.7,0,0,0-12.148,7.331.758.758,0,1,0,1.341.708,12.209,12.209,0,1,1,4.343,16.047.758.758,0,1,0-.8,1.286A13.726,13.726,0,1,0,241.6,0Z" transform="translate(-229.36)" fill="#fff"/>
            </g>
          </g>
          <g id="Grupo_26323" data-name="Grupo 26323" transform="translate(26.379 7.294)">
            <g id="Grupo_26322" data-name="Grupo 26322">
              <path id="Trazado_20321" data-name="Trazado 20321" d="M302.927,77.818h-7.471a2.377,2.377,0,0,0-3.312-1.372l-4.079-4.079a.758.758,0,1,0-1.072,1.072l4.079,4.079a2.379,2.379,0,1,0,4.385,1.816h7.471a.758.758,0,1,0,0-1.517ZM293.2,79.439a.863.863,0,1,1,.863-.863A.864.864,0,0,1,293.2,79.439Z" transform="translate(-286.77 -72.145)" fill="#fff"/>
            </g>
          </g>
          <g id="Grupo_26325" data-name="Grupo 26325" transform="translate(32.053 3.242)">
            <g id="Grupo_26324" data-name="Grupo 26324">
              <path id="Trazado_20322" data-name="Trazado 20322" d="M343.641,32.064a.758.758,0,0,0-.758.758v1.621a.758.758,0,0,0,1.517,0V32.822A.758.758,0,0,0,343.641,32.064Z" transform="translate(-342.883 -32.064)" fill="#fff"/>
            </g>
          </g>
          <g id="Grupo_26327" data-name="Grupo 26327" transform="translate(32.053 21.072)">
            <g id="Grupo_26326" data-name="Grupo 26326">
              <path id="Trazado_20323" data-name="Trazado 20323" d="M343.641,208.419a.758.758,0,0,0-.758.758V210.8a.758.758,0,1,0,1.517,0v-1.621A.758.758,0,0,0,343.641,208.419Z" transform="translate(-342.883 -208.419)" fill="#fff"/>
            </g>
          </g>
        </g>
      </g>
      <g id="Grupo_26365" data-name="Grupo 26365" transform="translate(483.201 -5.975)">
        <g id="_044-man-1-2" data-name="044-man-1" transform="translate(298.72 3822.974)">
          <g id="Grupo_26313-2" data-name="Grupo 26313" transform="translate(0 4.052)">
            <g id="Grupo_26312-2" data-name="Grupo 26312">
              <path id="Trazado_20316-2" data-name="Trazado 20316" d="M46.052,66.431l-5.713-2.2a1.683,1.683,0,0,1-1.073-1.562V60.59A8.174,8.174,0,0,0,41.3,56.521l0,0a2.235,2.235,0,0,0,.65-.057,2.332,2.332,0,0,0,1.729-2.285V53.6a2.348,2.348,0,0,0-.707-1.684c.711-3.829.137-6.948-1.667-9.031-1.74-2.009-4.545-2.969-8.111-2.776a10.616,10.616,0,0,0-6.11,2.26c-.921.12-3.549.784-3.549,4.458a19.82,19.82,0,0,0,.563,4.664A2.32,2.32,0,0,0,22.8,53.6v.572a2.332,2.332,0,0,0,1.729,2.285,2.237,2.237,0,0,0,.65.057l0,0a8.174,8.174,0,0,0,2.037,4.069v2.082a1.683,1.683,0,0,1-1.073,1.562l-5.713,2.2a5.616,5.616,0,0,0-3.6,5.491l.658,15.146a.758.758,0,0,0,.757.725h.033A.758.758,0,0,0,19,87l-.659-15.146a4.1,4.1,0,0,1,.186-1.414l2.431,2.432A3.688,3.688,0,0,1,22.05,75.5V87.035a.758.758,0,1,0,1.517,0V75.5a5.194,5.194,0,0,0-1.532-3.7l-2.747-2.747a4.1,4.1,0,0,1,1.684-1.207l4.374-1.682a8.543,8.543,0,0,0,2.83,3.737,8.46,8.46,0,0,0,10.175-.036,8.539,8.539,0,0,0,2.783-3.7l4.373,1.682a4.1,4.1,0,0,1,1.684,1.207L44.445,71.8a5.194,5.194,0,0,0-1.532,3.7V87.035a.758.758,0,1,0,1.517,0V75.5a3.688,3.688,0,0,1,1.087-2.625l2.431-2.431a4.1,4.1,0,0,1,.186,1.414L47.476,87a.758.758,0,0,0,.725.791h.033a.758.758,0,0,0,.757-.725l.658-15.146A5.615,5.615,0,0,0,46.052,66.431ZM26.666,56.237A1.513,1.513,0,0,0,25.094,55a.726.726,0,0,1-.22-.019.816.816,0,0,1-.562-.809V53.6a.794.794,0,0,1,.594-.8.73.73,0,0,1,.718.275,1.073,1.073,0,0,0,1.474.232,5.828,5.828,0,0,0,1.925-2.62.758.758,0,1,0-1.443-.467,4.372,4.372,0,0,1-1.063,1.6,2.242,2.242,0,0,0-.879-.47,18.323,18.323,0,0,1-.581-4.538,2.824,2.824,0,0,1,1.138-2.581,2.624,2.624,0,0,1,1.209-.386.758.758,0,0,0,.525-.212,8.891,8.891,0,0,1,5.352-2.025c3.081-.166,5.461.613,6.883,2.254,1.44,1.663,1.914,4.218,1.384,7.415a3.232,3.232,0,0,0-.478.014l-.049-.659a.759.759,0,0,0-.228-.488,15.334,15.334,0,0,0-3.967-2.6,12.827,12.827,0,0,0-9.736-.595.758.758,0,0,0,.5,1.432,11.184,11.184,0,0,1,8.557.52,14.62,14.62,0,0,1,3.385,2.147l.094,1.261a.758.758,0,0,0,1.137.6,1.788,1.788,0,0,1,.811-.108.79.79,0,0,1,.6.785v.581a.816.816,0,0,1-.562.809.722.722,0,0,1-.22.019,1.512,1.512,0,0,0-1.572,1.233,6.684,6.684,0,0,1-13.148,0ZM33.24,70.068a6.9,6.9,0,0,1-6.48-4.45,3.208,3.208,0,0,0,1.97-2.945v-.8a8.195,8.195,0,0,0,9.019,0v.8a3.208,3.208,0,0,0,1.971,2.945A6.984,6.984,0,0,1,33.24,70.068Z" transform="translate(-16.825 -40.08)" fill="#fff"/>
            </g>
          </g>
          <g id="Grupo_26315-2" data-name="Grupo 26315" transform="translate(24.761)">
            <g id="Grupo_26314-2" data-name="Grupo 26314">
              <path id="Trazado_20317-2" data-name="Trazado 20317" d="M271.606,0a13.643,13.643,0,0,0-9.652,3.966.758.758,0,0,0,1.066,1.078,12.209,12.209,0,1,1,.419,17.757.758.758,0,0,0-1.015,1.127A13.726,13.726,0,1,0,271.606,0Z" transform="translate(-261.729)" fill="#fff"/>
            </g>
          </g>
          <g id="Grupo_26317-2" data-name="Grupo 26317" transform="translate(29.84 5.673)">
            <g id="Grupo_26316-2" data-name="Grupo 26316">
              <path id="Trazado_20318-2" data-name="Trazado 20318" d="M317.534,63.6V59.3c1.526.2,2.536.971,2.536,1.675a.758.758,0,1,0,1.517,0c0-1.643-1.727-2.964-4.052-3.2v-.9a.758.758,0,1,0-1.517,0v.9c-2.325.238-4.052,1.559-4.052,3.2,0,2.2,1.858,3.077,4.052,3.755v4.3c-1.526-.2-2.536-.971-2.536-1.675a.758.758,0,1,0-1.517,0c0,1.643,1.728,2.964,4.052,3.2v.9a.758.758,0,1,0,1.517,0v-.9c2.325-.238,4.052-1.559,4.052-3.2C321.586,65.157,319.728,64.28,317.534,63.6Zm-1.517-.467c-1.9-.64-2.536-1.216-2.536-2.16,0-.7,1.01-1.477,2.536-1.675Zm1.516,5.9V65.2c1.9.64,2.536,1.216,2.536,2.16C320.07,68.061,319.06,68.834,317.534,69.032Z" transform="translate(-311.965 -56.113)" fill="#fff"/>
            </g>
          </g>
        </g>
        <g id="_045-woman-2-2" data-name="045-woman-2" transform="translate(351.262 3822.974)">
          <g id="Grupo_26319-2" data-name="Grupo 26319" transform="translate(0 7.294)">
            <g id="Grupo_26318-2" data-name="Grupo 26318">
              <path id="Trazado_20319-2" data-name="Trazado 20319" d="M51.063,99.783l-3.933-1.717-1.47-1.2,2.018-.4a1.573,1.573,0,0,0,1.257-1.426l.452-6.321A2.388,2.388,0,0,0,50.474,86.7v-.581a2.347,2.347,0,0,0-.778-1.752l.122-1.71a9.814,9.814,0,1,0-19.578,0l.122,1.7a2.361,2.361,0,0,0-.777,1.768V86.7a2.388,2.388,0,0,0,1.088,2.012l.452,6.321a1.573,1.573,0,0,0,1.257,1.426l2.018.4-1.47,1.2L29,99.783a5.262,5.262,0,0,0-3.132,5.014l.47,11.1a.758.758,0,0,0,.757.726h.033a.758.758,0,0,0,.726-.79l-.47-11.1a3.707,3.707,0,0,1,.537-2.074l2.125,2.55a4.465,4.465,0,0,1,1.033,2.854v7.8a.758.758,0,1,0,1.517,0v-7.8a5.986,5.986,0,0,0-1.385-3.824l-2.249-2.7a3.65,3.65,0,0,1,.645-.367l3.388-1.479.76,1.386a2.372,2.372,0,0,0,3.15.984l1.358-.679,1.012,1.012v13.464a.758.758,0,1,0,1.517,0V102.4l1.012-1.012,1.358.679a2.372,2.372,0,0,0,3.15-.984l.76-1.386,3.388,1.479a3.651,3.651,0,0,1,.645.367l-2.249,2.7a5.985,5.985,0,0,0-1.385,3.824v7.8a.758.758,0,1,0,1.517,0v-7.8a4.466,4.466,0,0,1,1.033-2.854l2.125-2.55a3.708,3.708,0,0,1,.537,2.074l-.47,11.1a.758.758,0,0,0,.726.79h.033a.758.758,0,0,0,.757-.726l.47-11.1A5.262,5.262,0,0,0,51.063,99.783Zm-3.641-4.854a.052.052,0,0,1-.042.047l-2.867.573V94.421a8.193,8.193,0,0,0,3.238-4.107Zm-15.539-7.4a.723.723,0,0,1-.22-.019A.816.816,0,0,1,31.1,86.7v-.572a.794.794,0,0,1,.594-.8.731.731,0,0,1,.718.275,1.073,1.073,0,0,0,1.474.232A5.781,5.781,0,0,0,35.44,84.2a.758.758,0,1,0-1.281-.812,4.321,4.321,0,0,1-.842.976,2.247,2.247,0,0,0-1.474-.559l-.09-1.256a8.3,8.3,0,1,1,16.553,0l-.09,1.259a3.59,3.59,0,0,0-.8.092l-.989-1.195a1.572,1.572,0,0,0-1.425-.554,16.932,16.932,0,0,1-4.5.033,7.507,7.507,0,0,1-5.1-2.552.758.758,0,0,0-1.193.936c3.053,3.892,9.2,3.345,11.008,3.085a.046.046,0,0,1,.041.019l1.323,1.6a.758.758,0,0,0,.965.172,1.787,1.787,0,0,1,.811-.108.79.79,0,0,1,.6.785V86.7a.816.816,0,0,1-.562.809.723.723,0,0,1-.22.019A1.513,1.513,0,0,0,46.6,88.765a6.684,6.684,0,0,1-13.148,0A1.512,1.512,0,0,0,31.883,87.532Zm.8,7.445a.052.052,0,0,1-.042-.047l-.33-4.616a8.193,8.193,0,0,0,3.238,4.107V95.55Zm3.544,5.73a.86.86,0,0,1-1.142-.357l-.789-1.438.823-.671,2.013,2.013Zm3.806.3-3.294-3.294a.757.757,0,0,0,.327-.623V95.2A8.194,8.194,0,0,0,43,95.2v1.894a.757.757,0,0,0,.327.623Zm4.948-.66a.86.86,0,0,1-1.142.357l-.905-.453,2.014-2.013.823.671Z" transform="translate(-25.859 -72.148)" fill="#fff"/>
            </g>
          </g>
          <g id="Grupo_26321-2" data-name="Grupo 26321" transform="translate(20.575)">
            <g id="Grupo_26320-2" data-name="Grupo 26320">
              <path id="Trazado_20320-2" data-name="Trazado 20320" d="M241.6,0a13.7,13.7,0,0,0-12.148,7.331.758.758,0,1,0,1.341.708,12.209,12.209,0,1,1,4.343,16.047.758.758,0,1,0-.8,1.286A13.726,13.726,0,1,0,241.6,0Z" transform="translate(-229.36)" fill="#fff"/>
            </g>
          </g>
          <g id="Grupo_26323-2" data-name="Grupo 26323" transform="translate(26.379 7.294)">
            <g id="Grupo_26322-2" data-name="Grupo 26322">
              <path id="Trazado_20321-2" data-name="Trazado 20321" d="M302.927,77.818h-7.471a2.377,2.377,0,0,0-3.312-1.372l-4.079-4.079a.758.758,0,1,0-1.072,1.072l4.079,4.079a2.379,2.379,0,1,0,4.385,1.816h7.471a.758.758,0,1,0,0-1.517ZM293.2,79.439a.863.863,0,1,1,.863-.863A.864.864,0,0,1,293.2,79.439Z" transform="translate(-286.77 -72.145)" fill="#fff"/>
            </g>
          </g>
          <g id="Grupo_26325-2" data-name="Grupo 26325" transform="translate(32.053 3.242)">
            <g id="Grupo_26324-2" data-name="Grupo 26324">
              <path id="Trazado_20322-2" data-name="Trazado 20322" d="M343.641,32.064a.758.758,0,0,0-.758.758v1.621a.758.758,0,0,0,1.517,0V32.822A.758.758,0,0,0,343.641,32.064Z" transform="translate(-342.883 -32.064)" fill="#fff"/>
            </g>
          </g>
          <g id="Grupo_26327-2" data-name="Grupo 26327" transform="translate(32.053 21.072)">
            <g id="Grupo_26326-2" data-name="Grupo 26326">
              <path id="Trazado_20323-2" data-name="Trazado 20323" d="M343.641,208.419a.758.758,0,0,0-.758.758V210.8a.758.758,0,1,0,1.517,0v-1.621A.758.758,0,0,0,343.641,208.419Z" transform="translate(-342.883 -208.419)" fill="#fff"/>
            </g>
          </g>
        </g>
      </g>
    </g>
  </g>
</svg>
