<svg xmlns="http://www.w3.org/2000/svg" width="228.138" height="211.084" viewBox="0 0 228.138 211.084">
  <g id="Grupo_19688" data-name="Grupo 19688" transform="translate(-2216.354 -415.411)">
    <path id="Trazado_17682" data-name="Trazado 17682" d="M2325.913,856.648v44.9l32.888-14.085V842.419Z" transform="translate(-70.572 -275.056)" fill="#97181a"/>
    <path id="Trazado_17683" data-name="Trazado 17683" d="M2216.354,886.029l34.307,14.693v-44.9l-34.307-14.693Z" transform="translate(0 -274.227)" fill="#97181a"/>
    <path id="Trazado_17684" data-name="Trazado 17684" d="M2292.091,806.023l-33.034-14.148-32.092,13.884,32.872,14.077Z" transform="translate(-6.835 -242.498)" fill="#97181a"/>
    <path id="Trazado_17685" data-name="Trazado 17685" d="M2541.044,900.439l34.308-14.693V840.693l-34.308,14.843Z" transform="translate(-209.148 -273.944)" fill="#97181a"/>
    <path id="Trazado_17686" data-name="Trazado 17686" d="M2435.474,887.737l32.888,14.085v-44.9l-32.888-14.085Z" transform="translate(-141.145 -275.327)" fill="#97181a"/>
    <path id="Trazado_17687" data-name="Trazado 17687" d="M2442.094,805.144l32.872,14.077,33.043-14.15-33.038-14.149Z" transform="translate(-145.409 -241.884)" fill="#97181a"/>
    <path id="Trazado_17688" data-name="Trazado 17688" d="M2761.048,900.439l34.307-14.693V840.693l-34.307,14.843Z" transform="translate(-350.863 -273.944)" fill="#97181a"/>
    <path id="Trazado_17689" data-name="Trazado 17689" d="M2651.488,886.028l34.308,14.693v-44.9l-34.308-14.693Z" transform="translate(-280.29 -274.226)" fill="#97181a"/>
    <path id="Trazado_17690" data-name="Trazado 17690" d="M2728.012,805.071l-33.037-14.149L2662.1,805.144l32.872,14.077Z" transform="translate(-287.125 -241.884)" fill="#97181a"/>
    <path id="Trazado_17691" data-name="Trazado 17691" d="M2465.35,652.816l-34.307,14.844v44.9l34.307-14.693Z" transform="translate(-138.291 -152.924)" fill="#d64626"/>
    <path id="Trazado_17692" data-name="Trazado 17692" d="M2355.791,712.172V667.95l-34.308-14.693v44.231c.052.018.105.036.157.058Z" transform="translate(-67.719 -153.208)" fill="#d64626"/>
    <path id="Trazado_17693" data-name="Trazado 17693" d="M2398.01,617.194l-33.038-14.15L2332.1,617.268l32.871,14.077Z" transform="translate(-74.555 -120.863)" fill="#d64626"/>
    <path id="Trazado_17694" data-name="Trazado 17694" d="M2651.045,712.563l34.308-14.693V652.816l-34.308,14.844Z" transform="translate(-280.005 -152.924)" fill="#d64626"/>
    <path id="Trazado_17695" data-name="Trazado 17695" d="M2541.487,698.154l34.307,14.693v-44.9l-34.307-14.693Z" transform="translate(-209.434 -153.208)" fill="#d64626"/>
    <path id="Trazado_17696" data-name="Trazado 17696" d="M2584.971,631.419l33.043-14.151-32.943-14.109-18.732,8.023-14.238,6.16Z" transform="translate(-216.27 -120.937)" fill="#d64626"/>
    <path id="Trazado_17697" data-name="Trazado 17697" d="M2541.487,524.929l16.162-6.922,18.146-7.851V465.183l-34.307,14.844Z" transform="translate(-209.434 -32.06)" fill="#ff8f00"/>
    <path id="Trazado_17698" data-name="Trazado 17698" d="M2431.927,465.624v44.9l34.307,14.693v-44.9Z" transform="translate(-138.861 -32.344)" fill="#ff8f00"/>
    <path id="Trazado_17699" data-name="Trazado 17699" d="M2508.453,429.561l-33.037-14.15-32.875,14.223,32.871,14.078Z" transform="translate(-145.697 0)" fill="#ff8f00"/>
  </g>
</svg>
